<svg width="136" height="136" viewBox="0 0 136 136" fill="none" xmlns="http://www.w3.org/2000/svg">
<path fill-rule="evenodd" clip-rule="evenodd" d="M93.7001 10.5921C99.0348 9.16268 104.518 12.3285 105.948 17.6632L125.411 90.3008C126.84 95.6354 123.674 101.119 118.34 102.548L45.7021 122.011C40.3674 123.441 34.884 120.275 33.4546 114.94L13.9914 42.3027C12.562 36.9681 15.7278 31.4847 21.0625 30.0553L93.7001 10.5921Z" fill="#C5ECDC"/>
<path fill-rule="evenodd" clip-rule="evenodd" d="M60.9289 7.75467C64.8342 3.84942 71.1658 3.84942 75.0711 7.75466L128.245 60.9291C132.151 64.8343 132.151 71.166 128.245 75.0712L75.0711 128.246C71.1658 132.151 64.8342 132.151 60.9289 128.246L7.75451 75.0712C3.84927 71.166 3.84926 64.8343 7.75451 60.9291L60.9289 7.75467Z" fill="#3E9F93"/>
<path d="M94.4911 48H40.8814C36.551 48 33 51.5318 33 55.8388V62.9025C33 67.037 36.2043 70.3964 40.2748 70.7413V70.8272C40.2748 71.3439 40.621 71.6888 41.1411 71.6888H94.3178C94.8373 71.6888 95.1841 71.3445 95.1841 70.8272V70.7407C99.2546 70.3964 102.459 67.037 102.459 62.9019V55.8382C102.459 51.5319 98.9079 48 94.4911 48L94.4911 48ZM93.4514 69.9654H41.9203V68.3286H93.3648V69.9654H93.4514ZM100.727 62.9023C100.727 66.0893 98.3018 68.6736 95.184 69.0185V67.4683C95.184 66.9515 94.8378 66.6067 94.3177 66.6067L41.0544 66.6061C40.5348 66.6061 40.1881 66.9503 40.1881 67.4677V69.0179C37.0702 68.6736 34.6452 66.0893 34.6452 62.9017V55.838C34.6452 52.4786 37.417 49.7219 40.7946 49.7219H94.4043C97.782 49.7219 100.554 52.4786 100.554 55.838L100.553 62.9023L100.727 62.9023Z" fill="white"/>
<path d="M89.9009 54.5469H40.7081C40.1886 54.5469 39.8418 54.8912 39.8418 55.4085C39.8418 55.9253 40.188 56.2701 40.7081 56.2701L89.9009 56.2695C90.4204 56.2695 90.7672 55.9252 90.7672 55.4079C90.7666 54.8912 90.4204 54.5469 89.9009 54.5469Z" fill="white"/>
<path d="M89.9009 60.2305H40.7081C40.1886 60.2305 39.8418 60.5748 39.8418 61.0921C39.8418 61.6088 40.188 61.9537 40.7081 61.9537H89.9009C90.4204 61.9537 90.7672 61.6094 90.7672 61.0921C90.7666 60.5754 90.4204 60.2305 89.9009 60.2305Z" fill="white"/>
<path d="M96.4831 55.1512C96.4831 55.865 95.9013 56.4436 95.1842 56.4436C94.4665 56.4436 93.8848 55.865 93.8848 55.1512C93.8848 54.438 94.4665 53.8594 95.1842 53.8594C95.9013 53.8594 96.4831 54.438 96.4831 55.1512Z" fill="white"/>
<path d="M96.4831 60.8348C96.4831 61.5486 95.9013 62.1266 95.1842 62.1266C94.4665 62.1266 93.8848 61.5486 93.8848 60.8348C93.8848 60.121 94.4665 59.543 95.1842 59.543C95.9013 59.543 96.4831 60.121 96.4831 60.8348Z" fill="white"/>
<path d="M54.9988 78.1523C54.4793 78.1523 54.1325 78.4966 54.1325 79.014C54.1325 79.5307 54.4787 79.8756 54.9988 79.8756C56.4711 79.8756 57.6835 81.0815 57.6835 82.5458C57.6835 84.01 56.471 85.2159 54.9988 85.2159C52.5738 85.2159 50.582 87.1969 50.582 89.6088C50.582 92.0207 52.5738 94.0018 54.9988 94.0018C55.5184 94.0018 55.8651 93.6575 55.8651 93.1401C55.8651 92.6234 55.519 92.2785 54.9988 92.2785C53.5266 92.2785 52.3142 91.0726 52.3142 89.6083C52.3142 88.1441 53.5266 86.9382 54.9988 86.9382C57.4238 86.9382 59.4156 84.9572 59.4156 82.5453C59.4156 80.134 57.4238 78.1523 54.9988 78.1523Z" fill="white"/>
<path d="M67.3836 78.1523C66.864 78.1523 66.5173 78.4966 66.5173 79.014C66.5173 79.5307 66.8634 79.8756 67.3836 79.8756C68.8558 79.8756 70.0683 81.0815 70.0683 82.5458C70.0683 84.01 68.8558 85.2159 67.3836 85.2159C64.9586 85.2159 62.9668 87.1969 62.9668 89.6088C62.9668 92.0207 64.9586 94.0018 67.3836 94.0018C67.9031 94.0018 68.2499 93.6575 68.2499 93.1401C68.2499 92.6234 67.9037 92.2785 67.3836 92.2785C65.9114 92.2785 64.6989 91.0726 64.6989 89.6083C64.6989 88.1441 65.9114 86.9382 67.3836 86.9382C69.8086 86.9382 71.8004 84.9572 71.8004 82.5453C71.8004 80.134 69.8086 78.1523 67.3836 78.1523Z" fill="white"/>
<path d="M79.7684 78.1523C79.2488 78.1523 78.902 78.4966 78.902 79.014C78.902 79.5307 79.2482 79.8756 79.7684 79.8756C81.2406 79.8756 82.453 81.0815 82.453 82.5458C82.453 84.01 81.2406 85.2159 79.7684 85.2159C77.3434 85.2159 75.3516 87.1969 75.3516 89.6088C75.3516 92.0207 77.3434 94.0018 79.7684 94.0018C80.2879 94.0018 80.6347 93.6575 80.6347 93.1401C80.6347 92.6234 80.2885 92.2785 79.7684 92.2785C78.2961 92.2785 77.0837 91.0726 77.0837 89.6083C77.0837 88.1441 78.2962 86.9382 79.7684 86.9382C82.1934 86.9382 84.1852 84.9572 84.1852 82.5453C84.1858 80.134 82.194 78.1523 79.7684 78.1523Z" fill="white"/>
</svg>
