<svg width="64" height="64" viewBox="0 0 64 64" fill="none" xmlns="http://www.w3.org/2000/svg">
<path fill-rule="evenodd" clip-rule="evenodd" d="M38.8974 6.63214C44.2301 5.19571 49.7063 8.35736 51.1288 13.6939L57.4362 37.3574C58.8586 42.694 55.6887 48.1845 50.3559 49.621L26.9038 55.938C21.571 57.3744 16.0948 54.2128 14.6724 48.8763L8.36497 25.2127C6.94254 19.8762 10.1125 14.3856 15.4453 12.9492L38.8974 6.63214Z" fill="#B7DBD7"/>
<path fill-rule="evenodd" clip-rule="evenodd" d="M25.0569 7.69898C28.9519 3.78351 35.2669 3.7835 39.1619 7.69897L56.3621 24.9898C60.2571 28.9052 60.2571 35.2535 56.3622 39.169L39.1619 56.4598C35.2669 60.3753 28.9519 60.3753 25.0569 56.4598L7.8566 39.169C3.96162 35.2535 3.96161 28.9053 7.85659 24.9898L25.0569 7.69898Z" fill="#3E9F93"/>
<path d="M34.4583 45H45.0333C45.5753 45 46.0799 44.7846 46.4542 44.3942C46.8311 44.0006 47.0245 43.4843 46.9977 42.94C46.4649 32.1448 42.3167 26.1933 41.7029 25.3683V24.0979C41.7029 22.6073 43.0876 21.4828 44.9236 21.4828C45.111 21.4828 45.2633 21.3319 45.2633 21.1452V18.3376C45.2633 18.1509 45.1112 18 44.9236 18H35.9315C35.7441 18 35.5918 18.1509 35.5918 18.3376V18.7913H33.9721C33.7847 18.7913 33.6324 18.9422 33.6324 19.1289V20.9776C33.6324 21.1643 33.7845 21.3152 33.9721 21.3152H35.5918V21.731C35.5918 21.9177 35.7439 22.0686 35.9315 22.0686H37.4237C37.148 22.8149 36.2873 24.4318 33.9929 24.4318C33.8056 24.4318 33.6532 24.5827 33.6532 24.7694C33.6532 24.956 33.8053 25.107 33.9929 25.107C35.9469 25.107 37.0319 24.085 37.609 23.1843V25.4818C37.609 29.4356 36.5602 31.0353 35.4497 32.729C35.348 32.8839 35.2469 33.0386 35.146 33.1951C34.8624 33.6366 34.5859 34.029 34.3183 34.4092C33.2984 35.8578 32.4927 37.002 32.4927 39.1417V43.0476C32.4929 44.1237 33.3749 45 34.4585 45L34.4583 45ZM35.5917 20.6396H34.3118V19.4658H35.5917V20.6396ZM36.2709 21.393V18.675H44.5837V20.8192C42.5314 20.9548 41.0236 22.3191 41.0236 24.0979V25.1439H38.2883V21.7305C38.2883 21.5438 38.1362 21.3929 37.9486 21.3929L36.2709 21.393ZM35.7184 33.5575C35.8179 33.4028 35.9181 33.2498 36.0186 33.0968C37.1029 31.443 38.2201 29.7272 38.2822 25.8182H41.1911C41.4924 26.2361 42.4751 27.683 43.498 30.0883C44.001 31.2708 44.5584 32.8011 45.0481 34.6496L34.9771 34.6499C35.2171 34.3085 35.4635 33.9547 35.7186 33.5573L35.7184 33.5575ZM33.172 39.1408C33.172 37.4634 33.7131 36.4775 34.505 35.3246H45.2213C45.6091 36.908 45.9393 38.7081 46.1454 40.7073L33.1725 40.7075L33.172 39.1408ZM33.172 41.3829H46.208C46.2532 41.9016 46.2926 42.4289 46.3193 42.9732C46.3371 43.3313 46.2104 43.6705 45.9628 43.929C45.7181 44.1845 45.3881 44.3253 45.0339 44.3253H34.4584C33.7494 44.3253 33.172 43.7518 33.172 43.0471V41.3829Z" fill="white"/>
<path d="M21.4302 44.9998H29.4502C30.2391 44.9998 30.8804 44.3531 30.8804 43.5583L30.8806 33.7485C30.8806 33.1227 30.7029 32.5158 30.3666 31.9925C30.1218 31.6118 30.1218 31.1002 30.3666 30.7198C30.7026 30.1962 30.8806 29.589 30.8806 28.9638V25.61C30.8806 23.9157 29.5817 22.5239 27.9355 22.3873V20.5901C27.9355 20.1506 27.581 19.7932 27.145 19.7932H26.6749V18.3376C26.6749 18.1509 26.525 18 26.34 18H24.5404C24.3556 18 24.2055 18.1509 24.2055 18.3376V19.7929H23.7354C23.2994 19.7929 22.9449 20.1508 22.9449 20.5899V22.387C21.2989 22.5236 20 23.9154 20 25.6095V28.9633C20 29.589 20.1777 30.1959 20.514 30.7193C20.7588 31.1 20.7588 31.6116 20.514 31.992C20.1777 32.5156 20 33.1227 20 33.7485V43.5583C20 44.3533 20.6417 45 21.4302 45L21.4302 44.9998ZM24.8752 18.6748H26.005V19.7926H24.8752V18.6748ZM23.6148 20.5895C23.6148 20.5224 23.669 20.4676 23.7358 20.4676H27.1449C27.2114 20.4676 27.2659 20.5222 27.2659 20.5895V22.3733H23.6148L23.6148 20.5895ZM20.6695 33.7484C20.6695 33.2533 20.8099 32.773 21.0756 32.3596C21.4614 31.7593 21.4614 30.9525 21.0756 30.3524C20.8099 29.9385 20.6695 29.4583 20.6695 28.9632V25.6094C20.6695 24.1968 21.8091 23.048 23.2103 23.048H27.6704C29.0716 23.048 30.2112 24.1968 30.2112 25.6094V28.9632C30.2112 29.4583 30.0708 29.9385 29.8051 30.3519C29.4193 30.952 29.4193 31.7586 29.8051 32.3591C30.0708 32.773 30.2112 33.2528 30.2112 33.7479V34.6498H20.6696L20.6695 33.7484ZM20.6695 35.325H30.2111V40.7074H20.6695V35.325ZM20.6695 41.3825H30.2111V43.558C30.2111 43.9808 29.8697 44.3246 29.4504 44.3246L21.4298 44.3243C21.0106 44.3248 20.6692 43.9809 20.6692 43.558L20.6695 41.3825Z" fill="white"/>
<path d="M25.4408 24.4492C23.8853 24.4492 22.6199 25.7146 22.6199 27.27C22.6199 28.8254 23.8853 30.091 25.4408 30.091C26.9962 30.091 28.2617 28.8254 28.2617 27.27C28.2617 25.7146 26.9962 24.4492 25.4408 24.4492ZM25.4408 29.4039C24.2642 29.4039 23.307 28.4467 23.307 27.27C23.307 26.0935 24.2643 25.1364 25.4408 25.1364C26.6172 25.1364 27.5745 26.0936 27.5745 27.27C27.5745 28.4468 26.6172 29.4039 25.4408 29.4039Z" fill="white"/>
</svg>
