<svg width="136" height="136" viewBox="0 0 136 136" fill="none" xmlns="http://www.w3.org/2000/svg">
<path fill-rule="evenodd" clip-rule="evenodd" d="M93.7001 10.5921C99.0348 9.16268 104.518 12.3285 105.948 17.6632L125.411 90.3008C126.84 95.6354 123.674 101.119 118.34 102.548L45.7021 122.011C40.3674 123.441 34.884 120.275 33.4546 114.94L13.9914 42.3027C12.562 36.9681 15.7278 31.4847 21.0625 30.0553L93.7001 10.5921Z" fill="#C5ECDC"/>
<path fill-rule="evenodd" clip-rule="evenodd" d="M60.9289 7.75467C64.8342 3.84942 71.1658 3.84942 75.0711 7.75466L128.245 60.9291C132.151 64.8343 132.151 71.166 128.245 75.0712L75.0711 128.246C71.1658 132.151 64.8342 132.151 60.9289 128.246L7.75451 75.0712C3.84927 71.166 3.84926 64.8343 7.75451 60.9291L60.9289 7.75467Z" fill="white"/>
<path d="M94.2367 89.5061L84.1426 63.8784L84.9836 60.7381L90.4232 59.2239C91.3205 58.9998 91.9374 58.1583 91.9374 57.261C91.9374 56.3636 91.3205 55.5226 90.4232 55.298L85.0399 53.8405L83.5257 48.4009C83.3016 47.5036 82.4601 46.8867 81.5628 46.8867C80.6654 46.8867 79.8244 47.5036 79.5998 48.4009L78.1419 53.7846L72.7023 55.2988C71.805 55.523 71.1881 56.3644 71.1881 57.2618C71.1881 58.1591 71.805 59.0001 72.7023 59.2247L78.086 60.6826L78.5347 62.1968L52.6266 62.1964C52.178 62.1964 51.7856 62.4769 51.6174 62.8693L41.0737 89.5064C40.9615 89.8428 40.9615 90.2355 41.186 90.5156C41.4102 90.796 41.6906 91.0202 42.0833 91.0202H93.1705C93.5069 91.0202 93.8433 90.852 94.0678 90.5156C94.292 90.2355 94.3479 89.8427 94.236 89.5064L94.2367 89.5061ZM73.656 57.2612L78.647 55.8592C79.3198 55.6351 79.8807 55.1301 80.0489 54.4573L81.4509 49.4663L82.8528 54.4573C83.021 55.1301 83.582 55.691 84.2548 55.8592L89.2457 57.2612L84.2548 58.6631C83.582 58.8313 83.0211 59.3923 82.8528 60.0651L81.4509 65.056L80.0489 60.0651C79.8807 59.3923 79.3198 58.8314 78.647 58.6631L73.656 57.2612ZM68.7769 64.3832H74.3288L75.338 69.3741H68.7768L68.7769 64.3832ZM53.3555 64.3832H58.795L57.8418 69.3741H51.393L53.3555 64.3832ZM43.71 88.8332L50.4957 71.5612H57.3932L53.9724 88.8332H43.71ZM66.5899 88.8332H56.2154L57.7292 81.1502H66.5896L66.5899 88.8332ZM66.5899 78.9633H58.1782L61.038 64.383H66.5899V78.9633ZM68.7769 88.8332V71.5612H75.7307L79.1515 88.8332H68.7769ZM76.5158 64.3832H79.0392L79.5438 66.1215C79.768 67.0188 80.6094 67.6357 81.5068 67.6357C82.0677 67.6357 82.5723 67.3552 82.9647 66.9629L87.6751 78.9636L79.3757 78.9632L76.5158 64.3832ZM81.3385 88.8332L79.8243 81.1502H88.5724L91.6004 88.8328L81.3385 88.8332Z" fill="#0E8778"/>
<path d="M60.3658 50.645L64.1789 51.7106L65.2445 55.5237C65.4686 56.3088 66.1418 56.8134 66.9828 56.8134C67.8238 56.8134 68.497 56.3088 68.7211 55.5237L69.7867 51.7106L73.5998 50.645C74.3849 50.4209 74.8895 49.7477 74.8895 48.9067C74.8895 48.0657 74.3849 47.3925 73.5998 47.1684L69.7867 46.1028L68.7211 42.2897C68.497 41.5046 67.8238 41 66.9828 41C66.1418 41 65.4686 41.5046 65.2445 42.2897L64.1789 46.1028L60.3658 47.2243C59.5807 47.4484 59.0761 48.1216 59.0761 48.9626C59.0202 49.7481 59.5807 50.4208 60.3658 50.645ZM64.9644 48.1779C65.5813 48.0097 66.03 47.561 66.1981 46.9442L66.9832 44.2525L67.7683 46.9442C67.9365 47.5611 68.4411 48.0098 69.002 48.1779L71.6936 48.963L69.002 49.6921C68.3851 49.8603 67.9364 50.309 67.7683 50.9258L67.0391 53.6175L66.2541 50.9258C66.0859 50.3089 65.6372 49.8602 65.0203 49.6921L62.3287 48.963L64.9644 48.1779Z" fill="#0E8778"/>
</svg>
