<svg width="64" height="64" viewBox="0 0 64 64" fill="none" xmlns="http://www.w3.org/2000/svg">
<path fill-rule="evenodd" clip-rule="evenodd" d="M38.8974 6.63214C44.2301 5.19571 49.7063 8.35736 51.1288 13.6939L57.4362 37.3574C58.8586 42.694 55.6887 48.1845 50.3559 49.621L26.9038 55.938C21.571 57.3744 16.0948 54.2128 14.6724 48.8763L8.36497 25.2127C6.94254 19.8762 10.1125 14.3856 15.4453 12.9492L38.8974 6.63214Z" fill="#B7DBD7"/>
<path fill-rule="evenodd" clip-rule="evenodd" d="M25.0569 7.69898C28.9519 3.78351 35.2669 3.7835 39.1619 7.69897L56.3621 24.9898C60.2571 28.9052 60.2571 35.2535 56.3622 39.169L39.1619 56.4598C35.2669 60.3753 28.9519 60.3753 25.0569 56.4598L7.8566 39.169C3.96162 35.2535 3.96161 28.9053 7.85659 24.9898L25.0569 7.69898Z" fill="#3E9F93"/>
<path d="M44.5648 42.2943L39.7175 29.9877L40.1214 28.4797L42.7335 27.7526C43.1644 27.6449 43.4606 27.2409 43.4606 26.8099C43.4606 26.379 43.1644 25.9752 42.7335 25.8673L40.1484 25.1674L39.4213 22.5553C39.3136 22.1244 38.9096 21.8281 38.4786 21.8281C38.0477 21.8281 37.6439 22.1244 37.536 22.5553L36.8359 25.1406L34.2238 25.8677C33.7929 25.9753 33.4966 26.3794 33.4966 26.8103C33.4966 27.2412 33.7929 27.6451 34.2238 27.7529L36.8091 28.4531L37.0245 29.1802L24.5832 29.18C24.3678 29.18 24.1794 29.3147 24.0986 29.5031L19.0354 42.2945C18.9815 42.456 18.9815 42.6446 19.0893 42.7791C19.197 42.9138 19.3316 43.0214 19.5202 43.0214H44.0528C44.2143 43.0214 44.3759 42.9407 44.4837 42.7791C44.5913 42.6446 44.6182 42.456 44.5645 42.2945L44.5648 42.2943ZM34.6817 26.81L37.0784 26.1368C37.4015 26.0292 37.6709 25.7867 37.7517 25.4636L38.4249 23.0669L39.0981 25.4636C39.1789 25.7867 39.4483 26.056 39.7714 26.1368L42.1681 26.81L39.7714 27.4833C39.4483 27.564 39.1789 27.8334 39.0981 28.1565L38.4249 30.5532L37.7517 28.1565C37.6709 27.8334 37.4015 27.5641 37.0784 27.4833L34.6817 26.81ZM32.3387 30.2301H35.0048L35.4894 32.6268H32.3387L32.3387 30.2301ZM24.9332 30.2301H27.5453L27.0876 32.6268H23.9908L24.9332 30.2301ZM20.3014 41.9712L23.5599 33.677H26.8722L25.2295 41.9712H20.3014ZM31.2885 41.9712H26.3066L27.0335 38.2818H31.2884L31.2885 41.9712ZM31.2885 37.2316H27.2491L28.6225 30.23H31.2885V37.2316ZM32.3387 41.9712V33.677H35.678L37.3207 41.9712H32.3387ZM36.055 30.2301H37.2668L37.5091 31.0649C37.6168 31.4958 38.0208 31.792 38.4517 31.792C38.7211 31.792 38.9634 31.6573 39.1519 31.4689L41.4139 37.2318L37.4284 37.2316L36.055 30.2301ZM38.3709 41.9712L37.6438 38.2818H41.8447L43.2988 41.9711L38.3709 41.9712Z" fill="white"/>
<path d="M28.2996 23.6316L30.1307 24.1433L30.6424 25.9744C30.7501 26.3514 31.0733 26.5938 31.4772 26.5938C31.8811 26.5938 32.2043 26.3514 32.3119 25.9744L32.8237 24.1433L34.6547 23.6316C35.0317 23.524 35.2741 23.2007 35.2741 22.7969C35.2741 22.393 35.0317 22.0697 34.6547 21.9621L32.8237 21.4504L32.3119 19.6193C32.2043 19.2423 31.881 19 31.4772 19C31.0733 19 30.7501 19.2423 30.6424 19.6193L30.1307 21.4504L28.2996 21.989C27.9226 22.0966 27.6803 22.4199 27.6803 22.8237C27.6535 23.2009 27.9226 23.524 28.2996 23.6316ZM30.5079 22.4469C30.8042 22.3661 31.0196 22.1507 31.1004 21.8545L31.4774 20.5619L31.8544 21.8545C31.9351 22.1507 32.1775 22.3662 32.4468 22.4469L33.7394 22.8239L32.4468 23.174C32.1506 23.2548 31.9351 23.4703 31.8544 23.7665L31.5042 25.059L31.1272 23.7665C31.0465 23.4702 30.831 23.2548 30.5348 23.174L29.2422 22.8239L30.5079 22.4469Z" fill="white"/>
</svg>
