<svg width="64" height="64" viewBox="0 0 64 64" fill="none" xmlns="http://www.w3.org/2000/svg">
<path fill-rule="evenodd" clip-rule="evenodd" d="M38.8974 6.63214C44.2301 5.19571 49.7063 8.35736 51.1288 13.6939L57.4362 37.3574C58.8586 42.694 55.6887 48.1845 50.3559 49.621L26.9038 55.938C21.571 57.3744 16.0948 54.2128 14.6724 48.8763L8.36497 25.2127C6.94254 19.8762 10.1125 14.3856 15.4453 12.9492L38.8974 6.63214Z" fill="#B7DBD7"/>
<path fill-rule="evenodd" clip-rule="evenodd" d="M25.0569 7.69898C28.9519 3.78351 35.2669 3.7835 39.1619 7.69897L56.3621 24.9898C60.2571 28.9052 60.2571 35.2535 56.3622 39.169L39.1619 56.4598C35.2669 60.3753 28.9519 60.3753 25.0569 56.4598L7.8566 39.169C3.96162 35.2535 3.96161 28.9053 7.85659 24.9898L25.0569 7.69898Z" fill="#3E9F93"/>
<path d="M38.4485 25.765C38.4485 26.841 37.4766 27.6565 36.4168 27.4697C33.4525 26.9359 30.4634 26.9363 27.5832 27.4697C26.5234 27.6565 25.5515 26.841 25.5515 25.765C25.5515 23.1333 27.6849 21 30.3165 21H33.6833C36.315 21 38.4483 23.1334 38.4483 25.765H38.4485Z" stroke="white" stroke-linecap="round" stroke-linejoin="round"/>
<path d="M36.4169 27.4706C37.4216 27.6481 38.346 26.9235 38.4394 25.9308L36.4169 25.5739C33.4524 25.0402 30.4635 25.0407 27.5833 25.5739L25.5613 25.9308C25.6546 26.9235 26.5786 27.6481 27.5833 27.4706C30.4636 26.9372 33.4525 26.9368 36.4169 27.4706Z" stroke="white" stroke-linecap="round" stroke-linejoin="round"/>
<path d="M36.4172 27.4685C33.4528 26.9348 30.4638 26.9351 27.5837 27.4685C27.1171 27.5508 26.6677 27.4385 26.3108 27.1958V29.3439C26.3108 32.6955 28.8582 36.1716 32.0005 36.1716C35.1428 36.1716 37.6903 32.6955 37.6903 29.3439V27.1958C37.3333 27.4385 36.8838 27.5508 36.4172 27.4685H36.4172Z" stroke="white" stroke-linecap="round" stroke-linejoin="round"/>
<path d="M39.207 43.0005H24.793V42.2418C24.793 41.4039 25.4723 40.7246 26.3102 40.7246H37.6897C38.5276 40.7246 39.2069 41.4039 39.2069 42.2418L39.207 43.0005Z" stroke="white" stroke-linecap="round" stroke-linejoin="round"/>
<path d="M42.0694 39.1891C41.9776 39.1408 41.8862 39.0935 41.7948 39.0468C39.6748 37.9649 37.3833 37.2643 35.0346 36.8835C35.0058 36.8744 34.9819 36.866 34.9543 36.8574C34.6436 38.2032 33.4404 39.2076 32.0002 39.2076C30.5625 39.2076 29.3612 38.2065 29.048 36.8646C29.0188 36.8711 28.9956 36.8771 28.9656 36.8835C26.6168 37.2643 24.3254 37.9649 22.2054 39.0468C22.1144 39.0935 22.0227 39.1408 21.9308 39.1891C21.36 39.4891 21 40.0797 21 40.7249V43.0008H43.0004V40.7249C43.0004 40.0797 42.6405 39.4891 42.0696 39.1891L42.0694 39.1891Z" stroke="white" stroke-linecap="round" stroke-linejoin="round"/>
<path d="M32.0004 36.1731C30.8832 36.1731 29.8447 35.7282 28.9658 35.0117V36.1731C28.9658 37.849 30.3246 39.2076 32.0004 39.2076C33.6762 39.2076 35.035 37.8489 35.035 36.1731V35.0117C34.1561 35.7282 33.1175 36.1731 32.0004 36.1731V36.1731Z" stroke="white" stroke-linecap="round" stroke-linejoin="round"/>
<path d="M30.1028 23.6561H33.8959V22.1387H30.1028V23.6561Z" stroke="white" stroke-linecap="round" stroke-linejoin="round"/>
<path fill-rule="evenodd" clip-rule="evenodd" d="M28.2067 41.8638C28.2067 42.0732 28.0367 42.2431 27.8273 42.2431C27.6179 42.2431 27.448 42.0732 27.448 41.8638C27.448 41.6544 27.6179 41.4844 27.8273 41.4844C28.0367 41.4844 28.2067 41.6544 28.2067 41.8638Z" fill="white"/>
<path fill-rule="evenodd" clip-rule="evenodd" d="M36.5519 41.8638C36.5519 42.0732 36.382 42.2431 36.1726 42.2431C35.9632 42.2431 35.7932 42.0732 35.7932 41.8638C35.7932 41.6544 35.9632 41.4844 36.1726 41.4844C36.382 41.4844 36.5519 41.6544 36.5519 41.8638Z" fill="white"/>
<path d="M36.9284 37.2676L35.0344 40.7254H37.3103L39.6434 38.0984C38.7574 37.7645 37.8496 37.4903 36.9284 37.2676L36.9284 37.2676Z" stroke="white" stroke-linecap="round" stroke-linejoin="round"/>
<path d="M27.0715 37.2637L28.9655 40.7237H26.6896L24.3557 38.0974C25.2414 37.7636 26.1503 37.4863 27.0715 37.2637H27.0715Z" stroke="white" stroke-linecap="round" stroke-linejoin="round"/>
</svg>
