<svg width="136" height="136" viewBox="0 0 136 136" fill="none" xmlns="http://www.w3.org/2000/svg">
<path fill-rule="evenodd" clip-rule="evenodd" d="M93.7001 10.5921C99.0348 9.16268 104.518 12.3285 105.948 17.6632L125.411 90.3008C126.84 95.6354 123.674 101.119 118.34 102.548L45.7021 122.011C40.3674 123.441 34.884 120.275 33.4546 114.94L13.9914 42.3027C12.562 36.9681 15.7278 31.4847 21.0625 30.0553L93.7001 10.5921Z" fill="#C5ECDC"/>
<path fill-rule="evenodd" clip-rule="evenodd" d="M60.9289 7.75467C64.8342 3.84942 71.1658 3.84942 75.0711 7.75466L128.245 60.9291C132.151 64.8343 132.151 71.166 128.245 75.0712L75.0711 128.246C71.1658 132.151 64.8342 132.151 60.9289 128.246L7.75451 75.0712C3.84927 71.166 3.84926 64.8343 7.75451 60.9291L60.9289 7.75467Z" fill="white"/>
<path d="M83.241 51.2625C83.241 53.8058 80.9439 55.7333 78.4389 55.2916C71.4326 54.0301 64.3675 54.0309 57.56 55.2916C55.055 55.7333 52.7578 53.8057 52.7578 51.2625C52.7578 45.0423 57.8002 40 64.0203 40H71.9781C78.1983 40 83.2406 45.0424 83.2406 51.2625H83.241Z" stroke="#0E8778" stroke-width="2" stroke-linecap="round" stroke-linejoin="round"/>
<path d="M78.4394 55.2919C80.8143 55.7114 82.9992 53.9989 83.2198 51.6525L78.4394 50.809C71.4327 49.5475 64.3681 49.5486 57.5606 50.809L52.7812 51.6525C53.0019 53.9988 55.1857 55.7114 57.5606 55.2919C64.3684 54.0312 71.4329 54.0303 78.4394 55.2919Z" stroke="#0E8778" stroke-width="2" stroke-linecap="round" stroke-linejoin="round"/>
<path d="M78.4401 55.2935C71.4334 54.032 64.3688 54.0328 57.5613 55.2935C56.4585 55.4879 55.3962 55.2226 54.5527 54.6489V59.7261C54.5527 67.6479 60.5737 75.864 68.001 75.864C75.4279 75.864 81.4492 67.6479 81.4492 59.7261V54.6489C80.6053 55.2226 79.5431 55.4879 78.4402 55.2935H78.4401Z" stroke="#0E8778" stroke-width="2" stroke-linecap="round" stroke-linejoin="round"/>
<path d="M85.0337 92.0004H50.9648V90.2072C50.9648 88.2267 52.5705 86.6211 54.551 86.6211H81.4474C83.4279 86.6211 85.0336 88.2267 85.0336 90.2072L85.0337 92.0004Z" stroke="#0E8778" stroke-width="2" stroke-linecap="round" stroke-linejoin="round"/>
<path d="M91.7995 82.9915C91.5826 82.8774 91.3665 82.7656 91.1503 82.6553C86.1395 80.0981 80.7235 78.4422 75.172 77.542C75.1041 77.5206 75.0475 77.5007 74.9822 77.4805C74.2478 80.6613 71.4039 83.0354 67.9999 83.0354C64.6018 83.0354 61.7624 80.6692 61.0222 77.4974C60.9531 77.5128 60.8983 77.5271 60.8274 77.5421C55.2759 78.4422 49.8599 80.0981 44.8491 82.6554C44.6341 82.7657 44.4172 82.8775 44.2 82.9916C42.851 83.7008 42 85.0966 42 86.6215V92.0008H93.9999V86.6215C93.9999 85.0966 93.1492 83.7007 91.7999 82.9916L91.7995 82.9915Z" stroke="#0E8778" stroke-width="2" stroke-linecap="round" stroke-linejoin="round"/>
<path d="M68.0006 75.8623C65.3601 75.8623 62.9053 74.8106 60.8281 73.1172V75.8623C60.8281 79.8233 64.0397 83.0345 68.0006 83.0345C71.9616 83.0345 75.1731 79.8232 75.1731 75.8623V73.1172C73.0958 74.8106 70.641 75.8623 68.0006 75.8623V75.8623Z" stroke="#0E8778" stroke-width="2" stroke-linecap="round" stroke-linejoin="round"/>
<path d="M63.5156 46.2779H72.4811V42.6914H63.5156V46.2779Z" stroke="#0E8778" stroke-width="2" stroke-linecap="round" stroke-linejoin="round"/>
<path fill-rule="evenodd" clip-rule="evenodd" d="M59.0335 89.3109C59.0335 89.8058 58.6316 90.2073 58.1367 90.2073C57.6417 90.2073 57.2402 89.8058 57.2402 89.3109C57.2402 88.8159 57.6417 88.4141 58.1367 88.4141C58.6316 88.4141 59.0335 88.8159 59.0335 89.3109Z" fill="#0E8778"/>
<path fill-rule="evenodd" clip-rule="evenodd" d="M78.7581 89.3109C78.7581 89.8058 78.3566 90.2073 77.8616 90.2073C77.3667 90.2073 76.9648 89.8058 76.9648 89.3109C76.9648 88.8159 77.3667 88.4141 77.8616 88.4141C78.3566 88.4141 78.7581 88.8159 78.7581 89.3109Z" fill="#0E8778"/>
<path d="M79.6483 78.4493L75.1719 86.6222H80.5512L86.0656 80.4128C83.9714 79.6237 81.8259 78.9757 79.6484 78.4492L79.6483 78.4493Z" stroke="#0E8778" stroke-width="2" stroke-linecap="round" stroke-linejoin="round"/>
<path d="M56.3508 78.4414L60.8272 86.6196H55.4479L49.9316 80.4121C52.0251 79.623 54.1732 78.9675 56.3507 78.4414H56.3508Z" stroke="#0E8778" stroke-width="2" stroke-linecap="round" stroke-linejoin="round"/>
</svg>
