<svg width="64" height="64" viewBox="0 0 64 64" fill="none" xmlns="http://www.w3.org/2000/svg">
<path fill-rule="evenodd" clip-rule="evenodd" d="M38.8974 6.63214C44.2301 5.19571 49.7063 8.35736 51.1288 13.6939L57.4362 37.3574C58.8586 42.694 55.6887 48.1845 50.3559 49.621L26.9038 55.938C21.571 57.3744 16.0948 54.2128 14.6724 48.8763L8.36497 25.2127C6.94254 19.8762 10.1125 14.3856 15.4453 12.9492L38.8974 6.63214Z" fill="#B7DBD7"/>
<path fill-rule="evenodd" clip-rule="evenodd" d="M25.0569 7.69898C28.9519 3.78351 35.2669 3.7835 39.1619 7.69897L56.3621 24.9898C60.2571 28.9052 60.2571 35.2535 56.3622 39.169L39.1619 56.4598C35.2669 60.3753 28.9519 60.3753 25.0569 56.4598L7.8566 39.169C3.96162 35.2535 3.96161 28.9053 7.85659 24.9898L25.0569 7.69898Z" fill="#3E9F93"/>
<path d="M42.0934 19H21.9185C21.412 19 21 19.3868 21 19.8624V38.8044C21 39.28 21.4119 39.6668 21.9185 39.6668H34.3337L35.675 45.6767C35.7052 45.8123 35.8326 45.9053 35.9742 45.9053C35.9952 45.9053 36.0161 45.9033 36.0372 45.8991C36.2029 45.8666 36.3086 45.7144 36.274 45.5588V45.5586L34.5556 37.8584L36.1286 37.5491L37.8468 45.2493C37.8816 45.4047 38.0443 45.5041 38.2092 45.4714C38.3745 45.4389 38.4806 45.2868 38.446 45.1312L37.2266 39.6668L42.0933 39.6672C42.5998 39.6672 43.0117 39.2804 43.0117 38.8049L43.0115 19.8628C43.0115 19.3874 42.5996 19.0005 42.0933 19.0005L42.0934 19ZM36.0881 36.9699L34.3457 37.3125C34.2648 37.3286 34.1836 37.3137 34.1155 37.2718C34.047 37.2297 34.0002 37.1654 33.9833 37.0902L33.3066 34.0568L35.6482 33.5963L36.3251 36.6296C36.3595 36.7846 36.2531 36.9372 36.0881 36.9699L36.0881 36.9699ZM40.5508 30.0211L40.9837 31.9594L27.72 34.5683L27.2878 32.6302L40.5508 30.0211ZM27.5063 30.3872C27.6853 30.1302 27.9601 29.9538 28.2804 29.8908L38.4701 27.8864C38.5545 27.8697 38.6384 27.8619 38.7213 27.8619C39.2885 27.8619 39.7991 28.2347 39.9199 28.776L40.0869 29.5253L27.5006 32.0013L27.3334 31.252C27.2663 30.9512 27.3278 30.6443 27.5068 30.3872L27.5063 30.3872ZM42.3992 38.804C42.3992 38.9626 42.2619 39.0915 42.093 39.0915L37.0983 39.0913L36.6934 37.277C36.7295 37.2407 36.7638 37.2022 36.7935 37.1597C36.9278 36.9672 36.9742 36.7366 36.9236 36.5112L36.2466 33.4779L41.1085 32.5215C41.4389 32.4563 41.6514 32.1511 41.5822 31.8408L41.1495 29.9027C41.0998 29.6806 40.9191 29.517 40.6987 29.4648L40.5187 28.6574C40.3111 27.7267 39.3363 27.1274 38.3444 27.3231L28.1547 29.3275C27.6744 29.422 27.262 29.6864 26.9936 30.072C26.7252 30.4575 26.6327 30.9183 26.7335 31.369L26.9137 32.1768C26.7348 32.3076 26.6385 32.5255 26.6878 32.7475L27.12 34.6855C27.1538 34.8359 27.2475 34.965 27.3846 35.049C27.4854 35.1107 27.6005 35.1424 27.7182 35.1424C27.7602 35.1424 27.8027 35.1384 27.845 35.13L32.7067 34.1738L33.3835 37.2072C33.4471 37.4923 33.6562 37.7124 33.9214 37.8197L34.205 39.0907L21.9182 39.0913C21.7495 39.0913 21.612 38.9624 21.612 38.8038L21.6122 19.8623C21.6122 19.7039 21.7495 19.5748 21.9184 19.5748L42.0933 19.575C42.2622 19.575 42.3996 19.7039 42.3996 19.8625L42.3992 38.804ZM23.6801 24.1463C23.6017 24.1463 23.5233 24.1182 23.4635 24.0621C23.344 23.9498 23.344 23.7679 23.4635 23.6557L26.0272 21.2486C26.1468 21.1364 26.3405 21.1364 26.4601 21.2486C26.5797 21.3609 26.5797 21.5428 26.4601 21.655L23.8964 24.0621C23.8368 24.1182 23.7585 24.1463 23.6801 24.1463H23.6801ZM28.5501 21.9023C28.6697 22.0146 28.6697 22.1964 28.5501 22.3087L24.2027 26.3904C24.1429 26.4466 24.0645 26.4746 23.9861 26.4746C23.9077 26.4746 23.8294 26.4466 23.7696 26.3904C23.65 26.2782 23.65 26.0963 23.7696 25.984L28.117 21.9023C28.2368 21.79 28.4305 21.79 28.5501 21.9023H28.5501ZM40.991 34.8836C40.991 35.0424 40.8541 35.1711 40.6848 35.1711H40.0388V35.7776C40.0388 35.9364 39.9019 36.0651 39.7326 36.0651C39.5635 36.0651 39.4264 35.9366 39.4264 35.7776V35.1711H38.7804C38.6113 35.1711 38.4742 35.0426 38.4742 34.8836C38.4742 34.7248 38.6111 34.5961 38.7804 34.5961H39.4264V33.9892C39.4264 33.8304 39.5632 33.7017 39.7326 33.7017C39.9017 33.7017 40.0388 33.8302 40.0388 33.9892V34.5961H40.6848C40.8541 34.5963 40.991 34.7248 40.991 34.8836ZM35.2863 26.0198C35.2863 26.1786 35.1495 26.3073 34.9801 26.3073H34.3337V26.914C34.3337 27.0728 34.1968 27.2015 34.0275 27.2015C33.8583 27.2015 33.7212 27.0728 33.7212 26.914V26.3073H33.0753C32.9062 26.3073 32.7691 26.1786 32.7691 26.0198C32.7691 25.861 32.9059 25.7323 33.0753 25.7323H33.7212V25.1256C33.7212 24.9668 33.8581 24.8381 34.0275 24.8381C34.1966 24.8381 34.3337 24.9668 34.3337 25.1256V25.7323H34.9801C35.1495 25.7325 35.2863 25.8612 35.2863 26.0198ZM41.2633 25.5468C41.2633 25.7056 41.1264 25.8343 40.957 25.8343H40.314V26.4383C40.314 26.5971 40.1771 26.7258 40.0078 26.7258C39.8387 26.7258 39.7016 26.5971 39.7016 26.4383V25.8343H39.0581C38.889 25.8343 38.7519 25.7056 38.7519 25.5468C38.7519 25.388 38.8888 25.2593 39.0581 25.2593H39.7016V24.6554C39.7016 24.4966 39.8385 24.3679 40.0078 24.3679C40.1769 24.3679 40.314 24.4966 40.314 24.6554V25.2593H40.957C41.1264 25.2593 41.2633 25.388 41.2633 25.5468Z" fill="white"/>
</svg>
