<svg width="136" height="136" viewBox="0 0 136 136" fill="none" xmlns="http://www.w3.org/2000/svg">
<path fill-rule="evenodd" clip-rule="evenodd" d="M93.7001 10.5921C99.0348 9.16268 104.518 12.3285 105.948 17.6632L125.411 90.3008C126.84 95.6354 123.674 101.119 118.34 102.548L45.7021 122.011C40.3674 123.441 34.884 120.275 33.4546 114.94L13.9914 42.3027C12.562 36.9681 15.7278 31.4847 21.0625 30.0553L93.7001 10.5921Z" fill="#C5ECDC"/>
<path fill-rule="evenodd" clip-rule="evenodd" d="M60.9289 7.75467C64.8342 3.84942 71.1658 3.84942 75.0711 7.75466L128.245 60.9291C132.151 64.8343 132.151 71.166 128.245 75.0712L75.0711 128.246C71.1658 132.151 64.8342 132.151 60.9289 128.246L7.75451 75.0712C3.84927 71.166 3.84926 64.8343 7.75451 60.9291L60.9289 7.75467Z" fill="#3E9F93"/>
<path d="M62.6179 45.7617C59.079 45.7617 55.9141 47.6606 53.7106 50.5532C51.5071 53.4454 50.1953 57.3509 50.1953 61.6377C50.1953 65.9249 51.5071 69.8327 53.7106 72.7253C55.9141 75.6175 59.079 77.5141 62.6179 77.5141C66.1567 77.5141 69.3216 75.6181 71.5251 72.7253C73.7286 69.8327 75.0404 65.9249 75.0404 61.6377C75.0404 57.3509 73.7286 53.4455 71.5251 50.5532C69.3216 47.6611 66.1567 45.7617 62.6179 45.7617ZM62.6179 48.5227C65.1777 48.5227 67.5347 49.8711 69.3277 52.2247C71.1206 54.5784 72.2795 57.919 72.2795 61.6377C72.2795 65.3564 71.1206 68.6993 69.3277 71.0534C67.5347 73.4076 65.1773 74.7527 62.6179 74.7527C60.058 74.7527 57.701 73.4072 55.9081 71.0534C54.1151 68.6997 52.9562 65.3563 52.9562 61.6377C52.9562 57.919 54.1151 54.5789 55.9081 52.2247C57.701 49.8709 60.0584 48.5227 62.6179 48.5227Z" fill="white"/>
<path d="M88.8444 43C95.6888 43 101.267 48.5791 101.267 55.4249C101.267 62.2707 95.6887 67.8498 88.8444 67.8498C82.0001 67.8498 76.4219 62.2707 76.4219 55.4249C76.4219 48.5791 82.0002 43 88.8444 43ZM88.8444 45.7609C83.4918 45.7609 79.1823 50.0713 79.1823 55.4244C79.1823 60.778 83.4918 65.088 88.8444 65.088C94.1971 65.088 98.5065 60.7776 98.5065 55.4244C98.5065 50.0713 94.1971 45.7609 88.8444 45.7609Z" fill="white"/>
<path fill-rule="evenodd" clip-rule="evenodd" d="M88.822 54.0431C88.4559 54.0491 88.1069 54.1998 87.8523 54.4628C87.5971 54.7259 87.4575 55.0795 87.463 55.4456V78.8742C87.458 79.2435 87.6013 79.5999 87.8606 79.8629C88.1199 80.126 88.474 80.2743 88.8433 80.2743C89.2131 80.2743 89.5672 80.126 89.8265 79.8629C90.0858 79.5999 90.2291 79.2435 90.2235 78.8742V55.4456C90.2295 55.0716 90.0839 54.7115 89.8195 54.4476C89.5556 54.1832 89.1955 54.0376 88.822 54.0431Z" fill="white"/>
<path fill-rule="evenodd" clip-rule="evenodd" d="M94.3827 55.4259C94.0717 55.4222 93.7684 55.5239 93.5225 55.7143L88.0339 59.8315C87.4233 60.2886 87.299 61.1544 87.7561 61.765C88.2133 62.3756 89.0786 62.5 89.6892 62.0428L95.1778 57.923C95.6585 57.5726 95.8614 56.9541 95.6807 56.3874C95.5004 55.8206 94.9772 55.4333 94.3827 55.4259L94.3827 55.4259Z" fill="white"/>
<path fill-rule="evenodd" clip-rule="evenodd" d="M84.703 56.8047C84.14 56.8033 83.6329 57.1444 83.4217 57.6663C83.21 58.1877 83.3362 58.7858 83.7407 59.1774L87.8546 63.2895V63.289C88.1116 63.5562 88.4652 63.7087 88.8359 63.7124C89.2066 63.7161 89.563 63.5705 89.8251 63.3079C90.0877 63.0459 90.2333 62.6895 90.2296 62.3188C90.2259 61.9476 90.0733 61.594 89.8062 61.337L85.6922 57.2254C85.4329 56.9568 85.0761 56.8052 84.703 56.8047L84.703 56.8047Z" fill="white"/>
<path fill-rule="evenodd" clip-rule="evenodd" d="M62.597 63.7072C62.2309 63.7128 61.8824 63.8634 61.6272 64.1265C61.3725 64.3895 61.2325 64.7431 61.2385 65.1092V91.2985C61.2329 91.6679 61.3762 92.0242 61.6355 92.2873C61.8953 92.5507 62.2494 92.6987 62.6187 92.6987C62.988 92.6987 63.3421 92.5507 63.6014 92.2873C63.8612 92.0242 64.004 91.6679 63.999 91.2985V65.1092C64.005 64.7357 63.8589 64.3756 63.595 64.1112C63.3305 63.8468 62.9705 63.7012 62.597 63.7072Z" fill="white"/>
<path fill-rule="evenodd" clip-rule="evenodd" d="M58.4807 66.4688C57.8687 66.4674 57.3288 66.87 57.1545 67.4571C56.9807 68.0445 57.2146 68.676 57.7286 69.0087L61.8531 71.759H61.8536C62.3172 72.0678 62.9209 72.0678 63.3846 71.759L67.509 69.0087C67.8192 68.8081 68.036 68.4915 68.1113 68.1296C68.1862 67.7676 68.1127 67.3909 67.9079 67.0835C67.7032 66.7761 67.3838 66.5635 67.0209 66.4937C66.6581 66.4239 66.2827 66.502 65.9781 66.7114L62.619 68.9524L59.2599 66.7114C59.0306 66.5538 58.7588 66.4692 58.4806 66.4688L58.4807 66.4688Z" fill="white"/>
<path fill-rule="evenodd" clip-rule="evenodd" d="M83.2345 78.3385C79.808 78.5705 73.4485 79.6678 73.4485 79.6678C73.0778 79.7182 72.7432 79.917 72.5217 80.2183C72.3003 80.5202 72.2107 80.8987 72.2735 81.2676C72.3364 81.6365 72.5462 81.9642 72.8555 82.1754C73.1643 82.3867 73.5456 82.4634 73.9122 82.3881C73.9122 82.3881 80.3649 81.2981 83.4204 81.091C85.2371 80.9695 87.0087 80.89 88.6802 81.091C92.1206 81.4941 99.4715 83.6684 99.4715 83.6684V83.6689C99.8233 83.7775 100.204 83.741 100.528 83.5677C100.853 83.3943 101.095 83.0985 101.201 82.7458C101.307 82.3931 101.267 82.0132 101.091 81.6896C100.915 81.3665 100.617 81.1266 100.264 81.024C100.264 81.024 93.0829 78.8275 89.0033 78.3491C87.0267 78.1175 85.0867 78.2192 83.2369 78.3491H83.2341L83.2345 78.3385Z" fill="white"/>
<path fill-rule="evenodd" clip-rule="evenodd" d="M44.5618 81.7131C42.8011 81.8703 40.7233 82.5923 38.9705 83.2607C37.2178 83.929 35.8352 84.5655 35.8352 84.5655C35.4932 84.7125 35.2251 84.9917 35.0919 85.3388C34.9584 85.6864 34.9708 86.0733 35.1261 86.4112C35.2819 86.7496 35.5676 87.0107 35.9184 87.1351C36.2688 87.2599 36.6552 87.2377 36.989 87.0731C36.989 87.0731 38.2943 86.4741 39.9543 85.8408C41.6141 85.2076 43.672 84.5618 44.8068 84.4601C47.6635 84.2045 50.7623 85.1969 54.0858 85.8108C59.9997 86.904 71.9244 89.8905 71.9244 89.8905L71.9249 89.891C72.2822 89.9881 72.664 89.9372 72.9834 89.75C73.3032 89.5628 73.5344 89.255 73.625 88.8958C73.7156 88.5362 73.6578 88.1558 73.4646 87.8391C73.2718 87.5229 72.9593 87.2974 72.5988 87.2137C72.5988 87.2137 60.73 84.2314 54.5874 83.0961C51.5214 82.5294 48.1785 81.3895 44.5614 81.713L44.5618 81.7131Z" fill="white"/>
<path fill-rule="evenodd" clip-rule="evenodd" d="M65.2493 78.996C62.9122 79.2216 60.3805 79.4624 57.9704 80.4359C56.9609 80.8436 55.9277 81.5448 55.0509 82.1641C54.174 82.7835 53.4927 83.3234 53.4927 83.3234C52.8955 83.7977 52.7961 84.6663 53.2704 85.2635C53.7446 85.8607 54.6127 85.9605 55.2099 85.4863C55.2099 85.4863 55.833 84.9894 56.6415 84.4185C57.45 83.8477 58.4844 83.2056 59.0058 82.9949C60.926 82.2192 63.1867 81.971 65.5136 81.7464C66.7894 81.6234 68.0966 81.6317 69.3955 81.7464C74.2721 82.1753 84.3847 84.4079 84.3847 84.4079V84.4074C84.7476 84.5026 85.1331 84.4458 85.4534 84.2503C85.7733 84.0547 85.9998 83.7372 86.0811 83.3711C86.1625 83.005 86.0918 82.6218 85.8842 82.3093C85.6771 81.9964 85.3517 81.7815 84.9833 81.714C84.9833 81.714 74.9966 79.4671 69.6379 78.996C68.1907 78.8675 66.717 78.8541 65.249 78.996L65.2493 78.996Z" fill="white"/>
<path fill-rule="evenodd" clip-rule="evenodd" d="M40.4788 54.0481C39.8497 54.0735 39.3172 54.5214 39.185 55.1376L35.0443 74.4648C34.9569 74.8725 35.0586 75.2978 35.3212 75.6218C35.5833 75.9458 35.978 76.134 36.3945 76.134H44.6764C45.0933 76.134 45.4876 75.9458 45.7501 75.6218C46.0122 75.2978 46.1139 74.8725 46.027 74.4648L41.8863 55.1376C41.7449 54.4798 41.1504 54.0199 40.4787 54.0481H40.4788ZM40.5352 62.0212L42.9671 73.3729H38.1039L40.5357 62.0212H40.5352Z" fill="white"/>
<path fill-rule="evenodd" clip-rule="evenodd" d="M40.513 70.6096C40.1469 70.6151 39.7979 70.7662 39.5432 71.0288C39.2885 71.2918 39.1485 71.6454 39.1545 72.0115V83.015C39.1489 83.3848 39.2922 83.7407 39.5515 84.0042C39.8109 84.2672 40.1649 84.4156 40.5347 84.4156C40.9041 84.4156 41.2581 84.2672 41.5174 84.0042C41.7768 83.7407 41.92 83.3848 41.915 83.015V72.0115C41.9205 71.638 41.7749 71.278 41.511 71.0136C41.2466 70.7492 40.8865 70.6036 40.513 70.6096Z" fill="white"/>
</svg>
