<svg width="64" height="64" viewBox="0 0 64 64" fill="none" xmlns="http://www.w3.org/2000/svg">
<path fill-rule="evenodd" clip-rule="evenodd" d="M38.8974 6.63214C44.2301 5.19571 49.7063 8.35736 51.1288 13.6939L57.4362 37.3574C58.8586 42.694 55.6887 48.1845 50.3559 49.621L26.9038 55.938C21.571 57.3744 16.0948 54.2128 14.6724 48.8763L8.36497 25.2127C6.94254 19.8762 10.1125 14.3856 15.4453 12.9492L38.8974 6.63214Z" fill="#B7DBD7"/>
<path fill-rule="evenodd" clip-rule="evenodd" d="M25.0569 7.69898C28.9519 3.78351 35.2669 3.7835 39.1619 7.69897L56.3621 24.9898C60.2571 28.9052 60.2571 35.2535 56.3622 39.169L39.1619 56.4598C35.2669 60.3753 28.9519 60.3753 25.0569 56.4598L7.8566 39.169C3.96162 35.2535 3.96161 28.9053 7.85659 24.9898L25.0569 7.69898Z" fill="#3E9F93"/>
<path d="M45.0298 31.3897L41.6784 27.6396C41.5988 27.5509 41.4849 27.5001 41.3651 27.5001H38.4327V22.0834C38.4327 21.8534 38.2451 21.6668 38.0139 21.6668L32.9869 21.6667V20.4166C32.9869 20.1866 32.7993 20 32.568 20H25.8655C25.6342 20 25.4466 20.1866 25.4466 20.4166V21.6667H20.4196C20.1883 21.6667 20.0007 21.8534 20.0007 22.0834V37.0839C20.0007 37.3139 20.1883 37.5005 20.4196 37.5005H22.5142V36.6671H20.8386V35.0004H37.5952V36.6671H29.2167V37.5005H38.014C38.2452 37.5005 38.4328 37.3139 38.4328 37.0839V34.5838L38.433 28.3336H41.1775L43.7839 31.2503H40.9465V32.0837H44.2979V37.0839H45.1358L45.1357 31.6667C45.1357 31.5647 45.098 31.4664 45.0301 31.3896L45.0298 31.3897ZM26.284 20.8332H32.149V21.6666L26.284 21.6664V20.8332ZM20.8382 34.1666V22.4998H37.5948V34.1666H20.8382Z" fill="white"/>
<path d="M25.8648 35.834C24.4787 35.834 23.3513 36.9553 23.3513 38.3341C23.3513 39.7128 24.4787 40.8341 25.8648 40.8341C27.251 40.8341 28.3783 39.7128 28.3783 38.3341C28.3783 36.9551 27.251 35.834 25.8648 35.834ZM25.8648 40.0007C24.9407 40.0007 24.1892 39.2533 24.1892 38.3341C24.1892 37.4148 24.9407 36.6674 25.8648 36.6674C26.789 36.6674 27.5404 37.4148 27.5404 38.3341C27.5404 39.2533 26.789 40.0007 25.8648 40.0007Z" fill="white"/>
<path d="M38.8518 38.3341C38.8518 39.7128 39.9792 40.8341 41.3653 40.8341C42.7515 40.8341 43.8788 39.7128 43.8788 38.3341C43.8788 36.9553 42.7515 35.834 41.3653 35.834C39.9792 35.834 38.8518 36.9551 38.8518 38.3341ZM41.3653 36.6672C42.2895 36.6672 43.0409 37.4147 43.0409 38.3339C43.0409 39.2531 42.2895 40.0005 41.3653 40.0005C40.4412 40.0005 39.6897 39.2531 39.6897 38.3339C39.6897 37.4148 40.4412 36.6672 41.3653 36.6672Z" fill="white"/>
<path d="M40.9456 33.334H42.2023V34.1674H40.9456V33.334Z" fill="white"/>
<path d="M26.9118 38.3348C26.9118 38.9101 26.443 39.3764 25.8646 39.3764C25.2861 39.3764 24.8171 38.9101 24.8171 38.3348C24.8171 37.7595 25.2861 37.293 25.8646 37.293C26.443 37.293 26.9118 37.7595 26.9118 38.3348Z" fill="white"/>
<path d="M42.4111 38.3348C42.4111 38.9101 41.9423 39.3764 41.3639 39.3764C40.7855 39.3764 40.3167 38.9101 40.3167 38.3348C40.3167 37.7595 40.7855 37.293 41.3639 37.293C41.9423 37.293 42.4111 37.7595 42.4111 38.3348Z" fill="white"/>
<path d="M20 38.75H22.0947V39.5834H20V38.75Z" fill="white"/>
<path d="M20 44.168H45.1351V45.0014H20V44.168Z" fill="white"/>
<path d="M44.2966 38.75H45.1345V39.5834H44.2966V38.75Z" fill="white"/>
<path d="M29.2168 38.75H38.0141V39.5834H29.2168V38.75Z" fill="white"/>
<path d="M20 41.666H23.7703V42.4994H20V41.666Z" fill="white"/>
<path d="M25.4458 41.666H29.2161V42.4994H25.4458V41.666Z" fill="white"/>
<path d="M30.8926 41.666H34.6628V42.4994H30.8926V41.666Z" fill="white"/>
<path d="M35.9194 41.666H39.6897V42.4994H35.9194V41.666Z" fill="white"/>
<path d="M41.3652 41.666H45.1355V42.4994H41.3652V41.666Z" fill="white"/>
<path d="M29.5124 24.7061C29.3487 24.5433 29.0839 24.5433 28.92 24.7061L25.5686 28.0396C25.4488 28.1587 25.4127 28.338 25.4778 28.4937C25.5427 28.6491 25.6955 28.7508 25.8649 28.7508H26.7028V31.6675C26.7028 31.8975 26.8904 32.0841 27.1217 32.0841H31.3108C31.542 32.0841 31.7296 31.8975 31.7296 31.6675V28.7508H32.5675C32.7367 28.7508 32.8896 28.6491 32.9547 28.4937C33.0195 28.3378 32.9836 28.1587 32.8638 28.0396L29.5124 24.7061ZM31.3108 27.9174C31.0795 27.9174 30.8919 28.104 30.8919 28.334V31.2507H27.5405V28.7506H30.054V27.9172H26.8762L29.2161 25.59L31.5562 27.9174H31.3108Z" fill="white"/>
<path d="M34.6626 23.748H36.3382V24.5815H34.6626V23.748Z" fill="white"/>
<path d="M33.406 25.416H36.3384V26.2494H33.406V25.416Z" fill="white"/>
</svg>
