<svg width="64" height="64" viewBox="0 0 64 64" fill="none" xmlns="http://www.w3.org/2000/svg">
<path fill-rule="evenodd" clip-rule="evenodd" d="M38.8974 6.63214C44.2301 5.19571 49.7063 8.35736 51.1288 13.6939L57.4362 37.3574C58.8586 42.694 55.6887 48.1845 50.3559 49.621L26.9038 55.938C21.571 57.3744 16.0948 54.2128 14.6724 48.8763L8.36497 25.2127C6.94254 19.8762 10.1125 14.3856 15.4453 12.9492L38.8974 6.63214Z" fill="#B7DBD7"/>
<path fill-rule="evenodd" clip-rule="evenodd" d="M25.0569 7.69898C28.9519 3.78351 35.2669 3.7835 39.1619 7.69897L56.3621 24.9898C60.2571 28.9052 60.2571 35.2535 56.3622 39.169L39.1619 56.4598C35.2669 60.3753 28.9519 60.3753 25.0569 56.4598L7.8566 39.169C3.96162 35.2535 3.96161 28.9053 7.85659 24.9898L25.0569 7.69898Z" fill="#3E9F93"/>
<path d="M44.754 35.7292L40.9977 31.9729C40.9196 31.8948 40.8136 31.851 40.7031 31.851H39.2063L37.7815 30.4262V27.26H38.1989V26.4252H34.8599V27.26H35.2773V27.922L32.2335 24.8782V24.878C32.0704 24.7151 31.8062 24.7151 31.6432 24.878L24.6705 31.8512H23.1737C23.063 31.8512 22.9568 31.8952 22.8786 31.9734L19.1222 35.7298C19.044 35.808 19 35.9142 19 36.0249V43.1202C19 43.2309 19.044 43.3371 19.1222 43.4153C19.2005 43.4936 19.3067 43.5376 19.4174 43.5376H44.4596C44.5703 43.5376 44.6765 43.4936 44.7548 43.4153C44.833 43.3371 44.877 43.2309 44.877 43.1202V36.0249C44.877 35.914 44.8328 35.8076 44.7542 35.7294L44.754 35.7292ZM19.8344 36.4421H25.6775V41.4506H19.8344V36.4421ZM26.5123 32.8585L31.9381 27.4327L37.3639 32.8585V36.8595H26.5123V32.8585ZM38.1987 36.4421H44.0419V41.4506H38.1987V36.4421ZM40.5302 32.6858L43.4518 35.6074H38.1986V33.6932L38.7382 34.2328V34.233C38.9012 34.3958 39.1654 34.3958 39.3285 34.233L40.1632 33.3983C40.3261 33.2352 40.3261 32.971 40.1632 32.808L40.0408 32.6857L40.5302 32.6858ZM36.1118 27.2599H36.9466V29.5915L36.1118 28.7567V27.2599ZM31.9381 25.7632L39.2781 33.1032L39.0335 33.3478L32.2334 26.5473C32.0704 26.3845 31.8062 26.3845 31.6431 26.5473L24.8431 33.3478L24.5984 33.1032L31.9381 25.7632ZM23.346 32.6858H23.8351L23.7129 32.808C23.55 32.9711 23.55 33.2353 23.7129 33.3983L24.5476 34.2331C24.7106 34.3959 24.9749 34.3959 25.1379 34.2331L25.6775 33.6933V35.6074H20.4243L23.346 32.6858ZM19.8343 42.7027V42.2853H25.6775V42.7027H19.8343ZM31.1033 42.7027V38.9464H32.7728V42.7027H31.1033ZM33.6075 42.7027V38.529C33.6075 38.4183 33.5636 38.3121 33.4853 38.2339C33.4071 38.1556 33.3008 38.1116 33.1902 38.1116H30.6859C30.4555 38.1116 30.2686 38.2985 30.2686 38.529V42.7027H26.5122V37.6943H37.3639V42.7027H33.6075ZM38.1986 42.7027V42.2853H44.0418V42.7027H38.1986Z" fill="white"/>
<path d="M30.2685 32.6875H27.7643C27.5338 32.6875 27.3469 32.8744 27.3469 33.1049V35.6091C27.3469 35.7198 27.3909 35.826 27.4692 35.9042C27.5474 35.9825 27.6536 36.0265 27.7643 36.0265H30.2685C30.3792 36.0265 30.4854 35.9825 30.5637 35.9042C30.6419 35.826 30.6859 35.7198 30.6859 35.6091V33.1049C30.6859 32.9942 30.6419 32.888 30.5637 32.8097C30.4854 32.7315 30.3792 32.6875 30.2685 32.6875ZM29.8511 35.1917H28.1817V33.5222H29.8511V35.1917Z" fill="white"/>
<path d="M24.0078 37.2773H21.5036C21.2731 37.2773 21.0862 37.4642 21.0862 37.6947V40.1989C21.0862 40.3096 21.1302 40.4158 21.2084 40.4941C21.2867 40.5723 21.3929 40.6163 21.5036 40.6163H24.0078C24.1185 40.6163 24.2247 40.5723 24.3029 40.4941C24.3812 40.4158 24.4251 40.3096 24.4251 40.1989V37.6947C24.4251 37.584 24.3812 37.4778 24.3029 37.3996C24.2247 37.3213 24.1185 37.2773 24.0078 37.2773ZM23.5904 39.7816H21.9209V38.1121H23.5904V39.7816Z" fill="white"/>
<path d="M36.1118 32.6875H33.6076C33.3771 32.6875 33.1902 32.8744 33.1902 33.1049V35.6091C33.1902 35.7198 33.2342 35.826 33.3124 35.9042C33.3907 35.9825 33.4969 36.0265 33.6076 36.0265H36.1118C36.2225 36.0265 36.3287 35.9825 36.4069 35.9042C36.4852 35.826 36.5292 35.7198 36.5292 35.6091V33.1049C36.5292 32.9942 36.4852 32.888 36.4069 32.8097C36.3287 32.7315 36.2225 32.6875 36.1118 32.6875ZM35.6944 35.1917H34.0249V33.5222H35.6944V35.1917Z" fill="white"/>
<path d="M42.3725 37.2773H39.8683C39.6378 37.2773 39.4509 37.4642 39.4509 37.6947V40.1989C39.4509 40.3096 39.4949 40.4158 39.5732 40.4941C39.6514 40.5723 39.7576 40.6163 39.8683 40.6163H42.3725C42.4832 40.6163 42.5894 40.5723 42.6677 40.4941C42.7459 40.4158 42.7899 40.3096 42.7899 40.1989V37.6947C42.7899 37.584 42.7459 37.4778 42.6677 37.3996C42.5894 37.3213 42.4832 37.2773 42.3725 37.2773ZM41.9552 39.7816H40.2857V38.1121H41.9552V39.7816Z" fill="white"/>
<path d="M33.19 29.3477C33.19 29.237 33.146 29.1308 33.0678 29.0526L32.233 28.2178C32.07 28.055 31.8058 28.055 31.6428 28.2178L30.808 29.0526C30.7298 29.1308 30.6858 29.237 30.6858 29.3477V30.5998C30.6858 30.7105 30.7298 30.8167 30.808 30.895C30.8863 30.9732 30.9925 31.0172 31.1032 31.0172H32.7726C32.8833 31.0172 32.9895 30.9732 33.0678 30.895C33.146 30.8167 33.19 30.7105 33.19 30.5998V29.3477ZM32.3553 30.1825H31.5205V29.5204L31.9379 29.1031L32.3553 29.5204V30.1825Z" fill="white"/>
<path d="M22.3387 24.7559H21.504C21.504 25.1986 21.3281 25.6232 21.015 25.9364C20.7018 26.2495 20.2772 26.4253 19.8345 26.4253V27.2601C20.2772 27.2601 20.7018 27.436 21.015 27.749C21.3281 28.0622 21.504 28.4869 21.504 28.9296H22.3387C22.3387 28.4869 22.5146 28.0622 22.8276 27.749C23.1408 27.436 23.5655 27.2601 24.0082 27.2601V26.4253C23.5655 26.4253 23.1408 26.2495 22.8276 25.9364C22.5146 25.6232 22.3387 25.1986 22.3387 24.7559ZM21.9213 27.5481C21.7356 27.2683 21.4958 27.0285 21.2159 26.8427C21.4958 26.6569 21.7356 26.4171 21.9213 26.1373C22.1071 26.4171 22.3469 26.657 22.6268 26.8427C22.3469 27.0285 22.1071 27.2683 21.9213 27.5481Z" fill="white"/>
<path d="M25.2601 25.1737H26.0948C26.0948 24.731 26.2707 24.3063 26.5837 23.9931C26.8969 23.6801 27.3216 23.5042 27.7643 23.5042V22.6695C27.3216 22.6695 26.8969 22.4936 26.5837 22.1806C26.2707 21.8673 26.0948 21.4427 26.0948 21H25.2601C25.2601 21.4427 25.0842 21.8674 24.7711 22.1806C24.4579 22.4936 24.0333 22.6695 23.5906 22.6695V23.5042C24.0333 23.5042 24.4579 23.6801 24.7711 23.9931C25.0842 24.3064 25.2601 24.731 25.2601 25.1737ZM25.6774 22.3814C25.8632 22.6613 26.103 22.9011 26.3829 23.0869C26.103 23.2726 25.8632 23.5124 25.6774 23.7923C25.4917 23.5124 25.2519 23.2726 24.972 23.0869C25.2519 22.9011 25.4917 22.6613 25.6774 22.3814Z" fill="white"/>
<path d="M41.5376 28.9296H42.3724C42.3724 28.4869 42.5483 28.0622 42.8613 27.749C43.1745 27.436 43.5992 27.2601 44.0419 27.2601V26.4253C43.5992 26.4253 43.1745 26.2495 42.8613 25.9364C42.5483 25.6232 42.3724 25.1986 42.3724 24.7559H41.5376C41.5376 25.1986 41.3618 25.6232 41.0487 25.9364C40.7355 26.2495 40.3109 26.4253 39.8682 26.4253V27.2601C40.3109 27.2601 40.7355 27.436 41.0487 27.749C41.3618 28.0622 41.5376 28.4869 41.5376 28.9296ZM41.955 26.1373C42.1408 26.4171 42.3806 26.657 42.6604 26.8427C42.3806 27.0285 42.1408 27.2683 41.955 27.5481C41.7693 27.2683 41.5294 27.0285 41.2496 26.8427C41.5295 26.6569 41.7693 26.4171 41.955 26.1373Z" fill="white"/>
<path d="M37.7813 25.1737H38.616C38.616 24.731 38.7919 24.3063 39.105 23.9931C39.4182 23.6801 39.8428 23.5042 40.2855 23.5042V22.6695C39.8428 22.6695 39.4182 22.4936 39.105 22.1806C38.7919 21.8673 38.616 21.4427 38.616 21H37.7813C37.7813 21.4427 37.6054 21.8674 37.2924 22.1806C36.9792 22.4936 36.5545 22.6695 36.1118 22.6695V23.5042C36.5545 23.5042 36.9792 23.6801 37.2924 23.9931C37.6054 24.3064 37.7813 24.731 37.7813 25.1737ZM38.1987 22.3814C38.3844 22.6613 38.6242 22.9011 38.9041 23.0869C38.6242 23.2726 38.3844 23.5124 38.1987 23.7923C38.0129 23.5124 37.7731 23.2726 37.4932 23.0869C37.7731 22.9011 38.0129 22.6613 38.1987 22.3814Z" fill="white"/>
</svg>
