<svg width="136" height="136" viewBox="0 0 136 136" fill="none" xmlns="http://www.w3.org/2000/svg">
<path fill-rule="evenodd" clip-rule="evenodd" d="M93.7001 10.5921C99.0348 9.16268 104.518 12.3285 105.948 17.6632L125.411 90.3008C126.84 95.6354 123.674 101.119 118.34 102.548L45.7021 122.011C40.3674 123.441 34.884 120.275 33.4546 114.94L13.9914 42.3027C12.562 36.9681 15.7278 31.4847 21.0625 30.0553L93.7001 10.5921Z" fill="#B2D8C8"/>
<path fill-rule="evenodd" clip-rule="evenodd" d="M60.9289 7.75467C64.8342 3.84942 71.1658 3.84942 75.0711 7.75466L128.245 60.9291C132.151 64.8343 132.151 71.166 128.245 75.0712L75.0711 128.246C71.1658 132.151 64.8342 132.151 60.9289 128.246L7.75451 75.0712C3.84927 71.166 3.84926 64.8343 7.75451 60.9291L60.9289 7.75467Z" fill="#3E9F93"/>
<path d="M96.0662 62.9676L88.4253 54.4177C88.2438 54.2153 87.984 54.0996 87.711 54.0996H81.0254V41.7501C81.0254 41.2257 80.5977 40.8002 80.0704 40.8002L68.6093 40.7998V37.9499C68.6093 37.4254 68.1815 37 67.6543 37H52.3731C51.8458 37 51.4181 37.4254 51.4181 37.9499V40.7998H39.9569C39.4297 40.7998 39.002 41.2257 39.002 41.7501V75.9498C39.002 76.4742 39.4297 76.8996 39.9569 76.8996H44.7325V74.9995H40.9123V71.1997H79.1159V74.9995H60.0136V76.8996H80.0707C80.5979 76.8996 81.0256 76.4742 81.0256 75.9498V70.2498L81.026 56H87.2831L93.2255 62.6498H86.7566V64.5499H94.3975V75.9498H96.3079L96.3075 63.5992C96.3075 63.3666 96.2215 63.1424 96.0668 62.9674L96.0662 62.9676ZM53.3273 38.8996H66.699V40.7997L53.3273 40.7993V38.8996ZM40.9113 69.2986V42.6992H79.1149V69.2986H40.9113Z" fill="white"/>
<path d="M52.3712 73.1016C49.2109 73.1016 46.6406 75.6581 46.6406 78.8015C46.6406 81.9449 49.2109 84.5015 52.3712 84.5015C55.5315 84.5015 58.1018 81.9449 58.1018 78.8015C58.1018 75.6577 55.5315 73.1016 52.3712 73.1016ZM52.3712 82.6013C50.2642 82.6013 48.551 80.8973 48.551 78.8015C48.551 76.7058 50.2642 75.0017 52.3712 75.0017C54.4782 75.0017 56.1915 76.7058 56.1915 78.8015C56.1915 80.8973 54.4782 82.6013 52.3712 82.6013Z" fill="white"/>
<path d="M81.9805 78.8015C81.9805 81.9449 84.5507 84.5015 87.7111 84.5015C90.8714 84.5015 93.4417 81.9449 93.4417 78.8015C93.4417 75.6581 90.8714 73.1016 87.7111 73.1016C84.5507 73.1016 81.9805 75.6577 81.9805 78.8015ZM87.7111 75.0013C89.8181 75.0013 91.5313 76.7054 91.5313 78.8011C91.5313 80.8968 89.8181 82.6009 87.7111 82.6009C85.604 82.6009 83.8908 80.8968 83.8908 78.8011C83.8908 76.7058 85.604 75.0013 87.7111 75.0013Z" fill="white"/>
<path d="M86.7539 67.3984H89.6192V69.2986H86.7539V67.3984Z" fill="white"/>
<path d="M54.7581 78.801C54.7581 80.1127 53.6892 81.1759 52.3704 81.1759C51.0517 81.1759 49.9824 80.1127 49.9824 78.801C49.9824 77.4893 51.0517 76.4258 52.3704 76.4258C53.6892 76.4258 54.7581 77.4893 54.7581 78.801Z" fill="white"/>
<path d="M90.0955 78.801C90.0955 80.1127 89.0267 81.1759 87.7079 81.1759C86.3892 81.1759 85.3203 80.1127 85.3203 78.801C85.3203 77.4893 86.3892 76.4258 87.7079 76.4258C89.0267 76.4258 90.0955 77.4893 90.0955 78.801Z" fill="white"/>
<path d="M39 79.75H43.7756V81.6501H39V79.75Z" fill="white"/>
<path d="M39 92.1016H96.3059V94.0017H39V92.1016Z" fill="white"/>
<path d="M94.3945 79.75H96.3049V81.6501H94.3945V79.75Z" fill="white"/>
<path d="M60.0137 79.75H80.0707V81.6501H60.0137V79.75Z" fill="white"/>
<path d="M39 86.3984H47.5959V88.2986H39V86.3984Z" fill="white"/>
<path d="M51.416 86.3984H60.0119V88.2986H51.416V86.3984Z" fill="white"/>
<path d="M63.834 86.3984H72.4299V88.2986H63.834V86.3984Z" fill="white"/>
<path d="M75.2949 86.3984H83.8908V88.2986H75.2949V86.3984Z" fill="white"/>
<path d="M87.7109 86.3984H96.3068V88.2986H87.7109V86.3984Z" fill="white"/>
<path d="M60.6876 47.7277C60.3142 47.3564 59.7106 47.3564 59.3369 47.7277L51.696 55.3278C51.423 55.5994 51.3406 56.0081 51.4889 56.3632C51.6368 56.7174 51.9854 56.9492 52.3715 56.9492H54.2819V63.599C54.2819 64.1234 54.7096 64.5489 55.2368 64.5489H64.7877C65.3149 64.5489 65.7427 64.1234 65.7427 63.599V56.9492H67.653C68.0387 56.9492 68.3873 56.7174 68.5356 56.3632C68.6835 56.0077 68.6016 55.5994 68.3285 55.3278L60.6876 47.7277ZM64.7876 55.0491C64.2604 55.0491 63.8327 55.4745 63.8327 55.999V62.6488H56.1917V56.9488H61.9223V55.0487H54.6771L60.012 49.7428L65.3473 55.0491H64.7876Z" fill="white"/>
<path d="M72.4297 45.5469H76.2499V47.447H72.4297V45.5469Z" fill="white"/>
<path d="M69.5645 49.3477H76.25V51.2478H69.5645V49.3477Z" fill="white"/>
</svg>
