<svg width="136" height="136" viewBox="0 0 136 136" fill="none" xmlns="http://www.w3.org/2000/svg">
<path fill-rule="evenodd" clip-rule="evenodd" d="M93.7001 10.5921C99.0348 9.16268 104.518 12.3285 105.948 17.6632L125.411 90.3008C126.84 95.6354 123.674 101.119 118.34 102.548L45.7021 122.011C40.3674 123.441 34.884 120.275 33.4546 114.94L13.9914 42.3027C12.562 36.9681 15.7278 31.4847 21.0625 30.0553L93.7001 10.5921Z" fill="#C5ECDC"/>
<path fill-rule="evenodd" clip-rule="evenodd" d="M60.9289 7.75467C64.8342 3.84942 71.1658 3.84942 75.0711 7.75466L128.245 60.9291C132.151 64.8343 132.151 71.166 128.245 75.0712L75.0711 128.246C71.1658 132.151 64.8342 132.151 60.9289 128.246L7.75451 75.0712C3.84927 71.166 3.84926 64.8343 7.75451 60.9291L60.9289 7.75467Z" fill="white"/>
<path d="M95.129 91.3871V39H89.5161V60.5161H87.6452V45.5484H70.8065V60.5161H68.9355V41.8065H53.9677V60.5161H46.4839V39H40.871V91.3871H39V97H48.3548V91.3871H46.4839V87.6452H89.5161V91.3871H87.6452V97H97V91.3871H95.129ZM78.2903 47.4194H80.1613V51.1613H78.2903V47.4194ZM72.6774 47.4194H76.4194V53.0323H82.0323V47.4194H85.7742V60.5161H72.6774V47.4194ZM60.5161 43.6774H62.3871V47.4194H60.5161V43.6774ZM55.8387 43.6774H58.6452V49.2903H64.2581V43.6774H67.0645V60.5161H55.8387V43.6774ZM46.4839 95.129H40.871V93.2581H46.4839V95.129ZM42.7419 91.3871V40.871H44.6129V91.3871H42.7419ZM50.2258 85.7742V72.6774H53.9677V78.2903H59.5806V72.6774H63.3226V85.7742H50.2258ZM55.8387 72.6774H57.7097V76.4194H55.8387V72.6774ZM68.9355 85.7742V74.5484H72.6774V80.1613H78.2903V74.5484H82.0323V85.7742H68.9355ZM74.5484 74.5484H76.4194V78.2903H74.5484V74.5484ZM89.5161 83.9032V85.7742H83.9032V72.6774H67.0645V85.7742H65.1935V70.8065H48.3548V85.7742H46.4839V62.3871H89.5161V82.0323H91.3871V40.871H93.2581V91.3871H91.3871V83.9032H89.5161ZM95.129 95.129H89.5161V93.2581H95.129V95.129Z" fill="#0E8778"/>
</svg>
