<svg width="64" height="64" viewBox="0 0 64 64" fill="none" xmlns="http://www.w3.org/2000/svg">
<path fill-rule="evenodd" clip-rule="evenodd" d="M38.8974 6.63214C44.2301 5.19571 49.7063 8.35736 51.1288 13.6939L57.4362 37.3574C58.8586 42.694 55.6887 48.1845 50.3559 49.621L26.9038 55.938C21.571 57.3744 16.0948 54.2128 14.6724 48.8763L8.36497 25.2127C6.94254 19.8762 10.1125 14.3856 15.4453 12.9492L38.8974 6.63214Z" fill="#B7DBD7"/>
<path fill-rule="evenodd" clip-rule="evenodd" d="M25.0569 7.69898C28.9519 3.78351 35.2669 3.7835 39.1619 7.69897L56.3621 24.9898C60.2571 28.9052 60.2571 35.2535 56.3622 39.169L39.1619 56.4598C35.2669 60.3753 28.9519 60.3753 25.0569 56.4598L7.8566 39.169C3.96162 35.2535 3.96161 28.9053 7.85659 24.9898L25.0569 7.69898Z" fill="#3E9F93"/>
<path d="M43.2581 41.7742V21H41.0323V29.5323H40.2903V23.5968H33.6129V29.5323H32.871V22.1129H26.9355V29.5323H23.9677V21H21.7419V41.7742H21V44H24.7097V41.7742H23.9677V40.2903H41.0323V41.7742H40.2903V44H44V41.7742H43.2581ZM36.5806 24.3387H37.3226V25.8226H36.5806V24.3387ZM34.3548 24.3387H35.8387V26.5645H38.0645V24.3387H39.5484V29.5323H34.3548V24.3387ZM29.5323 22.8548H30.2742V24.3387H29.5323V22.8548ZM27.6774 22.8548H28.7903V25.0806H31.0161V22.8548H32.129V29.5323H27.6774V22.8548ZM23.9677 43.2581H21.7419V42.5161H23.9677V43.2581ZM22.4839 41.7742V21.7419H23.2258V41.7742H22.4839ZM25.4516 39.5484V34.3548H26.9355V36.5806H29.1613V34.3548H30.6452V39.5484H25.4516ZM27.6774 34.3548H28.4194V35.8387H27.6774V34.3548ZM32.871 39.5484V35.0968H34.3548V37.3226H36.5806V35.0968H38.0645V39.5484H32.871ZM35.0968 35.0968H35.8387V36.5806H35.0968V35.0968ZM41.0323 38.8065V39.5484H38.8065V34.3548H32.129V39.5484H31.3871V33.6129H24.7097V39.5484H23.9677V30.2742H41.0323V38.0645H41.7742V21.7419H42.5161V41.7742H41.7742V38.8065H41.0323ZM43.2581 43.2581H41.0323V42.5161H43.2581V43.2581Z" fill="white"/>
</svg>
