<svg width="136" height="136" viewBox="0 0 136 136" fill="none" xmlns="http://www.w3.org/2000/svg">
<path fill-rule="evenodd" clip-rule="evenodd" d="M93.7001 10.5921C99.0348 9.16268 104.518 12.3285 105.948 17.6632L125.411 90.3008C126.84 95.6354 123.674 101.119 118.34 102.548L45.7021 122.011C40.3674 123.441 34.884 120.275 33.4546 114.94L13.9914 42.3027C12.562 36.9681 15.7278 31.4847 21.0625 30.0553L93.7001 10.5921Z" fill="#B2D8C8"/>
<path fill-rule="evenodd" clip-rule="evenodd" d="M60.9289 7.75467C64.8342 3.84942 71.1658 3.84942 75.0711 7.75466L128.245 60.9291C132.151 64.8343 132.151 71.166 128.245 75.0712L75.0711 128.246C71.1658 132.151 64.8342 132.151 60.9289 128.246L7.75451 75.0712C3.84927 71.166 3.84926 64.8343 7.75451 60.9291L60.9289 7.75467Z" fill="#3E9F93"/>
<path d="M78.891 96.8255C75.0288 96.8255 71.3244 95.2994 68.5934 92.5831C65.8624 89.8668 64.3281 86.1821 64.3281 82.3405C64.3281 78.4989 65.8624 74.8144 68.5934 72.0979C71.3243 69.3816 75.0288 67.8555 78.891 67.8555C82.7533 67.8555 86.4576 69.3816 89.1887 72.0979C91.9197 74.8142 93.4539 78.4989 93.4539 82.3405C93.4496 86.1808 91.914 89.8628 89.1839 92.5784C86.4539 95.2939 82.752 96.8212 78.891 96.8255ZM78.891 69.7868C75.5437 69.7868 72.3333 71.1094 69.9664 73.4636C67.5995 75.8179 66.2698 79.0111 66.2698 82.3405C66.2698 85.6699 67.5995 88.8631 69.9664 91.2174C72.3333 93.5716 75.5437 94.8942 78.891 94.8942C82.2383 94.8942 85.4487 93.5716 87.8156 91.2174C90.1825 88.8631 91.5122 85.6699 91.5122 82.3405C91.5083 79.0124 90.1773 75.8214 87.8113 73.4679C85.4453 71.1145 82.2371 69.7907 78.891 69.7868Z" fill="white"/>
<path d="M78.8914 91.0325C78.7189 91.0325 78.5494 90.9868 78.4003 90.9006C75.6967 89.3163 74.0371 86.4284 74.0371 83.3071C74.0371 80.1858 75.6967 77.298 78.4003 75.7136C78.7042 75.5382 79.0786 75.5382 79.3825 75.7136C82.0861 77.2979 83.7457 80.1858 83.7457 83.3071C83.7457 86.4284 82.0861 89.3162 79.3825 90.9006C79.2334 90.9868 79.0639 91.0325 78.8914 91.0325ZM78.8914 77.6963C77.0641 78.9874 75.9788 81.0784 75.9788 83.3076C75.9788 85.5368 77.0641 87.6277 78.8914 88.9188C80.7187 87.6277 81.804 85.5368 81.804 83.3076C81.804 81.0784 80.7187 78.9874 78.8914 77.6963Z" fill="white"/>
<path d="M82.2225 81.3727H75.5627C75.0265 81.3727 74.5918 80.9403 74.5918 80.4071C74.5918 79.8738 75.0265 79.4414 75.5627 79.4414H82.2225C82.7587 79.4414 83.1934 79.8738 83.1934 80.4071C83.1934 80.9403 82.7587 81.3727 82.2225 81.3727Z" fill="white"/>
<path d="M79.8638 78.1789C79.5374 78.1789 79.2332 78.0164 79.0533 77.7456C78.8734 77.4749 78.8427 77.1326 78.9705 76.8343L80.9122 72.3029C81.1237 71.8141 81.6928 71.5877 82.1848 71.7964C82.6767 72.0046 82.9064 72.5698 82.6988 73.0599L80.7571 77.5921C80.6045 77.9482 80.253 78.1792 79.8638 78.1788L79.8638 78.1789Z" fill="white"/>
<path d="M77.9224 78.1824C77.5332 78.1828 77.1813 77.9513 77.0292 77.5948L75.0874 73.0626C74.8777 72.572 75.1074 72.0051 75.6006 71.796C76.0938 71.5874 76.6638 71.8158 76.8741 72.3064L78.8158 76.8386C78.9432 77.1369 78.9116 77.4788 78.7321 77.7491C78.5522 78.0194 78.2484 78.1823 77.9225 78.1823L77.9224 78.1824Z" fill="white"/>
<path d="M86.659 84.2712H82.7755C82.2394 84.2712 81.8047 83.8388 81.8047 83.3055C81.8047 82.7722 82.2394 82.3398 82.7755 82.3398H86.659C87.1951 82.3398 87.6299 82.7722 87.6299 83.3055C87.6299 83.8388 87.1951 84.2712 86.659 84.2712Z" fill="white"/>
<path d="M75.0086 84.2712H71.1252C70.589 84.2712 70.1543 83.8388 70.1543 83.3055C70.1543 82.7722 70.589 82.3398 71.1252 82.3398H75.0086C75.5447 82.3398 75.9795 82.7722 75.9795 83.3055C75.9795 83.8388 75.5447 84.2712 75.0086 84.2712Z" fill="white"/>
<path d="M69.2811 92.867C68.8884 92.867 68.5347 92.6316 68.3843 92.2708C68.2344 91.91 68.3172 91.4948 68.595 91.2185L87.8169 72.0993C88.1961 71.7221 88.8107 71.7221 89.1895 72.0993C89.5688 72.4761 89.5688 73.0874 89.1895 73.4646L69.9676 92.5838C69.786 92.7648 69.5389 92.8666 69.2811 92.8666L69.2811 92.867Z" fill="white"/>
<path d="M85.6896 90.064C85.4321 90.0644 85.1851 89.9626 85.0031 89.7812L81.6848 86.4807V86.4802C81.3056 86.1034 81.3056 85.4921 81.6848 85.1149C82.0641 84.7377 82.6787 84.7377 83.0575 85.1149L86.3757 88.4154H86.3761C86.6535 88.6918 86.7367 89.1069 86.5863 89.4678C86.4364 89.8286 86.0823 90.064 85.6896 90.064L85.6896 90.064Z" fill="white"/>
<path d="M76.0099 80.437C75.7524 80.4374 75.5054 80.3357 75.3233 80.1542L72.3805 77.2271C72.1967 77.0464 72.0927 76.8003 72.0918 76.5429C72.0909 76.286 72.1937 76.0389 72.3761 75.857C72.559 75.6755 72.8074 75.5734 73.0657 75.5742C73.324 75.5751 73.5719 75.6785 73.7535 75.8613L76.6964 78.7885C76.9738 79.0648 77.057 79.48 76.9066 79.8408C76.7562 80.2016 76.4025 80.437 76.0099 80.437L76.0099 80.437Z" fill="white"/>
<path d="M67.2417 39.8283H59.4748C59.2173 39.8283 58.9703 39.7266 58.7882 39.5455C58.6062 39.3645 58.5039 39.1187 58.5039 38.8627V35.9657C58.5039 35.7096 58.6062 35.4639 58.7882 35.2828C58.9703 35.1017 59.2173 35 59.4748 35H67.2417C67.4991 35 67.7462 35.1017 67.9282 35.2828C68.1102 35.4639 68.2125 35.7096 68.2125 35.9657V38.8627C68.2125 39.1187 68.1102 39.3645 67.9282 39.5455C67.7462 39.7266 67.4991 39.8283 67.2417 39.8283ZM60.4456 37.897H66.2708V36.9313H60.4456V37.897Z" fill="white"/>
<path d="M69.1837 52.3824H57.5334C57.2759 52.3824 57.0289 52.2807 56.8468 52.0996C56.6648 51.9186 56.5625 51.6728 56.5625 51.4168V44.6571C56.5625 44.401 56.6648 44.1553 56.8468 43.9742C57.0289 43.7931 57.2759 43.6914 57.5334 43.6914H69.1837C69.4411 43.6914 69.6882 43.7931 69.8702 43.9742C70.0523 44.1553 70.1546 44.401 70.1546 44.6571V51.4168C70.1546 51.6728 70.0523 51.9186 69.8702 52.0996C69.6882 52.2807 69.4411 52.3824 69.1837 52.3824ZM58.5042 50.4511H68.2128V45.6227H58.5042V50.4511Z" fill="white"/>
<path d="M63.3576 45.6238C63.1001 45.6238 62.8531 45.522 62.671 45.341C62.489 45.1599 62.3867 44.9142 62.3867 44.6581V38.8641C62.3867 38.3308 62.8214 37.8984 63.3576 37.8984C63.8937 37.8984 64.3284 38.3308 64.3284 38.8641V44.6581C64.3284 44.9142 64.2262 45.1599 64.0441 45.341C63.8621 45.522 63.615 45.6238 63.3576 45.6238Z" fill="white"/>
<path d="M82.7762 47.5545C82.7532 47.5545 82.7298 47.5536 82.706 47.5523L69.1139 46.5866V46.5862C68.8573 46.5681 68.6181 46.4491 68.4495 46.2555C68.2809 46.062 68.1968 45.8098 68.2154 45.5541C68.2302 45.2976 68.3489 45.0579 68.5444 44.8894C68.7394 44.7208 68.9947 44.6381 69.2526 44.6596L82.8447 45.6253C83.3656 45.6628 83.7635 46.1034 83.7453 46.6224C83.7267 47.1419 83.2989 47.5536 82.7762 47.5545L82.7762 47.5545Z" fill="white"/>
<path d="M82.7755 50.4494C82.5181 50.4494 82.271 50.3477 82.089 50.1666C81.907 49.9856 81.8047 49.7398 81.8047 49.4838V46.5868C81.8047 46.0535 82.2394 45.6211 82.7755 45.6211C83.3117 45.6211 83.7464 46.0535 83.7464 46.5868V49.4838C83.7464 49.7398 83.6441 49.9856 83.4621 50.1666C83.28 50.3477 83.033 50.4494 82.7755 50.4494Z" fill="white"/>
<path d="M69.1826 51.4169C68.6599 51.416 68.2321 51.0043 68.2135 50.4848C68.1953 49.9658 68.5932 49.5252 69.1141 49.4877L82.7062 48.522C83.241 48.4841 83.7057 48.8846 83.7438 49.4166C83.7824 49.9485 83.3797 50.4107 82.8449 50.4486L69.2528 51.4143C69.229 51.416 69.2052 51.4169 69.1826 51.4169V51.4169Z" fill="white"/>
<path d="M77.922 50.7955C77.6646 50.7959 77.4175 50.6941 77.2355 50.5131C77.0535 50.3316 76.9512 50.0863 76.9512 49.8298V46.243C76.9512 45.7097 77.3859 45.2773 77.922 45.2773C78.4582 45.2773 78.8929 45.7097 78.8929 46.243V49.8298C78.8929 50.0863 78.7906 50.3316 78.6086 50.5131C78.4265 50.6941 78.1795 50.7959 77.922 50.7955Z" fill="white"/>
<path d="M57.5331 46.6977H57.5218L47.8132 46.5882C47.2771 46.5818 46.8475 46.1446 46.8536 45.6118C46.8501 45.3536 46.9533 45.1052 47.1388 44.925C47.3247 44.7444 47.5765 44.6474 47.8357 44.6569L57.5443 44.7664C58.0805 44.7694 58.5126 45.2044 58.5096 45.7377C58.5065 46.2709 58.0692 46.7007 57.5331 46.6977L57.5331 46.6977Z" fill="white"/>
<path d="M42.9715 63.9706C42.6681 63.9702 42.3825 63.8287 42.1988 63.5886C42.015 63.3485 41.9543 63.0368 42.0349 62.7458L46.8892 45.3638C47.0327 44.8499 47.568 44.549 48.0846 44.6917C48.6016 44.8344 48.9042 45.3668 48.7607 45.8806L43.9064 63.2627C43.7898 63.6804 43.4075 63.9701 42.9715 63.9705L42.9715 63.9706Z" fill="white"/>
<path d="M44.9121 68.7974C44.5151 68.7974 44.1579 68.5568 44.0106 68.19L42.0689 63.3616C41.8712 62.8667 42.1135 62.3063 42.6106 62.1085C43.1078 61.9106 43.6721 62.1503 43.8719 62.6443L45.8136 67.4736C46.0125 67.9689 45.7702 68.5306 45.2722 68.7285C45.1578 68.7742 45.0356 68.7979 44.9121 68.7975L44.9121 68.7974Z" fill="white"/>
<path d="M44.9119 68.7989C44.7915 68.7989 44.6723 68.7769 44.56 68.7329C44.3203 68.6402 44.127 68.4561 44.0234 68.2221C43.9199 67.9875 43.9142 67.722 44.0074 67.4831L50.8034 50.1011C50.8966 49.8623 51.0812 49.67 51.317 49.5665C51.5528 49.4631 51.8202 49.457 52.0603 49.5501C52.3005 49.6428 52.4933 49.8269 52.5969 50.0614C52.7005 50.2964 52.7061 50.5624 52.6125 50.8008L45.8165 68.1828C45.6717 68.5544 45.3124 68.7989 44.9119 68.7989L44.9119 68.7989Z" fill="white"/>
<path d="M57.5324 51.4157H51.7072C51.1711 51.4157 50.7363 50.9833 50.7363 50.45C50.7363 49.9168 51.1711 49.4844 51.7072 49.4844H57.5324C58.0685 49.4844 58.5032 49.9168 58.5032 50.45C58.5032 50.9833 58.0685 51.4157 57.5324 51.4157Z" fill="white"/>
<path d="M55.5914 61.074C55.2793 61.0736 54.9863 60.924 54.8043 60.6722C54.6218 60.4205 54.5724 60.0967 54.6708 59.8023L57.5834 51.1112C57.6644 50.8677 57.8395 50.6663 58.0701 50.5517C58.3002 50.4366 58.5672 50.4176 58.8117 50.4991C59.0565 50.5801 59.2585 50.7547 59.3734 50.9841C59.4882 51.2138 59.5069 51.4794 59.4245 51.7225L56.5119 60.4136C56.3802 60.8076 56.0092 61.0736 55.5914 61.074L55.5914 61.074Z" fill="white"/>
<path d="M71.1241 61.074C70.7063 61.0736 70.3353 60.8076 70.2035 60.4136L67.2909 51.7225C67.2086 51.4794 67.2272 51.2138 67.3421 50.9841C67.4569 50.7547 67.6589 50.5801 67.9038 50.4991C68.1482 50.4176 68.4152 50.4366 68.6454 50.5517C68.8759 50.6663 69.051 50.8677 69.1321 51.1112L72.0447 59.8023C72.1431 60.0967 72.0937 60.4205 71.9112 60.6722C71.7292 60.924 71.4362 61.0736 71.1241 61.074L71.1241 61.074Z" fill="white"/>
<path d="M71.1238 61.072H55.59C55.0539 61.072 54.6191 60.6396 54.6191 60.1063C54.6191 59.573 55.0539 59.1406 55.59 59.1406H71.1238C71.6599 59.1406 72.0946 59.573 72.0946 60.1063C72.0946 60.6396 71.6599 61.072 71.1238 61.072Z" fill="white"/>
<path d="M75.0086 64.9347C74.7512 64.9347 74.5041 64.8329 74.3221 64.6519C74.1401 64.4708 74.0378 64.2251 74.0378 63.969C74.0369 63.2008 73.7296 62.4644 73.1839 61.9212C72.6378 61.378 71.8975 61.0728 71.1252 61.072C70.589 61.072 70.1543 60.6396 70.1543 60.1063C70.1543 59.573 70.589 59.1406 71.1252 59.1406C72.412 59.1419 73.646 59.6511 74.5561 60.5564C75.4659 61.4617 75.9781 62.6885 75.9795 63.969C75.9795 64.225 75.8772 64.4708 75.6951 64.6518C75.5131 64.8329 75.2661 64.9346 75.0086 64.9346L75.0086 64.9347Z" fill="white"/>
<path d="M75.008 70.3448C74.7505 70.3452 74.5035 70.2434 74.3214 70.0624C74.1394 69.8813 74.0371 69.6356 74.0371 69.3791V63.9696C74.0371 63.4363 74.4718 63.0039 75.008 63.0039C75.5441 63.0039 75.9788 63.4363 75.9788 63.9696V69.3795V69.3791C75.9788 69.6356 75.8765 69.8813 75.6945 70.0624C75.5125 70.2435 75.2654 70.3452 75.008 70.3448V70.3448Z" fill="white"/>
<path d="M73.0666 96.8025C72.5304 96.8025 72.0957 96.3701 72.0957 95.8368C72.0957 95.3035 72.5304 94.8711 73.0666 94.8711C73.3526 94.8711 73.6244 94.7453 73.809 94.528C73.975 94.331 74.2134 94.2086 74.4708 94.187C74.7283 94.1654 74.984 94.2469 75.1808 94.4129C75.378 94.5793 75.5002 94.8168 75.5206 95.0734C75.5409 95.3294 75.4582 95.5833 75.29 95.7782C74.7361 96.4283 73.923 96.8029 73.0666 96.8025Z" fill="white"/>
<path d="M51.7072 64.9346C51.4497 64.9346 51.2027 64.8329 51.0207 64.6518C50.8386 64.4708 50.7363 64.225 50.7363 63.969C50.7376 62.6885 51.2499 61.4617 52.1597 60.5564C53.0698 59.651 54.3038 59.1419 55.5906 59.1406C56.1268 59.1406 56.5615 59.573 56.5615 60.1063C56.5615 60.6396 56.1268 61.072 55.5906 61.072C54.8183 61.0728 54.078 61.378 53.5319 61.9212C52.9862 62.4644 52.6789 63.2008 52.678 63.969C52.678 64.2251 52.5757 64.4708 52.3937 64.6519C52.2117 64.8329 51.9646 64.9347 51.7072 64.9347L51.7072 64.9346Z" fill="white"/>
<path d="M51.7072 94.8749C51.4497 94.8749 51.2027 94.7731 51.0207 94.5921C50.8386 94.411 50.7363 94.1653 50.7363 93.9092V63.9735C50.7363 63.4402 51.1711 63.0078 51.7072 63.0078C52.2433 63.0078 52.678 63.4402 52.678 63.9735V93.9092C52.678 94.1653 52.5758 94.411 52.3937 94.5921C52.2117 94.7731 51.9646 94.8749 51.7072 94.8749Z" fill="white"/>
<path d="M53.6489 96.8041C52.8766 96.8032 52.1363 96.4976 51.5902 95.9548C51.0445 95.4117 50.7372 94.6753 50.7363 93.9071C50.7363 93.3738 51.1711 92.9414 51.7072 92.9414C52.2433 92.9414 52.678 93.3738 52.678 93.9071C52.6785 94.4403 53.1128 94.8723 53.6489 94.8727C54.185 94.8727 54.6198 95.3051 54.6198 95.8384C54.6198 96.3717 54.185 96.8041 53.6489 96.8041L53.6489 96.8041Z" fill="white"/>
<path d="M73.0678 96.8024H53.6505C53.1144 96.8024 52.6797 96.37 52.6797 95.8368C52.6797 95.3035 53.1144 94.8711 53.6505 94.8711H73.0678C73.6039 94.8711 74.0386 95.3035 74.0386 95.8368C74.0386 96.37 73.6039 96.8024 73.0678 96.8024Z" fill="white"/>
</svg>
