<svg width="64" height="64" viewBox="0 0 64 64" fill="none" xmlns="http://www.w3.org/2000/svg">
<path fill-rule="evenodd" clip-rule="evenodd" d="M38.8974 6.63214C44.2301 5.19571 49.7063 8.35736 51.1288 13.6939L57.4362 37.3574C58.8586 42.694 55.6887 48.1845 50.3559 49.621L26.9038 55.938C21.571 57.3744 16.0948 54.2128 14.6724 48.8763L8.36497 25.2127C6.94254 19.8762 10.1125 14.3856 15.4453 12.9492L38.8974 6.63214Z" fill="#B7DBD7"/>
<path fill-rule="evenodd" clip-rule="evenodd" d="M25.0569 7.69898C28.9519 3.78351 35.2669 3.7835 39.1619 7.69897L56.3621 24.9898C60.2571 28.9053 60.2571 35.2535 56.3622 39.169L39.1619 56.4598C35.2669 60.3753 28.9519 60.3753 25.0569 56.4598L7.8566 39.169C3.96162 35.2535 3.96161 28.9053 7.85659 24.9898L25.0569 7.69898Z" fill="#3E9F93"/>
<path d="M36.6033 45.8255C34.8651 45.8255 33.1979 45.1387 31.9687 43.9162C30.7396 42.6936 30.0491 41.0353 30.0491 39.3063C30.0491 37.5774 30.7396 35.9191 31.9687 34.6965C33.1978 33.4739 34.8651 32.7871 36.6033 32.7871C38.3416 32.7871 40.0088 33.4739 41.238 34.6965C42.4671 35.919 43.1576 37.5774 43.1576 39.3063C43.1556 41.0347 42.4645 42.6918 41.2358 43.914C40.0071 45.1362 38.341 45.8236 36.6033 45.8255ZM36.6033 33.6563C35.0968 33.6563 33.6519 34.2516 32.5867 35.3112C31.5214 36.3707 30.923 37.8079 30.923 39.3063C30.923 40.8048 31.5214 42.2419 32.5867 43.3015C33.6519 44.3611 35.0968 44.9563 36.6033 44.9563C38.1098 44.9563 39.5547 44.3611 40.62 43.3015C41.6853 42.2419 42.2837 40.8048 42.2837 39.3063C42.2819 37.8085 41.6829 36.3723 40.618 35.3131C39.5532 34.2539 38.1093 33.6581 36.6033 33.6563Z" fill="white"/>
<path d="M36.6034 43.2174C36.5258 43.2174 36.4495 43.1968 36.3824 43.158C35.1656 42.445 34.4187 41.1452 34.4187 39.7405C34.4187 38.3357 35.1656 37.036 36.3824 36.3229C36.5192 36.2439 36.6877 36.2439 36.8245 36.3229C38.0413 37.0359 38.7882 38.3357 38.7882 39.7405C38.7882 41.1452 38.0413 42.4449 36.8245 43.158C36.7574 43.1968 36.6811 43.2174 36.6034 43.2174ZM36.6034 37.2152C35.781 37.7963 35.2926 38.7374 35.2926 39.7407C35.2926 40.744 35.781 41.685 36.6034 42.2661C37.4259 41.685 37.9143 40.744 37.9143 39.7407C37.9143 38.7374 37.4259 37.7963 36.6034 37.2152Z" fill="white"/>
<path d="M38.1028 38.8712H35.1054C34.8641 38.8712 34.6685 38.6766 34.6685 38.4366C34.6685 38.1966 34.8641 38.002 35.1054 38.002H38.1028C38.3441 38.002 38.5397 38.1966 38.5397 38.4366C38.5397 38.6766 38.3441 38.8712 38.1028 38.8712Z" fill="white"/>
<path d="M37.0411 37.4329C36.8942 37.4329 36.7573 37.3597 36.6763 37.2379C36.5954 37.116 36.5815 36.962 36.6391 36.8277L37.513 34.7883C37.6082 34.5683 37.8643 34.4664 38.0857 34.5603C38.3071 34.654 38.4105 34.9084 38.3171 35.129L37.4432 37.1688C37.3745 37.329 37.2163 37.433 37.0411 37.4328L37.0411 37.4329Z" fill="white"/>
<path d="M36.1673 37.4344C35.9922 37.4346 35.8338 37.3304 35.7653 37.17L34.8914 35.1302C34.797 34.9094 34.9004 34.6543 35.1224 34.5602C35.3444 34.4663 35.6009 34.5691 35.6955 34.7899L36.5694 36.8296C36.6267 36.9639 36.6125 37.1178 36.5317 37.2394C36.4508 37.3611 36.3141 37.4344 36.1674 37.4344L36.1673 37.4344Z" fill="white"/>
<path d="M40.0995 40.1759H38.3517C38.1104 40.1759 37.9148 39.9813 37.9148 39.7413C37.9148 39.5012 38.1104 39.3066 38.3517 39.3066H40.0995C40.3408 39.3066 40.5365 39.5012 40.5365 39.7413C40.5365 39.9813 40.3408 40.1759 40.0995 40.1759Z" fill="white"/>
<path d="M34.8561 40.1759H33.1083C32.867 40.1759 32.6714 39.9813 32.6714 39.7413C32.6714 39.5012 32.867 39.3066 33.1083 39.3066H34.8561C35.0974 39.3066 35.2931 39.5012 35.2931 39.7413C35.2931 39.9813 35.0974 40.1759 34.8561 40.1759Z" fill="white"/>
<path d="M32.2784 44.0445C32.1016 44.0445 31.9424 43.9385 31.8748 43.7761C31.8073 43.6137 31.8445 43.4269 31.9696 43.3025L40.6207 34.6976C40.7914 34.5279 41.068 34.5279 41.2385 34.6976C41.4092 34.8672 41.4092 35.1423 41.2385 35.3121L32.5873 43.917C32.5056 43.9985 32.3944 44.0443 32.2783 44.0443L32.2784 44.0445Z" fill="white"/>
<path d="M39.6631 42.7824C39.5472 42.7826 39.436 42.7368 39.3541 42.6552L37.8607 41.1697V41.1695C37.69 41 37.69 40.7248 37.8607 40.5551C38.0314 40.3853 38.308 40.3853 38.4785 40.5551L39.9719 42.0405H39.9721C40.0969 42.1649 40.1344 42.3517 40.0667 42.5141C39.9992 42.6765 39.8398 42.7824 39.6631 42.7824L39.6631 42.7824Z" fill="white"/>
<path d="M35.3066 38.4503C35.1907 38.4505 35.0795 38.4047 34.9976 38.323L33.6731 37.0056C33.5904 36.9243 33.5436 36.8135 33.5432 36.6977C33.5428 36.5821 33.5891 36.4709 33.6712 36.389C33.7535 36.3073 33.8653 36.2613 33.9815 36.2617C34.0978 36.2621 34.2094 36.3087 34.2911 36.3909L35.6156 37.7083C35.7404 37.8327 35.7779 38.0196 35.7102 38.182C35.6425 38.3444 35.4833 38.4503 35.3066 38.4503L35.3066 38.4503Z" fill="white"/>
<path d="M31.3605 20.1731H27.8649C27.7491 20.1731 27.6379 20.1273 27.5559 20.0458C27.474 19.9643 27.428 19.8537 27.428 19.7385V18.4346C27.428 18.3194 27.474 18.2088 27.5559 18.1273C27.6379 18.0458 27.7491 18 27.8649 18H31.3605C31.4764 18 31.5876 18.0458 31.6695 18.1273C31.7515 18.2088 31.7975 18.3194 31.7975 18.4346V19.7385C31.7975 19.8537 31.7515 19.9643 31.6695 20.0458C31.5876 20.1273 31.4764 20.1731 31.3605 20.1731ZM28.3019 19.3038H30.9236V18.8692H28.3019V19.3038Z" fill="white"/>
<path d="M32.2346 25.8236H26.9912C26.8753 25.8236 26.7641 25.7778 26.6822 25.6964C26.6002 25.6149 26.5542 25.5043 26.5542 25.389V22.3467C26.5542 22.2315 26.6002 22.1209 26.6822 22.0394C26.7641 21.9579 26.8753 21.9121 26.9912 21.9121H32.2346C32.3504 21.9121 32.4616 21.9579 32.5435 22.0394C32.6255 22.1209 32.6715 22.2315 32.6715 22.3467V25.389C32.6715 25.5043 32.6255 25.6149 32.5435 25.6964C32.4616 25.7778 32.3504 25.8236 32.2346 25.8236ZM27.4281 24.9544H31.7976V22.7813H27.4281V24.9544Z" fill="white"/>
<path d="M29.6122 22.7816C29.4964 22.7816 29.3852 22.7358 29.3033 22.6543C29.2213 22.5728 29.1753 22.4622 29.1753 22.347V19.7393C29.1753 19.4993 29.3709 19.3047 29.6122 19.3047C29.8535 19.3047 30.0492 19.4993 30.0492 19.7393V22.347C30.0492 22.4622 30.0032 22.5728 29.9212 22.6543C29.8393 22.7358 29.7281 22.7816 29.6122 22.7816Z" fill="white"/>
<path d="M38.352 23.6501C38.3417 23.6501 38.3312 23.6497 38.3204 23.6491L32.2031 23.2145V23.2143C32.0877 23.2062 31.98 23.1526 31.9041 23.0655C31.8282 22.9784 31.7904 22.8649 31.7988 22.7498C31.8054 22.6344 31.8588 22.5265 31.9468 22.4506C32.0346 22.3748 32.1495 22.3375 32.2655 22.3472L38.3829 22.7818C38.6173 22.7987 38.7964 22.997 38.7882 23.2306C38.7798 23.4644 38.5873 23.6497 38.352 23.6501L38.352 23.6501Z" fill="white"/>
<path d="M38.3517 24.9524C38.2359 24.9524 38.1247 24.9066 38.0428 24.8251C37.9608 24.7436 37.9148 24.633 37.9148 24.5178V23.2139C37.9148 22.9739 38.1104 22.7793 38.3517 22.7793C38.593 22.7793 38.7887 22.9739 38.7887 23.2139V24.5178C38.7887 24.633 38.7427 24.7436 38.6607 24.8251C38.5788 24.9066 38.4676 24.9524 38.3517 24.9524Z" fill="white"/>
<path d="M32.234 25.388C31.9988 25.3876 31.8063 25.2023 31.7979 24.9685C31.7897 24.7349 31.9688 24.5366 32.2032 24.5197L38.3205 24.0851C38.5613 24.068 38.7704 24.2483 38.7875 24.4877C38.8049 24.7271 38.6237 24.9351 38.383 24.9522L32.2657 25.3868C32.2549 25.3876 32.2442 25.388 32.234 25.388V25.388Z" fill="white"/>
<path d="M36.1672 25.1085C36.0513 25.1087 35.9401 25.0629 35.8582 24.9814C35.7763 24.8997 35.7302 24.7893 35.7302 24.6739V23.0596C35.7302 22.8196 35.9259 22.625 36.1672 22.625C36.4085 22.625 36.6041 22.8196 36.6041 23.0596V24.6739C36.6041 24.7893 36.5581 24.8997 36.4762 24.9814C36.3942 25.0629 36.283 25.1087 36.1672 25.1085Z" fill="white"/>
<path d="M26.9908 23.2645H26.9858L22.6162 23.2152C22.3749 23.2123 22.1816 23.0156 22.1844 22.7758C22.1828 22.6595 22.2292 22.5478 22.3127 22.4667C22.3964 22.3854 22.5097 22.3417 22.6264 22.346L26.9959 22.3953C27.2372 22.3966 27.4317 22.5924 27.4303 22.8324C27.4289 23.0724 27.2321 23.2659 26.9908 23.2645L26.9908 23.2645Z" fill="white"/>
<path d="M20.4373 31.0384C20.3007 31.0382 20.1722 30.9746 20.0895 30.8665C20.0068 30.7584 19.9794 30.6182 20.0157 30.4872L22.2005 22.6641C22.265 22.4329 22.5059 22.2974 22.7384 22.3617C22.9712 22.4259 23.1073 22.6655 23.0428 22.8968L20.858 30.7198C20.8055 30.9078 20.6335 31.0382 20.4372 31.0384L20.4373 31.0384Z" fill="white"/>
<path d="M21.3106 33.2116C21.132 33.2116 20.9712 33.1033 20.9049 32.9382L20.031 30.7652C19.942 30.5424 20.0511 30.2902 20.2748 30.2012C20.4986 30.1121 20.7525 30.22 20.8425 30.4423L21.7164 32.6158C21.8059 32.8387 21.6969 33.0915 21.4727 33.1806C21.4212 33.2012 21.3662 33.2118 21.3106 33.2116L21.3106 33.2116Z" fill="white"/>
<path d="M21.3106 33.2123C21.2564 33.2123 21.2027 33.2024 21.1522 33.1826C21.0443 33.1409 20.9573 33.0581 20.9107 32.9527C20.8641 32.8472 20.8615 32.7276 20.9035 32.6202L23.9621 24.7971C24.0041 24.6896 24.0872 24.6031 24.1933 24.5565C24.2994 24.5099 24.4198 24.5072 24.5278 24.5491C24.6359 24.5908 24.7227 24.6737 24.7693 24.7792C24.8159 24.885 24.8185 25.0047 24.7763 25.112L21.7177 32.9351C21.6525 33.1023 21.4908 33.2123 21.3106 33.2123L21.3106 33.2123Z" fill="white"/>
<path d="M26.9905 25.3888H24.3688C24.1275 25.3888 23.9319 25.1942 23.9319 24.9541C23.9319 24.7141 24.1275 24.5195 24.3688 24.5195H26.9905C27.2318 24.5195 27.4275 24.7141 27.4275 24.9541C27.4275 25.1942 27.2318 25.3888 26.9905 25.3888Z" fill="white"/>
<path d="M26.1171 29.735C25.9767 29.7348 25.8448 29.6675 25.7629 29.5541C25.6807 29.4408 25.6585 29.2951 25.7028 29.1626L27.0136 25.2511C27.0501 25.1415 27.1289 25.0508 27.2327 24.9992C27.3363 24.9474 27.4564 24.9389 27.5665 24.9756C27.6767 25.012 27.7676 25.0906 27.8193 25.1938C27.871 25.2973 27.8793 25.4168 27.8423 25.5262L26.5314 29.4377C26.4721 29.6151 26.3051 29.7348 26.1171 29.735L26.1171 29.735Z" fill="white"/>
<path d="M33.1079 29.735C32.9198 29.7348 32.7528 29.6151 32.6935 29.4377L31.3827 25.5262C31.3456 25.4168 31.354 25.2973 31.4057 25.1938C31.4574 25.0906 31.5483 25.012 31.6585 24.9756C31.7685 24.9389 31.8887 24.9474 31.9923 24.9992C32.096 25.0508 32.1748 25.1415 32.2113 25.2511L33.5222 29.1626C33.5665 29.2951 33.5442 29.4408 33.4621 29.5541C33.3802 29.6675 33.2483 29.7348 33.1079 29.735L33.1079 29.735Z" fill="white"/>
<path d="M33.1076 29.7345H26.1164C25.8751 29.7345 25.6794 29.5399 25.6794 29.2998C25.6794 29.0598 25.8751 28.8652 26.1164 28.8652H33.1076C33.3489 28.8652 33.5446 29.0598 33.5446 29.2998C33.5446 29.5399 33.3489 29.7345 33.1076 29.7345Z" fill="white"/>
<path d="M34.8562 31.4729C34.7403 31.4729 34.6291 31.4271 34.5472 31.3457C34.4652 31.2642 34.4192 31.1536 34.4192 31.0383C34.4188 30.6926 34.2805 30.3612 34.0349 30.1167C33.7891 29.8722 33.456 29.7349 33.1083 29.7345C32.867 29.7345 32.6714 29.5399 32.6714 29.2998C32.6714 29.0598 32.867 28.8652 33.1083 28.8652C33.6875 28.8658 34.2429 29.095 34.6525 29.5024C35.0619 29.9099 35.2925 30.462 35.2931 31.0383C35.2931 31.1536 35.2471 31.2642 35.1651 31.3456C35.0832 31.4271 34.972 31.4729 34.8561 31.4729L34.8562 31.4729Z" fill="white"/>
<path d="M34.8557 33.9074C34.7398 33.9076 34.6286 33.8618 34.5467 33.7803C34.4647 33.6988 34.4187 33.5882 34.4187 33.4728V31.0381C34.4187 30.7981 34.6144 30.6035 34.8557 30.6035C35.0969 30.6035 35.2926 30.7981 35.2926 31.0381V33.473V33.4728C35.2926 33.5882 35.2466 33.6988 35.1646 33.7803C35.0827 33.8618 34.9715 33.9076 34.8557 33.9074V33.9074Z" fill="white"/>
<path d="M33.9819 45.8154C33.7406 45.8154 33.5449 45.6208 33.5449 45.3808C33.5449 45.1408 33.7406 44.9462 33.9819 44.9462C34.1106 44.9462 34.2329 44.8895 34.316 44.7917C34.3907 44.703 34.498 44.648 34.6139 44.6383C34.7298 44.6285 34.8448 44.6652 34.9334 44.7399C35.0222 44.8148 35.0772 44.9217 35.0863 45.0372C35.0955 45.1524 35.0583 45.2667 34.9826 45.3544C34.7333 45.647 34.3673 45.8156 33.9819 45.8154Z" fill="white"/>
<path d="M24.3688 31.4729C24.253 31.4729 24.1418 31.4271 24.0598 31.3456C23.9779 31.2642 23.9319 31.1536 23.9319 31.0383C23.9325 30.462 24.163 29.9098 24.5725 29.5024C24.9821 29.095 25.5375 28.8658 26.1166 28.8652C26.3579 28.8652 26.5536 29.0598 26.5536 29.2998C26.5536 29.5399 26.3579 29.7345 26.1166 29.7345C25.769 29.7349 25.4358 29.8722 25.1901 30.1167C24.9445 30.3612 24.8062 30.6926 24.8058 31.0383C24.8058 31.1536 24.7597 31.2642 24.6778 31.3457C24.5959 31.4271 24.4847 31.4729 24.3688 31.4729L24.3688 31.4729Z" fill="white"/>
<path d="M24.3688 44.9477C24.253 44.9477 24.1418 44.9019 24.0598 44.8205C23.9779 44.739 23.9319 44.6284 23.9319 44.5131V31.0401C23.9319 30.8001 24.1275 30.6055 24.3688 30.6055C24.6101 30.6055 24.8058 30.8001 24.8058 31.0401V44.5131C24.8058 44.6284 24.7598 44.739 24.6778 44.8205C24.5959 44.9019 24.4847 44.9477 24.3688 44.9477Z" fill="white"/>
<path d="M25.2428 45.8166C24.8951 45.8162 24.562 45.6786 24.3162 45.4344C24.0706 45.1899 23.9323 44.8585 23.9319 44.5127C23.9319 44.2727 24.1275 44.0781 24.3688 44.0781C24.6101 44.0781 24.8058 44.2727 24.8058 44.5127C24.806 44.7527 25.0014 44.9472 25.2427 44.9474C25.484 44.9474 25.6797 45.142 25.6797 45.382C25.6797 45.622 25.484 45.8166 25.2427 45.8166L25.2428 45.8166Z" fill="white"/>
<path d="M33.9826 45.8145H25.2436C25.0023 45.8145 24.8066 45.6199 24.8066 45.3799C24.8066 45.1399 25.0023 44.9453 25.2436 44.9453H33.9826C34.2239 44.9453 34.4196 45.1399 34.4196 45.3799C34.4196 45.6199 34.2239 45.8145 33.9826 45.8145Z" fill="white"/>
</svg>
