<svg width="64" height="64" viewBox="0 0 64 64" fill="none" xmlns="http://www.w3.org/2000/svg">
<path fill-rule="evenodd" clip-rule="evenodd" d="M38.8974 6.63214C44.2301 5.19571 49.7063 8.35736 51.1288 13.6939L57.4362 37.3574C58.8586 42.694 55.6887 48.1845 50.3559 49.621L26.9038 55.938C21.571 57.3744 16.0948 54.2128 14.6724 48.8763L8.36497 25.2127C6.94254 19.8762 10.1125 14.3856 15.4453 12.9492L38.8974 6.63214Z" fill="#B7DBD7"/>
<path fill-rule="evenodd" clip-rule="evenodd" d="M25.0569 7.69898C28.9519 3.78351 35.2669 3.7835 39.1619 7.69897L56.3621 24.9898C60.2571 28.9052 60.2571 35.2535 56.3622 39.169L39.1619 56.4598C35.2669 60.3753 28.9519 60.3753 25.0569 56.4598L7.8566 39.169C3.96162 35.2535 3.96161 28.9053 7.85659 24.9898L25.0569 7.69898Z" fill="#3E9F93"/>
<path d="M38.0912 34.8932C38.2203 34.7418 38.4083 34.6532 38.6073 34.6504C38.807 34.6534 38.9956 34.7426 39.1248 34.895C39.3905 35.1989 39.7737 35.3742 40.1774 35.3769C40.4604 35.3764 40.7366 35.2887 40.9679 35.1254C41.1284 35.0108 41.1666 34.7885 41.0536 34.6269C40.9407 34.4654 40.7186 34.4249 40.5561 34.5364C40.4185 34.633 40.2497 34.6741 40.0832 34.6516C39.9167 34.6292 39.7647 34.5448 39.6578 34.4153C39.3935 34.1103 39.0108 33.934 38.6073 33.9316C38.2037 33.9336 37.8204 34.1094 37.5558 34.4142C37.4487 34.5438 37.2966 34.628 37.1299 34.65C36.9632 34.672 36.7945 34.6301 36.6575 34.5328C36.4948 34.4189 36.2705 34.4583 36.1566 34.621C36.0427 34.7837 36.0822 35.0078 36.2449 35.1218C36.5261 35.3198 36.8708 35.4061 37.2122 35.3639C37.5535 35.3217 37.8669 35.1539 38.0912 34.8932L38.0912 34.8932Z" fill="white"/>
<path d="M30.1899 37.7672C30.0273 37.6533 29.803 37.6927 29.6891 37.8554C29.5752 38.0181 29.6147 38.2422 29.7773 38.3562C30.0586 38.5542 30.4033 38.6405 30.7447 38.5981C31.0859 38.556 31.3993 38.3882 31.6237 38.1276C31.7528 37.9762 31.9408 37.8876 32.1397 37.8847C32.3395 37.8878 32.5281 37.977 32.6573 38.1294C32.923 38.4332 33.3062 38.6086 33.7098 38.6113C33.9928 38.6108 34.2691 38.5231 34.5004 38.3597C34.6609 38.2452 34.699 38.0228 34.5861 37.8613C34.4732 37.6997 34.2511 37.6593 34.0886 37.7708C33.9511 37.8674 33.7822 37.9086 33.6157 37.8862C33.4491 37.8637 33.2971 37.7793 33.1902 37.6497C32.926 37.3447 32.5432 37.1684 32.1398 37.166C31.7361 37.1679 31.3529 37.3438 31.0883 37.6486C30.9812 37.7782 30.8291 37.8624 30.6624 37.8844C30.4957 37.9064 30.327 37.8645 30.1899 37.7671L30.1899 37.7672Z" fill="white"/>
<path d="M35.439 41.091C35.3843 41.1692 35.3627 41.2657 35.3792 41.3597C35.3957 41.4538 35.449 41.5373 35.5271 41.592C35.8083 41.79 36.1531 41.8763 36.4945 41.834C36.8357 41.7918 37.149 41.624 37.3734 41.3634C37.5023 41.2114 37.6903 41.1223 37.8895 41.1191C38.0893 41.1222 38.2779 41.2114 38.4071 41.3638C38.6727 41.6676 39.056 41.8429 39.4596 41.8457C39.7426 41.8452 40.0189 41.7574 40.2502 41.5941C40.4106 41.4796 40.4488 41.2572 40.3359 41.0957C40.2229 40.9341 40.0009 40.8937 39.8384 41.0052C39.7009 41.1018 39.532 41.143 39.3655 41.1205C39.1989 41.0981 39.0469 41.0137 38.94 40.8841C38.6758 40.5791 38.293 40.4028 37.8896 40.4004C37.4859 40.4023 37.1027 40.5781 36.8381 40.883C36.7309 41.0124 36.5789 41.0966 36.4122 41.1186C36.2455 41.1406 36.0767 41.0987 35.9397 41.0015C35.8614 40.947 35.7647 40.9258 35.6709 40.9425C35.577 40.9593 35.4936 41.0127 35.439 41.091L35.439 41.091Z" fill="white"/>
<path d="M28.3401 41.003C28.2026 41.0997 28.0339 41.1409 27.8673 41.1185C27.7007 41.096 27.5487 41.0115 27.4417 40.8818C27.1769 40.5774 26.7936 40.402 26.39 40.4004C25.9864 40.4023 25.6031 40.5781 25.3386 40.883C25.2314 41.0124 25.0793 41.0966 24.9126 41.1186C24.746 41.1406 24.5772 41.0987 24.4402 41.0015C24.2775 40.8876 24.0532 40.9271 23.9393 41.0897C23.8255 41.2524 23.8649 41.4765 24.0276 41.5906C24.3088 41.7885 24.6535 41.8748 24.995 41.8325C25.3362 41.7903 25.6495 41.6225 25.8739 41.362C26.0031 41.2105 26.1911 41.122 26.39 41.1191C26.5897 41.1221 26.7784 41.2113 26.9075 41.3637C27.1732 41.6676 27.5565 41.8429 27.9601 41.8456C28.2431 41.8452 28.5193 41.7574 28.7507 41.5941C28.9111 41.4795 28.9493 41.2572 28.8363 41.0956C28.7234 40.9341 28.5014 40.8937 28.3389 41.0052L28.3401 41.003Z" fill="white"/>
<path d="M21.3012 28.8546C22.0249 28.9735 22.6931 29.3163 23.2119 29.8347C23.7305 30.3532 24.0737 31.0212 24.1929 31.7449C24.2213 31.9188 24.3714 32.0465 24.5476 32.0465C24.7237 32.0465 24.8739 31.9188 24.9023 31.7449C25.0213 31.021 25.3643 30.3527 25.8831 29.8339C26.4018 29.3152 27.0701 28.9723 27.794 28.8532C27.9669 28.8238 28.0935 28.6742 28.0935 28.4988C28.0935 28.3235 27.9669 28.1738 27.794 28.1444C27.0701 28.0254 26.4018 27.6824 25.8831 27.1638C25.3643 26.6449 25.0214 25.9766 24.9023 25.2528C24.8739 25.0789 24.7237 24.9512 24.5476 24.9512C24.3714 24.9512 24.2213 25.0789 24.1929 25.2528C24.0742 25.9769 23.7314 26.6456 23.2125 27.1647C22.6939 27.6837 22.0252 28.0269 21.3012 28.1459C21.1283 28.1753 21.0017 28.325 21.0017 28.5003C21.0017 28.6756 21.1283 28.8253 21.3012 28.8547V28.8546ZM24.5476 26.5026C24.9649 27.3778 25.6701 28.083 26.5452 28.5003C25.6701 28.9175 24.9649 29.6228 24.5476 30.4979C24.1305 29.6226 23.4253 28.9174 22.55 28.5003C23.4252 28.0832 24.1305 27.3779 24.5476 26.5026Z" fill="white"/>
<path d="M30.6224 33.3361C30.1293 33.2551 29.674 33.0213 29.3206 32.6679C28.9672 32.3145 28.7336 31.8592 28.6526 31.3661C28.6242 31.1922 28.474 31.0645 28.2979 31.0645C28.1217 31.0645 27.9714 31.1922 27.9432 31.3661C27.8621 31.8594 27.6284 32.3147 27.2748 32.6681C26.9214 33.0215 26.466 33.2551 25.9728 33.3361C25.7994 33.3648 25.6724 33.5148 25.6724 33.6906C25.6724 33.8663 25.7994 34.0163 25.9728 34.045C26.466 34.1262 26.9215 34.3599 27.2748 34.7133C27.6283 35.0667 27.862 35.5222 27.9432 36.0153C27.9714 36.1892 28.1217 36.3169 28.2979 36.3169C28.474 36.3169 28.6242 36.1892 28.6526 36.0153C28.7336 35.5222 28.9672 35.0669 29.3206 34.7133C29.674 34.3599 30.1293 34.1262 30.6224 34.045C30.7959 34.0163 30.9229 33.8663 30.9229 33.6906C30.9229 33.5148 30.7959 33.3648 30.6224 33.3361ZM28.2977 34.8848H28.2979C28.0176 34.3842 27.6044 33.9709 27.1037 33.6908C27.6044 33.4104 28.0176 32.9969 28.2979 32.4963C28.5782 32.9969 28.9914 33.4104 29.4919 33.6908C28.9913 33.9709 28.578 34.3842 28.2979 34.8848H28.2977Z" fill="white"/>
<path d="M27.4089 23.9806C27.902 24.0617 28.3575 24.2955 28.7109 24.6489C29.0643 25.0023 29.298 25.4577 29.3792 25.9509C29.4074 26.1248 29.5578 26.2525 29.7339 26.2525C29.91 26.2525 30.0602 26.1248 30.0886 25.9509C30.1696 25.4577 30.4032 25.0024 30.7566 24.6489C31.11 24.2955 31.5653 24.0617 32.0585 23.9806C32.2319 23.9518 32.359 23.8018 32.359 23.6262C32.359 23.4504 32.2319 23.3004 32.0585 23.2716C31.5653 23.1906 31.11 22.9569 30.7566 22.6034C30.4032 22.25 30.1696 21.7948 30.0886 21.3016C30.0602 21.1277 29.91 21 29.7339 21C29.5578 21 29.4074 21.1277 29.3792 21.3016C29.2982 21.7949 29.0644 22.2502 28.7109 22.6036C28.3575 22.957 27.902 23.1906 27.4089 23.2716C27.2355 23.3004 27.1084 23.4504 27.1084 23.6262C27.1084 23.8018 27.2355 23.9518 27.4089 23.9806ZM29.7339 22.4318C30.0142 22.9325 30.4274 23.3459 30.928 23.6263C30.4273 23.9064 30.014 24.3197 29.7339 24.8204C29.4537 24.3197 29.0404 23.9064 28.5397 23.6263C29.0404 23.3459 29.4537 22.9325 29.7339 22.4318Z" fill="white"/>
<path d="M43.9871 42.7656L41.9306 29.1048C41.8933 28.8489 41.7648 28.6153 41.569 28.4468C41.3731 28.2782 41.1228 28.1861 40.8644 28.1874H38.6083V27.4686C38.6083 26.9551 38.3343 26.4806 37.8896 26.2238C37.4449 25.9671 36.8969 25.9671 36.4522 26.2238C36.0075 26.4806 35.7335 26.9552 35.7335 27.4686V29.6248H32.8586V27.4686C32.8586 27.2118 32.9956 26.9745 33.218 26.8462C33.4403 26.7179 33.7144 26.7179 33.9367 26.8462C34.1591 26.9745 34.2961 27.2118 34.2961 27.4686C34.2961 27.6671 34.457 27.828 34.6554 27.828C34.8539 27.828 35.0148 27.6671 35.0148 27.4686C35.0148 26.9551 34.7408 26.4806 34.2961 26.2238C33.8514 25.9671 33.3033 25.9671 32.8586 26.2238C32.4139 26.4806 32.1399 26.9552 32.1399 27.4686V28.1874H29.2651C29.0667 28.1874 28.9058 28.3483 28.9058 28.5467C28.9058 28.7451 29.0667 28.9061 29.2651 28.9061H32.1399V32.1402C32.1399 32.3387 32.3008 32.4996 32.4993 32.4996C32.6977 32.4996 32.8586 32.3387 32.8586 32.1402V30.3435H35.7335V32.1402C35.7335 32.3387 35.8944 32.4996 36.0928 32.4996C36.2913 32.4996 36.4522 32.3387 36.4522 32.1402V28.9061H40.8642C41.0421 28.9059 41.1934 29.0358 41.2199 29.2118L43.2762 42.8697C43.291 42.9729 43.2602 43.0773 43.192 43.1561C43.1236 43.2349 43.0247 43.2801 42.9204 43.2801H22.0779C21.9741 43.2801 21.8754 43.2353 21.8071 43.1571C21.7389 43.0789 21.7078 42.9751 21.7217 42.8723L23.4075 31.6691C23.4239 31.574 23.4012 31.4764 23.3446 31.3981C23.2881 31.3198 23.2026 31.2675 23.1072 31.2531C23.0119 31.2387 22.9147 31.2632 22.8375 31.3211C22.7603 31.379 22.7096 31.4657 22.6971 31.5613L21.0109 42.7682C20.9666 43.0775 21.0588 43.391 21.2635 43.6271C21.4682 43.8632 21.7654 43.999 22.0779 43.999H42.9204C43.2334 43.999 43.5308 43.8628 43.7355 43.6261C43.9402 43.3894 44.032 43.0754 43.9869 42.7656L43.9871 42.7656ZM36.4521 27.4686C36.4521 27.2118 36.5891 26.9745 36.8115 26.8462C37.0338 26.7178 37.3078 26.7178 37.5302 26.8462C37.7525 26.9745 37.8895 27.2118 37.8895 27.4686V28.1873H36.4521V27.4686Z" fill="white"/>
</svg>
