<svg width="136" height="136" viewBox="0 0 136 136" fill="none" xmlns="http://www.w3.org/2000/svg">
<path fill-rule="evenodd" clip-rule="evenodd" d="M93.7001 10.5921C99.0348 9.16268 104.518 12.3285 105.948 17.6632L125.411 90.3008C126.84 95.6354 123.674 101.119 118.34 102.548L45.7021 122.011C40.3674 123.441 34.884 120.275 33.4546 114.94L13.9914 42.3027C12.562 36.9681 15.7278 31.4847 21.0625 30.0553L93.7001 10.5921Z" fill="#C5ECDC"/>
<path fill-rule="evenodd" clip-rule="evenodd" d="M60.9289 7.75467C64.8342 3.84942 71.1658 3.84942 75.0711 7.75466L128.245 60.9291C132.151 64.8343 132.151 71.166 128.245 75.0712L75.0711 128.246C71.1658 132.151 64.8342 132.151 60.9289 128.246L7.75451 75.0712C3.84927 71.166 3.84926 64.8343 7.75451 60.9291L60.9289 7.75467Z" fill="white"/>
<path d="M81.8717 71.2214C82.1805 70.8593 82.6302 70.6475 83.1058 70.6406C83.5835 70.6479 84.0346 70.8612 84.3435 71.2256C84.9788 71.9523 85.8953 72.3716 86.8606 72.3781C87.5373 72.3769 88.1979 72.1671 88.7511 71.7765C89.1348 71.5026 89.2261 70.9709 88.956 70.5845C88.6859 70.1982 88.155 70.1015 87.7664 70.3682C87.4372 70.5991 87.0336 70.6973 86.6354 70.6436C86.2371 70.5899 85.8738 70.3881 85.618 70.0785C84.9861 69.3492 84.0708 68.9276 83.1059 68.9219C82.1407 68.9265 81.2242 69.3469 80.5915 70.0759C80.3352 70.3858 79.9716 70.5872 79.573 70.6398C79.1744 70.6924 78.7708 70.5922 78.4431 70.3594C78.0541 70.087 77.5178 70.1814 77.2455 70.5704C76.9731 70.9594 77.0675 71.4953 77.4565 71.7681C78.129 72.2415 78.9534 72.4479 79.7698 72.347C80.5858 72.2461 81.3354 71.8448 81.8717 71.2214L81.8717 71.2214Z" fill="#0E8778"/>
<path d="M62.9763 78.0938C62.5873 77.8214 62.051 77.9158 61.7787 78.3048C61.5063 78.6938 61.6007 79.2298 61.9897 79.5025C62.6622 79.9759 63.4866 80.1823 64.303 80.081C65.119 79.9801 65.8683 79.5788 66.4049 78.9558C66.7138 78.5937 67.1634 78.3819 67.6391 78.375C68.1167 78.3823 68.5679 78.5956 68.8767 78.96C69.512 79.6866 70.4286 80.106 71.3938 80.1124C72.0705 80.1113 72.7311 79.9014 73.2844 79.5109C73.668 79.237 73.7593 78.7053 73.4892 78.3189C73.2191 77.9326 72.6882 77.8359 72.2996 78.1025C71.9708 78.3335 71.5668 78.4321 71.1686 78.3784C70.7703 78.3247 70.4067 78.1229 70.1512 77.8129C69.5194 77.0836 68.604 76.6619 67.6392 76.6562C66.6739 76.6609 65.7574 77.0813 65.1248 77.8102C64.8685 78.1202 64.5048 78.3216 64.1062 78.3742C63.7076 78.4267 63.304 78.3266 62.9764 78.0937L62.9763 78.0938Z" fill="#0E8778"/>
<path d="M75.5291 86.0422C75.3983 86.229 75.3465 86.46 75.386 86.6848C75.4255 86.9096 75.5529 87.1095 75.7397 87.2403C76.4122 87.7137 77.2367 87.9201 78.0531 87.8188C78.8691 87.7179 79.6184 87.3167 80.155 86.6936C80.4631 86.3299 80.9127 86.117 81.3891 86.1094C81.8668 86.1166 82.3179 86.3299 82.6268 86.6944C83.2621 87.421 84.1786 87.8403 85.1438 87.8468C85.8206 87.8457 86.4812 87.6358 87.0344 87.2453C87.4181 86.9713 87.5094 86.4396 87.2393 86.0533C86.9692 85.6669 86.4382 85.5703 86.0496 85.8369C85.7209 86.0679 85.3169 86.1665 84.9186 86.1127C84.5204 86.059 84.1567 85.8572 83.9013 85.5473C83.2694 84.818 82.3541 84.3963 81.3892 84.3906C80.424 84.3952 79.5075 84.8157 78.8748 85.5446C78.6185 85.8542 78.2549 86.0556 77.8563 86.1082C77.4577 86.1607 77.0541 86.0606 76.7264 85.8281C76.5392 85.6977 76.3079 85.647 76.0835 85.6869C75.859 85.7272 75.6595 85.855 75.5291 86.0422L75.5291 86.0422Z" fill="#0E8778"/>
<path d="M58.5526 85.8316C58.2238 86.0629 57.8202 86.1615 57.422 86.1078C57.0234 86.0541 56.6601 85.8519 56.4042 85.542C55.7708 84.8138 54.8544 84.3945 53.8891 84.3906C52.9239 84.3952 52.0074 84.8157 51.3747 85.5446C51.1185 85.8542 50.7548 86.0556 50.3562 86.1082C49.9576 86.1607 49.554 86.0606 49.2264 85.8281C48.8373 85.5557 48.301 85.6501 48.0287 86.0391C47.7563 86.4281 47.8507 86.9641 48.2397 87.2368C48.9122 87.7102 49.7366 87.9166 50.553 87.8153C51.369 87.7144 52.1183 87.3131 52.6549 86.6901C52.9638 86.328 53.4134 86.1162 53.8891 86.1093C54.3667 86.1166 54.8179 86.3299 55.1267 86.6943C55.762 87.4209 56.6786 87.8403 57.6438 87.8467C58.3205 87.8456 58.9811 87.6357 59.5344 87.2452C59.918 86.9713 60.0093 86.4396 59.7392 86.0532C59.4691 85.6669 58.9382 85.5702 58.5496 85.8368L58.5526 85.8316Z" fill="#0E8778"/>
<path d="M41.7202 56.7839C43.4507 57.0681 45.0486 57.888 46.2892 59.1275C47.5296 60.3674 48.3501 61.9649 48.6352 63.6955C48.7031 64.1114 49.0622 64.4167 49.4834 64.4167C49.9047 64.4167 50.2638 64.1114 50.3317 63.6955C50.6163 61.9645 51.4365 60.3663 52.6772 59.1256C53.9176 57.8853 55.5158 57.0652 57.2467 56.7804C57.6603 56.7102 57.963 56.3523 57.963 55.933C57.963 55.5137 57.6603 55.1557 57.2467 55.0855C55.5158 54.8009 53.9176 53.9806 52.6772 52.7403C51.4365 51.4996 50.6164 49.9014 50.3317 48.1705C50.2638 47.7546 49.9047 47.4492 49.4834 47.4492C49.0622 47.4492 48.7031 47.7546 48.6352 48.1705C48.3513 49.9022 47.5315 51.5012 46.2908 52.7427C45.0505 53.9838 43.4515 54.8043 41.7202 55.0891C41.3066 55.1593 41.0039 55.5172 41.0039 55.9365C41.0039 56.3558 41.3066 56.7138 41.7202 56.784V56.7839ZM49.4835 51.1593C50.4813 53.2521 52.1678 54.9385 54.2606 55.9364C52.1678 56.9342 50.4814 58.6207 49.4835 60.7135C48.486 58.6204 46.7996 56.9339 44.7064 55.9364C46.7995 54.939 48.4859 53.2525 49.4835 51.1593Z" fill="#0E8778"/>
<path d="M64.0113 67.4988C62.832 67.305 61.7432 66.7461 60.8981 65.9009C60.053 65.0557 59.4944 63.967 59.3006 62.7877C59.2327 62.3718 58.8736 62.0664 58.4524 62.0664C58.0312 62.0664 57.6717 62.3718 57.6042 62.7877C57.4104 63.9674 56.8515 65.0561 56.006 65.9012C55.1608 66.7464 54.0717 67.305 52.8924 67.4988C52.4777 67.5674 52.1738 67.9261 52.1738 68.3466C52.1738 68.7667 52.4777 69.1254 52.8924 69.194C54.0717 69.3882 55.1609 69.9471 56.006 70.7922C56.8511 71.6374 57.4101 72.7265 57.6042 73.9058C57.6717 74.3217 58.0312 74.6271 58.4524 74.6271C58.8736 74.6271 59.2327 74.3217 59.3006 73.9058C59.4944 72.7265 60.0529 71.6377 60.8981 70.7922C61.7433 69.9471 62.832 69.3881 64.0113 69.194C64.426 69.1254 64.7299 68.7667 64.7299 68.3466C64.7299 67.9261 64.426 67.5674 64.0113 67.4988ZM58.4521 71.2024H58.4525C57.7822 70.0051 56.794 69.0168 55.5967 68.347C56.794 67.6764 57.7823 66.6877 58.4525 65.4904C59.1227 66.6877 60.1109 67.6764 61.3078 68.347C60.1106 69.0168 59.1223 70.0051 58.4525 71.2024H58.4521Z" fill="#0E8778"/>
<path d="M56.326 45.1276C57.5053 45.3218 58.5945 45.8807 59.4396 46.7258C60.2847 47.571 60.8437 48.6601 61.0378 49.8394C61.1053 50.2553 61.4648 50.5607 61.886 50.5607C62.3072 50.5607 62.6663 50.2553 62.7342 49.8394C62.9279 48.6601 63.4865 47.5713 64.3317 46.7258C65.1769 45.8807 66.2656 45.3217 67.4449 45.1276C67.8596 45.059 68.1635 44.7003 68.1635 44.2802C68.1635 43.8597 67.8596 43.501 67.4449 43.4323C66.2656 43.2386 65.1768 42.6796 64.3317 41.8344C63.4866 40.9893 62.928 39.9006 62.7342 38.7212C62.6663 38.3054 62.3072 38 61.886 38C61.4648 38 61.1053 38.3054 61.0378 38.7212C60.844 39.9009 60.2851 40.9897 59.4396 41.8348C58.5944 42.68 57.5053 43.2386 56.326 43.4323C55.9113 43.501 55.6074 43.8597 55.6074 44.2802C55.6074 44.7003 55.9113 45.059 56.326 45.1276V45.1276ZM61.886 41.424C62.5562 42.6213 63.5445 43.61 64.7414 44.2806C63.5441 44.9504 62.5558 45.9387 61.886 47.136C61.2158 45.9387 60.2275 44.9504 59.0302 44.2806C60.2275 43.61 61.2158 42.6213 61.886 41.424Z" fill="#0E8778"/>
<path d="M95.9707 90.0493L91.0528 57.3813C90.9638 56.7694 90.6565 56.2108 90.1881 55.8076C89.7197 55.4044 89.1212 55.1842 88.5032 55.1873H83.1081V53.4686C83.1081 52.2406 82.4528 51.1057 81.3894 50.4916C80.3259 49.8778 79.0154 49.8778 77.952 50.4916C76.8885 51.1058 76.2333 52.2407 76.2333 53.4686V58.6247H69.3585V53.4686C69.3585 52.8544 69.6861 52.287 70.2178 51.9801C70.7495 51.6732 71.4048 51.6732 71.9365 51.9801C72.4682 52.287 72.7959 52.8544 72.7959 53.4686C72.7959 53.9432 73.1807 54.3279 73.6552 54.3279C74.1298 54.3279 74.5146 53.9432 74.5146 53.4686C74.5146 52.2406 73.8593 51.1057 72.7959 50.4916C71.7324 49.8778 70.4219 49.8778 69.3585 50.4916C68.295 51.1058 67.6398 52.2407 67.6398 53.4686V55.1873H60.765C60.2904 55.1873 59.9056 55.5721 59.9056 56.0466C59.9056 56.5212 60.2904 56.906 60.765 56.906H67.6398V64.6401C67.6398 65.1147 68.0246 65.4995 68.4991 65.4995C68.9737 65.4995 69.3585 65.1147 69.3585 64.6401V60.3434H76.2333V64.6401C76.2333 65.1147 76.6181 65.4995 77.0926 65.4995C77.5672 65.4995 77.952 65.1147 77.952 64.6401V56.906H88.5028C88.9283 56.9056 89.29 57.2164 89.3533 57.6372L94.2708 90.2984C94.3061 90.5451 94.2324 90.7948 94.0694 90.9832C93.9059 91.1715 93.6692 91.2797 93.4199 91.2797H43.5776C43.3294 91.2797 43.0935 91.1727 42.93 90.9855C42.767 90.7987 42.6925 90.5504 42.7259 90.3045L46.7572 63.5134C46.7963 63.2859 46.7422 63.0527 46.6068 62.8655C46.4718 62.6783 46.2673 62.5532 46.039 62.5187C45.8112 62.4841 45.5787 62.5428 45.3942 62.6813C45.2096 62.8198 45.0884 63.027 45.0585 63.2556L41.026 90.0556C40.9201 90.7952 41.1407 91.5448 41.6302 92.1095C42.1197 92.6743 42.8303 92.9988 43.5776 92.9988H93.4198C94.1683 92.9988 94.8795 92.6731 95.3691 92.1072C95.8587 91.541 96.0781 90.7902 95.9703 90.0494L95.9707 90.0493ZM77.9518 53.4685C77.9518 52.8543 78.2795 52.287 78.8112 51.98C79.3429 51.6731 79.9982 51.6731 80.5299 51.98C81.0616 52.287 81.3892 52.8544 81.3892 53.4685V55.1872H77.9518V53.4685Z" fill="#0E8778"/>
</svg>
