<svg width="71" height="71" viewBox="0 0 71 71" fill="none" xmlns="http://www.w3.org/2000/svg">
<rect width="71" height="71" rx="10" fill="#0E8778"/>
<path d="M35.0001 12C34.7129 12 34.426 12.0377 34.1462 12.1094H34.1458C34.1455 12.1097 34.1455 12.1097 34.1451 12.1097L17.552 16.4238C16.0515 16.8121 14.996 18.1757 15 19.7264V40.1935C15 46.7517 20.2614 51.3814 24.7241 54.5706C29.205 57.7734 33.617 59.7086 33.6199 59.7101C33.6202 59.7101 33.6202 59.7101 33.6206 59.7104C34.4962 60.0965 35.4943 60.0965 36.3698 59.7104C36.3698 59.709 40.7947 57.7737 45.2759 54.5706C49.738 51.3814 55 46.7518 55 40.1935V19.7263C55 18.1754 53.9481 16.8118 52.4477 16.4238L35.8555 12.1097C35.8551 12.1097 35.8547 12.1097 35.8544 12.1094C35.5734 12.0373 35.2877 12 35.0009 12L35.0001 12ZM35.0001 13.6548C35.1468 13.6548 35.2965 13.6862 35.4406 13.7109H35.441L52.0351 18.025H52.0347C52.0347 18.0254 52.0351 18.0254 52.0355 18.0254C52.8159 18.2286 53.3509 18.9206 53.3487 19.7212V19.7234V40.1924C53.3487 45.8498 48.6591 50.1186 44.3175 53.2218C39.9963 56.31 35.7068 58.1928 35.7068 58.1928C35.7064 58.1932 35.706 58.1936 35.7053 58.1939C35.2529 58.3942 34.7375 58.3942 34.2855 58.1939C34.2852 58.1936 34.2848 58.1936 34.2844 58.1932C34.2844 58.1932 30.0044 56.3101 25.6832 53.2219C21.3409 50.1188 16.6514 45.8498 16.6514 40.1925V19.7235H16.6518V19.7213C16.6499 18.9207 17.1845 18.2276 17.9654 18.0255H17.965C17.9654 18.0255 17.9657 18.0255 17.9661 18.0251L34.5602 13.711H34.5606C34.704 13.6733 34.854 13.6549 35.0008 13.6549L35.0001 13.6548ZM35.0001 17.2329V17.2333C34.9293 17.2344 34.8589 17.2451 34.7907 17.2643L20.777 20.9134C20.4131 21.0084 20.1591 21.3376 20.1591 21.7144V40.1972C20.1591 41.995 21.1044 43.8057 22.4861 45.5466C23.8676 47.2874 25.7216 48.9633 27.7217 50.3927C31.1637 52.8529 33.8381 54.0278 34.6529 54.4046H34.6525C34.8722 54.5062 35.1251 54.5062 35.3449 54.4046C36.1637 54.0259 38.837 52.8506 42.276 50.3927C44.2761 48.9633 46.1306 47.2874 47.512 45.5466C48.8927 43.8061 49.8387 41.9954 49.8387 40.1972V21.7144C49.8387 21.3376 49.5847 21.0084 49.2204 20.9134L35.2067 17.2643C35.1396 17.2455 35.0707 17.2348 35.0006 17.2333L35.0001 17.2329ZM35.0001 18.9154L48.1879 22.3495V40.193C48.1879 41.3749 47.4731 42.9333 46.2199 44.5127C44.9668 46.0917 43.2126 47.687 41.3177 49.0411C38.3067 51.1931 36.0567 52.2502 34.9997 52.7363C33.9445 52.2516 31.6945 51.1945 28.6814 49.0411C26.7864 47.687 25.0326 46.0913 23.7798 44.5127C22.5267 42.9333 21.8115 41.3749 21.8115 40.193V22.3495L35.0001 18.9154ZM40.7588 29.6843V29.6847C40.5398 29.6991 40.336 29.8007 40.1918 29.9662L33.7544 37.3198L30.2914 33.6054C29.9803 33.271 29.4578 33.2529 29.1242 33.5647C28.7909 33.8765 28.7725 34.4 29.0837 34.734L33.1693 39.1161C33.3304 39.2857 33.5553 39.3788 33.7883 39.3729C34.0217 39.3669 34.2414 39.2624 34.3937 39.0851L41.4324 31.0446C41.7333 30.7014 41.6997 30.1786 41.3572 29.8767C41.1928 29.7323 40.9775 29.6591 40.7589 29.6735L40.7588 29.6843Z" fill="white"/>
</svg>
