<svg width="71" height="71" viewBox="0 0 71 71" fill="none" xmlns="http://www.w3.org/2000/svg">
<rect width="71" height="71" rx="10" fill="#0E8778"/>
<path d="M55.7585 34.9261C55.973 34.9538 56.1892 34.9679 56.4055 34.9679C59.172 34.9679 61.4227 32.7277 61.4227 29.9742C61.4227 28.7227 60.9671 27.5518 60.1476 26.6451C60.9671 25.7385 61.4227 24.5676 61.4227 23.3161C61.4227 21.4829 60.4416 19.8424 58.8721 18.9667C58.9 18.7532 58.9141 18.538 58.9141 18.3227C58.9141 15.5692 56.6633 13.3291 53.8968 13.3291C53.8024 13.3291 53.708 13.3319 53.6137 13.3373C52.9208 11.3634 51.0414 10 48.8799 10C47.4041 10 46.019 10.6482 45.0755 11.7392C44.2383 11.1493 43.2424 10.8322 42.1904 10.8322C40.3486 10.8322 38.7003 11.8087 37.8204 13.3708C37.606 13.3431 37.3897 13.329 37.1735 13.329C35.4069 13.329 33.8508 14.2429 32.9565 15.62C32.0969 14.2879 30.633 13.3956 29.0096 13.3326C28.9438 13.3305 28.8776 13.329 28.8114 13.329C27.7595 13.329 26.7635 13.6461 25.9264 14.2357C24.9829 13.1451 23.5978 12.4969 22.122 12.4969C19.9605 12.4969 18.0811 13.8603 17.3882 15.8342C17.2934 15.8284 17.1991 15.8259 17.1047 15.8259C14.3382 15.8259 12.0874 18.0661 12.0874 20.8196C12.0874 21.0349 12.1015 21.2501 12.1294 21.4635C10.5603 22.3393 9.57913 23.9799 9.57913 25.813C9.57913 27.0652 10.0355 28.2364 10.8553 29.1435C9.97582 30.1221 9.51145 31.4157 9.58709 32.7569C9.72415 35.1965 11.6722 37.2103 14.1179 37.4422C14.4948 37.4778 14.8712 37.4717 15.2433 37.4231C16.1235 38.9848 17.7715 39.9614 19.6133 39.9614C20.897 39.9614 22.0698 39.4783 22.958 38.6857V46.2745L21.0565 44.382L19.5098 47.4613L17.9411 45.1192L15.5732 48.6548L16.9647 49.5781L17.9411 48.12L19.7171 50.7712L21.5152 47.1924L23.7942 49.461L25.3365 47.9259L26.3114 49.3815C26.3237 49.5726 26.3494 49.762 26.3874 49.9488L24.6305 49.9484V52.4453C24.6305 55.5382 26.1797 58.2773 28.5463 59.9355H22.5128C23.3091 59.0515 23.7945 57.8842 23.7945 56.6065C23.7945 53.853 21.5437 51.6128 18.7772 51.6128C16.0107 51.6128 13.76 53.853 13.76 56.6065C13.76 57.8842 14.2453 59.0515 15.0416 59.9355H9.57916V61.6002H61.4227V59.9355H58.4689C59.2652 59.0515 59.7505 57.8842 59.7505 56.6065C59.7505 53.853 57.4998 51.6128 54.7333 51.6128C51.9668 51.6128 49.716 53.853 49.716 56.6065C49.716 57.8842 50.2014 59.0515 50.9977 59.9355H39.1116C41.4778 58.2777 43.027 55.5382 43.027 52.4453V49.9484H41.6272L42.4043 47.2406L43.6342 49.6888L45.4059 47.9255L47.0784 50.4224L49.4879 48.0242L50.1793 49.4002L51.7372 48.6249L52.2685 50.2112L53.855 49.6846L52.714 46.2774L50.9272 47.1668L49.9461 45.2139L48.0442 47.1071V36.1891C48.6608 36.7391 49.4148 37.139 50.2477 37.3326C49.9121 37.8512 49.7164 38.4678 49.7164 39.129C49.7164 40.9647 51.2168 42.458 53.0612 42.458C54.9055 42.458 56.4059 40.9647 56.4059 39.129C56.4059 37.8858 55.7174 36.8003 54.7001 36.2286C55.1188 35.8622 55.4783 35.4242 55.759 34.926L55.7585 34.9261ZM15.4326 56.6065C15.4326 54.7708 16.933 53.2774 18.7773 53.2774C20.6217 53.2774 22.1221 54.7708 22.1221 56.6065C22.1221 58.4421 20.6217 59.9355 18.7773 59.9355C16.933 59.9355 15.4326 58.4421 15.4326 56.6065ZM51.3888 56.6065C51.3888 54.7708 52.8893 53.2774 54.7336 53.2774C56.5779 53.2774 58.0783 54.7708 58.0783 56.6065C58.0783 58.4421 56.5779 59.9355 54.7336 59.9355C52.8893 59.9355 51.3888 58.4421 51.3888 56.6065ZM24.6311 46.2754V31.1565L18.3565 27.5878L17.5269 29.033L22.9586 32.1227V34.9687C22.9586 36.8044 21.4582 38.2977 19.6139 38.2977C18.2259 38.2977 17.0025 37.4656 16.4977 36.1777L16.2229 35.4769L15.4945 35.6785C15.0971 35.7886 14.6877 35.8246 14.2766 35.7857C12.6467 35.6313 11.3484 34.2895 11.257 32.6647C11.194 31.5471 11.6924 30.4796 12.5899 29.8083L13.4802 29.1428L12.5903 28.4773C11.7397 27.8413 11.2522 26.8705 11.2522 25.8138C11.2522 24.4324 12.0883 23.2147 13.3823 22.7122L14.0864 22.4387L13.8839 21.7138C13.8021 21.4219 13.7605 21.1213 13.7605 20.8201C13.7605 18.9844 15.2609 17.491 17.1053 17.491C17.3461 17.491 17.5891 17.5177 17.8278 17.5699L18.678 17.7559L18.8306 16.9029C19.1152 15.3149 20.4995 14.162 22.1226 14.162C23.3333 14.162 24.453 14.8167 25.0445 15.8714L25.5996 16.8608L26.3818 16.0373C27.0212 15.3649 27.8841 14.9946 28.812 14.9946C28.8565 14.9946 28.9006 14.9953 28.9451 14.9971C30.4444 15.055 31.7398 16.1957 32.0262 17.7085L32.0468 17.8168C30.1323 18.5425 28.812 20.3925 28.812 22.4848C28.812 23.6568 29.2326 24.7945 29.9819 25.6875C29.7624 26.2569 29.6481 26.8659 29.6481 27.4782C29.6481 27.8072 29.6803 28.1319 29.7429 28.4486L27.9759 29.5039V45.7902C27.499 46.1476 27.1008 46.604 26.813 47.1284L25.5975 45.3136L24.6311 46.2754ZM33.8289 33.3035C32.9067 33.3035 32.1564 32.5566 32.1564 31.6388C32.1564 30.721 32.9068 29.9742 33.8289 29.9742C34.751 29.9742 35.5014 30.721 35.5014 31.6388C35.5014 32.557 34.751 33.3035 33.8289 33.3035ZM33.6622 34.9639C34.1493 35.8065 34.8642 36.4774 35.7101 36.9112C35.0924 37.7714 34.0954 38.2973 32.9927 38.2973C31.1484 38.2973 29.648 36.8039 29.648 34.9682V30.4457L30.3503 30.0263C30.4505 30.1941 30.5615 30.3557 30.6819 30.5119C30.5542 30.8639 30.4841 31.2436 30.4841 31.6392C30.4841 33.419 31.8949 34.8772 33.6622 34.9639ZM41.3548 44.8389L40.4059 48.1445C39.9546 47.5974 39.3655 47.1673 38.6925 46.9053C38.7937 46.5432 38.8465 46.1674 38.8465 45.7877C38.8465 43.4931 36.9711 41.6265 34.6657 41.6265C32.646 41.6265 30.9561 43.0594 30.5684 44.9576C30.5406 44.9573 30.5127 44.9555 30.4845 44.9555C30.1981 44.9555 29.9186 44.9843 29.6484 45.0393V38.6865C30.5366 39.4791 31.7094 39.9622 32.9932 39.9622C34.8357 39.9622 36.484 38.9853 37.3639 37.4232C37.5761 37.4505 37.792 37.4653 38.0101 37.4653C39.2939 37.4653 40.4666 36.9822 41.3548 36.1896L41.3548 44.8389ZM37.0289 46.6234C36.024 46.6576 35.108 47.0463 34.4035 47.6679C34.013 46.6249 33.2137 45.7794 32.2008 45.3234C32.42 44.168 33.4412 43.2908 34.6653 43.2908C36.0485 43.2908 37.174 44.4109 37.174 45.7877C37.174 46.0742 37.1241 46.3567 37.0289 46.6234ZM37.174 48.2845C38.2639 48.2845 39.1933 48.9802 39.5387 49.9491H34.8092C35.1542 48.9801 36.0837 48.2845 37.174 48.2845ZM27.9759 49.1166C27.9759 47.7399 29.1013 46.6197 30.4846 46.6197C31.8679 46.6197 32.9932 47.7398 32.9932 49.1166C32.9932 49.4017 32.9437 49.6832 32.8497 49.9488H28.1202C28.0255 49.6832 27.9759 49.4017 27.9759 49.1166ZM26.3034 51.6135H41.3547V52.4457C41.3547 52.7271 41.3377 53.0047 41.3069 53.2778H26.351C26.3206 53.0043 26.3033 52.7271 26.3033 52.4457L26.3034 51.6135ZM33.8289 59.9359C30.5587 59.9359 27.7706 57.8483 26.7348 54.9422H40.9233C39.8879 57.8487 37.0993 59.9359 33.8291 59.9359H33.8289ZM53.061 40.7941C52.1389 40.7941 51.3885 40.0472 51.3885 39.1294C51.3885 38.2116 52.1389 37.4648 53.061 37.4648C53.9832 37.4648 54.7335 38.2116 54.7335 39.1294C54.7335 40.0473 53.9832 40.7941 53.061 40.7941ZM54.5051 33.6804C54.0002 34.9682 52.7768 35.8004 51.3889 35.8004C49.5446 35.8004 48.0442 34.307 48.0442 32.4713V29.6253L50.6663 28.1337C51.2742 28.7553 52.1229 29.1422 53.061 29.1422C54.9054 29.1422 56.4058 27.6489 56.4058 25.8132C56.4058 23.9775 54.9054 22.4841 53.061 22.4841C51.2167 22.4841 49.7163 23.9775 49.7163 25.8132C49.7163 26.1166 49.7579 26.41 49.8345 26.6896L46.3716 28.6592V46.3672L45.6653 45.313L44.0919 46.8791L43.0269 44.7583V28.6711L38.4399 25.9319L37.5796 27.3594L41.3546 29.6133V32.4712C41.3546 34.3069 39.8542 35.8003 38.0099 35.8003C36.9836 35.8003 36.0383 35.3363 35.4134 34.57C36.4606 34.007 37.1738 32.9042 37.1738 31.639C37.1738 29.8033 35.6734 28.31 33.8291 28.31C33.0306 28.31 32.2964 28.5903 31.7208 29.0572C31.4597 28.5767 31.3205 28.0372 31.3205 27.4774C31.3205 26.9249 31.4521 26.399 31.7121 25.9142L32.0137 25.3509L31.5454 24.9146C30.8608 24.2779 30.484 23.4145 30.484 22.484C30.484 20.906 31.6098 19.5339 33.1604 19.2216L33.8435 19.0841L33.8305 18.3909L33.8287 18.3228C33.8287 16.4872 35.3291 14.9938 37.1735 14.9938C37.4758 14.9938 37.7781 15.0348 38.0714 15.1162L38.7997 15.3177L39.0746 14.6169C39.5794 13.3291 40.8028 12.4969 42.1907 12.4969C43.1186 12.4969 43.9816 12.8673 44.6205 13.54L45.4027 14.3635L45.9578 13.3741C46.5498 12.3195 47.6694 11.6647 48.8801 11.6647C50.5031 11.6647 51.8874 12.8176 52.1717 14.4056L52.3244 15.2586L53.1745 15.0726C53.4136 15.02 53.6566 14.9937 53.8975 14.9937C55.7418 14.9937 57.2422 16.4871 57.2422 18.3228C57.2422 18.6237 57.201 18.9246 57.1192 19.2165L56.9167 19.9414L57.6208 20.215C58.9148 20.7171 59.7505 21.9347 59.7505 23.3161C59.7505 24.3729 59.2626 25.344 58.4121 25.9796L57.5225 26.6451L58.4124 27.3106C59.263 27.9466 59.7505 28.9174 59.7505 29.9741C59.7505 31.8098 58.2501 33.3032 56.4057 33.3032C56.1034 33.3032 55.8011 33.2621 55.5078 33.1808L54.7795 32.9792L54.5051 33.6804ZM51.3889 25.8133C51.3889 24.8954 52.1393 24.1486 53.0614 24.1486C53.9836 24.1486 54.7339 24.8955 54.7339 25.8133C54.7339 26.7311 53.9835 27.4779 53.0614 27.4779C52.1392 27.4776 51.3889 26.7311 51.3889 25.8133Z" fill="white"/>
<path d="M43.2627 17.4887H43.224C42.1311 17.4887 41.1211 17.9379 40.4032 18.7053C39.9378 18.4605 39.408 18.3212 38.8457 18.3212C37.0014 18.3212 35.501 19.8146 35.501 21.6502C35.501 23.4859 37.0014 24.9793 38.8457 24.9793C40.6901 24.9793 42.1905 23.4859 42.1905 21.6502C42.1905 20.9772 41.9879 20.3506 41.6419 19.8261C42.0476 19.4017 42.6128 19.1534 43.2244 19.1534H44.4659L44.8029 18.1462C45.1012 17.255 45.9359 16.6565 46.8798 16.6565H47.2078V14.9922H46.8798C45.2615 14.9922 43.8254 15.9895 43.2627 17.4887ZM38.8457 23.3146C37.9236 23.3146 37.1732 22.5678 37.1732 21.65C37.1732 20.7321 37.9236 19.9853 38.8457 19.9853C39.7679 19.9853 40.5182 20.7322 40.5182 21.65C40.5182 22.5678 39.7678 23.3146 38.8457 23.3146Z" fill="white"/>
<path d="M25.6644 20.8174H26.9058L27.2429 19.8103C27.5416 18.9195 28.3762 18.3209 29.3198 18.3209H29.6478V16.6562H29.3198C27.7018 16.6562 26.2658 17.654 25.7031 19.1531H25.6644C24.5715 19.1531 23.5615 19.6023 22.8437 20.3697C22.3783 20.1246 21.8481 19.9853 21.2861 19.9853C19.4418 19.9853 17.9414 21.4787 17.9414 23.3143C17.9414 25.15 19.4418 26.6434 21.2861 26.6434C23.1305 26.6434 24.6309 25.15 24.6309 23.3143C24.6309 22.6413 24.4284 22.0147 24.0823 21.4902C24.4877 21.0662 25.0532 20.8174 25.6644 20.8174ZM21.2861 24.979C20.3639 24.979 19.6136 24.2321 19.6136 23.3143C19.6136 22.3965 20.364 21.6497 21.2861 21.6497C22.2082 21.6497 22.9586 22.3965 22.9586 23.3143C22.9582 24.2322 22.2078 24.979 21.2861 24.979Z" fill="white"/>
</svg>
