<svg width="71" height="71" viewBox="0 0 71 71" fill="none" xmlns="http://www.w3.org/2000/svg">
<rect width="71" height="71" rx="10" fill="#0E8778"/>
<path d="M22.2787 19.82C21.9358 19.82 21.5927 19.6239 21.3966 19.33C21.1516 18.84 21.2987 18.252 21.7887 18.007L33.1568 11.735C34.9207 10.755 37.0278 10.755 38.7918 11.735L44.6718 14.969C45.1618 15.214 45.3089 15.8019 45.0639 16.2919C44.8189 16.7819 44.231 16.929 43.741 16.684L37.8609 13.45C36.6849 12.8129 35.2638 12.8129 34.088 13.45L22.7689 19.673C22.6219 19.7711 22.426 19.8201 22.2789 19.8201L22.2787 19.82Z" fill="white"/>
<path d="M35.9989 60C35.0189 60 34.0389 59.755 33.1568 59.265L16.0067 49.8569C14.1448 48.8278 12.9688 46.8678 12.9688 44.7119V26.6798C12.9688 26.1408 13.4098 25.6998 13.9488 25.6998C14.4877 25.6998 14.9288 26.1408 14.9288 26.6798V44.6629C14.9288 46.0839 15.7127 47.4069 16.9377 48.0929L34.0878 57.501C35.2639 58.1381 36.6849 58.1381 37.8608 57.501L55.0109 48.0929C56.2848 47.4069 57.0688 46.0839 57.0688 44.6629L57.0689 26.2878C57.0689 25.9449 57.02 25.6018 56.9219 25.2588C56.7748 24.7199 57.0689 24.1809 57.6079 24.0338C58.1469 23.8868 58.6858 24.1809 58.8329 24.7199C58.98 25.2099 59.029 25.7488 59.029 26.2878V44.7119C59.029 46.8679 57.8529 48.8279 55.991 49.8569L38.8409 59.265C37.9588 59.7551 36.9788 60.0001 35.9988 60.0001L35.9989 60Z" fill="white"/>
<path d="M35.9006 28.0524C35.5577 28.0524 35.1656 27.8564 35.0186 27.5134C34.7736 27.0234 34.9696 26.4355 35.4596 26.1905C40.6046 23.7405 46.3377 21.4865 49.9637 20.5065C50.5026 20.3594 51.0416 20.6535 51.1887 21.1925C51.3358 21.7315 51.0416 22.2704 50.5026 22.4175C46.9255 23.3975 41.3886 25.5536 36.2926 28.0036C36.1946 28.0032 36.0475 28.0524 35.9006 28.0524Z" fill="white"/>
<path d="M21.2498 37.1672C21.0048 37.1672 20.7108 37.0693 20.5148 36.8733C20.1227 36.4812 20.1719 35.8443 20.5638 35.5012C22.9648 33.2472 26.5908 30.7971 31.3928 28.2981C31.8828 28.0531 32.4707 28.2492 32.7157 28.6902C32.9607 29.1802 32.7647 29.7681 32.3237 30.0131C27.7667 32.4142 24.1406 34.8151 21.9356 36.9222C21.7397 37.0691 21.4947 37.1672 21.2497 37.1672L21.2498 37.1672Z" fill="white"/>
<path d="M33.7935 35.2555C33.0585 35.2555 32.3235 34.9615 31.7355 34.4225L31.6376 34.3246C31.0986 33.7856 30.8047 33.0506 30.8047 32.2667C30.8047 31.4827 31.0987 30.7477 31.6376 30.2087L32.4216 29.4737C32.8136 29.0817 33.4016 29.0817 33.7937 29.4737L36.6358 32.3158C36.8318 32.5119 36.9297 32.7569 36.9297 33.0019C36.9297 33.2469 36.8318 33.4919 36.6358 33.6879L35.9008 34.4229C35.2635 34.9616 34.5285 35.2556 33.7935 35.2556L33.7935 35.2555ZM33.1074 31.5315L33.0095 31.5804C32.8135 31.7765 32.7155 31.9725 32.7155 32.2665C32.7155 32.5115 32.8135 32.7565 33.0095 32.9525L33.1074 33.0505C33.4504 33.3934 34.0874 33.3934 34.4304 33.0505L34.4793 33.0015L33.1074 31.5315Z" fill="white"/>
<path d="M37.3708 34.5686C36.6358 34.5686 35.9008 34.2746 35.3128 33.7357L30.0698 28.4926C28.9919 29.0805 26.9827 30.1587 25.4148 30.1587C23.4548 30.1587 21.5927 29.4237 20.1227 28.1497C19.7798 27.8557 19.2898 27.6597 18.8488 27.6597H13.9488C13.4098 27.6597 12.9688 27.2187 12.9688 26.6797C12.9688 26.1407 13.4098 25.6997 13.9488 25.6997H18.8488C19.8288 25.6997 20.7109 26.0426 21.4459 26.6797C22.573 27.6597 23.9448 28.1987 25.4638 28.1987C26.5909 28.1987 28.6978 27.1207 29.7268 26.4347C30.1189 26.1897 30.6089 26.2387 30.9518 26.5818L36.7339 32.3638C37.1259 32.7067 37.7139 32.7559 38.0568 32.3638L38.1547 32.2659C38.3508 32.0698 38.4487 31.8248 38.4487 31.5798C38.4487 31.3348 38.3508 31.0898 38.1547 30.8938L38.0568 30.7958C37.6647 30.4038 37.6647 29.7669 38.0078 29.3748L39.7228 27.6598C39.7228 27.6598 40.7029 26.6798 41.4868 25.8958C41.6828 25.6998 41.6828 25.4058 41.4868 25.2098L36.1948 19.9173C36.1458 19.8684 36.0477 19.8194 35.9498 19.8194H22.2787C21.7397 19.8194 21.2987 19.3783 21.2987 18.8394C21.2987 18.3004 21.7397 17.8594 22.2787 17.8594H35.9498C36.5377 17.8594 37.1258 18.1044 37.5669 18.5454L42.8589 23.8864C43.7899 24.8175 43.7899 26.3854 42.8589 27.3165C42.0749 28.1004 41.0949 29.0804 41.0949 29.0804L39.9678 30.2075C40.2128 30.6486 40.3108 31.0896 40.3108 31.5796C40.3108 32.3636 40.0168 33.0986 39.4779 33.6375L39.4287 33.7355C38.8408 34.2744 38.1058 34.5684 37.3708 34.5684L37.3708 34.5686ZM35.9007 28.2475C35.6557 28.2475 35.4107 28.1496 35.2147 27.9536L32.3726 25.1115C31.9805 24.7194 31.9805 24.1315 32.3726 23.7394L34.0876 22.0244C34.2837 21.8283 34.5287 21.7304 34.7737 21.7304C35.0187 21.7304 35.2637 21.8283 35.4597 22.0244L38.3018 24.8665C38.6939 25.2585 38.6939 25.8465 38.3018 26.2386L36.5868 27.9536C36.3908 28.1496 36.1458 28.2475 35.9007 28.2475ZM34.4797 24.4746L35.9007 25.8956L36.1947 25.6017L34.7737 24.1806L34.4797 24.4746Z" fill="white"/>
<path d="M30.9517 32.4117C30.1677 32.4117 29.4327 32.1177 28.8937 31.5788L28.7958 31.4809C28.2569 30.9419 27.9629 30.2069 27.9629 29.4229C27.9629 28.639 28.2569 27.904 28.7958 27.365L29.5798 26.63C29.9718 26.2379 30.5598 26.2379 30.9519 26.63L33.794 29.4721C33.99 29.6681 34.0879 29.9131 34.0879 30.1581C34.0879 30.4031 33.99 30.6481 33.794 30.8442L33.0098 31.5789C32.4709 32.1178 31.7359 32.4118 30.9517 32.4118L30.9517 32.4117ZM30.2658 28.6877L30.2168 28.7367C30.0208 28.9327 29.9229 29.1288 29.9229 29.4227C29.9229 29.6677 30.0208 29.9127 30.2168 30.1088L30.3148 30.2067C30.5108 30.4028 30.7068 30.5007 31.0008 30.5007C31.2458 30.5007 31.4908 30.4028 31.6869 30.2067L31.7358 30.1578L30.2658 28.6877Z" fill="white"/>
<path d="M38.7431 31.0913C38.4981 31.0913 38.2531 30.9933 38.057 30.7973L35.2149 27.9552C34.8229 27.5631 34.8229 26.9752 35.2149 26.5831C35.607 26.191 36.195 26.191 36.587 26.5831L39.4291 29.4252C39.8212 29.8173 39.8212 30.4052 39.4291 30.7973C39.2331 30.9933 38.9881 31.0913 38.7431 31.0913Z" fill="white"/>
<path d="M33.108 31.089C32.863 31.089 32.618 30.9911 32.422 30.795C32.0299 30.403 32.0299 29.815 32.422 29.423C32.814 29.0309 33.4509 29.0309 33.7941 29.423C34.1861 29.815 34.1861 30.403 33.7941 30.795C33.598 30.9911 33.353 31.089 33.108 31.089Z" fill="white"/>
<path d="M41.9774 53.9249H30.2173C29.6783 53.9249 29.2373 53.4838 29.2373 52.9448C29.2373 52.4059 29.6783 51.9648 30.2173 51.9648H41.9774C42.5163 51.9648 42.9574 52.4059 42.9574 52.9448C42.9574 53.4838 42.5165 53.9249 41.9774 53.9249Z" fill="white"/>
<path d="M36.146 53.1886C35.6071 53.1886 35.166 52.7476 35.166 52.2086V44.9566C35.166 44.4176 35.6071 43.9766 36.146 43.9766C36.685 43.9766 37.126 44.4176 37.126 44.9566V52.2086C37.126 52.7474 36.685 53.1885 36.146 53.1885V53.1886Z" fill="white"/>
<path d="M38.3025 45.5938C37.4696 45.5938 36.6854 45.2509 36.0975 44.6628C35.3135 43.8788 34.9704 42.7027 35.2645 41.6248C35.8035 39.6648 36.6366 38.0969 37.8616 36.9208C40.9487 33.8337 45.7507 33.8829 45.9467 33.8829C46.4856 33.8829 46.9267 34.3239 46.9267 34.8629C46.9267 35.0589 46.9267 39.9099 43.8888 42.9479C42.7127 44.124 41.0958 45.0058 39.1847 45.545C38.8416 45.5448 38.5475 45.5938 38.3025 45.5938L38.3025 45.5938ZM44.8686 35.8428C43.4476 35.9899 40.9486 36.5289 39.2336 38.2439C38.3025 39.1749 37.6165 40.4979 37.1756 42.066C37.0777 42.507 37.1756 42.9481 37.4696 43.242C37.7636 43.536 38.2046 43.6831 38.6457 43.536C40.2627 43.095 41.5367 42.4089 42.4678 41.4781C44.1826 39.812 44.7217 37.264 44.8686 35.843L44.8686 35.8428Z" fill="white"/>
<path d="M34.6267 48.5344C34.3817 48.5344 34.1857 48.4854 33.9407 48.4365C32.5196 47.9954 31.3436 47.2604 30.5107 46.2804C28.3057 43.7814 28.3057 39.8614 28.3057 39.7144C28.3057 39.1754 28.7467 38.7344 29.2857 38.7344C29.4327 38.7344 32.9607 38.7344 35.2147 41.2823C36.0476 42.2623 36.6847 43.5363 37.0768 45.1044C37.3218 46.1334 37.0278 47.1623 36.2928 47.8484C35.7539 48.2894 35.2149 48.5344 34.6268 48.5344L34.6267 48.5344ZM30.3147 40.7924C30.4618 41.9194 30.8537 43.7324 31.9318 44.9574C32.5689 45.6924 33.4018 46.1824 34.4797 46.5253C34.5287 46.5253 34.6758 46.5743 34.8718 46.4274C35.0189 46.2803 35.1658 45.9374 35.1168 45.5453C34.8228 44.2713 34.3328 43.2913 33.6958 42.5563C32.7158 41.4292 31.2947 40.9882 30.3147 40.7924Z" fill="white"/>
<path d="M50.2089 22.3679C50.111 22.3679 50.0619 22.3679 49.9639 22.319C49.425 22.1719 49.131 21.6329 49.2779 21.1429C49.3269 20.9958 50.2579 17.5168 53.2958 16.0469C53.7858 15.8019 54.3738 15.9979 54.6188 16.4879C54.8638 16.9779 54.6677 17.5658 54.1777 17.8108C51.9237 18.8888 51.1887 21.5838 51.1887 21.6329C51.0418 22.074 50.6499 22.368 50.2089 22.368L50.2089 22.3679Z" fill="white"/>
<path d="M47.4158 22.4652H47.3179C46.7789 22.4162 46.3868 21.9262 46.4358 21.3872C46.4358 21.2402 46.8278 17.6633 49.6208 15.7032C50.0618 15.4092 50.6987 15.5072 50.9929 15.9482C51.2868 16.3893 51.1889 17.0261 50.7479 17.3203C48.6899 18.7413 48.3958 21.5343 48.3958 21.5343C48.3467 22.1221 47.9058 22.4652 47.4158 22.4652L47.4158 22.4652Z" fill="white"/>
<path d="M44.3775 23.3962C43.8385 23.3962 43.3975 22.9552 43.3975 22.4162C43.3975 22.2691 43.3975 18.6922 45.9946 16.4872C46.3866 16.1442 47.0235 16.1932 47.3666 16.5851C47.7096 16.9772 47.6606 17.6141 47.2687 17.9572C45.3577 19.5743 45.3577 22.3672 45.3577 22.4162C45.3575 22.9552 44.9164 23.3962 44.3775 23.3962Z" fill="white"/>
<path d="M55.2559 24.7682C52.218 24.7682 49.9639 22.6611 49.8659 22.5632C49.4738 22.1711 49.4738 21.5832 49.8169 21.1911C50.209 20.799 50.7969 20.799 51.189 21.1421C51.238 21.1911 53.2961 23.0532 55.7461 22.8082C56.285 22.7592 56.775 23.1511 56.824 23.6903C56.8729 24.2292 56.481 24.7192 55.9419 24.7682H55.2558L55.2559 24.7682Z" fill="white"/>
<path d="M53.1004 26.9253C53.0514 26.9253 53.0514 26.9253 53.1004 26.9253C49.6704 26.7782 47.4654 23.9363 47.3674 23.7893C47.0244 23.3482 47.1224 22.7603 47.5634 22.4172C48.0044 22.0742 48.5924 22.1722 48.9355 22.6132C48.9844 22.6622 50.6995 24.8672 53.1495 24.9653C53.6885 24.9653 54.1295 25.4553 54.0806 25.9943C54.0314 26.5332 53.5904 26.9253 53.1004 26.9253Z" fill="white"/>
<path d="M49.7194 28.2469H49.5723C46.1912 27.7569 44.2803 24.719 44.1823 24.5719C43.8883 24.1309 44.0352 23.494 44.4762 23.1998C44.9173 22.9059 45.5541 23.0528 45.8483 23.4938C45.8973 23.5428 47.3673 25.8949 49.8173 26.2378C50.3563 26.3357 50.7483 26.8257 50.6502 27.3649C50.6014 27.855 50.2094 28.2469 49.7194 28.2469Z" fill="white"/>
<path d="M23.1121 38.5852H23.0141C22.4752 38.5362 22.0831 38.0462 22.1321 37.5072C22.2791 35.7922 23.3571 33.5383 23.3571 33.4401C23.6021 32.9501 24.141 32.7541 24.631 32.9501C25.121 33.1951 25.3171 33.7341 25.121 34.2241C24.876 34.812 24.141 36.527 24.0431 37.6541C24.0431 38.1931 23.6021 38.5852 23.1121 38.5852Z" fill="white"/>
<path d="M19.3878 41.3812C18.6039 41.3812 17.9668 40.7441 17.9668 39.9601C17.9668 39.1761 18.6039 38.5391 19.3878 38.5391C20.1718 38.5391 20.8089 39.1271 20.8089 39.9112C20.8089 40.6952 20.1718 41.3812 19.3878 41.3812Z" fill="white"/>
<path d="M22.0335 44.1724C21.3964 44.1724 20.8574 43.6334 20.8574 42.9964C20.8574 42.3593 21.3964 41.8203 22.0335 41.8203C22.6706 41.8203 23.2095 42.3593 23.2095 42.9964C23.2095 43.6334 22.6706 44.1724 22.0335 44.1724Z" fill="white"/>
</svg>
