<svg width="71" height="71" viewBox="0 0 71 71" fill="none" xmlns="http://www.w3.org/2000/svg">
<rect width="71" height="71" rx="10" fill="#0E8778"/>
<path d="M34.5744 40.8439C34.7166 40.8439 34.8587 40.7902 34.9669 40.6824L36.1198 39.5306C36.3371 39.3137 36.3371 38.9614 36.1202 38.7449C35.9033 38.528 35.551 38.5276 35.3345 38.7445L34.1816 39.8958C33.9643 40.1127 33.9643 40.4651 34.1812 40.6816C34.2902 40.7906 34.4323 40.8439 34.5744 40.8439Z" fill="white"/>
<path d="M34.5744 44.88C34.7166 44.88 34.8587 44.8255 34.9669 44.7173L36.1198 43.5668C36.3371 43.3495 36.3371 42.9975 36.1202 42.7802C35.9033 42.5629 35.551 42.5629 35.3345 42.7798L34.1816 43.9311C33.9643 44.148 33.9643 44.5004 34.1812 44.7177C34.2902 44.8255 34.4323 44.88 34.5744 44.88Z" fill="white"/>
<path d="M34.5744 48.9067C34.7166 48.9067 34.8587 48.8522 34.9669 48.7452L36.1198 47.5934C36.3371 47.3765 36.3371 47.0242 36.1202 46.8069C35.9033 46.5908 35.551 46.59 35.3345 46.8069L34.1816 47.9582C33.9643 48.1751 33.9643 48.5267 34.1812 48.744C34.2902 48.8522 34.4323 48.9067 34.5744 48.9067Z" fill="white"/>
<path d="M29.2011 38.7443C28.9838 38.5275 28.6319 38.5283 28.4146 38.7447C28.1977 38.9616 28.1977 39.314 28.415 39.5305L29.5679 40.6822C29.6761 40.7905 29.8183 40.8438 29.9612 40.8438C30.1037 40.8438 30.2454 40.79 30.3545 40.681C30.5713 40.4641 30.5713 40.1117 30.3541 39.8953L29.2011 38.7443Z" fill="white"/>
<path d="M29.2013 42.7759C28.984 42.559 28.632 42.559 28.4147 42.7763C28.1974 42.9936 28.1978 43.3456 28.4151 43.5628L29.5681 44.7133C29.6763 44.8224 29.8184 44.8761 29.9613 44.8761C30.1039 44.8761 30.2456 44.8216 30.3546 44.7133C30.5715 44.4961 30.5715 44.1437 30.3542 43.9268L29.2013 42.7759Z" fill="white"/>
<path d="M29.2011 46.8072C28.9838 46.5903 28.6319 46.5903 28.4146 46.8072C28.1977 47.0245 28.1977 47.3769 28.415 47.5937L29.5679 48.7455C29.6761 48.8533 29.8183 48.907 29.9612 48.907C30.1037 48.907 30.2454 48.8525 30.3545 48.7443C30.5713 48.527 30.5713 48.175 30.3541 47.9585L29.2011 46.8072Z" fill="white"/>
<path d="M49.1047 39.1185C49.2468 39.1185 49.3889 39.064 49.4972 38.9562L50.6501 37.8048C50.8674 37.5879 50.8674 37.2356 50.6505 37.0183C50.4336 36.8014 50.0813 36.801 49.8648 37.0183L48.7118 38.1688C48.4946 38.3861 48.4946 38.738 48.7114 38.9553C48.8205 39.0644 48.9626 39.1185 49.1047 39.1185Z" fill="white"/>
<path d="M49.1047 43.1532C49.2468 43.1532 49.3889 43.0995 49.4972 42.9908L50.6501 41.8391C50.8674 41.6222 50.8674 41.2706 50.6505 41.0533C50.4336 40.8365 50.0813 40.8365 49.8648 41.0529L48.7118 42.2047C48.4946 42.4207 48.4946 42.7731 48.7114 42.9904C48.8205 43.0986 48.9626 43.1532 49.1047 43.1532Z" fill="white"/>
<path d="M49.1047 47.1767C49.2468 47.1767 49.3889 47.1222 49.4972 47.014L50.6501 45.8635C50.8674 45.6462 50.8674 45.2942 50.6505 45.0769C50.4336 44.86 50.0813 44.8596 49.8648 45.0765L48.7118 46.2279C48.4946 46.4447 48.4946 46.7971 48.7114 47.0144C48.8205 47.1222 48.9626 47.1767 49.1047 47.1767Z" fill="white"/>
<path d="M44.1015 38.9557C44.2106 39.064 44.3519 39.1181 44.494 39.1181C44.6361 39.1181 44.779 39.0636 44.8872 38.9553C45.1041 38.738 45.1041 38.3861 44.8868 38.1688L43.7343 37.0183C43.517 36.801 43.1646 36.8014 42.9478 37.0183C42.7309 37.2356 42.7309 37.5879 42.9482 37.8048L44.1015 38.9557Z" fill="white"/>
<path d="M44.1015 42.9908C44.2097 43.0999 44.3519 43.1532 44.494 43.1532C44.6361 43.1532 44.779 43.0987 44.8872 42.9904C45.1041 42.7731 45.1041 42.4207 44.8868 42.2047L43.7343 41.0529C43.517 40.836 43.1646 40.8369 42.9478 41.0533C42.7309 41.2706 42.7309 41.6226 42.9482 41.8391L44.1015 42.9908Z" fill="white"/>
<path d="M44.1015 47.0146C44.2106 47.1236 44.3519 47.1773 44.494 47.1773C44.6361 47.1773 44.779 47.1228 44.8872 47.0146C45.1041 46.7973 45.1041 46.4449 44.8868 46.228L43.7343 45.0767C43.517 44.8598 43.1646 44.8598 42.9478 45.0771C42.7309 45.2944 42.7309 45.6463 42.9482 45.8636L44.1015 47.0146Z" fill="white"/>
<path d="M22.9135 23.1885C22.9135 23.115 22.8995 23.046 22.8739 22.9819C22.6954 22.3635 22.7743 21.7157 23.0961 21.1556C23.4295 20.5822 23.9702 20.1848 24.6163 20.0361C24.8171 19.9898 24.9757 19.8365 25.029 19.6374C25.0823 19.4383 25.0208 19.2264 24.8692 19.0859C24.3829 18.6357 24.1152 18.0247 24.1152 17.3646C24.1152 16.7119 24.39 16.0823 24.8692 15.6395C25.0208 15.4991 25.0823 15.2867 25.0286 15.0868C24.9749 14.8872 24.8154 14.734 24.6134 14.689C23.9711 14.5444 23.4315 14.147 23.0969 13.572C22.7718 13.0077 22.695 12.3273 22.8875 11.7048C22.9486 11.5077 22.8953 11.2938 22.7495 11.1479C22.6037 11.0021 22.3901 10.9488 22.1935 11.0095C21.5734 11.2004 20.886 11.1231 20.318 10.7956C19.7541 10.4717 19.3468 9.91978 19.1985 9.282C19.1522 9.08165 18.999 8.92302 18.7999 8.87055C18.6016 8.81768 18.3897 8.87882 18.2492 9.02919C17.7985 9.51541 17.1854 9.78268 16.5241 9.78268C15.8698 9.78268 15.2402 9.50838 14.7953 9.02919C14.6556 8.87799 14.4429 8.81727 14.2434 8.87055C14.0438 8.92385 13.891 9.0833 13.8455 9.28449C13.7018 9.91819 13.2941 10.4688 12.7252 10.7965C12.1634 11.1228 11.4756 11.1996 10.8555 11.0092C10.6588 10.9481 10.4444 11.0014 10.2994 11.1472C10.1544 11.293 10.1011 11.5074 10.1614 11.704C10.3531 12.327 10.2759 13.0074 9.94705 13.5712C9.6207 14.138 9.06879 14.5449 8.43381 14.6882C8.23264 14.7336 8.07276 14.8865 8.01906 15.086C7.96577 15.2851 8.02691 15.4975 8.17851 15.6379C8.65813 16.0816 8.93242 16.7104 8.93242 17.3638C8.93242 18.024 8.66474 18.6353 8.17851 19.0852C8.02732 19.2248 7.96577 19.4372 8.01864 19.6359C8.07152 19.835 8.23015 19.9882 8.43092 20.0345C9.06999 20.1824 9.62234 20.5893 9.94701 21.1532C10.28 21.727 10.3556 22.3917 10.161 23.0241C10.0999 23.2207 10.1531 23.4351 10.299 23.5809C10.4448 23.7268 10.6584 23.78 10.8558 23.7189C11.4747 23.5289 12.1641 23.6053 12.7256 23.9279C13.3035 24.263 13.7009 24.8016 13.8459 25.4436C13.8914 25.6448 14.0442 25.8042 14.2437 25.8584C14.4428 25.9121 14.6552 25.8513 14.7956 25.6997C15.2397 25.2214 15.8701 24.9462 16.5245 24.9462C17.1859 24.9462 17.799 25.2139 18.2496 25.6997C18.3562 25.8146 18.5049 25.8774 18.6569 25.8774C18.7048 25.8774 18.7527 25.8708 18.8002 25.8584C18.9994 25.8051 19.1526 25.6464 19.1989 25.4461C19.3476 24.8004 19.7454 24.2618 20.3163 23.9296C20.8843 23.6049 21.5738 23.5285 22.193 23.7193C22.2479 23.7367 22.3054 23.7441 22.3607 23.7441C22.666 23.7433 22.9135 23.4954 22.9135 23.1885ZM22.1332 20.5992C21.799 21.1821 21.6432 21.8476 21.6759 22.5086C21.0137 22.4743 20.3444 22.6329 19.7608 22.9676C19.1696 23.3104 18.7061 23.802 18.4062 24.3924C17.8493 24.033 17.195 23.8351 16.5241 23.8351C15.8507 23.8351 15.1947 24.033 14.6374 24.3928C14.3358 23.8045 13.867 23.306 13.2812 22.966C12.7549 22.6631 12.1572 22.5033 11.5523 22.5033C11.492 22.5033 11.4317 22.5049 11.3718 22.5078C11.4045 21.8456 11.2475 21.1801 10.91 20.598C10.5754 20.0176 10.0767 19.5491 9.48557 19.2468C9.84621 18.6908 10.0445 18.0364 10.0445 17.3647C10.0445 16.6926 9.84663 16.0374 9.48682 15.481C10.0759 15.1794 10.5741 14.7118 10.9095 14.1298C11.247 13.5494 11.4044 12.8839 11.3722 12.2216C12.0361 12.2568 12.7052 12.0948 13.282 11.7602C13.8661 11.4244 14.3354 10.9257 14.6378 10.3371C15.1951 10.6973 15.8511 10.8948 16.5253 10.8948C17.1974 10.8948 17.853 10.6969 18.4102 10.3358C18.7135 10.927 19.1823 11.4248 19.7636 11.759C20.3444 12.094 21.0132 12.2551 21.6775 12.2216C21.6445 12.8826 21.8006 13.5477 22.1365 14.1298C22.4756 14.7126 22.9751 15.1803 23.5633 15.481C23.2031 16.0378 23.0056 16.6926 23.0056 17.3647C23.0056 18.0343 23.2027 18.6879 23.5629 19.2439C22.9697 19.5434 22.4777 20.0073 22.1332 20.5992Z" fill="white"/>
<path d="M16.5236 12.8633C14.0405 12.8633 12.0195 14.8817 12.0195 17.362C12.0195 19.8422 14.04 21.8606 16.5236 21.8606C19.0067 21.8606 21.0268 19.8431 21.0268 17.362C21.0268 14.8817 19.0067 12.8633 16.5236 12.8633ZM16.5236 20.7482C14.6534 20.7482 13.1312 19.2293 13.1312 17.362C13.1312 15.4947 14.6527 13.9757 16.5236 13.9757C18.3938 13.9757 19.9151 15.4947 19.9151 17.362C19.9151 19.2293 18.3937 20.7482 16.5236 20.7482Z" fill="white"/>
<path d="M60.444 61.0389H47.3548V54.6482C49.9074 54.4982 52.288 53.3193 53.9557 51.3607C55.7399 49.2647 56.5116 46.5051 56.0729 43.7889L52.695 22.8697C52.2262 19.9643 49.7463 17.8555 46.7997 17.8555C43.8522 17.8555 41.3732 19.9643 40.9035 22.8697L38.5983 37.1423L36.8443 25.7568C36.4696 23.5128 34.5446 21.8848 32.2676 21.8848C29.9906 21.8848 28.066 23.5132 27.6904 25.7639L24.3852 47.215C24.0311 49.5128 24.6967 51.8435 26.2111 53.6086C27.607 55.2363 29.5879 56.2228 31.7116 56.3702V61.0383H22.9687C22.6618 61.0383 22.4131 61.287 22.4131 61.5939C22.4131 61.9017 22.6618 62.1499 22.9687 62.1499H60.4437C60.7511 62.1499 60.9998 61.9012 60.9998 61.5939C60.9998 61.2874 60.7503 61.0387 60.4437 61.0387L60.444 61.0389ZM42.0004 23.0478C42.383 20.6837 44.4005 18.968 46.799 18.968C49.1975 18.968 51.2151 20.6837 51.5972 23.0478L54.9759 43.967C55.3622 46.361 54.6822 48.7929 53.1092 50.6406C51.6534 52.3505 49.5809 53.3844 47.3551 53.5335V34.5337C47.3551 34.2264 47.1064 33.9777 46.7995 33.9777C46.4917 33.9777 46.2434 34.2264 46.2434 34.5337V53.5335C44.0185 53.3844 41.9451 52.3504 40.4893 50.6406C38.9171 48.7936 38.2358 46.3604 38.6233 43.967L42.0004 23.0478ZM27.0542 52.8853C25.7513 51.3667 25.1788 49.3624 25.4835 47.3852L28.7875 25.9414C29.0717 24.2357 30.5357 22.9981 32.2666 22.9981C33.9975 22.9981 35.4616 24.2357 35.7454 25.9345L38.0212 40.7083L37.5239 43.7892C37.155 46.0725 37.6416 48.3867 38.8668 50.3113C38.0774 53.0704 35.6653 55.0302 32.8228 55.2582V36.2605C32.8228 35.9536 32.5741 35.7049 32.2671 35.7049C31.9598 35.7049 31.7111 35.9544 31.7111 36.2605V55.255C29.9124 55.1092 28.2386 54.266 27.0542 52.8842L27.0542 52.8853ZM32.8232 56.3719C35.8909 56.1612 38.5402 54.2143 39.6712 51.3936C41.3373 53.3319 43.7055 54.4993 46.2433 54.6484V61.0391H32.8231L32.8232 56.3719Z" fill="white"/>
</svg>
