<svg width="136" height="136" viewBox="0 0 136 136" fill="none" xmlns="http://www.w3.org/2000/svg">
<path fill-rule="evenodd" clip-rule="evenodd" d="M93.7001 10.596C99.0348 9.16659 104.518 12.3324 105.948 17.6671L125.411 90.3047C126.84 95.6393 123.674 101.123 118.34 102.552L45.7021 122.015C40.3674 123.445 34.884 120.279 33.4546 114.944L13.9914 42.3067C12.562 36.972 15.7278 31.4886 21.0625 30.0592L93.7001 10.596Z" fill="#C5ECDC"/>
<path fill-rule="evenodd" clip-rule="evenodd" d="M60.9289 7.75857C64.8342 3.85333 71.1658 3.85333 75.0711 7.75857L128.245 60.933C132.151 64.8382 132.151 71.1699 128.245 75.0751L75.0711 128.25C71.1658 132.155 64.8342 132.155 60.9289 128.25L7.75451 75.0751C3.84927 71.1699 3.84926 64.8382 7.75451 60.933L60.9289 7.75857Z" fill="#3E9F93"/>
<path d="M93.2494 49.3292C92.9938 49.2666 92.7239 49.3414 92.5365 49.5266L86.977 55.0783L82.0926 54.2517L81.2509 49.3673L86.8177 43.8078C87.0051 43.6208 87.0814 43.3501 87.0196 43.0931C86.9577 42.8361 86.7662 42.6298 86.5144 42.5487C83.8443 41.6851 80.9487 41.8454 78.3905 42.9979C75.8319 44.1504 73.7932 46.2128 72.6707 48.7847C71.5482 51.3567 71.4219 54.2539 72.3166 56.9135L70.959 58.3016L58.6495 45.9769C56.6916 44.0193 53.8381 43.2545 51.1639 43.9712C48.4894 44.6878 46.4007 46.7765 45.6841 49.451C44.9675 52.1252 45.7322 54.9787 47.6898 56.9366L51.8916 61.1383L59.9918 69.2308L56.9125 72.3101C54.2547 71.4191 51.3606 71.5465 48.7911 72.6671C46.2217 73.7881 44.1601 75.8227 43.0051 78.377C41.85 80.9315 41.6844 83.8234 42.5399 86.4928C42.6196 86.7476 42.8277 86.942 43.0873 87.0038C43.3469 87.066 43.6202 86.9872 43.8065 86.7961L49.3582 81.2292L54.2577 82.0862L55.0843 86.963L49.5174 92.5147H49.5178C49.3326 92.7021 49.2582 92.9721 49.3204 93.2276C49.3812 93.4843 49.5708 93.6913 49.8211 93.7739C50.9555 94.1401 52.1405 94.3271 53.3326 94.3275C56.9645 94.3186 60.3708 92.5651 62.4876 89.6143C64.6048 86.6635 65.1744 82.8749 64.0189 79.4312L70.6479 72.8022L81.3571 83.5115L83.4805 87.4707V87.4703C83.5513 87.6026 83.6594 87.7107 83.7916 87.7814L87.8871 89.9582C87.9967 90.0171 88.1189 90.0486 88.2437 90.049C88.4452 90.0501 88.6389 89.9712 88.7822 89.829L91.5808 87.0226V87.0229C91.8064 86.7785 91.8464 86.4156 91.6794 86.1278L89.5177 82.0853C89.447 81.9534 89.3388 81.8449 89.207 81.7745L85.2326 79.6433L74.5158 68.9189L79.4305 64.0042C82.088 64.8967 84.9822 64.7701 87.5519 63.6491C90.1213 62.5281 92.1829 60.4927 93.3365 57.9378C94.4905 55.3825 94.6538 52.4902 93.7954 49.8212C93.7106 49.5739 93.5043 49.3876 93.2491 49.3283L93.2494 49.3292ZM63.9128 71.0131L53.4918 60.5769L62.2065 51.6804L72.7185 62.2L63.9128 71.0131ZM48.7667 47.0539C49.9336 45.8932 51.5123 45.2418 53.1581 45.2418C54.8038 45.2418 56.3826 45.8933 57.5495 47.0539L61.1065 50.6035L52.4226 59.5152L48.7667 55.8593C47.6009 54.6909 46.9465 53.1074 46.9465 51.4567C46.9465 49.8058 47.6009 48.2226 48.7667 47.0539ZM62.6083 78.6961C62.3813 78.9135 62.312 79.2483 62.4338 79.5379C63.2604 81.7091 63.2875 84.1033 62.5098 86.2927C61.7324 88.4818 60.2011 90.3231 58.1905 91.4866C56.1796 92.6502 53.8206 93.0606 51.5349 92.6436L56.4344 87.7592C56.61 87.5848 56.6892 87.3355 56.647 87.0918L55.6612 81.305H55.6609C55.6083 80.9888 55.3624 80.7395 55.0468 80.6829L49.2066 79.6666C48.963 79.6244 48.7137 79.7037 48.5393 79.8792L43.6702 84.7788C43.2565 82.4864 43.6728 80.1218 44.8449 78.1087C46.0166 76.096 47.8672 74.5661 50.0648 73.7939C52.2624 73.0218 54.6633 73.0574 56.8368 73.895C57.1178 74.0032 57.4363 73.9347 57.6482 73.7206L61.0685 70.3076L63.3439 72.6207H63.3442C63.4865 72.7644 63.6805 72.8451 63.8827 72.8451C64.0849 72.8451 64.2786 72.7644 64.4212 72.6207L67.455 69.5869L69.571 71.703L62.6083 78.6961ZM90.0791 86.3639L88.0693 88.3736L84.7093 86.5686L82.9117 83.2086L84.9141 81.2063L88.2893 83.019L90.0791 86.3639ZM81.9788 81.9876L68.5316 68.5404L70.2533 66.8114L83.7005 80.2965L81.9788 81.9876ZM89.9499 60.2203H89.9502C88.6148 61.5554 86.9213 62.4741 85.074 62.866C83.2272 63.2578 81.3062 63.1056 79.5442 62.4275C79.2631 62.3194 78.9446 62.3879 78.7328 62.6019L73.4767 67.858L71.3606 65.742L74.3944 62.7082C74.5344 62.5667 74.6136 62.3764 74.6144 62.1771C74.6155 61.9757 74.5362 61.782 74.3944 61.6387L72.1191 59.3633L73.8182 57.6494C74.0293 57.4387 74.0974 57.1243 73.9926 56.8454C73.2953 55.0823 73.1245 53.1551 73.5015 51.2972C73.8785 49.4392 74.787 47.7309 76.1161 46.3787C78.3807 44.089 81.6366 43.0765 84.8004 43.679L79.9009 48.5707C79.7276 48.7437 79.6487 48.9892 79.6883 49.2307L80.6894 55.0404C80.746 55.356 80.9953 55.6019 81.3115 55.6545L87.1287 56.6406C87.3702 56.6802 87.6157 56.6014 87.7886 56.428L92.6808 51.5437H92.6804C93.2585 54.7093 92.2367 57.9564 89.9503 60.2203L89.9499 60.2203Z" fill="white"/>
<path d="M52.8386 54.5087C53.7667 54.5105 54.6578 54.1435 55.3151 53.488C55.9724 52.8329 56.342 51.9429 56.3427 51.0149C56.3431 50.0865 55.975 49.1961 55.3184 48.54C54.6621 47.8834 53.7719 47.5152 52.8438 47.5156C51.9153 47.5164 51.0254 47.8863 50.3703 48.5433C49.7148 49.2007 49.3478 50.0917 49.3496 51.0197C49.3518 51.9444 49.7199 52.8307 50.3736 53.4847C51.0276 54.1383 51.9138 54.5068 52.8385 54.5087H52.8386ZM52.8386 49.0403C53.3641 49.0381 53.8689 49.2451 54.2415 49.6154C54.614 49.9857 54.8244 50.4894 54.8259 51.0146C54.827 51.5401 54.6196 52.0444 54.2485 52.417C53.8778 52.7892 53.3742 52.9988 52.8486 52.9992C52.3231 52.9999 51.8191 52.7918 51.4473 52.4203C51.0755 52.0493 50.8666 51.5452 50.8666 51.0198C50.8648 50.495 51.0714 49.9907 51.441 49.6181C51.811 49.2451 52.3135 49.0348 52.8386 49.0326L52.8386 49.0403Z" fill="white"/>
</svg>
