<svg width="64" height="64" viewBox="0 0 64 64" fill="none" xmlns="http://www.w3.org/2000/svg">
<path fill-rule="evenodd" clip-rule="evenodd" d="M38.8974 6.63214C44.2301 5.19571 49.7063 8.35736 51.1288 13.6939L57.4362 37.3574C58.8586 42.694 55.6887 48.1845 50.3559 49.621L26.9038 55.938C21.571 57.3744 16.0948 54.2128 14.6724 48.8763L8.36497 25.2127C6.94254 19.8762 10.1125 14.3856 15.4453 12.9492L38.8974 6.63214Z" fill="#B7DBD7"/>
<path fill-rule="evenodd" clip-rule="evenodd" d="M25.0569 7.69898C28.9519 3.78351 35.2669 3.7835 39.1619 7.69897L56.3621 24.9898C60.2571 28.9052 60.2571 35.2535 56.3622 39.169L39.1619 56.4598C35.2669 60.3753 28.9519 60.3753 25.0569 56.4598L7.8566 39.169C3.96162 35.2535 3.96161 28.9053 7.85659 24.9898L25.0569 7.69898Z" fill="#3E9F93"/>
<path d="M44.7851 22.6875C44.6565 22.656 44.5207 22.6937 44.4264 22.7868L41.6292 25.5801L39.1718 25.1642L38.7483 22.7067L41.5491 19.9096C41.6434 19.8155 41.6818 19.6793 41.6507 19.55C41.6196 19.4207 41.5232 19.3169 41.3965 19.2761C40.0531 18.8416 38.5962 18.9222 37.3091 19.5021C36.0218 20.0819 34.9961 21.1196 34.4313 22.4136C33.8666 23.7076 33.803 25.1653 34.2532 26.5034L33.5701 27.2018L27.3768 21.0009C26.3918 20.016 24.9561 19.6312 23.6106 19.9918C22.265 20.3523 21.2141 21.4032 20.8536 22.7488C20.493 24.0943 20.8778 25.5299 21.8627 26.515L23.9767 28.6291L28.0522 32.7006L26.5029 34.2499C25.1657 33.8016 23.7096 33.8657 22.4168 34.4295C21.1241 34.9935 20.0868 36.0172 19.5057 37.3023C18.9245 38.5876 18.8412 40.0426 19.2717 41.3856C19.3117 41.5138 19.4164 41.6116 19.547 41.6428C19.6777 41.6741 19.8152 41.6344 19.9089 41.5382L22.7021 38.7374L25.1672 39.1685L25.5831 41.6222L22.7822 44.4155H22.7824C22.6893 44.5097 22.6518 44.6456 22.6831 44.7741C22.7137 44.9033 22.8091 45.0074 22.935 45.049C23.5058 45.2332 24.102 45.3273 24.7018 45.3275C26.5291 45.323 28.2429 44.4408 29.3079 42.9561C30.3731 41.4715 30.6597 39.5654 30.0783 37.8328L33.4136 34.4975L38.8017 39.8856L39.8701 41.8777V41.8775C39.9057 41.944 39.9601 41.9984 40.0266 42.034L42.0871 43.1292C42.1423 43.1588 42.2038 43.1747 42.2666 43.1749C42.3679 43.1754 42.4654 43.1357 42.5375 43.0642L43.9456 41.6522V41.6524C44.0591 41.5294 44.0792 41.3468 43.9951 41.202L42.9076 39.1681C42.872 39.1017 42.8176 39.0471 42.7512 39.0117L40.7516 37.9395L35.3596 32.5437L37.8324 30.071C39.1694 30.52 40.6256 30.4563 41.9185 29.8923C43.2112 29.3283 44.2485 28.3042 44.8289 27.0188C45.4095 25.7331 45.4917 24.2779 45.0598 22.9351C45.0171 22.8106 44.9133 22.7169 44.7849 22.6871L44.7851 22.6875ZM30.025 33.5973L24.7819 28.3466L29.1665 23.8705L34.4554 29.1632L30.025 33.5973ZM22.4045 21.5427C22.9916 20.9588 23.7859 20.6311 24.614 20.6311C25.442 20.6311 26.2363 20.9588 26.8234 21.5427L28.6131 23.3287L24.2439 27.8124L22.4045 25.973C21.818 25.3852 21.4887 24.5884 21.4887 23.758C21.4887 22.9273 21.818 22.1308 22.4045 21.5427ZM29.3686 37.4629C29.2544 37.5723 29.2196 37.7407 29.2809 37.8864C29.6967 38.9788 29.7103 40.1834 29.3191 41.285C28.928 42.3864 28.1575 43.3128 27.1459 43.8982C26.1342 44.4836 24.9473 44.6901 23.7973 44.4803L26.2624 42.0228C26.3507 41.935 26.3906 41.8096 26.3693 41.687L25.8734 38.7755H25.8732C25.8467 38.6164 25.723 38.491 25.5643 38.4625L22.6259 37.9512C22.5033 37.93 22.3779 37.9698 22.2901 38.0582L19.8403 40.5233C19.6322 39.3699 19.8416 38.1802 20.4314 37.1674C21.0209 36.1547 21.952 35.385 23.0576 34.9965C24.1633 34.608 25.3713 34.6259 26.4648 35.0473C26.6062 35.1017 26.7665 35.0673 26.8731 34.9596L28.5939 33.2424L29.7387 34.4062H29.7389C29.8105 34.4785 29.9081 34.5191 30.0098 34.5191C30.1116 34.5191 30.209 34.4785 30.2808 34.4062L31.8071 32.8798L32.8718 33.9444L29.3686 37.4629ZM43.19 41.3208L42.1788 42.3319L40.4883 41.4238L39.5839 39.7333L40.5913 38.7258L42.2895 39.6379L43.19 41.3208ZM39.1145 39.119L32.3488 32.3533L33.2151 31.4833L39.9807 38.2681L39.1145 39.119ZM43.125 28.1672H43.1252C42.4533 28.8389 41.6012 29.3011 40.6718 29.4983C39.7426 29.6954 38.7761 29.6188 37.8896 29.2777C37.7482 29.2233 37.5879 29.2577 37.4813 29.3654L34.8368 32.0099L33.7722 30.9453L35.2986 29.4189C35.369 29.3477 35.4089 29.252 35.4093 29.1517C35.4098 29.0503 35.3699 28.9529 35.2986 28.8808L34.1538 27.736L35.0087 26.8737C35.1149 26.7677 35.1492 26.6095 35.0964 26.4692C34.7456 25.5821 34.6597 24.6124 34.8494 23.6777C35.039 22.7429 35.4961 21.8834 36.1648 21.2031C37.3042 20.051 38.9423 19.5416 40.5342 19.8447L38.0691 22.3059C37.9819 22.3929 37.9422 22.5165 37.9621 22.638L38.4658 25.561C38.4943 25.7198 38.6197 25.8435 38.7788 25.87L41.7056 26.3661C41.8271 26.3861 41.9506 26.3464 42.0376 26.2592L44.499 23.8017H44.4988C44.7897 25.3944 44.2756 27.0281 43.1252 28.1672L43.125 28.1672Z" fill="white"/>
<path d="M24.4532 25.2918C24.9201 25.2928 25.3684 25.1081 25.6991 24.7783C26.0299 24.4487 26.2158 24.001 26.2162 23.534C26.2164 23.0669 26.0312 22.619 25.7008 22.2888C25.3706 21.9585 24.9227 21.7732 24.4558 21.7734C23.9886 21.7738 23.5409 21.96 23.2113 22.2905C22.8815 22.6212 22.6969 23.0695 22.6978 23.5365C22.6989 24.0017 22.8841 24.4476 23.213 24.7766C23.542 25.1055 23.9879 25.2909 24.4531 25.2918H24.4532ZM24.4532 22.5405C24.7176 22.5394 24.9715 22.6436 25.159 22.8299C25.3464 23.0162 25.4523 23.2696 25.453 23.5338C25.4536 23.7982 25.3492 24.052 25.1625 24.2395C24.976 24.4267 24.7226 24.5322 24.4582 24.5324C24.1938 24.5327 23.9402 24.428 23.7532 24.2411C23.5661 24.0544 23.461 23.8009 23.461 23.5365C23.4601 23.2725 23.564 23.0187 23.75 22.8312C23.9361 22.6436 24.189 22.5378 24.4532 22.5367L24.4532 22.5405Z" fill="white"/>
</svg>
