<svg width="71" height="71" viewBox="0 0 71 71" fill="none" xmlns="http://www.w3.org/2000/svg">
<rect width="71" height="71" rx="10" fill="#0E8778"/>
<path d="M14.4337 55.2846C14.4337 55.6791 14.1127 55.9989 13.7168 55.9989C13.321 55.9989 13 55.6791 13 55.2846C13 54.8902 13.321 54.5703 13.7168 54.5703C14.1127 54.5703 14.4337 54.8902 14.4337 55.2846Z" fill="white"/>
<path d="M55.5018 48.8879C55.1997 48.7964 54.873 48.9125 54.6973 49.1736C54.6099 49.305 54.4586 49.5308 54.2723 49.8245C54.3283 47.605 54.569 45.3959 54.5728 45.3624C54.608 45.0391 54.4199 44.7329 54.1149 44.6172C53.8099 44.5017 53.4649 44.606 53.2758 44.871C52.2393 46.3152 51.3154 47.8366 50.5118 49.4217C49.6881 48.0011 48.4775 46.842 47.0201 46.0786C46.8992 46.0187 46.7635 45.9938 46.6288 46.0072C46.0134 45.4619 45.2975 45.0403 44.5211 44.7668C44.4475 43.8302 44.1649 42.9223 43.6938 42.1086C43.497 41.7665 43.0592 41.6479 42.7156 41.8436C42.3719 42.0397 42.2528 42.4763 42.4496 42.8187C42.761 43.3592 42.9658 43.9543 43.0532 44.5717H31.6378V40.2859H38.0894C38.4852 40.2859 38.8062 39.9661 38.8062 39.5716C38.8062 39.1772 38.4852 38.8573 38.0894 38.8573H28.7705V36.7145C28.7705 36.1462 28.5439 35.6009 28.1407 35.1992C27.7374 34.7975 27.1902 34.5717 26.62 34.5717H25.843L23.4057 19.0157C23.2748 18.1748 22.846 17.4083 22.197 16.8549C21.548 16.3016 20.7214 15.9985 19.8673 16H15.1505C14.5809 16.0029 14.0356 16.2296 13.633 16.6308C13.2305 17.0319 13.0029 17.5752 13 18.1428C13 18.7111 13.2266 19.2564 13.6298 19.6581C14.0331 20.0598 14.5803 20.2857 15.1505 20.2857H18.8301L19.7661 26.8156C19.8222 27.2063 20.1857 27.478 20.5777 27.4221C20.7659 27.3954 20.9358 27.2949 21.0501 27.1434C21.1643 26.9917 21.2133 26.8013 21.1864 26.6135L20.1684 19.5191V17.4556C20.6244 17.5185 21.0481 17.7261 21.3764 18.0478C21.7048 18.3692 21.9202 18.7879 21.9906 19.2414L24.3914 34.5712H22.3246L22.0043 32.3276C21.9483 31.937 21.5851 31.6653 21.1931 31.7208C20.801 31.7766 20.5284 32.1382 20.5841 32.5291L20.8759 34.5713H16.5842C16.0139 34.5713 15.4666 34.797 15.0635 35.1988C14.6603 35.6006 14.4337 36.1459 14.4337 36.7141V38.8569H13.7168C13.321 38.8569 13 39.1768 13 39.5712V43.857C13 44.0464 13.0755 44.2281 13.2099 44.3621C13.3443 44.496 13.5267 44.5713 13.7168 44.5713H14.4337V48.1427C14.4337 48.7109 14.6602 49.2562 15.0635 49.658C15.4667 50.0597 16.014 50.2855 16.5842 50.2855H18.7347V52.4284C18.7372 53.2036 18.9958 53.9568 19.4701 54.5712H16.5841C16.1883 54.5712 15.8673 54.8911 15.8673 55.2855C15.8673 55.68 16.1883 55.9998 16.5841 55.9998H55.2934C55.4835 55.9998 55.6659 55.9246 55.8003 55.7906C55.9347 55.6567 56.0103 55.4749 56.0103 55.2855V49.5712C56.0103 49.2565 55.8035 48.9791 55.5014 48.8876L55.5018 48.8879ZM14.4339 18.1433C14.4336 17.9507 14.5133 17.7664 14.6541 17.6341C14.7847 17.5014 14.9642 17.4274 15.1508 17.429H18.7349V18.8576H15.1508C14.7549 18.8576 14.4339 18.5378 14.4339 18.1433ZM54.5769 54.572H53.3247C53.6786 53.7117 54.0975 52.8791 54.5769 52.0812V54.572ZM52.8757 52.1842C52.4452 52.9422 52.0939 53.7423 51.8279 54.572H51.6778C51.7694 53.4164 51.634 52.254 51.2794 51.1498C51.7623 50.0787 52.308 49.0369 52.9137 48.0299C52.8184 49.4126 52.8059 50.8 52.8757 52.1842ZM49.5273 50.5984C50.1187 51.835 50.3632 53.2082 50.2358 54.572H47.7986C47.9474 54.19 48.0709 53.7987 48.1682 53.4004C48.5356 51.8325 48.5209 50.1995 48.1253 48.6383C48.6997 49.2087 49.1737 49.8713 49.5273 50.5984ZM44.5226 54.572C44.8483 54.1514 45.0752 53.6632 45.1856 53.1434H46.7534C46.6248 53.6351 46.4497 54.1135 46.2308 54.572H44.5226ZM25.8315 53.1434H38.1611C38.2715 53.6632 38.4981 54.1514 38.8242 54.572H25.1674C25.4935 54.1517 25.7204 53.6632 25.8311 53.1434H25.8315ZM39.5227 52.4291C39.5227 51.8609 39.7493 51.3156 40.1525 50.9139C40.5557 50.5122 41.103 50.2863 41.6732 50.2863C42.2434 50.2863 42.7907 50.5121 43.1939 50.9139C43.597 51.3157 43.8237 51.861 43.8237 52.4291C43.8237 52.9973 43.5971 53.5427 43.1939 53.9444C42.7906 54.3461 42.2434 54.572 41.6732 54.572C41.103 54.572 40.5557 54.3462 40.1525 53.9444C39.7494 53.5426 39.5227 52.9973 39.5227 52.4291ZM15.867 36.7148C15.867 36.3204 16.188 36.0005 16.5839 36.0005H26.6196C26.8097 36.0005 26.9921 36.0758 27.1265 36.2097C27.2609 36.3436 27.3364 36.5254 27.3364 36.7148V38.8577H15.867V36.7148ZM14.4333 40.2862H30.2038V45.2863C30.2038 45.4757 30.2793 45.6574 30.4137 45.7914C30.5481 45.9253 30.7306 46.0005 30.9206 46.0005H43.705L43.9779 46.0927H43.9782C44.9232 46.4052 45.7527 46.9932 46.3589 47.7805C46.8402 49.034 47.0488 50.3749 46.9717 51.7148H45.1854C44.9642 50.63 44.2509 49.7085 43.2537 49.2202C42.2569 48.732 41.0888 48.732 40.092 49.2202C39.0948 49.7084 38.3815 50.63 38.1603 51.7148H25.8307C25.6643 50.9087 25.2243 50.1842 24.5842 49.6638C23.9445 49.1434 23.1442 48.8586 22.3182 48.8577C21.5402 48.8602 20.7843 49.1179 20.1677 49.5905V43.8576C20.1677 43.6682 20.0922 43.4865 19.9577 43.3525C19.8233 43.2186 19.6409 43.1434 19.4508 43.1434H14.433L14.4333 40.2862ZM16.5839 48.8577C16.188 48.8577 15.867 48.5379 15.867 48.1434V44.572H18.7344V48.8577H16.5839ZM20.1681 52.4291C20.1681 51.8609 20.3946 51.3156 20.7978 50.9139C21.2011 50.5122 21.7483 50.2863 22.3185 50.2863C22.8887 50.2863 23.4361 50.5121 23.8392 50.9139C24.2424 51.3157 24.469 51.861 24.469 52.4291C24.469 52.9973 24.2424 53.5427 23.8392 53.9444C23.436 54.3461 22.8887 54.572 22.3185 54.572C21.7483 54.572 21.201 54.3462 20.7978 53.9444C20.3947 53.5426 20.1681 52.9973 20.1681 52.4291Z" fill="white"/>
<path d="M42.2162 33.1223C42.2392 33.128 44.5424 33.7323 44.5424 35.2865C44.5424 35.681 44.8634 36.0008 45.2593 36.0008C45.6551 36.0008 45.9761 35.681 45.9761 35.2865C45.9761 32.6166 42.7052 31.7709 42.5653 31.7365C42.1813 31.6405 41.7919 31.873 41.6955 32.2556C41.5992 32.6383 41.8322 33.0263 42.2162 33.1223Z" fill="white"/>
<path d="M49.5599 36.713C49.5599 37.1074 49.8809 37.4272 50.2767 37.4272C50.6726 37.4272 50.9936 37.1074 50.9936 36.713C50.9501 35.6119 50.6819 34.5309 50.2051 33.5366C50.0284 33.1833 49.5977 33.0398 49.2431 33.2158C48.8885 33.3918 48.7445 33.8211 48.9212 34.1744C49.3001 34.9703 49.517 35.8331 49.5599 36.713Z" fill="white"/>
<path d="M44.541 39.5737C44.541 39.7631 44.6166 39.9449 44.751 40.0788C44.8854 40.2127 45.0678 40.288 45.2579 40.288C46.1565 40.4296 46.985 40.8578 47.6193 41.508C47.9006 41.7784 48.3476 41.7742 48.6242 41.4984C48.9003 41.2229 48.9039 40.7774 48.6322 40.4971C48.4645 40.33 46.9403 38.8594 45.2579 38.8594C44.862 38.8594 44.541 39.1792 44.541 39.5737Z" fill="white"/>
<path d="M52.3956 41.7142C52.7531 41.9862 53.0366 42.343 53.2206 42.7521C53.3988 43.1048 53.8305 43.247 54.1845 43.0694C54.5388 42.8918 54.6815 42.462 54.5032 42.1092C54.2917 41.6848 53.5032 40.2891 52.4279 40.2891C52.0286 40.2865 51.7015 40.6054 51.6954 41.0034C51.6922 41.1905 51.7642 41.3714 51.8961 41.505C52.0276 41.6386 52.2078 41.7139 52.3956 41.7142Z" fill="white"/>
<path d="M22.3184 46.0006H28.0531C28.2432 46.0006 28.4256 45.9253 28.56 45.7914C28.6944 45.6575 28.77 45.4757 28.77 45.2863V42.4291C28.77 42.2397 28.6944 42.058 28.56 41.924C28.4256 41.7901 28.2432 41.7148 28.0531 41.7148H22.3184C21.9225 41.7148 21.6016 42.0347 21.6016 42.4291V45.2863C21.6016 45.4757 21.6771 45.6575 21.8115 45.7914C21.9459 45.9253 22.1283 46.0006 22.3184 46.0006ZM23.0352 43.1434H27.3363V44.572H23.0352V43.1434Z" fill="white"/>
<path d="M41.6739 40.2846C41.6739 40.6791 41.3529 40.9989 40.9571 40.9989C40.5612 40.9989 40.2402 40.6791 40.2402 40.2846C40.2402 39.8902 40.5612 39.5703 40.9571 39.5703C41.3529 39.5703 41.6739 39.8902 41.6739 40.2846Z" fill="white"/>
<path d="M21.6036 29.5737C21.6036 29.9681 21.2826 30.288 20.8868 30.288C20.4909 30.288 20.1699 29.9681 20.1699 29.5737C20.1699 29.1792 20.4909 28.8594 20.8868 28.8594C21.2826 28.8594 21.6036 29.1792 21.6036 29.5737Z" fill="white"/>
</svg>
