<svg width="71" height="71" viewBox="0 0 71 71" fill="none" xmlns="http://www.w3.org/2000/svg">
<rect width="71" height="71" rx="10" fill="#0E8778"/>
<path d="M20.4328 22.7897C20.4042 22.5421 20.471 22.2937 20.634 22.0928C20.7874 21.8924 21.0168 21.7588 21.2661 21.7299C21.8024 21.6634 22.2716 22.0453 22.3387 22.5603C22.3423 22.5905 22.3391 22.6206 22.3399 22.6503C22.3475 23.138 21.9929 23.5663 21.5054 23.6297H21.381C20.9317 23.6297 20.5453 23.3175 20.4515 22.8769C20.4455 22.8484 20.4364 22.8202 20.4328 22.7897ZM17.0137 33.1371C17.0137 33.6612 17.4447 34.0911 17.9719 34.0911C18.4986 34.0911 18.9292 33.6612 18.9292 33.1371C18.9292 32.6117 18.4982 32.1823 17.9719 32.1823C17.4447 32.1823 17.0137 32.6117 17.0137 33.1371ZM44.5902 36.0003V38.8639C44.5902 39.3909 44.1608 39.8187 43.632 39.8187H37.8852C37.3565 39.8187 36.9271 39.3909 36.9271 38.8639V36.0003C36.9271 33.8949 38.6462 32.1822 40.7585 32.1822C42.872 32.1822 44.5902 33.8953 44.5902 36.0003ZM38.8433 37.9091H42.6751V36.0003C42.6751 34.9472 41.8163 34.0915 40.7588 34.0915C39.702 34.0915 38.8433 34.9481 38.8433 36.0003V37.9091ZM31.9607 34.8529C32.076 35.2154 32.1384 35.6009 32.1384 36.0002V38.8634C32.1384 39.3904 31.709 39.8182 31.1803 39.8182H25.4338C24.9051 39.8182 24.4757 39.3904 24.4757 38.8634V36.0002C24.4757 34.1504 25.8032 32.6048 27.558 32.2566C27.8001 32.2083 28.0506 32.1821 28.307 32.1821C28.7042 32.1821 29.0878 32.2427 29.4489 32.3553C30.1959 32.5882 30.8423 33.0446 31.3159 33.6441C31.5989 34.0014 31.8203 34.4092 31.9607 34.8529ZM26.3915 36.3778V37.9091H30.2229V36.0003C30.2229 35.9575 30.2194 35.9155 30.2166 35.8735C30.1506 34.8795 29.3205 34.0911 28.307 34.0911C27.2503 34.0911 26.3916 34.9476 26.3916 35.9999L26.3915 36.3778ZM47.4635 51.273V55.0912H49.3789L49.3793 53.1819C49.3793 52.655 49.8079 52.2271 50.3374 52.2271C50.8662 52.2271 51.2948 52.655 51.2948 53.1819V55.0908H53.2102C53.2102 54.5638 53.6396 54.1367 54.1683 54.1367C54.6971 54.1367 55.1265 54.5638 55.1265 55.0908H57.0423C57.5711 55.0908 57.9997 55.5178 57.9997 56.0456C57.9997 56.5725 57.5711 56.9996 57.0423 56.9996H42.6755L36.9278 57H12.9573C12.4286 57 12 56.5729 12 56.046C12 55.5191 12.4286 55.0912 12.9581 55.0912H15.8564V54.1371C15.8564 53.6102 16.285 53.1823 16.8138 53.1823C17.3425 53.1823 17.7711 53.6094 17.7711 54.1371V55.0912H19.6866L19.6873 53.1819C19.6873 52.655 20.1167 52.2271 20.6455 52.2271C20.7155 52.2271 20.7834 52.2358 20.8494 52.2497C21.2728 52.3416 21.5905 52.7121 21.6012 53.159C21.6016 53.1669 21.6036 53.1736 21.6036 53.1815H21.604V55.0903H23.5195V54.1363C23.5195 53.6094 23.948 53.1815 24.4768 53.1815C25.0056 53.1815 25.4349 53.6086 25.4349 54.1363V55.0903H29.2663V50.3182L26.5926 50.319H12.982C12.4532 50.319 12.0239 49.8911 12.0239 49.3642C12.0239 48.8372 12.4532 48.4094 12.982 48.4094H20.6443V46.1043C19.9346 46.3646 19.1812 46.5001 18.4219 46.5001C14.8975 46.5001 12.0243 43.6369 12.0243 40.1238C12.0243 38.4443 12.6854 36.8687 13.8726 35.6663C13.4515 34.7883 13.2309 33.8529 13.2309 32.8882C13.2309 30.9314 14.1119 29.1089 15.6544 27.8961C15.6922 26.3502 16.2961 24.8796 17.35 23.7437C17.6848 23.3717 18.3264 23.3428 18.7002 23.6863C18.7224 23.7061 18.7395 23.7295 18.7594 23.7516C18.9109 23.9165 18.9984 24.1253 19.0067 24.3451C19.0162 24.6031 18.9296 24.8507 18.7578 25.0317C17.9917 25.8625 17.5707 26.9405 17.5707 28.0574C17.5707 28.0864 17.5802 28.1529 17.5993 28.3054C17.6188 28.6398 17.4558 28.9734 17.168 29.1545C15.9037 29.9849 15.1468 31.3882 15.1468 32.8866C15.1468 33.7555 15.4056 34.6053 15.8938 35.3307C16.1713 35.7503 16.0755 36.3042 15.6831 36.6096C14.5715 37.4785 13.9402 38.757 13.9402 40.1227C13.9402 42.5759 15.9613 44.5897 18.4223 44.5897C19.2047 44.5897 19.9653 44.3908 20.6447 44.0057L20.6443 41.3512C20.4686 41.5782 20.1963 41.7284 19.8874 41.7284C19.3606 41.7284 18.9292 41.2985 18.9292 40.7736C18.9292 40.2482 19.3602 39.8196 19.8874 39.8196C20.1959 39.8196 20.4686 39.9689 20.6443 40.1967V30.2742H19.6862C19.287 30.2742 18.93 30.0277 18.7897 29.6549C18.6493 29.2829 18.7555 28.8633 19.0552 28.6006L24.2482 24.0722C24.177 23.9676 24.1258 23.8484 24.1019 23.7156C24.0518 23.4969 24.094 23.2798 24.1949 23.0805C24.2085 23.054 24.22 23.0259 24.2359 22.9993C24.5233 22.5798 25.1364 22.4553 25.5665 22.7319C25.6075 22.7592 25.6444 22.7909 25.685 22.8187L34.3802 15.2368C34.7507 14.9131 35.3057 14.9226 35.6643 15.2574L43.6686 22.7021C44.9861 20.3864 47.4808 18.8199 50.3377 18.8199C54.5627 18.8199 58 22.2453 58 26.4557C58 30.666 54.5627 34.0914 50.3377 34.0914C49.6766 34.0914 49.0349 34.0074 48.4223 33.8501L48.4219 41.209C48.9828 40.9313 49.6102 40.7732 50.273 40.7732C52.3527 40.7732 54.0904 42.3045 54.4736 44.3258C55.9498 44.7252 57.0423 46.1047 57.0423 47.741C57.0423 47.97 57.0188 48.1926 56.9783 48.4089H57.0423C57.5711 48.4089 57.9996 48.836 57.9996 49.3638C57.9996 49.8907 57.5711 50.3186 57.0423 50.3186H53.5938H48.4215H47.4633L47.4635 51.273ZM41.7166 48.4094H37.8852V55.0912H41.7166V48.4094ZM42.464 46.5006L42.0812 44.5918H37.5215L37.1386 46.5006H42.464ZM43.6324 55.0912H45.5479V49.3642C45.5479 49.3246 45.5554 49.2866 45.5598 49.2473C45.6179 48.7759 46.017 48.4094 46.506 48.4094V33.0639C45.3463 32.3935 44.3783 31.4292 43.7051 30.2735H32.1382C31.9052 30.2735 31.6941 30.1871 31.5283 30.0496C31.3943 29.9383 31.2922 29.7925 31.2349 29.6241C31.2019 29.5274 31.18 29.426 31.18 29.3186C31.18 29.0068 31.3323 28.7327 31.5641 28.5588C31.7243 28.4383 31.9215 28.3646 32.1382 28.3646H41.1125L34.9796 22.9313L29.6649 27.1678L28.8208 27.8409L27.9124 28.5656L26.0323 30.0643C25.8625 30.2002 25.6514 30.2735 25.4343 30.2735H22.5608V48.4082H24.4762V46.4994C24.4762 46.4951 24.4766 46.4907 24.4766 46.4863C24.4778 46.1591 24.5243 45.8429 24.6038 45.5395C24.6261 45.4539 24.6499 45.3691 24.6778 45.2863C24.7668 45.0228 24.8845 44.7728 25.0264 44.5383C25.197 44.2566 25.401 43.9971 25.6359 43.7681C25.917 43.4955 26.2402 43.2673 26.5932 43.0894C27.1097 42.8303 27.6909 42.6809 28.3072 42.6809C29.8664 42.6809 31.2094 43.616 31.8066 44.9511C31.9485 45.2677 32.0459 45.6064 32.096 45.9614C32.121 46.1373 32.1389 46.316 32.1389 46.4986V49.3623C32.1389 49.8892 31.7096 50.3171 31.1808 50.3171V55.0892H35.9703L35.9699 48.4087C35.6825 48.4087 35.4109 48.2807 35.2289 48.0592C35.0472 47.8382 34.974 47.5474 35.0305 47.2669L35.7966 43.4487C35.886 43.003 36.2788 42.6813 36.736 42.6813H42.8665C43.3229 42.6813 43.7161 43.0022 43.8059 43.4487L44.0954 44.8901L44.3132 45.9744L44.5724 47.2664C44.6289 47.5469 44.5557 47.8377 44.3741 48.0587C44.2107 48.258 43.9733 48.3761 43.7185 48.3991C43.6899 48.4015 43.662 48.4082 43.633 48.4082V55.0903L43.6324 55.0912ZM26.3914 48.4094H30.2224V46.5006C30.2224 46.4978 30.222 46.4954 30.222 46.4927C30.2204 46.1167 30.1087 45.7669 29.9183 45.4721C29.6686 45.0855 29.2838 44.7947 28.8298 44.6655C28.6632 44.6184 28.4883 44.5918 28.307 44.5918C28.1173 44.5918 27.9337 44.6207 27.7603 44.6718C27.2487 44.824 26.8272 45.1841 26.593 45.6532C26.5092 45.8208 26.4499 46.0018 26.4185 46.1928C26.4018 46.2934 26.3911 46.3957 26.3911 46.5007L26.3914 48.4094ZM27.0784 24.1425L26.3596 24.7689L23.3047 27.4329L22.6773 27.9801L22.2356 28.3652H25.0973L26.4371 27.2967L27.2748 26.6287L28.0782 25.9881L29.2324 25.0681L34.4126 20.9382C34.452 20.9065 34.4941 20.8803 34.5371 20.8558C34.6055 20.8166 34.6778 20.7876 34.7526 20.7666C34.7669 20.7627 34.7812 20.7599 34.7955 20.7563C34.8702 20.7393 34.9458 20.7286 35.0217 20.7298C35.0241 20.7298 35.0261 20.7294 35.0285 20.7294C35.106 20.731 35.1835 20.7441 35.2587 20.7647C35.2742 20.7686 35.2889 20.7734 35.3044 20.7777C35.3783 20.8015 35.4515 20.8328 35.5199 20.8756C35.5644 20.9033 35.6077 20.9342 35.6483 20.9703L40.0199 24.8427L42.7134 27.2289C42.69 26.9947 42.678 26.7574 42.6765 26.5185C42.6761 26.4975 42.6749 26.4769 42.6749 26.4567C42.6749 26.1093 42.7007 25.7677 42.7456 25.4333C42.7838 25.1517 42.8359 24.8743 42.9043 24.6037L34.9915 17.2429L27.0784 24.1425ZM44.7764 25.0379C44.6814 25.4072 44.623 25.7899 44.6047 26.1837C44.6003 26.2744 44.5912 26.3644 44.5912 26.4563C44.5912 26.505 44.5967 26.5522 44.5987 26.6005C44.6094 27.026 44.6683 27.4389 44.7669 27.8359C44.8118 28.0157 44.8651 28.192 44.9263 28.3652C45.0456 28.6988 45.1923 29.0177 45.3684 29.3192C45.3763 29.3335 45.3855 29.3469 45.3942 29.3608C45.5878 29.6881 45.8137 29.9931 46.0669 30.274C46.2053 30.4281 46.3524 30.5743 46.507 30.7126C46.8012 30.9757 47.1209 31.2094 47.4644 31.4083C47.7677 31.5834 48.0873 31.7308 48.4225 31.8489C49.0228 32.0612 49.6657 32.1829 50.3379 32.1829C53.507 32.1829 56.0848 29.614 56.0848 26.4559C56.0848 25.8113 55.9727 25.1941 55.7747 24.6153L51.2941 29.0796C51.1073 29.2658 50.862 29.3589 50.6171 29.3589C50.5213 29.3589 50.4275 29.3407 50.3348 29.3121C50.1905 29.2678 50.0537 29.1933 49.9393 29.0792L47.7049 26.8522C47.5225 26.6711 47.4306 26.4346 47.4258 26.1969C47.4207 25.9465 47.5125 25.6937 47.7049 25.5028C48.0787 25.1296 48.6853 25.1296 49.0591 25.5028L50.6168 27.0551L54.8139 22.8725C53.7596 21.5675 52.1458 20.7283 50.3377 20.7283C48.0286 20.7283 46.0384 22.0955 45.126 24.0571C44.9805 24.3705 44.864 24.6977 44.7766 25.038L44.7764 25.0379ZM48.4221 43.6281V48.4097H54.9875C55.0754 48.2053 55.127 47.9803 55.127 47.7417C55.127 46.8472 54.4393 46.119 53.5944 46.119C53.0656 46.119 52.6371 45.6919 52.6371 45.1649C52.6371 43.7961 51.5771 42.6828 50.2739 42.6828C49.5233 42.6824 48.8546 43.0532 48.4221 43.6281Z" fill="white"/>
</svg>
