<svg width="71" height="71" viewBox="0 0 71 71" fill="none" xmlns="http://www.w3.org/2000/svg">
<rect width="71" height="71" rx="10" fill="#0E8778"/>
<path d="M53.174 44.1641H51.6901C50.4628 44.1641 49.4643 45.1626 49.4643 46.3899V47.1317H46.4966V46.3899C46.4966 45.1626 45.4982 44.1641 44.2708 44.1641H42.7869C41.5597 44.1641 40.5611 45.1626 40.5611 46.3899V47.1317H37.5935V46.3899C37.5935 45.1626 36.595 44.1641 35.3677 44.1641H33.8837C32.6565 44.1641 31.6579 45.1626 31.6579 46.3899V47.1317H28.6903V46.3899C28.6903 45.1626 27.6918 44.1641 26.4645 44.1641H24.9805C23.7533 44.1641 22.7547 45.1626 22.7547 46.3899V47.1317H19.7871V46.3899C19.7871 45.1626 18.7886 44.1641 17.5613 44.1641H16.0774C14.8501 44.1641 13.8516 45.1626 13.8516 46.3899V59.0024H55.3977L55.3993 46.3899C55.3993 45.1626 54.4008 44.1641 53.1735 44.1641H53.174ZM49.4646 48.6153V51.5829H46.497V48.6153H49.4646ZM42.7872 45.6477H44.2712C44.6803 45.6477 45.013 45.9804 45.013 46.3895V57.5177H42.0454V46.3895C42.0454 45.9804 42.3781 45.6473 42.7872 45.6473L42.7872 45.6477ZM40.5617 57.5185H37.5941V53.0669H40.5617V57.5185ZM40.5617 48.6154V51.583H37.5941V48.6154H40.5617ZM33.8844 45.6477H35.3683C35.7774 45.6477 36.1101 45.9805 36.1101 46.3896V57.5178H33.1425V46.3896C33.1425 45.9805 33.4752 45.6474 33.8843 45.6474L33.8844 45.6477ZM31.6586 57.5185H28.691V53.067H31.6586V57.5185ZM31.6586 48.6154V51.5831H28.691V48.6154H31.6586ZM24.9815 45.6478H26.4655C26.8746 45.6478 27.2073 45.9806 27.2073 46.3896V57.5179H24.2397V46.3896C24.2397 45.9806 24.5724 45.6475 24.9815 45.6475L24.9815 45.6478ZM22.7557 48.6154V51.5831H19.7881V48.6154H22.7557ZM18.3045 57.5185H15.3369V46.3903C15.3369 45.9812 15.6696 45.6485 16.0787 45.6485H17.5626C17.9717 45.6485 18.3045 45.9812 18.3045 46.3903L18.3045 57.5185ZM19.7881 53.0673H22.7557V57.5189H19.7881V53.0673ZM46.4966 57.5185V53.067H49.4642V57.5185H46.4966ZM53.9154 57.5185H50.9478V46.3903C50.9478 45.9812 51.2805 45.6485 51.6896 45.6485H53.1735C53.5826 45.6485 53.9153 45.9812 53.9153 46.3903L53.9154 57.5185Z" fill="white"/>
<path d="M50.205 35.2108V30.7313C51.1242 30.5468 51.9337 30.0245 52.4798 29.2573C52.707 29.3003 52.9386 29.3221 53.1725 29.3221C55.218 29.3221 56.882 27.6582 56.882 25.6127C56.882 25.3894 56.8621 25.1674 56.8223 24.9489C57.3417 24.2956 57.6238 23.4922 57.6238 22.6451C57.6238 21.7188 57.2827 20.8412 56.6724 20.1646C56.8104 19.7712 56.8816 19.3547 56.8816 18.9354C56.8816 16.8899 55.2177 15.2259 53.1722 15.2259C53.0705 15.2259 52.9688 15.2301 52.8674 15.2385C52.2892 13.9082 50.9538 13.0002 49.4631 13.0002C47.9725 13.0002 46.6367 13.9082 46.0585 15.2385C45.9571 15.2301 45.8554 15.2259 45.7537 15.2259C43.7083 15.2259 42.0443 16.8899 42.0443 18.9354C42.0443 19.3544 42.1159 19.7709 42.2535 20.1646C41.6432 20.841 41.3022 21.7185 41.3022 22.6451C41.3022 23.4921 41.5842 24.2956 42.1037 24.9489C42.0642 25.1674 42.044 25.3894 42.044 25.6127C42.044 27.6582 43.708 29.3221 45.7534 29.3221C45.9873 29.3221 46.2187 29.3003 46.4461 29.2573C46.9922 30.0245 47.8021 30.5468 48.721 30.7313V34.7035C45.0112 33.4938 39.9748 32.2897 34.625 32.2897C34.3504 32.2897 34.077 32.2938 33.8043 32.3003C33.5996 31.3473 32.9957 30.4794 32.0511 29.8049C30.9458 29.015 29.4888 28.5799 27.948 28.5799C26.8815 28.5799 25.8634 28.7939 24.9804 29.1745V26.2595C25.2207 26.3214 25.4697 26.3545 25.7222 26.3545C27.1295 26.3545 28.3112 25.3698 28.6144 24.0533C29.9309 23.75 30.9156 22.5683 30.9156 21.161C30.9156 20.8665 30.8714 20.5742 30.7863 20.2944C31.3401 19.7438 31.6577 18.994 31.6577 18.1934C31.6577 16.7861 30.6731 15.6044 29.3565 15.3012C29.053 13.9848 27.8716 13 26.4643 13C25.6638 13 24.9139 13.3176 24.3634 13.8714C24.0832 13.7861 23.7909 13.7418 23.4967 13.7418C22.4112 13.7418 21.4301 14.336 20.9125 15.2504C20.7858 15.2338 20.6581 15.2257 20.5291 15.2257C18.8927 15.2257 17.5615 16.557 17.5615 18.1934C17.5615 18.4876 17.6058 18.7802 17.6908 19.06C17.137 19.6106 16.8194 20.3604 16.8194 21.161C16.8194 22.7974 18.1506 24.1286 19.787 24.1286C19.8181 24.1286 19.8495 24.1283 19.8803 24.127C20.2105 25.4062 21.374 26.3544 22.7546 26.3544C23.0071 26.3544 23.2561 26.3216 23.4964 26.2594V30.0792C23.1784 30.3478 22.9031 30.6471 22.6785 30.9715C22.228 30.863 21.7554 30.8056 21.2706 30.8056C18.4069 30.8056 16.0771 32.8026 16.0771 35.2571C16.0771 35.6149 16.1272 35.9653 16.2234 36.3066C13.6415 37.3908 12.0835 38.2748 12 38.3223L12.736 39.6109C12.8381 39.5525 23.1004 33.7732 34.6246 33.7732C37.1655 33.7732 39.6443 34.0543 41.9671 34.4929L40.3564 37.7143L38.5811 35.939L37.7059 41.1924H36.1087V42.6764H47.9794V41.1924H46.3822L45.5066 35.939L43.7314 37.7143L42.137 34.5257C50.2666 36.0924 56.435 39.5657 56.5147 39.6109L57.2508 38.3226C57.1426 38.2607 54.5521 36.7903 50.4591 35.3018C50.376 35.2716 50.2907 35.2412 50.2057 35.2107L50.205 35.2108ZM47.46 28.0679L47.1648 27.4611L46.5327 27.6976C46.2834 27.791 46.021 27.8381 45.7534 27.8381C44.5261 27.8381 43.5276 26.8396 43.5276 25.6123C43.5276 25.3909 43.56 25.1718 43.6245 24.9616L43.7547 24.5349L43.439 24.2198C43.0177 23.7992 42.7857 23.2399 42.7857 22.6447C42.7857 21.9725 43.0854 21.3426 43.6081 20.9175L44.0843 20.5299L43.7929 19.9896C43.6168 19.6633 43.5276 19.3084 43.5276 18.935C43.5276 17.7077 44.5261 16.7091 45.7534 16.7091C45.9581 16.7091 46.1625 16.7377 46.3608 16.7938L47.1212 17.0091L47.288 16.2365C47.5075 15.221 48.4223 14.484 49.4631 14.484C50.5039 14.484 51.4188 15.2213 51.6379 16.2372L51.8047 17.0095L52.5652 16.7942C52.7635 16.738 52.9678 16.7095 53.1726 16.7095C54.3998 16.7095 55.3984 17.708 55.3984 18.9353C55.3984 19.3088 55.3092 19.6636 55.133 19.99L54.8417 20.5303L55.3178 20.9179C55.8405 21.3433 56.1402 21.9729 56.1402 22.645C56.1402 23.2402 55.9082 23.7995 55.4869 24.2201L55.1712 24.5352L55.3015 24.962C55.3657 25.1724 55.3984 25.3913 55.3984 25.6127C55.3984 26.8399 54.3999 27.8385 53.1726 27.8385C52.9047 27.8385 52.6425 27.7913 52.3932 27.6979L51.7611 27.4615L51.4659 28.0682C51.2028 28.6092 50.7482 29.0057 50.2049 29.196V26.0711L54.2461 24.0504L53.5826 22.7233L50.2049 24.4123V21.581L53.5543 19.5715L52.791 18.299L50.2052 19.8506L50.2049 17.4516H48.721V19.8506L46.1352 18.299L45.3719 19.5715L48.7213 21.581V24.4119L45.3437 22.723L44.6801 24.05L48.7213 26.0708V29.1957C48.1778 29.0057 47.7231 28.6088 47.46 28.0679ZM22.7541 24.8705C21.9359 24.8705 21.2702 24.2047 21.2702 23.3866C21.2702 23.3574 21.2712 23.3285 21.2731 23.2996L21.336 22.1847L20.2838 22.5591C20.1241 22.6159 19.9569 22.6448 19.7865 22.6448C18.9683 22.6448 18.3026 21.979 18.3026 21.1608C18.3026 20.6526 18.5589 20.1851 18.9889 19.9101L19.5802 19.5318L19.2353 18.9206C19.1105 18.6995 19.0447 18.448 19.0447 18.1932C19.0447 17.375 19.7105 16.7093 20.5287 16.7093C20.7167 16.7093 20.9005 16.7446 21.0754 16.8135L21.8471 17.1196L22.0649 16.3185C22.2395 15.6755 22.8282 15.2259 23.4963 15.2259C23.751 15.2259 24.0026 15.292 24.2233 15.4165L24.8346 15.7614L25.2129 15.1701C25.4878 14.7405 25.9553 14.4838 26.4636 14.4838C27.2818 14.4838 27.9475 15.1496 27.9475 15.9677V16.7095H28.6894C29.5075 16.7095 30.1733 17.3753 30.1733 18.1935C30.1733 18.7017 29.9169 19.1692 29.487 19.4442L28.8956 19.8225L29.2405 20.4337C29.3654 20.6548 29.4311 20.9063 29.4311 21.1608C29.4311 21.979 28.7654 22.6447 27.9472 22.6447H27.2054V23.3865C27.2054 24.2047 26.5396 24.8705 25.7215 24.8705C25.4587 24.8705 25.2036 24.7999 24.9796 24.6703L24.98 18.9353H23.496V24.6703C23.2721 24.7999 23.0173 24.8705 22.7542 24.8705L22.7541 24.8705ZM27.9476 30.0639C30.0177 30.0639 31.811 31.0647 32.2791 32.3648C30.0453 32.5054 27.8962 32.833 25.9098 33.2546C25.4949 32.5461 24.8727 31.9567 24.1197 31.5338C24.9157 30.6441 26.3734 30.0639 27.9476 30.0639ZM17.6128 35.7454C17.5791 35.5849 17.5614 35.4219 17.5614 35.257C17.5614 33.6206 19.2254 32.2894 21.2708 32.2894C22.5373 32.2894 23.6798 32.797 24.3553 33.6097C22.2328 34.1308 20.341 34.7381 18.7916 35.3016C18.3832 35.4505 17.9905 35.5987 17.6128 35.7454ZM44.5167 39.0271L44.8777 41.1925H39.2101L39.571 39.0271L40.7634 40.2194L42.0439 37.6583L43.3245 40.2194L44.5167 39.0271Z" fill="white"/>
<path d="M34.6242 41.1882H33.027L32.1514 35.9348L30.3761 37.7101L28.6891 34.3359L27.002 37.7101L25.2267 35.9348L24.3511 41.1882H22.7539V42.6721H34.6247L34.6242 41.1882ZM26.2164 39.0227L27.4087 40.2151L28.6893 37.654L29.9699 40.2151L31.1622 39.0227L31.5228 41.1882H25.8552L26.2164 39.0227Z" fill="white"/>
</svg>
