<svg width="62" height="62" viewBox="0 0 62 62" fill="none" xmlns="http://www.w3.org/2000/svg">
<rect width="62" height="62" rx="10" fill="#E7F3F2"/>
<path d="M50.7973 29.06H50.6098V21.5469C50.6098 17.9373 47.6768 15 44.072 15H17.9268C14.322 15 11.389 17.9373 11.389 21.5469V29.06H11.2022C9.43677 29.06 8.00034 30.4744 8.00034 32.2131L8 47H16.7156V45.7889C16.7156 44.8528 17.4762 44.0912 18.4118 44.0912H43.5886C44.5241 44.0912 45.284 44.8528 45.284 45.7889L45.2844 47H54L53.9997 32.2131C53.9993 30.4744 52.5629 29.06 50.7975 29.06H50.7973ZM12.8419 21.5469C12.8419 18.7391 15.1231 16.4546 17.9271 16.4546H44.0722C46.8759 16.4546 49.1571 18.7392 49.1571 21.5469V29.06H47.7045V28.8192C47.7045 25.7443 45.2061 23.2423 42.1353 23.2423H37.2952C34.2244 23.2423 31.7257 25.7443 31.7257 28.8192V29.06H30.273V28.8192C30.2734 25.7443 27.7744 23.2423 24.7038 23.2423H19.8642C16.7936 23.2423 14.2946 25.7443 14.2946 28.8192V29.06H12.8419V21.5469ZM46.2518 29.06H33.1784V28.8192C33.1784 26.5462 35.0252 24.6972 37.2949 24.6972H42.1349C44.405 24.6972 46.2514 26.5459 46.2514 28.8192L46.2518 29.06ZM28.8206 29.06H15.7471V28.8192C15.7471 26.5462 17.5933 24.6972 19.8636 24.6972H24.7033C26.9734 24.6972 28.8198 26.5459 28.8198 28.8192V29.06H28.8206ZM11.2026 30.5146H50.7973C51.7619 30.5146 52.5468 31.2763 52.5468 32.2131V38.7569H9.45287L9.4522 32.2131C9.4522 31.2763 10.2375 30.5146 11.2021 30.5146H11.2026ZM46.7265 45.5457C46.6026 43.9206 45.2421 42.6365 43.5878 42.6365H18.411C16.7564 42.6365 15.3959 43.9203 15.2719 45.5457H9.45244V40.212H52.5464V45.5457H46.7265Z" fill="#0E8778"/>
</svg>
