<svg width="62" height="62" viewBox="0 0 62 62" fill="none" xmlns="http://www.w3.org/2000/svg">
<rect width="62" height="62" rx="10" fill="#E7F3F2"/>
<path d="M32.9708 28.543C32.7158 28.543 32.4945 28.3539 32.4607 28.0941C32.3151 26.9778 31.9247 25.9766 31.3009 25.1186C31.215 25.0012 31.1831 24.8527 31.2133 24.7103C31.8955 21.4431 33.7087 21.0252 35.1144 21.2497C35.3352 21.2852 35.508 21.4589 35.5422 21.6798C35.7155 22.7997 36.06 23.7736 36.5672 24.5749C36.7192 24.8154 36.6476 25.1338 36.4073 25.2859C36.1654 25.4381 35.8483 25.3661 35.6961 25.1258C35.1742 24.3012 34.8039 23.3284 34.592 22.2297C33.766 22.1957 32.7755 22.5563 32.2695 24.7058C32.9175 25.6602 33.3252 26.754 33.4825 27.961C33.5192 28.2433 33.3197 28.5019 33.0381 28.5386C33.0154 28.5416 32.9929 28.543 32.9708 28.543L32.9708 28.543Z" fill="#0E8778"/>
<path d="M35.0329 22.2763C34.8316 22.2763 34.6399 22.1574 34.5578 21.9597C34.4477 21.6974 34.5714 21.3952 34.8342 21.2855C35.9175 20.8329 36.7507 20.7229 37.3654 20.9554C37.6914 20.6815 38.0401 20.5349 38.4068 20.5187C38.8984 20.5 39.3748 20.709 39.8358 21.1472C40.0423 21.3433 40.05 21.6693 39.8541 21.8756C39.6571 22.082 39.3305 22.0892 39.1257 21.8938C38.876 21.6565 38.6705 21.5376 38.4517 21.5483C38.2618 21.5569 38.0564 21.6851 37.8405 21.9297C37.6607 22.1347 37.353 22.1627 37.1376 21.9957C36.8423 21.7657 36.1477 21.8537 35.2316 22.2366C35.1665 22.2637 35.099 22.2763 35.0329 22.2763L35.0329 22.2763Z" fill="#0E8778"/>
<path d="M31.0118 30.5022C30.8663 30.5022 30.722 30.4407 30.6195 30.3212C29.4685 28.9717 28.6845 27.2035 28.2898 25.065C28.2709 24.9627 28.2833 24.8566 28.326 24.7617C28.5448 24.27 28.9006 23.9313 29.3538 23.7823C30.0295 23.5605 30.8864 23.7525 31.9704 24.3687C32.2178 24.5092 32.3048 24.8238 32.1638 25.071C32.0235 25.3189 31.7089 25.4054 31.4615 25.2645C30.6787 24.8194 30.0448 24.6388 29.6752 24.7614C29.5824 24.7919 29.4538 24.8547 29.3362 25.0488C29.7067 26.9296 30.4019 28.4775 31.4042 29.6524C31.5888 29.8689 31.5627 30.1938 31.3462 30.3791C31.249 30.4615 31.1301 30.5022 31.0118 30.5022L31.0118 30.5022Z" fill="#0E8778"/>
<path d="M19.8316 41.6846C19.6233 41.6846 19.4275 41.5573 19.3494 41.3515C17.7937 37.2378 17.9132 33.2729 19.6861 30.1861C21.4104 27.185 24.6157 25.1528 28.7121 24.4641C28.9914 24.4173 29.2581 24.6065 29.3056 24.8869C29.3524 25.1678 29.1636 25.4334 28.8826 25.4807C25.096 26.1169 22.1477 27.9704 20.5793 30.6997C18.9633 33.5133 18.8686 37.1663 20.3136 40.9865C20.4142 41.2528 20.2798 41.5498 20.0137 41.651C19.9538 41.6733 19.8916 41.684 19.8314 41.684L19.8316 41.6846Z" fill="#0E8778"/>
<path d="M33.2968 22.5331C33.0849 22.5331 32.8869 22.4019 32.8117 22.1912C32.4206 21.0971 32.0703 20.6744 31.8449 20.5124C31.6551 20.3755 31.5809 20.1272 31.6656 19.9084C32.4118 17.9776 32.6615 16.5765 32.4088 15.7439C32.3261 15.4717 32.4798 15.1838 32.752 15.1012C33.0226 15.0166 33.3118 15.172 33.3947 15.4444C33.7041 16.4616 33.4941 17.937 32.7527 19.9464C33.1333 20.3503 33.4723 20.9764 33.7822 21.8442C33.878 22.1122 33.7385 22.4069 33.4703 22.5029C33.4128 22.5235 33.3544 22.5331 33.2968 22.5331L33.2968 22.5331Z" fill="#0E8778"/>
<path d="M30.6346 24.8369C30.4032 24.8369 30.1925 24.6795 30.1345 24.4445C29.9369 23.6397 29.5719 22.9437 29.0487 22.3711C27.3647 22.6702 25.7659 22.6641 24.2936 22.3522C24.0966 22.3104 23.9416 22.158 23.8977 21.9614C23.7935 21.5022 23.6154 21.099 23.3676 20.7632C23.1983 20.5342 23.2468 20.2116 23.476 20.0426C23.7038 19.8724 24.0275 19.9224 24.1962 20.1509C24.4671 20.5179 24.6748 20.9382 24.8157 21.4042C26.1477 21.6407 27.5957 21.6084 29.127 21.3084C29.2938 21.2759 29.465 21.3267 29.5862 21.4452C30.3471 22.1872 30.869 23.1138 31.136 24.1987C31.2034 24.4751 31.0347 24.754 30.7585 24.822C30.717 24.8323 30.6756 24.837 30.6346 24.837V24.8369Z" fill="#0E8778"/>
<path d="M16.328 29.5072C16.1245 29.5072 15.9315 29.3854 15.8504 29.1848C15.7433 28.9212 15.8712 28.6209 16.135 28.5142C16.9682 28.1783 17.7906 28.1432 18.5812 28.4089C19.9356 27.3811 21.8935 25.7938 24.7059 23.4438C24.8573 23.3172 25.0692 23.2884 25.249 23.3705C26.1047 23.7593 26.7957 24.3474 27.304 25.119C27.4609 25.3566 27.3951 25.676 27.1571 25.8327C26.9198 25.9896 26.5997 25.9232 26.4435 25.6859C26.0961 25.1587 25.6571 24.7525 25.1075 24.4509C22.2607 26.8261 20.3075 28.4037 18.9726 29.4042C18.8247 29.5151 18.6288 29.5376 18.4595 29.4651C17.8323 29.1944 17.1985 29.1957 16.5205 29.47C16.4575 29.495 16.3924 29.5071 16.3279 29.5071L16.328 29.5072Z" fill="#0E8778"/>
<path d="M36.1822 29.7976C36.0757 29.7976 35.9709 29.7644 35.8827 29.7018C34.9774 29.0552 33.9772 28.6643 32.9111 28.5406C32.6282 28.5078 32.426 28.2522 32.4585 27.9693C32.4911 27.6868 32.7402 27.4812 33.0296 27.5169C34.1965 27.6523 35.2922 28.0604 36.2905 28.7308C38.4408 28.2255 38.8029 27.2358 38.7686 26.4086C37.6645 26.1948 36.6851 25.8178 35.8532 25.2855C35.6135 25.1322 35.5432 24.8136 35.6963 24.574C35.85 24.3341 36.1678 24.2635 36.4081 24.4175C37.2163 24.9344 38.1956 25.2847 39.3182 25.4586C39.5396 25.4928 39.7129 25.6657 39.7484 25.8864C39.9727 27.2894 39.5543 29.1047 36.2875 29.7871C36.2527 29.794 36.2172 29.7976 36.1821 29.7976L36.1822 29.7976Z" fill="#0E8778"/>
<path d="M39.2408 26.4831C39.1751 26.4831 39.1089 26.4707 39.0444 26.444C38.7817 26.3356 38.6563 26.0344 38.7644 25.7715C39.3082 24.4514 39.1183 24.0016 39.0119 23.8697C38.8396 23.6569 38.864 23.3471 39.0669 23.1638C39.316 22.938 39.4462 22.7273 39.4533 22.5381C39.4605 22.3461 39.3446 22.123 39.1078 21.8741C38.9119 21.6679 38.9197 21.3419 39.1261 21.1457C39.3309 20.9502 39.6575 20.9574 39.8545 21.164C40.2895 21.6215 40.5012 22.0966 40.4829 22.5765C40.4693 22.9428 40.3231 23.2954 40.0463 23.6289C40.2777 24.2343 40.1681 25.0702 39.7174 26.1638C39.6357 26.3629 39.4433 26.4831 39.2408 26.4831L39.2408 26.4831Z" fill="#0E8778"/>
<path d="M37.4549 22.1028C37.4484 22.1028 37.4413 22.1026 37.4348 22.1022C37.1508 22.0915 36.9288 21.8525 36.9395 21.5681C37.0199 19.4285 36.649 17.8936 35.8371 17.0056C35.6453 16.7956 35.6596 16.4698 35.8696 16.2779C36.0796 16.0855 36.4056 16.1 36.598 16.3104C37.5986 17.4051 38.0602 19.187 37.9691 21.6065C37.959 21.8844 37.7301 22.1028 37.4549 22.1028L37.4549 22.1028Z" fill="#0E8778"/>
<path d="M44.3402 25.2815C44.2188 25.2815 44.0977 25.2389 43.9994 25.1528C43.087 24.349 41.5437 23.9838 39.4302 24.0612C39.1538 24.0808 38.906 23.85 38.8959 23.5658C38.8852 23.2814 39.1072 23.0424 39.3911 23.0317C41.8224 22.9384 43.548 23.3814 44.6812 24.3792C44.8941 24.5674 44.9149 24.8927 44.7267 25.1063C44.6251 25.2222 44.4829 25.2815 44.3403 25.2815L44.3402 25.2815Z" fill="#0E8778"/>
<path d="M36.0269 32.7027C35.9973 32.7027 35.9677 32.6997 35.9381 32.6949C33.8103 32.3227 32.04 31.544 30.6771 30.3808C30.4605 30.1962 30.4345 29.8713 30.6197 29.6547C30.8043 29.4384 31.1299 29.4122 31.3458 29.5974C32.5322 30.6097 34.0812 31.2997 35.9517 31.65C36.1435 31.5383 36.2061 31.4133 36.2363 31.3234C36.3073 31.1121 36.3363 30.6003 35.7333 29.5394C35.5924 29.2918 35.6795 28.9774 35.9267 28.8367C36.1742 28.6964 36.4888 28.7831 36.6291 29.0299C37.2486 30.1204 37.4398 30.9779 37.2131 31.6523C37.0617 32.1014 36.7215 32.4507 36.2298 32.6613C36.1653 32.6886 36.0962 32.7027 36.0269 32.7027L36.0269 32.7027Z" fill="#0E8778"/>
<path d="M25.2223 42.7371C23.4459 42.7371 21.5638 42.3761 19.6488 41.6525C19.3824 41.5513 19.2482 41.2543 19.3488 40.988C19.4495 40.7217 19.7487 40.5885 20.0134 40.6881C23.8246 42.1296 27.4715 42.0384 30.2797 40.4283C33.0129 38.8614 34.8739 35.904 35.5193 32.1008C35.5672 31.8204 35.827 31.6328 36.114 31.6788C36.3944 31.7267 36.5832 31.993 36.5359 32.2734C35.8378 36.3852 33.7975 39.5987 30.7919 41.322C29.1488 42.2641 27.2548 42.7369 25.2221 42.7369L25.2223 42.7371Z" fill="#0E8778"/>
<path d="M40.9064 29.3687C40.7443 29.3687 40.5874 29.292 40.4887 29.1545C40.2549 28.8306 39.6828 28.4988 38.7874 28.1686C38.52 28.0701 38.3839 27.7739 38.482 27.5068C38.5807 27.2402 38.8779 27.1035 39.1436 27.2018C40.0335 27.5299 40.6538 27.8678 41.0543 28.2465C43.0632 27.5057 44.5376 27.2965 45.5561 27.6045C45.8283 27.6872 45.982 27.9749 45.8993 28.2474C45.8169 28.5193 45.5294 28.6743 45.2566 28.5908C44.4217 28.3364 43.0217 28.588 41.0921 29.3336C41.0318 29.3575 40.9686 29.3687 40.9064 29.3687L40.9064 29.3687Z" fill="#0E8778"/>
<path d="M40.5456 37.7337C40.4397 37.7337 40.3326 37.7005 40.2402 37.6331C39.9035 37.3846 39.5005 37.2059 39.0414 37.1023C38.8454 37.0586 38.6929 36.9034 38.6509 36.7071C38.3415 35.2474 38.3302 33.6479 38.6177 31.9497C38.058 31.4278 37.3616 31.064 36.5433 30.8657C36.2669 30.799 36.0972 30.5209 36.1639 30.2439C36.2307 29.9675 36.5094 29.7965 36.7858 29.8645C37.8906 30.1315 38.8189 30.6545 39.5456 31.419C39.6599 31.5391 39.709 31.7059 39.6788 31.8686C39.3906 33.4124 39.3639 34.8629 39.599 36.1846C40.0646 36.3255 40.4853 36.5326 40.8522 36.8035C41.0812 36.9728 41.1297 37.2952 40.961 37.5241C40.8598 37.6609 40.7035 37.7337 40.5456 37.7337L40.5456 37.7337Z" fill="#0E8778"/>
<path d="M32.0093 45.1867C31.9478 45.1867 31.8856 45.1753 31.8254 45.1525C31.5597 45.0512 31.4265 44.753 31.5284 44.4873C31.7899 43.8032 31.7911 43.1631 31.5326 42.5298C31.4639 42.3624 31.4889 42.1713 31.5971 42.0262C32.6846 40.5753 34.351 38.5113 36.5521 35.8881C36.2557 35.3414 35.851 34.9064 35.2959 34.5359C35.0592 34.3786 34.9953 34.0583 35.1533 33.8218C35.3106 33.5845 35.6309 33.52 35.8674 33.6792C36.6739 34.2165 37.2508 34.8953 37.6331 35.7533C37.7129 35.933 37.6833 36.1433 37.5569 36.2941C35.3728 38.8917 33.7037 40.9515 32.5888 42.422C32.8402 43.2102 32.8073 44.0272 32.4905 44.8552C32.4124 45.0606 32.2165 45.1866 32.0094 45.1866L32.0093 45.1867Z" fill="#0E8778"/>
<path d="M34.5858 37.0996C34.5279 37.0996 34.4693 37.0901 34.4119 37.0693C29.5107 35.3107 25.6913 31.4909 23.9326 26.59C23.8368 26.3222 23.9759 26.0269 24.2439 25.9311C24.5096 25.8343 24.8059 25.9738 24.903 26.242C26.5567 30.8526 30.1491 34.4448 34.7596 36.0987C35.0276 36.1951 35.1667 36.4897 35.0709 36.7577C34.9949 36.9684 34.7966 37.0993 34.5855 37.0993L34.5858 37.0996Z" fill="#0E8778"/>
<path d="M31.7687 40.5334C31.7085 40.5334 31.6473 40.5227 31.5877 40.5003C26.4428 38.5672 22.401 34.5186 20.5003 29.394C20.4009 29.1271 20.537 28.8307 20.8038 28.7316C21.0701 28.6325 21.3671 28.7686 21.466 29.0355C23.2636 33.8802 27.0847 37.7077 31.9501 39.5358C32.2171 39.6358 32.3513 39.9327 32.2513 40.1991C32.1738 40.4064 31.9774 40.5334 31.7691 40.5334L31.7687 40.5334Z" fill="#0E8778"/>
<path d="M27.2 42.5763C27.1212 42.5763 27.0408 42.558 26.9656 42.5196C23.2947 40.6396 20.3603 37.7053 18.4805 34.034C18.351 33.7807 18.4509 33.4701 18.7042 33.3405C18.9582 33.2096 19.2681 33.3109 19.3977 33.5642C21.1788 37.0416 23.9581 39.8211 27.4354 41.6019C27.6887 41.7315 27.7887 42.0421 27.6591 42.2954C27.568 42.4737 27.3876 42.576 27.2 42.576L27.2 42.5763Z" fill="#0E8778"/>
<path d="M30.8672 7C24.2772 7 18.3073 9.6328 13.9906 13.883C9.67393 18.1333 7 24.011 7 30.5C7 43.4789 17.6855 54 30.8672 54C37.4571 54 43.4271 51.3672 47.7438 47.117C52.0601 42.8671 54.7344 36.989 54.7344 30.5C54.7344 17.5211 44.0489 7 30.8672 7ZM41.48 46.131C38.4444 48.1333 34.7954 49.2997 30.8672 49.2997C20.3217 49.2997 11.7734 40.8828 11.7734 30.4997C11.7734 26.6319 12.9581 23.039 14.9916 20.0502C15.3912 19.4628 16.2317 19.4128 16.7392 19.9128L41.6194 44.4103C42.1273 44.9096 42.0765 45.7372 41.4803 46.1306L41.48 46.131ZM46.7426 40.9494C46.3427 41.5364 45.5026 41.5868 44.995 41.0867L20.1148 16.5893C19.6073 16.0896 19.6582 15.2621 20.2543 14.8686C23.29 12.866 26.9389 11.6995 30.8672 11.6995C41.4127 11.6995 49.9609 20.1165 49.9609 30.4995C49.9609 34.3674 48.7763 37.9606 46.7427 40.9491L46.7426 40.9494Z" fill="#0E8778"/>
</svg>
