<svg width="62" height="62" viewBox="0 0 62 62" fill="none" xmlns="http://www.w3.org/2000/svg">
<rect width="62" height="62" rx="10" fill="#E7F3F2"/>
<path d="M46.3046 12.7089H45.4V11.6875C45.4 10.7272 44.8877 9.8402 44.0562 9.35993C43.2248 8.88002 42.2002 8.88002 41.3687 9.35993C40.5373 9.84024 40.025 10.7272 40.025 11.6875V12.7089H22.1083V11.6875C22.1083 10.7272 21.596 9.8402 20.7646 9.35993C19.9331 8.88002 18.9085 8.88002 18.0771 9.35993C17.2456 9.84024 16.7333 10.7272 16.7333 11.6875V12.7089H15.8287C14.5485 12.7113 13.322 13.2204 12.417 14.1254C11.5119 15.0305 11.0025 16.2574 11 17.5372V47.1713C11.0024 48.4515 11.5119 49.678 12.417 50.583C13.322 51.4881 14.5485 51.9975 15.8287 52H46.3044C47.5846 51.9976 48.8111 51.4881 49.7162 50.583C50.6212 49.678 51.1307 48.4515 51.1331 47.1713V17.5372C51.1307 16.2574 50.6212 15.0305 49.7162 14.1254C48.8111 13.2204 47.5846 12.7113 46.3044 12.7089H46.3046ZM41.8166 11.6875C41.8166 11.1928 42.2178 10.7916 42.7125 10.7916C43.2072 10.7916 43.6083 11.1928 43.6083 11.6875V15.2708C43.6083 15.7655 43.2072 16.1666 42.7125 16.1666C42.2178 16.1666 41.8166 15.7655 41.8166 15.2708V11.6875ZM18.525 11.6875C18.525 11.1928 18.9261 10.7916 19.4208 10.7916C19.9155 10.7916 20.3166 11.1928 20.3166 11.6875V15.2708C20.3166 15.7655 19.9155 16.1666 19.4208 16.1666C18.9261 16.1666 18.525 15.7655 18.525 15.2708V11.6875ZM15.8287 14.5006H16.7333V15.2708C16.7333 16.2311 17.2456 17.1181 18.0771 17.5984C18.9085 18.0783 19.9331 18.0783 20.7645 17.5984C21.596 17.118 22.1083 16.2311 22.1083 15.2708V14.5006H40.025V15.2708C40.025 16.2311 40.5373 17.1181 41.3687 17.5984C42.2001 18.0783 43.2248 18.0783 44.0562 17.5984C44.8876 17.118 45.4 16.2311 45.4 15.2708V14.5006H46.3046C47.11 14.5014 47.8819 14.8217 48.451 15.3908C49.0205 15.9603 49.3408 16.7322 49.3416 17.5372V19.4885H12.7916V17.5372C12.7924 16.7322 13.1128 15.9604 13.6823 15.3908C14.2514 14.8217 15.0233 14.5014 15.8287 14.5006H15.8287ZM46.3044 50.208H15.8287C15.0232 50.2072 14.2514 49.8868 13.6823 49.3173C13.1128 48.7482 12.7924 47.9764 12.7916 47.1709V21.2808H49.3416V47.1709C49.3408 47.9764 49.0205 48.7482 48.451 49.3173C47.8819 49.8868 47.11 50.2072 46.3046 50.208H46.3044Z" fill="#0E8778"/>
<path d="M21.2115 26.0215H19.4199C18.7072 26.0215 18.0233 26.3046 17.5195 26.8085C17.0157 27.3124 16.7324 27.9964 16.7324 28.7089V30.5006C16.7324 31.2133 17.0156 31.8972 17.5195 32.401C18.0234 32.9048 18.7073 33.188 19.4199 33.188H21.2115C21.9242 33.188 22.6081 32.9049 23.1119 32.401C23.6157 31.8971 23.899 31.2132 23.899 30.5006V28.7089C23.899 27.9963 23.6158 27.3124 23.1119 26.8085C22.608 26.3047 21.9241 26.0215 21.2115 26.0215ZM22.1074 30.5006C22.1074 30.7382 22.013 30.9662 21.845 31.1341C21.677 31.3021 21.4491 31.3965 21.2115 31.3965H19.4199C18.9252 31.3965 18.524 30.9954 18.524 30.5006V28.709C18.524 28.2143 18.9252 27.8132 19.4199 27.8132H21.2115C21.4491 27.8132 21.6771 27.9075 21.845 28.0755C22.013 28.2435 22.1074 28.4714 22.1074 28.709V30.5006Z" fill="#0E8778"/>
<path d="M31.9615 26.0215H30.1699C29.4572 26.0215 28.7733 26.3046 28.2695 26.8085C27.7657 27.3124 27.4824 27.9964 27.4824 28.7089V30.5006C27.4824 31.2133 27.7656 31.8972 28.2695 32.401C28.7734 32.9048 29.4573 33.188 30.1699 33.188H31.9615C32.6742 33.188 33.3581 32.9049 33.8619 32.401C34.3657 31.8971 34.649 31.2132 34.649 30.5006V28.7089C34.649 27.9963 34.3658 27.3124 33.8619 26.8085C33.358 26.3047 32.6741 26.0215 31.9615 26.0215ZM32.8574 30.5006C32.8574 30.7382 32.763 30.9662 32.595 31.1341C32.4271 31.3021 32.1991 31.3965 31.9615 31.3965H30.1699C29.6752 31.3965 29.274 30.9954 29.274 30.5006V28.709C29.274 28.2143 29.6752 27.8132 30.1699 27.8132H31.9615C32.1991 27.8132 32.4271 27.9075 32.595 28.0755C32.763 28.2435 32.8574 28.4714 32.8574 28.709V30.5006Z" fill="#0E8778"/>
<path d="M42.7115 26.0215H40.9199C40.2072 26.0215 39.5233 26.3046 39.0195 26.8085C38.5157 27.3124 38.2324 27.9964 38.2324 28.7089V30.5006C38.2324 31.2133 38.5156 31.8972 39.0195 32.401C39.5234 32.9048 40.2073 33.188 40.9199 33.188H42.7115C43.4242 33.188 44.1081 32.9049 44.6119 32.401C45.1157 31.8971 45.399 31.2132 45.399 30.5006V28.7089C45.399 27.9963 45.1158 27.3124 44.6119 26.8085C44.108 26.3047 43.4241 26.0215 42.7115 26.0215ZM43.6074 30.5006C43.6074 30.7382 43.513 30.9662 43.345 31.1341C43.1771 31.3021 42.9491 31.3965 42.7115 31.3965H40.9199C40.4252 31.3965 40.024 30.9954 40.024 30.5006V28.709C40.024 28.2143 40.4252 27.8132 40.9199 27.8132H42.7115C42.9491 27.8132 43.1771 27.9075 43.345 28.0755C43.513 28.2435 43.6074 28.4714 43.6074 28.709V30.5006Z" fill="#0E8778"/>
<path d="M21.2115 38.5625H19.4199C18.7072 38.5625 18.0233 38.8456 17.5195 39.3496C17.0157 39.8535 16.7324 40.5374 16.7324 41.2499V43.0416C16.7324 43.7543 17.0156 44.4382 17.5195 44.942C18.0234 45.4458 18.7073 45.7291 19.4199 45.7291H21.2115C21.9242 45.7291 22.6081 45.4459 23.1119 44.942C23.6157 44.4381 23.899 43.7542 23.899 43.0416V41.2499C23.899 40.5373 23.6158 39.8534 23.1119 39.3496C22.608 38.8457 21.9241 38.5625 21.2115 38.5625ZM22.1074 43.0417C22.1074 43.2792 22.013 43.5072 21.845 43.6751C21.677 43.8431 21.4491 43.9375 21.2115 43.9375H19.4199C18.9252 43.9375 18.524 43.5364 18.524 43.0417V41.25C18.524 40.7553 18.9252 40.3542 19.4199 40.3542H21.2115C21.4491 40.3542 21.6771 40.4485 21.845 40.6165C22.013 40.7845 22.1074 41.0124 22.1074 41.25V43.0417Z" fill="#0E8778"/>
<path d="M31.9615 38.5625H30.1699C29.4572 38.5625 28.7733 38.8456 28.2695 39.3496C27.7657 39.8535 27.4824 40.5374 27.4824 41.2499V43.0416C27.4824 43.7543 27.7656 44.4382 28.2695 44.942C28.7734 45.4458 29.4573 45.7291 30.1699 45.7291H31.9615C32.6742 45.7291 33.3581 45.4459 33.8619 44.942C34.3657 44.4381 34.649 43.7542 34.649 43.0416V41.2499C34.649 40.5373 34.3658 39.8534 33.8619 39.3496C33.358 38.8457 32.6741 38.5625 31.9615 38.5625ZM32.8574 43.0417C32.8574 43.2792 32.763 43.5072 32.595 43.6751C32.4271 43.8431 32.1991 43.9375 31.9615 43.9375H30.1699C29.6752 43.9375 29.274 43.5364 29.274 43.0417V41.25C29.274 40.7553 29.6752 40.3542 30.1699 40.3542H31.9615C32.1991 40.3542 32.4271 40.4485 32.595 40.6165C32.763 40.7845 32.8574 41.0124 32.8574 41.25V43.0417Z" fill="#0E8778"/>
<path d="M42.7115 38.5625H40.9199C40.2072 38.5625 39.5233 38.8456 39.0195 39.3496C38.5157 39.8535 38.2324 40.5374 38.2324 41.2499V43.0416C38.2324 43.7543 38.5156 44.4382 39.0195 44.942C39.5234 45.4458 40.2073 45.7291 40.9199 45.7291H42.7115C43.4242 45.7291 44.1081 45.4459 44.6119 44.942C45.1157 44.4381 45.399 43.7542 45.399 43.0416V41.2499C45.399 40.5373 45.1158 39.8534 44.6119 39.3496C44.108 38.8457 43.4241 38.5625 42.7115 38.5625ZM43.6074 43.0417C43.6074 43.2792 43.513 43.5072 43.345 43.6751C43.1771 43.8431 42.9491 43.9375 42.7115 43.9375H40.9199C40.4252 43.9375 40.024 43.5364 40.024 43.0417V41.25C40.024 40.7553 40.4252 40.3542 40.9199 40.3542H42.7115C42.9491 40.3542 43.1771 40.4485 43.345 40.6165C43.513 40.7845 43.6074 41.0124 43.6074 41.25V43.0417Z" fill="#0E8778"/>
</svg>
