<svg width="64" height="64" viewBox="0 0 64 64" fill="none" xmlns="http://www.w3.org/2000/svg">
<path fill-rule="evenodd" clip-rule="evenodd" d="M38.8974 6.63361C44.2301 5.19717 49.7063 8.35883 51.1288 13.6954L57.4362 37.3589C58.8586 42.6954 55.6887 48.186 50.3559 49.6224L26.9038 55.9395C21.571 57.3759 16.0948 54.2143 14.6724 48.8777L8.36497 25.2142C6.94254 19.8776 10.1125 14.3871 15.4453 12.9506L38.8974 6.63361Z" fill="#B7DBD7"/>
<path fill-rule="evenodd" clip-rule="evenodd" d="M25.0569 7.69996C28.9519 3.78448 35.2669 3.78447 39.1619 7.69995L56.3621 24.9907C60.2571 28.9062 60.2571 35.2545 56.3622 39.17L39.1619 56.4608C35.2669 60.3762 28.9519 60.3762 25.0569 56.4608L7.8566 39.17C3.96162 35.2545 3.96161 28.9062 7.85659 24.9908L25.0569 7.69996Z" fill="#3E9F93"/>
<path d="M36.4245 27.6847L37.0331 28.7873C37.1141 28.9346 37.2701 29.0262 37.4395 29.0262C37.609 29.0262 37.7647 28.9346 37.846 28.7873L38.4546 27.6847L39.5678 27.0816C39.7165 27.0013 39.8088 26.8466 39.8088 26.6789C39.8088 26.5111 39.7163 26.3568 39.5676 26.2762L38.4546 25.6733L37.846 24.5708C37.765 24.4234 37.609 24.332 37.4396 24.332C37.2701 24.332 37.1144 24.4236 37.0331 24.5708L36.4245 25.6733L35.3115 26.2762C35.1628 26.3566 35.0703 26.5111 35.0703 26.6789C35.0703 26.8468 35.1626 27.0011 35.3113 27.0816L36.4245 27.6847ZM36.9882 26.4139C37.066 26.3719 37.1299 26.3086 37.1725 26.2313L37.4398 25.7471L37.7071 26.2313C37.7495 26.3082 37.8134 26.3717 37.8914 26.4139L38.3802 26.6787L37.8912 26.9437C37.8136 26.9857 37.7495 27.049 37.7071 27.1263L37.4398 27.6105L37.1725 27.1263C37.1301 27.0494 37.0662 26.9859 36.9884 26.9437L36.4994 26.6787L36.9882 26.4139Z" fill="white"/>
<path d="M45.0128 27.8155C45.371 27.8155 45.6615 27.5278 45.6615 27.1728C45.6615 26.8179 45.371 26.5302 45.0128 26.5302H42.1585V25.4342H43.7182C44.0765 25.4342 44.3669 25.1464 44.3669 24.7915C44.3669 24.4366 44.0765 24.1488 43.7182 24.1488H42.1585V23.0528H45.0128C45.371 23.0528 45.6615 22.7651 45.6615 22.4102C45.6615 22.0552 45.371 21.7675 45.0128 21.7675H41.5134C41.5122 21.7675 41.5109 21.7671 41.5097 21.7671H29.9883C29.9771 21.7763 29.9659 21.7837 29.955 21.7892L28.5462 22.5511L28.27 23.0524H40.8607V24.7851C40.8607 24.7873 40.8598 24.7894 40.8598 24.7914C40.8598 24.7937 40.8605 24.7957 40.8607 24.7978V27.1664C40.8607 27.1686 40.8598 27.1707 40.8598 27.1727C40.8598 27.175 40.8605 27.177 40.8607 27.1791V29.5477C40.8607 29.5499 40.8598 29.552 40.8598 29.554C40.8598 29.5563 40.8605 29.5583 40.8607 29.5604V31.9289C40.8607 31.9312 40.8598 31.9333 40.8598 31.9353C40.8598 31.9376 40.8605 31.9396 40.8607 31.9417V34.3102C40.8607 34.3125 40.8598 34.3145 40.8598 34.3166C40.8598 34.3188 40.8605 34.3209 40.8607 34.3229V36.6915C40.8607 36.6938 40.8598 36.6958 40.8598 36.6979C40.8598 36.7001 40.8605 36.7022 40.8607 36.7042V39.0728C40.8607 39.0751 40.8598 39.0771 40.8598 39.0792C40.8598 39.0814 40.8605 39.0835 40.8607 39.0855V40.8168L34.0339 40.8176V42.1029H41.4993C41.5024 42.1029 41.5056 42.1038 41.5087 42.1038H45.0121C45.3704 42.1038 45.6608 41.816 45.6608 41.4611C45.6608 41.1061 45.3704 40.8184 45.0121 40.8184H42.158V39.7224H43.7177C44.076 39.7224 44.3665 39.4347 44.3665 39.0798C44.3665 38.7248 44.076 38.4371 43.7177 38.4371H42.158V37.3409H45.0123C45.3706 37.3409 45.661 37.0532 45.661 36.6982C45.661 36.3433 45.3706 36.0556 45.0123 36.0556H42.158V34.9596H43.7177C44.076 34.9596 44.3665 34.6718 44.3665 34.3169C44.3665 33.9619 44.076 33.6742 43.7177 33.6742H42.158V32.5782H45.0123C45.3706 32.5782 45.661 32.2905 45.661 31.9356C45.661 31.5806 45.3706 31.2929 45.0123 31.2929H42.158V30.1967H43.7177C44.076 30.1967 44.3665 29.909 44.3665 29.554C44.3665 29.1991 44.076 28.9113 43.7177 28.9113H42.158V27.8154L45.0128 27.8155Z" fill="white"/>
<path d="M38.6753 34.4761V31.6874C38.6753 30.8844 38.0158 30.2311 37.2053 30.2311H26.582C25.7715 30.2311 25.112 30.8844 25.112 31.6874V34.4761C25.112 35.279 25.7715 35.9324 26.582 35.9324H29.8384V39.6346C29.8384 39.8859 29.9855 40.1013 30.1976 40.2068V40.8165H22.9265V23.0516H26.1836L26.5562 23.7264C26.6372 23.8737 26.7932 23.9654 26.9627 23.9654C27.1321 23.9654 27.2878 23.8737 27.3691 23.7266L27.7417 23.0516L28.2049 22.2128L28.5603 22.0204L29.0299 21.7662H29.029L29.7321 21.3853C29.8809 21.3049 29.9734 21.1504 29.9734 20.9826C29.9734 20.8147 29.8809 20.6604 29.7321 20.5799L28.2044 19.7522L27.3689 18.2387C27.2878 18.0914 27.1319 18 26.9624 18C26.793 18 26.6372 18.0916 26.5559 18.2387L25.7206 19.7522L24.1929 20.5799C24.0442 20.6602 23.9517 20.8147 23.9517 20.9826C23.9517 21.1504 24.0442 21.3047 24.1929 21.3853L24.896 21.7662H22.2778C22.2573 21.7662 22.2389 21.7662 22.2184 21.7699H22.2112C22.2083 21.7703 22.2054 21.7712 22.2025 21.7716C22.1855 21.7703 22.1696 21.7667 22.1524 21.7667H18.6487C18.2904 21.7667 18 22.0544 18 22.4093C18 22.7643 18.2904 23.052 18.6487 23.052H21.629V24.148H19.9431C19.5848 24.148 19.2943 24.4357 19.2943 24.7907C19.2943 25.1456 19.5848 25.4333 19.9431 25.4333H21.629V26.5293H18.6487C18.2904 26.5293 18 26.817 18 27.172C18 27.5269 18.2904 27.8146 18.6487 27.8146H21.629V28.9106H19.9431C19.5848 28.9106 19.2943 29.1984 19.2943 29.5533C19.2943 29.9083 19.5848 30.196 19.9431 30.196H21.629V31.2922L18.6487 31.2924C18.2904 31.2924 18 31.5801 18 31.9351C18 32.29 18.2904 32.5777 18.6487 32.5777H21.629V33.6737H19.9431C19.5848 33.6737 19.2943 33.9614 19.2943 34.3164C19.2943 34.6713 19.5848 34.9591 19.9431 34.9591H21.629V36.0551H18.6487C18.2904 36.0551 18 36.3428 18 36.6977C18 37.0527 18.2904 37.3404 18.6487 37.3404H21.629V38.4366H19.9431C19.5848 38.4366 19.2943 38.7243 19.2943 39.0793C19.2943 39.4342 19.5848 39.7219 19.9431 39.7219H21.629V40.8179L18.6487 40.8181C18.2904 40.8181 18 41.1059 18 41.4608C18 41.8157 18.2904 42.1035 18.6487 42.1035H22.1524C22.171 42.1035 22.1886 42.0996 22.2068 42.0979C22.2083 42.0981 22.2095 42.0987 22.2111 42.0987H22.2186C22.2391 42.1024 22.2575 42.1024 22.278 42.1024H30.1978V44.9229C30.1978 45.2779 30.4882 45.5656 30.8465 45.5656H32.922C33.2802 45.5656 33.5707 45.2779 33.5707 44.9229L33.5705 42.1022H33.5713V40.8169H33.5705V40.2072C33.7825 40.1015 33.9296 39.8863 33.9296 39.6351V35.9328H37.2053C38.016 35.9328 38.6753 35.2797 38.6753 34.4765L38.6753 34.4761ZM26.4685 21.6542C26.4261 21.5772 26.3622 21.5139 26.2842 21.4716L25.3808 20.9821L26.2842 20.4925C26.362 20.4505 26.4259 20.3871 26.4685 20.3099L26.9625 19.4149L27.4567 20.3099C27.4991 20.3867 27.5631 20.4503 27.6411 20.4925L28.5445 20.9821L27.6411 21.4716C27.5633 21.5136 27.4994 21.577 27.4567 21.6542L26.9625 22.5492L26.4685 21.6542ZM32.2727 44.2798H31.4947V40.2945H32.2727V44.2798ZM31.1357 38.9921V34.875C31.1357 34.4663 31.4715 34.1339 31.8838 34.1339C32.2963 34.1339 32.6318 34.4665 32.6318 34.875V38.9919L31.1357 38.9921ZM33.9154 34.6469C33.8004 33.6366 32.9336 32.8487 31.8838 32.8487C30.8339 32.8487 29.967 33.6368 29.8522 34.6469H26.5816C26.4865 34.6469 26.4091 34.5701 26.4091 34.476V31.6873C26.4091 31.593 26.4867 31.5164 26.5816 31.5164H37.2049C37.3001 31.5164 37.3774 31.5932 37.3774 31.6873L37.3776 34.476C37.3776 34.5703 37.3001 34.6469 37.2051 34.6469H33.9154Z" fill="white"/>
</svg>
