<svg width="136" height="136" viewBox="0 0 136 136" fill="none" xmlns="http://www.w3.org/2000/svg">
<path fill-rule="evenodd" clip-rule="evenodd" d="M93.7001 10.5921C99.0348 9.16268 104.518 12.3285 105.948 17.6632L125.411 90.3008C126.84 95.6354 123.674 101.119 118.34 102.548L45.7021 122.011C40.3674 123.441 34.884 120.275 33.4546 114.94L13.9914 42.3027C12.562 36.9681 15.7278 31.4847 21.0625 30.0553L93.7001 10.5921Z" fill="#C5ECDC"/>
<path fill-rule="evenodd" clip-rule="evenodd" d="M60.9289 7.75467C64.8342 3.84942 71.1658 3.84942 75.0711 7.75466L128.245 60.9291C132.151 64.8343 132.151 71.166 128.245 75.0712L75.0711 128.246C71.1658 132.151 64.8342 132.151 60.9289 128.246L7.75451 75.0712C3.84927 71.166 3.84926 64.8343 7.75451 60.9291L60.9289 7.75467Z" fill="#3E9F93"/>
<path d="M78.4763 59.2241L79.7473 61.5266C79.9166 61.8343 80.2423 62.0256 80.5961 62.0256C80.9499 62.0256 81.2752 61.8343 81.445 61.5266L82.7159 59.2241L85.0406 57.9647C85.3512 57.7969 85.5439 57.4738 85.5439 57.1237C85.5439 56.7732 85.3508 56.451 85.0402 56.2828L82.716 55.0237L81.445 52.7212C81.2757 52.4135 80.95 52.2227 80.5962 52.2227C80.2423 52.2227 79.9171 52.414 79.7473 52.7212L78.4763 55.0237L76.1521 56.2828C75.8415 56.4505 75.6484 56.7732 75.6484 57.1237C75.6484 57.4742 75.8411 57.7965 76.1517 57.9647L78.4763 59.2241ZM79.6536 56.5703C79.816 56.4826 79.9495 56.3503 80.0385 56.189L80.5967 55.1777L81.1548 56.189C81.2434 56.3495 81.3768 56.4821 81.5397 56.5703L82.5605 57.1232L81.5393 57.6766C81.3773 57.7643 81.2434 57.8966 81.1548 58.0579L80.5967 59.0692L80.0385 58.0579C79.9499 57.8974 79.8165 57.7648 79.654 57.6766L78.6328 57.1232L79.6536 56.5703Z" fill="white"/>
<path d="M96.4113 59.4982C97.1596 59.4982 97.7661 58.8973 97.7661 58.1561C97.7661 57.4148 97.1596 56.814 96.4113 56.814H90.4507V54.5252H93.7079C94.4561 54.5252 95.0627 53.9243 95.0627 53.1831C95.0627 52.4419 94.4561 51.841 93.7079 51.841H90.4507V49.5522H96.4113C97.1596 49.5522 97.7661 48.9514 97.7661 48.2101C97.7661 47.4689 97.1596 46.868 96.4113 46.868H89.1037C89.1011 46.868 89.0985 46.8672 89.0959 46.8672H65.0355C65.0122 46.8864 64.9888 46.9019 64.9659 46.9134L62.024 48.5045L61.4473 49.5513H87.7405V53.1697C87.7405 53.1744 87.7388 53.1787 87.7388 53.183C87.7388 53.1877 87.7401 53.192 87.7405 53.1962V58.1426C87.7405 58.1473 87.7388 58.1516 87.7388 58.1558C87.7388 58.1606 87.7401 58.1648 87.7405 58.1691V63.1155C87.7405 63.1202 87.7388 63.1244 87.7388 63.1287C87.7388 63.1334 87.7401 63.1377 87.7405 63.142V68.0883C87.7405 68.093 87.7388 68.0973 87.7388 68.1016C87.7388 68.1063 87.7401 68.1106 87.7405 68.1149V73.0612C87.7405 73.0659 87.7388 73.0702 87.7388 73.0745C87.7388 73.0792 87.7401 73.0835 87.7405 73.0877V78.0341C87.7405 78.0388 87.7388 78.0431 87.7388 78.0473C87.7388 78.0521 87.7401 78.0563 87.7405 78.0606V83.007C87.7405 83.0117 87.7388 83.0159 87.7388 83.0202C87.7388 83.0249 87.7401 83.0292 87.7405 83.0335V86.6489L73.4841 86.6506V89.3348H89.0742C89.0807 89.3348 89.0872 89.3365 89.0937 89.3365H96.41C97.1582 89.3365 97.7647 88.7357 97.7647 87.9944C97.7647 87.2532 97.1582 86.6523 96.41 86.6523H90.4496V84.3636H93.7069C94.4551 84.3636 95.0617 83.7627 95.0617 83.0215C95.0617 82.2802 94.4551 81.6794 93.7069 81.6794H90.4496V79.3901H96.4103C97.1585 79.3901 97.7651 78.7893 97.7651 78.0481C97.7651 77.3068 97.1585 76.706 96.4103 76.706H90.4496V74.4172H93.7069C94.4551 74.4172 95.0617 73.8163 95.0617 73.0751C95.0617 72.3339 94.4551 71.733 93.7069 71.733H90.4496V69.4442H96.4103C97.1585 69.4442 97.7651 68.8434 97.7651 68.1021C97.7651 67.3609 97.1585 66.76 96.4103 66.76H90.4496V64.4708H93.7069C94.4551 64.4708 95.0617 63.87 95.0617 63.1287C95.0617 62.3875 94.4551 61.7866 93.7069 61.7866H90.4496V59.4979L96.4113 59.4982Z" fill="white"/>
<path d="M83.1764 73.4072V67.5836C83.1764 65.9068 81.7992 64.5424 80.1066 64.5424H57.9219C56.2293 64.5424 54.8521 65.9068 54.8521 67.5836V73.4072C54.8521 75.084 56.2293 76.4484 57.9219 76.4484H64.7224V84.1799C64.7224 84.7046 65.0295 85.1544 65.4723 85.3747V86.6479H50.2881V49.5493H57.0899L57.8679 50.9585C58.0373 51.2662 58.363 51.4575 58.7168 51.4575C59.0706 51.4575 59.3959 51.2662 59.5657 50.9589L60.3437 49.5493L61.311 47.7976L62.0532 47.3958L63.0338 46.8651H63.0321L64.5004 46.0695C64.811 45.9018 65.0041 45.5791 65.0041 45.2286C65.0041 44.8781 64.811 44.5558 64.5004 44.3876L61.31 42.6591L59.5652 39.4986C59.3959 39.1909 59.0702 39 58.7164 39C58.3626 39 58.0373 39.1913 57.8675 39.4986L56.1231 42.6591L52.9328 44.3876C52.6221 44.5554 52.429 44.8781 52.429 45.2286C52.429 45.5791 52.6221 45.9013 52.9328 46.0695L54.4011 46.8651H48.9333C48.8905 46.8651 48.8521 46.8651 48.8093 46.8728H48.7942C48.7882 46.8737 48.7821 46.8754 48.7761 46.8762C48.7406 46.8737 48.7074 46.866 48.6715 46.866H41.3548C40.6065 46.866 40 47.4668 40 48.208C40 48.9493 40.6065 49.5501 41.3548 49.5501H47.5785V51.8389H44.0577C43.3095 51.8389 42.703 52.4398 42.703 53.181C42.703 53.9222 43.3095 54.5231 44.0577 54.5231H47.5785V56.8119H41.3548C40.6065 56.8119 40 57.4127 40 58.154C40 58.8952 40.6065 59.4961 41.3548 59.4961H47.5785V61.7848H44.0577C43.3095 61.7848 42.703 62.3857 42.703 63.1269C42.703 63.8682 43.3095 64.469 44.0577 64.469H47.5785V66.7582L41.3548 66.7587C40.6065 66.7587 40 67.3595 40 68.1008C40 68.842 40.6065 69.4429 41.3548 69.4429H47.5785V71.7316H44.0577C43.3095 71.7316 42.703 72.3325 42.703 73.0737C42.703 73.815 43.3095 74.4158 44.0577 74.4158H47.5785V76.7046H41.3548C40.6065 76.7046 40 77.3055 40 78.0467C40 78.7879 40.6065 79.3888 41.3548 79.3888H47.5785V81.678H44.0577C43.3095 81.678 42.703 82.2789 42.703 83.0201C42.703 83.7613 43.3095 84.3622 44.0577 84.3622H47.5785V86.651L41.3548 86.6514C40.6065 86.6514 40 87.2523 40 87.9935C40 88.7347 40.6065 89.3356 41.3548 89.3356H48.6715C48.7104 89.3356 48.7471 89.3274 48.7851 89.324C48.7881 89.3244 48.7907 89.3257 48.7942 89.3257H48.8097C48.8525 89.3334 48.891 89.3334 48.9337 89.3334H65.4728V95.2235C65.4728 95.9647 66.0793 96.5656 66.8275 96.5656H71.1617C71.9099 96.5656 72.5165 95.9647 72.5165 95.2235L72.516 89.333H72.5178V86.6488H72.516V85.3756C72.9588 85.1548 73.266 84.7054 73.266 84.1808V76.4493H80.1066C81.7997 76.4493 83.1765 75.0854 83.1765 73.4081L83.1764 73.4072ZM57.685 46.6312C57.5964 46.4703 57.4629 46.338 57.3001 46.2499L55.4135 45.2275L57.3001 44.2051C57.4625 44.1173 57.596 43.9851 57.685 43.8237L58.7166 41.9548L59.7486 43.8237C59.8372 43.9842 59.9707 44.1169 60.1336 44.2051L62.0201 45.2275L60.1336 46.2499C59.9711 46.3376 59.8376 46.4698 59.7486 46.6312L58.7166 48.5001L57.685 46.6312ZM69.8059 93.8804H68.1811V85.5578H69.8059V93.8804ZM67.4316 82.838V74.2402C67.4316 73.3869 68.1327 72.6927 68.9937 72.6927C69.8551 72.6927 70.5558 73.3873 70.5558 74.2402V82.8376L67.4316 82.838ZM73.2363 73.764C72.9961 71.6541 71.186 70.0086 68.9937 70.0086C66.8013 70.0086 64.9908 71.6545 64.751 73.764H57.9211C57.7224 73.764 57.5608 73.6035 57.5608 73.407V67.5834C57.5608 67.3865 57.7228 67.2264 57.9211 67.2264H80.1058C80.3046 67.2264 80.4661 67.3869 80.4661 67.5834L80.4666 73.407C80.4666 73.6039 80.3046 73.764 80.1063 73.764H73.2363Z" fill="white"/>
</svg>
