<svg width="136" height="136" viewBox="0 0 136 136" fill="none" xmlns="http://www.w3.org/2000/svg">
<path fill-rule="evenodd" clip-rule="evenodd" d="M93.7001 10.5901C99.0348 9.16073 104.518 12.3266 105.948 17.6612L125.411 90.2988C126.84 95.6335 123.674 101.117 118.34 102.546L45.7021 122.009C40.3674 123.439 34.884 120.273 33.4546 114.938L13.9914 42.3008C12.562 36.9661 15.7278 31.4828 21.0625 30.0533L93.7001 10.5901Z" fill="#C5ECDC"/>
<path fill-rule="evenodd" clip-rule="evenodd" d="M60.9289 7.75467C64.8342 3.84942 71.1658 3.84942 75.0711 7.75466L128.245 60.9291C132.151 64.8343 132.151 71.166 128.245 75.0712L75.0711 128.246C71.1658 132.151 64.8342 132.151 60.9289 128.246L7.75451 75.0712C3.84927 71.166 3.84926 64.8343 7.75451 60.9291L60.9289 7.75467Z" fill="white"/>
<path d="M78.4763 59.2241L79.7473 61.5266C79.9166 61.8343 80.2423 62.0256 80.5961 62.0256C80.9499 62.0256 81.2752 61.8343 81.445 61.5266L82.7159 59.2241L85.0406 57.9647C85.3512 57.7969 85.5439 57.4738 85.5439 57.1237C85.5439 56.7732 85.3508 56.451 85.0402 56.2828L82.716 55.0237L81.445 52.7212C81.2757 52.4135 80.95 52.2227 80.5962 52.2227C80.2423 52.2227 79.9171 52.414 79.7473 52.7212L78.4763 55.0237L76.1521 56.2828C75.8415 56.4505 75.6484 56.7732 75.6484 57.1237C75.6484 57.4742 75.8411 57.7965 76.1517 57.9647L78.4763 59.2241ZM79.6536 56.5703C79.816 56.4826 79.9495 56.3503 80.0385 56.189L80.5967 55.1777L81.1548 56.189C81.2434 56.3495 81.3768 56.4821 81.5397 56.5703L82.5605 57.1232L81.5393 57.6766C81.3773 57.7643 81.2434 57.8966 81.1548 58.0579L80.5967 59.0692L80.0385 58.0579C79.9499 57.8974 79.8165 57.7648 79.654 57.6766L78.6328 57.1232L79.6536 56.5703Z" fill="#0E8778"/>
<path d="M96.4113 59.4962C97.1596 59.4962 97.7661 58.8953 97.7661 58.1541C97.7661 57.4129 97.1596 56.812 96.4113 56.812H90.4507V54.5232H93.7079C94.4561 54.5232 95.0627 53.9224 95.0627 53.1811C95.0627 52.4399 94.4561 51.8391 93.7079 51.8391H90.4507V49.5503H96.4113C97.1596 49.5503 97.7661 48.9494 97.7661 48.2082C97.7661 47.467 97.1596 46.8661 96.4113 46.8661H89.1037C89.1011 46.8661 89.0985 46.8652 89.0959 46.8652H65.0355C65.0122 46.8845 64.9888 46.8999 64.9659 46.9115L62.024 48.5026L61.4473 49.5494H87.7405V53.1678C87.7405 53.1725 87.7388 53.1767 87.7388 53.181C87.7388 53.1857 87.7401 53.19 87.7405 53.1943V58.1406C87.7405 58.1453 87.7388 58.1496 87.7388 58.1539C87.7388 58.1586 87.7401 58.1629 87.7405 58.1672V63.1135C87.7405 63.1182 87.7388 63.1225 87.7388 63.1268C87.7388 63.1315 87.7401 63.1358 87.7405 63.14V68.0864C87.7405 68.0911 87.7388 68.0954 87.7388 68.0996C87.7388 68.1044 87.7401 68.1086 87.7405 68.1129V73.0592C87.7405 73.064 87.7388 73.0682 87.7388 73.0725C87.7388 73.0772 87.7401 73.0815 87.7405 73.0858V78.0321C87.7405 78.0368 87.7388 78.0411 87.7388 78.0454C87.7388 78.0501 87.7401 78.0544 87.7405 78.0587V83.005C87.7405 83.0097 87.7388 83.014 87.7388 83.0183C87.7388 83.023 87.7401 83.0273 87.7405 83.0315V86.647L73.4841 86.6487V89.3329H89.0742C89.0807 89.3329 89.0872 89.3346 89.0937 89.3346H96.41C97.1582 89.3346 97.7647 88.7337 97.7647 87.9925C97.7647 87.2512 97.1582 86.6504 96.41 86.6504H90.4496V84.3616H93.7069C94.4551 84.3616 95.0617 83.7607 95.0617 83.0195C95.0617 82.2783 94.4551 81.6774 93.7069 81.6774H90.4496V79.3882H96.4103C97.1585 79.3882 97.7651 78.7873 97.7651 78.0461C97.7651 77.3049 97.1585 76.704 96.4103 76.704H90.4496V74.4152H93.7069C94.4551 74.4152 95.0617 73.8144 95.0617 73.0731C95.0617 72.3319 94.4551 71.7311 93.7069 71.7311H90.4496V69.4423H96.4103C97.1585 69.4423 97.7651 68.8414 97.7651 68.1002C97.7651 67.3589 97.1585 66.7581 96.4103 66.7581H90.4496V64.4689H93.7069C94.4551 64.4689 95.0617 63.868 95.0617 63.1268C95.0617 62.3855 94.4551 61.7847 93.7069 61.7847H90.4496V59.4959L96.4113 59.4962Z" fill="#0E8778"/>
<path d="M83.1764 73.4072V67.5836C83.1764 65.9068 81.7992 64.5424 80.1066 64.5424H57.9219C56.2293 64.5424 54.8521 65.9068 54.8521 67.5836V73.4072C54.8521 75.084 56.2293 76.4484 57.9219 76.4484H64.7224V84.1799C64.7224 84.7046 65.0295 85.1544 65.4723 85.3747V86.6479H50.2881V49.5493H57.0899L57.8679 50.9585C58.0373 51.2662 58.363 51.4575 58.7168 51.4575C59.0706 51.4575 59.3959 51.2662 59.5657 50.9589L60.3437 49.5493L61.311 47.7976L62.0532 47.3958L63.0338 46.8651H63.0321L64.5004 46.0695C64.811 45.9018 65.0041 45.5791 65.0041 45.2286C65.0041 44.8781 64.811 44.5558 64.5004 44.3876L61.31 42.6591L59.5652 39.4986C59.3959 39.1909 59.0702 39 58.7164 39C58.3626 39 58.0373 39.1913 57.8675 39.4986L56.1231 42.6591L52.9328 44.3876C52.6221 44.5554 52.429 44.8781 52.429 45.2286C52.429 45.5791 52.6221 45.9013 52.9328 46.0695L54.4011 46.8651H48.9333C48.8905 46.8651 48.8521 46.8651 48.8093 46.8728H48.7942C48.7882 46.8737 48.7821 46.8754 48.7761 46.8762C48.7406 46.8737 48.7074 46.866 48.6715 46.866H41.3548C40.6065 46.866 40 47.4668 40 48.208C40 48.9493 40.6065 49.5501 41.3548 49.5501H47.5785V51.8389H44.0577C43.3095 51.8389 42.703 52.4398 42.703 53.181C42.703 53.9222 43.3095 54.5231 44.0577 54.5231H47.5785V56.8119H41.3548C40.6065 56.8119 40 57.4127 40 58.154C40 58.8952 40.6065 59.4961 41.3548 59.4961H47.5785V61.7848H44.0577C43.3095 61.7848 42.703 62.3857 42.703 63.1269C42.703 63.8682 43.3095 64.469 44.0577 64.469H47.5785V66.7582L41.3548 66.7587C40.6065 66.7587 40 67.3595 40 68.1008C40 68.842 40.6065 69.4429 41.3548 69.4429H47.5785V71.7316H44.0577C43.3095 71.7316 42.703 72.3325 42.703 73.0737C42.703 73.815 43.3095 74.4158 44.0577 74.4158H47.5785V76.7046H41.3548C40.6065 76.7046 40 77.3055 40 78.0467C40 78.7879 40.6065 79.3888 41.3548 79.3888H47.5785V81.678H44.0577C43.3095 81.678 42.703 82.2789 42.703 83.0201C42.703 83.7613 43.3095 84.3622 44.0577 84.3622H47.5785V86.651L41.3548 86.6514C40.6065 86.6514 40 87.2523 40 87.9935C40 88.7347 40.6065 89.3356 41.3548 89.3356H48.6715C48.7104 89.3356 48.7471 89.3274 48.7851 89.324C48.7881 89.3244 48.7907 89.3257 48.7942 89.3257H48.8097C48.8525 89.3334 48.891 89.3334 48.9337 89.3334H65.4728V95.2235C65.4728 95.9647 66.0793 96.5656 66.8275 96.5656H71.1617C71.9099 96.5656 72.5165 95.9647 72.5165 95.2235L72.516 89.333H72.5178V86.6488H72.516V85.3756C72.9588 85.1548 73.266 84.7054 73.266 84.1808V76.4493H80.1066C81.7997 76.4493 83.1765 75.0854 83.1765 73.4081L83.1764 73.4072ZM57.685 46.6312C57.5964 46.4703 57.4629 46.338 57.3001 46.2499L55.4135 45.2275L57.3001 44.2051C57.4625 44.1173 57.596 43.9851 57.685 43.8237L58.7166 41.9548L59.7486 43.8237C59.8372 43.9842 59.9707 44.1169 60.1336 44.2051L62.0201 45.2275L60.1336 46.2499C59.9711 46.3376 59.8376 46.4698 59.7486 46.6312L58.7166 48.5001L57.685 46.6312ZM69.8059 93.8804H68.1811V85.5578H69.8059V93.8804ZM67.4316 82.838V74.2402C67.4316 73.3869 68.1327 72.6927 68.9937 72.6927C69.8551 72.6927 70.5558 73.3873 70.5558 74.2402V82.8376L67.4316 82.838ZM73.2363 73.764C72.9961 71.6541 71.186 70.0086 68.9937 70.0086C66.8013 70.0086 64.9908 71.6545 64.751 73.764H57.9211C57.7224 73.764 57.5608 73.6035 57.5608 73.407V67.5834C57.5608 67.3865 57.7228 67.2264 57.9211 67.2264H80.1058C80.3046 67.2264 80.4661 67.3869 80.4661 67.5834L80.4666 73.407C80.4666 73.6039 80.3046 73.764 80.1063 73.764H73.2363Z" fill="#0E8778"/>
</svg>
