<svg width="62" height="62" viewBox="0 0 62 62" fill="none" xmlns="http://www.w3.org/2000/svg">
<rect width="62" height="62" rx="10" fill="#E7F3F2"/>
<path d="M38.2291 24.9424L39.1615 26.6435C39.2858 26.8709 39.5247 27.0122 39.7843 27.0122C40.0439 27.0122 40.2826 26.8709 40.4071 26.6435L41.3396 24.9424L43.0451 24.0119C43.273 23.8879 43.4144 23.6492 43.4144 23.3905C43.4144 23.1316 43.2727 22.8935 43.0448 22.7692L41.3396 21.839L40.4071 20.1379C40.2829 19.9106 40.0439 19.7695 39.7843 19.7695C39.5248 19.7695 39.2861 19.9109 39.1615 20.1379L38.2291 21.839L36.5239 22.7692C36.296 22.8932 36.1543 23.1316 36.1543 23.3905C36.1543 23.6495 36.2957 23.8876 36.5235 24.0119L38.2291 24.9424ZM39.0928 22.9817C39.212 22.9169 39.3099 22.8192 39.3752 22.7L39.7847 21.9528L40.1942 22.7C40.2592 22.8185 40.3571 22.9165 40.4766 22.9817L41.2256 23.3902L40.4763 23.799C40.3574 23.8639 40.2592 23.9616 40.1942 24.0808L39.7847 24.8279L39.3752 24.0808C39.3102 23.9622 39.2123 23.8642 39.0931 23.799L38.3438 23.3902L39.0928 22.9817Z" fill="#0E8778"/>
<path d="M51.3887 25.1426C51.9377 25.1426 52.3827 24.6987 52.3827 24.151C52.3827 23.6034 51.9377 23.1595 51.3887 23.1595H47.0155V21.4685H49.4053C49.9543 21.4685 50.3993 21.0245 50.3993 20.4769C50.3993 19.9293 49.9543 19.4853 49.4053 19.4853H47.0155V17.7943H51.3887C51.9377 17.7943 52.3827 17.3504 52.3827 16.8027C52.3827 16.2551 51.9377 15.8112 51.3887 15.8112H46.0272C46.0253 15.8112 46.0234 15.8105 46.0215 15.8105H28.3689C28.3518 15.8248 28.3347 15.8362 28.3179 15.8447L26.1595 17.0203L25.7363 17.7937H45.0271V20.467C45.0271 20.4705 45.0259 20.4736 45.0259 20.4768C45.0259 20.4803 45.0268 20.4834 45.0271 20.4866V24.1411C45.0271 24.1446 45.0259 24.1477 45.0259 24.1509C45.0259 24.1544 45.0268 24.1575 45.0271 24.1607V27.8152C45.0271 27.8186 45.0259 27.8218 45.0259 27.825C45.0259 27.8284 45.0268 27.8316 45.0271 27.8348V31.4893C45.0271 31.4927 45.0259 31.4959 45.0259 31.4991C45.0259 31.5025 45.0268 31.5057 45.0271 31.5089V35.1633C45.0271 35.1668 45.0259 35.17 45.0259 35.1731C45.0259 35.1766 45.0268 35.1798 45.0271 35.1829V38.8374C45.0271 38.8409 45.0259 38.8441 45.0259 38.8472C45.0259 38.8507 45.0268 38.8539 45.0271 38.857V42.5115C45.0271 42.515 45.0259 42.5181 45.0259 42.5213C45.0259 42.5248 45.0268 42.5279 45.0271 42.5311V45.2023L34.5675 45.2035V47.1867H46.0057C46.0104 47.1867 46.0152 47.1879 46.0199 47.1879H51.3878C51.9367 47.1879 52.3817 46.744 52.3817 46.1964C52.3817 45.6487 51.9367 45.2048 51.3878 45.2048H47.0148V43.5138H49.4046C49.9535 43.5138 50.3985 43.0699 50.3985 42.5222C50.3985 41.9746 49.9535 41.5306 49.4046 41.5306H47.0148V39.8393H51.388C51.937 39.8393 52.382 39.3954 52.382 38.8477C52.382 38.3001 51.937 37.8562 51.388 37.8562H47.0148V36.1652H49.4046C49.9535 36.1652 50.3985 35.7212 50.3985 35.1736C50.3985 34.626 49.9535 34.182 49.4046 34.182H47.0148V32.491H51.388C51.937 32.491 52.382 32.0471 52.382 31.4994C52.382 30.9518 51.937 30.5079 51.388 30.5079H47.0148V28.8165H49.4046C49.9535 28.8165 50.3985 28.3726 50.3985 27.825C50.3985 27.2773 49.9535 26.8334 49.4046 26.8334H47.0148V25.1424L51.3887 25.1426Z" fill="#0E8778"/>
<path d="M41.6776 35.4209V31.1182C41.6776 29.8794 40.6672 28.8714 39.4254 28.8714H23.1489C21.9071 28.8714 20.8966 29.8794 20.8966 31.1182V35.4209C20.8966 36.6598 21.9071 37.6678 23.1489 37.6678H28.1383V43.38C28.1383 43.7677 28.3636 44.1 28.6885 44.2628V45.2035H17.5481V17.7941H22.5385L23.1093 18.8352C23.2336 19.0626 23.4726 19.2039 23.7321 19.2039C23.9917 19.2039 24.2304 19.0626 24.3549 18.8356L24.9258 17.794L25.6354 16.4999L26.1799 16.203L26.8994 15.8109H26.8982L27.9754 15.2231C28.2033 15.0992 28.345 14.8608 28.345 14.6018C28.345 14.3429 28.2033 14.1048 27.9754 13.9805L25.6347 12.7034L24.3546 10.3684C24.2304 10.141 23.9914 10 23.7318 10C23.4722 10 23.2336 10.1413 23.109 10.3684L21.8292 12.7034L19.4885 13.9805C19.2606 14.1044 19.1189 14.3429 19.1189 14.6018C19.1189 14.8608 19.2606 15.0989 19.4885 15.2231L20.5658 15.8109H16.5542C16.5228 15.8109 16.4946 15.8109 16.4632 15.8166H16.4521C16.4477 15.8173 16.4432 15.8185 16.4388 15.8191C16.4128 15.8173 16.3884 15.8116 16.3621 15.8116H10.994C10.445 15.8116 10 16.2555 10 16.8031C10 17.3508 10.445 17.7947 10.994 17.7947H15.5602V19.4857H12.9771C12.4281 19.4857 11.9831 19.9296 11.9831 20.4773C11.9831 21.0249 12.4281 21.4688 12.9771 21.4688H15.5602V23.1599H10.994C10.445 23.1599 10 23.6038 10 24.1514C10 24.6991 10.445 25.143 10.994 25.143H15.5602V26.834H12.9771C12.4281 26.834 11.9831 27.2779 11.9831 27.8256C11.9831 28.3732 12.4281 28.8171 12.9771 28.8171H15.5602V30.5085L10.994 30.5088C10.445 30.5088 10 30.9527 10 31.5004C10 32.048 10.445 32.4919 10.994 32.4919H15.5602V34.1829H12.9771C12.4281 34.1829 11.9831 34.6269 11.9831 35.1745C11.9831 35.7221 12.4281 36.1661 12.9771 36.1661H15.5602V37.8571H10.994C10.445 37.8571 10 38.301 10 38.8487C10 39.3963 10.445 39.8402 10.994 39.8402H15.5602V41.5316H12.9771C12.4281 41.5316 11.9831 41.9755 11.9831 42.5231C11.9831 43.0708 12.4281 43.5147 12.9771 43.5147H15.5602V45.2057L10.994 45.206C10.445 45.206 10 45.65 10 46.1976C10 46.7452 10.445 47.1892 10.994 47.1892H16.3621C16.3906 47.1892 16.4176 47.1832 16.4455 47.1806C16.4477 47.1809 16.4496 47.1819 16.4521 47.1819H16.4635C16.4949 47.1876 16.5231 47.1876 16.5545 47.1876H28.6888V51.5393C28.6888 52.087 29.1338 52.5309 29.6828 52.5309H32.8627C33.4117 52.5309 33.8567 52.087 33.8567 51.5393L33.8563 47.1873H33.8576V45.2041H33.8563V44.2635C34.1812 44.1003 34.4066 43.7683 34.4066 43.3807V37.6684H39.4254C40.6676 37.6684 41.6777 36.6608 41.6777 35.4216L41.6776 35.4209ZM22.9751 15.6381C22.9101 15.5192 22.8122 15.4215 22.6927 15.3564L21.3085 14.601L22.6927 13.8456C22.8119 13.7808 22.9098 13.6831 22.9751 13.5639L23.732 12.1831L24.4892 13.5639C24.5541 13.6825 24.6521 13.7805 24.7716 13.8456L26.1557 14.601L24.7716 15.3564C24.6524 15.4212 24.5545 15.5189 24.4892 15.6381L23.732 17.0189L22.9751 15.6381ZM31.8679 50.547H30.6759V44.3981H31.8679V50.547ZM30.126 42.3886V36.0363C30.126 35.4059 30.6404 34.893 31.272 34.893C31.904 34.893 32.4181 35.4062 32.4181 36.0363V42.3883L30.126 42.3886ZM34.3848 35.6845C34.2086 34.1256 32.8805 32.9099 31.272 32.9099C29.6635 32.9099 28.3352 34.126 28.1593 35.6845H23.1483C23.0025 35.6845 22.884 35.5659 22.884 35.4208V31.1181C22.884 30.9726 23.0028 30.8544 23.1483 30.8544H39.4248C39.5706 30.8544 39.6891 30.973 39.6891 31.1181L39.6895 35.4208C39.6895 35.5662 39.5706 35.6845 39.4251 35.6845H34.3848Z" fill="#0E8778"/>
</svg>
