<svg width="64" height="64" viewBox="0 0 64 64" fill="none" xmlns="http://www.w3.org/2000/svg">
<path fill-rule="evenodd" clip-rule="evenodd" d="M38.8974 6.63361C44.2301 5.19717 49.7063 8.35883 51.1288 13.6954L57.4362 37.3589C58.8586 42.6954 55.6887 48.186 50.3559 49.6224L26.9038 55.9395C21.571 57.3759 16.0948 54.2143 14.6724 48.8777L8.36497 25.2142C6.94254 19.8776 10.1125 14.3871 15.4453 12.9506L38.8974 6.63361Z" fill="#B7DBD7"/>
<path fill-rule="evenodd" clip-rule="evenodd" d="M25.0569 7.69996C28.9519 3.78448 35.2669 3.78447 39.1619 7.69995L56.3621 24.9907C60.2571 28.9062 60.2571 35.2545 56.3622 39.17L39.1619 56.4608C35.2669 60.3762 28.9519 60.3762 25.0569 56.4608L7.8566 39.17C3.96162 35.2545 3.96161 28.9062 7.85659 24.9908L25.0569 7.69996Z" fill="#3E9F93"/>
<path d="M19.8022 32.8835C19.6803 32.8835 19.5835 32.7935 19.5835 32.6802L19.5833 27.8367C19.5833 27.7234 19.6801 27.6333 19.8019 27.6333C19.9238 27.6333 20.0206 27.7233 20.0206 27.8367V32.677C20.0208 32.7935 19.924 32.8836 19.8022 32.8836V32.8835Z" fill="white"/>
<path d="M19.8022 45.5922C19.6803 45.5922 19.5835 45.5022 19.5835 45.3889L19.5833 35.135C19.5833 35.0217 19.6801 34.9316 19.8019 34.9316C19.9238 34.9316 20.0206 35.0217 20.0206 35.135V45.3889C20.0208 45.4989 19.924 45.5922 19.8022 45.5922Z" fill="white"/>
<path d="M21.3512 44.7754C21.2294 44.7754 21.1326 44.6853 21.1326 44.572L21.1323 27.8367C21.1323 27.7234 21.2291 27.6333 21.351 27.6333C21.4728 27.6333 21.5696 27.7233 21.5696 27.8367V44.5684C21.5699 44.682 21.4731 44.7753 21.3512 44.7753V44.7754Z" fill="white"/>
<path d="M22.9013 39.1582C22.7794 39.1582 22.6826 39.0682 22.6826 38.9548V27.8367C22.6826 27.7234 22.7794 27.6333 22.9013 27.6333C23.0231 27.6333 23.1199 27.7233 23.1199 27.8367V38.9513C23.1202 39.0646 23.0231 39.1579 22.9013 39.1579V39.1582Z" fill="white"/>
<path d="M22.9013 45.5925C22.7794 45.5925 22.6826 45.5024 22.6826 45.3891V40.262C22.6826 40.1486 22.7794 40.0586 22.9013 40.0586C23.0231 40.0586 23.1199 40.1486 23.1199 40.262V45.3889C23.1202 45.4992 23.0231 45.5925 22.9013 45.5925V45.5925Z" fill="white"/>
<path d="M24.4506 44.7754C24.3288 44.7754 24.2319 44.6853 24.2319 44.572V27.8367C24.2319 27.7234 24.3288 27.6333 24.4506 27.6333C24.5724 27.6333 24.6693 27.7233 24.6693 27.8367V44.5684C24.6695 44.682 24.5727 44.7753 24.4506 44.7753V44.7754Z" fill="white"/>
<path d="M25.9967 30.9788C25.8749 30.9788 25.7781 30.8888 25.7781 30.7755V27.8367C25.7781 27.7234 25.8749 27.6333 25.9967 27.6333C26.1186 27.6333 26.2154 27.7233 26.2154 27.8367V30.7755C26.2192 30.8888 26.1186 30.9788 25.9967 30.9788Z" fill="white"/>
<path d="M25.997 45.5928C25.8752 45.5928 25.7783 45.5028 25.7783 45.3894L25.7781 32.2966C25.7781 32.1833 25.8749 32.0933 25.9967 32.0933C26.1186 32.0933 26.2154 32.1833 26.2154 32.2966V45.3894C26.2194 45.4995 26.1188 45.5928 25.997 45.5928H25.997Z" fill="white"/>
<path d="M44.8157 45.5926C44.3278 45.5926 44.0769 45.329 43.876 45.1156C43.6966 44.9255 43.5533 44.7754 43.2663 44.7754C42.9758 44.7754 42.8322 44.9255 42.6531 45.1156C42.4522 45.3292 42.1975 45.5926 41.7134 45.5926C41.2256 45.5926 40.9746 45.329 40.7737 45.1156C40.5943 44.9255 40.451 44.7754 40.1605 44.7754C39.8701 44.7754 39.7302 44.9255 39.5508 45.1156C39.3499 45.3292 39.0952 45.5926 38.6111 45.5926C38.1233 45.5926 37.8724 45.329 37.6714 45.1156C37.4921 44.9255 37.3487 44.7754 37.0617 44.7754C36.9399 44.7754 36.8431 44.6854 36.8431 44.5721L36.8426 25.8585C36.8426 25.7452 36.9394 25.6551 37.0612 25.6551C37.1831 25.6551 37.2799 25.7452 37.2799 25.8585V44.385C37.6279 44.4518 37.8323 44.6652 38.0009 44.842C38.1803 45.0321 38.3237 45.1822 38.6106 45.1822C38.9011 45.1822 39.041 45.0321 39.2238 44.842C39.4247 44.6284 39.6794 44.365 40.1635 44.365C40.6514 44.365 40.9023 44.6319 41.1068 44.8453C41.2861 45.0354 41.4295 45.1855 41.7164 45.1855C42.0069 45.1855 42.1468 45.0354 42.3261 44.8453C42.5305 44.6317 42.7817 44.3683 43.2694 44.3683C43.7572 44.3683 44.0081 44.6319 44.2091 44.8453C44.3884 45.0354 44.5318 45.1855 44.8222 45.1855C45.1127 45.1855 45.2563 45.0354 45.4354 44.8453C45.6041 44.6684 45.8085 44.4516 46.1565 44.3883L46.1572 20.2273C46.1572 19.7771 45.7627 19.4101 45.2786 19.4101H19.3185C18.8344 19.4101 18.4398 19.7771 18.4398 20.2273V44.3847C18.7878 44.4515 18.9922 44.6649 19.1608 44.8417C19.3402 45.0318 19.4836 45.1819 19.7705 45.1819C20.061 45.1819 20.2009 45.0318 20.3837 44.8417C20.5846 44.6281 20.8393 44.3647 21.3234 44.3647C21.8113 44.3647 22.0622 44.6316 22.2667 44.845C22.446 45.0351 22.5894 45.1851 22.8763 45.1851C23.1668 45.1851 23.3067 45.0351 23.486 44.845C23.6904 44.6314 23.9416 44.368 24.4293 44.368C24.9171 44.368 25.168 44.6316 25.369 44.845C25.5483 45.0351 25.6917 45.1851 25.9822 45.1851C26.2726 45.1851 26.4162 45.0351 26.5953 44.845C26.764 44.6681 26.9684 44.4513 27.3164 44.388L27.3169 25.8585C27.3169 25.7452 27.4137 25.6551 27.5356 25.6551C27.6574 25.6551 27.7542 25.7452 27.7542 25.8585V44.572C27.7542 44.6853 27.6574 44.7754 27.5356 44.7754C27.2451 44.7754 27.1052 44.9255 26.9259 45.1156C26.7215 45.3292 26.4703 45.5926 25.9826 45.5926C25.4948 45.5926 25.2439 45.3289 25.0429 45.1156C24.8636 44.9255 24.7202 44.7754 24.4332 44.7754C24.1428 44.7754 23.9992 44.9255 23.8201 45.1156C23.6192 45.3292 23.3645 45.5926 22.8804 45.5926C22.3925 45.5926 22.1416 45.3289 21.9407 45.1156C21.7613 44.9255 21.6179 44.7754 21.331 44.7754C21.0405 44.7754 20.9006 44.9255 20.7213 45.1156C20.5204 45.3292 20.2657 45.5926 19.7816 45.5926C19.2937 45.5926 19.0428 45.3289 18.8419 45.1156C18.6625 44.9255 18.5191 44.7754 18.2287 44.7754C18.1068 44.7754 18.01 44.6853 18.01 44.572L18.0095 20.2276C18.0095 19.5505 18.6012 19 19.3295 19H45.2819C46.0099 19 46.6018 19.5503 46.6018 20.2276V44.5685C46.6018 44.6818 46.505 44.7718 46.3832 44.7718C46.0927 44.7718 45.9528 44.9219 45.7735 45.112C45.5581 45.3256 45.3034 45.5925 44.8155 45.5925L44.8157 45.5926Z" fill="white"/>
<path d="M32.2949 27.4952C30.5231 27.4952 28.8339 26.985 27.4099 26.0207C25.258 24.57 23.9739 22.2282 23.9739 19.7567C23.9739 19.5565 23.9811 19.3697 23.9954 19.1896C24.0062 19.0763 24.1137 18.9928 24.2321 19.0028C24.3539 19.0128 24.4437 19.1096 24.433 19.2229C24.4187 19.393 24.4114 19.5698 24.4114 19.7599C24.4114 22.0984 25.6273 24.3198 27.6646 25.6943C29.0131 26.6083 30.6127 27.092 32.2912 27.092C33.9697 27.092 35.5694 26.6083 36.9178 25.6943C38.9551 24.3201 40.1709 22.0984 40.1709 19.7599C40.1709 19.5698 40.1637 19.393 40.1494 19.2229C40.1387 19.1096 40.232 19.0128 40.3503 19.0028C40.4722 18.996 40.5762 19.0796 40.587 19.1896C40.6013 19.3697 40.6085 19.5566 40.6085 19.7567C40.6085 22.2284 39.3246 24.5702 37.176 26.0213C35.7559 26.9853 34.0667 27.4956 32.2949 27.4956V27.4952Z" fill="white"/>
<path d="M21.1904 26.0586C20.0928 26.0586 19.0241 25.7717 18.1024 25.2347C17.9983 25.1746 17.9698 25.0478 18.0343 24.951C18.0989 24.8542 18.2352 24.8277 18.3393 24.8878C19.1929 25.3848 20.1792 25.6484 21.1941 25.6484C22.8261 25.6484 24.3504 24.9713 25.3762 23.7937C25.4515 23.7069 25.5914 23.6936 25.6847 23.7637C25.778 23.8337 25.7923 23.9638 25.717 24.0506C24.6049 25.3248 22.9549 26.0586 21.1904 26.0586L21.1904 26.0586Z" fill="white"/>
<path d="M43.3992 26.0586C41.6347 26.0586 39.9848 25.328 38.8764 24.0506C38.8011 23.9638 38.8154 23.8337 38.9087 23.7637C39.002 23.6936 39.1419 23.7069 39.2172 23.7937C40.2429 24.9713 41.7673 25.6484 43.3992 25.6484C44.4143 25.6484 45.4004 25.3848 46.2541 24.8878C46.3581 24.8277 46.4945 24.8577 46.559 24.951C46.6236 25.0478 46.5913 25.1746 46.491 25.2347C45.5656 25.7717 44.4968 26.0586 43.3993 26.0586L43.3992 26.0586Z" fill="white"/>
<path d="M32.2953 26.269C30.8032 26.269 29.3829 25.8388 28.185 25.0281C27.4678 24.5411 26.858 23.9341 26.3774 23.2234C26.3129 23.1266 26.3451 22.9998 26.4455 22.9398C26.5495 22.8797 26.6859 22.9098 26.7504 23.0031C27.2023 23.6702 27.7727 24.2407 28.4469 24.6942C29.5658 25.4584 30.8965 25.862 32.2952 25.862C33.694 25.862 35.0247 25.4618 36.1473 24.7012C36.8216 24.2442 37.392 23.6772 37.8438 23.01C37.9084 22.9132 38.0447 22.8867 38.1488 22.9467C38.2529 23.0068 38.2814 23.1336 38.2168 23.2304C37.7362 23.941 37.1266 24.5513 36.4055 25.0351C35.2077 25.842 33.7873 26.269 32.2952 26.269H32.2953Z" fill="white"/>
<path d="M32.2946 25.046C31.086 25.046 29.9312 24.699 28.9592 24.0387C28.3783 23.645 27.8832 23.1514 27.4924 22.5742C27.4279 22.4774 27.4601 22.3506 27.5605 22.2905C27.6645 22.2305 27.8009 22.2605 27.8654 22.3538C28.2277 22.8876 28.6833 23.3411 29.2177 23.7048C30.1143 24.3118 31.1796 24.632 32.2949 24.632C33.4102 24.632 34.4755 24.3118 35.3686 23.7048C35.9065 23.3411 36.3621 22.8841 36.7244 22.3506C36.7889 22.2538 36.9253 22.2273 37.0294 22.2873C37.1334 22.3473 37.162 22.4742 37.0974 22.571C36.7064 23.148 36.2115 23.6418 35.6268 24.0387C34.6581 24.6956 33.5033 25.046 32.2947 25.046L32.2946 25.046Z" fill="white"/>
<path d="M45.052 24.8053C44.9301 24.8053 44.8333 24.7153 44.8333 24.602V20.6392H41.5229C41.401 20.6392 41.3042 20.5491 41.3042 20.4358C41.3042 20.3225 41.401 20.2324 41.5229 20.2324H45.0557C45.1775 20.2324 45.2743 20.3225 45.2743 20.4358V24.6022C45.2708 24.7153 45.174 24.8053 45.0519 24.8053H45.052Z" fill="white"/>
<path d="M19.5378 24.7016C19.4159 24.7016 19.3191 24.6116 19.3191 24.4983L19.3188 20.4319C19.3188 20.3186 19.4157 20.2285 19.5375 20.2285H23.1779C23.2998 20.2285 23.3966 20.3186 23.3966 20.4319C23.3966 20.5452 23.2998 20.6353 23.1779 20.6353H19.7599V24.498C19.7602 24.6116 19.6596 24.7016 19.5378 24.7016H19.5378Z" fill="white"/>
<path d="M38.6359 32.8835C38.5141 32.8835 38.4172 32.7935 38.4172 32.6802V27.8367C38.4172 27.7234 38.5141 27.6333 38.6359 27.6333C38.7577 27.6333 38.8546 27.7233 38.8546 27.8367V32.677C38.8583 32.7935 38.7577 32.8836 38.6359 32.8836V32.8835Z" fill="white"/>
<path d="M38.6359 45.5922C38.5141 45.5922 38.4172 45.5022 38.4172 45.3889V35.135C38.4172 35.0217 38.5141 34.9316 38.6359 34.9316C38.7577 34.9316 38.8546 35.0217 38.8546 35.135V45.3889C38.8583 45.4989 38.7577 45.5922 38.6359 45.5922Z" fill="white"/>
<path d="M40.1862 44.7754C40.0644 44.7754 39.9675 44.6853 39.9675 44.572V27.8367C39.9675 27.7234 40.0644 27.6333 40.1862 27.6333C40.308 27.6333 40.4049 27.7233 40.4049 27.8367V44.5684C40.4051 44.682 40.3083 44.7753 40.1862 44.7753V44.7754Z" fill="white"/>
<path d="M41.7353 39.1582C41.6134 39.1582 41.5166 39.0682 41.5166 38.9548V27.8367C41.5166 27.7234 41.6134 27.6333 41.7353 27.6333C41.8571 27.6333 41.9539 27.7233 41.9539 27.8367V38.9513C41.9577 39.0646 41.8574 39.1579 41.7353 39.1579V39.1582Z" fill="white"/>
<path d="M41.7353 45.5925C41.6134 45.5925 41.5166 45.5024 41.5166 45.3891V40.262C41.5166 40.1486 41.6134 40.0586 41.7353 40.0586C41.8571 40.0586 41.9539 40.1486 41.9539 40.262V45.3889C41.9577 45.4992 41.8574 45.5925 41.7353 45.5925V45.5925Z" fill="white"/>
<path d="M43.2848 44.7754C43.163 44.7754 43.0662 44.6853 43.0662 44.572L43.0659 27.8367C43.0659 27.7234 43.1627 27.6333 43.2846 27.6333C43.4064 27.6333 43.5032 27.7233 43.5032 27.8367V44.5684C43.5035 44.682 43.4067 44.7753 43.2848 44.7753L43.2848 44.7754Z" fill="white"/>
<path d="M44.8339 30.9788C44.7121 30.9788 44.6152 30.8888 44.6152 30.7755V27.8367C44.6152 27.7234 44.7121 27.6333 44.8339 27.6333C44.9557 27.6333 45.0526 27.7233 45.0526 27.8367V30.7755C45.0526 30.8888 44.9557 30.9788 44.8339 30.9788Z" fill="white"/>
<path d="M44.8341 45.5928C44.7123 45.5928 44.6155 45.5028 44.6155 45.3894L44.6152 32.2966C44.6152 32.1833 44.7121 32.0933 44.8339 32.0933C44.9557 32.0933 45.0526 32.1833 45.0526 32.2966V45.3894C45.0528 45.4995 44.956 45.5928 44.8341 45.5928H44.8341Z" fill="white"/>
</svg>
