<svg width="136" height="136" viewBox="0 0 136 136" fill="none" xmlns="http://www.w3.org/2000/svg">
<path fill-rule="evenodd" clip-rule="evenodd" d="M93.7001 10.5921C99.0348 9.16268 104.518 12.3285 105.948 17.6632L125.411 90.3008C126.84 95.6354 123.674 101.119 118.34 102.548L45.7021 122.011C40.3674 123.441 34.884 120.275 33.4546 114.94L13.9914 42.3027C12.562 36.9681 15.7278 31.4847 21.0625 30.0553L93.7001 10.5921Z" fill="#B7DBD7"/>
<path fill-rule="evenodd" clip-rule="evenodd" d="M60.9289 7.75467C64.8342 3.84942 71.1658 3.84942 75.0711 7.75466L128.245 60.9291C132.151 64.8343 132.151 71.166 128.245 75.0712L75.0711 128.246C71.1658 132.151 64.8342 132.151 60.9289 128.246L7.75451 75.0712C3.84927 71.166 3.84926 64.8343 7.75451 60.9291L60.9289 7.75467Z" fill="#3E9F93"/>
<path d="M45.3148 69.4577C45.0907 69.4577 44.9126 69.2796 44.9126 69.0554L44.9121 59.4764C44.9121 59.2523 45.0902 59.0742 45.3143 59.0742C45.5384 59.0742 45.7165 59.2523 45.7165 59.4764V69.0491C45.717 69.2796 45.5389 69.4577 45.3148 69.4577V69.4577Z" fill="white"/>
<path d="M45.3148 94.5913C45.0907 94.5913 44.9126 94.4132 44.9126 94.1891L44.9121 73.91C44.9121 73.6859 45.0902 73.5078 45.3143 73.5078C45.5384 73.5078 45.7165 73.6859 45.7165 73.91V94.1891C45.717 94.4068 45.5389 94.5913 45.3148 94.5913Z" fill="white"/>
<path d="M48.1644 92.9762C47.9403 92.9762 47.7622 92.7981 47.7622 92.574L47.7617 59.4764C47.7617 59.2523 47.9398 59.0742 48.1639 59.0742C48.388 59.0742 48.5661 59.2523 48.5661 59.4764V92.5669C48.5666 92.7915 48.3885 92.976 48.1644 92.976V92.9762Z" fill="white"/>
<path d="M51.0155 81.8671C50.7914 81.8671 50.6133 81.689 50.6133 81.4649V59.4764C50.6133 59.2523 50.7914 59.0742 51.0155 59.0742C51.2396 59.0742 51.4177 59.2523 51.4177 59.4764V81.4578C51.4181 81.6819 51.2396 81.8665 51.0155 81.8665V81.8671Z" fill="white"/>
<path d="M51.0155 94.5929C50.7914 94.5929 50.6133 94.4148 50.6133 94.1907V84.0506C50.6133 83.8265 50.7914 83.6484 51.0155 83.6484C51.2396 83.6484 51.4177 83.8265 51.4177 84.0506V94.1902C51.4181 94.4083 51.2396 94.5929 51.0155 94.5929V94.5929Z" fill="white"/>
<path d="M53.8651 92.9762C53.641 92.9762 53.4629 92.7981 53.4629 92.574V59.4764C53.4629 59.2523 53.641 59.0742 53.8651 59.0742C54.0892 59.0742 54.2673 59.2523 54.2673 59.4764V92.5669C54.2678 92.7915 54.0897 92.976 53.8651 92.976V92.9762Z" fill="white"/>
<path d="M56.7088 65.6907C56.4847 65.6907 56.3066 65.5126 56.3066 65.2885V59.4764C56.3066 59.2523 56.4847 59.0742 56.7088 59.0742C56.9329 59.0742 57.111 59.2523 57.111 59.4764V65.2885C57.1179 65.5126 56.933 65.6907 56.7088 65.6907Z" fill="white"/>
<path d="M56.7093 94.5927C56.4852 94.5927 56.3071 94.4146 56.3071 94.1905L56.3066 68.2967C56.3066 68.0726 56.4847 67.8945 56.7088 67.8945C56.933 67.8945 57.111 68.0726 57.111 68.2967V94.1905C57.1184 94.4081 56.9334 94.5927 56.7093 94.5927H56.7093Z" fill="white"/>
<path d="M91.3241 94.5924C90.4267 94.5924 89.9652 94.071 89.5956 93.649C89.2657 93.273 89.002 92.9762 88.4742 92.9762C87.9399 92.9762 87.6758 93.273 87.3463 93.649C86.9767 94.0714 86.5083 94.5924 85.6178 94.5924C84.7205 94.5924 84.2589 94.071 83.8894 93.649C83.5594 93.273 83.2957 92.9762 82.7615 92.9762C82.2272 92.9762 81.97 93.273 81.64 93.649C81.2705 94.0714 80.802 94.5924 79.9116 94.5924C79.0142 94.5924 78.5527 94.071 78.1831 93.649C77.8532 93.273 77.5895 92.9762 77.0617 92.9762C76.8376 92.9762 76.6595 92.7981 76.6595 92.574L76.6586 55.5641C76.6586 55.34 76.8366 55.1619 77.0607 55.1619C77.2849 55.1619 77.4629 55.34 77.4629 55.5641V92.2041C78.1031 92.3362 78.479 92.7582 78.7892 93.1079C79.1192 93.4839 79.3828 93.7807 79.9107 93.7807C80.4449 93.7807 80.7022 93.4839 81.0386 93.1079C81.4081 92.6855 81.8765 92.1645 82.767 92.1645C83.6644 92.1645 84.1259 92.6924 84.5019 93.1143C84.8319 93.4903 85.0956 93.7871 85.6234 93.7871C86.1577 93.7871 86.4149 93.4903 86.7448 93.1143C87.1208 92.6919 87.5828 92.171 88.4798 92.171C89.3771 92.171 89.8387 92.6924 90.2082 93.1143C90.5382 93.4903 90.8018 93.7871 91.3361 93.7871C91.8704 93.7871 92.1345 93.4903 92.464 93.1143C92.7742 92.7646 93.1501 92.3357 93.7903 92.2106L93.7916 44.4273C93.7916 43.5369 93.0659 42.8111 92.1755 42.8111H44.4252C43.5348 42.8111 42.809 43.5368 42.809 44.4273V92.2035C43.4491 92.3356 43.8251 92.7575 44.1353 93.1073C44.4652 93.4832 44.7289 93.7801 45.2567 93.7801C45.791 93.7801 46.0483 93.4832 46.3846 93.1073C46.7542 92.6848 47.2226 92.1639 48.1131 92.1639C49.0104 92.1639 49.472 92.6917 49.848 93.1137C50.178 93.4897 50.4417 93.7865 50.9695 93.7865C51.5037 93.7865 51.761 93.4897 52.0909 93.1137C52.4669 92.6913 52.9289 92.1704 53.8258 92.1704C54.7232 92.1704 55.1847 92.6917 55.5543 93.1137C55.8842 93.4897 56.1479 93.7865 56.6822 93.7865C57.2165 93.7865 57.4806 93.4897 57.8101 93.1137C58.1203 92.764 58.4962 92.3351 59.1364 92.2099L59.1373 55.5641C59.1373 55.3399 59.3154 55.1618 59.5395 55.1618C59.7636 55.1618 59.9417 55.3399 59.9417 55.5641V92.5739C59.9417 92.798 59.7636 92.9762 59.5395 92.9762C59.0052 92.9762 58.748 93.273 58.418 93.6489C58.0421 94.0714 57.58 94.5923 56.6831 94.5923C55.7857 94.5923 55.3242 94.0709 54.9546 93.6489C54.6247 93.273 54.361 92.9762 53.8332 92.9762C53.2989 92.9762 53.0348 93.273 52.7053 93.6489C52.3358 94.0714 51.8673 94.5923 50.9768 94.5923C50.0795 94.5923 49.618 94.0709 49.2484 93.6489C48.9184 93.273 48.6548 92.9762 48.1269 92.9762C47.5927 92.9762 47.3354 93.273 47.0055 93.6489C46.636 94.0714 46.1675 94.5923 45.277 94.5923C44.3797 94.5923 43.9182 94.0709 43.5486 93.6489C43.2186 93.273 42.955 92.9762 42.4207 92.9762C42.1966 92.9762 42.0185 92.7981 42.0185 92.5739L42.0176 44.4279C42.0176 43.0888 43.1059 42 44.4454 42H92.1816C93.5207 42 94.6094 43.0883 94.6094 44.4279V92.5669C94.6094 92.791 94.4313 92.9691 94.2072 92.9691C93.6729 92.9691 93.4157 93.2659 93.0858 93.6419C92.6895 94.0643 92.2211 94.5921 91.3237 94.5921L91.3241 94.5924Z" fill="white"/>
<path d="M68.2937 58.8011C65.0348 58.8011 61.9276 57.792 59.3083 55.885C55.3503 53.0158 52.9883 48.3845 52.9883 43.4965C52.9883 43.1007 53.0016 42.7312 53.0279 42.375C53.0476 42.1509 53.2455 41.9857 53.4632 42.0055C53.6873 42.0253 53.8525 42.2167 53.8327 42.4408C53.8065 42.7772 53.7931 43.127 53.7931 43.5029C53.7931 48.1278 56.0296 52.5211 59.7768 55.2393C62.2573 57.047 65.1996 58.0037 68.2869 58.0037C71.3742 58.0037 74.3167 57.0469 76.797 55.2393C80.5443 52.5216 82.7807 48.1278 82.7807 43.5029C82.7807 43.127 82.7673 42.7772 82.7411 42.4408C82.7213 42.2167 82.893 42.0253 83.1106 42.0055C83.3347 41.9922 83.5262 42.1574 83.546 42.375C83.5722 42.7312 83.5855 43.1007 83.5855 43.4965C83.5855 48.385 81.2239 53.0163 77.2718 55.8861C74.6599 57.7927 71.5527 58.8018 68.2937 58.8018V58.8011Z" fill="white"/>
<path d="M47.8683 55.9596C45.8495 55.9596 43.8837 55.3922 42.1883 54.3301C41.9969 54.2114 41.9444 53.9606 42.0632 53.7691C42.1819 53.5777 42.4327 53.5252 42.6241 53.644C44.1942 54.6269 46.0083 55.1484 47.8752 55.1484C50.8769 55.1484 53.6808 53.8093 55.5676 51.4802C55.7061 51.3086 55.9633 51.2824 56.135 51.4209C56.3066 51.5594 56.3329 51.8166 56.1943 51.9883C54.1489 54.5083 51.114 55.9596 47.8683 55.9596L47.8683 55.9596Z" fill="white"/>
<path d="M88.7185 55.9596C85.4728 55.9596 82.438 54.5146 80.3994 51.9883C80.2609 51.8166 80.2871 51.5594 80.4587 51.4209C80.6304 51.2824 80.8876 51.3086 81.0261 51.4802C82.9129 53.8093 85.7167 55.1484 88.7185 55.1484C90.5855 55.1484 92.3995 54.627 93.9696 53.644C94.161 53.5252 94.4118 53.5846 94.5306 53.7691C94.6493 53.9606 94.5899 54.2114 94.4054 54.3301C92.7032 55.3922 90.7373 55.9596 88.7185 55.9596L88.7185 55.9596Z" fill="white"/>
<path d="M68.2943 56.3762C65.5498 56.3762 62.9373 55.5253 60.734 53.9221C59.4147 52.9589 58.2932 51.7583 57.4091 50.3529C57.2904 50.1615 57.3498 49.9107 57.5343 49.792C57.7257 49.6732 57.9765 49.7326 58.0953 49.9171C58.9263 51.2364 59.9756 52.3648 61.2157 53.2617C63.2737 54.773 65.7213 55.5713 68.2942 55.5713C70.8671 55.5713 73.3147 54.7798 75.3796 53.2755C76.6198 52.3717 77.6691 51.2503 78.5001 49.9309C78.6188 49.7395 78.8696 49.687 79.061 49.8057C79.2525 49.9245 79.3049 50.1753 79.1862 50.3667C78.3022 51.7721 77.1808 52.9792 75.8545 53.9359C73.6512 55.5318 71.0387 56.3762 68.2942 56.3762H68.2943Z" fill="white"/>
<path d="M68.293 53.9565C66.0699 53.9565 63.9457 53.2703 62.1579 51.9644C61.0894 51.1857 60.1787 50.2096 59.4599 49.068C59.3412 48.8766 59.4006 48.6258 59.5851 48.507C59.7765 48.3883 60.0273 48.4477 60.146 48.6322C60.8124 49.6878 61.6504 50.5847 62.6333 51.304C64.2826 52.5046 66.242 53.1378 68.2935 53.1378C70.345 53.1378 72.3044 52.5046 73.9472 51.304C74.9366 50.5848 75.7746 49.681 76.441 48.6258C76.5597 48.4344 76.8105 48.3819 77.0019 48.5007C77.1933 48.6194 77.2458 48.8702 77.1271 49.0616C76.4078 50.2029 75.4976 51.1794 74.4221 51.9645C72.6403 53.2635 70.5162 53.9566 68.2931 53.9566L68.293 53.9565Z" fill="white"/>
<path d="M91.7588 53.4814C91.5347 53.4814 91.3566 53.3033 91.3566 53.0792V45.2419H85.2674C85.0433 45.2419 84.8652 45.0638 84.8652 44.8397C84.8652 44.6156 85.0433 44.4375 85.2674 44.4375H91.7656C91.9897 44.4375 92.1678 44.6156 92.1678 44.8397V53.0796C92.1614 53.3033 91.9833 53.4814 91.7587 53.4814H91.7588Z" fill="white"/>
<path d="M44.8284 53.2762C44.6043 53.2762 44.4262 53.0981 44.4262 52.874L44.4258 44.8319C44.4258 44.6078 44.6039 44.4297 44.828 44.4297H51.5241C51.7482 44.4297 51.9263 44.6078 51.9263 44.8319C51.9263 45.056 51.7482 45.2341 51.5241 45.2341H45.2371V52.8736C45.2376 53.0981 45.0526 53.2762 44.8285 53.2762H44.8284Z" fill="white"/>
<path d="M79.9569 69.4577C79.7328 69.4577 79.5547 69.2796 79.5547 69.0554V59.4764C79.5547 59.2523 79.7328 59.0742 79.9569 59.0742C80.181 59.0742 80.3591 59.2523 80.3591 59.4764V69.0491C80.366 69.2796 80.181 69.4577 79.9569 69.4577V69.4577Z" fill="white"/>
<path d="M79.9569 94.5913C79.7328 94.5913 79.5547 94.4132 79.5547 94.1891V73.91C79.5547 73.6859 79.7328 73.5078 79.9569 73.5078C80.181 73.5078 80.3591 73.6859 80.3591 73.91V94.1891C80.366 94.4068 80.181 94.5913 79.9569 94.5913Z" fill="white"/>
<path d="M82.8085 92.9762C82.5844 92.9762 82.4062 92.7981 82.4062 92.574V59.4764C82.4062 59.2523 82.5843 59.0742 82.8085 59.0742C83.0326 59.0742 83.2107 59.2523 83.2107 59.4764V92.5669C83.2111 92.7915 83.033 92.976 82.8085 92.976V92.9762Z" fill="white"/>
<path d="M85.6581 81.8671C85.434 81.8671 85.2559 81.689 85.2559 81.4649V59.4764C85.2559 59.2523 85.4339 59.0742 85.6581 59.0742C85.8822 59.0742 86.0603 59.2523 86.0603 59.4764V81.4578C86.0672 81.6819 85.8826 81.8665 85.6581 81.8665V81.8671Z" fill="white"/>
<path d="M85.6581 94.5929C85.434 94.5929 85.2559 94.4148 85.2559 94.1907V84.0506C85.2559 83.8265 85.4339 83.6484 85.6581 83.6484C85.8822 83.6484 86.0603 83.8265 86.0603 84.0506V94.1902C86.0672 94.4083 85.8826 94.5929 85.6581 94.5929V94.5929Z" fill="white"/>
<path d="M88.5081 92.9762C88.284 92.9762 88.1059 92.7981 88.1059 92.574L88.1055 59.4764C88.1055 59.2523 88.2836 59.0742 88.5077 59.0742C88.7318 59.0742 88.9099 59.2523 88.9099 59.4764V92.5669C88.9103 92.7915 88.7322 92.976 88.5081 92.976L88.5081 92.9762Z" fill="white"/>
<path d="M91.3573 65.6907C91.1332 65.6907 90.9551 65.5126 90.9551 65.2885V59.4764C90.9551 59.2523 91.1332 59.0742 91.3573 59.0742C91.5814 59.0742 91.7595 59.2523 91.7595 59.4764V65.2885C91.7595 65.5126 91.5814 65.6907 91.3573 65.6907Z" fill="white"/>
<path d="M91.3577 94.5927C91.1336 94.5927 90.9555 94.4146 90.9555 94.1905L90.9551 68.2967C90.9551 68.0726 91.1332 67.8945 91.3573 67.8945C91.5814 67.8945 91.7595 68.0726 91.7595 68.2967V94.1905C91.7599 94.4081 91.5818 94.5927 91.3577 94.5927H91.3577Z" fill="white"/>
</svg>
