<svg width="62" height="62" viewBox="0 0 62 62" fill="none" xmlns="http://www.w3.org/2000/svg">
<rect width="62" height="62" rx="10" fill="#E7F3F2"/>
<path d="M41.695 32.6031C41.5459 31.8014 41.0485 31.1068 40.2173 30.5386C40.0541 30.4251 39.8492 30.4018 39.6596 30.4694C39.473 30.5386 39.3315 30.6931 39.2803 30.885C39.2788 30.8949 39.0004 31.8618 38.1846 32.4812C37.3393 33.1246 35.5211 34.5262 34.9476 34.9677L32.6228 34.8775C32.2497 34.7781 31.0255 34.5728 29.9975 35.7491C29.3564 35.8891 27.6092 36.3723 26.8189 37.6201C26.3938 38.2915 26.304 39.0591 26.5509 39.9029C26.588 40.0287 26.6645 40.1392 26.7692 40.2183L28.136 41.2548L28.2985 42.7419C28.3318 43.0497 28.5891 43.2829 28.8983 43.2875L29.0723 43.2905C28.8857 44.5773 29.0834 46.4794 30.7139 47.7349L32.4022 50.2041C32.4385 50.302 32.7814 51.1691 33.6374 51.3836C33.7601 51.4146 33.8844 51.4302 34.0105 51.4302C34.4922 51.4302 34.9942 51.2051 35.5069 50.7574L36.988 49.7767C37.0671 49.7239 37.1325 49.654 37.1807 49.5718L39.6126 45.348C39.6978 45.199 39.7166 45.0219 39.6653 44.8587L38.7921 42.0663L40.2342 39.5614C40.2839 39.4727 40.3118 39.3733 40.3148 39.2724L40.3645 37.552C40.8103 37.1448 41.6246 36.1535 41.3872 34.5234C41.5692 34.1674 41.8521 33.443 41.6949 32.603L41.695 32.6031ZM40.2407 34.0647C40.1474 34.2016 40.1119 34.3694 40.1459 34.5327C40.446 36.023 39.4623 36.7175 39.4249 36.7424C39.2571 36.8529 39.1546 37.0375 39.1481 37.2383L39.0953 39.0829L37.5956 41.6872C37.5103 41.8363 37.4916 42.0137 37.5428 42.1766L38.416 44.9689L36.1906 48.8352L34.7951 49.7581C34.7718 49.7753 34.7485 49.7922 34.7267 49.8109C34.4037 50.0999 34.102 50.2398 33.9372 50.1963C33.7522 50.1511 33.5955 49.8916 33.485 49.6476L31.6698 46.9622C31.6308 46.9049 31.5811 46.8537 31.5245 46.8116C29.6152 45.4116 30.3841 42.9844 30.4174 42.8815C30.4778 42.6965 30.4476 42.4931 30.3352 42.3344C30.2216 42.1757 30.04 42.0794 29.8458 42.0764L29.4574 42.0702L29.3251 40.8583C29.3063 40.6905 29.2203 40.5383 29.0858 40.437L27.6804 39.3711C27.5952 38.9547 27.6518 38.5957 27.8528 38.2769C28.3992 37.4113 29.8979 36.9996 30.4284 36.9124C30.584 36.8876 30.7243 36.8039 30.8199 36.6792C31.4756 35.8183 32.2356 36.0358 32.314 36.0622C32.3733 36.0825 32.436 36.0947 32.4991 36.0981L35.1229 36.2006C35.2582 36.1945 35.4073 36.1601 35.5205 36.0733C35.5205 36.0733 37.9168 34.2225 38.9269 33.4564C39.4893 33.0282 39.8639 32.4968 40.1033 32.0571C40.8828 32.9739 40.3698 33.8704 40.2409 34.0647L40.2407 34.0647Z" fill="#0E8778"/>
<path d="M48.8849 35.8524C48.9014 35.753 48.9017 35.6506 48.865 35.5492C48.8647 35.5477 48.8631 35.5466 48.8624 35.5447C48.5588 32.781 47.6049 30.0741 45.9854 27.6863C45.7973 27.4064 45.4166 27.3334 45.1356 27.5223C44.8557 27.7127 44.7812 28.0934 44.9723 28.3729C46.4129 30.499 47.2795 32.8972 47.5992 35.3523L43.6266 36.7768C43.3735 36.867 43.2087 37.1125 43.221 37.3813L43.4136 41.6623L40.7531 44.3928C40.6334 44.5155 40.5696 44.6833 40.5792 44.8542L40.9091 50.762C35.311 54.7365 27.6211 54.8267 21.8819 50.6175L22.9379 50.3101C23.1011 50.2619 23.238 50.1484 23.3141 49.9962C23.3282 49.9699 24.6877 47.2845 26.241 45.2831C26.3289 45.1696 26.3737 45.0281 26.3691 44.8855L26.2517 41.5304C26.2456 41.3611 26.1695 41.1993 26.0403 41.0892C25.9107 40.9772 25.7371 40.9275 25.5716 40.9432L22.7746 41.2586L20.6341 41.2399L19.1664 39.958C18.9271 39.7496 18.5704 39.7592 18.3414 39.9752L16.6585 41.5744C16.5281 41.6986 16.4589 41.8726 16.4688 42.053L16.5751 43.9864C15.1716 40.7414 14.8635 37.1097 15.695 33.6658L15.8071 33.7431L16.1878 36.4857C16.2096 36.6425 16.2911 36.7858 16.4165 36.8833L18.4328 38.4669C18.5421 38.5521 18.6759 38.5972 18.8113 38.5972C18.8774 38.5972 18.9436 38.5862 19.007 38.5647L20.2617 38.1419L22.132 38.2398C22.2983 38.2428 22.4607 38.1886 22.5827 38.075L24.3177 36.4509C24.3968 36.3764 24.4545 36.2831 24.4855 36.1791L25.7845 31.838C25.817 31.7306 25.8186 31.6167 25.7907 31.5077L25.3694 29.8909C25.6049 29.8263 26.0889 29.7613 27.0141 29.8488C27.1999 29.8645 27.383 29.7999 27.5122 29.6653L28.9466 28.185L30.6116 28.3995C30.8395 28.4274 31.0536 28.3333 31.1851 28.1525C31.3174 27.9721 31.3395 27.7339 31.2451 27.5316L29.8887 24.6444C29.7916 24.4376 29.5878 24.3027 29.3604 24.2923L26.2445 24.1597L24.4289 22.8326C26.2143 21.9717 28.1392 21.457 30.1012 21.2877C31.3407 24.7886 34.7635 27.2395 38.3591 27.2395C38.6902 27.2395 39.0228 27.2192 39.3535 27.1764C43.3983 26.6622 44.3403 26.9061 44.3526 26.9046C44.5716 27.0002 44.8282 26.9573 45.0067 26.7964C45.1837 26.6354 45.2506 26.3854 45.1791 26.1568C45.1046 25.9213 43.3035 20.3743 38.7816 18.6953C36.2817 17.7655 33.4759 18.2254 30.4396 20.038C29.7977 20.077 29.1593 20.1473 28.5261 20.2563C28.5674 20.1083 28.611 19.9558 28.6565 19.799C31.8794 18.6433 34.0406 15.2962 33.6101 11.972C33.1796 8.64893 33.3738 7.85216 33.3692 7.85216C33.464 7.63233 33.422 7.37732 33.2606 7.19955C33.1004 7.0233 32.8489 6.95716 32.6222 7.02789C32.4234 7.09098 27.7511 8.61527 26.3397 12.4372C25.5583 14.5521 25.9471 16.9202 27.4748 19.4748C27.3636 19.8579 27.2646 20.218 27.1801 20.5453C25.733 20.9142 24.333 21.4678 23.0133 22.2007C22.985 22.2137 22.9582 22.2263 22.9322 22.2443C21.0551 23.2994 19.3419 24.7049 17.9125 26.4634C16.4693 28.2385 15.4455 30.2166 14.8029 32.2775C14.7983 32.2837 14.791 32.2867 14.7868 32.2928C14.7207 32.3888 14.6962 32.497 14.6901 32.6056C12.8317 39.0112 14.7577 46.1764 20.0937 50.7636C20.1261 50.8007 20.1514 50.8435 20.1927 50.8726C20.2026 50.8795 20.2156 50.8768 20.2259 50.8829C20.3035 50.9483 20.3716 51.0209 20.4507 51.0855C23.6901 53.7178 27.5942 55 31.475 55C35.1257 55 38.7442 53.8478 41.7788 51.6411C41.8626 51.6051 41.9387 51.5566 41.9983 51.49C43.1146 50.652 44.1526 49.6772 45.072 48.5463C48.0166 44.925 49.297 40.327 48.8844 35.8524L48.8849 35.8524ZM27.4863 12.8673C28.3465 10.5311 30.7807 9.15088 32.1062 8.55103C32.1031 9.26824 32.1692 10.3869 32.3944 12.1291C32.7125 14.5843 31.3217 17.0598 29.1215 18.2633C29.919 15.7221 30.8962 12.9465 30.9103 12.9064C31.0223 12.5879 30.8552 12.2374 30.5356 12.1246C30.2202 12.016 29.8681 12.1804 29.7538 12.4992C29.6976 12.6598 28.7701 15.295 27.9864 17.7835C27.1453 15.9855 26.9476 14.3301 27.4863 12.8674L27.4863 12.8673ZM38.3491 19.8422C41.294 20.9322 42.9815 24.0691 43.659 25.6269C42.834 25.6158 41.4553 25.672 39.1974 25.9611C35.9394 26.3713 32.6538 24.3282 31.3792 21.2246C34.0967 21.2047 36.8447 21.8592 39.3621 23.2539C39.6573 23.4156 40.0304 23.3112 40.1952 23.0145C40.3584 22.7186 40.251 22.3455 39.9559 22.1815C37.7817 20.9776 35.448 20.2952 33.1011 20.078C35.0057 19.3398 36.7644 19.2576 38.349 19.8421L38.3491 19.8422ZM18.8619 27.2361C20.1156 25.6943 21.6004 24.4357 23.2298 23.4745L25.6708 25.2587C25.7687 25.3302 25.8853 25.3707 26.0057 25.3761L28.9358 25.5003L29.6599 27.041L28.7982 26.9298C28.6017 26.9042 28.4136 26.9726 28.2801 27.1106L26.8335 28.6039C24.6673 28.4476 24.1715 29.0933 24.0751 29.5005C24.0518 29.5976 24.0533 29.6985 24.0782 29.7956L24.5606 31.6494L23.3587 35.6679L21.9345 37.001L20.208 36.9092C20.135 36.9092 20.0535 36.9154 19.9801 36.9402L18.928 37.2961L17.3663 36.0701L16.9825 33.3056C16.9591 33.1355 16.8651 32.9826 16.7236 32.8851L16.0469 32.4183C16.6487 30.584 17.5724 28.8223 18.8619 27.2361L18.8619 27.2361ZM18.7797 41.2474L19.9981 42.3117C20.1086 42.4081 20.2501 42.4608 20.3957 42.4624L22.836 42.4796L25.0496 42.2341L25.136 44.708C23.8278 46.436 22.7072 48.509 22.3421 49.2067L21.098 49.5687L20.9512 47.5112C20.942 47.3777 20.8901 47.2516 20.8021 47.1522L19.2779 45.4272L17.8201 44.33L17.7065 42.2663L18.7797 41.2474ZM17.3177 45.4815L18.4478 46.3199L19.7439 47.804L19.8176 48.8359C18.8237 47.8132 17.9921 46.6839 17.3177 45.4815L17.3177 45.4815ZM44.1198 47.7727C43.4966 48.5396 42.8096 49.222 42.0851 49.8448L41.8168 45.0549L44.4742 42.3275C44.5923 42.2063 44.6558 42.0415 44.6481 41.8722L44.4646 37.7776L47.7127 36.6128C47.9215 40.5677 46.7172 44.579 44.1198 47.773L44.1198 47.7727Z" fill="#0E8778"/>
</svg>
