<svg width="62" height="62" viewBox="0 0 62 62" fill="none" xmlns="http://www.w3.org/2000/svg">
<rect width="62" height="62" rx="10" fill="#E7F3F2"/>
<path d="M15.6048 11.0541C15.438 11.1217 15.3018 11.2481 15.222 11.4089L13.8034 14.2711L10.6327 14.7283L10.6324 14.7287C10.3547 14.768 10.1236 14.9617 10.0363 15.2272C9.94931 15.4931 10.0215 15.7849 10.2224 15.9802L12.5184 18.2076L11.9742 21.3534V21.3531C11.9262 21.6288 12.0398 21.9078 12.2669 22.0723C12.4941 22.2367 12.7954 22.2584 13.0439 22.1277L15.8811 20.6428L18.7171 22.1284L18.7174 22.1281C18.9655 22.2584 19.2665 22.2367 19.4937 22.0726C19.7205 21.9085 19.8341 21.6301 19.7868 21.3548L19.2459 18.2103L21.5408 15.9819C21.742 15.7869 21.8146 15.4951 21.7279 15.2296C21.6416 14.9637 21.4109 14.77 21.1332 14.7297L17.9618 14.2708L16.5432 11.4096C16.3725 11.0643 15.9628 10.9093 15.6047 11.0541L15.6048 11.0541ZM15.8834 13.3924L16.8107 15.2663V15.266C16.918 15.483 17.1258 15.633 17.366 15.6674L19.4438 15.9688L17.9395 17.4277C17.7666 17.5961 17.6874 17.8387 17.7282 18.076L18.0836 20.1383L16.2242 19.1641H16.2239C16.0095 19.0518 15.7535 19.0511 15.5388 19.1631L13.6804 20.1359L14.0352 18.0773H14.0349C14.0769 17.8386 13.9981 17.5948 13.8245 17.4257L12.3199 15.9671L14.3973 15.6668C14.6379 15.6326 14.846 15.4823 14.9537 15.2657L15.8834 13.3924Z" fill="#0E8778"/>
<path d="M30.3097 11.0543C30.143 11.1219 30.0067 11.2482 29.927 11.4091L28.5083 14.2712L25.3376 14.7285L25.3373 14.7288C25.0596 14.7682 24.8286 14.9618 24.7416 15.2274C24.6543 15.4932 24.7265 15.785 24.9274 15.9803L27.2233 18.2077L26.6791 21.3536L26.6794 21.3532C26.6312 21.629 26.7448 21.908 26.9719 22.0724C27.199 22.2368 27.5007 22.2585 27.7492 22.1279L30.5864 20.6429L33.4224 22.1285V22.1282C33.6705 22.2585 33.9715 22.2369 34.1986 22.0727C34.4254 21.9086 34.5393 21.6303 34.4918 21.3549L33.9508 18.2104L36.2461 15.982V15.9817C36.447 15.787 36.5195 15.4952 36.4332 15.2294C36.3466 14.9638 36.1158 14.7698 35.8381 14.7298L32.6668 14.2709L31.2481 11.4097C31.0774 11.0644 30.6678 10.9092 30.3097 11.0542V11.0543ZM30.5884 13.3926L31.5156 15.2665V15.2662C31.6229 15.4831 31.8307 15.6331 32.071 15.6676L34.1487 15.9689L32.6445 17.4279C32.4715 17.5962 32.3924 17.8388 32.4331 18.0761L32.7886 20.1384L30.9291 19.1642C30.7148 19.0519 30.4584 19.0513 30.2438 19.1632L28.3853 20.1361L28.7402 18.0774C28.7822 17.8388 28.7034 17.5949 28.5294 17.4259L27.0248 15.9672L29.1023 15.6669C29.3429 15.6328 29.551 15.4824 29.6586 15.2658L30.5884 13.3926Z" fill="#0E8778"/>
<path d="M45.0146 11.0543C44.8479 11.1219 44.7117 11.2482 44.6319 11.4091L43.2133 14.2712L40.0426 14.7285V14.7288C39.7646 14.7682 39.5335 14.9618 39.4465 15.2274C39.3595 15.4932 39.4314 15.785 39.6326 15.9803L41.9286 18.2077L41.3844 21.3536V21.3532C41.3361 21.629 41.4497 21.908 41.6768 22.0724C41.9043 22.2368 42.2056 22.2585 42.4541 22.1279L45.2914 20.6429L48.1273 22.1285V22.1282C48.3754 22.2585 48.6764 22.2369 48.9036 22.0727C49.1307 21.9086 49.2443 21.6303 49.1967 21.3549L48.6557 18.2104L50.9511 15.982V15.9817C51.1523 15.787 51.2245 15.4952 51.1381 15.2294C51.0515 14.9638 50.8207 14.7698 50.5431 14.7298L47.3717 14.2709L45.9531 11.4097C45.7824 11.0644 45.3727 10.9092 45.0146 11.0542L45.0146 11.0543ZM45.2933 13.3926L46.2206 15.2665V15.2662C46.3279 15.4831 46.5357 15.6331 46.7759 15.6676L48.8537 15.9689L47.3494 17.4279C47.1764 17.5962 47.0973 17.8388 47.138 18.0761L47.4935 20.1384L45.6341 19.1642C45.4197 19.0519 45.1637 19.0513 44.949 19.1632L43.0906 20.1361L43.4454 18.0774H43.4451C43.4871 17.8388 43.4083 17.5949 43.2344 17.4259L41.7298 15.9672L43.8072 15.6669H43.8075C44.0478 15.6328 44.2559 15.4824 44.3639 15.2658L45.2933 13.3926Z" fill="#0E8778"/>
<path d="M31.4666 25.1543C29.6695 25.1543 28.3776 26.8827 28.3776 28.8276V33.9785C28.3789 34.2264 28.349 34.3823 28.3231 34.5644C28.052 35.9096 26.8799 36.9139 25.4409 36.9139H24.7027C24.6974 36.9139 24.6935 36.9166 24.6882 36.9166H15.8788C15.6838 36.9176 15.497 36.9957 15.3595 37.1342C15.2223 37.2724 15.1455 37.4598 15.1465 37.6548V50.8849C15.1455 51.2906 15.4731 51.6202 15.8788 51.6215H24.6958C24.6981 51.6215 24.7001 51.6228 24.703 51.6228H43.4731C43.8417 51.6221 44.1522 51.348 44.1998 50.9824C44.8038 46.4216 45.4022 41.8612 46.0021 37.3002C46.2289 35.5632 44.8451 33.983 43.0927 33.9788H35.733V28.8278C35.733 26.8828 34.4411 25.1546 32.644 25.1546L31.4666 25.1543ZM31.4666 26.6248H32.644C33.4544 26.6248 34.2609 27.5143 34.2609 28.8276V34.7108C34.2596 35.1192 34.5921 35.4507 35.0004 35.449H43.0923C43.9477 35.4513 44.6534 36.2621 44.5428 37.1105C43.9714 41.4563 43.4016 45.8065 42.8268 50.1508L25.4415 50.1511V38.3855C27.5678 38.3855 29.3452 36.8806 29.7567 34.8688C29.8368 34.556 29.8486 34.2892 29.8486 33.9786V28.8277C29.8486 27.5137 30.6568 26.6249 31.4672 26.6249L31.4666 26.6248ZM16.6164 38.387H23.9688V50.1508H16.6168L16.6164 38.387Z" fill="#0E8778"/>
</svg>
