<svg width="62" height="62" viewBox="0 0 62 62" fill="none" xmlns="http://www.w3.org/2000/svg">
<rect width="62" height="62" rx="10" fill="#E7F3F2"/>
<path d="M35.2767 44.0339C36.2639 44.0339 37.0671 43.2308 37.0671 42.2435C37.0671 41.2563 36.264 40.4531 35.2767 40.4531C34.2896 40.4531 33.4863 41.2563 33.4863 42.2435C33.4863 43.231 34.2895 44.0339 35.2767 44.0339ZM35.2767 41.6468C35.6058 41.6468 35.8734 41.9145 35.8734 42.2435C35.8734 42.5726 35.6058 42.8402 35.2767 42.8402C34.9477 42.8402 34.68 42.5726 34.68 42.2435C34.68 41.9147 34.9477 41.6468 35.2767 41.6468Z" fill="#0E8778"/>
<path d="M35.4216 36.8705H39.4522V23.4435C39.4522 19.6594 42.531 16.5807 46.315 16.5807H47.8071C48.4652 16.5807 49.0007 16.0451 49.0007 15.387L49.0004 14.1936C49.0004 13.5355 48.4649 13 47.8068 13H43.6293C38.3642 13 34.0807 17.2833 34.0807 22.5486V22.6129L29.3065 23.1585V21.9519C29.9646 21.9519 30.5001 21.4164 30.5001 20.7583V19.5649C30.5001 18.9067 29.9646 18.3712 29.3065 18.3712H20.9518C20.2937 18.3712 19.7581 18.9068 19.7581 19.5649V20.7585C19.7581 21.4167 20.2937 21.9522 20.9518 21.9522V24.308C16.412 25.7161 13.1937 29.9391 13.1937 34.8503V41.6451H14.1561L12.0834 47.863C12.0281 48.0287 12 48.2014 12 48.3764C12 49.2717 12.7283 50 13.6236 50H47.3762C48.2715 50 48.9998 49.2717 48.9998 48.3764V42.0753C48.9998 41.18 48.2715 40.4517 47.3762 40.4517H39.0479C38.3763 39.0417 36.9375 38.0646 35.2743 38.0646C33.6112 38.0646 32.1724 39.0417 31.5008 40.4517H30.1259C30.9828 38.3098 33.0615 36.871 35.4212 36.871L35.4216 36.8705ZM20.952 19.5644H29.3067L29.3075 20.7581H29.3067L20.952 20.7578V19.5644ZM22.1454 21.9515H28.1132V23.2946L22.9805 23.8813C22.6984 23.9135 22.4202 23.9566 22.1453 24.0093L22.1454 21.9515ZM23.116 25.0669L34.0812 23.8139V24.5691C34.0812 24.9717 34.0567 25.3691 34.0095 25.7602L25.4321 26.5644C20.7826 27.0003 17.1586 30.7248 16.8038 35.3294L14.3876 35.6056V34.8504C14.3876 29.8418 18.1403 25.6361 23.1163 25.0672L23.116 25.0669ZM33.7826 26.9802C32.8029 30.8716 29.5037 33.8773 25.3525 34.3524L18.0146 35.1909C18.4258 31.2692 21.5528 28.1272 25.5435 27.7526L33.7826 26.9802ZM13.1941 48.376C13.1941 48.3296 13.2016 48.2839 13.2163 48.24L15.4145 41.6448H16.7746V48.8063H13.6241C13.3869 48.8063 13.1941 48.6135 13.1941 48.3763L13.1941 48.376ZM17.9683 41.6447H27.5169V44.6285C27.5169 44.9575 27.2492 45.2252 26.9202 45.2252L18.5655 45.2254C18.2364 45.2254 17.9688 44.9578 17.9688 44.6287L17.9683 41.6447ZM35.2743 39.2576C36.9196 39.2576 38.2581 40.5961 38.2581 42.2414C38.2581 43.8867 36.9196 45.2252 35.2743 45.2252C33.629 45.2252 32.2905 43.8867 32.2905 42.2414C32.2905 40.5963 33.629 39.2576 35.2743 39.2576ZM35.2743 46.4191C37.5778 46.4191 39.4518 44.5451 39.4518 42.2416C39.4518 42.039 39.4366 41.8397 39.4085 41.6449H47.3767C47.6138 41.6449 47.8069 41.8377 47.8069 42.0751V48.3761C47.8069 48.6133 47.6141 48.8064 47.3767 48.8064L17.9683 48.8061V46.3163C18.1552 46.3826 18.356 46.419 18.565 46.419H26.9197C27.9069 46.419 28.7101 45.6158 28.7101 44.6286V41.6448H31.1406C31.1124 41.8399 31.0972 42.0389 31.0972 42.2415C31.0969 44.545 32.9709 46.419 35.2744 46.419L35.2743 46.4191ZM28.8585 40.4515H14.3875V36.8065L25.4875 35.538C31.0669 34.9002 35.274 30.1847 35.274 24.5688V22.548C35.274 17.941 39.022 14.1932 43.6287 14.1932H47.8062V15.3869H46.3142C41.8719 15.3869 38.2581 19.0009 38.2581 23.443V35.6767H35.4211C32.4072 35.677 29.7734 37.6181 28.8581 40.4512L28.8585 40.4515Z" fill="#0E8778"/>
</svg>
