<svg width="136" height="136" viewBox="0 0 136 136" fill="none" xmlns="http://www.w3.org/2000/svg">
<path fill-rule="evenodd" clip-rule="evenodd" d="M93.7001 10.5921C99.0348 9.16268 104.518 12.3285 105.948 17.6632L125.411 90.3008C126.84 95.6354 123.674 101.119 118.34 102.548L45.7021 122.011C40.3674 123.441 34.884 120.275 33.4546 114.94L13.9914 42.3027C12.562 36.9681 15.7278 31.4847 21.0625 30.0553L93.7001 10.5921Z" fill="#B7DBD7"/>
<path fill-rule="evenodd" clip-rule="evenodd" d="M60.9289 7.75467C64.8342 3.84942 71.1658 3.84942 75.0711 7.75466L128.245 60.9291C132.151 64.8343 132.151 71.166 128.245 75.0712L75.0711 128.246C71.1658 132.151 64.8342 132.151 60.9289 128.246L7.75451 75.0712C3.84927 71.166 3.84926 64.8343 7.75451 60.9291L60.9289 7.75467Z" fill="white"/>
<path d="M71.7923 60.7887L73.9313 61.9519L75.1014 64.0784C75.2824 64.4071 75.6296 64.6117 76.0063 64.6117C76.3834 64.6117 76.7306 64.4071 76.9116 64.0784L78.0817 61.9519L80.2207 60.7887C80.5513 60.6088 80.7571 60.2636 80.7571 59.8891C80.7571 59.5142 80.5513 59.169 80.2207 58.9891L78.0817 57.8258L76.9116 55.6993C76.7306 55.3707 76.3834 55.166 76.0063 55.166C75.6296 55.166 75.2824 55.3707 75.1014 55.6993L73.9313 57.8258L71.7923 58.9891C71.4617 59.169 71.2559 59.5142 71.2559 59.8891C71.2559 60.2636 71.4617 60.6088 71.7923 60.7887ZM75.1866 59.4812C75.3597 59.3869 75.502 59.2455 75.5964 59.0734L76.0062 58.3281L76.4161 59.0734H76.4165C76.5109 59.2455 76.6532 59.3869 76.8264 59.4812L77.5756 59.8887L76.8264 60.2961C76.6532 60.39 76.5109 60.5314 76.4165 60.7036L76.0067 61.4488L75.5968 60.7036H75.5964C75.502 60.5319 75.3597 60.3904 75.1866 60.2961L74.4369 59.8887L75.1866 59.4812Z" fill="white"/>
<path d="M59.1966 49.7242L61.3356 50.8875L62.5057 53.014C62.6867 53.3427 63.0339 53.5473 63.4106 53.5473C63.7877 53.5473 64.1349 53.3427 64.3159 53.014L65.486 50.8875L67.625 49.7242C67.9556 49.5443 68.1614 49.1991 68.1614 48.8242C68.1614 48.4497 67.9556 48.1046 67.625 47.9246L65.486 46.7614L64.3159 44.6349C64.1349 44.3062 63.7877 44.1016 63.4106 44.1016C63.0339 44.1016 62.6867 44.3062 62.5057 44.6349L61.3356 46.7614L59.1966 47.9246C58.866 48.1046 58.6602 48.4497 58.6602 48.8242C58.6602 49.1991 58.866 49.5443 59.1966 49.7242ZM62.5908 48.4168C62.764 48.3225 62.9063 48.181 63.0007 48.0089L63.4105 47.2641L63.8204 48.0089C63.9152 48.181 64.0575 48.3225 64.2306 48.4168L64.9803 48.8242L64.2306 49.2317C64.0575 49.3255 63.9152 49.467 63.8204 49.6391L63.4105 50.3844L63.0007 49.6391C62.9063 49.467 62.764 49.3255 62.5908 49.2317L61.8416 48.8242L62.5908 48.4168Z" fill="white"/>
<path d="M78.5775 45.6227L80.7165 46.7859L81.8866 48.9124C82.0676 49.2411 82.4148 49.4457 82.7919 49.4457C83.1686 49.4457 83.5158 49.2411 83.6967 48.9124L84.8668 46.7859L87.0058 45.6227C87.3365 45.4427 87.5423 45.0976 87.5423 44.7226C87.5423 44.3482 87.3365 44.003 87.0058 43.8231L84.8668 42.6598L83.6967 40.5333C83.5158 40.2046 83.1686 40 82.7919 40C82.4148 40 82.0676 40.2046 81.8866 40.5333L80.7165 42.6598L78.5775 43.8231C78.2469 44.003 78.041 44.3482 78.041 44.7226C78.041 45.0976 78.2469 45.4427 78.5775 45.6227ZM81.9717 44.3152C82.1449 44.2209 82.2871 44.0795 82.382 43.9073L82.7918 43.1625L83.2017 43.9073C83.2961 44.0795 83.4384 44.2209 83.6115 44.3152L84.3607 44.7227L83.6115 45.1301C83.4384 45.224 83.2961 45.3654 83.2017 45.5375L82.7918 46.2828L82.382 45.5375C82.2871 45.3654 82.1449 45.224 81.9717 45.1301L81.222 44.7227L81.9717 44.3152Z" fill="white"/>
<path d="M95.4438 76.9702C95.675 76.489 95.7947 75.9621 95.7942 75.4284V70.3011C95.7933 69.3493 95.4125 68.4375 94.7356 67.7644C94.0587 67.0915 93.1414 66.7129 92.184 66.712H90.6225C90.5585 66.1484 90.2877 65.6275 89.8622 65.2494C89.4372 64.8712 88.8865 64.662 88.316 64.6611H55.5666C54.997 64.6611 54.5352 65.1203 54.5352 65.6866V66.712H51.781C52.0758 66.0949 52.1872 65.4068 52.102 64.7288L50.6837 53.4489C50.5732 52.5814 50.1487 51.7834 49.4892 51.2048C48.8298 50.6263 47.9811 50.3062 47.1016 50.3048H45.7676C45.2307 50.3044 44.7007 50.4234 44.2168 50.6532C44.173 49.7312 43.7742 48.861 43.1028 48.2233C42.4315 47.5861 41.5385 47.2294 40.6102 47.2285H38.0315C37.4619 47.2285 37 47.6877 37 48.254V53.3812H39.063V49.2794H40.6102C41.4644 49.2803 42.1565 49.9684 42.1574 50.8176V85.1696H39.063V55.4315H37V92.3478C37 92.6197 37.1087 92.8807 37.3021 93.0729C37.4955 93.2652 37.758 93.3733 38.0315 93.3733H40.5034C41.8025 93.3746 43.0692 92.9686 44.1232 92.2132C45.1768 91.4583 45.9647 90.3921 46.3746 89.1662L47.0266 87.2205H82.3859V85.1696H44.221V79.0169H95.2788C96.133 79.0178 96.8251 79.7059 96.8261 80.5551V85.1696H84.4483V87.2205H88.8624L89.5149 89.1662H89.5145C89.9243 90.3921 90.7122 91.4584 91.7663 92.2132C92.8199 92.9686 94.0867 93.3746 95.3857 93.3733H97.8576C98.1311 93.3733 98.3936 93.2652 98.587 93.0729C98.7804 92.8807 98.8891 92.6197 98.8891 92.3478V80.5557C98.8882 79.6328 98.5294 78.7452 97.8884 78.0776C97.247 77.4102 96.3716 77.0137 95.4442 76.9702L95.4438 76.9702ZM44.8516 87.221L44.4169 88.5179C44.1434 89.3351 43.6184 90.046 42.9158 90.5496C42.2131 91.0532 41.369 91.3237 40.5028 91.3228H39.0624V87.221L44.8516 87.221ZM88.5735 66.9687V72.865H62.7864V66.7122H88.3154C88.384 66.7122 88.4494 66.7393 88.4977 66.7873C88.5461 66.8354 88.5732 66.9004 88.5732 66.9686L88.5735 66.9687ZM56.5975 66.7123H60.7235V72.865H56.5975V66.7123ZM45.767 52.356H47.1009C47.8805 52.3574 48.5381 52.9342 48.6358 53.7033L50.054 64.9832C50.1093 65.4213 49.9725 65.8613 49.6787 66.1922C49.385 66.5227 48.9627 66.7122 48.5193 66.7122H44.2197V53.8935C44.2206 53.0443 44.9127 52.3563 45.7669 52.3553L45.767 52.356ZM44.2197 76.9668V68.7632H54.5346V73.8905C54.5346 74.1624 54.6432 74.4233 54.8367 74.6156C55.0301 74.8079 55.2925 74.9159 55.5661 74.9159H89.605C89.8785 74.9159 90.141 74.8079 90.3344 74.6156C90.5278 74.4233 90.6365 74.1624 90.6365 73.8905V68.7632H92.1837C93.0379 68.7641 93.73 69.4522 93.7309 70.3014V75.4286C93.73 76.2778 93.0379 76.9659 92.1837 76.9668H44.2197ZM96.8254 91.3231H95.385C94.5188 91.3241 93.6747 91.0535 92.972 90.5499C92.2693 90.0464 91.7444 89.3359 91.4709 88.5187L91.0362 87.2214H96.8253L96.8254 91.3231Z" fill="#0E8778"/>
<path d="M71.7923 58.7887L73.9313 59.9519L75.1014 62.0784C75.2824 62.4071 75.6296 62.6117 76.0063 62.6117C76.3834 62.6117 76.7306 62.4071 76.9116 62.0784L78.0817 59.9519L80.2207 58.7887C80.5513 58.6088 80.7571 58.2636 80.7571 57.8891C80.7571 57.5142 80.5513 57.169 80.2207 56.9891L78.0817 55.8258L76.9116 53.6993C76.7306 53.3707 76.3834 53.166 76.0063 53.166C75.6296 53.166 75.2824 53.3707 75.1014 53.6993L73.9313 55.8258L71.7923 56.9891C71.4617 57.169 71.2559 57.5142 71.2559 57.8891C71.2559 58.2636 71.4617 58.6088 71.7923 58.7887ZM75.1866 57.4812C75.3597 57.3869 75.502 57.2455 75.5964 57.0734L76.0062 56.3281L76.4161 57.0734H76.4165C76.5109 57.2455 76.6532 57.3869 76.8264 57.4812L77.5756 57.8887L76.8264 58.2961C76.6532 58.39 76.5109 58.5314 76.4165 58.7036L76.0067 59.4488L75.5968 58.7036H75.5964C75.502 58.5319 75.3597 58.3904 75.1866 58.2961L74.4369 57.8887L75.1866 57.4812Z" fill="#0E8778"/>
<path d="M59.1966 47.7242L61.3356 48.8875L62.5057 51.014C62.6867 51.3427 63.0339 51.5473 63.4106 51.5473C63.7877 51.5473 64.1349 51.3427 64.3159 51.014L65.486 48.8875L67.625 47.7242C67.9556 47.5443 68.1614 47.1991 68.1614 46.8242C68.1614 46.4497 67.9556 46.1046 67.625 45.9246L65.486 44.7614L64.3159 42.6349C64.1349 42.3062 63.7877 42.1016 63.4106 42.1016C63.0339 42.1016 62.6867 42.3062 62.5057 42.6349L61.3356 44.7614L59.1966 45.9246C58.866 46.1046 58.6602 46.4497 58.6602 46.8242C58.6602 47.1991 58.866 47.5443 59.1966 47.7242ZM62.5908 46.4168C62.764 46.3225 62.9063 46.181 63.0007 46.0089L63.4105 45.2641L63.8204 46.0089C63.9152 46.181 64.0575 46.3225 64.2306 46.4168L64.9803 46.8242L64.2306 47.2317C64.0575 47.3255 63.9152 47.467 63.8204 47.6391L63.4105 48.3844L63.0007 47.6391C62.9063 47.467 62.764 47.3255 62.5908 47.2317L61.8416 46.8242L62.5908 46.4168Z" fill="#0E8778"/>
<path d="M78.5775 43.6227L80.7165 44.7859L81.8866 46.9124C82.0676 47.2411 82.4148 47.4457 82.7919 47.4457C83.1686 47.4457 83.5158 47.2411 83.6967 46.9124L84.8668 44.7859L87.0058 43.6227C87.3365 43.4427 87.5423 43.0976 87.5423 42.7226C87.5423 42.3482 87.3365 42.003 87.0058 41.8231L84.8668 40.6598L83.6967 38.5333C83.5158 38.2046 83.1686 38 82.7919 38C82.4148 38 82.0676 38.2046 81.8866 38.5333L80.7165 40.6598L78.5775 41.8231C78.2469 42.003 78.041 42.3482 78.041 42.7226C78.041 43.0976 78.2469 43.4427 78.5775 43.6227ZM81.9717 42.3152C82.1449 42.2209 82.2871 42.0795 82.382 41.9073L82.7918 41.1625L83.2017 41.9073C83.2961 42.0795 83.4384 42.2209 83.6115 42.3152L84.3607 42.7227L83.6115 43.1301C83.4384 43.224 83.2961 43.3654 83.2017 43.5375L82.7918 44.2828L82.382 43.5375C82.2871 43.3654 82.1449 43.224 81.9717 43.1301L81.222 42.7227L81.9717 42.3152Z" fill="#0E8778"/>
</svg>
