<svg width="136" height="136" viewBox="0 0 136 136" fill="none" xmlns="http://www.w3.org/2000/svg">
<path fill-rule="evenodd" clip-rule="evenodd" d="M93.7001 10.5921C99.0348 9.16268 104.518 12.3285 105.948 17.6632L125.411 90.3008C126.84 95.6354 123.674 101.119 118.34 102.548L45.7021 122.011C40.3674 123.441 34.884 120.275 33.4546 114.94L13.9914 42.3027C12.562 36.9681 15.7278 31.4847 21.0625 30.0553L93.7001 10.5921Z" fill="#B2D8C8"/>
<path fill-rule="evenodd" clip-rule="evenodd" d="M60.9289 7.75467C64.8342 3.84942 71.1658 3.84942 75.0711 7.75466L128.245 60.9291C132.151 64.8343 132.151 71.166 128.245 75.0712L75.0711 128.246C71.1658 132.151 64.8342 132.151 60.9289 128.246L7.75451 75.0712C3.84927 71.166 3.84926 64.8343 7.75451 60.9291L60.9289 7.75467Z" fill="#3E9F93"/>
<path d="M95.4438 78.9702C95.675 78.489 95.7947 77.9621 95.7942 77.4284V72.3011C95.7933 71.3493 95.4125 70.4375 94.7356 69.7644C94.0587 69.0915 93.1414 68.7129 92.184 68.712H90.6225C90.5585 68.1484 90.2877 67.6275 89.8622 67.2494C89.4372 66.8712 88.8865 66.662 88.316 66.6611H55.5666C54.997 66.6611 54.5352 67.1203 54.5352 67.6866V68.712H51.781C52.0758 68.0949 52.1872 67.4068 52.102 66.7288L50.6837 55.4489C50.5732 54.5814 50.1487 53.7834 49.4892 53.2048C48.8298 52.6263 47.9811 52.3062 47.1016 52.3048H45.7676C45.2307 52.3044 44.7007 52.4234 44.2168 52.6532C44.173 51.7312 43.7742 50.861 43.1028 50.2233C42.4315 49.5861 41.5385 49.2294 40.6102 49.2285H38.0315C37.4619 49.2285 37 49.6877 37 50.254V55.3812H39.063V51.2794H40.6102C41.4644 51.2803 42.1565 51.9684 42.1574 52.8176V87.1696H39.063V57.4315H37V94.3478C37 94.6197 37.1087 94.8807 37.3021 95.0729C37.4955 95.2652 37.758 95.3733 38.0315 95.3733H40.5034C41.8025 95.3746 43.0692 94.9686 44.1232 94.2132C45.1768 93.4583 45.9647 92.3921 46.3746 91.1662L47.0266 89.2205H82.3859V87.1696H44.221V81.0169H95.2788C96.133 81.0178 96.8251 81.7059 96.8261 82.5551V87.1696H84.4483V89.2205H88.8624L89.5149 91.1662H89.5145C89.9243 92.3921 90.7122 93.4584 91.7663 94.2132C92.8199 94.9686 94.0867 95.3746 95.3857 95.3733H97.8576C98.1311 95.3733 98.3936 95.2652 98.587 95.0729C98.7804 94.8807 98.8891 94.6197 98.8891 94.3478V82.5557C98.8882 81.6328 98.5294 80.7452 97.8884 80.0776C97.247 79.4102 96.3716 79.0137 95.4442 78.9702L95.4438 78.9702ZM44.8516 89.221L44.4169 90.5179C44.1434 91.3351 43.6184 92.046 42.9158 92.5496C42.2131 93.0532 41.369 93.3237 40.5028 93.3228H39.0624V89.221L44.8516 89.221ZM88.5735 68.9687V74.865H62.7864V68.7122H88.3154C88.384 68.7122 88.4494 68.7393 88.4977 68.7873C88.5461 68.8354 88.5732 68.9004 88.5732 68.9686L88.5735 68.9687ZM56.5975 68.7123H60.7235V74.865H56.5975V68.7123ZM45.767 54.356H47.1009C47.8805 54.3574 48.5381 54.9342 48.6358 55.7033L50.054 66.9832C50.1093 67.4213 49.9725 67.8613 49.6787 68.1922C49.385 68.5227 48.9627 68.7122 48.5193 68.7122H44.2197V55.8935C44.2206 55.0443 44.9127 54.3563 45.7669 54.3553L45.767 54.356ZM44.2197 78.9668V70.7632H54.5346V75.8905C54.5346 76.1624 54.6432 76.4233 54.8367 76.6156C55.0301 76.8079 55.2925 76.9159 55.5661 76.9159H89.605C89.8785 76.9159 90.141 76.8079 90.3344 76.6156C90.5278 76.4233 90.6365 76.1624 90.6365 75.8905V70.7632H92.1837C93.0379 70.7641 93.73 71.4522 93.7309 72.3014V77.4286C93.73 78.2778 93.0379 78.9659 92.1837 78.9668H44.2197ZM96.8254 93.3231H95.385C94.5188 93.3241 93.6747 93.0535 92.972 92.5499C92.2693 92.0464 91.7444 91.3359 91.4709 90.5187L91.0362 89.2214H96.8253L96.8254 93.3231Z" fill="white"/>
<path d="M71.7923 60.7887L73.9313 61.9519L75.1014 64.0784C75.2824 64.4071 75.6296 64.6117 76.0063 64.6117C76.3834 64.6117 76.7306 64.4071 76.9116 64.0784L78.0817 61.9519L80.2207 60.7887C80.5513 60.6088 80.7571 60.2636 80.7571 59.8891C80.7571 59.5142 80.5513 59.169 80.2207 58.9891L78.0817 57.8258L76.9116 55.6993C76.7306 55.3707 76.3834 55.166 76.0063 55.166C75.6296 55.166 75.2824 55.3707 75.1014 55.6993L73.9313 57.8258L71.7923 58.9891C71.4617 59.169 71.2559 59.5142 71.2559 59.8891C71.2559 60.2636 71.4617 60.6088 71.7923 60.7887ZM75.1866 59.4812C75.3597 59.3869 75.502 59.2455 75.5964 59.0734L76.0062 58.3281L76.4161 59.0734H76.4165C76.5109 59.2455 76.6532 59.3869 76.8264 59.4812L77.5756 59.8887L76.8264 60.2961C76.6532 60.39 76.5109 60.5314 76.4165 60.7036L76.0067 61.4488L75.5968 60.7036H75.5964C75.502 60.5319 75.3597 60.3904 75.1866 60.2961L74.4369 59.8887L75.1866 59.4812Z" fill="white"/>
<path d="M59.1966 49.7242L61.3356 50.8875L62.5057 53.014C62.6867 53.3427 63.0339 53.5473 63.4106 53.5473C63.7877 53.5473 64.1349 53.3427 64.3159 53.014L65.486 50.8875L67.625 49.7242C67.9556 49.5443 68.1614 49.1991 68.1614 48.8242C68.1614 48.4497 67.9556 48.1046 67.625 47.9246L65.486 46.7614L64.3159 44.6349C64.1349 44.3062 63.7877 44.1016 63.4106 44.1016C63.0339 44.1016 62.6867 44.3062 62.5057 44.6349L61.3356 46.7614L59.1966 47.9246C58.866 48.1046 58.6602 48.4497 58.6602 48.8242C58.6602 49.1991 58.866 49.5443 59.1966 49.7242ZM62.5908 48.4168C62.764 48.3225 62.9063 48.181 63.0007 48.0089L63.4105 47.2641L63.8204 48.0089C63.9152 48.181 64.0575 48.3225 64.2306 48.4168L64.9803 48.8242L64.2306 49.2317C64.0575 49.3255 63.9152 49.467 63.8204 49.6391L63.4105 50.3844L63.0007 49.6391C62.9063 49.467 62.764 49.3255 62.5908 49.2317L61.8416 48.8242L62.5908 48.4168Z" fill="white"/>
<path d="M78.5775 45.6227L80.7165 46.7859L81.8866 48.9124C82.0676 49.2411 82.4148 49.4457 82.7919 49.4457C83.1686 49.4457 83.5158 49.2411 83.6967 48.9124L84.8668 46.7859L87.0058 45.6227C87.3365 45.4427 87.5423 45.0976 87.5423 44.7226C87.5423 44.3482 87.3365 44.003 87.0058 43.8231L84.8668 42.6598L83.6967 40.5333C83.5158 40.2046 83.1686 40 82.7919 40C82.4148 40 82.0676 40.2046 81.8866 40.5333L80.7165 42.6598L78.5775 43.8231C78.2469 44.003 78.041 44.3482 78.041 44.7226C78.041 45.0976 78.2469 45.4427 78.5775 45.6227ZM81.9717 44.3152C82.1449 44.2209 82.2871 44.0795 82.382 43.9073L82.7918 43.1625L83.2017 43.9073C83.2961 44.0795 83.4384 44.2209 83.6115 44.3152L84.3607 44.7227L83.6115 45.1301C83.4384 45.224 83.2961 45.3654 83.2017 45.5375L82.7918 46.2828L82.382 45.5375C82.2871 45.3654 82.1449 45.224 81.9717 45.1301L81.222 44.7227L81.9717 44.3152Z" fill="white"/>
</svg>
