<svg width="64" height="64" viewBox="0 0 64 64" fill="none" xmlns="http://www.w3.org/2000/svg">
<path fill-rule="evenodd" clip-rule="evenodd" d="M38.8974 6.63361C44.2301 5.19717 49.7063 8.35883 51.1288 13.6954L57.4362 37.3589C58.8586 42.6954 55.6887 48.186 50.3559 49.6224L26.9038 55.9395C21.571 57.3759 16.0948 54.2143 14.6724 48.8777L8.36497 25.2142C6.94254 19.8776 10.1125 14.3871 15.4453 12.9506L38.8974 6.63361Z" fill="#B7DBD7"/>
<path fill-rule="evenodd" clip-rule="evenodd" d="M25.0569 7.69996C28.9519 3.78448 35.2669 3.78447 39.1619 7.69995L56.3621 24.9907C60.2571 28.9062 60.2571 35.2545 56.3622 39.17L39.1619 56.4608C35.2669 60.3762 28.9519 60.3762 25.0569 56.4608L7.8566 39.17C3.96162 35.2545 3.96161 28.9062 7.85659 24.9908L25.0569 7.69996Z" fill="#3E9F93"/>
<path d="M43.6695 35.4497C43.7671 35.2466 43.8177 35.0242 43.8175 34.7989V32.6346C43.8171 32.2329 43.6563 31.848 43.3706 31.5639C43.0849 31.2798 42.6977 31.12 42.2935 31.1196H41.6344C41.6074 30.8817 41.4931 30.6618 41.3135 30.5022C41.1341 30.3426 40.9016 30.2543 40.6608 30.2539H26.8371C26.5967 30.2539 26.4017 30.4477 26.4017 30.6868V31.1196H25.2392C25.3636 30.8591 25.4106 30.5687 25.3747 30.2825L24.776 25.5212C24.7294 25.155 24.5501 24.8182 24.2718 24.5739C23.9934 24.3297 23.6352 24.1946 23.264 24.194H22.7009C22.4742 24.1938 22.2505 24.2441 22.0462 24.3411C22.0278 23.9519 21.8595 23.5846 21.5761 23.3154C21.2927 23.0464 20.9157 22.8959 20.5239 22.8955H19.4354C19.195 22.8955 19 23.0893 19 23.3284V25.4926H19.8708V23.7612H20.5239C20.8845 23.7616 21.1766 24.052 21.177 24.4105V38.9107H19.8708V26.3581H19V41.9407C19 42.0555 19.0459 42.1656 19.1275 42.2468C19.2091 42.3279 19.3199 42.3735 19.4354 42.3735H20.4788C21.0272 42.3741 21.5619 42.2027 22.0068 41.8839C22.4515 41.5652 22.7841 41.1152 22.9571 40.5977L23.2323 39.7764H38.1577V38.9107H22.048V36.3136H43.5999C43.9605 36.314 44.2526 36.6044 44.253 36.9629V38.9107H39.0282V39.7764H40.8915L41.1669 40.5977H41.1667C41.3397 41.1152 41.6723 41.5652 42.1172 41.8839C42.562 42.2027 43.0967 42.3741 43.645 42.3735H44.6884C44.8039 42.3735 44.9147 42.3279 44.9963 42.2468C45.0779 42.1656 45.1238 42.0555 45.1238 41.9407V36.9631C45.1234 36.5736 44.972 36.1989 44.7014 35.9171C44.4307 35.6354 44.0612 35.4681 43.6697 35.4497L43.6695 35.4497ZM22.3142 39.7766L22.1307 40.3241C22.0153 40.669 21.7937 40.9691 21.4971 41.1816C21.2005 41.3942 20.8442 41.5084 20.4786 41.508H19.8705V39.7766L22.3142 39.7766ZM40.7696 31.228V33.7168H29.8846V31.1197H40.6606C40.6895 31.1197 40.7171 31.1311 40.7376 31.1514C40.758 31.1717 40.7694 31.1991 40.7694 31.2279L40.7696 31.228ZM27.2723 31.1198H29.0138V33.7169H27.2723V31.1198ZM22.7006 25.0598H23.2637C23.5928 25.0604 23.8703 25.3039 23.9115 25.6285L24.5102 30.3899C24.5335 30.5748 24.4758 30.7605 24.3518 30.9002C24.2278 31.0397 24.0495 31.1197 23.8624 31.1197H22.0475V25.7089C22.0479 25.3504 22.34 25.06 22.7006 25.0596L22.7006 25.0598ZM22.0475 35.4483V31.9855H26.4015V34.1497C26.4015 34.2645 26.4473 34.3746 26.529 34.4558C26.6106 34.537 26.7214 34.5826 26.8369 34.5826H41.2049C41.3204 34.5826 41.4312 34.537 41.5128 34.4558C41.5945 34.3746 41.6403 34.2645 41.6403 34.1497V31.9855H42.2934C42.654 31.9858 42.9461 32.2763 42.9465 32.6347V34.799C42.9461 35.1574 42.654 35.4479 42.2934 35.4483H22.0475ZM44.2527 41.5082H43.6447C43.2791 41.5086 42.9228 41.3943 42.6262 41.1818C42.3296 40.9692 42.108 40.6693 41.9925 40.3244L41.8091 39.7768H44.2527L44.2527 41.5082Z" fill="white"/>
<path d="M33.6862 27.7752L34.5891 28.2662L35.083 29.1638C35.1593 29.3026 35.3059 29.389 35.4649 29.389C35.6241 29.389 35.7706 29.3026 35.847 29.1638L36.3409 28.2662L37.2438 27.7752C37.3834 27.6993 37.4703 27.5536 37.4703 27.3955C37.4703 27.2372 37.3834 27.0915 37.2438 27.0156L36.3409 26.5246L35.847 25.627C35.7706 25.4882 35.6241 25.4019 35.4649 25.4019C35.3059 25.4019 35.1593 25.4882 35.083 25.627L34.5891 26.5246L33.6862 27.0156C33.5466 27.0915 33.4597 27.2372 33.4597 27.3955C33.4597 27.5536 33.5466 27.6993 33.6862 27.7752ZM35.1189 27.2233C35.192 27.1835 35.252 27.1238 35.2919 27.0512L35.4649 26.7366L35.6379 27.0512H35.6381C35.6779 27.1238 35.738 27.1835 35.8111 27.2233L36.1273 27.3953L35.8111 27.5673C35.738 27.6069 35.6779 27.6666 35.6381 27.7393L35.4651 28.0539L35.2921 27.7393H35.2919C35.252 27.6668 35.192 27.6071 35.1189 27.5673L34.8024 27.3953L35.1189 27.2233Z" fill="white"/>
<path d="M28.3695 23.1053L29.2724 23.5963L29.7663 24.4939C29.8427 24.6327 29.9893 24.719 30.1482 24.719C30.3074 24.719 30.454 24.6327 30.5304 24.4939L31.0243 23.5963L31.9272 23.1053C32.0667 23.0294 32.1536 22.8837 32.1536 22.7254C32.1536 22.5673 32.0667 22.4216 31.9272 22.3457L31.0243 21.8547L30.5304 20.9571C30.454 20.8183 30.3074 20.7319 30.1482 20.7319C29.9893 20.7319 29.8427 20.8183 29.7663 20.9571L29.2724 21.8547L28.3695 22.3457C28.23 22.4216 28.1431 22.5673 28.1431 22.7254C28.1431 22.8837 28.23 23.0294 28.3695 23.1053ZM29.8022 22.5534C29.8753 22.5136 29.9354 22.4539 29.9752 22.3812L30.1482 22.0668L30.3212 22.3812C30.3613 22.4539 30.4213 22.5136 30.4944 22.5534L30.8109 22.7254L30.4944 22.8974C30.4213 22.937 30.3613 22.9967 30.3212 23.0694L30.1482 23.384L29.9752 23.0694C29.9354 22.9967 29.8753 22.937 29.8022 22.8974L29.486 22.7254L29.8022 22.5534Z" fill="white"/>
<path d="M36.5499 21.3734L37.4528 21.8644L37.9467 22.762C38.0231 22.9007 38.1697 22.9871 38.3289 22.9871C38.4879 22.9871 38.6344 22.9007 38.7108 22.762L39.2047 21.8644L40.1076 21.3734C40.2472 21.2974 40.334 21.1517 40.334 20.9935C40.334 20.8354 40.2472 20.6897 40.1076 20.6137L39.2047 20.1227L38.7108 19.2251C38.6344 19.0864 38.4879 19 38.3289 19C38.1697 19 38.0231 19.0864 37.9467 19.2251L37.4528 20.1227L36.5499 20.6137C36.4104 20.6897 36.3235 20.8354 36.3235 20.9935C36.3235 21.1517 36.4104 21.2974 36.5499 21.3734ZM37.9827 20.8215C38.0557 20.7817 38.1158 20.722 38.1558 20.6493L38.3288 20.3349L38.5018 20.6493C38.5417 20.722 38.6017 20.7817 38.6748 20.8215L38.9911 20.9935L38.6748 21.1655C38.6017 21.2051 38.5417 21.2648 38.5018 21.3374L38.3288 21.652L38.1558 21.3374C38.1158 21.2648 38.0557 21.2051 37.9827 21.1655L37.6662 20.9935L37.9827 20.8215Z" fill="white"/>
</svg>
