<svg width="62" height="62" viewBox="0 0 62 62" fill="none" xmlns="http://www.w3.org/2000/svg">
<rect width="62" height="62" rx="10" fill="#E7F3F2"/>
<path d="M46.4817 29.018C46.1512 28.4442 45.5371 28.2993 44.9373 28.1701C44.571 28.0924 43.918 28.0337 43.88 27.5522C43.7907 26.4551 46.1912 26.8292 46.447 25.8048C46.0599 25.1262 45.0535 24.9628 44.2293 24.7108C43.3334 24.4381 42.4206 24.205 41.4838 24.1279C41.083 24.095 39.5764 23.9719 39.4048 24.4984C39.2985 24.8247 39.6596 24.872 39.6906 25.1213C39.7678 25.7345 38.709 25.7599 38.2623 25.7418C36.9188 25.6893 35.605 25.0307 34.2462 25.3073C33.713 25.416 32.8116 25.9724 32.8354 26.5001C32.859 27.0292 33.8711 27.5701 34.6496 27.693C36.3468 27.9609 38.6306 27.0623 38.7839 28.5882C38.8507 29.2584 38.0263 29.4722 38.0785 30.1788C38.8252 30.9715 40.1006 30.645 41.0317 30.4487C41.7583 30.2952 42.4872 30.2582 43.2188 30.2524C43.8153 30.2479 44.4128 30.264 45.0128 30.2543C45.7537 30.2434 47.0645 30.0294 46.4818 29.0179L46.4817 29.018Z" fill="#0E8778"/>
<path d="M35.962 30.8739C36.0513 30.2161 36.9422 30.3974 37.2219 29.9341C38.3129 28.1255 30.6645 27.7892 29.7104 27.8915C29.4663 27.918 29.2945 28.0824 29.1055 28.1903C28.9328 29.0889 29.6868 29.0755 29.61 29.8797C29.0522 30.7002 27.6655 30.0689 26.3831 29.9796C24.1632 29.8252 21.1994 30.4354 21.1404 31.669C21.097 32.5608 22.0982 32.7219 22.249 33.2603C20.7601 33.7142 18.5038 33.7476 17.8665 35.3813C17.7423 35.6985 17.8604 36.0644 17.7443 36.3651C17.4007 37.2573 15.1428 36.988 15.3426 38.372C15.7757 38.3746 16.1702 37.9865 16.5171 37.7614C17.0228 37.4323 17.5286 37.2379 18.1067 37.1273C18.5533 37.0412 19.3642 36.9269 19.3511 36.3352C20.1912 36.1208 20.9343 36.3126 21.763 36.1684C22.1215 36.1062 22.7926 36.0298 22.433 35.584C22.2715 35.3834 21.8995 35.4695 21.8458 35.1486C22.8692 35.0005 24.1645 34.8412 25.6768 34.9499C27.2622 35.064 28.7603 35.8236 29.9121 35.7453C30.5566 35.7011 31.5853 35.3794 31.4244 34.3535C30.8581 33.8524 29.4458 34.1841 28.8029 33.7571C31.5373 32.8277 35.3168 34.0644 38.28 33.2603C38.2374 31.6623 35.7739 32.2554 35.9617 30.8739L35.962 30.8739Z" fill="#0E8778"/>
<path d="M31 7.42969C24.3734 7.42969 18.3702 10.0963 14.0295 14.4011C9.68881 18.7059 7 24.659 7 31.2313C7 44.3768 17.745 55.033 31 55.033C37.6266 55.033 43.6298 52.3664 47.9705 48.0616C52.3108 43.7572 55 37.8036 55 31.2313C55 18.0858 44.255 7.42969 31 7.42969ZM41.6719 47.063C38.6194 49.091 34.9501 50.2724 31 50.2724C20.3958 50.2724 11.8 41.7474 11.8 31.2311C11.8 27.3136 12.9912 23.6746 15.0361 20.6474C15.4379 20.0525 16.283 20.0018 16.7934 20.5083L41.8121 45.3202C42.3228 45.8259 42.2717 46.6641 41.6722 47.0626L41.6719 47.063ZM46.9638 41.8148C46.5617 42.4094 45.7169 42.4604 45.2065 41.954L20.1878 17.1421C19.6775 16.636 19.7286 15.7978 20.3281 15.3993C23.3806 13.3709 27.0499 12.1895 31 12.1895C41.6042 12.1895 50.2 20.7146 50.2 31.2309C50.2 35.1484 49.0087 38.7877 46.9639 41.8146L46.9638 41.8148Z" fill="#0E8778"/>
</svg>
