<svg width="136" height="136" viewBox="0 0 136 136" fill="none" xmlns="http://www.w3.org/2000/svg">
<path fill-rule="evenodd" clip-rule="evenodd" d="M93.7001 10.5901C99.0348 9.16073 104.518 12.3266 105.948 17.6612L125.411 90.2988C126.84 95.6335 123.674 101.117 118.34 102.546L45.7021 122.009C40.3674 123.439 34.884 120.273 33.4546 114.938L13.9914 42.3008C12.562 36.9661 15.7278 31.4828 21.0625 30.0533L93.7001 10.5901Z" fill="#C5ECDC"/>
<path fill-rule="evenodd" clip-rule="evenodd" d="M60.9289 7.75467C64.8342 3.84942 71.1658 3.84942 75.0711 7.75466L128.245 60.9291C132.151 64.8343 132.151 71.166 128.245 75.0712L75.0711 128.246C71.1658 132.151 64.8342 132.151 60.9289 128.246L7.75451 75.0712C3.84927 71.166 3.84926 64.8343 7.75451 60.9291L60.9289 7.75467Z" fill="white"/>
<path d="M52.9915 61.2653C52.9915 60.1079 53.4185 58.9976 54.1785 58.1788C54.9388 57.3604 55.9697 56.9006 57.0445 56.9006V54.7182C55.9697 54.7182 54.9388 54.2584 54.1785 53.44C53.4185 52.6211 52.9915 51.5109 52.9915 50.3535H50.9651C50.9651 51.5109 50.538 52.6212 49.7781 53.44C49.0177 54.2584 47.9868 54.7182 46.9121 54.7182V56.9006C47.9869 56.9006 49.0178 57.3604 49.7781 58.1788C50.538 58.9977 50.9651 60.1079 50.9651 61.2653H52.9915ZM50.2657 55.8094C50.9452 55.3237 51.5274 54.6968 51.9783 53.9651C52.4293 54.6968 53.0114 55.3238 53.6908 55.8094C53.0114 56.2951 52.4292 56.922 51.9783 57.6537C51.5273 56.922 50.9451 56.295 50.2657 55.8094Z" fill="#0E8778"/>
<path d="M85.7259 61.2653C85.7259 60.1079 86.1529 58.9976 86.9128 58.1788C87.6732 57.3604 88.7041 56.9006 89.7788 56.9006V54.7182C88.7041 54.7182 87.6732 54.2584 86.9128 53.44C86.1529 52.6211 85.7259 51.5109 85.7259 50.3535H83.6994C83.6994 51.5109 83.2724 52.6212 82.5125 53.44C81.7521 54.2584 80.7212 54.7182 79.6465 54.7182V56.9006C80.7212 56.9006 81.7522 57.3604 82.5125 58.1788C83.2724 58.9977 83.6994 60.1079 83.6994 61.2653H85.7259ZM83.0001 55.8094C83.6795 55.3237 84.2617 54.6968 84.7127 53.9651C85.1636 54.6968 85.7458 55.3238 86.4252 55.8094C85.7458 56.2951 85.1636 56.922 84.7127 57.6537C84.2617 56.922 83.6795 56.295 83.0001 55.8094Z" fill="#0E8778"/>
<path d="M69.3587 51.1324C69.3587 50.0576 69.7857 49.0267 70.5456 48.2663C71.306 47.5064 72.3369 47.0794 73.4116 47.0794V45.0529C72.3369 45.0529 71.306 44.6259 70.5456 43.866C69.7857 43.1056 69.3587 42.0747 69.3587 41H67.3322C67.3322 42.0747 66.9052 43.1057 66.1453 43.866C65.3849 44.6259 64.354 45.0529 63.2793 45.0529V47.0794C64.354 47.0794 65.385 47.5064 66.1453 48.2663C66.9052 49.0267 67.3322 50.0576 67.3322 51.1324H69.3587ZM66.6329 46.0662C67.3123 45.6152 67.8946 45.033 68.3455 44.3536C68.7964 45.033 69.3786 45.6153 70.058 46.0662C69.3786 46.5172 68.7964 47.0993 68.3455 47.7787C67.8945 47.0993 67.3123 46.5171 66.6329 46.0662Z" fill="#0E8778"/>
<path d="M98.6039 74.0852H97.5605V66.748C97.5605 65.9141 97.2307 65.1139 96.6438 64.5244C96.0569 63.9349 95.2603 63.6035 94.4304 63.6035H42.2603C41.4303 63.6035 40.6337 63.9348 40.0469 64.5244C39.4601 65.114 39.1302 65.9142 39.1302 66.748V74.0852H38.0868C37.5334 74.0852 37.0024 74.3061 36.6111 74.6992C36.2199 75.0922 36 75.6257 36 76.1816V88.7597C36 89.3156 36.2199 89.849 36.6111 90.2421C37.0024 90.6352 37.5334 90.856 38.0868 90.856H39.1302V92.9524C39.1302 93.2303 39.2401 93.4971 39.4358 93.6936C39.6314 93.8901 39.8969 94.0006 40.1736 94.0006H42.2604C42.6093 94.0006 42.9349 93.8256 43.1287 93.534L44.9052 90.8561H91.7855L93.5592 93.534H93.5597C93.7535 93.8265 94.0809 94.0015 94.4308 94.0006H96.5176C96.7943 94.0006 97.0598 93.8901 97.2554 93.6936C97.451 93.4971 97.561 93.2303 97.561 92.9524V90.856H98.6044C99.1577 90.856 99.6888 90.6352 100.08 90.2421C100.471 89.849 100.691 89.3156 100.691 88.7597V76.1816C100.691 75.6257 100.471 75.0922 100.08 74.6992C99.6888 74.3061 99.1577 74.0852 98.6044 74.0852H98.6039ZM41.2169 66.748C41.2169 66.1692 41.6841 65.6998 42.2603 65.6998H94.4303C94.707 65.6998 94.9725 65.8102 95.1682 66.0068C95.3638 66.2033 95.4737 66.47 95.4737 66.748V74.0852H94.4303C93.8769 74.0852 93.3459 74.3061 92.9547 74.6992C92.5634 75.0922 92.3435 75.6257 92.3435 76.1816V79.3261H44.3471V76.1816C44.3471 75.6257 44.1272 75.0922 43.736 74.6992C43.3447 74.3061 42.8137 74.0852 42.2603 74.0852H41.2169V66.748ZM44.3471 81.4225H58.9547V82.4706H44.3471V81.4225ZM61.0415 81.4225H75.6491V82.4706H61.0415V81.4225ZM77.7359 81.4225H92.3435V82.4706H77.7359V81.4225ZM41.7022 91.9042H41.2168V90.856H42.3981L41.7022 91.9042ZM95.4737 91.9042H94.9884L94.2924 90.856H95.4737V91.9042ZM98.6039 88.7597H38.0867V76.1816H42.2603V83.5188C42.2603 83.7968 42.3702 84.0635 42.5659 84.26C42.7615 84.4565 43.027 84.567 43.3037 84.567H93.3869C93.6636 84.567 93.9291 84.4566 94.1247 84.26C94.3204 84.0635 94.4303 83.7968 94.4303 83.5188V76.1816H98.6039V88.7597Z" fill="#0E8778"/>
</svg>
