<svg width="64" height="64" viewBox="0 0 64 64" fill="none" xmlns="http://www.w3.org/2000/svg">
<path fill-rule="evenodd" clip-rule="evenodd" d="M38.8974 6.63361C44.2301 5.19717 49.7063 8.35883 51.1288 13.6954L57.4362 37.3589C58.8586 42.6954 55.6887 48.186 50.3559 49.6224L26.9038 55.9395C21.571 57.3759 16.0948 54.2143 14.6724 48.8777L8.36497 25.2142C6.94254 19.8776 10.1125 14.3871 15.4453 12.9506L38.8974 6.63361Z" fill="#B7DBD7"/>
<path fill-rule="evenodd" clip-rule="evenodd" d="M25.0569 7.69996C28.9519 3.78448 35.2669 3.78447 39.1619 7.69995L56.3621 24.9907C60.2571 28.9062 60.2571 35.2545 56.3622 39.17L39.1619 56.4608C35.2669 60.3762 28.9519 60.3762 25.0569 56.4608L7.8566 39.17C3.96162 35.2545 3.96161 28.9062 7.85659 24.9908L25.0569 7.69996Z" fill="#3E9F93"/>
<path d="M25.0145 28.558C25.0145 28.0121 25.2159 27.4884 25.5744 27.1022C25.9331 26.7162 26.4193 26.4993 26.9262 26.4993V25.4699C26.4193 25.4699 25.933 25.253 25.5744 24.867C25.2159 24.4807 25.0145 23.9571 25.0145 23.4111H24.0587C24.0587 23.9571 23.8573 24.4807 23.4988 24.867C23.1402 25.253 22.6539 25.4699 22.147 25.4699V26.4993C22.6539 26.4993 23.1402 26.7162 23.4988 27.1022C23.8573 27.4884 24.0587 28.0121 24.0587 28.558H25.0145ZM23.7288 25.9846C24.0493 25.7555 24.3239 25.4598 24.5366 25.1147C24.7493 25.4598 25.0239 25.7555 25.3444 25.9846C25.0239 26.2137 24.7493 26.5094 24.5366 26.8545C24.3239 26.5094 24.0493 26.2136 23.7288 25.9846Z" fill="white"/>
<path d="M40.455 28.558C40.455 28.0121 40.6564 27.4884 41.0148 27.1022C41.3735 26.7162 41.8597 26.4993 42.3667 26.4993V25.4699C41.8597 25.4699 41.3735 25.253 41.0148 24.867C40.6564 24.4807 40.455 23.9571 40.455 23.4111H39.4991C39.4991 23.9571 39.2977 24.4807 38.9393 24.867C38.5806 25.253 38.0943 25.4699 37.5874 25.4699V26.4993C38.0943 26.4993 38.5806 26.7162 38.9393 27.1022C39.2977 27.4884 39.4991 28.0121 39.4991 28.558H40.455ZM39.1693 25.9846C39.4897 25.7555 39.7643 25.4598 39.977 25.1147C40.1898 25.4598 40.4644 25.7555 40.7848 25.9846C40.4643 26.2137 40.1897 26.5094 39.977 26.8545C39.7643 26.5094 39.4897 26.2136 39.1693 25.9846Z" fill="white"/>
<path d="M32.7348 23.7793C32.7348 23.2723 32.9362 22.7861 33.2946 22.4274C33.6533 22.069 34.1395 21.8676 34.6465 21.8676V20.9117C34.1395 20.9117 33.6532 20.7103 33.2946 20.3519C32.9362 19.9932 32.7348 19.5069 32.7348 19H31.7789C31.7789 19.5069 31.5775 19.9932 31.219 20.3519C30.8604 20.7103 30.3741 20.9117 29.8672 20.9117V21.8676C30.3741 21.8676 30.8604 22.069 31.219 22.4274C31.5775 22.7861 31.7789 23.2723 31.7789 23.7793H32.7348ZM31.449 21.3896C31.7695 21.1769 32.0441 20.9023 32.2568 20.5819C32.4695 20.9023 32.7441 21.1769 33.0646 21.3896C32.7441 21.6024 32.4695 21.877 32.2568 22.1974C32.0441 21.8769 31.7695 21.6023 31.449 21.3896Z" fill="white"/>
<path d="M46.5293 34.6047H46.0371V31.1438C46.0371 30.7505 45.8816 30.3731 45.6047 30.095C45.3279 29.817 44.9522 29.6606 44.5607 29.6606H19.9529C19.5614 29.6606 19.1856 29.8169 18.9089 30.095C18.6321 30.3731 18.4765 30.7506 18.4765 31.1438V34.6047H17.9843C17.7233 34.6047 17.4728 34.7089 17.2883 34.8943C17.1037 35.0797 17 35.3313 17 35.5935V41.5264C17 41.7886 17.1037 42.0403 17.2883 42.2257C17.4728 42.4111 17.7233 42.5152 17.9843 42.5152H18.4765V43.5041C18.4765 43.6352 18.5283 43.761 18.6206 43.8537C18.7129 43.9464 18.8381 43.9985 18.9686 43.9985H19.9529C20.1175 43.9985 20.2711 43.9159 20.3625 43.7784L21.2004 42.5153H43.3131L44.1498 43.7784H44.15C44.2414 43.9164 44.3959 43.9989 44.5609 43.9985H45.5452C45.6757 43.9985 45.8009 43.9464 45.8932 43.8537C45.9855 43.761 46.0373 43.6352 46.0373 43.5041V42.5152H46.5295C46.7905 42.5152 47.041 42.4111 47.2256 42.2257C47.4101 42.0403 47.5138 41.7886 47.5138 41.5264V35.5935C47.5138 35.3313 47.4101 35.0797 47.2256 34.8943C47.041 34.7089 46.7905 34.6047 46.5295 34.6047H46.5293ZM19.4607 31.1438C19.4607 30.8708 19.6811 30.6494 19.9529 30.6494H44.5607C44.6912 30.6494 44.8164 30.7015 44.9087 30.7942C45.001 30.8869 45.0528 31.0127 45.0528 31.1438V34.6047H44.5607C44.2997 34.6047 44.0492 34.7089 43.8646 34.8943C43.6801 35.0797 43.5764 35.3313 43.5764 35.5935V37.0767H20.9372V35.5935C20.9372 35.3313 20.8335 35.0797 20.6489 34.8943C20.4644 34.7089 20.2139 34.6047 19.9529 34.6047H19.4607V31.1438ZM20.9372 38.0656H27.8274V38.56H20.9372V38.0656ZM28.8117 38.0656H35.7019V38.56H28.8117V38.0656ZM36.6862 38.0656H43.5764V38.56H36.6862V38.0656ZM19.6896 43.0096H19.4607V42.5152H20.0179L19.6896 43.0096ZM45.0528 43.0096H44.8239L44.4956 42.5152H45.0528V43.0096ZM46.5293 41.5264H17.9843V35.5935H19.9529V39.0544C19.9529 39.1855 20.0047 39.3113 20.097 39.404C20.1893 39.4967 20.3145 39.5488 20.445 39.5488H44.0685C44.199 39.5488 44.3243 39.4967 44.4165 39.404C44.5088 39.3113 44.5607 39.1855 44.5607 39.0544V35.5935H46.5293V41.5264Z" fill="white"/>
</svg>
