<svg width="136" height="136" viewBox="0 0 136 136" fill="none" xmlns="http://www.w3.org/2000/svg">
<path fill-rule="evenodd" clip-rule="evenodd" d="M93.7001 10.5921C99.0348 9.16268 104.518 12.3285 105.948 17.6632L125.411 90.3008C126.84 95.6354 123.674 101.119 118.34 102.548L45.7021 122.011C40.3674 123.441 34.884 120.275 33.4546 114.94L13.9914 42.3027C12.562 36.9681 15.7278 31.4847 21.0625 30.0553L93.7001 10.5921Z" fill="#C5ECDC"/>
<path fill-rule="evenodd" clip-rule="evenodd" d="M60.9289 7.75467C64.8342 3.84942 71.1658 3.84942 75.0711 7.75466L128.245 60.9291C132.151 64.8343 132.151 71.166 128.245 75.0712L75.0711 128.246C71.1658 132.151 64.8342 132.151 60.9289 128.246L7.75451 75.0712C3.84927 71.166 3.84926 64.8343 7.75451 60.9291L60.9289 7.75467Z" fill="#3E9F93"/>
<path d="M52.9915 61.2633C52.9915 60.1059 53.4185 58.9957 54.1785 58.1769C54.9388 57.3585 55.9697 56.8986 57.0445 56.8986V54.7163C55.9697 54.7163 54.9388 54.2564 54.1785 53.438C53.4185 52.6192 52.9915 51.509 52.9915 50.3516H50.9651C50.9651 51.509 50.538 52.6192 49.7781 53.438C49.0177 54.2564 47.9868 54.7163 46.9121 54.7163V56.8986C47.9869 56.8986 49.0178 57.3585 49.7781 58.1769C50.538 58.9957 50.9651 60.1059 50.9651 61.2633H52.9915ZM50.2657 55.8074C50.9452 55.3218 51.5274 54.6948 51.9783 53.9632C52.4293 54.6948 53.0114 55.3218 53.6908 55.8074C53.0114 56.2931 52.4292 56.9201 51.9783 57.6517C51.5273 56.92 50.9451 56.293 50.2657 55.8074Z" fill="white"/>
<path d="M85.7259 61.2633C85.7259 60.1059 86.1529 58.9957 86.9128 58.1769C87.6732 57.3585 88.7041 56.8986 89.7788 56.8986V54.7163C88.7041 54.7163 87.6732 54.2564 86.9128 53.438C86.1529 52.6192 85.7259 51.509 85.7259 50.3516H83.6994C83.6994 51.509 83.2724 52.6192 82.5125 53.438C81.7521 54.2564 80.7212 54.7163 79.6465 54.7163V56.8986C80.7212 56.8986 81.7522 57.3585 82.5125 58.1769C83.2724 58.9957 83.6994 60.1059 83.6994 61.2633H85.7259ZM83.0001 55.8074C83.6795 55.3218 84.2617 54.6948 84.7127 53.9632C85.1636 54.6948 85.7458 55.3218 86.4252 55.8074C85.7458 56.2931 85.1636 56.9201 84.7127 57.6517C84.2617 56.92 83.6795 56.293 83.0001 55.8074Z" fill="white"/>
<path d="M69.3587 51.1324C69.3587 50.0576 69.7857 49.0267 70.5456 48.2663C71.306 47.5064 72.3369 47.0794 73.4116 47.0794V45.0529C72.3369 45.0529 71.306 44.6259 70.5456 43.866C69.7857 43.1056 69.3587 42.0747 69.3587 41H67.3322C67.3322 42.0747 66.9052 43.1057 66.1453 43.866C65.3849 44.6259 64.354 45.0529 63.2793 45.0529V47.0794C64.354 47.0794 65.385 47.5064 66.1453 48.2663C66.9052 49.0267 67.3322 50.0576 67.3322 51.1324H69.3587ZM66.6329 46.0662C67.3123 45.6152 67.8946 45.033 68.3455 44.3536C68.7964 45.033 69.3786 45.6153 70.058 46.0662C69.3786 46.5172 68.7964 47.0993 68.3455 47.7787C67.8945 47.0993 67.3123 46.5171 66.6329 46.0662Z" fill="white"/>
<path d="M98.6039 74.0833H97.5605V66.746C97.5605 65.9122 97.2307 65.112 96.6438 64.5225C96.0569 63.933 95.2603 63.6016 94.4304 63.6016H42.2603C41.4303 63.6016 40.6337 63.9329 40.0469 64.5225C39.4601 65.1121 39.1302 65.9123 39.1302 66.746V74.0833H38.0868C37.5334 74.0833 37.0024 74.3041 36.6111 74.6972C36.2199 75.0903 36 75.6237 36 76.1796V88.7577C36 89.3136 36.2199 89.8471 36.6111 90.2402C37.0024 90.6332 37.5334 90.8541 38.0868 90.8541H39.1302V92.9504C39.1302 93.2284 39.2401 93.4951 39.4358 93.6917C39.6314 93.8882 39.8969 93.9986 40.1736 93.9986H42.2604C42.6093 93.9986 42.9349 93.8236 43.1287 93.5321L44.9052 90.8541H91.7855L93.5592 93.5321H93.5597C93.7535 93.8245 94.0809 93.9996 94.4308 93.9986H96.5176C96.7943 93.9986 97.0598 93.8882 97.2554 93.6917C97.451 93.4951 97.561 93.2284 97.561 92.9504V90.8541H98.6044C99.1577 90.8541 99.6888 90.6332 100.08 90.2402C100.471 89.8471 100.691 89.3136 100.691 88.7577V76.1796C100.691 75.6237 100.471 75.0903 100.08 74.6972C99.6888 74.3041 99.1577 74.0833 98.6044 74.0833H98.6039ZM41.2169 66.746C41.2169 66.1672 41.6841 65.6979 42.2603 65.6979H94.4303C94.707 65.6979 94.9725 65.8083 95.1682 66.0048C95.3638 66.2014 95.4737 66.4681 95.4737 66.746V74.0833H94.4303C93.8769 74.0833 93.3459 74.3041 92.9547 74.6972C92.5634 75.0903 92.3435 75.6237 92.3435 76.1796V79.3241H44.3471V76.1796C44.3471 75.6237 44.1272 75.0903 43.736 74.6972C43.3447 74.3041 42.8137 74.0833 42.2603 74.0833H41.2169V66.746ZM44.3471 81.4205H58.9547V82.4687H44.3471V81.4205ZM61.0415 81.4205H75.6491V82.4687H61.0415V81.4205ZM77.7359 81.4205H92.3435V82.4687H77.7359V81.4205ZM41.7022 91.9023H41.2168V90.8541H42.3981L41.7022 91.9023ZM95.4737 91.9023H94.9883L94.2924 90.8541H95.4737V91.9023ZM98.6039 88.7577H38.0867V76.1796H42.2603V83.5169C42.2603 83.7948 42.3702 84.0615 42.5659 84.2581C42.7615 84.4546 43.027 84.565 43.3037 84.565H93.3869C93.6636 84.565 93.9291 84.4546 94.1247 84.2581C94.3204 84.0615 94.4303 83.7948 94.4303 83.5169V76.1796H98.6039V88.7577Z" fill="white"/>
</svg>
