<svg width="136" height="136" viewBox="0 0 136 136" fill="none" xmlns="http://www.w3.org/2000/svg">
<path fill-rule="evenodd" clip-rule="evenodd" d="M93.7001 10.5921C99.0348 9.16268 104.518 12.3285 105.948 17.6632L125.411 90.3008C126.84 95.6354 123.674 101.119 118.34 102.548L45.7021 122.011C40.3674 123.441 34.884 120.275 33.4546 114.94L13.9914 42.3027C12.562 36.9681 15.7278 31.4847 21.0625 30.0553L93.7001 10.5921Z" fill="#B7DBD7"/>
<path fill-rule="evenodd" clip-rule="evenodd" d="M60.9289 7.75467C64.8342 3.84942 71.1658 3.84942 75.0711 7.75466L128.245 60.9291C132.151 64.8343 132.151 71.166 128.245 75.0712L75.0711 128.246C71.1658 132.151 64.8342 132.151 60.9289 128.246L7.75451 75.0712C3.84927 71.166 3.84926 64.8343 7.75451 60.9291L60.9289 7.75467Z" fill="#3E9F93"/>
<path d="M42.7131 85.9686H52.7982C53.6687 89.4276 56.7967 92 60.5219 92C64.9177 92 68.4948 88.4229 68.4948 84.0266C68.4948 82.0466 67.7647 80.2369 66.5658 78.8412V54.8813C66.5658 51.9824 64.2632 49.6176 61.3915 49.5035C63.1702 46.8206 66.1429 45.1936 69.4047 45.1936C74.7208 45.1936 79.0451 49.5183 79.0451 54.8343V81.0539H76.2441C72.8719 81.0539 70.1287 83.7975 70.1287 87.1698C70.1287 88.1817 70.3841 89.186 70.8668 90.0749C70.9912 90.3044 71.2323 90.4471 71.4931 90.4471H92.898C93.1588 90.4471 93.3999 90.304 93.5243 90.0749C94.0075 89.186 94.2625 88.1813 94.2625 87.1698C94.2625 83.7975 91.5192 81.0539 88.147 81.0539H85.2386L85.2391 54.8343C85.2391 46.1031 78.1359 39 69.4048 39C62.6867 39 56.776 43.1985 54.5164 49.4925H47.3886C44.4172 49.4925 42 51.9096 42 54.8811V85.2567C42 85.6504 42.3185 85.9694 42.7127 85.9694L42.7131 85.9686ZM65.5187 79.8048C66.4845 80.9461 67.0697 82.4183 67.0697 84.0266C67.0697 87.6373 64.1323 90.5747 60.522 90.5747C56.9118 90.5747 53.9743 87.6374 53.9743 84.0266C53.9743 80.4164 56.9117 77.4789 60.522 77.4789C62.3504 77.4789 64.0043 78.2341 65.1934 79.4469C65.2547 79.6031 65.3724 79.7252 65.5186 79.8048H65.5187ZM88.1478 82.4783C90.7336 82.4783 92.838 84.5827 92.838 87.169C92.838 87.8056 92.7056 88.4381 92.4537 89.0215H71.9387C71.6868 88.4382 71.5544 87.8056 71.5544 87.169C71.5544 84.5827 73.6588 82.4783 76.2446 82.4783H88.1478ZM69.4057 40.4245C77.3509 40.4245 83.8141 46.8884 83.8141 54.8341L83.8137 68.915H82.1956C81.8019 68.915 81.4829 69.234 81.4829 69.6277C81.4829 70.0214 81.8014 70.3404 82.1956 70.3404H83.8137V71.8064H82.1956C81.8019 71.8064 81.4829 72.1254 81.4829 72.5191C81.4829 72.9127 81.8014 73.2317 82.1956 73.2317H83.8137V74.6333H82.1956C81.8019 74.6333 81.4829 74.9523 81.4829 75.346C81.4829 75.7396 81.8014 76.0586 82.1956 76.0586H83.8137V77.7206H82.1956C81.8019 77.7206 81.4829 78.0396 81.4829 78.4333C81.4829 78.827 81.8014 79.1459 82.1956 79.1459H83.8137V81.0539L80.4709 81.053V54.8335C80.4709 48.7319 75.5069 43.7675 69.4053 43.7675C65.3549 43.7675 61.6927 45.9519 59.7355 49.4915H56.0352C58.2131 44.0309 63.4642 40.4242 69.405 40.4242L69.4057 40.4245ZM43.4266 59.966H56.9911C58.5456 59.966 59.8103 61.2307 59.8103 62.7853C59.8103 64.3399 58.5461 65.6046 56.9911 65.6046H43.4266V59.966ZM43.4266 67.03H56.9911C59.3313 67.03 61.2353 65.126 61.2353 62.7854C61.2353 60.4452 59.3313 58.5412 56.9911 58.5412L43.4266 58.5407V54.8804C43.4266 52.695 45.2044 50.9168 47.3898 50.9168H61.1776C63.3634 50.9168 65.1412 52.6945 65.1412 54.8804V77.5404C63.8362 76.6086 62.2445 76.0542 60.5226 76.0542C56.1267 76.0542 52.5496 79.6309 52.5496 84.0272C52.5496 84.2017 52.5649 84.3721 52.576 84.5439H43.4265L43.4266 67.03Z" fill="white"/>
<path d="M55.7754 84.0278C55.7754 86.6449 57.9049 88.7743 60.5219 88.7743C63.1391 88.7743 65.2684 86.6448 65.2684 84.0278C65.2684 81.4106 63.1389 79.2812 60.5219 79.2812C57.9048 79.2812 55.7754 81.4103 55.7754 84.0278ZM63.8436 84.0278C63.8436 85.8593 62.3539 87.3495 60.5219 87.3495C58.6904 87.3495 57.2002 85.8597 57.2002 84.0278C57.2002 82.1967 58.69 80.7065 60.5219 80.7065C62.3534 80.7065 63.8436 82.1963 63.8436 84.0278Z" fill="white"/>
<path d="M59.8105 82.4978C59.8105 82.8915 60.1291 83.2105 60.5232 83.2105C60.9929 83.2105 61.375 83.5925 61.375 84.0618C61.375 84.5316 60.9929 84.9136 60.5232 84.9136C60.1295 84.9136 59.8105 85.2326 59.8105 85.6263C59.8105 86.02 60.1291 86.3389 60.5232 86.3389C61.7785 86.3389 62.8003 85.3171 62.8003 84.0618C62.8003 82.8065 61.7785 81.7852 60.5232 81.7852C60.1295 81.7852 59.8105 82.1041 59.8105 82.4978V82.4978Z" fill="white"/>
<path d="M57.5849 63.8898V61.6892C57.5849 61.2955 57.2664 60.9766 56.8723 60.9766H54.6716C54.278 60.9766 53.959 61.2955 53.959 61.6892V63.8898C53.959 64.2835 54.2775 64.6025 54.6716 64.6025H56.8723C57.2664 64.6025 57.5849 64.2835 57.5849 63.8898ZM56.1601 63.1772H55.3848V62.4019H56.1601V63.1772Z" fill="white"/>
<path d="M48.1535 60.9688H45.9529C45.5592 60.9688 45.2402 61.2877 45.2402 61.6814V63.882C45.2402 64.2757 45.5588 64.5947 45.9529 64.5947H48.1535C48.5472 64.5947 48.8662 64.2757 48.8662 63.882V61.6814C48.8662 61.2882 48.5476 60.9688 48.1535 60.9688ZM47.4408 63.1694H46.6656V62.3941H47.4408V63.1694Z" fill="white"/>
<path d="M51.6191 60.9805C50.6242 60.9805 49.8145 61.7898 49.8145 62.7852C49.8145 63.7801 50.6237 64.5899 51.6191 64.5899C52.6141 64.5899 53.4238 63.7801 53.4238 62.7852C53.4238 61.7898 52.6146 60.9805 51.6191 60.9805ZM51.6191 63.1645C51.4098 63.1645 51.2398 62.9945 51.2398 62.7847C51.2398 62.5757 51.4098 62.4053 51.6191 62.4053C51.8285 62.4053 51.9985 62.5753 51.9985 62.7847C51.9985 62.9945 51.8285 63.1645 51.6191 63.1645Z" fill="white"/>
</svg>
