<svg width="64" height="64" viewBox="0 0 64 64" fill="none" xmlns="http://www.w3.org/2000/svg">
<path fill-rule="evenodd" clip-rule="evenodd" d="M38.8974 6.63361C44.2301 5.19717 49.7063 8.35883 51.1288 13.6954L57.4362 37.3589C58.8586 42.6954 55.6887 48.186 50.3559 49.6224L26.9038 55.9395C21.571 57.3759 16.0948 54.2143 14.6724 48.8777L8.36497 25.2142C6.94254 19.8776 10.1125 14.3871 15.4453 12.9506L38.8974 6.63361Z" fill="#B7DBD7"/>
<path fill-rule="evenodd" clip-rule="evenodd" d="M25.0569 7.69996C28.9519 3.78448 35.2669 3.78447 39.1619 7.69995L56.3621 24.9907C60.2571 28.9062 60.2571 35.2545 56.3622 39.17L39.1619 56.4608C35.2669 60.3762 28.9519 60.3762 25.0569 56.4608L7.8566 39.17C3.96162 35.2545 3.96161 28.9062 7.85659 24.9908L25.0569 7.69996Z" fill="#3E9F93"/>
<path d="M20.3422 40.4526H24.9265C25.3222 42.0332 26.744 43.2086 28.4374 43.2086C30.4355 43.2086 32.0615 41.5741 32.0615 39.5652C32.0615 38.6604 31.7297 37.8335 31.1847 37.1957V26.2472C31.1847 24.9226 30.138 23.8419 28.8326 23.7898C29.6412 22.5639 30.9925 21.8204 32.4751 21.8204C34.8916 21.8204 36.8572 23.7966 36.8572 26.2258V38.2068H35.584C34.0512 38.2068 32.8042 39.4605 32.8042 41.0015C32.8042 41.4639 32.9203 41.9228 33.1397 42.329C33.1963 42.4339 33.3059 42.4991 33.4244 42.4991H43.1542C43.2728 42.4991 43.3824 42.4337 43.4389 42.329C43.6585 41.9228 43.7744 41.4637 43.7744 41.0015C43.7744 39.4605 42.5275 38.2068 40.9946 38.2068H39.6726L39.6728 26.2258C39.6728 22.236 36.444 18.9902 32.4751 18.9902C29.4214 18.9902 26.7346 20.9088 25.7075 23.7848H22.4675C21.1168 23.7848 20.0181 24.8893 20.0181 26.2471V40.1273C20.0181 40.3072 20.1629 40.4529 20.342 40.4529L20.3422 40.4526ZM30.7087 37.6361C31.1477 38.1575 31.4137 38.8303 31.4137 39.5652C31.4137 41.2151 30.0785 42.5574 28.4374 42.5574C26.7964 42.5574 25.4611 41.2151 25.4611 39.5652C25.4611 37.9155 26.7963 36.5732 28.4374 36.5732C29.2685 36.5732 30.0203 36.9183 30.5608 37.4725C30.5887 37.5439 30.6422 37.5997 30.7087 37.6361H30.7087ZM40.995 38.8577C42.1704 38.8577 43.1269 39.8193 43.1269 41.0011C43.1269 41.292 43.0667 41.581 42.9522 41.8476H33.627C33.5125 41.5811 33.4523 41.292 33.4523 41.0011C33.4523 39.8193 34.4089 38.8577 35.5842 38.8577H40.995ZM32.4756 19.6411C36.0871 19.6411 39.0251 22.5949 39.0251 26.2256L39.0249 32.6599H38.2893C38.1104 32.6599 37.9654 32.8057 37.9654 32.9856C37.9654 33.1655 38.1102 33.3112 38.2893 33.3112H39.0249V33.9812H38.2893C38.1104 33.9812 37.9654 34.1269 37.9654 34.3068C37.9654 34.4867 38.1102 34.6325 38.2893 34.6325H39.0249V35.2729H38.2893C38.1104 35.2729 37.9654 35.4187 37.9654 35.5986C37.9654 35.7785 38.1102 35.9242 38.2893 35.9242H39.0249V36.6837H38.2893C38.1104 36.6837 37.9654 36.8294 37.9654 37.0093C37.9654 37.1892 38.1102 37.335 38.2893 37.335H39.0249V38.2068L37.5054 38.2064V26.2254C37.5054 23.4372 35.2489 21.1687 32.4754 21.1687C30.6342 21.1687 28.9696 22.1669 28.0799 23.7843H26.3979C27.3879 21.2891 29.7748 19.641 32.4753 19.641L32.4756 19.6411ZM20.6666 28.5707H26.8324C27.539 28.5707 28.1139 29.1486 28.1139 29.8589C28.1139 30.5693 27.5392 31.1472 26.8324 31.1472H20.6666V28.5707ZM20.6666 31.7986H26.8324C27.8962 31.7986 28.7616 30.9285 28.7616 29.859C28.7616 28.7896 27.8962 27.9196 26.8324 27.9196L20.6666 27.9194V26.2468C20.6666 25.2482 21.4747 24.4356 22.468 24.4356H28.7354C29.729 24.4356 30.5371 25.248 30.5371 26.2468V36.6013C29.9439 36.1755 29.2204 35.9222 28.4377 35.9222C26.4395 35.9222 24.8135 37.5566 24.8135 39.5655C24.8135 39.6452 24.8204 39.7231 24.8255 39.8016H20.6665L20.6666 31.7986Z" fill="white"/>
<path d="M26.2798 39.5649C26.2798 40.7608 27.2478 41.7339 28.4374 41.7339C29.627 41.7339 30.5949 40.7608 30.5949 39.5649C30.5949 38.369 29.627 37.396 28.4374 37.396C27.2477 37.396 26.2798 38.3689 26.2798 39.5649ZM29.9473 39.5649C29.9473 40.4018 29.2701 41.0828 28.4374 41.0828C27.6048 41.0828 26.9274 40.402 26.9274 39.5649C26.9274 38.7282 27.6046 38.0473 28.4374 38.0473C29.2699 38.0473 29.9473 38.728 29.9473 39.5649Z" fill="white"/>
<path d="M28.114 38.8662C28.114 39.0461 28.2588 39.1918 28.438 39.1918C28.6515 39.1918 28.8251 39.3664 28.8251 39.5809C28.8251 39.7955 28.6515 39.9701 28.438 39.9701C28.259 39.9701 28.114 40.1158 28.114 40.2957C28.114 40.4756 28.2588 40.6214 28.438 40.6214C29.0086 40.6214 29.473 40.1545 29.473 39.5808C29.473 39.0072 29.0086 38.5405 28.438 38.5405C28.259 38.5405 28.114 38.6863 28.114 38.8662V38.8662Z" fill="white"/>
<path d="M27.1023 30.362V29.3564C27.1023 29.1765 26.9575 29.0308 26.7784 29.0308H25.778C25.5991 29.0308 25.4541 29.1765 25.4541 29.3564V30.362C25.4541 30.5419 25.5989 30.6876 25.778 30.6876H26.7784C26.9575 30.6876 27.1023 30.5419 27.1023 30.362ZM26.4546 30.0363H26.1022V29.6821H26.4546V30.0363Z" fill="white"/>
<path d="M22.8155 29.0308H21.8152C21.6362 29.0308 21.4912 29.1765 21.4912 29.3564V30.362C21.4912 30.5419 21.636 30.6876 21.8152 30.6876H22.8155C22.9944 30.6876 23.1394 30.5419 23.1394 30.362V29.3564C23.1394 29.1767 22.9946 29.0308 22.8155 29.0308ZM22.4915 30.0363H22.1391V29.6821H22.4915V30.0363Z" fill="white"/>
<path d="M24.3902 29.0342C23.9379 29.0342 23.5698 29.404 23.5698 29.8588C23.5698 30.3135 23.9377 30.6835 24.3902 30.6835C24.8424 30.6835 25.2105 30.3135 25.2105 29.8588C25.2105 29.404 24.8426 29.0342 24.3902 29.0342ZM24.3902 30.0322C24.295 30.0322 24.2177 29.9545 24.2177 29.8586C24.2177 29.7631 24.295 29.6853 24.3902 29.6853C24.4853 29.6853 24.5626 29.7629 24.5626 29.8586C24.5626 29.9545 24.4853 30.0322 24.3902 30.0322Z" fill="white"/>
</svg>
