<svg width="62" height="62" viewBox="0 0 62 62" fill="none" xmlns="http://www.w3.org/2000/svg">
<rect width="62" height="62" rx="10" fill="#E7F3F2"/>
<path d="M27.2403 30.4476C25.3983 30.4459 23.632 29.7128 22.3301 28.4097C21.0282 27.1063 20.2969 25.3397 20.2969 23.4975V18.5391H34.1838V23.4978V23.4975C34.1838 25.3398 33.4524 27.1063 32.1505 28.4097C30.8486 29.7127 29.0824 30.4459 27.2403 30.4477V30.4476ZM21.607 19.8494V23.4981V23.4978C21.607 25.5106 22.6808 27.3702 24.4236 28.3767C26.1665 29.3829 28.3141 29.3829 30.057 28.3767C31.7999 27.3702 32.8737 25.5106 32.8737 23.4978V19.8495L21.607 19.8494Z" fill="#0E8778"/>
<path d="M32.3465 14.9826C32.1617 14.9847 31.9775 14.9671 31.7962 14.9303C31.4163 14.8648 31.056 14.8057 30.8463 14.7797C29.647 14.6609 28.4423 14.6042 27.2372 14.6095C26.0385 14.6051 24.8404 14.6618 23.6476 14.7797L22.7042 14.9303C22.1723 15.0279 21.6239 14.9835 21.1146 14.8019C20.6052 14.6203 20.1525 14.3077 19.8025 13.8954L18.8395 12.7555C18.4638 12.3791 18.248 11.8723 18.2368 11.3407C18.1933 10.9837 18.2383 10.6216 18.3678 10.2862C18.665 9.49957 19.3118 8.89663 20.1168 8.65505C20.85 8.48339 21.6208 8.68166 22.1802 9.18551C22.5147 8.58749 23.1224 8.19299 23.8046 8.13101H23.8964C24.5512 8.10966 25.1776 8.39858 25.5864 8.91062C25.9548 8.35529 26.571 8.0152 27.2372 8H27.3091C27.9665 8.02223 28.573 8.35852 28.9403 8.90388C29.3476 8.39389 29.9713 8.10526 30.6238 8.12457H30.7156H30.7153C31.406 8.19358 32.0172 8.60094 32.3464 9.21179C32.7424 8.8562 33.2553 8.65793 33.7875 8.655C34.0045 8.62079 34.2256 8.62079 34.4426 8.655C35.2225 8.89567 35.8498 9.47938 36.1457 10.2403C36.2776 10.5751 36.3249 10.9374 36.2831 11.2948C36.2723 11.8264 36.0562 12.3335 35.6807 12.7098L34.7242 13.8953C34.1315 14.5916 33.2609 14.9896 32.3464 14.9826L32.3465 14.9826ZM27.2372 13.2994C28.4798 13.2939 29.7214 13.3529 30.9578 13.476C31.1935 13.476 31.6128 13.5679 31.9994 13.6462V13.6465C32.6322 13.7574 33.2762 13.5225 33.6893 13.0307L34.7438 11.7861C34.8857 11.6527 34.9702 11.4697 34.9798 11.2752V11.2097C35.0018 11.0661 34.986 10.9193 34.9339 10.7839C34.7915 10.3968 34.4804 10.0953 34.0888 9.96509C34.0087 9.95193 33.9268 9.95193 33.8467 9.96509C33.5452 9.97386 33.2647 10.1212 33.0867 10.3645C32.8559 10.6581 32.4872 10.8076 32.1173 10.7576C31.7503 10.7041 31.4426 10.452 31.3181 10.1025C31.2294 9.78466 30.9809 9.53639 30.663 9.44749H30.5124C30.2019 9.48696 29.9316 9.6785 29.7919 9.95865C29.6006 10.2794 29.248 10.4684 28.8748 10.4499C28.5034 10.4353 28.1686 10.2227 27.9969 9.89315C27.8826 9.6092 27.639 9.39748 27.3419 9.3232H27.1913C26.8374 9.3232 26.6082 9.72939 26.5362 9.89315C26.3657 10.2218 26.0315 10.4333 25.6612 10.4467C25.291 10.4605 24.9421 10.2739 24.748 9.95865C24.5965 9.65774 24.2979 9.4586 23.9619 9.43462H23.8374C23.5204 9.52439 23.2724 9.77237 23.1823 10.0897C23.0589 10.4371 22.7545 10.6888 22.3898 10.7447C22.0179 10.7956 21.6468 10.6459 21.4137 10.3517C21.2429 10.1189 20.9754 9.97678 20.6867 9.96508C20.5978 9.95075 20.5072 9.95075 20.4183 9.96508C20.0244 10.0929 19.7094 10.3912 19.56 10.7775C19.5123 10.9094 19.4989 11.0515 19.5208 11.1901V11.2752C19.5153 11.4758 19.5881 11.6709 19.7238 11.8188L19.7828 11.8779L20.785 13.0634C20.9862 13.3058 21.2479 13.4903 21.5436 13.5985C21.8395 13.7067 22.1586 13.7345 22.4685 13.6793C22.8811 13.6006 23.2809 13.5351 23.5101 13.5091L23.5098 13.5088C24.748 13.3745 25.992 13.3047 27.2371 13.2994L27.2372 13.2994Z" fill="#0E8778"/>
<path d="M17.0856 28.306C16.8823 28.3104 16.6832 28.2507 16.5156 28.1358C16.1276 27.818 15.9299 27.3234 15.9916 26.8257V19.5284C15.9916 17.0001 17.2494 13.443 19.2668 12.1133L20.0332 13.24C18.4348 14.2817 17.328 17.4059 17.328 19.5612V26.9109C17.4654 26.8649 17.6423 26.7863 17.7865 26.7275C18.4711 26.3892 19.2179 26.1953 19.9808 26.1576H21.9132V27.4676H19.9545C19.3705 27.5106 18.8006 27.6688 18.2777 27.9326C17.9078 28.1323 17.5031 28.2592 17.0855 28.306L17.0856 28.306Z" fill="#0E8778"/>
<path d="M37.8824 27.9998C38.0879 28.0041 38.2893 27.9452 38.4588 27.8316C38.8512 27.5175 39.0511 27.0289 38.9887 26.5371V19.3268C38.9887 16.8286 37.7167 13.3139 35.6764 12L34.9013 13.1133C36.5178 14.1425 37.6372 17.2296 37.6372 19.3592V26.6212C37.4982 26.5759 37.3193 26.4982 37.1735 26.4401C36.4812 26.1058 35.7258 25.9142 34.9543 25.8769H33V27.1714H34.9809C35.5715 27.2139 36.1479 27.3702 36.6767 27.6308C37.0508 27.8282 37.4601 27.9536 37.8825 27.9998L37.8824 27.9998Z" fill="#0E8778"/>
<path d="M25.273 36.7375C25.1423 36.7378 25.0145 36.6989 24.9063 36.6261L20.9369 34.0059H20.9366C20.7342 33.8714 20.6231 33.6357 20.648 33.3938C20.6725 33.152 20.8293 32.9438 21.0545 32.8531L24.2186 31.5822C24.4665 31.362 24.6443 31.0743 24.7306 30.7541C24.8169 30.4342 24.8072 30.0955 24.7031 29.7809L25.9281 29.2109C26.3009 30.1406 26.1647 31.1971 25.5678 32.0016L27.6312 33.5473C27.7818 33.6611 27.8759 33.8342 27.8899 34.0222C27.9037 34.2105 27.8356 34.3954 27.7031 34.5299L25.738 36.495C25.6236 36.6371 25.4549 36.7248 25.273 36.7374V36.7375ZM22.6528 33.5801L25.142 35.2373L26.2424 34.2024L24.4934 32.8924L22.6528 33.5801Z" fill="#0E8778"/>
<path d="M29.203 36.7361C29.031 36.7353 28.8664 36.6671 28.7445 36.5461L26.7793 34.5809C26.6267 34.447 26.5451 34.2499 26.558 34.0475C26.5705 33.8449 26.6767 33.6598 26.8448 33.546L28.941 31.9739C28.3441 31.1695 28.2078 30.1129 28.5807 29.1836L29.7662 29.7404L29.203 29.4848L29.8057 29.7532C29.6922 30.0685 29.6744 30.4103 29.7548 30.7355C29.8352 31.0607 30.0101 31.3549 30.2575 31.5809L33.4408 32.8519H33.4411C33.6666 32.9425 33.823 33.1507 33.8479 33.3926C33.8725 33.6344 33.7613 33.8701 33.559 34.0046L29.5896 36.6248C29.4755 36.7014 29.3404 36.7406 29.203 36.7362L29.203 36.7361ZM28.2336 34.2011L29.308 35.2688L31.8232 33.5788L30.0087 32.8519L28.2336 34.2011Z" fill="#0E8778"/>
<path d="M15.3101 44.0284H14V40.0589C14.0018 38.1292 14.7688 36.2793 16.1333 34.9148C17.4978 33.5503 19.3479 32.783 21.2774 32.7812V34.0913C19.6953 34.0931 18.1785 34.7224 17.0597 35.8412C15.9409 36.9597 15.3118 38.4766 15.3101 40.0589V44.0284Z" fill="#0E8778"/>
<path d="M35.5353 39.0413H36.8145V36.5335C36.8127 35.3143 36.0638 34.1456 34.7315 33.2835C33.3992 32.4214 31.5926 31.9366 29.7087 31.9355V32.7632C31.2534 32.7644 32.7345 33.1619 33.8269 33.8688C34.9193 34.5755 35.5336 35.5338 35.5353 36.5335V39.0413Z" fill="#0E8778"/>
<path d="M32.9046 43.9038H18.6555C18.3561 43.9038 18.1133 43.614 18.1133 43.2566V38.668H19.1977V42.6094H32.3624V38.668H33.4468V43.2566C33.4468 43.4283 33.3897 43.5929 33.2881 43.7143C33.1862 43.8356 33.0484 43.9038 32.9046 43.9038Z" fill="#0E8778"/>
<path d="M17.9766 33.9922H19.2866V38.7348H17.9766V33.9922Z" fill="#0E8778"/>
<path d="M27.239 40.045H27.167L21.2062 39.39C20.8728 39.3531 20.621 39.0704 20.6231 38.7349V33.4355H21.9331V38.1322L27.239 38.7218L32.5448 38.1322V33.4355H33.8549V38.7282C33.8569 39.0636 33.6052 39.3464 33.2718 39.3833L27.3109 40.0383L27.239 40.045Z" fill="#0E8778"/>
<path d="M31.7341 45.8574L29.0446 50.7358C28.7736 51.2153 29.1697 51.799 29.7118 51.7574L32.0468 51.5698L33.11 53.6338C33.381 54.1133 34.069 54.1342 34.3191 53.6546L36.946 48.8596C34.8613 48.5468 33.0057 47.4418 31.734 45.8574L31.7341 45.8574Z" fill="#0E8778"/>
<path d="M47.1611 50.7358L44.4926 45.8574C43.2209 47.4418 41.3654 48.5467 39.2598 48.8178L41.8866 53.6129C42.1576 54.0923 42.8456 54.0923 43.0958 53.5921L44.1799 51.5281L46.5148 51.7157C47.0568 51.799 47.4529 51.2153 47.1611 50.7358L47.1611 50.7358Z" fill="#0E8778"/>
<path d="M44.6589 40.7279C44.6589 37.1212 41.7403 34.1816 38.1127 34.1816C34.485 34.1816 31.5664 37.1003 31.5664 40.7279C31.5664 44.3346 34.485 47.2741 38.1127 47.2741C41.7403 47.2741 44.6589 44.3346 44.6589 40.7279ZM41.2607 39.8731L37.9459 43.188C37.7791 43.3548 37.5707 43.4382 37.3621 43.4382C37.1536 43.4382 36.9452 43.3548 36.7784 43.188L34.8812 41.2908C34.5476 40.9572 34.5476 40.436 34.8812 40.1024C35.2148 39.7688 35.736 39.7688 36.0696 40.1024L37.3831 41.4159L40.1141 38.6848C40.4477 38.3512 40.9689 38.3512 41.3025 38.6848C41.5942 39.0392 41.5942 39.5604 41.2606 39.8731H41.2607Z" fill="#0E8778"/>
</svg>
