<svg width="79" height="110" viewBox="0 0 79 110" fill="none" xmlns="http://www.w3.org/2000/svg">
<path d="M39.4977 44.9242C38.4599 44.9242 37.6214 44.0767 37.6214 43.0277V40.591C33.7507 39.7206 30.8408 36.2323 30.8408 32.0599C30.8408 31.0109 31.6793 30.1633 32.7171 30.1633C33.7549 30.1633 34.5934 31.0109 34.5934 32.0599C34.5934 34.7929 36.7948 37.0172 39.4977 37.0172C42.2032 37.0172 44.4045 34.792 44.4045 32.0599C44.4045 29.3252 42.2032 27.1 39.4977 27.1C34.724 27.1 30.8408 23.174 30.8408 18.3496C30.8408 14.1771 33.7507 10.687 37.6214 9.81679V7.38008C37.6214 6.33359 38.4599 5.48352 39.4977 5.48352C40.5355 5.48352 41.3739 6.33359 41.3739 7.38008V9.81679C45.2464 10.6872 48.1571 14.1771 48.1571 18.3496C48.1571 19.3961 47.3186 20.2462 46.2808 20.2462C45.243 20.2462 44.4045 19.3961 44.4045 18.3496C44.4045 15.6149 42.2032 13.3897 39.4977 13.3897C36.7939 13.3897 34.5934 15.6149 34.5934 18.3496C34.5934 21.0826 36.7948 23.3069 39.4977 23.3069C44.2731 23.3069 48.1571 27.2329 48.1571 32.0599C48.1571 36.2323 45.2472 39.7199 41.3739 40.591V43.0277C41.3739 44.0767 40.5355 44.9242 39.4977 44.9242ZM69.9577 83.3194C63.457 90.5863 53.82 94.4007 41.3739 94.7573V108.103C41.3739 109.15 40.5355 110 39.4977 110C38.4599 110 37.6214 109.15 37.6214 108.103V94.759C25.1743 94.4025 15.5371 90.5883 9.03765 83.3187C-1.43005 71.6227 0.0390216 55.4923 0.106996 54.8117C0.211699 53.7686 1.12053 53.0083 2.16168 53.1125C23.4573 55.2673 33.1771 66.9574 37.6244 77.1197L37.6236 50.3142C24.7502 49.3371 14.5636 38.464 14.5636 25.2059C14.5636 11.3076 25.75 0 39.4998 0C53.2496 0 64.4361 11.3074 64.4361 25.2059C64.4361 38.4649 54.2497 49.3388 41.3761 50.3142V77.1197C45.823 66.9561 55.5436 55.2648 76.8388 53.1125C77.8951 53.0083 78.7905 53.7686 78.8935 54.81C78.9605 55.4908 80.4297 71.621 69.962 83.3192L69.9577 83.3194ZM39.4977 46.6171C51.1793 46.6171 60.6812 37.0131 60.6812 25.2045C60.6812 13.3966 51.1793 3.79287 39.4977 3.79287C27.8161 3.79287 18.3142 13.3968 18.3142 25.2054C18.3142 37.0133 27.8161 46.6171 39.4977 46.6171ZM37.5167 91.0053C36.9035 84.0719 32.6793 61.0309 3.76728 57.1208C3.74132 61.5336 4.48009 72.5948 11.8428 80.7986C17.6022 87.2206 26.2331 90.6496 37.5167 91.0044V91.0053ZM67.1533 80.802C74.516 72.5961 75.253 61.5349 75.2288 57.1242C46.2355 61.0385 42.0669 84.0749 41.4729 91.0044C52.7583 90.6514 61.3932 87.2224 67.1533 80.8029V80.802ZM71.0785 61.5349C70.5022 60.6628 69.3412 60.4257 68.4759 61.0099C62.7173 64.8902 46.3037 83.2962 45.6089 84.0787C44.9162 84.8559 44.9782 86.0565 45.748 86.7566C46.1056 87.0826 46.5563 87.2434 47.0027 87.2434C47.5153 87.2434 48.0271 87.0309 48.3965 86.6161C48.5632 86.4264 65.1876 67.785 70.5602 64.1673C71.4238 63.5864 71.6558 62.4087 71.0804 61.5366L71.0785 61.5349ZM10.5165 61.0116C9.64957 60.4257 8.48611 60.6645 7.91396 61.5366C7.33768 62.407 7.57053 63.5847 8.4333 64.1673C13.8016 67.7844 30.4297 86.4275 30.597 86.6161C30.9672 87.0327 31.479 87.2435 31.9916 87.2435C32.438 87.2435 32.8887 87.0826 33.2472 86.7558C34.0161 86.0556 34.0781 84.8575 33.3862 84.0778C32.6893 83.2972 16.2761 64.8928 10.5171 61.0134L10.5165 61.0116Z" fill="#0E8778"/>
</svg>
