<svg width="29" height="40" viewBox="0 0 29 40" fill="none" xmlns="http://www.w3.org/2000/svg">
<path d="M14.4991 16.3361C14.1182 16.3361 13.8104 16.0279 13.8104 15.6464V14.7604C12.3895 14.4438 11.3213 13.1754 11.3213 11.6581C11.3213 11.2767 11.6291 10.9685 12.0101 10.9685C12.3911 10.9685 12.6988 11.2767 12.6988 11.6581C12.6988 12.652 13.5069 13.4608 14.4991 13.4608C15.4923 13.4608 16.3004 12.6516 16.3004 11.6581C16.3004 10.6637 15.4923 9.85455 14.4991 9.85455C12.7468 9.85455 11.3213 8.42691 11.3213 6.67258C11.3213 5.15533 12.3895 3.8862 13.8104 3.56974V2.68367C13.8104 2.30312 14.1182 1.99401 14.4991 1.99401C14.8801 1.99401 15.1879 2.30312 15.1879 2.68367V3.56974C16.6094 3.88624 17.6779 5.15533 17.6779 6.67258C17.6779 7.05312 17.3701 7.36224 16.9892 7.36224C16.6082 7.36224 16.3004 7.05312 16.3004 6.67258C16.3004 5.67813 15.4923 4.86898 14.4991 4.86898C13.5066 4.86898 12.6988 5.67813 12.6988 6.67258C12.6988 7.6664 13.5069 8.47523 14.4991 8.47523C16.2521 8.47523 17.6779 9.90286 17.6779 11.6581C17.6779 13.1754 16.6097 14.4436 15.1879 14.7604V15.6464C15.1879 16.0279 14.8801 16.3361 14.4991 16.3361ZM25.6807 30.2979C23.2943 32.9405 19.7567 34.3275 15.1879 34.4572V39.3103C15.1879 39.6909 14.8801 40 14.4991 40C14.1182 40 13.8104 39.6909 13.8104 39.3103V34.4578C9.24119 34.3282 5.70348 32.9412 3.31762 30.2977C-0.524956 26.0446 0.0143244 20.179 0.0392772 19.9315C0.0777123 19.5522 0.411334 19.2757 0.793529 19.3136C8.61092 20.0972 12.1789 24.3481 13.8115 28.0435L13.8112 18.2961C9.0855 17.9408 5.34612 13.9869 5.34612 9.16577C5.34612 4.11187 9.45255 0 14.4999 0C19.5473 0 23.6538 4.11179 23.6538 9.16577C23.6538 13.9872 19.9145 17.9414 15.1887 18.2961V28.0435C16.8211 24.3477 20.3894 20.0963 28.2067 19.3136C28.5944 19.2757 28.9231 19.5522 28.9609 19.9309C28.9855 20.1785 29.5248 26.044 25.6823 30.2979L25.6807 30.2979ZM14.4991 16.9517C18.7873 16.9517 22.2754 13.4593 22.2754 9.16528C22.2754 4.8715 18.7873 1.37922 14.4991 1.37922C10.211 1.37922 6.72293 4.87158 6.72293 9.1656C6.72293 13.4594 10.211 16.9517 14.4991 16.9517ZM13.7719 33.0928C13.5469 30.5716 11.9962 22.1931 1.38293 20.7712C1.37339 22.3758 1.64459 26.3981 4.34735 29.3813C6.46157 31.7166 9.62986 32.9635 13.7719 33.0925V33.0928ZM24.6512 29.3826C27.354 26.3986 27.6245 22.3763 27.6156 20.7724C16.9725 22.1958 15.4423 30.5727 15.2242 33.0925C19.367 32.9641 22.5368 31.7172 24.6512 29.3829V29.3826ZM26.0921 22.3763C25.8805 22.0592 25.4544 21.973 25.1367 22.1854C23.0228 23.5964 16.9975 30.2895 16.7425 30.5741C16.4882 30.8567 16.511 31.2933 16.7936 31.5479C16.9249 31.6664 17.0903 31.7249 17.2542 31.7249C17.4423 31.7249 17.6302 31.6476 17.7658 31.4967C17.827 31.4278 23.9296 24.6491 25.9018 23.3335C26.2189 23.1223 26.304 22.6941 26.0928 22.3769L26.0921 22.3763ZM3.86049 22.186C3.54225 21.973 3.11515 22.0598 2.90513 22.3769C2.69358 22.6934 2.77905 23.1217 3.09577 23.3336C5.06641 24.6489 11.1704 31.4282 11.2318 31.4968C11.3677 31.6482 11.5556 31.7249 11.7438 31.7249C11.9076 31.7249 12.0731 31.6664 12.2047 31.5476C12.4869 31.2929 12.5097 30.8573 12.2557 30.5738C11.9999 30.2899 5.97477 23.5974 3.86071 22.1867L3.86049 22.186Z" fill="#3C8477"/>
</svg>
