<svg width="92" height="126" viewBox="0 0 92 126" fill="none" xmlns="http://www.w3.org/2000/svg">
<path d="M72.6997 67.2031C72.3084 65.0986 71.0027 63.2751 68.8209 61.7838C68.3924 61.4857 67.8545 61.4245 67.3567 61.6021C66.867 61.7838 66.4956 62.1892 66.3612 62.693C66.3571 62.7191 65.6265 65.2571 63.485 66.883C61.2661 68.572 56.4932 72.2511 54.9879 73.4101L48.8852 73.1732C47.9057 72.9123 44.6924 72.3734 41.9938 75.4613C40.3108 75.8286 35.7246 77.0972 33.6501 80.3727C32.5341 82.135 32.2983 84.1501 32.9466 86.365C33.0439 86.6951 33.2446 86.9852 33.5196 87.1929L37.1074 89.9136L37.5339 93.8174C37.6212 94.6253 38.2966 95.2374 39.1085 95.2495L39.5651 95.2575C39.0754 98.6354 39.5942 103.628 43.8743 106.924L48.306 113.406C48.4014 113.663 49.3016 115.939 51.5485 116.502C51.8707 116.583 52.1968 116.624 52.528 116.624C53.7925 116.624 55.1102 116.033 56.4559 114.858L60.3438 112.284C60.5515 112.145 60.7231 111.962 60.8496 111.746L67.2333 100.659C67.4571 100.267 67.5063 99.8025 67.3718 99.3739L65.0797 92.044L68.865 85.4686C68.9955 85.2357 69.0688 84.9748 69.0768 84.7099L69.2073 80.1939C70.3774 79.1251 72.515 76.5229 71.8917 72.2437C72.3694 71.3094 73.1121 69.4077 72.6996 67.2029L72.6997 67.2031ZM68.8823 71.0398C68.6374 71.399 68.5441 71.8396 68.6334 72.2681C69.4212 76.1801 66.839 78.0034 66.7407 78.0687C66.3001 78.3587 66.0312 78.8434 66.0141 79.3703L65.8756 84.2126L61.9387 91.0488C61.7149 91.4402 61.6657 91.9058 61.8002 92.3333L64.0923 99.6633L58.2507 109.812L54.5876 112.235C54.5264 112.28 54.4652 112.324 54.408 112.373C53.56 113.132 52.7682 113.499 52.3356 113.385C51.8499 113.267 51.4384 112.585 51.1484 111.945L46.3835 104.896C46.2811 104.745 46.1506 104.611 46.0021 104.5C40.9903 100.825 43.0086 94.4538 43.0959 94.1838C43.2545 93.6981 43.1752 93.1642 42.8801 92.7477C42.5821 92.3312 42.1054 92.0783 41.5956 92.0703L40.576 92.0542L40.2287 88.8729C40.1795 88.4323 39.9537 88.0329 39.6005 87.767L35.9115 84.9689C35.6877 83.8761 35.8362 82.9337 36.3641 82.0967C37.7982 79.8246 41.7323 78.7437 43.125 78.515C43.5334 78.4498 43.9017 78.23 44.1526 77.9029C45.8737 75.6428 47.8689 76.2139 48.0747 76.2831C48.2302 76.3363 48.3948 76.3684 48.5604 76.3775L55.4479 76.6464C55.8032 76.6304 56.1946 76.54 56.4916 76.3122C56.4916 76.3122 62.7819 71.454 65.4335 69.4429C66.9097 68.3189 67.8932 66.924 68.5216 65.7698C70.5678 68.1764 69.221 70.5296 68.8828 71.0396L68.8823 71.0398Z" fill="#0E8778"/>
<path d="M91.5729 75.7376C91.6161 75.4767 91.6171 75.2077 91.5207 74.9418C91.5197 74.9378 91.5157 74.9348 91.5137 74.9297C90.7169 67.675 88.2129 60.5696 83.9618 54.3015C83.468 53.5669 82.4685 53.3752 81.7309 53.8709C80.9962 54.3707 80.8005 55.3703 81.3023 56.1039C85.0838 61.6848 87.3588 67.9802 88.1979 74.4248L77.7698 78.1642C77.1054 78.401 76.6729 79.0453 76.705 79.7508L77.2108 90.9887L70.2269 98.156C69.9128 98.4781 69.7452 98.9187 69.7703 99.3673L70.6364 114.875C55.9413 125.308 35.7554 125.545 20.6901 114.496L23.4619 113.689C23.8904 113.563 24.2497 113.265 24.4494 112.865C24.4866 112.796 28.0552 105.747 32.1326 100.493C32.3635 100.195 32.4809 99.8239 32.4688 99.4496L32.1608 90.6424C32.1447 90.1978 31.945 89.7733 31.6058 89.4843C31.2656 89.1902 30.8099 89.0598 30.3754 89.1009L23.0334 89.9288L17.4144 89.8797L13.5618 86.5146C12.9335 85.9677 11.9972 85.9928 11.3961 86.5598L6.97847 90.7577C6.63627 91.0839 6.4546 91.5405 6.48071 92.0142L6.75969 97.0892C3.07557 88.571 2.26681 79.0381 4.44948 69.9978L4.74352 70.2006L5.74306 77.4C5.80026 77.8115 6.01403 78.1878 6.34318 78.4437L11.6361 82.6005C11.9231 82.8243 12.2744 82.9428 12.6296 82.9428C12.8032 82.9428 12.9769 82.9137 13.1434 82.8575L16.4371 81.7475L21.3464 82.0044C21.7829 82.0125 22.2095 81.87 22.5296 81.5719L27.0839 77.3087C27.2916 77.113 27.4432 76.8681 27.5244 76.5952L30.9344 65.1998C31.0197 64.9178 31.0237 64.6188 30.9505 64.3327L29.8446 60.0886C30.4627 59.919 31.7333 59.7484 34.162 59.9782C34.6497 60.0193 35.1304 59.8497 35.4696 59.4965L39.2349 55.6107L43.6055 56.1737C44.2036 56.2469 44.7656 56 45.1108 55.5254C45.4581 55.0517 45.5163 54.4265 45.2684 53.8956L41.7079 46.3167C41.453 45.7737 40.9181 45.4195 40.3209 45.3924L32.1419 45.0441L27.3759 41.5606C32.0625 39.3006 37.1155 37.9497 42.2658 37.5053C45.5193 46.695 54.5043 53.1286 63.9427 53.1286C64.8118 53.1286 65.6849 53.0754 66.553 52.963C77.1706 51.6133 79.6434 52.2535 79.6755 52.2495C80.2506 52.5004 80.924 52.388 81.3926 51.9655C81.8573 51.543 82.0329 50.8867 81.8452 50.2865C81.6495 49.6683 76.9218 35.1076 65.0516 30.7001C58.4893 28.2594 51.1242 29.4667 43.154 34.2246C41.469 34.327 39.7931 34.5117 38.1311 34.7977C38.2395 34.4093 38.3539 34.0089 38.4733 33.5974C46.9334 30.5635 52.6066 21.7774 51.4764 13.0514C50.3464 4.32843 50.8562 2.23691 50.8442 2.23691C51.0931 1.65986 50.9827 0.990476 50.5592 0.523821C50.1387 0.0611732 49.4783 -0.112449 48.8832 0.0732218C48.3614 0.238809 36.0967 4.24008 32.3918 14.2728C30.3405 19.8244 31.3611 26.0406 35.3714 32.7463C35.0794 33.7519 34.8195 34.6972 34.5977 35.5564C30.7992 36.5248 27.1241 37.978 23.6599 39.9018C23.5856 39.9359 23.5154 39.969 23.4472 40.0162C18.5196 42.786 14.0226 46.4752 10.2704 51.0914C6.48195 55.7511 3.7944 60.9435 2.10751 66.3536C2.09547 66.3696 2.0764 66.3777 2.06536 66.3937C1.89174 66.6456 1.82752 66.9296 1.81146 67.2146C-3.06679 84.0293 1.98909 102.838 15.9958 114.88C16.0811 114.977 16.1474 115.089 16.2558 115.166C16.2818 115.184 16.316 115.177 16.3431 115.193C16.5468 115.364 16.7254 115.555 16.9332 115.725C25.4364 122.634 35.6847 126 45.8718 126C55.4548 126 64.9534 122.975 72.9195 117.183C73.1393 117.088 73.339 116.961 73.4955 116.786C76.4259 114.587 79.1507 112.028 81.5641 109.059C89.2936 99.5532 92.6545 87.4835 91.5716 75.7374L91.5729 75.7376ZM35.4016 15.4018C37.6597 9.26903 44.0493 5.64606 47.5287 4.07144C47.5206 5.95412 47.6943 8.8906 48.2854 13.4639C49.1203 19.9088 45.4693 26.4069 39.6939 29.5661C41.7874 22.8954 44.3525 15.6096 44.3895 15.5043C44.6836 14.6683 44.245 13.7481 43.406 13.452C42.5781 13.167 41.6538 13.5985 41.3538 14.4355C41.2062 14.857 38.7715 21.7744 36.7142 28.3067C34.5063 23.587 33.9876 19.2415 35.4015 15.402L35.4016 15.4018ZM63.9163 33.7109C71.6468 36.5721 76.0765 44.8064 77.8548 48.8957C75.6891 48.8666 72.0702 49.0141 66.1432 49.7728C57.5909 50.8496 48.9664 45.4865 45.6203 37.3395C52.7537 37.2874 59.9673 39.0055 66.5756 42.6664C67.3504 43.0909 68.3298 42.8169 68.7624 42.0381C69.1909 41.2614 68.9089 40.2819 68.1342 39.8514C62.4268 36.6911 56.301 34.8999 50.1403 34.3298C55.14 32.3919 59.7565 32.1762 63.9162 33.7106L63.9163 33.7109ZM12.7625 53.1198C16.0533 49.0724 19.9509 45.7688 24.2283 43.2457L30.6359 47.9292C30.8928 48.1168 31.1989 48.2232 31.515 48.2373L39.2065 48.5634L41.1072 52.6077L38.8452 52.3157C38.3294 52.2485 37.8356 52.4281 37.4854 52.7904L33.6879 56.7104C28.0017 56.2999 26.7002 57.9949 26.4471 59.0637C26.3859 59.3186 26.3899 59.5836 26.4552 59.8385L27.7216 64.7046L24.5665 75.2532L20.8282 78.7526L16.296 78.5118C16.1043 78.5118 15.8906 78.5278 15.6979 78.593L12.9361 79.5274L8.83652 76.309L7.82894 69.0523C7.76772 68.6057 7.52085 68.2043 7.14953 67.9484L5.37321 66.723C6.95281 61.908 9.37745 57.2835 12.7625 53.1198L12.7625 53.1198ZM12.5468 89.8994L15.7451 92.6933C16.0351 92.9462 16.4064 93.0847 16.7888 93.0887L23.1946 93.1339L29.0052 92.4896L29.232 98.9836C25.7979 103.52 22.8565 108.961 21.8979 110.793L18.6323 111.743L18.247 106.342C18.2229 105.992 18.0864 105.66 17.8556 105.399L13.8544 100.871L10.0277 97.9912L9.72966 92.5739L12.5468 89.8994ZM8.70902 101.014L11.6756 103.215L15.0776 107.111L15.2713 109.819C12.6621 107.135 10.4794 104.17 8.70899 101.014L8.70902 101.014ZM79.0644 107.028C77.4286 109.041 75.6251 110.833 73.7235 112.468L73.019 99.894L79.9947 92.7347C80.3047 92.4165 80.4714 91.984 80.4513 91.5394L79.9696 80.7913L88.496 77.7335C89.0439 88.1153 85.8826 98.6449 79.0644 107.029L79.0644 107.028Z" fill="#0E8778"/>
</svg>
