<svg width="27" height="36" viewBox="0 0 27 36" fill="none" xmlns="http://www.w3.org/2000/svg">
<path d="M20.7705 19.2009C20.6587 18.5996 20.2857 18.0786 19.6623 17.6525C19.5398 17.5673 19.3862 17.5499 19.2439 17.6006C19.104 17.6525 18.9979 17.7683 18.9595 17.9123C18.9583 17.9197 18.7496 18.6449 18.1377 19.1094C17.5038 19.592 16.1401 20.6432 15.71 20.9743L13.9664 20.9066C13.6865 20.8321 12.7684 20.6781 11.9974 21.5604C11.5165 21.6653 10.2062 22.0278 9.61347 22.9636C9.29462 23.4671 9.22724 24.0429 9.41247 24.6757C9.44028 24.77 9.49763 24.8529 9.5762 24.9123L10.6013 25.6896L10.7231 26.805C10.7481 27.0358 10.9411 27.2107 11.173 27.2141L11.3035 27.2164C11.1636 28.1815 11.3118 29.6081 12.5347 30.5497L13.8009 32.4016C13.8281 32.4751 14.0853 33.1254 14.7273 33.2862C14.8194 33.3095 14.9125 33.3212 15.0072 33.3212C15.3684 33.3212 15.7449 33.1523 16.1294 32.8166L17.2402 32.0811C17.2996 32.0415 17.3486 31.989 17.3848 31.9274L19.2087 28.7596C19.2726 28.6477 19.2867 28.515 19.2483 28.3926L18.5934 26.2983L19.6749 24.4196C19.7122 24.3531 19.7331 24.2785 19.7354 24.2028L19.7727 22.9125C20.107 22.6072 20.7177 21.8637 20.5397 20.6411C20.6761 20.3741 20.8883 19.8308 20.7705 19.2008L20.7705 19.2009ZM19.6798 20.2971C19.6099 20.3997 19.5832 20.5256 19.6087 20.648C19.8338 21.7658 19.096 22.2867 19.0679 22.3053C18.9421 22.3882 18.8652 22.5267 18.8603 22.6772L18.8208 24.0607L17.6959 26.0139C17.632 26.1258 17.6179 26.2588 17.6564 26.381L18.3113 28.4752L16.6422 31.375L15.5956 32.0671C15.5781 32.08 15.5606 32.0927 15.5443 32.1067C15.302 32.3235 15.0758 32.4284 14.9522 32.3957C14.8134 32.3619 14.6959 32.1672 14.613 31.9843L13.2516 29.9702C13.2223 29.9272 13.1851 29.8888 13.1426 29.8572C11.7107 28.8072 12.2873 26.9868 12.3123 26.9097C12.3576 26.7709 12.3349 26.6183 12.2506 26.4993C12.1655 26.3803 12.0293 26.3081 11.8836 26.3058L11.5923 26.3012L11.4931 25.3923C11.479 25.2664 11.4145 25.1523 11.3136 25.0763L10.2596 24.2768C10.1956 23.9646 10.2381 23.6953 10.3889 23.4562C10.7986 22.807 11.9227 22.4982 12.3206 22.4329C12.4373 22.4142 12.5425 22.3514 12.6142 22.258C13.1059 21.6122 13.676 21.7754 13.7348 21.7952C13.7792 21.8104 13.8262 21.8195 13.8736 21.8221L15.8414 21.899C15.9429 21.8944 16.0548 21.8686 16.1396 21.8035C16.1396 21.8035 17.9368 20.4154 18.6944 19.8408C19.1162 19.5197 19.3972 19.1211 19.5767 18.7914C20.1614 19.479 19.7766 20.1513 19.68 20.297L19.6798 20.2971Z" fill="#3C8477"/>
<path d="M26.1637 21.6393C26.176 21.5648 26.1763 21.4879 26.1488 21.4119C26.1485 21.4108 26.1473 21.4099 26.1468 21.4085C25.9191 19.3357 25.2037 17.3056 23.9891 15.5147C23.848 15.3048 23.5624 15.2501 23.3517 15.3917C23.1418 15.5345 23.0859 15.8201 23.2292 16.0297C24.3097 17.6242 24.9597 19.4229 25.1994 21.2642L22.2199 22.3326C22.0301 22.4003 21.9065 22.5844 21.9157 22.7859L22.0602 25.9968L20.0648 28.0446C19.9751 28.1366 19.9272 28.2625 19.9344 28.3906L20.1818 32.8215C15.9832 35.8023 10.2158 35.87 5.91145 32.7131L6.7034 32.4826C6.82584 32.4465 6.92849 32.3613 6.98555 32.2472C6.99616 32.2274 8.01577 30.2134 9.18076 28.7124C9.2467 28.6272 9.28025 28.5211 9.27681 28.4142L9.18879 25.8978C9.1842 25.7708 9.12714 25.6495 9.03022 25.5669C8.93302 25.4829 8.80284 25.4456 8.67868 25.4574L6.58096 25.694L4.97555 25.6799L3.87479 24.7185C3.6953 24.5622 3.42778 24.5694 3.25602 24.7314L1.99385 25.9308C1.89608 26.024 1.84417 26.1544 1.85163 26.2898L1.93134 27.7398C0.878733 25.306 0.647659 22.5823 1.27128 19.9994L1.35529 20.0573L1.64087 22.1143C1.65722 22.2318 1.71829 22.3394 1.81234 22.4125L3.3246 23.6002C3.4066 23.6641 3.50696 23.6979 3.60846 23.6979C3.65807 23.6979 3.70767 23.6896 3.75527 23.6736L4.6963 23.3564L6.09897 23.4298C6.2237 23.4321 6.34556 23.3914 6.43703 23.3063L7.73825 22.0882C7.79761 22.0323 7.8409 21.9623 7.86413 21.8843L8.83841 18.6285C8.86278 18.5479 8.86393 18.4625 8.843 18.3808L8.52702 17.1682C8.70364 17.1197 9.06665 17.071 9.76056 17.1366C9.89991 17.1484 10.0373 17.0999 10.1342 16.999L11.21 15.8888L12.4587 16.0496C12.6296 16.0705 12.7902 16 12.8888 15.8644C12.988 15.729 13.0047 15.5504 12.9338 15.3987L11.9165 13.2333C11.8437 13.0782 11.6909 12.977 11.5203 12.9692L9.1834 12.8697L7.82169 11.8745C9.16072 11.2287 10.6044 10.8428 12.0759 10.7158C13.0055 13.3414 15.5727 15.1796 18.2694 15.1796C18.5177 15.1796 18.7671 15.1644 19.0151 15.1323C22.0488 14.7466 22.7553 14.9296 22.7644 14.9284C22.9287 15.0001 23.1211 14.968 23.255 14.8473C23.3878 14.7266 23.438 14.5391 23.3843 14.3676C23.3284 14.191 21.9776 10.0308 18.5862 8.77145C16.7112 8.07411 14.6069 8.41905 12.3297 9.77847C11.8483 9.80771 11.3694 9.86047 10.8946 9.94219C10.9256 9.83123 10.9583 9.71682 10.9924 9.59926C13.4096 8.73244 15.0304 6.22211 14.7075 3.72896C14.3847 1.2367 14.5303 0.639117 14.5269 0.639117C14.598 0.474246 14.5665 0.282993 14.4455 0.149663C14.3253 0.0174781 14.1367 -0.0321282 13.9666 0.0209205C13.8175 0.0682313 10.3133 1.21145 9.25479 4.07793C8.66871 5.66411 8.96032 7.44018 10.1061 9.35608C10.0227 9.64339 9.94842 9.91349 9.88505 10.159C8.79978 10.4357 7.74975 10.8509 6.75997 11.4005C6.73876 11.4103 6.71868 11.4197 6.69919 11.4332C5.29131 12.2246 4.00645 13.2786 2.93439 14.5976C1.85199 15.9289 1.08411 17.4124 0.602146 18.9582C0.598705 18.9627 0.593257 18.965 0.590103 18.9696C0.540498 19.0416 0.522147 19.1227 0.51756 19.2042C-0.876226 24.0084 0.568312 29.3823 4.57024 32.8227C4.59461 32.8505 4.61354 32.8827 4.6445 32.9044C4.65196 32.9096 4.66171 32.9076 4.66945 32.9122C4.72765 32.9612 4.77869 33.0157 4.83805 33.0642C7.26756 35.0383 10.1956 36 13.1062 36C15.8442 36 18.5581 35.1358 20.8341 33.4808C20.8969 33.4538 20.954 33.4174 20.9987 33.3675C21.836 32.739 22.6145 32.0079 23.304 31.1597C25.5124 28.4438 26.4727 24.9953 26.1633 21.6393L26.1637 21.6393ZM10.1148 4.40051C10.7599 2.6483 12.5855 1.61316 13.5796 1.16327C13.5773 1.70118 13.6269 2.54017 13.7958 3.84683C14.0344 5.68823 12.9912 7.54482 11.3411 8.44746C11.9392 6.54154 12.6722 4.45989 12.6827 4.4298C12.7667 4.19095 12.6414 3.92802 12.4017 3.84343C12.1652 3.76199 11.9011 3.88529 11.8154 4.12442C11.7732 4.24485 11.0776 6.22127 10.4898 8.08763C9.85895 6.73913 9.71073 5.49758 10.1147 4.40057L10.1148 4.40051ZM18.2618 9.63168C20.4705 10.4492 21.7361 12.8018 22.2442 13.9702C21.6255 13.9619 20.5915 14.004 18.8981 14.2208C16.4545 14.5285 13.9904 12.9961 13.0344 10.6684C15.0725 10.6535 17.1335 11.1444 19.0216 12.1904C19.243 12.3117 19.5228 12.2334 19.6464 12.0109C19.7688 11.789 19.6883 11.5091 19.4669 11.3861C17.8362 10.4832 16.086 9.9714 14.3258 9.80852C15.7543 9.25484 17.0733 9.19319 18.2618 9.6316L18.2618 9.63168ZM3.64644 15.1771C4.58666 14.0207 5.70027 13.0768 6.92236 12.3559L8.75312 13.6941C8.82652 13.7477 8.91398 13.7781 9.0043 13.7821L11.2019 13.8753L11.7449 15.0308L11.0986 14.9473C10.9512 14.9281 10.8102 14.9795 10.7101 15.083L9.62512 16.203C8.00048 16.0857 7.62862 16.57 7.55632 16.8754C7.53883 16.9482 7.53998 17.0239 7.55861 17.0967L7.92047 18.487L7.019 21.5009L5.95091 22.5007L4.656 22.4319C4.60123 22.4319 4.54016 22.4365 4.48511 22.4552L3.69602 22.7221L2.52472 21.8026L2.23684 19.7292C2.21935 19.6016 2.14881 19.4869 2.04272 19.4138L1.5352 19.0637C1.98652 17.688 2.67927 16.3667 3.64644 15.1771L3.64644 15.1771ZM3.58479 25.6855L4.49859 26.4838C4.58146 26.5561 4.68755 26.5956 4.79679 26.5968L6.62704 26.6097L8.2872 26.4256L8.352 28.281C7.37082 29.577 6.53042 31.1317 6.25655 31.655L5.32352 31.9265L5.21342 30.3834C5.20654 30.2833 5.16754 30.1887 5.10159 30.1141L3.95841 28.8204L2.86506 27.9975L2.7799 26.4497L3.58479 25.6855ZM2.48829 28.8611L3.33588 29.4899L4.30789 30.603L4.36323 31.3769C3.61774 30.6099 2.99411 29.7629 2.48828 28.8612L2.48829 28.8611ZM22.5898 30.5795C22.1225 31.1547 21.6072 31.6665 21.0639 32.1336L20.8626 28.5412L22.8556 26.4956C22.9442 26.4047 22.9918 26.2811 22.9861 26.1541L22.8484 23.0832L25.2846 22.2096C25.4411 25.1758 24.5379 28.1842 22.5898 30.5798L22.5898 30.5795Z" fill="#3C8477"/>
</svg>
