<svg width="127" height="118" viewBox="0 0 127 118" fill="none" xmlns="http://www.w3.org/2000/svg">
<mask id="path-1-inside-1_780_10497" fill="white">
<path d="M39.5566 15.6207C39.5566 24.2483 32.5625 31.2414 23.9352 31.2414C15.3085 31.2414 8.31445 24.2483 8.31445 15.6207C8.31445 6.99403 15.3085 0 23.9352 0C32.5628 0 39.5566 6.99403 39.5566 15.6207Z"/>
</mask>
<path d="M36.0566 15.6207C36.0566 22.3151 30.6298 27.7414 23.9352 27.7414V34.7414C34.4953 34.7414 43.0566 26.1816 43.0566 15.6207H36.0566ZM23.9352 27.7414C17.2413 27.7414 11.8145 22.3152 11.8145 15.6207H4.81445C4.81445 26.1815 13.3756 34.7414 23.9352 34.7414V27.7414ZM11.8145 15.6207C11.8145 8.92703 17.2415 3.5 23.9352 3.5V-3.5C13.3755 -3.5 4.81445 5.06104 4.81445 15.6207H11.8145ZM23.9352 3.5C30.6299 3.5 36.0566 8.9271 36.0566 15.6207H43.0566C43.0566 5.06097 34.4957 -3.5 23.9352 -3.5V3.5Z" fill="#0E8778" mask="url(#path-1-inside-1_780_10497)"/>
<path d="M40.1582 41.6388C36.0261 45.5645 33.2558 50.8422 32.4798 56.9213L32.4787 56.9305L31.1823 67.5368C28.8704 67.7136 26.4815 67.7848 24.0109 67.6776L23.973 67.676H23.9351C16.6974 67.676 9.62069 67.0179 3.09333 65.5827C2.15555 65.3625 1.65441 64.5477 1.76681 63.8176L1.77125 63.7889L1.77472 63.7599L3.37749 50.4099L3.37841 50.4021L3.37927 50.3944C4.21436 42.8743 10.5366 37.2646 18.0615 37.2646H29.6766C33.7477 37.2646 37.4528 38.9059 40.1582 41.6388Z" stroke="#0E8778" stroke-width="3.5"/>
<mask id="path-4-inside-2_780_10497" fill="white">
<path d="M118.594 15.6207C118.594 24.2483 111.6 31.2414 102.973 31.2414C94.3454 31.2414 87.3516 24.2483 87.3516 15.6207C87.3516 6.99403 94.3456 0 102.973 0C111.6 0 118.594 6.99403 118.594 15.6207Z"/>
</mask>
<path d="M115.094 15.6207C115.094 22.3152 109.667 27.7414 102.973 27.7414V34.7414C113.533 34.7414 122.094 26.1815 122.094 15.6207H115.094ZM102.973 27.7414C96.2781 27.7414 90.8516 22.3151 90.8516 15.6207H83.8516C83.8516 26.1815 92.4126 34.7414 102.973 34.7414V27.7414ZM90.8516 15.6207C90.8516 8.92713 96.2785 3.5 102.973 3.5V-3.5C92.4127 -3.5 83.8516 5.06093 83.8516 15.6207H90.8516ZM102.973 3.5C109.667 3.5 115.094 8.92703 115.094 15.6207H122.094C122.094 5.06103 113.533 -3.5 102.973 -3.5V3.5Z" fill="#0E8778" mask="url(#path-4-inside-2_780_10497)"/>
<path d="M123.531 50.2608L123.531 50.2608L123.533 50.274L125.13 63.7158C125.188 64.6372 124.635 65.3823 123.83 65.5785C117.266 66.89 110.315 67.675 102.975 67.675C100.571 67.675 98.0783 67.5841 95.728 67.4028L94.4333 56.81C93.7786 50.6916 90.889 45.414 86.7535 41.5034C89.4586 38.771 93.1631 37.1309 97.2337 37.1309H108.849C116.248 37.1309 122.696 42.7494 123.531 50.2608Z" stroke="#0E8778" stroke-width="3.5"/>
<path d="M84.0126 58.1404L84.0138 58.1504L85.6105 71.5915C85.6813 72.6766 84.9889 73.3637 84.5292 73.4404L84.5015 73.4451L84.474 73.4506C77.9005 74.7656 70.9397 75.553 63.5894 75.553C56.348 75.553 49.2677 74.8941 42.7375 73.4574L42.683 73.4455L42.6279 73.437C41.9027 73.3253 41.2924 72.5308 41.4211 71.6946L41.4257 71.6647L41.4293 71.6347L43.0311 58.1504L43.0311 58.1504L43.0323 58.1402C43.8651 50.7601 50.1815 45.1416 57.7149 45.1416H69.33C76.8623 45.1416 83.1789 50.7601 84.0126 58.1404Z" stroke="#0E8778" stroke-width="3.5"/>
<mask id="path-8-inside-3_780_10497" fill="white">
<path d="M79.0754 23.4984C79.0754 32.125 72.0823 39.1191 63.4547 39.1191C54.8271 39.1191 47.834 32.125 47.834 23.4984C47.834 14.8707 54.8271 7.87695 63.4547 7.87695C72.0823 7.87695 79.0754 14.871 79.0754 23.4984Z"/>
</mask>
<path d="M75.5754 23.4984C75.5754 30.1922 70.1492 35.6191 63.4547 35.6191V42.6191C74.0154 42.6191 82.5754 34.0579 82.5754 23.4984H75.5754ZM63.4547 35.6191C56.7602 35.6191 51.334 30.1922 51.334 23.4984H44.334C44.334 34.0579 52.8939 42.6191 63.4547 42.6191V35.6191ZM51.334 23.4984C51.334 16.8035 56.7603 11.377 63.4547 11.377V4.37695C52.8939 4.37695 44.334 12.938 44.334 23.4984H51.334ZM63.4547 11.377C70.1491 11.377 75.5754 16.8037 75.5754 23.4984H82.5754C82.5754 12.9382 74.0156 4.37695 63.4547 4.37695V11.377Z" fill="#0E8778" mask="url(#path-8-inside-3_780_10497)"/>
<path d="M71.1951 96.0033L77.9812 96.5351C78.5884 96.6013 78.9473 96.9695 79.0759 97.3746C79.2001 97.7656 79.129 98.2432 78.6393 98.6412L78.6259 98.6521L78.6128 98.6632L73.4165 103.06C73.4145 103.062 73.4125 103.063 73.4105 103.065C72.0914 104.168 71.4784 106.052 71.9013 107.758L73.5014 114.426L73.5059 114.445L73.5108 114.463C73.6405 114.956 73.4579 115.378 73.077 115.653C72.6904 115.933 72.1761 115.997 71.6961 115.721L65.8379 112.126L65.8145 112.111L65.7906 112.098C64.3183 111.257 62.457 111.257 60.9846 112.097L60.9605 112.111L60.9368 112.126L55.0788 115.72C54.5987 115.997 54.0841 115.932 53.6975 115.653C53.3167 115.378 53.1341 114.956 53.2639 114.463L53.2688 114.445L53.2732 114.426L54.8735 107.757C55.2951 106.052 54.6824 104.168 53.3645 103.065L48.1716 98.6714C47.4048 97.9981 47.7141 96.6667 48.9273 96.535L55.5833 96.003L55.61 96.0009L55.6366 95.998C57.3958 95.803 58.9358 94.7807 59.6044 93.0434L62.261 86.7997L62.2717 86.7746L62.2816 86.7492C62.4528 86.3093 62.8409 86.0625 63.3379 86.0625C63.8365 86.0625 64.2957 86.3186 64.5212 86.8152L67.1715 93.044C67.8609 94.8296 69.5679 95.8022 71.1153 95.9952L71.1551 96.0001L71.1951 96.0033Z" stroke="#0E8778" stroke-width="3.5"/>
<path d="M110.716 88.1263L117.502 88.6582C118.109 88.7241 118.468 89.092 118.597 89.4974C118.721 89.889 118.65 90.3667 118.161 90.7645L118.147 90.7753L118.134 90.7863L112.938 95.1832C112.936 95.1849 112.934 95.1865 112.932 95.1882C111.613 96.2907 111 98.175 111.423 99.8808L113.023 106.549L113.027 106.568L113.032 106.586C113.162 107.079 112.979 107.501 112.598 107.776C112.212 108.056 111.698 108.12 111.218 107.844L105.359 104.249L105.336 104.234L105.312 104.221C103.84 103.38 101.978 103.38 100.506 104.22L100.482 104.234L100.458 104.249L94.5836 107.854L94.5656 107.865L94.548 107.876C93.6784 108.439 92.5069 107.644 92.7854 106.586L92.7903 106.568L92.7947 106.549L94.395 99.8802C94.8166 98.1752 94.204 96.2912 92.8861 95.1886L87.693 90.7945C86.9263 90.1212 87.2356 88.7898 88.4488 88.6581L95.1038 88.1261L95.1305 88.124L95.1572 88.121C96.9163 87.926 98.4563 86.9037 99.1249 85.1665L101.782 78.9227L101.792 78.8977L101.802 78.8722C101.973 78.4323 102.361 78.1855 102.858 78.1855C103.357 78.1855 103.816 78.4416 104.042 78.9383L106.692 85.167C107.381 86.9527 109.088 87.9253 110.636 88.1182L110.676 88.1232L110.716 88.1263Z" stroke="#0E8778" stroke-width="3.5"/>
<path d="M31.6765 88.1263L38.4631 88.6582C39.0699 88.7241 39.4288 89.092 39.5576 89.4974C39.682 89.889 39.6106 90.3667 39.1215 90.7645L39.1082 90.7753L39.0952 90.7863L33.8989 95.1832C33.8969 95.1849 33.8948 95.1866 33.8928 95.1883C32.5738 96.2908 31.9608 98.1751 32.3837 99.8808L33.9838 106.549L33.9883 106.568L33.9932 106.586C34.123 107.079 33.9404 107.501 33.5594 107.776C33.1729 108.056 32.6585 108.12 32.1785 107.844L26.3203 104.249L26.2969 104.234L26.2731 104.221C24.8008 103.38 22.9394 103.38 21.4671 104.22L21.4429 104.234L21.4192 104.249L15.5445 107.854L15.5266 107.865L15.5089 107.876C14.6393 108.439 13.4678 107.644 13.7463 106.586L13.7512 106.568L13.7557 106.549L15.3559 99.8803C15.7775 98.1753 15.1649 96.2912 13.847 95.1886L8.65394 90.7945C7.88723 90.1212 8.19653 88.7898 9.4097 88.6581L16.0648 88.1261L16.0915 88.124L16.1181 88.121C17.8773 87.926 19.4172 86.9037 20.0858 85.1665L22.7425 78.9227L22.7532 78.8977L22.7631 78.8722C22.9343 78.4323 23.3224 78.1855 23.8194 78.1855C24.3179 78.1855 24.7772 78.4416 25.0027 78.9382L27.653 85.1671C28.3424 86.9527 30.0494 87.9253 31.5968 88.1182L31.6366 88.1232L31.6765 88.1263Z" stroke="#0E8778" stroke-width="3.5"/>
</svg>
