<svg width="38" height="35" viewBox="0 0 38 35" fill="none" xmlns="http://www.w3.org/2000/svg">
<mask id="path-1-inside-1_118_3974" fill="white">
<path d="M11.5764 5.13574C11.5764 7.66108 9.52918 9.70799 7.0039 9.70799C4.47883 9.70799 2.43164 7.66108 2.43164 5.13574C2.43164 2.61066 4.47883 0.563477 7.0039 0.563477C9.52925 0.563477 11.5764 2.61066 11.5764 5.13574Z"/>
</mask>
<path d="M10.0764 5.13574C10.0764 6.83255 8.70086 8.20799 7.0039 8.20799V11.208C10.3575 11.208 13.0764 8.48962 13.0764 5.13574H10.0764ZM7.0039 8.20799C5.3072 8.20799 3.93164 6.8326 3.93164 5.13574H0.931641C0.931641 8.48957 3.65046 11.208 7.0039 11.208V8.20799ZM3.93164 5.13574C3.93164 3.43909 5.30726 2.06348 7.0039 2.06348V-0.936523C3.6504 -0.936523 0.931641 1.78224 0.931641 5.13574H3.93164ZM7.0039 2.06348C8.70085 2.06348 10.0764 3.43912 10.0764 5.13574H13.0764C13.0764 1.78221 10.3576 -0.936523 7.0039 -0.936523V2.06348Z" fill="#3C8477" mask="url(#path-1-inside-1_118_3974)"/>
<path d="M11.4127 12.754C10.2626 13.9201 9.49399 15.4489 9.27115 17.1947L9.27067 17.1987L8.91495 20.1089C8.30677 20.1496 7.68173 20.1636 7.0384 20.1357L7.02216 20.135H7.00591C4.90194 20.135 2.84867 19.9437 0.958321 19.5282C0.792276 19.4886 0.740234 19.357 0.752152 19.2796L0.754052 19.2673L0.75554 19.2549L1.22468 15.3472L1.22471 15.3472L1.22544 15.3406C1.45643 13.2606 3.20456 11.709 5.28669 11.709H8.6865C9.72796 11.709 10.6827 12.097 11.4127 12.754Z" stroke="#3C8477" stroke-width="1.5"/>
<mask id="path-4-inside-2_118_3974" fill="white">
<path d="M34.7131 5.13574C34.7131 7.66108 32.6659 9.70799 30.1408 9.70799C27.6155 9.70799 25.5684 7.66108 25.5684 5.13574C25.5684 2.61066 27.6155 0.563477 30.1408 0.563477C32.6659 0.563477 34.7131 2.61066 34.7131 5.13574Z"/>
</mask>
<path d="M33.2131 5.13574C33.2131 6.8326 31.8375 8.20799 30.1408 8.20799V11.208C33.4943 11.208 36.2131 8.48957 36.2131 5.13574H33.2131ZM30.1408 8.20799C28.4438 8.20799 27.0684 6.83257 27.0684 5.13574H24.0684C24.0684 8.4896 26.7871 11.208 30.1408 11.208V8.20799ZM27.0684 5.13574C27.0684 3.43914 28.4439 2.06348 30.1408 2.06348V-0.936523C26.7872 -0.936523 24.0684 1.78219 24.0684 5.13574H27.0684ZM30.1408 2.06348C31.8375 2.06348 33.2131 3.43909 33.2131 5.13574H36.2131C36.2131 1.78224 33.4943 -0.936523 30.1408 -0.936523V2.06348Z" fill="#3C8477" mask="url(#path-4-inside-2_118_3974)"/>
<path d="M35.9217 15.3016L35.9216 15.3016L35.9223 15.3073L36.3891 19.2345C36.3968 19.3931 36.3051 19.4977 36.1933 19.5269C34.2872 19.9073 32.2702 20.1348 30.1412 20.1348C29.5088 20.1348 28.8558 20.1131 28.2322 20.07L27.8771 17.1653C27.6882 15.4038 26.8872 13.8745 25.7353 12.714C26.4652 12.0575 27.4195 11.6699 28.4606 11.6699H31.8604C33.9071 11.6699 35.6909 13.2253 35.9217 15.3016Z" stroke="#3C8477" stroke-width="1.5"/>
<path d="M24.3531 17.6084L24.3531 17.6084L24.3536 17.6127L24.8201 21.5395C24.8241 21.6237 24.7992 21.7077 24.7602 21.767C24.7411 21.7959 24.7234 21.8119 24.7128 21.8193C24.7077 21.8229 24.7043 21.8245 24.703 21.825L24.7018 21.8255L24.7015 21.8256L24.6896 21.8276L24.6778 21.8299C22.7675 22.2121 20.7457 22.4407 18.6114 22.4407C16.5056 22.4407 14.4507 22.249 12.559 21.8329L12.5357 21.8277L12.5121 21.8241C12.4789 21.819 12.436 21.7977 12.3996 21.7463C12.3625 21.6938 12.3501 21.6341 12.3576 21.5853L12.3596 21.5725L12.3611 21.5596L12.83 17.6127L12.83 17.6127L12.8305 17.6083C13.0605 15.57 14.8061 14.0146 16.8919 14.0146H20.2917C22.3771 14.0146 24.1228 15.57 24.3531 17.6084Z" stroke="#3C8477" stroke-width="1.5"/>
<mask id="path-8-inside-3_118_3974" fill="white">
<path d="M23.1465 7.44161C23.1465 9.96668 21.0996 12.0139 18.5742 12.0139C16.0489 12.0139 14.002 9.96668 14.002 7.44161C14.002 4.91626 16.0489 2.86914 18.5742 2.86914C21.0996 2.86914 23.1465 4.91633 23.1465 7.44161Z"/>
</mask>
<path d="M21.6465 7.44161C21.6465 9.13831 20.2711 10.5139 18.5742 10.5139V13.5139C21.928 13.5139 24.6465 10.795 24.6465 7.44161H21.6465ZM18.5742 10.5139C16.8773 10.5139 15.502 9.13831 15.502 7.44161H12.502C12.502 10.795 15.2204 13.5139 18.5742 13.5139V10.5139ZM15.502 7.44161C15.502 5.7446 16.8774 4.36914 18.5742 4.36914V1.36914C15.2203 1.36914 12.502 4.08792 12.502 7.44161H15.502ZM18.5742 4.36914C20.271 4.36914 21.6465 5.74465 21.6465 7.44161H24.6465C24.6465 4.08801 21.9281 1.36914 18.5742 1.36914V4.36914Z" fill="#3C8477" mask="url(#path-8-inside-3_118_3974)"/>
<path d="M18.5542 28.3581C18.965 29.2885 19.8334 29.7616 20.5841 29.879C19.9409 30.4845 19.6494 31.4025 19.8154 32.2692C19.0322 31.8469 18.0751 31.8474 17.2925 32.2692C17.4582 31.403 17.1671 30.4852 16.5243 29.8795C17.367 29.7544 18.166 29.2421 18.5542 28.3581Z" stroke="#3C8477" stroke-width="3.5"/>
<path d="M30.1223 26.0525C30.5331 26.9829 31.4017 27.456 32.1524 27.5733C31.5092 28.1789 31.2178 29.0969 31.3837 29.9635C30.6005 29.5413 29.6434 29.5417 28.8609 29.9636C29.0265 29.0973 28.7354 28.1795 28.0927 27.5738C28.9352 27.4486 29.7341 26.9364 30.1223 26.0525Z" stroke="#3C8477" stroke-width="3.5"/>
<path d="M6.98579 26.0525C7.39661 26.9829 8.26525 27.456 9.01598 27.5733C8.37276 28.1788 8.08132 29.0969 8.24726 29.9635C7.46406 29.5413 6.50697 29.5417 5.72439 29.9636C5.89005 29.0973 5.59896 28.1795 4.95618 27.5738C5.7987 27.4486 6.59766 26.9364 6.98579 26.0525Z" stroke="#3C8477" stroke-width="3.5"/>
</svg>
