<svg width="126" height="118" viewBox="0 0 126 118" fill="none" xmlns="http://www.w3.org/2000/svg">
<mask id="path-1-inside-1_1_23" fill="white">
<path d="M39.2741 16.098C39.2741 24.6781 32.3288 31.6326 23.7615 31.6326C15.1949 31.6326 8.24962 24.6781 8.24962 16.098C8.24962 7.51894 15.1949 0.563477 23.7615 0.563477C32.3291 0.563477 39.2741 7.51894 39.2741 16.098"/>
</mask>
<path d="M36.2741 16.098C36.2741 23.0252 30.6681 28.6326 23.7615 28.6326V34.6326C33.9896 34.6326 42.2741 26.331 42.2741 16.098H36.2741ZM23.7615 28.6326C16.8558 28.6326 11.2496 23.0252 11.2496 16.098H5.24962C5.24962 26.3309 13.5341 34.6326 23.7615 34.6326V28.6326ZM11.2496 16.098C11.2496 9.17166 16.8559 3.56348 23.7615 3.56348V-2.43652C13.534 -2.43652 5.24962 5.86621 5.24962 16.098H11.2496ZM23.7615 3.56348C30.6681 3.56348 36.2741 9.17172 36.2741 16.098H42.2741C42.2741 5.86615 33.99 -2.43652 23.7615 -2.43652V3.56348Z" fill="#3C8477" mask="url(#path-1-inside-1_1_23)"/>
<path d="M40.2192 41.9808C36.057 45.8643 33.2639 51.1259 32.4895 57.2022L32.4885 57.2101L31.1773 67.953C28.8138 68.1404 26.3673 68.2187 23.8334 68.1087L23.8009 68.1073H23.7684C16.5668 68.1073 9.5215 67.4515 3.01958 66.0197C1.98139 65.7764 1.38638 64.8589 1.51952 63.9929L1.52331 63.9683L1.52627 63.9435L3.11788 50.6671L3.11794 50.6671L3.1194 50.6539C3.96244 43.0512 10.3446 37.3829 17.9357 37.3829H29.47C33.665 37.3829 37.4755 39.113 40.2192 41.9808Z" stroke="#3C8477" stroke-width="3"/>
<mask id="path-4-inside-2_1_23" fill="white">
<path d="M117.768 16.098C117.768 24.6781 110.823 31.6326 102.256 31.6326C93.6887 31.6326 86.7436 24.6781 86.7436 16.098C86.7436 7.51894 93.6889 0.563477 102.256 0.563477C110.823 0.563477 117.768 7.51894 117.768 16.098"/>
</mask>
<path d="M114.768 16.098C114.768 23.0252 109.162 28.6326 102.256 28.6326V34.6326C112.484 34.6326 120.768 26.3309 120.768 16.098H114.768ZM102.256 28.6326C95.3495 28.6326 89.7436 23.0252 89.7436 16.098H83.7436C83.7436 26.331 92.0279 34.6326 102.256 34.6326V28.6326ZM89.7436 16.098C89.7436 9.17175 95.3498 3.56348 102.256 3.56348V-2.43652C92.028 -2.43652 83.7436 5.86612 83.7436 16.098H89.7436ZM102.256 3.56348C109.162 3.56348 114.768 9.17167 114.768 16.098H120.768C120.768 5.86621 112.484 -2.43652 102.256 -2.43652V3.56348Z" fill="#3C8477" mask="url(#path-4-inside-2_1_23)"/>
<path d="M122.906 50.5213L122.906 50.5213L122.908 50.5326L124.495 63.9067C124.563 64.9367 123.942 65.7933 123.018 66.0161C116.484 67.3237 109.564 68.1065 102.257 68.1065C99.7978 68.1065 97.2455 68.0109 94.8485 67.8199L93.5387 57.0887C92.8863 50.9781 89.9723 45.7169 85.8075 41.8469C88.551 38.9793 92.3611 37.2502 96.5558 37.2502H108.09C115.556 37.2502 122.063 42.9261 122.906 50.5213Z" stroke="#3C8477" stroke-width="3"/>
<path d="M83.6585 58.3568L83.6595 58.3654L85.2458 71.7385C85.325 72.91 84.5837 73.7349 83.9741 73.8368L83.9503 73.8408L83.9266 73.8455C77.3852 75.1561 70.4574 75.9409 63.1412 75.9409C55.9366 75.9409 48.8882 75.2845 42.3839 73.8514L42.3372 73.8411L42.2899 73.8338C41.4341 73.7018 40.7452 72.7839 40.8924 71.8266L40.8963 71.801L40.8994 71.7753L42.4901 58.3654L42.4901 58.3654L42.4911 58.3566C43.3322 50.8924 49.7093 45.2166 57.3077 45.2166H68.8419C76.4392 45.2166 82.8166 50.8924 83.6585 58.3568Z" stroke="#3C8477" stroke-width="3"/>
<mask id="path-8-inside-3_1_23" fill="white">
<path d="M78.5271 23.9324C78.5271 32.5115 71.5827 39.467 63.0151 39.467C54.4476 39.467 47.5032 32.5115 47.5032 23.9324C47.5032 15.3524 54.4476 8.39716 63.0151 8.39716C71.5827 8.39716 78.5271 15.3526 78.5271 23.9324"/>
</mask>
<path d="M75.5271 23.9324C75.5271 30.8589 69.9216 36.467 63.0151 36.467V42.467C73.2438 42.467 81.5271 34.1641 81.5271 23.9324H75.5271ZM63.0151 36.467C56.1087 36.467 50.5032 30.8589 50.5032 23.9324H44.5032C44.5032 34.1641 52.7865 42.467 63.0151 42.467V36.467ZM50.5032 23.9324C50.5032 17.0049 56.1088 11.3972 63.0151 11.3972V5.39716C52.7864 5.39716 44.5032 13.6998 44.5032 23.9324H50.5032ZM63.0151 11.3972C69.9215 11.3972 75.5271 17.0051 75.5271 23.9324H81.5271C81.5271 13.7001 73.2439 5.39716 63.0151 5.39716V11.3972Z" fill="#3C8477" mask="url(#path-8-inside-3_1_23)"/>
<path d="M70.6987 96.047L77.4373 96.5759C78.0339 96.6411 78.3871 97.0032 78.514 97.4034C78.6365 97.7899 78.5662 98.2612 78.0836 98.6541L78.0702 98.665L78.057 98.6761L72.897 103.049C72.895 103.05 72.8929 103.052 72.8908 103.054C71.5778 104.153 70.9687 106.03 71.3891 107.729L72.9781 114.36L72.9826 114.379L72.9874 114.397C73.1156 114.885 72.9352 115.301 72.5605 115.572C72.1805 115.847 71.676 115.91 71.2046 115.638L65.3873 112.063L65.3639 112.049L65.34 112.035C63.8737 111.196 62.0198 111.197 60.5535 112.035L60.5293 112.049L60.5056 112.063L54.6886 115.638C54.2171 115.91 53.7124 115.847 53.3323 115.572C52.9577 115.301 52.7774 114.885 52.9055 114.397L52.9103 114.379L52.9148 114.36L54.5039 107.728C54.9231 106.03 54.3142 104.153 53.0022 103.054L47.8455 98.6843C47.0882 98.0182 47.3975 96.7054 48.5885 96.5758L55.1979 96.0468L55.2247 96.0446L55.2514 96.0416C57.0034 95.8472 58.5363 94.8275 59.2015 93.0967L61.8396 86.8875L61.8502 86.8624L61.8601 86.837C62.0287 86.4031 62.4097 86.1611 62.8974 86.1611C63.3868 86.1611 63.8385 86.4126 64.0609 86.903L66.6927 93.0972C67.3786 94.8765 69.0776 95.8464 70.6188 96.0388L70.6586 96.0438L70.6987 96.047Z" fill="#3C8477" stroke="#3C8477" stroke-width="3.5"/>
<path d="M109.945 88.2133L116.684 88.7423C117.28 88.8072 117.633 89.169 117.76 89.5695C117.883 89.9565 117.812 90.4281 117.33 90.8207L117.317 90.8315L117.304 90.8425L112.144 95.2151C112.142 95.2168 112.14 95.2184 112.138 95.2201C110.825 96.3193 110.216 98.1965 110.636 99.8951L112.225 106.527L112.23 106.545L112.234 106.564C112.363 107.051 112.182 107.467 111.808 107.738C111.427 108.013 110.923 108.077 110.452 107.805L104.634 104.23L104.611 104.215L104.587 104.202C103.121 103.363 101.267 103.363 99.8005 104.201L99.7763 104.215L99.7526 104.23L93.9188 107.815L93.9009 107.826L93.8833 107.837C93.0356 108.387 91.8762 107.615 92.1525 106.564L92.1573 106.545L92.1618 106.527L93.7509 99.8946C94.1701 98.1966 93.5613 96.3197 92.2492 95.2204L87.0925 90.8507C86.3352 90.1846 86.6444 88.8718 87.8355 88.7422L94.444 88.2131L94.4707 88.211L94.4974 88.208C96.2495 88.0135 97.7823 86.9938 98.4475 85.263L101.086 79.0539L101.096 79.0288L101.106 79.0034C101.275 78.5695 101.656 78.3275 102.143 78.3275C102.633 78.3275 103.085 78.5789 103.307 79.0693L105.939 85.2636C106.625 87.0429 108.324 88.0128 109.865 88.2052L109.905 88.2102L109.945 88.2133Z" fill="#3C8477" stroke="#3C8477" stroke-width="3.5"/>
<path d="M31.4512 88.2131L38.1903 88.742C38.7864 88.8069 39.1396 89.1687 39.2667 89.5693C39.3894 89.9563 39.3188 90.4278 38.8368 90.8204L38.8235 90.8312L38.8105 90.8422L33.6505 95.2149C33.6485 95.2165 33.6465 95.2182 33.6445 95.2199C32.3313 96.319 31.7221 98.1963 32.1426 99.8949L33.7316 106.526L33.736 106.545L33.7409 106.564C33.869 107.051 33.6887 107.467 33.314 107.738C32.934 108.013 32.4294 108.076 31.958 107.804L26.1408 104.229L26.1173 104.215L26.0935 104.201C24.6272 103.362 22.7733 103.363 21.307 104.201L21.2828 104.215L21.2591 104.229L15.4253 107.814L15.4074 107.825L15.3898 107.837C14.5421 108.386 13.3827 107.615 13.659 106.563L13.6638 106.545L13.6683 106.526L15.2574 99.8943C15.6766 98.1964 15.0678 96.3195 13.7557 95.2202L8.59902 90.8504C7.84167 90.1843 8.15093 88.8716 9.34197 88.7419L15.9505 88.2129L15.9772 88.2107L16.0039 88.2078C17.756 88.0133 19.2888 86.9936 19.954 85.2628L22.5921 79.0536L22.6028 79.0286L22.6126 79.0032C22.7812 78.5693 23.1622 78.3272 23.6499 78.3272C24.1393 78.3272 24.591 78.5787 24.8134 79.0691L27.4452 85.2634C28.1312 87.0427 29.8301 88.0126 31.3713 88.205L31.4112 88.21L31.4512 88.2131Z" fill="#3C8477" stroke="#3C8477" stroke-width="3.5"/>
</svg>
