<svg width="71" height="71" viewBox="0 0 71 71" fill="none" xmlns="http://www.w3.org/2000/svg">
<rect width="71" height="71" rx="10" fill="#0E8778"/>
<path d="M34.9993 11C28.3692 11.0004 22.0105 13.6341 17.322 18.3228C12.6336 23.0112 10 29.3697 10 36.0002C10 42.6303 12.6341 48.989 17.3224 53.6776C22.0107 58.3662 28.3692 61 34.9998 61C41.6303 61 47.9886 58.3663 52.6772 53.678C57.366 48.9901 59.9996 42.6312 60 36.0007C59.9926 29.3722 57.3563 23.0175 52.6692 18.3311C47.9826 13.6441 41.6275 11.0078 34.9997 11.0003L34.9993 11ZM34.9993 12.8668C40.9634 12.8629 46.6968 15.1705 50.9959 19.3052L18.1077 51.7872C13.9769 47.3735 11.7387 41.5176 11.873 35.4748C12.0073 29.4311 14.5031 23.6802 18.8262 19.4548C23.1487 15.229 28.9545 12.8643 34.9991 12.867L34.9993 12.8668ZM34.9993 59.1323V59.1327C29.2399 59.1371 23.6869 56.9852 19.4358 53.1002L19.4353 53.0998L52.2912 20.6502L52.2917 20.6506C56.2629 25.1174 58.3498 30.9486 58.1153 36.9206C57.8803 42.8934 55.3416 48.5422 51.0317 52.684C46.7223 56.8251 40.9762 59.1366 34.9994 59.1331L34.9993 59.1323Z" fill="white"/>
<path d="M51.9844 37.3518C51.6867 36.9307 51.1042 36.8309 50.6831 37.1286C49.4515 38.0027 48.0068 38.5276 46.5018 38.6479C46.5297 36.9569 46.1417 35.2849 45.3713 33.7795L45.3696 33.7769C46.7747 33.1578 48.015 32.2179 48.9906 31.0321C49.3189 30.634 49.2622 30.0459 48.8646 29.7177C48.467 29.3894 47.8785 29.4456 47.5507 29.8432C46.677 30.9039 45.5448 31.7218 44.2635 32.2179C43.6706 31.574 42.9796 31.0282 42.2153 30.6014C41.6298 30.2731 41.0133 30.0032 40.3756 29.7948H40.3739C38.7067 29.2734 36.9664 29.0227 35.2194 29.0533C30.991 29.0533 27.8656 30.2194 25.9901 32.4276L25.9893 32.4285H25.9897C25.9439 32.4027 25.8955 32.3814 25.8463 32.3639C24.4071 31.8861 23.132 31.0125 22.1667 29.8432C21.8384 29.4456 21.2499 29.3893 20.8523 29.7176C20.4551 30.0459 20.3989 30.6345 20.7272 31.032C21.8415 32.3853 23.2971 33.4163 24.9433 34.0193L24.9399 34.0254V34.025C24.2528 35.4789 23.9092 37.071 23.9358 38.6788C22.1803 38.6854 20.4669 38.1435 19.0343 37.1285C18.6132 36.8312 18.0311 36.9315 17.7338 37.3522C17.4365 37.7729 17.5359 38.3549 17.9562 38.653C19.7018 39.8873 21.7865 40.5499 23.9241 40.5504C23.9634 40.5504 24.0022 40.5499 24.0414 40.5495V40.549C24.2158 42.0034 24.6173 43.4216 25.2316 44.7513C25.259 44.811 25.2861 44.8707 25.3153 44.9304L25.3175 44.9348C25.2325 44.9405 25.1483 44.9579 25.0681 44.9871C23.7576 45.4811 22.2976 45.3839 21.0647 44.7199C20.8467 44.6026 20.5908 44.5769 20.3536 44.6484C20.1164 44.7199 19.9172 44.8825 19.7999 45.1009C19.6831 45.3189 19.6574 45.5748 19.7289 45.812C19.8004 46.0491 19.963 46.2479 20.1814 46.3652C21.0708 46.8413 22.0556 47.1129 23.0631 47.1595C23.1633 47.1639 23.2632 47.1661 23.3626 47.1661V47.1656C24.1696 47.1661 24.9699 47.02 25.7251 46.7349C25.8951 46.6708 26.0425 46.5588 26.1488 46.4119C26.1562 46.4236 26.1641 46.435 26.1728 46.4459C28.1129 49.597 31.5199 51.5471 35.2195 51.6242C38.787 51.5562 42.0916 49.7356 44.0552 46.7562L44.0556 46.7554C44.792 47.0261 45.5706 47.1652 46.3553 47.1656C46.4547 47.1656 46.5545 47.1634 46.6548 47.1591V47.1595C47.6623 47.1129 48.6468 46.8413 49.536 46.3652C49.989 46.1206 50.159 45.5556 49.9153 45.1022C49.6721 44.6484 49.1075 44.4775 48.6532 44.7199C48.011 45.0639 47.2999 45.2601 46.5723 45.2936C46.0526 45.3163 45.5329 45.254 45.0333 45.1101C45.7483 43.6736 46.21 42.1246 46.3979 40.5312L46.3984 40.5273H46.3979C48.3266 40.4196 50.1856 39.77 51.7612 38.6531C52.1823 38.3553 52.2822 37.7724 51.9844 37.3517L51.9844 37.3518ZM35.22 49.7569C32.047 49.7569 29.2355 47.9189 27.527 45.1074C27.1873 44.5454 26.8957 43.9556 26.6559 43.3443C26.0865 41.8891 25.7971 40.3392 25.8014 38.7767C25.8014 33.5644 28.9713 30.9215 35.22 30.9215C36.442 30.9071 37.6619 31.0327 38.8555 31.2951C39.5352 31.4486 40.1961 31.6762 40.8265 31.9735C43.3603 33.1925 44.6373 35.4669 44.6373 38.7767C44.6368 44.8314 40.412 49.7569 35.22 49.7569Z" fill="white"/>
<path d="M28.4368 28.5972C28.7398 28.5972 29.0402 28.5418 29.3235 28.4333C31.1428 27.7907 33.0632 27.4811 34.9924 27.5195C36.9219 27.4811 38.8424 27.7907 40.6616 28.4333C41.4119 28.7171 42.2534 28.6212 42.9203 28.176C43.5878 27.7309 43.9994 26.9911 44.0259 26.1893C44.0342 25.9234 44.0002 25.6575 43.9252 25.402C43.5002 23.9123 42.8188 22.5085 41.9115 21.2533C41.0884 20.1076 40.0321 19.1486 38.8119 18.4401C38.5494 18.2923 38.2316 18.2805 37.9587 18.4082C37.6858 18.5355 37.4913 18.7867 37.436 19.0831C37.17 20.507 36.1451 21.5419 35.0012 21.5419C33.8537 21.5419 32.8287 20.5052 32.5646 19.0765V19.0761C32.5096 18.7801 32.3156 18.529 32.0431 18.4008C31.7707 18.2731 31.4533 18.2844 31.1904 18.4317C28.8341 19.7514 26.9655 22.2918 26.06 25.4019C25.9283 25.8479 25.9239 26.3222 26.0482 26.7709C26.1724 27.2195 26.4201 27.6241 26.7623 27.9388C27.2174 28.3617 27.8155 28.5968 28.4368 28.5972ZM27.8539 25.9239L27.8535 25.9234C28.3936 23.8935 29.5393 22.076 31.1376 20.7128C31.4559 21.4848 31.9895 22.1492 32.674 22.627C33.3589 23.1048 34.1667 23.376 35.0012 23.4087C35.8361 23.3852 36.6461 23.1192 37.3323 22.6427C38.0185 22.1667 38.5508 21.5005 38.8647 20.7267C40.4546 22.0886 41.5942 23.9005 42.1331 25.9233C42.2059 26.1539 42.1366 26.4055 41.9561 26.5663C41.7878 26.7285 41.5397 26.776 41.3235 26.6871C39.2928 25.9643 37.1478 25.6137 34.9924 25.6521C32.8374 25.6138 30.693 25.9643 28.6617 26.6871C28.4455 26.7752 28.1979 26.7281 28.0291 26.5663C27.8486 26.4055 27.7798 26.1535 27.8534 25.9233L27.8539 25.9239Z" fill="white"/>
</svg>
