<svg width="71" height="71" viewBox="0 0 71 71" fill="none" xmlns="http://www.w3.org/2000/svg">
<rect width="71" height="71" rx="10" fill="#0E8778"/>
<path fill-rule="evenodd" clip-rule="evenodd" d="M18.6155 23.0739V25.4263C18.6155 25.7244 18.4301 25.9918 18.148 26.1012C18.1467 26.1015 18.1457 26.1021 18.1447 26.1025C15.1272 27.2867 13.001 30.1881 13.001 33.5777V55.2913C13.001 57.2931 14.6521 58.9163 16.6885 58.9163H25.7323C27.7694 58.9163 29.4198 57.2931 29.4198 55.2913V33.5777C29.4198 30.1891 27.2949 27.2881 24.2834 26.0928C24.2814 26.0918 24.2794 26.0915 24.2771 26.0905C23.9999 25.983 23.8175 25.7199 23.8175 25.427V25.4189C23.8057 24.3547 23.8057 22.85 23.8057 22.85C23.8057 22.45 23.4748 22.125 23.0682 22.125C22.6612 22.125 22.3307 22.45 22.3307 22.85C22.3307 22.85 22.3307 24.3635 22.3425 25.4338C22.3455 26.3203 22.8979 27.1152 23.7375 27.4402C26.2022 28.4187 27.9452 30.7978 27.9452 33.5781V55.2916C27.9452 56.4927 26.9549 57.4666 25.7331 57.4666H16.6892C15.4674 57.4666 14.4767 56.4927 14.4767 55.2916V33.5781C14.4767 30.7995 16.2187 28.4199 18.6923 27.4496C19.5352 27.1236 20.0913 26.321 20.0917 25.4274V23.0744C20.0917 22.6743 19.7611 22.3494 19.3542 22.3494C18.9472 22.3494 18.6167 22.6743 18.6167 23.0744L18.6155 23.0739Z" fill="white"/>
<path fill-rule="evenodd" clip-rule="evenodd" d="M13.7375 52.5505H28.6814C29.089 52.5505 29.4189 52.2256 29.4189 51.8255V34.9359C29.4189 34.5352 29.089 34.2109 28.6814 34.2109H19.0846C18.6776 34.2109 18.3471 34.5359 18.3471 34.9359C18.3471 35.336 18.6776 35.6609 19.0846 35.6609H27.9439V51.1005H13.7375C13.3306 51.1005 13 51.4255 13 51.8255C13 52.2253 13.3306 52.5505 13.7375 52.5505ZM16.1347 34.2109H13.7375C13.3306 34.2109 13 34.5359 13 34.9359C13 35.336 13.3306 35.6609 13.7375 35.6609H16.1347C16.5416 35.6609 16.8722 35.336 16.8722 34.9359C16.8722 34.5359 16.5416 34.2109 16.1347 34.2109Z" fill="white"/>
<path fill-rule="evenodd" clip-rule="evenodd" d="M18.8181 18.4727C18.1303 18.4727 17.4705 18.7413 16.9842 19.2193C16.4979 19.6977 16.2246 20.346 16.2246 21.0228V21.0241C16.2246 21.7002 16.4979 22.3488 16.9842 22.8276C17.4705 23.3056 18.1303 23.5743 18.8181 23.5743H23.6019C24.2897 23.5743 24.9495 23.3056 25.4358 22.8276C25.9224 22.3492 26.196 21.7005 26.196 21.0241V21.0228C26.196 20.346 25.9228 19.6981 25.4358 19.2193C24.9495 18.7413 24.2897 18.4727 23.6019 18.4727H18.8181ZM18.8181 19.9227H23.6019C23.8989 19.9227 24.1831 20.0385 24.3931 20.245C24.6032 20.4509 24.721 20.7308 24.721 21.0228V21.0241C24.721 21.316 24.6032 21.596 24.3931 21.8018C24.1831 22.0083 23.8989 22.1242 23.6019 22.1242H18.8181C18.5217 22.1242 18.2369 22.0083 18.0269 21.8018C17.8175 21.596 17.6993 21.316 17.6993 21.0241V21.0228C17.6993 20.7308 17.8172 20.4509 18.0269 20.245C18.2369 20.0385 18.5214 19.9227 18.8181 19.9227Z" fill="white"/>
<path fill-rule="evenodd" clip-rule="evenodd" d="M20.4717 19.1978V19.1981C20.4717 19.213 20.472 19.2282 20.473 19.2431C20.4842 19.4736 20.5836 19.6264 20.7055 19.7273C20.8372 19.8487 21.0143 19.9232 21.2089 19.9232C21.2089 19.9232 21.9464 19.8801 21.9464 19.1978C21.9464 16.5752 24.1091 14.4494 26.7767 14.4494H27.3848C28.8987 14.4494 30.3507 15.0404 31.421 16.0926C32.4913 17.1448 33.0926 18.5722 33.0926 20.0604V40.5692C33.0926 42.6678 34.8227 44.3693 36.9575 44.3693H37.1735C39.3079 44.3693 41.0384 42.6678 41.0384 40.5692V32.1749C41.0384 31.882 41.2178 31.6176 41.4937 31.5056L42.8927 30.9356C43.2687 30.7825 43.4478 30.3576 43.2921 29.9882C43.1363 29.6186 42.7044 29.4425 42.3283 29.5956C42.3283 29.5956 41.575 29.9025 40.929 30.1656C40.1026 30.5025 39.5637 31.2955 39.5637 32.1749V40.5691C39.5637 41.867 38.494 42.9192 37.1738 42.9192H36.9578C35.6375 42.9192 34.5679 41.867 34.5679 40.5698V20.061C34.5679 18.188 33.8113 16.392 32.464 15.0682C31.1168 13.7438 29.2905 13 27.3851 13H26.777C23.295 13 20.4717 15.7747 20.4717 19.1985L20.4717 19.1978Z" fill="white"/>
<path fill-rule="evenodd" clip-rule="evenodd" d="M44.7014 26.6945C44.8048 26.2712 44.9513 25.8595 45.1379 25.4653C45.3101 25.1024 45.1501 24.6707 44.7814 24.5014C44.4123 24.3321 43.9731 24.4894 43.8009 24.8519C43.5724 25.3342 43.393 25.8384 43.2665 26.3559C43.1717 26.745 43.416 27.1366 43.8118 27.2302C44.2075 27.3234 44.6062 27.0832 44.7011 26.6942L44.7014 26.6945ZM56.8857 25.2271C56.9387 25.328 56.9894 25.431 57.0375 25.5358C57.2057 25.9003 57.6426 26.0627 58.0134 25.8974C58.3844 25.7326 58.5494 25.3028 58.3818 24.938C58.3228 24.8099 58.2603 24.6843 58.1954 24.561C58.0088 24.2053 57.5633 24.0661 57.2018 24.2503C56.8399 24.4338 56.6984 24.8717 56.8857 25.2271ZM46.7074 23.3864C47.032 23.1012 47.3899 22.8449 47.7781 22.6238C48.13 22.4228 48.2502 21.9791 48.0461 21.6331C47.8419 21.2871 47.3902 21.1687 47.0383 21.3697C46.5618 21.6409 46.1233 21.9555 45.7246 22.3054C45.4213 22.5717 45.3947 23.0304 45.666 23.3291C45.9369 23.6272 46.4035 23.6534 46.7073 23.3867L46.7074 23.3864ZM54.1271 22.4967C54.5166 22.6983 54.8867 22.9388 55.2304 23.2158C55.5452 23.4696 56.0101 23.4243 56.2682 23.1148C56.5259 22.8054 56.4802 22.3484 56.1654 22.0947C55.7447 21.7555 55.2913 21.461 54.8139 21.2137C54.454 21.0276 54.0076 21.1635 53.818 21.5176C53.6287 21.872 53.7669 22.3103 54.1271 22.4967ZM50.275 21.7979C50.7175 21.7448 51.1604 21.737 51.5973 21.7723C52.0029 21.8053 52.3595 21.5079 52.3927 21.1091C52.4263 20.7101 52.1237 20.3598 51.7181 20.3272C51.1821 20.2841 50.6385 20.2932 50.096 20.3586C49.6917 20.4074 49.4036 20.7693 49.4533 21.1661C49.5023 21.5635 49.8708 21.8467 50.2747 21.7979L50.275 21.7979Z" fill="white"/>
<path fill-rule="evenodd" clip-rule="evenodd" d="M56.289 30.1265C56.4494 30.3284 56.5972 30.5401 56.7319 30.7605C56.9419 31.1033 57.3956 31.214 57.7443 31.0075C58.093 30.801 58.2056 30.355 57.9955 30.0122C57.8302 29.7426 57.6488 29.4833 57.4533 29.236C57.203 28.9198 56.7395 28.8635 56.4185 29.1088C56.0975 29.3545 56.0395 29.8105 56.2891 30.1261L56.289 30.1265ZM45.9413 30.1313C46.2126 29.7873 46.5191 29.4717 46.8543 29.1885C47.1631 28.9276 47.199 28.4693 46.9333 28.1657C46.6682 27.8621 46.202 27.8275 45.8935 28.088C45.483 28.4347 45.1083 28.8211 44.7761 29.2419C44.5262 29.5581 44.5848 30.0138 44.9065 30.2591C45.2281 30.5048 45.6917 30.4472 45.9412 30.1316L45.9413 30.1313ZM53.0723 27.9288C53.4977 28.0599 53.9046 28.2318 54.2878 28.4412C54.6438 28.6354 55.0932 28.5088 55.2907 28.1593C55.4882 27.8094 55.3595 27.3676 55.0036 27.1734C54.5334 26.9168 54.0346 26.7054 53.5127 26.5452C53.1242 26.4255 52.7097 26.6384 52.5885 27.0203C52.4671 27.4023 52.684 27.8097 53.0722 27.9289L53.0723 27.9288ZM49.1556 27.9301C49.5711 27.8019 50.0047 27.7136 50.4512 27.6692C50.8565 27.6291 51.1518 27.2734 51.111 26.875C51.0701 26.4766 50.7076 26.1862 50.303 26.2264C49.7551 26.2811 49.2234 26.3898 48.7135 26.5468C48.3256 26.6665 48.1093 27.074 48.2308 27.4553C48.3526 27.8372 48.7671 28.0499 49.1557 27.9298L49.1556 27.9301Z" fill="white"/>
<path fill-rule="evenodd" clip-rule="evenodd" d="M54.1722 34.5423C54.2947 34.6665 54.4116 34.7947 54.5229 34.9271C54.782 35.2355 55.2472 35.2796 55.5613 35.0248C55.875 34.7698 55.9192 34.3125 55.66 34.004C55.5237 33.8416 55.3802 33.6839 55.2297 33.5318C54.9459 33.2451 54.4784 33.2386 54.187 33.5172C53.895 33.7962 53.8888 34.2552 54.1722 34.5423ZM46.8344 33.1401C47.2397 32.965 47.6618 32.8307 48.094 32.7385C48.4918 32.654 48.745 32.2676 48.659 31.8766C48.5731 31.4856 48.18 31.2367 47.7823 31.3212C47.2532 31.4338 46.7366 31.5986 46.2408 31.8128C45.8681 31.9737 45.6985 32.4019 45.8622 32.7679C46.0258 33.1343 46.4614 33.301 46.8341 33.1401H46.8344ZM50.7271 32.71C51.1547 32.7922 51.5785 32.9175 51.993 33.0874C52.3687 33.2415 52.801 33.067 52.9577 32.6977C53.1144 32.3284 52.9369 31.9034 52.5613 31.7491C52.0533 31.5406 51.5331 31.3869 51.0086 31.2869C50.6092 31.2105 50.222 31.4672 50.1436 31.8598C50.0659 32.2527 50.3277 32.6336 50.7267 32.7101L50.7271 32.71Z" fill="white"/>
<path fill-rule="evenodd" clip-rule="evenodd" d="M36.2659 53.8806C37.4357 55.3824 38.1357 56.8835 38.5581 58.3853C38.647 58.7019 38.941 58.9203 39.2748 58.9174C39.609 58.9145 39.8994 58.6918 39.9827 58.3737C40.3755 56.8783 41.0712 55.3834 42.266 53.8874C42.5172 53.5728 42.4616 53.1171 42.1416 52.8695C41.8215 52.6225 41.3573 52.6772 41.1061 52.9918C40.3041 53.9958 39.7045 54.9992 39.2581 56.0028C38.8083 55.0014 38.2167 54 37.4371 52.9989C37.1898 52.6814 36.7262 52.6209 36.4032 52.864C36.0802 53.107 36.0187 53.5624 36.2659 53.8803L36.2659 53.8806Z" fill="white"/>
<path fill-rule="evenodd" clip-rule="evenodd" d="M44.2773 53.8806C45.4475 55.3824 46.1477 56.8835 46.5695 58.3853C46.6584 58.7019 46.9524 58.9203 47.2869 58.9174C47.6207 58.9145 47.9108 58.6918 47.9944 58.3737C48.3879 56.8783 49.0829 55.3834 50.2777 53.8874C50.5296 53.5728 50.4733 53.1171 50.1533 52.8695C49.8333 52.6225 49.369 52.6772 49.1178 52.9918C48.3158 53.9958 47.7162 54.9992 47.2698 56.0028C46.82 55.0014 46.229 54 45.4488 52.9989C45.2015 52.6814 44.7383 52.6209 44.4149 52.864C44.092 53.107 44.0304 53.5624 44.2776 53.8803L44.2773 53.8806Z" fill="white"/>
<path fill-rule="evenodd" clip-rule="evenodd" d="M52.2887 53.8806C53.4585 55.3824 54.1585 56.8835 54.5809 58.3853C54.6694 58.7019 54.9638 58.9203 55.2976 58.9174C55.6315 58.9145 55.9222 58.6918 56.0055 58.3737C56.3983 56.8783 57.0936 55.3834 58.2888 53.8874C58.54 53.5728 58.4844 53.1171 58.164 52.8695C57.844 52.6225 57.3804 52.6772 57.1286 52.9918C56.3272 53.9958 55.7273 54.9992 55.2809 56.0028C54.8311 55.0014 54.2395 54 53.4599 52.9989C53.2119 52.6814 52.749 52.6209 52.426 52.864C52.1024 53.107 52.0411 53.5624 52.2887 53.8803L52.2887 53.8806Z" fill="white"/>
<path fill-rule="evenodd" clip-rule="evenodd" d="M48.4339 46.0407C49.604 47.5425 50.3043 49.0443 50.7261 50.5458C50.815 50.8623 51.109 51.0805 51.4428 51.0775C51.777 51.0753 52.0674 50.852 52.1507 50.5341C52.5441 49.0381 53.2391 47.5431 54.434 46.0478C54.6852 45.7332 54.6295 45.2769 54.3095 45.0299C53.9895 44.7823 53.5253 44.8377 53.2741 45.1523C52.472 46.1556 51.8725 47.1596 51.426 48.163C50.9763 47.1616 50.3847 46.1605 49.605 45.1591C49.3578 44.8416 48.8945 44.781 48.5712 45.0241C48.2482 45.2678 48.1866 45.7229 48.4339 46.0404L48.4339 46.0407Z" fill="white"/>
<path fill-rule="evenodd" clip-rule="evenodd" d="M40.3128 46.0407C41.483 47.5425 42.1832 49.0443 42.605 50.5458C42.6939 50.8623 42.9879 51.0805 43.3217 51.0775C43.6559 51.0753 43.9463 50.852 44.0296 50.5341C44.423 49.0381 45.1181 47.5431 46.3129 46.0478C46.5641 45.7332 46.5085 45.2769 46.1884 45.0299C45.8684 44.7823 45.4042 44.8377 45.153 45.1523C44.351 46.1556 43.7514 47.1596 43.3049 48.163C42.8552 47.1616 42.2636 46.1605 41.4839 45.1591C41.2367 44.8416 40.7734 44.781 40.4501 45.0241C40.1271 45.2678 40.0655 45.7229 40.3128 46.0404L40.3128 46.0407Z" fill="white"/>
</svg>
