<svg width="71" height="71" viewBox="0 0 71 71" fill="none" xmlns="http://www.w3.org/2000/svg">
<rect width="71" height="71" rx="10" fill="#0E8778"/>
<path d="M37.3438 33.1487C37.3438 35.5979 38.3167 37.9467 40.0485 39.6786C41.7804 41.4105 44.1291 42.3833 46.5784 42.3833C49.0277 42.3833 51.3764 41.4104 53.1083 39.6786C54.8402 37.9467 55.813 35.598 55.813 33.1487C55.813 30.6994 54.8401 28.3507 53.1083 26.6188C51.3764 24.8869 49.0277 23.9141 46.5784 23.9141C44.1291 23.9141 41.7804 24.887 40.0485 26.6188C38.3166 28.3507 37.3438 30.6994 37.3438 33.1487ZM54.134 33.1487C54.134 35.1527 53.338 37.0745 51.921 38.4913C50.5042 39.9084 48.5824 40.7043 46.5784 40.7043C44.5744 40.7043 42.6525 39.9083 41.2358 38.4913C39.8187 37.0745 39.0228 35.1527 39.0228 33.1487C39.0228 31.1447 39.8188 29.2229 41.2358 27.8061C42.6525 26.389 44.5744 25.5931 46.5784 25.5931C48.5824 25.5931 50.5042 26.3891 51.921 27.8061C53.338 29.2229 54.134 31.1447 54.134 33.1487Z" fill="white"/>
<path d="M44.0592 28.113V30.6315H41.5407C41.0771 30.6315 40.7012 31.0074 40.7012 31.471V34.8291C40.7012 35.0517 40.7896 35.2653 40.947 35.4227C41.1044 35.5801 41.3181 35.6686 41.5407 35.6686H44.0592V38.1871C44.0592 38.4097 44.1477 38.6234 44.3051 38.7808C44.4625 38.9382 44.6761 39.0266 44.8987 39.0266H48.2568C48.4794 39.0266 48.693 38.9382 48.8504 38.7808C49.0078 38.6233 49.0963 38.4097 49.0963 38.1871V35.6686H51.6148C51.8375 35.6686 52.0511 35.5801 52.2085 35.4227C52.3659 35.2653 52.4543 35.0517 52.4543 34.8291V31.471C52.4543 31.2484 52.3659 31.0348 52.2085 30.8773C52.0511 30.7199 51.8375 30.6315 51.6148 30.6315H49.0963V28.113C49.0963 27.8903 49.0078 27.6767 48.8504 27.5193C48.693 27.3619 48.4794 27.2734 48.2568 27.2734H44.8987C44.4351 27.2734 44.0592 27.6493 44.0592 28.113ZM45.7382 31.471V28.9525H47.4173V31.471C47.4173 31.6936 47.5057 31.9072 47.6631 32.0647C47.8205 32.2221 48.0342 32.3105 48.2568 32.3105H50.7753V33.9895H48.2568C47.7932 33.9895 47.4173 34.3654 47.4173 34.8291V37.3476H45.7382V34.8291C45.7382 34.6064 45.6498 34.3928 45.4924 34.2354C45.335 34.078 45.1214 33.9895 44.8987 33.9895H42.3802V32.3105H44.8987C45.1214 32.3105 45.335 32.2221 45.4924 32.0647C45.6498 31.9072 45.7382 31.6936 45.7382 31.471Z" fill="white"/>
<path d="M60.4891 26.5832L47.0569 17.3485C46.7691 17.1492 46.3876 17.1492 46.0997 17.3485L44.4207 18.5321V18.5325C41.7201 15.9011 38.1169 14.3998 34.3465 14.3349H33.3305C32.9947 14.3349 32.6671 14.3349 32.34 14.4106L21.5779 15.5185C21.4688 15.5185 21.217 15.5773 20.5536 15.7284V15.1658C20.5626 14.6003 20.3463 14.0542 19.9528 13.6484C19.5593 13.2421 19.0204 13.009 18.4548 13H18.3289L12.5111 13.8395C11.9512 13.8699 11.4258 14.118 11.0461 14.5302C10.6668 14.9429 10.4633 15.4871 10.4794 16.0473V29.303C10.4704 29.8685 10.6867 30.4146 11.0802 30.8204C11.4737 31.2267 12.0126 31.4598 12.5782 31.4688H12.7041L18.5219 30.6293C19.0406 30.6064 19.5334 30.395 19.9074 30.0353C20.2814 29.6751 20.5112 29.1909 20.5535 28.6733C21.6644 28.848 22.7868 28.9405 23.9116 28.9503L32.3067 29.5717C32.4574 33.8307 33.8613 37.9511 36.3435 41.416C38.8256 44.8808 42.2747 47.5358 46.2593 49.0488C46.4493 49.1159 46.6569 49.1159 46.847 49.0488C50.9493 47.4998 54.4846 44.7414 56.9854 41.1394C59.4859 37.537 60.8336 33.2604 60.8501 28.8748V27.2715C60.8498 26.9968 60.7148 26.7397 60.4892 26.583L60.4891 26.5832ZM18.8742 28.4219C18.8889 28.6707 18.703 28.8866 18.4545 28.9087H18.3286L12.5359 29.7482C12.3219 29.7055 12.1656 29.5211 12.1581 29.3033V16.0477C12.1488 15.9274 12.1881 15.8086 12.2668 15.7171C12.3455 15.6257 12.4576 15.5695 12.5779 15.5608H12.7038L18.4965 14.7213C18.7262 14.7671 18.887 14.9747 18.8742 15.2082V28.4219ZM20.5533 26.9695V17.4575C21.1747 17.3147 21.6277 17.2139 21.7455 17.1974L32.4327 16.1061L33.3224 16.039H34.2545C37.4863 16.078 40.5898 17.3095 42.9686 19.4979L39.8624 21.6386C39.8249 21.5925 39.7825 21.5501 39.7364 21.5127C37.2344 20.0177 34.3317 19.3315 31.4253 19.548C30.877 19.575 30.3305 19.6312 29.7883 19.7159L29.5282 19.7579C28.9431 19.8418 28.4049 20.1248 28.0043 20.5588C27.6036 20.9932 27.3649 21.5523 27.3285 22.1423C27.3042 22.8251 27.5587 23.4888 28.0335 23.9806C28.4885 24.4453 29.105 24.7159 29.7546 24.7361L35.1612 25.5756H35.2871C35.9749 25.594 36.5187 26.164 36.5045 26.8518C36.5034 27.1895 36.3673 27.5129 36.1267 27.7501C35.918 27.9694 35.6316 28.0987 35.3292 28.1111L24.0298 27.2715C22.865 27.2655 21.7024 27.1647 20.554 26.9695L20.5533 26.9695ZM36.2689 24.107V24.1066C35.971 23.9911 35.6562 23.9259 35.3369 23.9136L29.9302 23.0741H29.9306C29.6754 23.0767 29.428 22.9875 29.2339 22.8222C29.0682 22.6558 28.9798 22.4272 28.9903 22.1926C29.0352 21.7721 29.3673 21.44 29.7878 21.395H30.0565C30.534 21.3126 31.0163 21.2594 31.5006 21.2354C33.8722 21.0551 36.2461 21.5562 38.3426 22.6794L36.2689 24.107ZM59.1708 28.8749C59.154 32.8585 57.946 36.7461 55.7019 40.0371C53.4577 43.3284 50.2803 45.8732 46.5782 47.3438C43.005 45.9294 39.916 43.5131 37.6823 40.3859C35.4486 37.2587 34.165 33.5529 33.9855 29.714L35.2365 29.8062V29.8066C36.0254 29.8163 36.7851 29.5079 37.3435 28.9502C37.8274 28.4615 38.1257 27.8195 38.1872 27.1344C38.2482 26.4493 38.0687 25.7646 37.6793 25.1975L46.5782 19.0521L59.1708 27.716V28.8749Z" fill="white"/>
<path d="M38.1834 50.7789H36.4205C36.3118 50.2546 36.1038 49.7557 35.8077 49.3098L37.0587 48.0588H37.0583C37.3878 47.7297 37.3878 47.196 37.0583 46.867C36.7293 46.5375 36.1956 46.5375 35.8665 46.867L34.6155 48.118V48.1176C34.1695 47.8215 33.6707 47.6135 33.1464 47.5048V45.7419C33.1464 45.2783 32.7705 44.9023 32.3069 44.9023C31.8433 44.9023 31.4674 45.2783 31.4674 45.7419V47.5048C30.9431 47.6135 30.4442 47.8215 29.9983 48.1176L28.7473 46.8666V46.867C28.4182 46.5375 27.8845 46.5375 27.5554 46.867C27.226 47.196 27.226 47.7297 27.5554 48.0588L28.8065 49.3098H28.8061C28.51 49.7558 28.302 50.2546 28.1933 50.7789H26.4303C25.9667 50.7789 25.5908 51.1548 25.5908 51.6184C25.5908 52.082 25.9667 52.4579 26.4303 52.4579H28.1933C28.302 52.9822 28.51 53.4811 28.8061 53.927L27.5551 55.178H27.5554C27.3965 55.3354 27.307 55.5502 27.307 55.7739C27.307 55.9977 27.3965 56.2124 27.5554 56.3698C27.7128 56.5287 27.9276 56.6183 28.1513 56.6183C28.3751 56.6183 28.5898 56.5287 28.7472 56.3698L29.9983 55.1188V55.1192C30.4442 55.4153 30.9431 55.6233 31.4673 55.732V57.4949C31.4673 57.9585 31.8433 58.3344 32.3069 58.3344C32.7705 58.3344 33.1464 57.9585 33.1464 57.4949V55.732C33.6707 55.6233 34.1695 55.4153 34.6155 55.1192L35.8665 56.3702V56.3698C36.0239 56.5287 36.2387 56.6183 36.4624 56.6183C36.6861 56.6183 36.9009 56.5287 37.0583 56.3698C37.2172 56.2124 37.3068 55.9977 37.3068 55.7739C37.3068 55.5502 37.2172 55.3354 37.0583 55.178L35.8073 53.927H35.8077C36.1037 53.481 36.3117 52.9822 36.4204 52.4579H38.1834C38.647 52.4579 39.0229 52.082 39.0229 51.6184C39.0229 51.1548 38.647 50.7789 38.1834 50.7789ZM32.3068 54.1369C31.639 54.1369 30.9981 53.8716 30.5259 53.3994C30.0538 52.9271 29.7884 52.2862 29.7884 51.6185C29.7884 50.9507 30.0537 50.3097 30.5259 49.8375C30.9982 49.3654 31.6391 49.1 32.3068 49.1C32.9746 49.1 33.6156 49.3653 34.0878 49.8375C34.5599 50.3098 34.8253 50.9507 34.8253 51.6185C34.8253 52.2862 34.56 52.9272 34.0878 53.3994C33.6155 53.8715 32.9746 54.1369 32.3068 54.1369Z" fill="white"/>
<path d="M23.0721 50.7789H21.3091C21.2005 50.2546 20.9925 49.7557 20.6964 49.3098L21.9474 48.0588H21.947C22.2765 47.7297 22.2765 47.196 21.947 46.867C21.618 46.5375 21.0843 46.5375 20.7552 46.867L19.5042 48.118V48.1176C19.0582 47.8215 18.5594 47.6135 18.0351 47.5048V45.7419C18.0351 45.2783 17.6592 44.9023 17.1956 44.9023C16.732 44.9023 16.3561 45.2783 16.3561 45.7419V47.5048C15.8317 47.6135 15.3329 47.8215 14.887 48.1176L13.6359 46.867C13.3069 46.5375 12.7732 46.5375 12.4441 46.867C12.1147 47.196 12.1147 47.7297 12.4441 48.0588L13.6951 49.3098H13.6948C13.5655 49.5111 13.4504 49.7217 13.3507 49.9394H11.319C10.8554 49.9394 10.4795 50.3153 10.4795 50.7789C10.4795 51.2426 10.8554 51.6185 11.319 51.6185H12.998C12.9995 52.4396 13.2416 53.2424 13.6947 53.9271L12.4441 55.1781C12.2852 55.3355 12.1956 55.5503 12.1956 55.774C12.1956 55.9977 12.2852 56.2125 12.4441 56.3699C12.6015 56.5288 12.8163 56.6184 13.04 56.6184C13.2638 56.6184 13.4785 56.5288 13.6359 56.3699L14.8869 55.1189V55.1193C15.3329 55.4153 15.8318 55.6233 16.356 55.732V57.495C16.356 57.9586 16.7319 58.3345 17.1955 58.3345C17.6591 58.3345 18.0351 57.9586 18.0351 57.495V55.732C18.5594 55.6233 19.0582 55.4153 19.5042 55.1193L20.7552 56.3703V56.3699C20.9126 56.5288 21.1273 56.6184 21.3511 56.6184C21.5748 56.6184 21.7896 56.5288 21.947 56.3699C22.1059 56.2125 22.1955 55.9977 22.1955 55.774C22.1955 55.5503 22.1059 55.3355 21.947 55.1781L20.696 53.9271H20.6963C20.9924 53.4811 21.2004 52.9822 21.3091 52.458H23.0721C23.5357 52.458 23.9116 52.0821 23.9116 51.6185C23.9116 51.1549 23.5357 50.7789 23.0721 50.7789ZM17.1955 54.1369C16.5277 54.1369 15.8868 53.8716 15.4146 53.3994C14.9425 52.9271 14.677 52.2862 14.677 51.6185C14.677 50.9507 14.9424 50.3097 15.4146 49.8375C15.8868 49.3654 16.5278 49.1 17.1955 49.1C17.8633 49.1 18.5043 49.3653 18.9765 49.8375C19.4486 50.3098 19.714 50.9507 19.714 51.6185C19.714 52.2862 19.4487 52.9272 18.9765 53.3994C18.5042 53.8715 17.8633 54.1369 17.1955 54.1369Z" fill="white"/>
<path d="M25.5908 43.1382C26.1151 43.0295 26.6139 42.8215 27.0599 42.5254L28.3109 43.7765V43.7761C28.4683 43.935 28.683 44.0246 28.9068 44.0246C29.1305 44.0246 29.3453 43.935 29.5027 43.7761C29.6616 43.6187 29.7511 43.4039 29.7511 43.1802C29.7511 42.9564 29.6616 42.7417 29.5027 42.5843L28.2516 41.3333H28.252C28.5481 40.8873 28.7561 40.3884 28.8648 39.8642H30.6278C31.0914 39.8642 31.4673 39.4883 31.4673 39.0247C31.4673 38.5611 31.0914 38.1851 30.6278 38.1851H28.8648C28.7561 37.6608 28.5481 37.162 28.252 36.716L29.503 35.465H29.5027C29.8321 35.136 29.8321 34.6023 29.5027 34.2732C29.1736 33.9438 28.6399 33.9438 28.3108 34.2732L27.0598 35.5242V35.5239C26.6138 35.2278 26.115 35.0198 25.5907 34.9111V33.1481C25.5907 32.6845 25.2148 32.3086 24.7512 32.3086C24.2876 32.3086 23.9117 32.6845 23.9117 33.1481V34.9111C23.3874 35.0198 22.8886 35.2278 22.4426 35.5239L21.1916 34.2728V34.2732C20.8625 33.9438 20.3288 33.9438 19.9998 34.2732C19.6703 34.6023 19.6703 35.136 19.9998 35.465L21.2508 36.716H21.2504C20.9543 37.162 20.7463 37.6609 20.6376 38.1851H18.8747C18.4111 38.1851 18.0352 38.5611 18.0352 39.0247C18.0352 39.4883 18.4111 39.8642 18.8747 39.8642H20.6376C20.7463 40.3885 20.9543 40.8873 21.2504 41.3333L19.9994 42.5843H19.9998C19.8409 42.7417 19.7513 42.9564 19.7513 43.1802C19.7513 43.4039 19.8409 43.6187 19.9998 43.7761C20.1572 43.935 20.3719 44.0246 20.5957 44.0246C20.8194 44.0246 21.0342 43.935 21.1916 43.7761L22.4426 42.5251V42.5254C22.8886 42.8215 23.3874 43.0295 23.9117 43.1382V44.9012C23.9117 45.3648 24.2876 45.7407 24.7512 45.7407C25.2148 45.7407 25.5907 45.3648 25.5907 44.9012L25.5908 43.1382ZM22.2327 39.0246C22.2327 38.3567 22.498 37.7158 22.9703 37.2437C23.4425 36.7715 24.0834 36.5061 24.7512 36.5061C25.419 36.5061 26.06 36.7715 26.5321 37.2437C27.0042 37.7159 27.2697 38.3568 27.2697 39.0246C27.2697 39.6924 27.0043 40.3334 26.5321 40.8055C26.0599 41.2777 25.419 41.5431 24.7512 41.5431C24.0834 41.5431 23.4424 41.2777 22.9703 40.8055C22.4981 40.3333 22.2327 39.6924 22.2327 39.0246Z" fill="white"/>
</svg>
