<svg width="71" height="71" viewBox="0 0 71 71" fill="none" xmlns="http://www.w3.org/2000/svg">
<rect width="71" height="71" rx="10" fill="#0E8778"/>
<path d="M36.0544 40.4719V35.8691C38.0616 35.5515 39.8105 34.7005 41.2268 33.265C44.4831 29.9602 45.0505 24.8978 45.1416 22.8739C45.1544 22.6176 45.0484 22.3677 44.8538 22.1987C44.661 22.0293 44.3987 21.9573 44.1467 22.0016C42.4213 22.3085 40.8586 22.9671 39.4401 23.8922C38.733 22.0948 37.1536 19.6155 35.8114 18.252C35.6526 18.0911 35.4346 18 35.2081 18C34.9809 18 34.7629 18.0911 34.6042 18.252C33.2576 19.6155 31.6783 22.097 30.9712 23.8944C29.5527 22.9671 27.9903 22.3107 26.2624 22.0038C26.0082 21.9616 25.7477 22.0336 25.5553 22.2009C25.3625 22.3678 25.2568 22.6177 25.2696 22.8739C25.3607 24.8982 25.9281 29.9603 29.1844 33.2651C30.6007 34.7027 32.3496 35.5537 34.3589 35.8691V40.4719C34.3589 40.9398 34.7399 41.3187 35.2056 41.3187C35.6714 41.3187 36.0544 40.9397 36.0544 40.4719ZM40.0199 32.0752C38.9254 33.1847 37.5938 33.8938 36.0544 34.1859V30.3665C36.3022 29.7164 37.0242 28.3362 38.2881 27C39.7215 25.4883 41.4239 24.453 43.3651 23.9131C43.0156 27.2753 41.8003 30.2711 40.0199 32.0752ZM35.2052 20.1125C36.4394 21.6072 37.6569 23.7689 38.0252 24.9587C37.6991 25.2423 37.3645 25.5134 37.0575 25.8353C36.253 26.6842 35.6476 27.5479 35.2049 28.2954C34.7877 27.5862 34.1951 26.7267 33.3501 25.8353C33.0453 25.5134 32.7107 25.2444 32.3846 24.9609C32.7515 23.771 33.971 21.6093 35.2052 20.1125ZM27.0457 23.9128C28.9852 24.4526 30.6915 25.4879 32.1226 26.9997C33.3802 28.3292 34.1064 29.714 34.3585 30.3683V34.1856C32.8171 33.8935 31.4875 33.1864 30.3908 32.0749C28.6105 30.2707 27.3951 27.2751 27.0457 23.9128Z" fill="white"/>
<path d="M33.4713 46.6974L33.4079 45.9988C33.2193 43.9516 31.9533 42.1222 30.1052 41.2245L25.4092 38.9423L21.213 34.509C20.546 33.821 19.4876 33.681 18.6915 34.1786C17.9738 34.6274 17.6349 35.4638 17.7874 36.2557C16.9279 35.5699 16.1488 34.7823 15.4754 33.9139C15.0309 33.3422 15.0182 33.0817 13.7075 30.2681C13.3222 29.4213 12.3989 28.9492 11.5121 29.1459C10.4346 29.3873 9.77606 30.4839 10.0702 31.549C11.493 36.6703 11.0421 35.0824 11.1375 35.3919C11.6245 36.9291 13.3711 40.3314 14.5185 41.4642C15.8271 42.7557 17.6645 44.0091 19.2843 45.1163C19.9386 45.5629 21.7529 46.7719 22.2144 47.3414C21.9943 47.6378 21.8398 47.9851 21.8398 48.381V50.9851C21.8398 51.9655 22.6358 52.7615 23.6162 52.7615H32.9993C33.9797 52.7615 34.7757 51.9654 34.7757 50.9851V48.381C34.7775 47.5658 34.2164 46.9073 33.471 46.6974L33.4713 46.6974ZM15.6062 40.3607C14.6747 39.442 13.0443 36.2722 12.6168 34.9342L11.5602 31.1339C11.4376 30.6958 12.077 30.4165 12.2992 30.9074C13.5295 33.5306 13.6351 34.0661 14.2532 34.8622C15.6717 36.6894 17.5138 38.1968 19.5844 39.23L22.8767 42.5391C23.027 42.6915 23.2262 42.7677 23.4251 42.7677C24.1067 42.7677 24.4583 41.9376 23.9734 41.4509L20.6516 38.11L19.3413 36.0755C19.1212 35.6225 19.7074 35.1777 20.0952 35.5779C24.5877 40.3015 24.374 40.1594 24.6047 40.2717L29.4275 42.6152C31.6527 43.697 31.8601 45.8417 31.909 46.6041L23.6176 46.6045C23.5984 46.6045 23.5814 46.6151 23.5626 46.6151C23.5414 46.5729 23.5456 46.5261 23.5162 46.4861C22.5 45.0778 18.0051 42.7277 15.6062 40.3607ZM33.2445 50.9823C33.2445 51.1177 33.1342 51.2258 33.001 51.2258H23.6179C23.4825 51.2258 23.3744 51.1156 23.3744 50.9823V48.3783C23.3744 48.2429 23.4846 48.1348 23.6179 48.1348H33.001C33.1364 48.1348 33.2445 48.245 33.2445 48.3783V50.9823Z" fill="white"/>
<path d="M58.8183 29.1462C57.9312 28.9491 57.0082 29.4195 56.623 30.2683C55.3126 33.0822 55.2998 33.3424 54.855 33.9141C54.1816 34.7821 53.4025 35.5697 52.5431 36.2559C52.6955 35.4641 52.3566 34.628 51.6389 34.1789C50.845 33.6813 49.7842 33.8213 49.1174 34.5092L44.9212 38.9425L40.2252 41.2247C38.3768 42.1225 37.1108 43.9539 36.9226 45.999L36.8592 46.6976C36.1116 46.9071 35.5527 47.5656 35.5527 48.3787V50.9828C35.5527 51.9632 36.3488 52.7592 37.3292 52.7592H46.7123C47.6927 52.7592 48.4887 51.9631 48.4887 50.9828V48.3787C48.4887 47.9828 48.3342 47.6333 48.1141 47.3391C48.5755 46.7696 50.3899 45.5605 51.0442 45.114C52.6661 44.0067 54.5015 42.7534 55.81 41.4618C56.9598 40.3291 58.7043 36.9268 59.191 35.3896C59.2885 35.0805 58.8373 36.6684 60.2582 31.5467C60.5563 30.4841 59.8978 29.385 58.8182 29.1461L58.8183 29.1462ZM46.9554 50.9829C46.9554 51.1183 46.8452 51.2264 46.7119 51.2264H37.3289C37.1935 51.2264 37.0854 51.1161 37.0854 50.9829V48.3788C37.0854 48.2434 37.1956 48.1353 37.3289 48.1353H46.7119C46.8473 48.1353 46.9554 48.2455 46.9554 48.3788V50.9829ZM57.715 34.937C57.2872 36.2729 55.655 39.4444 54.7257 40.3635C52.3268 42.7305 47.83 45.0786 46.816 46.4864C46.7862 46.5265 46.7904 46.5732 46.7695 46.6154C46.7504 46.6154 46.7334 46.6048 46.7146 46.6048H38.4214C38.47 45.8428 38.6777 43.698 40.9029 42.6159L45.7257 40.2724C45.9586 40.16 45.7428 40.3021 50.2353 35.5786C50.6227 35.1784 51.2092 35.6207 50.9892 36.0762L49.6788 38.1107L46.3571 41.4516C45.8722 41.9386 46.2238 42.7684 46.9054 42.7684C47.1042 42.7684 47.3034 42.6922 47.4537 42.5398L50.7461 39.2307C52.8167 38.1975 54.6587 36.6901 56.0772 34.8629C56.6932 34.0668 56.7992 33.5334 58.0312 30.9081C58.2535 30.4168 58.8929 30.6986 58.7702 31.1367L57.715 34.937Z" fill="white"/>
</svg>
