<svg width="71" height="71" viewBox="0 0 71 71" fill="none" xmlns="http://www.w3.org/2000/svg">
<rect width="71" height="71" rx="10" fill="#0E8778"/>
<path d="M35.4988 30.6453C34.9865 30.6453 34.5726 30.237 34.5726 29.7315V28.5575C32.6617 28.1381 31.2252 26.4574 31.2252 24.447C31.2252 23.9416 31.6392 23.5332 32.1515 23.5332C32.6638 23.5332 33.0778 23.9416 33.0778 24.447C33.0778 25.7639 34.1645 26.8356 35.4988 26.8356C36.8345 26.8356 37.9212 25.7634 37.9212 24.447C37.9212 23.1294 36.8345 22.0573 35.4988 22.0573C33.1422 22.0573 31.2252 20.1657 31.2252 17.8412C31.2252 15.8308 32.6617 14.1492 34.5726 13.7299V12.5559C34.5726 12.0516 34.9865 11.6421 35.4988 11.6421C36.0112 11.6421 36.4251 12.0516 36.4251 12.5559V13.7299C38.3368 14.1493 39.7737 15.8308 39.7737 17.8412C39.7737 18.3454 39.3598 18.755 38.8475 18.755C38.3351 18.755 37.9212 18.3454 37.9212 17.8412C37.9212 16.5235 36.8345 15.4514 35.4988 15.4514C34.1641 15.4514 33.0778 16.5235 33.0778 17.8412C33.0778 19.158 34.1645 20.2297 35.4988 20.2297C37.8563 20.2297 39.7737 22.1213 39.7737 24.447C39.7737 26.4574 38.3372 28.1377 36.4251 28.5575V29.7315C36.4251 30.237 36.0112 30.6453 35.4988 30.6453ZM50.5361 49.1448C47.3269 52.6461 42.5694 54.484 36.4251 54.6558V61.0862C36.4251 61.5904 36.0112 62 35.4988 62C34.9865 62 34.5726 61.5904 34.5726 61.0862V54.6566C28.4278 54.4849 23.6702 52.6471 20.4616 49.1445C15.294 43.5091 16.0193 35.7372 16.0528 35.4093C16.1045 34.9067 16.5532 34.5404 17.0672 34.5905C27.5802 35.6288 32.3786 41.2613 34.5741 46.1577L34.5737 33.2423C28.2184 32.7715 23.1896 27.5327 23.1896 21.1446C23.1896 14.4482 28.712 9 35.4999 9C42.2878 9 47.8102 14.4481 47.8102 21.1446C47.8102 27.5331 42.7815 32.7723 36.4262 33.2423V46.1577C38.6215 41.2606 43.4203 35.6276 53.9331 34.5905C54.4545 34.5404 54.8966 34.9067 54.9474 35.4085C54.9805 35.7365 55.7058 43.5083 50.5382 49.1447L50.5361 49.1448ZM35.4988 31.4609C41.2657 31.4609 45.9565 26.8336 45.9565 21.144C45.9565 15.4547 41.2657 10.8275 35.4988 10.8275C29.732 10.8275 25.0412 15.4548 25.0412 21.1444C25.0412 26.8337 29.732 31.4609 35.4988 31.4609ZM34.5209 52.848C34.2182 49.5074 32.1328 38.4058 17.8598 36.5218C17.847 38.648 18.2117 43.9775 21.8464 47.9302C24.6897 51.0245 28.9505 52.6766 34.5209 52.8476V52.848ZM49.1516 47.9319C52.7864 43.9781 53.1502 38.6486 53.1383 36.5235C38.8251 38.4095 36.7672 49.5088 36.474 52.8476C42.0452 52.6775 46.308 51.0253 49.1516 47.9323V47.9319ZM51.0894 38.6486C50.8049 38.2284 50.2317 38.1142 49.8046 38.3957C46.9617 40.2653 38.8588 49.1336 38.5158 49.5106C38.1738 49.8851 38.2044 50.4636 38.5844 50.8009C38.761 50.958 38.9835 51.0355 39.2039 51.0355C39.4569 51.0355 39.7096 50.9331 39.892 50.7332C39.9742 50.6418 48.1812 41.6601 50.8335 39.9169C51.2598 39.6371 51.3744 39.0696 51.0903 38.6494L51.0894 38.6486ZM21.1917 38.3965C20.7637 38.1142 20.1893 38.2292 19.9069 38.6494C19.6224 39.0688 19.7373 39.6363 20.1633 39.917C22.8134 41.6598 31.0223 50.6423 31.1048 50.7332C31.2876 50.9339 31.5403 51.0355 31.7933 51.0355C32.0137 51.0355 32.2362 50.958 32.4132 50.8005C32.7928 50.4631 32.8234 49.8859 32.4818 49.5102C32.1378 49.1341 24.035 40.2666 21.192 38.3974L21.1917 38.3965Z" fill="white"/>
</svg>
