<svg width="64" height="64" viewBox="0 0 64 64" fill="none" xmlns="http://www.w3.org/2000/svg">
<path fill-rule="evenodd" clip-rule="evenodd" d="M38.8974 6.63214C44.2301 5.19571 49.7063 8.35736 51.1288 13.6939L57.4362 37.3574C58.8586 42.694 55.6887 48.1845 50.3559 49.621L26.9038 55.938C21.571 57.3744 16.0948 54.2128 14.6724 48.8763L8.36497 25.2127C6.94254 19.8762 10.1125 14.3856 15.4453 12.9492L38.8974 6.63214Z" fill="#B7DBD7"/>
<path fill-rule="evenodd" clip-rule="evenodd" d="M25.0569 7.69898C28.9519 3.78351 35.2669 3.7835 39.1619 7.69897L56.3621 24.9898C60.2571 28.9052 60.2571 35.2535 56.3622 39.169L39.1619 56.4598C35.2669 60.3753 28.9519 60.3753 25.0569 56.4598L7.8566 39.169C3.96162 35.2535 3.96161 28.9053 7.85659 24.9898L25.0569 7.69898Z" fill="#3E9F93"/>
<path d="M32.3954 18.0001L24.4418 18.4668C24.1936 18.4808 23.9996 18.6855 24 18.9335V20.3335C24 20.4572 24.0493 20.576 24.137 20.6635C24.2247 20.751 24.3438 20.8001 24.4679 20.8001H31.018V24.5335H30.0822C29.8239 24.5335 29.6144 24.7424 29.6144 25.0001V27.5257L26.1254 29.4591C25.9068 29.5803 25.7244 29.7578 25.5974 29.9728C25.4706 30.188 25.4036 30.433 25.4036 30.6826V43.6667C25.4044 44.2852 25.6511 44.8783 26.0895 45.3158C26.5281 45.7531 27.1228 45.9991 27.7429 46H37.1002C37.7203 45.9992 38.315 45.7531 38.7536 45.3158C39.192 44.8783 39.4387 44.2852 39.4395 43.6667V30.6826C39.4395 30.4331 39.3725 30.1881 39.2457 29.9728C39.1187 29.7578 38.9363 29.5803 38.7177 29.4591L35.2287 27.5257V25.0001C35.2287 24.8764 35.1794 24.7576 35.0917 24.6701C35.004 24.5826 34.8849 24.5335 34.7609 24.5335H33.8251V19.4001C33.8235 19.0247 33.6714 18.6657 33.4028 18.4028C33.1344 18.1399 32.7716 17.9949 32.3954 18.0001ZM24.9358 19.8668V19.373L32.4216 18.9335C32.5457 18.9335 32.6648 18.9826 32.7525 19.0701C32.8402 19.1576 32.8895 19.2764 32.8895 19.4001V24.5335H31.9538V20.3335C31.9538 20.2097 31.9045 20.091 31.8168 20.0035C31.729 19.916 31.61 19.8668 31.4859 19.8668H24.9358ZM30.2035 28.2668H31.0181V30.1335H26.8352L30.2035 28.2668ZM38.5037 43.6668C38.5037 44.0381 38.3558 44.3944 38.0926 44.6568C37.8294 44.9193 37.4722 45.0668 37.1001 45.0668H27.7428C27.3706 45.0668 27.0134 44.9193 26.7503 44.6568C26.4872 44.3943 26.3393 44.038 26.3393 43.6668V31.0668H31.0179V34.5374C29.9391 35.0812 28.8756 35.3606 27.9651 34.8701C27.8199 34.7939 27.6453 34.7985 27.5045 34.8822C27.3635 34.9662 27.2766 35.1172 27.275 35.2808V42.7336C27.275 43.1048 27.4228 43.4611 27.686 43.7236C27.9492 43.986 28.3064 44.1336 28.6785 44.1336H36.1644C36.5366 44.1336 36.8937 43.9861 37.1569 43.7236C37.42 43.4611 37.5679 43.1048 37.5679 42.7336V39.9336C37.5679 39.6759 37.3584 39.4669 37.1001 39.4669C36.8417 39.4669 36.6322 39.6759 36.6322 39.9336V42.7336C36.6322 42.8573 36.5829 42.9761 36.4952 43.0636C36.4074 43.1511 36.2884 43.2002 36.1643 43.2002H28.6785C28.4201 43.2002 28.2106 42.9913 28.2106 42.7336V35.9592C29.1635 36.1404 30.1496 36.0048 31.0178 35.5731V41.3337C31.0178 41.4574 31.0671 41.5762 31.1548 41.6637C31.2426 41.7512 31.3616 41.8003 31.4857 41.8003H33.3571C33.4812 41.8003 33.6003 41.7512 33.688 41.6637C33.7757 41.5762 33.825 41.4574 33.825 41.3337V33.8286C34.4408 33.3815 35.0523 33.109 36.6322 33.2392V36.2003C36.6322 36.458 36.8417 36.6669 37.1001 36.6669C37.3584 36.6669 37.5679 36.458 37.5679 36.2003V32.8169C37.5677 32.5798 37.3895 32.3805 37.1533 32.3536C35.4222 32.1548 34.5072 32.3596 33.825 32.7232V31.0669H38.5037L38.5037 43.6668ZM32.8893 31.0668V33.3652C32.5925 33.6018 32.2798 33.8181 31.9536 34.0125V31.0669L32.8893 31.0668ZM31.9536 30.1335V28.2668H32.8893V30.1335H31.9536ZM32.8893 34.5202V40.8668H31.9536V35.0994C32.3222 34.8852 32.5871 34.731 32.8893 34.5202V34.5202ZM38.0082 30.1335H33.825V28.2668H34.6396L38.0082 30.1335ZM34.2929 25.4668V27.3335H30.55V25.4668H34.2929Z" fill="white"/>
<path d="M37.5681 38.0643C37.5681 38.322 37.3586 38.531 37.1002 38.531C36.8418 38.531 36.6323 38.322 36.6323 38.0643C36.6323 37.8066 36.8418 37.5977 37.1002 37.5977C37.3586 37.5977 37.5681 37.8066 37.5681 38.0643Z" fill="white"/>
</svg>
