<svg width="136" height="136" viewBox="0 0 136 136" fill="none" xmlns="http://www.w3.org/2000/svg">
<path fill-rule="evenodd" clip-rule="evenodd" d="M93.7001 10.596C99.0348 9.16659 104.518 12.3324 105.948 17.6671L125.411 90.3047C126.84 95.6393 123.674 101.123 118.34 102.552L45.7021 122.015C40.3674 123.445 34.884 120.279 33.4546 114.944L13.9914 42.3067C12.562 36.972 15.7278 31.4886 21.0625 30.0592L93.7001 10.596Z" fill="#C5ECDC"/>
<path fill-rule="evenodd" clip-rule="evenodd" d="M60.9289 7.75857C64.8342 3.85333 71.1658 3.85333 75.0711 7.75857L128.245 60.933C132.151 64.8382 132.151 71.1699 128.245 75.0751L75.0711 128.25C71.1658 132.155 64.8342 132.155 60.9289 128.25L7.75451 75.0751C3.84927 71.1699 3.84926 64.8382 7.75451 60.933L60.9289 7.75857Z" fill="white"/>
<path d="M69.9646 36.0003L51.9979 37.0544C51.4374 37.086 50.9991 37.5486 51 38.1086V41.2711C51 41.5506 51.1114 41.8189 51.3095 42.0165C51.5077 42.2142 51.7766 42.3252 52.0569 42.3252H66.853V50.7585H64.7392C64.1556 50.7585 63.6824 51.2306 63.6824 51.8127V57.5178L55.8012 61.885C55.3072 62.1589 54.8953 62.5599 54.6084 63.0456C54.322 63.5317 54.1706 64.0851 54.1706 64.649V93.9787C54.1725 95.376 54.7297 96.7158 55.72 97.7041C56.7108 98.6919 58.0541 99.2476 59.4549 99.2495H80.5922C81.993 99.2477 83.3363 98.6919 84.3271 97.7041C85.3174 96.7158 85.8746 95.376 85.8765 93.9787V64.649C85.8765 64.0852 85.7251 63.5318 85.4387 63.0456C85.1518 62.5599 84.7399 62.1589 84.2459 61.885L76.3647 57.5178V51.8127C76.3647 51.5332 76.2534 51.2649 76.0552 51.0673C75.8571 50.8696 75.5881 50.7585 75.3079 50.7585H73.1941V39.1628C73.1904 38.3147 72.8469 37.5038 72.2401 36.91C71.6339 36.3161 70.8143 35.9885 69.9646 36.0003ZM53.1139 40.2169V39.1016L70.0238 38.1086C70.304 38.1086 70.5729 38.2197 70.7711 38.4173C70.9693 38.615 71.0806 38.8832 71.0806 39.1628V50.7585H68.9669V41.2711C68.9669 40.9915 68.8555 40.7233 68.6574 40.5256C68.4592 40.328 68.1903 40.2169 67.91 40.2169H53.1139ZM65.0131 59.1918H66.8532V63.4085H57.4046L65.0131 59.1918ZM83.7625 93.9791C83.7625 94.8177 83.4285 95.6225 82.834 96.2154C82.2395 96.8083 81.4326 97.1415 80.592 97.1415H59.4547C58.6139 97.1415 57.8071 96.8084 57.2127 96.2154C56.6183 95.6224 56.2842 94.8176 56.2842 93.9791V65.5168H66.8528V73.3566C64.4159 74.5849 62.0135 75.216 59.9567 74.1082C59.6288 73.9359 59.2344 73.9463 58.9164 74.1355C58.5979 74.3251 58.4016 74.6663 58.3979 75.0357V91.871C58.3979 92.7096 58.7319 93.5144 59.3264 94.1073C59.9209 94.7001 60.7277 95.0334 61.5684 95.0334H78.4782C79.319 95.0334 80.1258 94.7002 80.7202 94.1073C81.3146 93.5143 81.6487 92.7095 81.6487 91.871V85.546C81.6487 84.9639 81.1755 84.4919 80.5919 84.4919C80.0082 84.4919 79.535 84.9639 79.535 85.546V91.871C79.535 92.1505 79.4237 92.4188 79.2255 92.6164C79.0273 92.8141 78.7584 92.9252 78.4781 92.9252H61.5683C60.9847 92.9252 60.5115 92.4531 60.5115 91.871V76.5682C62.6638 76.9776 64.8913 76.6713 66.8526 75.6962V88.7087C66.8526 88.9883 66.964 89.2565 67.1622 89.4542C67.3603 89.6518 67.6292 89.7629 67.9095 89.7629H72.137C72.4172 89.7629 72.6862 89.6518 72.8843 89.4542C73.0825 89.2565 73.1938 88.9883 73.1938 88.7087V71.7554C74.5848 70.7455 75.9662 70.1299 79.535 70.424V77.1128C79.535 77.695 80.0082 78.167 80.5919 78.167C81.1755 78.167 81.6487 77.695 81.6487 77.1128V69.4701C81.6483 68.9346 81.2458 68.4842 80.7122 68.4235C76.8018 67.9745 74.7348 68.4371 73.1938 69.2583V65.517H83.7625L83.7625 93.9791ZM71.0801 65.5168V70.7086C70.4097 71.2432 69.7034 71.7317 68.9664 72.1708V65.5169L71.0801 65.5168ZM68.9664 63.4085V59.1918H71.0801V63.4085H68.9664ZM71.0801 73.3176V87.6542H68.9664V74.6259C69.7992 74.1422 70.3975 73.7939 71.0801 73.3177V73.3176ZM82.6433 63.4085H73.1939V59.1918H75.0339L82.6433 63.4085ZM74.2507 52.8669V57.0835H65.7958V52.8669H74.2507Z" fill="#0E8778"/>
<path d="M81.6489 81.3276C81.6489 81.9097 81.1757 82.3818 80.592 82.3818C80.0084 82.3818 79.5352 81.9097 79.5352 81.3276C79.5352 80.7455 80.0084 80.2734 80.592 80.2734C81.1757 80.2734 81.6489 80.7455 81.6489 81.3276Z" fill="#0E8778"/>
</svg>
