<svg width="29" height="29" viewBox="0 0 29 29" fill="none" xmlns="http://www.w3.org/2000/svg">
<path d="M24.7739 4.21957C23.4378 2.87677 21.8464 1.8121 20.0925 1.08766C18.3386 0.363215 16.4573 -0.00649615 14.5583 8.63757e-05C6.60151 8.63757e-05 0.116583 6.45257 0.116583 14.3695C0.116583 16.907 0.786935 19.372 2.0402 21.547L0 29L7.65075 26.999C9.76382 28.1445 12.1392 28.7535 14.5583 28.7535C22.5151 28.7535 29 22.301 29 14.384C29 10.5416 27.499 6.93107 24.7739 4.21957ZM14.5583 26.3175C12.4015 26.3175 10.2884 25.7375 8.43769 24.65L8.0005 24.389L3.45377 25.578L4.66332 21.17L4.37186 20.7205C3.1736 18.8166 2.53734 16.6159 2.53568 14.3695C2.53568 7.78656 7.92764 2.42158 14.5437 2.42158C17.7497 2.42158 20.7663 3.66858 23.0251 5.93057C24.1436 7.03831 25.0299 8.35592 25.6328 9.80702C26.2357 11.2581 26.5431 12.8139 26.5372 14.384C26.5663 20.967 21.1744 26.3175 14.5583 26.3175ZM21.1452 17.3855C20.7809 17.2115 19.003 16.3415 18.6824 16.211C18.3472 16.095 18.1141 16.037 17.8663 16.385C17.6186 16.7475 16.9337 17.5595 16.7296 17.7915C16.5256 18.038 16.307 18.067 15.9427 17.8785C15.5784 17.7045 14.4126 17.313 13.0427 16.095C11.9643 15.138 11.2502 13.9635 11.0317 13.601C10.8276 13.2385 11.0025 13.05 11.192 12.8615C11.3523 12.702 11.5563 12.441 11.7312 12.238C11.906 12.035 11.9789 11.8756 12.0955 11.6436C12.2121 11.3971 12.1538 11.1941 12.0663 11.0201C11.9789 10.8461 11.2502 9.07706 10.9588 8.35206C10.6673 7.65606 10.3613 7.74306 10.1427 7.72856H9.44322C9.19548 7.72856 8.81658 7.81556 8.48141 8.17806C8.1608 8.54056 7.22814 9.41056 7.22814 11.1796C7.22814 12.9485 8.52513 14.6595 8.7 14.8915C8.87487 15.138 11.2503 18.763 14.8643 20.3145C15.7241 20.6915 16.3945 20.909 16.9191 21.0685C17.7789 21.344 18.5658 21.3005 19.1925 21.2135C19.892 21.112 21.3347 20.3435 21.6261 19.5025C21.9322 18.6615 21.9322 17.951 21.8302 17.7915C21.7281 17.632 21.5095 17.5595 21.1452 17.3855Z" fill="white"/>
</svg>
