<svg width="136" height="136" viewBox="0 0 136 136" fill="none" xmlns="http://www.w3.org/2000/svg">
<path fill-rule="evenodd" clip-rule="evenodd" d="M93.7001 10.596C99.0348 9.16659 104.518 12.3324 105.948 17.6671L125.411 90.3047C126.84 95.6393 123.674 101.123 118.34 102.552L45.7021 122.015C40.3674 123.445 34.884 120.279 33.4546 114.944L13.9914 42.3067C12.562 36.972 15.7278 31.4886 21.0625 30.0592L93.7001 10.596Z" fill="#C5ECDC"/>
<path fill-rule="evenodd" clip-rule="evenodd" d="M60.9289 7.75857C64.8342 3.85333 71.1658 3.85333 75.0711 7.75857L128.245 60.933C132.151 64.8382 132.151 71.1699 128.245 75.0751L75.0711 128.25C71.1658 132.155 64.8342 132.155 60.9289 128.25L7.75451 75.0751C3.84927 71.1699 3.84926 64.8382 7.75451 60.933L60.9289 7.75857Z" fill="white"/>
<path d="M93.6341 44H42.5247C40.5862 44 39 45.5861 39 47.5247V63.5625C39 65.501 40.5861 67.0872 42.5247 67.0872H93.6341C95.5726 67.0872 97.1588 65.5012 97.1588 63.5625L97.1593 47.5247C97.1593 45.5862 95.5732 44 93.6345 44H93.6341ZM87.5535 65.3243H48.6055V63.4739C48.6055 62.5046 49.3988 61.7113 50.3681 61.7113H85.7914C86.7607 61.7113 87.554 62.5045 87.554 63.4739L87.5535 65.3243ZM95.3962 63.5621C95.3962 64.5314 94.6029 65.3247 93.6336 65.3247H89.3156V63.4743C89.3156 61.5358 87.7296 59.9496 85.7909 59.9496L50.3677 59.9491C48.4291 59.9491 46.8429 61.5352 46.8429 63.4739V65.3243H42.525C41.5557 65.3243 40.7624 64.531 40.7624 63.5617L40.7628 47.5239C40.7628 46.5546 41.5561 45.7613 42.5254 45.7613H93.6348C94.604 45.7613 95.3974 46.5546 95.3974 47.5239L95.3962 63.5621Z" fill="#0E8778"/>
<path d="M46.4886 48.4062C44.8143 48.4062 43.4043 49.8163 43.4043 51.4906C43.4043 53.1649 44.8143 54.575 46.4886 54.575C48.163 54.575 49.573 53.1649 49.573 51.4906C49.573 49.8163 48.163 48.4062 46.4886 48.4062ZM46.4886 52.7242C45.7836 52.7242 45.1668 52.1074 45.1668 51.4023C45.1668 50.6973 45.7836 50.0805 46.4886 50.0805C47.1937 50.0805 47.8105 50.6973 47.8105 51.4023C47.8105 52.1074 47.1937 52.7242 46.4886 52.7242Z" fill="#0E8778"/>
<path d="M54.684 48.4062C53.0096 48.4062 51.5996 49.8163 51.5996 51.4906C51.5996 53.1649 53.0096 54.575 54.684 54.575C56.3583 54.575 57.7683 53.1649 57.7683 51.4906C57.7683 49.8163 56.3583 48.4062 54.684 48.4062ZM54.684 52.7242C53.9789 52.7242 53.3621 52.1074 53.3621 51.4023C53.3621 50.6973 53.9789 50.0805 54.684 50.0805C55.389 50.0805 56.0058 50.6973 56.0058 51.4023C56.0058 52.1074 55.389 52.7242 54.684 52.7242Z" fill="#0E8778"/>
<path d="M54.3342 82.2376C54.1582 81.9734 53.8934 81.7969 53.5409 81.7969H50.3688C50.0163 81.7969 49.752 81.9729 49.5755 82.2376L47.9894 84.9695C47.8134 85.2338 47.8134 85.5863 47.9894 85.8506L49.5755 88.5824C49.7515 88.8467 50.0163 89.0232 50.3688 89.0232H53.5409C53.8934 89.0232 54.1577 88.8472 54.3342 88.5824L55.9203 85.8506C56.0963 85.5863 56.0963 85.2338 55.9203 84.9695L54.3342 82.2376ZM53.0123 87.1719H50.8973L49.8397 85.3215L50.8973 83.4711H53.0123L54.0699 85.3215L53.0123 87.1719Z" fill="#0E8778"/>
<path d="M90.8135 87.0892H85.6145L84.6452 85.3266L85.6145 83.564H90.8135C91.0777 83.564 91.4302 83.388 91.5185 83.1232C91.6945 82.859 91.6945 82.5947 91.6067 82.33C90.4614 79.5981 87.7295 77.8359 84.7334 77.8359C81.6491 77.8359 79.0058 79.6863 77.8601 82.4182L58.8263 82.4187C57.681 79.7751 55.0373 77.8364 51.953 77.8364C47.8116 77.8364 44.4629 81.1851 44.4629 85.3265C44.4629 89.4679 47.8116 92.8166 51.953 92.8166C55.0373 92.8166 57.6806 90.9662 58.8263 88.2343H77.8601C79.0054 90.8779 81.6491 92.8166 84.7334 92.8166C87.7295 92.8166 90.3732 91.054 91.6067 88.3226C91.695 88.0583 91.695 87.7058 91.5185 87.5293C91.3425 87.3533 91.0777 87.089 90.8135 87.089V87.0892ZM51.9528 91.0547C48.7807 91.0547 46.2252 88.4993 46.2252 85.3271C46.2252 82.1549 48.7805 79.5994 51.9528 79.5994C55.125 79.5994 57.6804 82.1548 57.6804 85.3271C57.6809 88.4987 55.1255 91.0547 51.9528 91.0547ZM59.3551 86.5602C59.4434 86.2077 59.4434 85.7669 59.4434 85.4149C59.4434 85.0624 59.4434 84.6216 59.3551 84.2695H77.4201C77.3319 84.622 77.3319 85.0628 77.3319 85.4149C77.3319 85.7674 77.3319 86.2081 77.4201 86.5602H59.3551ZM84.7339 91.0547C81.5618 91.0547 79.0063 88.4993 79.0063 85.3271C79.0063 82.1549 81.5617 79.5994 84.7339 79.5994C86.4966 79.5994 88.1704 80.3927 89.228 81.8023H85.0865C84.734 81.8023 84.4698 81.9783 84.2933 82.2431L82.7955 84.8867C82.6194 85.151 82.6194 85.5035 82.7955 85.7677L84.2933 88.4114C84.4693 88.6756 84.734 88.8521 85.0865 88.8521L89.228 88.8512C88.1704 90.2612 86.4966 91.0546 84.7339 91.0546V91.0547Z" fill="#0E8778"/>
</svg>
