<svg width="64" height="64" viewBox="0 0 64 64" fill="none" xmlns="http://www.w3.org/2000/svg">
<path fill-rule="evenodd" clip-rule="evenodd" d="M38.8974 6.63214C44.2301 5.19571 49.7063 8.35736 51.1288 13.6939L57.4362 37.3574C58.8586 42.694 55.6887 48.1845 50.3559 49.621L26.9038 55.938C21.571 57.3744 16.0948 54.2128 14.6724 48.8763L8.36497 25.2127C6.94254 19.8762 10.1125 14.3856 15.4453 12.9492L38.8974 6.63214Z" fill="#B7DBD7"/>
<path fill-rule="evenodd" clip-rule="evenodd" d="M25.0569 7.69898C28.9519 3.78351 35.2669 3.7835 39.1619 7.69897L56.3621 24.9898C60.2571 28.9052 60.2571 35.2535 56.3622 39.169L39.1619 56.4598C35.2669 60.3753 28.9519 60.3753 25.0569 56.4598L7.8566 39.169C3.96162 35.2535 3.96161 28.9053 7.85659 24.9898L25.0569 7.69898Z" fill="#3E9F93"/>
<path d="M43.5357 21H19.6474C18.7414 21 18 21.7413 18 22.6474V30.1434C18 31.0495 18.7413 31.7908 19.6474 31.7908H43.5357C44.4417 31.7908 45.1831 31.0495 45.1831 30.1434L45.1833 22.6474C45.1833 21.7414 44.442 21 43.5359 21H43.5357ZM40.6936 30.9668H22.4896V30.102C22.4896 29.6489 22.8603 29.2781 23.3134 29.2781H39.87C40.3231 29.2781 40.6938 29.6489 40.6938 30.102L40.6936 30.9668ZM44.3593 30.1432C44.3593 30.5963 43.9885 30.9671 43.5354 30.9671H41.5172V30.1022C41.5172 29.1961 40.7759 28.4548 39.8698 28.4548L23.3132 28.4545C22.4071 28.4545 21.6657 29.1959 21.6657 30.102V30.9668H19.6476C19.1945 30.9668 18.8237 30.5961 18.8237 30.143L18.8239 22.6471C18.8239 22.194 19.1947 21.8232 19.6478 21.8232H43.536C43.989 21.8232 44.3598 22.194 44.3598 22.6471L44.3593 30.1432Z" fill="white"/>
<path d="M21.5002 23.0586C20.7176 23.0586 20.0586 23.7176 20.0586 24.5002C20.0586 25.2828 20.7176 25.9418 21.5002 25.9418C22.2828 25.9418 22.9418 25.2828 22.9418 24.5002C22.9418 23.7176 22.2828 23.0586 21.5002 23.0586ZM21.5002 25.0768C21.1707 25.0768 20.8824 24.7885 20.8824 24.4589C20.8824 24.1294 21.1707 23.8411 21.5002 23.8411C21.8298 23.8411 22.118 24.1294 22.118 24.4589C22.118 24.7885 21.8298 25.0768 21.5002 25.0768Z" fill="white"/>
<path d="M25.3308 23.0586C24.5482 23.0586 23.8892 23.7176 23.8892 24.5002C23.8892 25.2828 24.5482 25.9418 25.3308 25.9418C26.1133 25.9418 26.7724 25.2828 26.7724 24.5002C26.7724 23.7176 26.1133 23.0586 25.3308 23.0586ZM25.3308 25.0768C25.0012 25.0768 24.7129 24.7885 24.7129 24.4589C24.7129 24.1294 25.0012 23.8411 25.3308 23.8411C25.6603 23.8411 25.9486 24.1294 25.9486 24.4589C25.9486 24.7885 25.6603 25.0768 25.3308 25.0768Z" fill="white"/>
<path d="M25.1671 38.874C25.0848 38.7505 24.9611 38.668 24.7963 38.668H23.3137C23.1489 38.668 23.0254 38.7502 22.9429 38.874L22.2016 40.1508C22.1193 40.2744 22.1193 40.4391 22.2016 40.5626L22.9429 41.8395C23.0252 41.963 23.1489 42.0455 23.3137 42.0455H24.7963C24.9611 42.0455 25.0846 41.9632 25.1671 41.8395L25.9084 40.5626C25.9907 40.4391 25.9907 40.2744 25.9084 40.1508L25.1671 38.874ZM24.5493 41.1802H23.5607L23.0664 40.3154L23.5607 39.4505H24.5493L25.0436 40.3154L24.5493 41.1802Z" fill="white"/>
<path d="M42.2172 41.1413H39.7872L39.3342 40.3175L39.7872 39.4937H42.2172C42.3407 39.4937 42.5055 39.4114 42.5467 39.2877C42.629 39.1641 42.629 39.0406 42.588 38.9169C42.0527 37.64 40.7758 36.8164 39.3754 36.8164C37.9338 36.8164 36.6984 37.6813 36.1629 38.9581L27.2666 38.9584C26.7313 37.7227 25.4957 36.8166 24.0541 36.8166C22.1184 36.8166 20.5532 38.3818 20.5532 40.3175C20.5532 42.2531 22.1184 43.8183 24.0541 43.8183C25.4957 43.8183 26.7311 42.9534 27.2666 41.6766H36.1629C36.6982 42.9122 37.9338 43.8183 39.3754 43.8183C40.7758 43.8183 42.0115 42.9945 42.588 41.7178C42.6292 41.5943 42.6292 41.4295 42.5467 41.347C42.4645 41.2648 42.3407 41.1412 42.2172 41.1412V41.1413ZM24.054 42.9948C22.5713 42.9948 21.3769 41.8004 21.3769 40.3177C21.3769 38.8351 22.5713 37.6407 24.054 37.6407C25.5366 37.6407 26.731 38.835 26.731 40.3177C26.7312 41.8001 25.5369 42.9948 24.054 42.9948ZM27.5138 40.8941C27.555 40.7293 27.555 40.5233 27.555 40.3588C27.555 40.194 27.555 39.988 27.5138 39.8234H35.9573C35.916 39.9882 35.916 40.1942 35.916 40.3588C35.916 40.5235 35.916 40.7295 35.9573 40.8941H27.5138ZM39.3757 42.9948C37.893 42.9948 36.6986 41.8004 36.6986 40.3177C36.6986 38.8351 37.893 37.6407 39.3757 37.6407C40.1995 37.6407 40.9819 38.0114 41.4762 38.6703H39.5405C39.3757 38.6703 39.2522 38.7525 39.1697 38.8763L38.4696 40.1119C38.3874 40.2354 38.3874 40.4002 38.4696 40.5237L39.1697 41.7593C39.252 41.8828 39.3757 41.9653 39.5405 41.9653L41.4762 41.9649C40.9819 42.6239 40.1995 42.9947 39.3757 42.9947V42.9948Z" fill="white"/>
</svg>
