<svg width="71" height="71" viewBox="0 0 71 71" fill="none" xmlns="http://www.w3.org/2000/svg">
<rect width="71" height="71" rx="10" fill="#0E8778"/>
<path d="M41.4992 41.4508H38.9492V38.9008C38.9492 38.6754 38.8597 38.4591 38.7003 38.2997C38.5409 38.1403 38.3246 38.0508 38.0992 38.0508H34.6992C34.2298 38.0508 33.8492 38.4314 33.8492 38.9008V41.4508H31.2992C30.8298 41.4508 30.4492 41.8314 30.4492 42.3008V45.7008C30.4492 45.9262 30.5388 46.1425 30.6981 46.3019C30.8575 46.4612 31.0738 46.5508 31.2992 46.5508H33.8492V49.1008C33.8492 49.3262 33.9388 49.5425 34.0981 49.7019C34.2575 49.8612 34.4738 49.9508 34.6992 49.9508H38.0992C38.3246 49.9508 38.5409 49.8612 38.7003 49.7019C38.8597 49.5425 38.9492 49.3262 38.9492 49.1008V46.5508H41.4992C41.7246 46.5508 41.9409 46.4612 42.1003 46.3019C42.2597 46.1425 42.3492 45.9262 42.3492 45.7008V42.3008C42.3492 42.0754 42.2597 41.8591 42.1003 41.6997C41.9409 41.5403 41.7246 41.4508 41.4992 41.4508ZM40.6492 44.8508H38.0992C37.6298 44.8508 37.2492 45.2314 37.2492 45.7008V48.2508H35.5492V45.7008C35.5492 45.4754 35.4597 45.2591 35.3003 45.0997C35.1409 44.9403 34.9246 44.8508 34.6992 44.8508H32.1492V43.1508H34.6992C34.9246 43.1508 35.1409 43.0612 35.3003 42.9019C35.4597 42.7425 35.5492 42.5262 35.5492 42.3008V39.7508H37.2492V42.3008C37.2492 42.5262 37.3388 42.7425 37.4981 42.9019C37.6575 43.0612 37.8738 43.1508 38.0992 43.1508H40.6492V44.8508Z" fill="white"/>
<path d="M43.1999 27V22.75C43.1999 22.5246 43.1104 22.3083 42.951 22.1489C42.7916 21.9896 42.5753 21.9 42.3499 21.9H40.6499V14.25C40.6499 14.0246 40.5604 13.8083 40.401 13.6489C40.2416 13.4896 40.0253 13.4 39.7999 13.4V10.85C39.7999 10.6246 39.7104 10.4083 39.551 10.2489C39.3916 10.0896 39.1753 10 38.9499 10H33.8499C33.3805 10 32.9999 10.3806 32.9999 10.85V13.4C32.5305 13.4 32.1499 13.7806 32.1499 14.25V15.1H22.7999C22.5745 15.1015 22.3586 15.1899 22.1966 15.3467L18.7966 18.7467C18.4649 19.0806 18.4649 19.6194 18.7966 19.9534L21.3466 22.5034C21.6817 22.8324 22.2182 22.8324 22.5533 22.5034L24.8483 20.2H32.1499V21.9H30.4499C29.9806 21.9 29.5999 22.2806 29.5999 22.75V27C28.0225 27.0019 26.5099 27.6292 25.3947 28.7448C24.2791 29.86 23.6519 31.3726 23.6499 32.95V58.45C23.6518 59.1258 23.9213 59.7732 24.399 60.2509C24.8768 60.7287 25.5241 60.9981 26.1999 61H46.5999C47.2758 60.9981 47.9231 60.7287 48.4009 60.2509C48.8786 59.7732 49.148 59.1258 49.1499 58.45V32.95C49.148 31.3726 48.5208 29.86 47.4051 28.7448C46.2899 27.6292 44.7773 27.002 43.1999 27L43.1999 27ZM34.6999 11.7H38.0999V13.4H34.6999V11.7ZM33.8499 15.1H38.9499V21.9H33.8499V15.1ZM24.4999 18.5C24.2745 18.5015 24.0586 18.5899 23.8966 18.7467L21.9499 20.7017L20.5983 19.35L23.1483 16.8H32.1499V18.5L24.4999 18.5ZM31.2999 23.6H41.4999V27H31.2999V23.6ZM47.4499 58.45C47.4499 58.6754 47.3604 58.8917 47.201 59.0511C47.0416 59.2104 46.8253 59.3 46.5999 59.3H26.1999C25.7305 59.3 25.3499 58.9194 25.3499 58.45V55.05H47.4499V58.45ZM47.4499 53.35H25.3499V34.65H47.4499V53.35ZM25.3499 32.95C25.3499 31.8229 25.7977 30.7419 26.5945 29.9446C27.3918 29.1477 28.4729 28.7 29.5999 28.7H43.1999C44.327 28.7 45.408 29.1478 46.2053 29.9446C47.0022 30.7418 47.4499 31.8229 47.4499 32.95H25.3499Z" fill="white"/>
<path d="M18.7003 23.966C18.2491 24.6187 16 27.9557 16 29.5487C16 30.7634 16.6481 31.8859 17.7 32.4933C18.7519 33.1005 20.0481 33.1005 21.1 32.4933C22.1519 31.8858 22.8 30.7633 22.8 29.5487C22.8 27.9558 20.5509 24.6187 20.0997 23.966C19.9324 23.7486 19.674 23.6211 19.4 23.6211C19.126 23.6211 18.8676 23.7486 18.7003 23.966H18.7003ZM19.4 31.2487C18.9492 31.2487 18.5166 31.0696 18.1979 30.7509C17.8791 30.4321 17.7 29.9995 17.7 29.5487C17.7 28.986 18.4931 27.445 19.4 25.9966C20.3069 27.4416 21.1 28.9853 21.1 29.5487C21.1 29.9995 20.9209 30.4321 20.6022 30.7509C20.2834 31.0696 19.8508 31.2487 19.4 31.2487Z" fill="white"/>
</svg>
