<svg width="96" height="96" viewBox="0 0 96 96" fill="none" xmlns="http://www.w3.org/2000/svg">
<circle cx="47.7065" cy="47.7221" r="47.3862" fill="#E7F3F2"/>
<path d="M77.1874 28.6646C77.8447 29.6812 78.8226 30.2746 79.8885 30.2746C81.8875 30.2746 83.4527 28.2376 83.4527 25.6373C83.4527 23.037 81.8875 21 79.8885 21C78.8172 21 77.8344 21.5983 77.1844 22.61H19.2653C18.608 21.5934 17.6301 21 16.5642 21C14.5652 21 13 23.037 13 25.6373C13 28.2376 14.5652 30.2746 16.5642 30.2746C17.6355 30.2746 18.6183 29.6763 19.2683 28.6646H45.199V51.1057L36.5006 47.5249C36.1412 47.3756 35.7419 47.2964 35.3463 47.2964L19.2475 47.297C17.5785 47.297 16.2203 48.6552 16.2203 50.3242C16.2203 51.9933 17.5785 53.3515 19.2475 53.3515H20.5842C20.5683 53.6083 20.5566 53.8638 20.5566 54.1132V58.7285C20.5566 62.875 22.6501 66.6757 26.0804 68.9112L24.7431 70.2553C24.1718 70.8266 23.8566 71.5852 23.8566 72.3918C23.8566 73.1984 24.1724 73.957 24.7388 74.5241C25.3082 75.1009 26.065 75.4192 26.8711 75.4222H26.8803C27.6881 75.4222 28.4492 75.1046 29.0255 74.5284L32.5958 70.9587C37.2724 71.3881 42.763 71.605 48.3157 71.605C53.7621 71.605 59.2521 71.3961 64.0654 70.9827L67.6179 74.5247C68.1892 75.104 68.9491 75.4228 69.7574 75.4228C70.564 75.4228 71.3227 75.1052 71.894 74.529C72.4702 73.9577 72.7878 73.1996 72.7878 72.3931C72.7878 71.5847 72.469 70.8248 71.8958 70.2584L70.8761 69.2332C73.9826 67.4511 76.1744 64.3784 76.8078 60.8658L78.2791 60.8645C79.9481 60.8645 81.3063 59.5063 81.3063 57.8373C81.3063 56.1683 79.9481 54.81 78.2791 54.81H77.013V28.6654L77.1874 28.6646ZM78.4922 23.8743C78.8294 23.177 79.351 22.7618 79.8885 22.7618C80.8658 22.7618 81.6915 24.0788 81.6915 25.6373C81.6915 27.1964 80.8659 28.5134 79.8891 28.5134C79.3516 28.5134 78.8295 28.0975 78.4812 27.3788C78.2268 26.8868 78.0862 26.2688 78.0862 25.6373C78.0862 25.0064 78.2262 24.3878 78.4922 23.8743H78.4922ZM17.9609 27.401C17.6237 28.0976 17.1021 28.5135 16.5646 28.5135C15.5873 28.5135 14.7616 27.1964 14.7616 25.6373C14.7616 24.0789 15.5873 22.7612 16.564 22.7612C17.1015 22.7612 17.6237 23.1771 17.972 23.8958C18.2263 24.3879 18.367 25.0058 18.367 25.6373C18.367 26.2688 18.2269 26.8868 17.9609 27.401H17.9609ZM19.9943 26.9034C20.0213 26.7793 20.0367 26.6503 20.0557 26.5231C20.0668 26.4482 20.0834 26.3757 20.0914 26.2995C20.1153 26.0821 20.1282 25.8609 20.1282 25.6373C20.1282 25.4143 20.1153 25.1938 20.0914 24.977C20.0815 24.8854 20.0619 24.7976 20.0478 24.7073C20.0299 24.5949 20.0177 24.4812 19.9937 24.3713H76.4582C76.4312 24.4954 76.4158 24.6244 76.3968 24.7515C76.3857 24.8265 76.3691 24.899 76.3611 24.9751C76.3372 25.1926 76.3243 25.4137 76.3243 25.6373C76.3243 25.8603 76.3372 26.0809 76.3611 26.2983C76.371 26.3886 76.39 26.4746 76.4035 26.5637C76.4213 26.6773 76.4342 26.7922 76.4582 26.9034L19.9943 26.9034ZM75.2526 28.6646V54.8092H54.197L46.9605 51.8267V28.6638L75.2526 28.6646ZM27.7803 73.281C27.5358 73.5243 27.217 73.6588 26.881 73.6588H26.8773C26.5437 73.6582 26.2298 73.5249 25.989 73.2804C25.75 73.0421 25.6186 72.7257 25.6186 72.3897C25.6186 72.0543 25.75 71.7379 25.9908 71.4971L27.6789 69.8004C27.7458 69.8317 27.8171 69.8514 27.8847 69.8815C28.1543 70.0001 28.4283 70.1057 28.7054 70.2046C28.8436 70.2538 28.9794 70.3078 29.1194 70.3521C29.4984 70.4718 29.8836 70.5732 30.2755 70.6555C30.3106 70.6629 30.3437 70.6752 30.3787 70.6825L27.7803 73.281ZM71.027 72.3897C71.027 72.7232 70.8937 73.0384 70.6529 73.2761C70.6505 73.2786 70.648 73.281 70.6462 73.2841C70.1682 73.7663 69.3537 73.7712 68.8666 73.2792L66.3468 70.7661C66.4101 70.7575 66.4697 70.7397 66.5323 70.7305C66.915 70.6746 67.291 70.6034 67.6596 70.5143C67.7271 70.4983 67.7959 70.486 67.8629 70.4688C68.28 70.3607 68.6842 70.2286 69.0792 70.0787C69.1185 70.064 69.1603 70.0554 69.1996 70.04L70.6531 71.5021C70.8939 71.741 71.0272 72.0556 71.0272 72.3897L71.027 72.3897ZM69.0385 68.1971C68.0519 68.6462 66.9677 68.9361 65.8239 69.0553L65.389 69.0977C65.0787 69.1284 64.7648 69.1603 64.4208 69.183C54.6675 70.059 41.4136 70.0455 32.1698 69.1499L31.9757 69.1314C31.8903 69.1222 31.8055 69.113 31.7453 69.1093C31.3774 69.0725 31.0155 69.0123 30.6574 68.938C29.7022 68.7389 28.7819 68.4109 27.9115 67.9495C24.4621 66.1429 22.3194 62.6094 22.3194 58.7265V54.1112C22.3194 53.8624 22.3286 53.6081 22.3477 53.3495H34.7449L52.4398 60.6344C52.7992 60.7837 53.1985 60.8629 53.5941 60.8629H75.013C74.3281 64.0794 72.1092 66.8346 69.0371 68.1971L69.0385 68.1971ZM78.2807 56.5696C78.9791 56.5696 79.5468 57.1378 79.5468 57.8356C79.5468 58.5335 78.9791 59.1017 78.2807 59.1017H53.5939C53.4286 59.1017 53.2634 59.0691 53.1141 59.0071L35.254 51.6545C35.1471 51.6109 35.0341 51.5882 34.9186 51.5882L21.5557 51.5888H19.2483C18.5499 51.5888 17.9823 51.0206 17.9823 50.3227C17.9823 49.6249 18.5499 49.0566 19.2483 49.0566H35.3487C35.5139 49.0566 35.6792 49.0892 35.8297 49.1512L53.6882 56.5032C53.7951 56.5474 53.9081 56.5702 54.0236 56.5702L76.1329 56.5695L78.2807 56.5696Z" fill="#269385"/>
<path d="M53.592 50.6669C54.0785 50.6669 54.4729 50.2725 54.4729 49.786V33.6856C54.4729 33.1991 54.0791 32.8047 53.592 32.8047C53.1054 32.8047 52.7111 33.1991 52.7111 33.6856V49.786C52.7111 50.2725 53.1054 50.6669 53.592 50.6669Z" fill="#269385"/>
<path d="M61.1055 50.6669C61.5921 50.6669 61.9864 50.2725 61.9864 49.786V33.6856C61.9864 33.1991 61.5927 32.8047 61.1055 32.8047C60.619 32.8047 60.2246 33.1991 60.2246 33.6856V49.786C60.2252 50.2725 60.619 50.6669 61.1055 50.6669Z" fill="#269385"/>
<path d="M68.6192 50.6669C69.1057 50.6669 69.5001 50.2725 69.5001 49.786V33.6856C69.5001 33.1991 69.1063 32.8047 68.6192 32.8047C68.1327 32.8047 67.7383 33.1991 67.7383 33.6856V49.786C67.7383 50.2725 68.132 50.6669 68.6192 50.6669Z" fill="#269385"/>
<path d="M24.0763 31.1953C22.7027 31.1953 21.5859 32.3127 21.5859 33.6857C21.5859 35.0593 22.7034 36.1761 24.0763 36.1761C25.4499 36.1761 26.5667 35.0587 26.5667 33.6857C26.5667 32.3121 25.4499 31.1953 24.0763 31.1953ZM24.0763 34.4149C23.674 34.4149 23.3471 34.0875 23.3471 33.6857C23.3471 33.2834 23.674 32.9566 24.0763 32.9566C24.4787 32.9566 24.8055 33.284 24.8055 33.6857C24.8055 34.0881 24.4787 34.4149 24.0763 34.4149Z" fill="#269385"/>
<path d="M28.9071 45.8376C31.1683 45.8376 33.0075 43.9978 33.0075 41.7371C33.0075 39.4759 31.1677 37.6367 28.9071 37.6367C26.6458 37.6367 24.8066 39.4765 24.8066 41.7371C24.8066 43.9984 26.6464 45.8376 28.9071 45.8376ZM28.9071 39.3979C30.1971 39.3979 31.2463 40.4471 31.2463 41.7371C31.2463 43.0272 30.1971 44.0764 28.9071 44.0764C27.617 44.0764 26.5678 43.0272 26.5678 41.7371C26.5678 40.4471 27.617 39.3979 28.9071 39.3979Z" fill="#269385"/>
<path d="M43.7417 35.2986C43.7417 32.4457 41.4202 30.125 38.5681 30.125C35.7152 30.125 33.3945 32.4465 33.3945 35.2986C33.3945 38.1514 35.716 40.4721 38.5681 40.4721C41.4202 40.4721 43.7417 38.1513 43.7417 35.2986ZM35.1549 35.2986C35.1549 33.4169 36.6857 31.8862 38.5673 31.8862C40.4489 31.8862 41.9797 33.417 41.9797 35.2986C41.9797 37.1802 40.4489 38.711 38.5673 38.711C36.6857 38.711 35.1549 37.1801 35.1549 35.2986Z" fill="#269385"/>
</svg>
