<svg width="96" height="96" viewBox="0 0 96 96" fill="none" xmlns="http://www.w3.org/2000/svg">
<circle cx="47.9389" cy="47.7221" r="47.3862" fill="#E7F3F2"/>
<path d="M35.5625 46.4843C34.9671 46.4843 34.4844 46.0016 34.4844 45.4062V42.1718C34.4844 41.8859 34.3708 41.6116 34.1686 41.4094C33.9665 41.2073 33.6921 41.0937 33.4063 41.0937H24.7813C24.1859 41.0937 23.7031 41.5764 23.7031 42.1718V45.4062C23.7031 46.0016 23.2204 46.4843 22.625 46.4843C22.0296 46.4843 21.5469 46.0016 21.5469 45.4062V42.1718C21.5469 41.3141 21.8876 40.491 22.4941 39.8847C23.1005 39.2784 23.9236 38.9375 24.7812 38.9375H33.4062C34.2639 38.9375 35.087 39.2783 35.6933 39.8847C36.2996 40.4912 36.6405 41.3142 36.6405 42.1718V45.4062C36.6405 45.6921 36.5269 45.9664 36.3248 46.1686C36.1226 46.3707 35.8483 46.4843 35.5624 46.4843H35.5625Z" fill="#269385"/>
<path d="M52.8125 46.4843C52.2171 46.4843 51.7344 46.0016 51.7344 45.4062V42.1718C51.7344 41.8859 51.6208 41.6116 51.4186 41.4094C51.2165 41.2073 50.9421 41.0937 50.6563 41.0937H42.0313C41.4359 41.0937 40.9531 41.5764 40.9531 42.1718V45.4062C40.9531 46.0016 40.4704 46.4843 39.875 46.4843C39.2796 46.4843 38.7969 46.0016 38.7969 45.4062V42.1718C38.7969 41.3141 39.1376 40.491 39.7441 39.8847C40.3505 39.2784 41.1736 38.9375 42.0312 38.9375H50.6562C51.5139 38.9375 52.337 39.2783 52.9433 39.8847C53.5496 40.4912 53.8905 41.3142 53.8905 42.1718V45.4062C53.8905 45.6921 53.7769 45.9664 53.5748 46.1686C53.3726 46.3707 53.0983 46.4843 52.8124 46.4843H52.8125Z" fill="#269385"/>
<path d="M79.7656 69.1249H66.8281C65.9704 69.1249 65.1473 68.7841 64.541 68.1777C63.9346 67.5712 63.5938 66.7481 63.5938 65.8906V50.7968C63.5938 49.9391 63.9345 49.116 64.541 48.5097C65.1474 47.9034 65.9705 47.5625 66.8281 47.5625H79.7656C80.6232 47.5625 81.4463 47.9033 82.0527 48.5097C82.659 49.1162 82.9999 49.9392 82.9999 50.7968V65.8906C82.9999 66.7482 82.6591 67.5713 82.0527 68.1777C81.4462 68.784 80.6231 69.1249 79.7656 69.1249ZM66.8281 49.7186C66.2327 49.7186 65.7499 50.2014 65.7499 50.7968V65.8905C65.7499 66.1764 65.8635 66.4507 66.0657 66.6529C66.2678 66.855 66.5422 66.9686 66.8281 66.9686H79.7656C80.0515 66.9686 80.3258 66.855 80.528 66.6529C80.7301 66.4507 80.8437 66.1764 80.8437 65.8905V50.7968C80.8437 50.5109 80.7301 50.2365 80.528 50.0344C80.3258 49.8322 80.0515 49.7186 79.7656 49.7186H66.8281Z" fill="#269385"/>
<path d="M56.0469 47.5631H19.3906C19.0287 47.5626 18.6672 47.5987 18.3125 47.6709V34.625C18.3125 34.0532 18.5397 33.5045 18.944 33.1002C19.3483 32.6959 19.897 32.4687 20.4688 32.4687H54.9688C55.5405 32.4687 56.0892 32.6959 56.4935 33.1002C56.8978 33.5045 57.125 34.0532 57.125 34.625V44.3281C57.125 44.9235 57.6078 45.4062 58.2031 45.4062C58.7985 45.4062 59.2813 44.9235 59.2813 44.3281V34.625C59.2813 33.4814 58.8269 32.3845 58.0183 31.5754C57.2092 30.7669 56.1123 30.3125 54.9688 30.3125H20.4688C19.3252 30.3125 18.2282 30.7669 17.4192 31.5754C16.6106 32.3845 16.1563 33.4814 16.1563 34.625V48.6406V48.6642C14.8029 49.6749 14.0038 51.2638 14 52.9532V65.8907C14 66.7484 14.3408 67.5714 14.9472 68.1778C15.5537 68.7841 16.3767 69.125 17.2343 69.125H58.2031C59.0607 69.125 59.8838 68.7842 60.4902 68.1778C61.0965 67.5713 61.4374 66.7482 61.4374 65.8907V52.9532C61.4355 51.5241 60.867 50.1539 59.8568 49.1431C58.846 48.1329 57.4758 47.5645 56.0468 47.5626L56.0469 47.5631ZM59.2813 65.8912C59.2813 66.1771 59.1677 66.4515 58.9655 66.6536C58.7634 66.8558 58.489 66.9694 58.2031 66.9694H17.2344C16.639 66.9694 16.1563 66.4866 16.1563 65.8912V62.6569H57.125C57.7204 62.6569 58.2031 62.1741 58.2031 61.5787C58.2031 60.9834 57.7204 60.5006 57.125 60.5006H16.1563V52.9537C16.1563 52.0961 16.497 51.273 17.1035 50.6666C17.7099 50.0603 18.533 49.7194 19.3906 49.7194H56.0468C56.9045 49.7194 57.7276 50.0602 58.3339 50.6666C58.9403 51.2731 59.2811 52.0962 59.2811 52.9537L59.2813 65.8912Z" fill="#269385"/>
<path d="M78.6875 59.4219H67.9062C67.3109 59.4219 66.8281 58.9391 66.8281 58.3437C66.8281 57.7484 67.3109 57.2656 67.9062 57.2656H78.6875C79.2829 57.2656 79.7656 57.7484 79.7656 58.3437C79.7656 58.9391 79.2829 59.4219 78.6875 59.4219Z" fill="#269385"/>
<path d="M81.8021 36.2475L78.6322 26.7374H78.6327C78.4859 26.297 78.0739 26 77.6094 26H68.9844C68.52 26 68.108 26.297 67.9612 26.7374L64.7268 36.4405C64.6175 36.7692 64.6724 37.1307 64.8755 37.4118C65.0781 37.6928 65.4035 37.8594 65.75 37.8594H67.9063V42.1719C67.9063 42.7672 68.389 43.25 68.9844 43.25C69.5798 43.25 70.0625 42.7672 70.0625 42.1719V37.8594H72.2188V45.4062C72.2188 46.0016 72.7015 46.4844 73.2969 46.4844C73.8923 46.4844 74.375 46.0016 74.375 45.4062V37.8594H80.8438C80.851 37.8584 80.8582 37.8584 80.8654 37.8594C81.251 37.8603 81.6081 37.6553 81.8016 37.3218C81.9946 36.9877 81.9951 36.5762 81.8021 36.2422L81.8021 36.2475ZM67.2481 35.7085L69.7643 28.1616H76.8347L79.351 35.7085H67.2481Z" fill="#269385"/>
<path d="M74.375 52.9531C74.375 53.5485 73.8922 54.0312 73.2969 54.0312C72.7015 54.0312 72.2188 53.5485 72.2188 52.9531C72.2188 52.3578 72.7015 51.875 73.2969 51.875C73.8922 51.875 74.375 52.3578 74.375 52.9531Z" fill="#269385"/>
<path d="M74.375 62.6562C74.375 63.2516 73.8922 63.7344 73.2969 63.7344C72.7015 63.7344 72.2188 63.2516 72.2188 62.6562C72.2188 62.0609 72.7015 61.5781 73.2969 61.5781C73.8922 61.5781 74.375 62.0609 74.375 62.6562Z" fill="#269385"/>
</svg>
