<svg width="71" height="71" viewBox="0 0 71 71" fill="none" xmlns="http://www.w3.org/2000/svg">
<rect width="71" height="71" rx="10" fill="#0E8778"/>
<path d="M51.3638 34.2175L50.6387 34.3865C50.5566 34.4053 46.9518 35.2909 43.3203 37.8461L43.3198 28.414C43.3198 27.1879 42.725 26.1001 41.812 25.4166V23.2138H42.2978C43.375 23.2138 44.2504 22.3376 44.2504 21.2613C44.2504 20.185 43.3746 19.3087 42.2978 19.3087H41.812V14.0551L29.6693 14.0547V19.3083H29.1834C28.1071 19.3083 27.2308 20.1846 27.2308 21.2609C27.2308 22.3372 28.1071 23.2134 29.1834 23.2134H29.6693V25.4162C28.7563 26.0997 28.1614 27.1874 28.1614 28.4135V38.1936C24.3747 35.3722 20.4494 34.4066 20.3644 34.387L19.6384 34.2179L19.4829 34.9467C18.1816 41.0362 18.9162 46.1592 21.6657 50.175C25.9153 56.3804 33.3819 57.6445 33.6976 57.6955L34.3721 57.8037L34.5265 57.1386C36.5578 48.4095 33.4437 42.8395 29.6244 39.3954V37.4626H41.856V38.972C37.8249 42.3776 34.3595 48.0461 36.4753 57.1385L36.6305 57.8036L37.3042 57.6954C37.6202 57.6444 45.0868 56.3803 49.3361 50.1745C52.0856 46.1593 52.8201 41.0354 51.5189 34.9462L51.3638 34.2175ZM22.865 49.336C20.6349 46.072 19.8706 41.9613 20.5818 37.1003L32.2363 55.8229C29.8768 55.1035 25.5847 53.3164 22.8654 49.3366L22.865 49.336ZM33.4482 55.0012L21.8542 36.3758C25.9646 37.8698 35.3662 42.6861 33.4482 55.0012ZM41.8567 33.3969H35.5946V30.836H41.8567V33.3969ZM40.3489 19.3079H34.5456V15.5176H40.3489V19.3079ZM31.1327 15.5184H33.0823V19.3087H31.1327V15.5184ZM28.6943 21.2604C28.6943 20.9905 28.914 20.7713 29.1834 20.7713H42.2982C42.5681 20.7713 42.7874 20.9909 42.7874 21.2604C42.7874 21.5303 42.5677 21.7496 42.2982 21.7496L29.1834 21.75C28.9135 21.75 28.6943 21.5303 28.6943 21.2604ZM31.1327 23.2134H40.3489V24.7482C40.0978 24.6951 39.8389 24.6662 39.5727 24.6662H31.9093C31.6431 24.6662 31.3838 24.6947 31.1327 24.7482L31.1327 23.2134ZM29.6248 35.9989V28.4139C29.6248 27.1543 30.6496 26.1298 31.9092 26.1298H39.5726C40.8318 26.1298 41.8566 27.1543 41.8566 28.4139V29.3726H34.1312V34.8602H41.8566V35.9986L29.6248 35.9989ZM49.1449 36.379L37.5551 54.9992C35.6458 42.7122 45.0348 37.8821 49.1449 36.379ZM48.1376 49.336C45.4183 53.3157 41.1258 55.1029 38.7671 55.8227L50.4206 37.1002C51.1315 41.9623 50.3672 46.0718 48.1374 49.3359L48.1376 49.336Z" fill="white"/>
<path d="M35.5 10C21.4393 10 10 21.4393 10 35.5C10 49.5607 21.4393 61 35.5 61C49.5607 61 61 49.5607 61 35.5C61 21.4393 49.5607 10 35.5 10ZM35.5 59.5377C22.2462 59.5377 11.4634 48.7549 11.4634 35.501C11.4638 22.2472 22.2462 11.4634 35.5 11.4634C48.7538 11.4634 59.5366 22.2462 59.5366 35.5C59.5366 48.7538 48.7538 59.5377 35.5 59.5377Z" fill="white"/>
<path d="M52.0822 21.3594L50.9688 22.3095C54.1033 25.9818 55.83 30.667 55.83 35.5016C55.83 39.4948 54.6729 43.3607 52.4844 46.6785L53.7064 47.4845C56.0529 43.9262 57.2933 39.7827 57.2933 35.5017C57.2929 30.3192 55.442 25.2962 52.0822 21.3594V21.3594Z" fill="white"/>
<path d="M20.0295 22.3095L18.9169 21.3594C15.5566 25.2962 13.7061 30.3188 13.7061 35.5017C13.7061 39.8688 14.993 44.0821 17.4289 47.6872L18.6412 46.8678C16.3702 43.5062 15.1694 39.5754 15.1694 35.5017C15.169 30.667 16.8949 25.9817 20.0294 22.3095L20.0295 22.3095Z" fill="white"/>
</svg>
