<svg width="87" height="97" viewBox="0 0 87 97" fill="none" xmlns="http://www.w3.org/2000/svg">
<path d="M67.3607 96.6878H19.658C14.4864 96.6878 10.2871 92.5058 10.2871 87.3555V46.6486C10.2871 28.4166 25.1812 13.5625 43.5099 13.5625C61.8386 13.5625 76.7327 28.3953 76.7327 46.6486V87.3555C76.7121 92.5058 72.5335 96.6878 67.3619 96.6878H67.3607ZM43.5094 16.8788C27.0224 16.8788 13.5963 30.2489 13.5963 46.6687V87.3756C13.5963 90.713 16.3062 93.4118 19.6574 93.4118H67.3601C70.7114 93.4118 73.4212 90.713 73.4212 87.3756V46.648C73.4212 30.2289 59.9959 16.8788 43.5082 16.8788H43.5094Z" fill="#3C8477"/>
<path d="M43.5094 51.0988C32.07 51.1194 20.9403 47.37 11.8601 40.448C11.1361 39.8918 10.9913 38.8617 11.5499 38.1407C12.1084 37.4196 13.1427 37.2754 13.8667 37.8317C31.3672 51.1399 55.6534 51.1399 73.1537 37.8317C73.9191 37.3372 74.9534 37.5638 75.45 38.3261C75.8844 39.0059 75.7603 39.9124 75.1604 40.4481C66.079 47.37 54.9498 51.1194 43.5111 51.0989L43.5094 51.0988Z" fill="#3C8477"/>
<path d="M57.2434 30.4368H29.7721C28.8619 30.4368 28.1172 29.6952 28.1172 28.7887C28.1172 27.8823 28.8619 27.1406 29.7721 27.1406H57.2642C58.1744 27.1406 58.9191 27.8823 58.9191 28.7887C58.9191 29.6952 58.1537 30.4368 57.2435 30.4368H57.2434Z" fill="#3C8477"/>
<path d="M53.2545 37.6679C52.3443 37.6679 51.5996 36.9262 51.5996 36.0198V28.7887C51.5996 27.8823 52.3443 27.1406 53.2545 27.1406C54.1647 27.1406 54.9094 27.8823 54.9094 28.7887V36.0198C54.9094 36.9262 54.1854 37.6679 53.2545 37.6679Z" fill="#3C8477"/>
<path d="M57.2434 70.2766H29.7721C28.8619 70.2766 28.1172 69.535 28.1172 68.6286C28.1172 67.7221 28.8619 66.9805 29.7721 66.9805H57.2642C58.1744 66.9805 58.9191 67.7221 58.9191 68.6286C58.9191 69.535 58.1537 70.2766 57.2435 70.2766H57.2434Z" fill="#3C8477"/>
<path d="M53.2545 77.5116C52.3443 77.5116 51.5996 76.77 51.5996 75.8635V68.6325C51.5996 67.726 52.3443 66.9844 53.2545 66.9844C54.1647 66.9844 54.9094 67.726 54.9094 68.6325V75.8635C54.9094 76.7906 54.1854 77.5116 53.2545 77.5116Z" fill="#3C8477"/>
<path d="M56.645 86.6558H30.3728C24.0842 86.6558 18.9954 81.5672 18.9746 75.3252V69.2068C18.9746 62.944 24.0842 57.8762 30.3728 57.8555H56.645C62.9337 57.8555 68.0224 62.944 68.0432 69.2068V75.3252C68.0225 81.5674 62.9337 86.6558 56.645 86.6558ZM30.3728 61.1509C25.9046 61.1509 22.3052 64.7562 22.2844 69.206V75.3245C22.2844 79.7743 25.9046 83.3588 30.3728 83.3588H56.645C61.1133 83.3588 64.7126 79.7536 64.7334 75.3245V69.206C64.7334 64.7562 61.1133 61.1716 56.645 61.1509H30.3728Z" fill="#3C8477"/>
<path d="M11.9416 87.4193H11.0934C5.36332 87.4193 0.7296 82.7842 0.708984 77.0776V70.2587C0.708984 64.5521 5.36332 59.9375 11.0934 59.9375H11.9416C12.8518 59.9375 13.5965 60.6791 13.5965 61.5856V85.772C13.5965 86.6785 12.8518 87.4201 11.9416 87.4201V87.4193ZM10.2867 63.2744C6.72873 63.6864 4.01867 66.6941 4.01867 70.2581V77.0771C4.01867 80.6616 6.70793 83.6694 10.2867 84.0608V63.2742V63.2744Z" fill="#3C8477"/>
<path d="M75.9249 87.4162H75.0768C74.1666 87.4162 73.4219 86.6745 73.4219 85.7681V61.5817C73.4219 60.6752 74.1666 59.9336 75.0768 59.9336H75.9249C81.655 59.9336 86.2887 64.5688 86.2887 70.2548V77.0737C86.2887 82.7803 81.655 87.4154 75.9249 87.4154V87.4162ZM76.7317 63.2712V84.0786C80.2896 83.6665 82.9997 80.6588 82.9997 77.0948V70.2759C82.979 66.6913 80.2898 63.6835 76.7317 63.2714V63.2712Z" fill="#3C8477"/>
<path d="M55.2181 19.1048C54.3079 19.1048 53.5632 18.3632 53.5632 17.4568V13.9958C53.5632 8.47477 49.0744 3.98368 43.5098 3.98368C37.9659 3.98368 33.4563 8.45405 33.4563 13.9958V17.4568C33.4563 18.3632 32.7116 19.1048 31.8014 19.1048C30.8912 19.1048 30.1465 18.3632 30.1465 17.4568V13.9958C30.1465 6.64115 36.1247 0.6875 43.5098 0.6875C50.8948 0.6875 56.873 6.64115 56.873 13.9958V17.4568C56.873 18.3632 56.1283 19.1048 55.2181 19.1048Z" fill="#3C8477"/>
<path d="M16.6578 31.7754C16.0579 31.7754 15.4994 31.4663 15.2098 30.9513L7.76276 17.9932C5.30103 13.9553 6.60433 8.72264 10.6587 6.27122C14.7132 3.81981 19.9676 5.11756 22.4291 9.15529C22.4912 9.25829 22.5533 9.36131 22.6153 9.4643L28.2006 19.188C28.6556 19.9709 28.3867 20.9803 27.58 21.4336C26.7732 21.8868 25.7803 21.619 25.3252 20.8155L19.7399 11.0918C18.1678 8.66093 14.9201 7.93992 12.479 9.48494C10.1827 10.9682 9.37608 13.9348 10.6379 16.3451L18.0849 29.3033C18.54 30.0861 18.2711 31.0955 17.485 31.5488C17.2368 31.693 16.9472 31.7754 16.6576 31.7754L16.6578 31.7754Z" fill="#3C8477"/>
<path d="M70.3189 31.7127C69.4087 31.7127 68.664 30.9711 68.664 30.0646C68.664 29.7762 68.726 29.4878 68.8708 29.2406L76.3593 16.2207C77.8901 13.7691 77.1454 10.5347 74.6837 9.01032C72.2221 7.48598 68.9742 8.22749 67.4436 10.679C67.3815 10.782 67.3195 10.885 67.2574 10.988L61.6307 20.8148C61.1757 21.5976 60.162 21.886 59.3759 21.4328C58.5898 20.9796 58.3002 19.9701 58.7553 19.1873L64.4026 9.31926C66.7401 5.21957 71.9737 3.77754 76.0904 6.10558C80.207 8.43362 81.655 13.6455 79.3173 17.7452C79.2966 17.7864 79.276 17.807 79.2553 17.8482L71.7668 30.8476C71.4772 31.3833 70.9187 31.7129 70.3188 31.7129L70.3189 31.7127Z" fill="#3C8477"/>
</svg>
