<svg width="92" height="106" viewBox="0 0 92 106" fill="none" xmlns="http://www.w3.org/2000/svg">
<path d="M90.8623 21.3743L46.696 0.17449C46.2133 -0.0581633 45.6502 -0.0581633 45.1675 0.17449L22.201 11.1988L23.7303 14.3842L45.9316 3.72678L88.2162 24.0241L83.1189 74.5807L45.9324 102.038L8.74585 74.5807L3.6486 24.0241L20.1976 16.0804L18.6683 12.895L1.00181 21.3749H1.0026C0.331435 21.6967 -0.0652855 22.4042 0.00885339 23.1447L5.30881 75.7143C5.35929 76.2104 5.61639 76.6623 6.01705 76.958L44.8834 105.655C45.5073 106.115 46.3591 106.115 46.9828 105.655L85.8492 76.958C86.2498 76.6623 86.507 76.2104 86.5574 75.7143L91.8574 23.1447C91.9315 22.4042 91.5348 21.6967 90.8636 21.3749L90.8623 21.3743Z" fill="#0E8778"/>
<path d="M79.1299 73.1298C79.5313 72.8341 79.7884 72.3822 79.8381 71.8861L84.3264 27.3664C84.4014 26.6258 84.0039 25.9184 83.3335 25.5966L46.6961 8.00984C46.2134 7.77797 45.6503 7.77797 45.1677 8.00984L8.53029 25.5966C7.85992 25.9184 7.46241 26.6259 7.53733 27.3664L12.0256 71.8861C12.0753 72.3822 12.3324 72.8341 12.7339 73.1298L44.8829 96.8676C45.5068 97.3282 46.3586 97.3282 46.9823 96.8676L64.6488 83.8237L62.5501 80.9813L45.9324 93.2509L15.4632 70.7528L11.1774 28.2441L45.933 11.5611L80.6886 28.2441L76.4028 70.7528L66.083 78.3723L68.1817 81.2147L79.1299 73.1298Z" fill="#0E8778"/>
<path d="M25.9968 69.5735C26.0386 69.5767 26.0811 69.5782 26.1229 69.5782H26.1222C26.5906 69.5782 27.0402 69.3921 27.3714 69.0609L53.0636 43.3687L53.0628 43.3695C53.4572 42.9751 53.6425 42.4175 53.5621 41.8662C53.4816 41.3141 53.1456 40.8331 52.6559 40.5673C51.1156 39.7344 49.4341 39.1957 47.6973 38.9781V37.1002H49.464V33.5669H42.3974V37.1002H44.164V38.9765C41.6497 39.2928 39.2671 40.2818 37.2686 41.8395L35.9373 40.5082L37.1866 39.2589L34.688 36.7603L29.6909 41.7574L32.1895 44.256L33.4388 43.0067L34.7701 44.338C33.2124 46.3365 32.2235 48.7191 31.9071 51.2334H30.0308V49.4668H26.4975V56.5334H30.0308V54.7667H31.9087C32.0711 56.0578 32.4103 57.3198 32.9166 58.5185L26.3776 65.0575H26.3783C24.1346 61.4366 22.9514 57.2598 22.9642 53.0001C22.9713 46.9115 25.3933 41.0737 29.6986 36.7681C34.004 32.4625 39.8419 30.0407 45.9307 30.0336C50.1904 30.021 54.3672 31.204 57.9881 33.4478L53.5147 37.9203L56.0133 40.4189L61.9923 34.4399C62.3543 34.0779 62.542 33.5763 62.5049 33.0652C62.4686 32.5542 62.2123 32.0841 61.8022 31.7765C54.9391 26.6462 46.0198 25.1493 37.8585 27.7605C29.6972 30.3711 23.3017 36.7664 20.6913 44.9277C18.0798 53.089 19.5769 62.0083 24.7073 68.8714C25.0149 69.2807 25.485 69.5379 25.996 69.5741L25.9968 69.5735ZM35.3315 52.9993C35.3323 49.7042 36.8655 46.5967 39.4801 44.5904C42.0945 42.5848 45.4921 41.9081 48.6761 42.7599L35.6919 55.7441V55.7433C35.453 54.8481 35.3315 53.9261 35.3315 52.9994L35.3315 52.9993Z" fill="#0E8778"/>
<path d="M52.4906 75.0158L53.4986 78.4023C58.9035 76.7752 63.6537 73.4777 67.0679 68.9823C70.5317 64.3993 72.4129 58.8147 72.4278 53.0699C72.4428 47.3252 70.591 41.731 67.1515 37.129C66.8439 36.7189 66.3738 36.4626 65.8628 36.4263C65.3517 36.39 64.8501 36.577 64.4881 36.939L29.8657 71.5613C29.5037 71.9234 29.3168 72.4249 29.3531 72.936C29.3894 73.4471 29.6457 73.9171 30.0558 74.2247C34.6309 77.665 40.2039 79.5176 45.9272 79.5011C47.193 79.5011 48.4573 79.4112 49.7105 79.2329L49.2104 75.7351C48.1229 75.8897 47.0259 75.9678 45.9271 75.9678C41.6673 75.9804 37.4906 74.7974 33.8696 72.5536L40.4087 66.0146C41.6067 66.5217 42.8695 66.8608 44.1604 67.0233V68.9012H42.3938V72.4345H49.4604V68.9012H47.6938V67.0249C50.2081 66.7086 52.5907 65.7196 54.5891 64.1619L55.9205 65.4932L54.6712 66.7425L57.1697 69.241L62.1668 64.2439L59.6683 61.7454L58.419 62.9946L57.0877 61.6633C58.6453 59.6648 59.6343 57.2822 59.9507 54.7679H61.827V56.5346H65.3603V49.468H61.827V51.2346H59.9491C59.7866 49.9436 59.4475 48.6816 58.9412 47.4829L65.4802 40.9438H65.4794C67.9063 44.8842 69.0876 49.4647 68.8676 54.0873C68.6483 58.7099 67.0386 63.158 64.2498 66.8506C61.2915 70.7476 57.1745 73.6065 52.4898 75.0166L52.4906 75.0158ZM56.5279 53.0003C56.5271 56.2953 54.9939 59.4028 52.3794 61.4091C49.765 63.4148 46.3673 64.0914 43.1833 63.2397L56.1675 50.2563C56.4065 51.1514 56.5279 52.0734 56.5279 53.0001L56.5279 53.0003Z" fill="#0E8778"/>
<path d="M15.8965 30.0312H19.4298V33.5646H15.8965V30.0312Z" fill="#0E8778"/>
<path d="M72.4307 30.0312H75.964V33.5646H72.4307V30.0312Z" fill="#0E8778"/>
<path d="M44.1641 17.6641H47.6974V21.1974H44.1641V17.6641Z" fill="#0E8778"/>
<path d="M44.1641 83.0352H47.6974V86.5685H44.1641V83.0352Z" fill="#0E8778"/>
<path d="M70.6641 67.1328H74.1974V70.6661H70.6641V67.1328Z" fill="#0E8778"/>
<path d="M17.665 67.1328H21.1983V70.6661H17.665V67.1328Z" fill="#0E8778"/>
</svg>
