<svg width="71" height="71" viewBox="0 0 71 71" fill="none" xmlns="http://www.w3.org/2000/svg">
<rect width="71" height="71" rx="10" fill="#0E8778"/>
<path d="M21.5965 38.2721C21.7576 39.5068 22.0796 40.7418 22.5626 41.8689L18.8584 44.9826C18.5363 45.2511 18.4289 45.6806 18.5899 46.0562C18.8045 46.5392 19.3414 46.8077 19.8245 46.6467L22.2941 45.7341L26.5889 41.4393C25.9984 41.0098 25.6228 40.3118 25.6228 39.5067C25.6228 38.2182 26.6964 37.1446 27.985 37.1446C28.7901 37.1446 29.4881 37.5205 29.8641 38.1107L44.7345 23.2403L45.647 20.7707C45.8081 20.3947 45.7006 19.9656 45.3785 19.6971C44.949 19.3751 44.3584 19.4286 43.9829 19.8046L40.8692 23.5088C39.7417 23.0258 38.507 22.7037 37.2724 22.5427L36.4134 17.7649C36.3598 17.3889 36.0374 17.0669 35.6083 16.9598C35.0713 16.8523 34.5882 17.2283 34.4807 17.7649L33.6756 22.5427C32.3871 22.7038 31.206 23.0258 30.0788 23.5088L27.0183 19.8586C26.7498 19.5365 26.3203 19.429 25.9447 19.5901C25.4077 19.8046 25.1932 20.3416 25.3542 20.8247L27.0183 25.388C25.9982 26.1395 25.1392 26.9986 24.3877 28.0186L19.8244 26.3545C19.4484 26.1935 19.0193 26.3009 18.7508 26.623C18.4288 27.0525 18.4823 27.6431 18.8583 27.9651L22.5626 31.0787C22.0795 32.2063 21.7575 33.4409 21.5964 34.6755L16.8186 35.4806C16.4426 35.5342 16.1206 35.8566 16.0135 36.2857C15.906 36.8227 16.282 37.3058 16.8186 37.4133L21.5965 38.2721ZM34.8027 25.5491C36.0373 25.5491 37.1109 26.5692 37.1109 27.8573C37.1109 29.1458 36.0908 30.1655 34.8027 30.1655C33.5142 30.1655 32.4945 29.1454 32.4945 27.8573C32.4945 26.5688 33.5146 25.5491 34.8027 25.5491ZM28.4142 29.8435C29.4878 29.8435 30.3469 30.7025 30.3469 31.7761C30.3469 32.8497 29.4878 33.7087 28.4142 33.7087C27.3407 33.7087 26.4816 32.8497 26.4816 31.7761C26.482 30.7026 27.3407 29.8435 28.4142 29.8435Z" fill="white"/>
<path d="M54.1817 35.5327L49.4039 34.7276C49.2428 33.4391 48.9208 32.258 48.4377 31.1308L52.142 28.0172C52.4641 27.7487 52.5715 27.3192 52.4105 26.9436C52.2495 26.4066 51.6589 26.1921 51.1759 26.3531L48.7062 27.2657L44.358 31.6139C45.056 32.097 45.4855 32.8486 45.4855 33.7076C45.4855 35.1033 44.358 36.2307 42.9624 36.2307C42.1034 36.2307 41.2983 35.7477 40.8687 35.1032L26.2668 49.7051L25.3542 52.1747C25.1932 52.5507 25.3007 52.9798 25.6227 53.2483C26.0522 53.5704 26.6428 53.5168 26.9648 53.1408L30.0785 49.4366C31.206 49.9196 32.4406 50.2417 33.6753 50.4027L34.4804 55.1805C34.5339 55.5565 34.8563 55.8785 35.2855 55.9856C35.8224 56.0931 36.3055 55.7171 36.413 55.1805L37.272 50.4027C38.5066 50.2417 39.7417 49.9196 40.8688 49.4366L43.9825 53.1408C44.251 53.4629 44.6805 53.5704 45.056 53.4093C45.5391 53.2483 45.8076 52.6578 45.6466 52.1747L43.9825 47.6114C45.0026 46.8599 45.8616 46.0008 46.6131 44.9808L51.1764 46.6449C51.5523 46.8059 51.9815 46.6985 52.2499 46.3764C52.572 45.9469 52.5184 45.3563 52.1425 44.9807L48.4382 41.8671C48.9213 40.7396 49.2433 39.5049 49.4043 38.2703L54.1822 37.4113C54.5581 37.3577 54.8802 37.0353 54.9873 36.6062C55.0412 36.1227 54.7191 35.6397 54.1822 35.5326L54.1817 35.5327ZM36.144 46.86C35.0704 46.86 34.2114 46.001 34.2114 44.9274C34.2114 43.8538 35.0704 42.9948 36.144 42.9948C37.2176 42.9948 38.0766 43.8538 38.0766 44.9274C38.0766 46.0013 37.218 46.86 36.144 46.86ZM42.3714 43.6927C41.2978 43.6927 40.4388 42.8337 40.4388 41.7601C40.4388 40.6866 41.2978 39.8275 42.3714 39.8275C43.445 39.8275 44.304 40.6866 44.304 41.7601C44.304 42.8337 43.445 43.6927 42.3714 43.6927Z" fill="white"/>
<path d="M35.4997 11C21.4346 11 10 22.4346 10 36.4997C10 50.5648 21.4346 61.9994 35.4997 61.9994C49.5648 61.9994 60.9994 50.5648 60.9994 36.4997C60.9994 22.4346 49.5648 11 35.4997 11ZM12.2547 36.4997C12.2547 23.6693 22.6693 13.2547 35.4997 13.2547C41.5122 13.2547 46.988 15.5633 51.1216 19.321L18.321 52.1217C14.5632 47.988 12.2546 42.5124 12.2546 36.4998L12.2547 36.4997ZM35.4997 59.7447C29.4872 59.7447 24.0114 57.4361 19.8778 53.6783L52.6784 20.8777C56.4362 25.0114 58.7448 30.487 58.7448 36.4996C58.7448 49.33 48.3302 59.7446 35.4998 59.7446L35.4997 59.7447Z" fill="white"/>
</svg>
