<svg width="84" height="116" viewBox="0 0 84 116" fill="none" xmlns="http://www.w3.org/2000/svg">
<path d="M66.3727 61.3524C66.0154 59.4311 64.8234 57.7664 62.8315 56.4048C62.4402 56.1327 61.9492 56.0768 61.4947 56.239C61.0476 56.4048 60.7086 56.775 60.5858 57.2349C60.5822 57.2587 59.9151 59.5758 57.96 61.0602C55.9343 62.6022 51.5767 65.9611 50.2025 67.0192L44.631 66.803C43.7367 66.5648 40.8031 66.0728 38.3394 68.8919C36.8029 69.2273 32.6158 70.3854 30.7219 73.3759C29.703 74.9847 29.4877 76.8245 30.0796 78.8465C30.1685 79.148 30.3517 79.4128 30.6027 79.6024L33.8783 82.0863L34.2677 85.6503C34.3474 86.3879 34.964 86.9467 35.7052 86.9577L36.1221 86.9651C35.675 90.049 36.1486 94.6072 40.0562 97.616L44.1022 103.534C44.1892 103.768 45.0111 105.846 47.0625 106.36C47.3566 106.435 47.6543 106.472 47.9567 106.472C49.1111 106.472 50.3142 105.932 51.5427 104.86L55.0922 102.509C55.2818 102.383 55.4385 102.215 55.554 102.018L61.3821 91.896C61.5864 91.5387 61.6313 91.1145 61.5085 90.7232L59.4159 84.0313L62.8718 78.0282C62.9909 77.8156 63.0578 77.5774 63.0651 77.3355L63.1842 73.2126C64.2525 72.2368 66.2041 69.8611 65.635 65.9544C66.0712 65.1014 66.7491 63.3652 66.3726 61.3523L66.3727 61.3524ZM62.8875 64.8552C62.664 65.1832 62.5788 65.5854 62.6603 65.9767C63.3795 69.5482 61.0221 71.2128 60.9323 71.2723C60.5301 71.5371 60.2846 71.9797 60.269 72.4607L60.1426 76.8815L56.5483 83.1227C56.344 83.48 56.2991 83.9051 56.4219 84.2954L58.5145 90.9874L53.1813 100.253L49.837 102.465C49.7812 102.506 49.7253 102.546 49.673 102.591C48.8988 103.284 48.1759 103.619 47.7811 103.515C47.3376 103.407 46.962 102.785 46.6972 102.2L42.347 95.7644C42.2535 95.627 42.1344 95.5042 41.9988 95.4035C37.4232 92.0482 39.2658 86.2313 39.3455 85.9848C39.4903 85.5414 39.4179 85.0539 39.1486 84.6737C38.8764 84.2935 38.4412 84.0626 37.9758 84.0553L37.0449 84.0406L36.7279 81.1362C36.683 80.734 36.4769 80.3693 36.1544 80.1265L32.7864 77.572C32.5821 76.5743 32.7177 75.7139 33.1996 74.9497C34.5089 72.8754 38.1006 71.8886 39.3721 71.6799C39.745 71.6203 40.0812 71.4196 40.3103 71.121C41.8816 69.0576 43.7031 69.579 43.891 69.6422C44.033 69.6907 44.1832 69.7201 44.3344 69.7283L50.6225 69.9739C50.9468 69.9592 51.3041 69.8767 51.5753 69.6688C51.5753 69.6688 57.3181 65.2334 59.7389 63.3973C61.0866 62.3712 61.9845 61.0976 62.5582 60.044C64.4263 62.241 63.1968 64.3895 62.888 64.8551L62.8875 64.8552Z" fill="#0E8778"/>
<path d="M83.6026 69.1456C83.642 68.9074 83.6429 68.6618 83.5549 68.419C83.554 68.4153 83.5504 68.4126 83.5485 68.408C82.821 61.7847 80.535 55.2978 76.6539 49.5752C76.2031 48.9045 75.2906 48.7295 74.6172 49.1821C73.9465 49.6384 73.7678 50.5509 74.2259 51.2207C77.6783 56.3159 79.7552 62.0633 80.5213 67.947L71.0008 71.3609C70.3943 71.5771 69.9994 72.1653 70.0287 72.8094L70.4905 83.0692L64.1145 89.6127C63.8277 89.9068 63.6747 90.309 63.6976 90.7185L64.4883 104.877C51.0722 114.402 32.6433 114.618 18.8893 104.53L21.4198 103.794C21.8111 103.678 22.1391 103.406 22.3214 103.042C22.3553 102.978 25.6133 96.5429 29.3359 91.7465C29.5466 91.4744 29.6538 91.1354 29.6428 90.7937L29.3615 82.753C29.3469 82.3471 29.1646 81.9596 28.8549 81.6957C28.5443 81.4273 28.1283 81.3082 27.7316 81.3457L21.0286 82.1016L15.8987 82.0567L12.3814 78.9846C11.8078 78.4852 10.953 78.5081 10.4042 79.0258L6.37108 82.8584C6.05866 83.1561 5.89281 83.573 5.91664 84.0054L6.17134 88.6388C2.80788 80.862 2.06951 72.1587 4.06221 63.9054L4.33065 64.0904L5.24319 70.6633C5.29542 71.0389 5.49058 71.3825 5.79108 71.6161L10.6233 75.4112C10.8853 75.6155 11.206 75.7236 11.5304 75.7236C11.6889 75.7236 11.8474 75.697 11.9995 75.6457L15.0064 74.6324L19.4884 74.8669C19.887 74.8743 20.2764 74.7442 20.5687 74.472L24.7266 70.5799C24.9162 70.4012 25.0546 70.1777 25.1288 69.9285L28.242 59.525C28.3198 59.2675 28.3235 58.9945 28.2566 58.7333L27.2469 54.8586C27.8113 54.7037 28.9713 54.548 31.1886 54.7578C31.6338 54.7953 32.0727 54.6405 32.3824 54.318L35.82 50.7704L39.8102 51.2844C40.3562 51.3513 40.8693 51.1259 41.1845 50.6925C41.5015 50.2601 41.5546 49.6893 41.3283 49.2046L38.0777 42.2853C37.845 41.7897 37.3566 41.4662 36.8115 41.4415L29.3443 41.1236L24.9932 37.9433C29.2718 35.88 33.885 34.6467 38.587 34.2409C41.5574 42.6308 49.7603 48.5044 58.3773 48.5044C59.1707 48.5044 59.9678 48.4559 60.7603 48.3532C70.4538 47.1209 72.7114 47.7055 72.7407 47.7018C73.2657 47.9309 73.8805 47.8283 74.3084 47.4425C74.7326 47.0568 74.8929 46.4576 74.7216 45.9097C74.5429 45.3453 70.2266 32.0519 59.3897 28.028C53.3985 25.7997 46.6744 26.902 39.398 31.2458C37.8596 31.3392 36.3296 31.5078 34.8122 31.769C34.9112 31.4144 35.0156 31.0488 35.1247 30.6732C42.8484 27.9033 48.0278 19.8819 46.996 11.9154C45.9644 3.95169 46.4298 2.04221 46.4188 2.04221C46.646 1.51539 46.5452 0.904267 46.1586 0.478228C45.7747 0.0558488 45.1718 -0.102661 44.6285 0.0668487C44.1521 0.218024 32.9549 3.87103 29.5724 13.0305C27.6997 18.0989 28.6315 23.7741 32.2928 29.8961C32.0262 30.8142 31.7889 31.6772 31.5864 32.4616C28.1185 33.3458 24.7633 34.6725 21.6006 36.4288C21.5328 36.46 21.4687 36.4902 21.4064 36.5333C16.9077 39.062 12.8021 42.4301 9.37647 46.6445C5.91778 50.8986 3.46414 55.6391 1.92408 60.5783C1.91308 60.5929 1.89567 60.6003 1.8856 60.6149C1.72709 60.8449 1.66845 61.1042 1.65379 61.3644C-2.79986 76.7155 1.81596 93.8872 14.6036 104.881C14.6815 104.97 14.7419 105.072 14.8409 105.142C14.8647 105.158 14.8959 105.152 14.9206 105.167C15.1066 105.323 15.2697 105.497 15.4593 105.652C23.2225 111.96 32.5787 115.033 41.8792 115.033C50.6282 115.033 59.3 112.272 66.5727 106.983C66.7734 106.897 66.9557 106.781 67.0986 106.622C69.7739 104.613 72.2616 102.277 74.4649 99.5667C81.5216 90.8883 84.59 79.8691 83.6014 69.1454L83.6026 69.1456ZM32.3204 14.0612C34.3818 8.46227 40.2153 5.15464 43.3919 3.71707C43.3845 5.43589 43.543 8.11678 44.0827 12.292C44.845 18.176 41.5118 24.1085 36.2391 26.9927C38.1503 20.9026 40.4922 14.251 40.526 14.1548C40.7944 13.3916 40.394 12.5515 39.6281 12.2812C38.8722 12.021 38.0284 12.4149 37.7544 13.179C37.6197 13.5639 35.3969 19.8792 33.5186 25.8429C31.503 21.534 31.0294 17.5668 32.3202 14.0614L32.3204 14.0612ZM58.3532 30.7768C65.4108 33.389 69.4549 40.9065 71.0785 44.6399C69.1013 44.6133 65.7974 44.748 60.3863 45.4407C52.5783 46.4238 44.7044 41.5274 41.6496 34.0896C48.1622 34.0419 54.7479 35.6105 60.781 38.9528C61.4883 39.3403 62.3825 39.0902 62.7774 38.3792C63.1687 37.6701 62.9112 36.7758 62.2039 36.3828C56.9933 33.4976 51.4007 31.8623 45.7762 31.3418C50.3408 29.5726 54.5554 29.3756 58.353 30.7765L58.3532 30.7768ZM11.6517 48.4964C14.6561 44.8013 18.2145 41.7852 22.1195 39.4817L27.9694 43.7575C28.204 43.9288 28.4834 44.026 28.772 44.0388L35.794 44.3366L37.5293 48.0289L35.4642 47.7622C34.9932 47.7009 34.5425 47.8649 34.2227 48.1956L30.7558 51.7744C25.5645 51.3997 24.3762 52.9472 24.1452 53.9229C24.0893 54.1557 24.093 54.3975 24.1525 54.6302L25.3088 59.0729L22.4283 68.7033L19.0153 71.8981L14.8776 71.6782C14.7026 71.6782 14.5075 71.6929 14.3316 71.7525L11.8101 72.6054L8.06741 69.6672L7.14752 63.0421C7.09163 62.6344 6.86625 62.2679 6.52725 62.0343L4.90554 60.9156C6.34765 56.5196 8.56126 52.2977 11.6517 48.4963L11.6517 48.4964ZM11.4547 82.0747L14.3747 84.6255C14.6394 84.8563 14.9784 84.9828 15.3275 84.9865L21.1758 85.0277L26.4807 84.4395L26.6877 90.3682C23.5525 94.5095 20.8671 99.4773 19.992 101.149L17.0106 102.017L16.6588 97.0861C16.6368 96.7663 16.5122 96.464 16.3015 96.2257L12.6486 92.0918L9.15493 89.4622L8.8828 84.5165L11.4547 82.0747ZM7.951 92.2219L10.6594 94.2311L13.7653 97.7879L13.9421 100.261C11.56 97.8099 9.56727 95.1034 7.95098 92.222L7.951 92.2219ZM72.1828 97.7127C70.6894 99.5506 69.0429 101.186 67.3067 102.679L66.6635 91.1995L73.0321 84.6632C73.3152 84.3728 73.4673 83.9779 73.4489 83.572L73.0092 73.7593L80.7934 70.9677C81.2937 80.4459 78.4076 90.059 72.1828 97.7136L72.1828 97.7127Z" fill="#0E8778"/>
</svg>
