<svg width="71" height="71" viewBox="0 0 71 71" fill="none" xmlns="http://www.w3.org/2000/svg">
<rect width="71" height="71" rx="10" fill="#0E8778"/>
<path d="M35.0503 57.9995C33.6906 57.9995 32.3814 57.5535 31.3238 56.711L29.6118 55.3234C29.0579 54.8774 28.3529 54.679 27.648 54.679L25.4322 54.7782C22.6124 54.9269 20.0946 53.0933 19.3896 50.4666L18.7854 48.3852C18.5842 47.6914 18.1813 47.1462 17.5768 46.7497L15.7137 45.5602C13.347 44.0733 12.3901 41.1494 13.3972 38.5723L14.2029 36.5403C14.4548 35.8959 14.4548 35.1526 14.2029 34.5082L13.3972 32.4762C12.4403 29.8994 13.3972 26.9755 15.7137 25.4887L17.5768 24.2991C18.181 23.9026 18.5838 23.3574 18.7854 22.6637L19.3896 20.5328C20.0946 17.9062 22.6124 16.0727 25.4322 16.2213L27.648 16.3205C28.3529 16.3699 29.0579 16.1224 29.6118 15.6761L31.3238 14.2884C32.3815 13.446 33.6906 13 35.0503 13C36.41 13 37.7191 13.446 38.7767 14.2884L40.4887 15.6761C41.0426 16.1221 41.7476 16.3205 42.4526 16.3205L44.6683 16.2213C47.2364 16.0726 49.5529 17.5595 50.4591 19.9382C50.6604 20.4834 50.5599 21.1277 50.157 21.5243L37.0645 34.7566C36.6113 35.2025 36.0068 35.5496 35.4027 35.6485C34.5467 35.7477 33.6907 35.4504 33.0862 34.8554L28.5041 30.2466C28.1514 29.8995 27.5472 29.8995 27.1949 30.2466L25.9863 31.3867C25.6336 31.7338 25.6336 32.3284 25.9863 32.6752L33.9425 40.6542C34.5467 41.2488 35.5541 41.2488 36.1076 40.6542L51.4158 25.0926C51.9195 24.5969 52.725 24.498 53.3294 24.8945L54.2863 25.5389C56.653 27.0258 57.6099 29.9497 56.6028 32.5269L55.797 34.5589C55.5452 35.2032 55.5452 35.9465 55.797 36.5909L56.6028 38.6229C57.6099 41.2001 56.6531 44.124 54.2863 45.6108L52.524 46.7499C51.9198 47.1464 51.517 47.741 51.3154 48.3853L50.7112 50.4668C50.0062 52.9943 47.6395 54.7784 44.9706 54.7784H44.6686L42.4528 54.6795C41.7478 54.6301 41.0428 54.8776 40.4889 55.3239L38.7769 56.7115C37.7193 57.5042 36.4102 58 35.0505 58L35.0503 57.9995ZM28.5039 51.7054C29.662 51.854 30.7698 52.3497 31.6764 53.093L33.288 54.332C34.295 55.125 35.9066 55.125 36.9136 54.332L38.6256 52.9444C39.7837 52.0525 41.1937 51.6062 42.6542 51.6559L44.8699 51.7551C46.2296 51.8046 47.438 50.9621 47.7906 49.6736L48.3947 47.5428C48.7976 46.1551 49.6536 44.9656 50.8623 44.1729L52.7253 42.9834C53.8834 42.2402 54.3369 40.8525 53.8332 39.5637L53.0274 37.5317C52.5237 36.1935 52.5237 34.7067 53.0274 33.3688L53.8332 31.3368C54.2361 30.2959 53.9842 29.1561 53.229 28.4129C53.0277 28.1651 52.6249 28.1651 52.373 28.4129L37.1152 43.9745C36.6621 44.4205 36.0575 44.7675 35.4032 44.8664C34.4969 44.9656 33.6912 44.6683 33.0866 44.0734L22.9651 33.9633C21.9074 32.873 21.9074 31.1382 23.0153 30.0977L25.8352 27.3718C26.2883 26.9259 26.8928 26.6286 27.4969 26.5294C28.3529 26.4302 29.2089 26.7275 29.8134 27.3224L33.9428 31.4358C34.547 32.0304 35.5037 32.0304 36.1079 31.4358L46.4812 20.9788C46.8841 20.5329 46.8339 19.8391 46.28 19.5418C45.8269 19.3437 45.3737 19.1947 44.8198 19.2445L42.6037 19.3434C41.1436 19.3928 39.6831 18.9468 38.5752 18.0549L36.8632 16.6673C35.8561 15.8742 34.2446 15.8742 33.2375 16.6673L31.5255 18.0549C30.4177 18.9468 28.9575 19.3931 27.497 19.3434L25.2812 19.2441C23.9215 19.1947 22.7132 20.0372 22.3606 21.3256L21.8066 23.4071C21.4037 24.7948 20.5477 25.9843 19.3391 26.777L17.4259 27.9668C16.2678 28.7101 15.8143 30.0977 16.318 31.3865L17.1238 33.4185C17.6275 34.7567 17.6275 36.2436 17.1238 37.5814L16.318 39.6134C15.8143 40.8524 16.318 42.2894 17.4259 43.0331L19.2889 44.2226C20.4976 45.0156 21.4039 46.2048 21.7565 47.5924L22.3606 49.6739C22.7133 50.9624 23.9216 51.8546 25.2813 51.7554L27.497 51.7056C27.7991 51.6562 28.1517 51.7056 28.504 51.7056L28.5039 51.7054Z" fill="white"/>
</svg>
