<svg width="96" height="97" viewBox="0 0 96 97" fill="none" xmlns="http://www.w3.org/2000/svg">
<path d="M18.2605 44.7227V47.033C18.2605 47.737 17.9808 48.4126 17.4829 48.9105C16.9854 49.408 16.3106 49.6876 15.6073 49.6882M18.2605 44.7227L13.2949 51.9984V52.0018V52.0447M18.2605 44.7227H22.8812H18.2605ZM15.6073 49.6882C15.6067 49.6882 15.606 49.6882 15.6053 49.6882V48.6882L15.6087 49.6881C15.6082 49.6881 15.6078 49.6881 15.6073 49.6882ZM15.6073 49.6882C14.9944 49.6906 14.4072 49.935 13.9746 50.3676C13.5417 50.8006 13.2971 51.3885 13.2951 52.0018L13.2949 52.0447M13.2949 52.0447V71.8604C13.2949 72.0342 13.364 72.201 13.4868 72.3237C13.6095 72.4464 13.7763 72.5156 13.9501 72.5156H27.1914C27.3652 72.5156 27.532 72.4464 27.6547 72.3237C27.7775 72.201 27.8466 72.0342 27.8466 71.8604V52.0002M13.2949 52.0447L27.8466 52.0002M27.8466 52.0002C27.8441 51.3873 27.5996 50.8002 27.1671 50.3677C26.7345 49.9351 26.1473 49.6907 25.5346 49.6882C25.5341 49.6881 25.5335 49.6881 25.533 49.6881L27.8466 52.0002Z" stroke="#3C8477" stroke-width="2"/>
<path d="M13.9492 37.1016H27.1905V40.4119H13.9492V37.1016Z" fill="#3C8477"/>
<path d="M38.7773 71.86C38.7773 72.2989 38.9517 72.7201 39.2621 73.0305C39.5724 73.3408 39.9936 73.5152 40.4325 73.5152H53.6738C54.1127 73.5152 54.5339 73.3408 54.8443 73.0305C55.1546 72.7201 55.329 72.2989 55.329 71.86V66.8945H38.7773V71.86Z" fill="#3C8477"/>
<path d="M10.6404 83.4453C9.45736 83.4453 8.36456 84.0763 7.77343 85.1005C7.1823 86.1246 7.1823 87.3867 7.77343 88.4108C8.36456 89.4349 9.4574 90.066 10.6404 90.066H13.5864C12.7566 89.1638 12.2955 87.9822 12.2955 86.7556C12.2955 85.5291 12.7566 84.3476 13.5864 83.4453H10.6404Z" fill="#3C8477"/>
<path d="M18.9158 86.7567C18.9158 87.6708 18.1747 88.4119 17.2606 88.4119C16.3466 88.4119 15.6055 87.6708 15.6055 86.7567C15.6055 85.8427 16.3466 85.1016 17.2606 85.1016C18.1747 85.1016 18.9158 85.8427 18.9158 86.7567Z" fill="#3C8477"/>
<path d="M43.7428 47.0331C43.7428 47.472 43.5684 47.8932 43.258 48.2035C42.9477 48.5138 42.5265 48.6882 42.0876 48.6882C41.2105 48.6912 40.3696 49.0407 39.7497 49.6606C39.1299 50.2806 38.7803 51.1215 38.7773 51.9985V63.5846H45.398V43.7227H43.7428L43.7428 47.0331Z" fill="#3C8477"/>
<path d="M66.916 37.1016H80.1573V40.4119H66.916V37.1016Z" fill="#3C8477"/>
<path d="M71.2253 44.7227V47.033C71.2253 47.737 70.9457 48.4126 70.4477 48.9105C69.9502 49.408 69.2755 49.6876 68.5722 49.6881M71.2253 44.7227L66.2598 51.9984V52.0018V52.0447M71.2253 44.7227H75.846H71.2253ZM68.5722 49.6881C68.5715 49.6881 68.5708 49.6882 68.5702 49.6882V48.6882L68.5735 49.6881C68.5731 49.6881 68.5726 49.6881 68.5722 49.6881ZM68.5722 49.6881C67.9592 49.6906 67.372 49.935 66.9395 50.3676C66.5065 50.8006 66.262 51.3884 66.2599 52.0018L66.2598 52.0447M66.2598 52.0447V54.3087M66.2598 52.0447V54.3087M66.2598 54.3087H80.8114V52.0002C80.8089 51.3873 80.5645 50.8002 80.1319 50.3677C79.6993 49.9351 79.1122 49.6907 78.4995 49.6882C78.4989 49.6881 78.4984 49.6881 78.4978 49.6881L66.2598 54.3087Z" stroke="#3C8477" stroke-width="2"/>
<path d="M20.9355 83.4453C21.7653 84.3475 22.2264 85.5291 22.2264 86.7556C22.2264 87.9822 21.7653 89.1637 20.9355 90.066H28.4827C27.6529 89.1638 27.1918 87.9822 27.1918 86.7556C27.1918 85.5291 27.6529 84.3476 28.4827 83.4453H20.9355Z" fill="#3C8477"/>
<path d="M66.4516 72.3218C66.3289 72.1991 66.2598 72.0323 66.2598 71.8585V59.6172H80.8114V71.8585C80.8114 72.0323 80.7423 72.1991 80.6196 72.3218C80.4969 72.4446 80.3301 72.5137 80.1562 72.5137H66.9149C66.7411 72.5137 66.5743 72.4446 66.4516 72.3218Z" stroke="#3C8477" stroke-width="2"/>
<path d="M55.3296 63.5846V51.9984C55.3266 51.1213 54.9771 50.2804 54.3572 49.6606C53.7372 49.0407 52.8963 48.6911 52.0193 48.6882C51.1053 48.6882 50.3641 47.947 50.3641 47.033V43.7227H48.709V63.5846L55.3296 63.5846Z" fill="#3C8477"/>
<path d="M83.4671 76.8281H10.6398C7.09152 76.8281 3.81297 78.7213 2.03958 81.7936C0.265452 84.866 0.265452 88.6522 2.03958 91.7246C3.81297 94.797 7.09152 96.6901 10.6398 96.6901H83.4671C87.0154 96.6901 90.2939 94.797 92.0673 91.7246C93.8414 88.6522 93.8414 84.866 92.0673 81.7936C90.2939 78.7213 87.0154 76.8281 83.4671 76.8281ZM83.4671 93.3798H10.6398C8.27454 93.3798 6.08878 92.1177 4.90595 90.0694C3.72369 88.0212 3.72369 85.497 4.90595 83.4488C6.08895 81.4005 8.27473 80.1385 10.6398 80.1385H83.4671C85.8323 80.1385 88.0181 81.4005 89.2009 83.4488C90.3832 85.497 90.3832 88.0212 89.2009 90.0694C88.0179 92.1177 85.8322 93.3798 83.4671 93.3798Z" fill="#3C8477"/>
<path d="M78.5017 86.7567C78.5017 87.6708 77.7606 88.4119 76.8466 88.4119C75.9325 88.4119 75.1914 87.6708 75.1914 86.7567C75.1914 85.8427 75.9325 85.1016 76.8466 85.1016C77.7606 85.1016 78.5017 85.8427 78.5017 86.7567Z" fill="#3C8477"/>
<path d="M65.625 83.4453C66.4548 84.3475 66.9159 85.5291 66.9159 86.7556C66.9159 87.9822 66.4548 89.1637 65.625 90.066H73.1722C72.3424 89.1638 71.8813 87.9822 71.8813 86.7556C71.8813 85.5291 72.3424 84.3476 73.1722 83.4453H65.625Z" fill="#3C8477"/>
<path d="M63.6053 86.7567C63.6053 87.6708 62.8641 88.4119 61.9501 88.4119C61.0361 88.4119 60.2949 87.6708 60.2949 86.7567C60.2949 85.8427 61.0361 85.1016 61.9501 85.1016C62.8641 85.1016 63.6053 85.8427 63.6053 86.7567Z" fill="#3C8477"/>
<path d="M83.4675 83.4453H80.5215C81.3513 84.3475 81.8124 85.5291 81.8124 86.7556C81.8124 87.9822 81.3513 89.1637 80.5215 90.066H83.4675C84.6505 90.066 85.7433 89.4349 86.3344 88.4108C86.9255 87.3867 86.9255 86.1246 86.3344 85.1005C85.7433 84.0764 84.6504 83.4453 83.4675 83.4453Z" fill="#3C8477"/>
<path d="M35.832 83.4453C36.6618 84.3475 37.1229 85.5291 37.1229 86.7556C37.1229 87.9822 36.6618 89.1637 35.832 90.066H43.3792C42.5494 89.1638 42.0883 87.9822 42.0883 86.7556C42.0883 85.5291 42.5494 84.3476 43.3792 83.4453H35.832Z" fill="#3C8477"/>
<path d="M33.8123 86.7567C33.8123 87.6708 33.0711 88.4119 32.1571 88.4119C31.2431 88.4119 30.502 87.6708 30.502 86.7567C30.502 85.8427 31.2431 85.1016 32.1571 85.1016C33.0711 85.1016 33.8123 85.8427 33.8123 86.7567Z" fill="#3C8477"/>
<path d="M48.7088 86.7567C48.7088 87.6708 47.9676 88.4119 47.0536 88.4119C46.1396 88.4119 45.3984 87.6708 45.3984 86.7567C45.3984 85.8427 46.1396 85.1016 47.0536 85.1016C47.9676 85.1016 48.7088 85.8427 48.7088 86.7567Z" fill="#3C8477"/>
<path d="M50.7285 83.4453C51.5583 84.3475 52.0194 85.5291 52.0194 86.7556C52.0194 87.9822 51.5583 89.1637 50.7285 90.066H58.2757C57.4459 89.1638 56.9848 87.9822 56.9848 86.7556C56.9848 85.5291 57.4459 84.3476 58.2757 83.4453H50.7285Z" fill="#3C8477"/>
<path d="M52.0189 12.2734H42.0879V17.2389H45.3982V23.1813L47.0534 24.8364L48.7085 23.1813V17.2389H52.0189V12.2734Z" fill="#3C8477"/>
<path d="M48.7094 43.7235V40.4132H53.6749V37.1029H48.7094V27.1719H45.3991V37.1029H40.4336V40.4132H45.3991V43.7235H48.7094Z" fill="#3C8477"/>
<path d="M0.708984 0.6875V3.99783H35.4674V8.96332H58.6398V3.99783H95.0534V0.6875H0.708984Z" fill="#3C8477"/>
</svg>
