<svg width="98" height="97" viewBox="0 0 98 97" fill="none" xmlns="http://www.w3.org/2000/svg">
<path d="M57.5762 82.4219H62.5394V87.3477H57.5762V82.4219Z" fill="#3C8477"/>
<path d="M10.6348 76.875H15.598V82.5324H10.6348V76.875Z" fill="#3C8477"/>
<path d="M10.6348 63.3281H15.598V68.9855H10.6348V63.3281Z" fill="#3C8477"/>
<path d="M10.6348 49.7812H15.598V55.4386H10.6348V49.7812Z" fill="#3C8477"/>
<path d="M82.8047 76.875H87.7679V82.5324H82.8047V76.875Z" fill="#3C8477"/>
<path d="M82.8047 63.3281H87.7679V68.9855H82.8047V63.3281Z" fill="#3C8477"/>
<path d="M82.8047 49.7812H87.7679V55.4386H82.8047V49.7812Z" fill="#3C8477"/>
<path d="M95.0048 24.2654H77.6348V16.2965H80.5302C83.7227 16.2965 86.3203 13.7184 86.3203 10.5499L86.3196 6.43409C86.3196 3.26561 83.722 0.6875 80.5295 0.6875H17.6649C14.4724 0.6875 11.8748 3.26561 11.8748 6.43409V10.5492C11.8748 13.7177 14.4724 16.2958 17.6649 16.2958H20.5603V24.2648L3.18854 24.2654C1.81814 24.2654 0.707031 25.3682 0.707031 26.7283V94.2246C0.707031 95.5847 1.81821 96.6875 3.18854 96.6875H95.0038C96.3742 96.6875 97.4853 95.5847 97.4853 94.2246V26.7283C97.4853 25.3675 96.3741 24.2654 95.0038 24.2654L95.0048 24.2654ZM20.5596 91.7618H5.67089V40.7485H20.5596V91.7618ZM72.6714 91.8127H40.6187V66.6337H57.5759V77.7497H62.5391V66.6337H66.8818V61.7078H31.5196V66.6337H35.6552V91.8127H25.5223L25.5229 16.2961H72.6714L72.6714 91.8127ZM92.5231 91.7618H77.6344V40.7485H92.5231V91.7618Z" fill="#3C8477"/>
<path d="M54.586 48.2873L49.0976 45.4966L43.6092 48.2873C41.8708 49.2433 39.6263 47.5992 40.034 45.6682L41.0675 39.8418L36.6782 35.7039C35.1735 34.376 36.0376 31.6953 38.0392 31.4795L44.1594 30.6193L46.8848 25.2794C47.7185 23.5058 50.4789 23.5058 51.3119 25.2794L54.0372 30.6193L60.1574 31.4795C62.159 31.6946 63.0224 34.376 61.5184 35.7039L57.1291 39.8418L58.1627 45.6682C58.6102 49.1253 54.9432 48.4687 54.5862 48.2873H54.586ZM50.2291 40.5373L52.4088 41.6455L52.0092 39.3936C51.8647 38.5802 52.1408 37.7494 52.7443 37.1814L54.3767 35.6424L52.0599 35.3167C51.2572 35.2042 50.5605 34.7091 50.1939 33.9908L49.0976 31.8429L48.0013 33.9908C47.6347 34.7091 46.938 35.2035 46.1353 35.3167L43.8185 35.6424L45.4509 37.1814C46.0544 37.7502 46.3298 38.581 46.186 39.3936L45.7864 41.6455L47.9661 40.5373C49.0976 39.6844 49.8739 40.3571 50.229 40.5373H50.2291Z" fill="#3C8477"/>
</svg>
