<svg width="98" height="97" viewBox="0 0 98 97" fill="none" xmlns="http://www.w3.org/2000/svg">
<path d="M95.0068 24.2654H77.6367V16.2965H80.5322C83.7246 16.2965 86.3223 13.7184 86.3223 10.5499L86.3216 6.43409C86.3216 3.26561 83.724 0.6875 80.5315 0.6875H17.6668C14.4744 0.6875 11.8767 3.26561 11.8767 6.43409V10.5492C11.8767 13.7177 14.4744 16.2958 17.6668 16.2958H20.5623V24.2648L3.19049 24.2654C1.82009 24.2654 0.708984 25.3682 0.708984 26.7283V94.2246C0.708984 95.5847 1.82016 96.6875 3.19049 96.6875H95.0058C96.3762 96.6875 97.4873 95.5847 97.4873 94.2246V26.7283C97.4873 25.3675 96.3761 24.2654 95.0058 24.2654L95.0068 24.2654ZM20.5615 91.7618H5.67285V40.7485H20.5615V91.7618ZM72.6734 91.8127H40.6206V66.6337H57.5778V77.7497H62.541V66.6337H66.8838V61.7078H31.5216V66.6337H35.6571V91.8127H25.5242L25.5249 16.2961H72.6734L72.6734 91.8127ZM92.5251 91.7618H77.6364V40.7485H92.5251V91.7618Z" fill="#3C8477"/>
</svg>
