<svg width="136" height="136" viewBox="0 0 136 136" fill="none" xmlns="http://www.w3.org/2000/svg">
<path fill-rule="evenodd" clip-rule="evenodd" d="M93.7001 10.5921C99.0348 9.16268 104.518 12.3285 105.948 17.6632L125.411 90.3008C126.84 95.6354 123.674 101.119 118.34 102.548L45.7021 122.011C40.3674 123.441 34.884 120.275 33.4546 114.94L13.9914 42.3027C12.562 36.9681 15.7278 31.4847 21.0625 30.0553L93.7001 10.5921Z" fill="#B7DBD7"/>
<path fill-rule="evenodd" clip-rule="evenodd" d="M60.9289 7.75467C64.8342 3.84942 71.1658 3.84942 75.0711 7.75466L128.245 60.9291C132.151 64.8343 132.151 71.166 128.245 75.0712L75.0711 128.246C71.1658 132.151 64.8342 132.151 60.9289 128.246L7.75451 75.0712C3.84927 71.166 3.84926 64.8343 7.75451 60.9291L60.9289 7.75467Z" fill="white"/>
<path fill-rule="evenodd" clip-rule="evenodd" d="M79 45C79 45.5523 78.5523 46 78 46C75.7909 46 74 47.7909 74 50C74 50.5523 73.5523 51 73 51C72.4477 51 72 50.5523 72 50C72 47.7909 70.2091 46 68 46C67.4477 46 67 45.5523 67 45C67 44.4477 67.4477 44 68 44C70.2091 44 72 42.2091 72 40C72 39.4477 72.4477 39 73 39C73.5523 39 74 39.4477 74 40C74 42.2091 75.7909 44 78 44C78.5523 44 79 44.4477 79 45ZM71.3125 45C71.9813 45.4448 72.5547 46.0182 72.9995 46.687C73.4443 46.0182 74.0177 45.4448 74.6865 45C74.0177 44.5552 73.4443 43.9817 72.9995 43.313C72.5547 43.9817 71.9813 44.5552 71.3125 45Z" fill="#0E8778"/>
<path fill-rule="evenodd" clip-rule="evenodd" d="M79 66C79 63.7909 77.2091 62 75 62C74.4477 62 74 61.5523 74 61C74 60.4477 74.4477 60 75 60C77.2091 60 79 58.2091 79 56C79 55.4477 79.4477 55 80 55C80.5523 55 81 55.4477 81 56C81 58.2091 82.7909 60 85 60C85.5523 60 86 60.4477 86 61C86 61.5523 85.5523 62 85 62C82.7909 62 81 63.7909 81 66C81 66.5523 80.5523 67 80 67C79.4477 67 79 66.5523 79 66ZM81.6865 61C81.0177 60.5552 80.4443 59.9817 79.9995 59.313C79.5547 59.9817 78.9813 60.5552 78.3125 61C78.9813 61.4448 79.5547 62.0182 79.9995 62.687C80.4443 62.0182 81.0177 61.4448 81.6865 61Z" fill="#0E8778"/>
<path fill-rule="evenodd" clip-rule="evenodd" d="M94.8455 65.1195L72.1994 69.856L63.3532 62.7444L66.1721 40.0826C66.2052 39.8075 66.1192 39.5314 65.9359 39.3243C65.7526 39.1172 65.4897 38.9991 65.2139 39C63.351 39.0546 61.5801 39.8259 60.2669 41.1546C59.295 42.1889 57.9609 42.8028 56.5466 42.8666C55.2964 42.8635 54.1243 42.2549 53.3987 41.232C52.3085 39.8241 50.6326 39.0008 48.8573 39.0008C47.082 39.0008 45.406 39.8241 44.3158 41.232C43.5902 42.2528 42.4204 42.861 41.1718 42.8666C41.1718 42.8666 41.0169 42.853 40.9881 42.8521C40.6557 42.8369 40.3406 43.0013 40.1616 43.2832C39.9779 43.5601 39.9488 43.9125 40.0847 44.216L46.5373 58.6188C45.3316 59.0659 44.4315 60.0934 44.1431 61.3517C43.8548 62.61 44.217 63.9296 45.1067 64.8614C45.1856 64.9445 45.2683 65.0247 45.3539 65.1001C44.3837 65.9602 43.9086 67.2524 44.0893 68.5397C44.27 69.8269 45.0824 70.9367 46.2515 71.4935C46.0742 71.9177 45.9795 72.3722 45.9725 72.8323C45.9725 74.4338 47.2647 75.7322 48.8587 75.7322H49.8602C49.9151 77.1189 50.623 78.3967 51.7671 79.1744C52.0801 84.0228 50.4982 88.8028 47.3579 92.4975C47.0118 92.9024 47.0579 93.5126 47.4608 93.8604C47.7584 94.1305 48.0368 94.4212 48.294 94.7304C49.3013 96.1729 50.9533 97.0218 52.707 96.9981C54.5699 96.9435 56.3408 96.1722 57.6539 94.8435C58.6259 93.8093 59.96 93.1954 61.3743 93.1316C62.6245 93.1347 63.7965 93.7432 64.5221 94.7662C65.6114 96.1745 67.287 96.9982 69.0621 96.9981C70.3093 97.0315 71.527 96.6148 72.4948 95.8237C72.7384 95.6276 72.8722 95.3248 72.8536 95.0117C72.565 91.1112 71.1868 87.3717 68.8774 84.2231L94.7897 91.1655C95.0785 91.2429 95.3867 91.1811 95.6238 90.9982C95.8609 90.8153 96 90.5321 96 90.2317V66.0658C95.9998 65.7757 95.8699 65.501 95.6461 65.3176C95.4224 65.1342 95.1284 65.0614 94.8455 65.1195ZM42.4023 44.678C43.7025 44.3552 44.8622 43.6146 45.7051 42.5688C46.4296 41.5431 47.6039 40.9336 48.8558 40.9336C50.1077 40.9336 51.282 41.5431 52.0066 42.5688C53.0961 43.9768 54.7716 44.8002 56.5466 44.7998C58.4095 44.7454 60.1805 43.9741 61.4935 42.6452C62.2329 41.9246 63.1272 41.3845 64.1075 41.0667L61.5224 61.8435L57.4211 60.3462C57.1127 57.491 57.4532 54.6027 58.4169 51.8988C58.8874 50.6095 59.5006 49.3774 60.2448 48.2256L58.6304 47.1739C57.8083 48.4471 57.1306 49.8089 56.6101 51.2338C55.6491 53.9182 55.2483 56.7726 55.4325 59.6193L52.6012 58.584L50.7732 47.5412L48.876 47.8583L50.6097 58.3327H48.5191L42.4023 44.678ZM69.0629 95.0651C69.7041 95.0876 70.3383 94.9256 70.8909 94.5982C70.4482 90.4195 68.6422 86.5053 65.7544 83.4655H61.4972L64.9905 87.6829L63.5109 88.9221L58.8112 83.2547L57.3969 82.4428L56.5445 88.4359L54.6396 88.1614L55.6017 81.4075L53.742 80.3394C53.7448 84.949 52.2123 89.4271 49.3887 93.0603C49.5109 93.1937 49.6282 93.329 49.7437 93.4624C50.3843 94.4813 51.5086 95.0892 52.7078 95.0651C54.1221 95.0013 55.4562 94.3874 56.4281 93.3532C57.7412 92.0243 59.5121 91.2529 61.3751 91.1985C63.1502 91.1984 64.8258 92.0222 65.9151 93.4305C66.6407 94.4534 67.8127 95.062 69.0629 95.0651ZM94.0749 88.9751L66.4232 81.5649C66.3422 81.5434 66.2588 81.5323 66.175 81.532H59.6964L53.1726 77.7873C52.377 77.4046 51.8517 76.6171 51.8017 75.7322H54.6302V73.799H48.8578C48.3264 73.799 47.8957 73.3662 47.8957 72.8323C47.9084 72.4813 48.0305 72.1431 48.2449 71.8657H52.706V69.9324H47.8957C46.833 69.9324 45.9716 69.0669 45.9716 67.9991C45.9716 66.9314 46.833 66.0659 47.8957 66.0659H51.744V64.1326H47.8957C47.3669 64.1334 46.861 63.9154 46.497 63.53C46.133 63.1445 45.943 62.6255 45.9716 62.0949C46.0852 61.031 46.9947 60.2342 48.0592 60.2661H51.5746L61.8457 64.0205L71.3422 71.6569C71.4713 71.7582 71.6239 71.8248 71.7857 71.8502L94.0749 75.5843V88.9751ZM77.168 70.7937L94.0753 73.625V67.2539L77.168 70.7937Z" fill="#0E8778"/>
</svg>
