<svg width="95" height="96" viewBox="0 0 95 96" fill="none" xmlns="http://www.w3.org/2000/svg">
<circle cx="47.3862" cy="47.7221" r="47.3862" fill="#E7F3F2"/>
<path fill-rule="evenodd" clip-rule="evenodd" d="M22.5742 57.9989V71.637C22.5742 73.023 23.698 74.1468 25.084 74.1468H69.9001C71.286 74.1468 72.4099 73.023 72.4099 71.637V54.6764C72.4099 54.2148 72.0345 53.8398 71.5733 53.8398C71.1116 53.8398 70.7367 54.2148 70.7367 54.6764V71.637C70.7367 72.0986 70.3617 72.4736 69.9001 72.4736H25.084C24.6224 72.4736 24.2474 72.0986 24.2474 71.637V57.9989C24.2474 57.5377 23.8724 57.1623 23.4108 57.1623C22.9496 57.1623 22.5742 57.5377 22.5742 57.9989V57.9989Z" fill="#269385"/>
<path fill-rule="evenodd" clip-rule="evenodd" d="M48.3291 23.5098C48.3291 22.1238 47.2053 21 45.8193 21H25.084C23.698 21 22.5742 22.1238 22.5742 23.5098V36.2501C22.5742 37.636 23.698 38.7599 25.084 38.7599H45.8193C47.2053 38.7599 48.3291 37.636 48.3291 36.2501V23.5098ZM46.6559 23.5098V36.2501C46.6559 36.7124 46.2809 37.0867 45.8193 37.0867H25.084C24.6224 37.0867 24.2474 36.7124 24.2474 36.2501V23.5098C24.2474 23.0482 24.6224 22.6732 25.084 22.6732H45.8193C46.2809 22.6732 46.6559 23.0482 46.6559 23.5098V23.5098Z" fill="#269385"/>
<path fill-rule="evenodd" clip-rule="evenodd" d="M31.2695 29.0163V30.7429C31.2695 31.2046 31.6445 31.5795 32.1061 31.5795C32.5678 31.5795 32.9427 31.2046 32.9427 30.7429V29.0163C32.9427 28.5547 32.5678 28.1797 32.1061 28.1797C31.6445 28.1797 31.2695 28.5547 31.2695 29.0163Z" fill="#269385"/>
<path fill-rule="evenodd" clip-rule="evenodd" d="M37.9629 29.0163V30.7429C37.9629 31.2046 38.3379 31.5795 38.7995 31.5795C39.2611 31.5795 39.6361 31.2046 39.6361 30.7429V29.0163C39.6361 28.5547 39.2611 28.1797 38.7995 28.1797C38.3379 28.1797 37.9629 28.5547 37.9629 29.0163Z" fill="#269385"/>
<path fill-rule="evenodd" clip-rule="evenodd" d="M33.4655 58.8607H37.439C37.9003 58.8607 38.2756 58.4857 38.2756 58.0241C38.2756 57.5625 37.9003 57.1875 37.439 57.1875H33.4655C33.0039 57.1875 32.6289 57.5625 32.6289 58.0241C32.6289 58.4857 33.0039 58.8607 33.4655 58.8607Z" fill="#269385"/>
<path fill-rule="evenodd" clip-rule="evenodd" d="M57.5475 58.8607H61.5211C61.9827 58.8607 62.3577 58.4857 62.3577 58.0241C62.3577 57.5625 61.9827 57.1875 61.5211 57.1875H57.5475C57.0863 57.1875 56.7109 57.5625 56.7109 58.0241C56.7109 58.4857 57.0863 58.8607 57.5475 58.8607Z" fill="#269385"/>
<path fill-rule="evenodd" clip-rule="evenodd" d="M33.4655 68.1185H37.439C37.9003 68.1185 38.2756 67.7435 38.2756 67.2819C38.2756 66.8203 37.9003 66.4453 37.439 66.4453H33.4655C33.0039 66.4453 32.6289 66.8203 32.6289 67.2819C32.6289 67.7435 33.0039 68.1185 33.4655 68.1185Z" fill="#269385"/>
<path fill-rule="evenodd" clip-rule="evenodd" d="M57.5475 68.1185H61.5211C61.9827 68.1185 62.3577 67.7435 62.3577 67.2819C62.3577 66.8203 61.9827 66.4453 61.5211 66.4453H57.5475C57.0863 66.4453 56.7109 66.8203 56.7109 67.2819C56.7109 67.7435 57.0863 68.1185 57.5475 68.1185Z" fill="#269385"/>
<path fill-rule="evenodd" clip-rule="evenodd" d="M23.4108 64.7748H71.5733C72.0345 64.7748 72.4099 64.3998 72.4099 63.9382C72.4099 63.4765 72.0345 63.1016 71.5733 63.1016H23.4108C22.9496 63.1016 22.5742 63.4765 22.5742 63.9382C22.5742 64.3998 22.9496 64.7748 23.4108 64.7748V64.7748Z" fill="#269385"/>
<path fill-rule="evenodd" clip-rule="evenodd" d="M73.985 51.8262C73.985 51.1602 73.7206 50.5223 73.25 50.0514C72.7794 49.5808 72.1407 49.3164 71.4752 49.3164H23.5098C22.8442 49.3164 22.2059 49.5808 21.735 50.0514C21.2644 50.522 21 51.1603 21 51.8262V53.0045C21 53.6704 21.2644 54.3083 21.735 54.7792C22.2056 55.2498 22.8443 55.5142 23.5098 55.5142H71.4752C72.1408 55.5142 72.7791 55.2498 73.25 54.7792C73.7206 54.3086 73.985 53.6703 73.985 53.0045V51.8262ZM72.3118 51.8262V53.0045C72.3118 53.2263 72.2237 53.4396 72.0668 53.5961C71.9096 53.7529 71.697 53.8411 71.4752 53.8411H23.5097C23.2879 53.8411 23.0753 53.7529 22.9181 53.5961C22.7613 53.4392 22.6731 53.2263 22.6731 53.0045V51.8262C22.6731 51.6043 22.7613 51.3918 22.9181 51.2346C23.0753 51.0777 23.2879 50.9896 23.5097 50.9896H71.4752C71.697 50.9896 71.9096 51.0777 72.0668 51.2346C72.2237 51.3918 72.3118 51.6043 72.3118 51.8262Z" fill="#269385"/>
<path fill-rule="evenodd" clip-rule="evenodd" d="M60.8901 50.1545V45.5152C60.8901 43.6907 59.4111 42.2109 57.5859 42.2109H57.5855C55.7606 42.2109 54.2812 43.6907 54.2812 45.5152V46.2442C54.2812 46.7058 54.6562 47.0808 55.1179 47.0808C55.5795 47.0808 55.9545 46.7058 55.9545 46.2442V45.5152C55.9545 44.6143 56.6846 43.8841 57.5855 43.8841H57.5859C58.4867 43.8841 59.2169 44.6143 59.2169 45.5152V50.1545C59.2169 50.6162 59.5919 50.9911 60.0535 50.9911C60.5151 50.9911 60.8901 50.6162 60.8901 50.1545V50.1545Z" fill="#269385"/>
<path fill-rule="evenodd" clip-rule="evenodd" d="M32.1048 50.1553C32.1048 46.7413 34.8768 43.9701 38.2908 43.9701C41.7048 43.9701 44.476 46.7413 44.476 50.1553C44.476 50.6169 44.851 50.9919 45.3126 50.9919C45.7743 50.9919 46.1492 50.6169 46.1492 50.1553C46.1492 45.8177 42.6277 42.2969 38.2908 42.2969C33.9532 42.2969 30.4316 45.8177 30.4316 50.1553C30.4316 50.6169 30.8066 50.9919 31.2682 50.9919C31.7299 50.9919 32.1048 50.6169 32.1048 50.1553V50.1553Z" fill="#269385"/>
<path fill-rule="evenodd" clip-rule="evenodd" d="M36.2884 37.7857V21.9772C36.2884 21.5156 35.9135 21.1406 35.4518 21.1406C34.9902 21.1406 34.6152 21.5156 34.6152 21.9772V37.7857C34.6152 38.2469 34.9902 38.6223 35.4518 38.6223C35.9135 38.6223 36.2884 38.2469 36.2884 37.7857Z" fill="#269385"/>
<path fill-rule="evenodd" clip-rule="evenodd" d="M44.1663 45.769C44.1663 45.769 44.9992 44.2474 46.8043 44.2713C47.2659 44.2773 47.6457 43.9075 47.6521 43.4459C47.6581 42.9843 47.2883 42.6045 46.8267 42.5981C43.9901 42.56 42.6944 44.9731 42.6944 44.9731C42.4748 45.3791 42.6265 45.8874 43.0324 46.107C43.4384 46.3265 43.9467 46.1749 44.1663 45.7689L44.1663 45.769Z" fill="#269385"/>
<path fill-rule="evenodd" clip-rule="evenodd" d="M29.3061 46.8916C29.3061 45.553 30.3925 44.4658 31.7311 44.4658C32.3988 44.4658 33.0032 44.7362 33.4423 45.1732C33.7699 45.4996 34.2995 45.4985 34.6251 45.1709C34.9508 44.8434 34.9497 44.3138 34.6229 43.9881C33.8811 43.2497 32.8593 42.793 31.731 42.793C29.4696 42.793 27.6328 44.6298 27.6328 46.8919C27.6328 47.3536 28.0078 47.7285 28.4694 47.7285C28.931 47.7285 29.306 47.3536 29.306 46.8919L29.3061 46.8916Z" fill="#269385"/>
<path fill-rule="evenodd" clip-rule="evenodd" d="M59.1947 29.8785V22.4929C59.1947 22.0312 58.8197 21.6562 58.3581 21.6562C57.8965 21.6562 57.5215 22.0312 57.5215 22.4929V29.8785C57.5215 30.3401 57.8965 30.7151 58.3581 30.7151C58.8197 30.7151 59.1947 30.3401 59.1947 29.8785Z" fill="#269385"/>
<path fill-rule="evenodd" clip-rule="evenodd" d="M58.3582 29.0547C56.1752 29.0547 54.2812 31.2694 54.2812 34.1146C54.2812 36.9595 56.1752 39.1746 58.3582 39.1746C60.5412 39.1746 62.4348 36.9599 62.4348 34.1146C62.4348 31.2698 60.5412 29.0547 58.3582 29.0547ZM58.3582 30.7279C59.7532 30.7279 60.7616 32.2961 60.7616 34.1146C60.7616 35.9328 59.7532 37.5014 58.3582 37.5014C56.9629 37.5014 55.9545 35.9332 55.9545 34.1146C55.9545 32.2965 56.9629 30.7279 58.3582 30.7279Z" fill="#269385"/>
<path fill-rule="evenodd" clip-rule="evenodd" d="M68.3646 27.3814V22.4929C68.3646 22.0312 67.9893 21.6562 67.528 21.6562C67.0664 21.6562 66.6914 22.0312 66.6914 22.4929V27.3814C66.6914 27.843 67.0664 28.218 67.528 28.218C67.9893 28.218 68.3646 27.843 68.3646 27.3814Z" fill="#269385"/>
<path fill-rule="evenodd" clip-rule="evenodd" d="M67.5271 26.5469C65.7067 26.5469 64.1074 28.377 64.1074 30.7489C64.1074 33.1216 65.7063 34.9513 67.5271 34.9513C69.347 34.9513 70.9459 33.1212 70.9459 30.7489C70.9459 28.3769 69.347 26.5469 67.5271 26.5469V26.5469ZM67.5271 28.2201C67.883 28.2201 68.2068 28.3829 68.4735 28.638C68.9698 29.1127 69.2727 29.8862 69.2727 30.7489C69.2727 31.6124 68.9698 32.3859 68.4735 32.8598C68.2068 33.1153 67.883 33.2781 67.5271 33.2781C67.1708 33.2781 66.8473 33.1153 66.5799 32.8598C66.0836 32.3859 65.7807 31.612 65.7807 30.7489C65.7807 29.8862 66.0836 29.1127 66.5799 28.638C66.847 28.3833 67.1704 28.2201 67.5271 28.2201V28.2201Z" fill="#269385"/>
<path fill-rule="evenodd" clip-rule="evenodd" d="M70.1098 21H55.1179C54.6562 21 54.2812 21.3754 54.2812 21.8366C54.2812 22.2982 54.6562 22.6732 55.1179 22.6732H70.1098C70.5714 22.6732 70.9464 22.2982 70.9464 21.8366C70.9464 21.3754 70.5714 21 70.1098 21V21Z" fill="#269385"/>
<path fill-rule="evenodd" clip-rule="evenodd" d="M46.6562 54.6804V73.3112C46.6562 73.7725 47.0312 74.1478 47.4929 74.1478C47.9545 74.1478 48.3295 73.7725 48.3295 73.3112V54.6804C48.3295 54.2187 47.9545 53.8438 47.4929 53.8438C47.0312 53.8438 46.6562 54.2187 46.6562 54.6804V54.6804Z" fill="#269385"/>
</svg>
