<svg width="92" height="112" viewBox="0 0 92 112" fill="none" xmlns="http://www.w3.org/2000/svg">
<path d="M90.7398 8.247L87.0279 1.86325C86.3774 0.738369 84.9305 0.353089 83.8041 1.00412L73.2773 7.05675C71.7293 5.03403 69.2872 3.80852 66.6947 3.80852C65.2435 3.80852 63.8155 4.19379 62.5614 4.91447L27.7403 24.9301L27.063 23.7708C26.0377 22.0138 23.5913 21.3594 21.8195 22.3759L12.8451 27.5384C11.0034 28.5902 10.3685 30.9328 11.4293 32.7586L13.4921 36.3113L9.11861 38.8233C7.9887 39.4709 7.6017 40.9114 8.25131 42.0328C8.68842 42.7879 9.48228 43.2076 10.2986 43.2076C10.7011 43.2076 11.1071 43.1078 11.4786 42.8919L15.8479 40.3799L17.5626 43.3349L13.19 45.8469C12.0601 46.4945 11.6731 47.935 12.3227 49.0564C12.7598 49.8115 13.5537 50.2312 14.37 50.2312C14.7725 50.2312 15.1785 50.1314 15.55 49.9155L19.9193 47.4035L21.6263 50.3585L17.2614 52.874C16.1349 53.5216 15.7479 54.9621 16.3984 56.0835C16.8355 56.8386 17.6294 57.2583 18.4457 57.2583C18.8482 57.2583 19.2508 57.1585 19.6257 56.9427L23.995 54.4306L26.0579 57.9911C26.7463 59.1658 28.0196 59.8908 29.3818 59.8908C30.0556 59.8908 30.7208 59.7136 31.3013 59.3782L40.2834 54.2157C41.1697 53.7032 41.8081 52.875 42.0716 51.8886C42.335 50.9022 42.1994 49.8737 41.6846 48.9955L41.0151 47.8397L61.0422 36.3278C62.5012 37.911 63.0895 39.8607 62.7414 42.2807L53.2944 66.3793C50.2451 64.9921 46.6152 64.9268 43.5728 66.5754C38.0002 69.6077 37.532 74.5355 37.532 79.3284V86.7836C31.9396 85.3156 25.2336 81.6599 25.2949 72.6401L30.3372 74.0815C30.5574 74.1512 30.7743 74.1778 30.9876 74.1778C32.0173 74.1778 32.9615 73.5036 33.2552 72.475C33.6189 71.2306 32.8915 69.9286 31.6416 69.5665L3.7157 61.5754C2.4545 61.2167 1.15354 61.9452 0.797724 63.1861C0.446152 64.4323 1.17004 65.7343 2.42434 66.0896L8.45401 67.8156C8.27174 73.8649 9.12781 91.9759 24.8626 100.569C24.2665 101.639 23.8951 102.861 23.8951 104.171C23.8951 106.178 24.6803 108.07 26.1048 109.488C27.5292 110.906 29.4254 111.688 31.4416 111.688H76.6851C80.8453 111.688 84.2316 108.316 84.2316 104.175C84.2316 100.033 80.8455 96.6616 76.6851 96.6616H72.4127C70.2142 92.5164 67.1302 86.7595 64.0922 81.204L77.2501 47.6429C81.6117 36.5239 80.3384 28.9722 78.7869 24.8916C79.1774 24.2483 79.5108 23.562 79.7043 22.8147C80.1846 21.0345 80.0213 19.201 79.3173 17.5249L89.8709 11.4602C90.4168 11.148 90.8116 10.6354 90.974 10.0308C91.1312 9.43056 91.05 8.79073 90.7408 8.2472L90.7398 8.247ZM29.7023 54.8746L15.9602 31.1678L23.4178 26.8798L37.1676 50.5865L29.7023 54.8746ZM30.097 29.0036L64.9226 8.98806C66.5751 8.03604 68.8428 8.66039 69.7833 10.2901L74.791 18.9047C75.267 19.7252 75.3949 20.6806 75.1469 21.5982C74.899 22.5149 74.3073 23.282 73.4832 23.7516L38.6621 43.7672L30.097 29.0036ZM13.1113 69.1497L20.6465 71.3109C19.7334 85.6006 31.5093 90.205 37.5389 91.6076V96.6663H31.4358C30.4606 96.6663 29.5354 96.8701 28.6802 97.2055C14.4581 90.5593 13.0379 75.4416 13.1113 69.1505V69.1497ZM79.5049 104.171C79.5049 105.719 78.2359 106.983 76.6836 106.983H31.4356C30.685 106.983 29.9731 106.69 29.4384 106.162C28.9046 105.626 28.6143 104.925 28.6143 104.17C28.6143 102.622 29.8799 101.362 31.4357 101.362H76.6792C78.2384 101.365 79.5038 102.625 79.5038 104.17L79.5049 104.171ZM42.2601 96.6611L42.2636 79.3271C42.2601 74.1447 43.0609 72.2106 45.8434 70.7003C48.6915 69.1592 52.508 70.2652 54.1604 73.1315C57.9837 79.7544 63.3437 89.6908 67.0627 96.66L42.2601 96.6611ZM72.8485 45.9319L61.1185 75.8406C60.1121 74.0338 59.1446 72.3189 58.2549 70.782C57.9534 70.2617 57.5889 69.7956 57.2096 69.3406L67.2484 43.7471C67.3106 43.5932 67.3486 43.4349 67.3763 43.2732C67.9602 39.7205 67.2018 36.4965 65.2322 33.9191L74.9339 28.3438C75.8401 31.9471 76.0682 37.7221 72.8486 45.9325L72.8485 45.9319ZM77.0511 13.4078L75.7078 11.0926L84.125 6.25345L85.4682 8.56865L77.0511 13.4078Z" fill="#3C8477"/>
</svg>
