<svg width="96" height="96" viewBox="0 0 96 96" fill="none" xmlns="http://www.w3.org/2000/svg">
<circle cx="48.0561" cy="47.7221" r="47.3862" fill="#E7F3F2"/>
<path d="M71.416 48.4995V44.7502C71.414 43.049 70.7371 41.4182 69.5344 40.2151C68.3313 39.0124 66.7004 38.3356 64.9993 38.3335H48.4992C46.7981 38.3355 45.1672 39.0124 43.9641 40.2151C42.7614 41.4182 42.0846 43.049 42.0825 44.7502V48.4995C40.4693 48.7713 39.0611 49.7477 38.2406 51.1628C37.4201 52.5779 37.2724 54.2848 37.8379 55.8198C38.4035 57.3548 39.6234 58.558 41.1658 59.1027V66.7503C41.1675 67.8066 41.5329 68.8297 42.2008 69.6477C42.8686 70.4656 43.798 71.0284 44.8325 71.2412V74.0837C44.8325 74.3268 44.9291 74.5601 45.101 74.7319C45.2728 74.9038 45.5061 75.0004 45.7492 75.0004H48.4992C48.8462 75.0004 49.1638 74.8044 49.3193 74.4938L50.8993 71.3337H62.5992L64.1792 74.4938C64.3348 74.8044 64.6523 75.0004 64.9993 75.0004H67.7494C67.9924 75.0004 68.2257 74.9038 68.3976 74.7319C68.5695 74.5601 68.666 74.3268 68.666 74.0837V71.2412C69.7006 71.0284 70.6299 70.4657 71.2978 69.6477C71.9656 68.8296 72.3311 67.8066 72.3327 66.7503V59.1027C73.8751 58.558 75.095 57.3548 75.6606 55.8198C76.2262 54.2848 76.0784 52.5779 75.2579 51.1628C74.4374 49.7477 73.0293 48.7713 71.4161 48.4995H71.416ZM48.4992 40.1668H64.9993C66.2143 40.168 67.3794 40.6517 68.2388 41.5107C69.0977 42.3701 69.5814 43.5351 69.5827 44.7502V48.4995C68.3026 48.7168 67.1404 49.3798 66.3015 50.3709C65.4626 51.3625 65.0014 52.6184 64.9993 53.9169V57.607C64.2103 57.0009 63.2441 56.6707 62.2493 56.667H51.2492C50.2544 56.6706 49.2882 57.0009 48.4992 57.607V53.9169C48.4971 52.6184 48.0359 51.3625 47.197 50.3709C46.3581 49.3798 45.1958 48.7168 43.9158 48.4995V44.7502C43.9171 43.5351 44.4008 42.3701 45.2597 41.5107C46.1191 40.6517 47.2842 40.1681 48.4992 40.1668V40.1668ZM48.4992 61.2503C48.5 60.5211 48.7901 59.8221 49.3054 59.3064C49.821 58.7912 50.52 58.5011 51.2492 58.5002H62.2493C62.9786 58.5011 63.6775 58.7912 64.1932 59.3064C64.7084 59.8221 64.9986 60.521 64.9994 61.2503V62.167H48.4993L48.4992 61.2503ZM47.9324 73.167H46.6658V71.3337H48.8491L47.9324 73.167ZM65.5661 73.167L64.6494 71.3337H66.833V73.167H65.5661ZM71.2335 57.5103H71.2339C70.8067 57.5966 70.4993 57.9723 70.4998 58.4081V66.7503C70.4989 67.4795 70.2088 68.1785 69.6936 68.6941C69.1779 69.2094 68.479 69.4995 67.7497 69.5003H45.7495C45.0203 69.4995 44.3213 69.2094 43.8057 68.6941C43.2905 68.1785 43.0003 67.4795 42.9995 66.7503V58.4081C42.9999 57.9723 42.6926 57.5966 42.2653 57.5103C41.3544 57.3241 40.5478 56.7986 40.0093 56.0408C39.4707 55.2825 39.2407 54.3478 39.3652 53.4262C39.4896 52.5046 39.9594 51.6649 40.68 51.0768C41.4003 50.4887 42.3169 50.1961 43.245 50.2583C44.1728 50.3205 45.0423 50.7335 45.6775 51.4124C46.3126 52.0917 46.6662 52.9871 46.6662 53.9169V63.0836C46.6662 63.3267 46.7628 63.5599 46.9347 63.7318C47.1066 63.9037 47.3398 64.0003 47.5829 64.0003H65.9164C66.1594 64.0003 66.3927 63.9037 66.5646 63.7318C66.7364 63.5599 66.833 63.3267 66.833 63.0836V53.9169C66.8334 52.9871 67.1866 52.0921 67.8217 51.4128C68.4569 50.7339 69.3264 50.3214 70.2542 50.2592C71.182 50.1969 72.0986 50.4896 72.8188 51.0776C73.539 51.6657 74.0088 52.5054 74.1333 53.4266C74.2581 54.3482 74.0277 55.2825 73.4891 56.0408C72.951 56.7987 72.1448 57.3241 71.2339 57.5103H71.2335ZM55.8334 45.6669C55.8334 45.2961 56.0568 44.9617 56.3994 44.8202C56.7419 44.6782 57.136 44.7563 57.3983 45.0186C57.6606 45.2809 57.7388 45.675 57.5968 46.0176C57.4552 46.3601 57.1208 46.5835 56.7501 46.5835C56.2439 46.5835 55.8334 46.1731 55.8334 45.6669ZM48.5 45.6669C48.5 45.2961 48.7234 44.9617 49.066 44.8202C49.4085 44.6782 49.8026 44.7563 50.0649 45.0186C50.3272 45.2809 50.4054 45.675 50.2634 46.0176C50.1218 46.3601 49.7874 46.5835 49.4167 46.5835C48.9105 46.5835 48.5 46.1731 48.5 45.6669ZM59.5001 51.1669C59.5001 50.7961 59.7235 50.4618 60.066 50.3202C60.4086 50.1782 60.8027 50.2564 61.065 50.5187C61.3273 50.781 61.4055 51.1751 61.2635 51.5176C61.1219 51.8601 60.7875 52.0836 60.4168 52.0836C59.9105 52.0836 59.5001 51.6731 59.5001 51.1669ZM52.1667 51.1669C52.1667 50.7961 52.3901 50.4618 52.7327 50.3202C53.0752 50.1782 53.4693 50.2564 53.7316 50.5187C53.9939 50.781 54.0721 51.1751 53.9301 51.5176C53.7885 51.8601 53.4541 52.0836 53.0834 52.0836C52.5772 52.0836 52.1667 51.6731 52.1667 51.1669ZM63.1668 45.6669C63.1668 45.2961 63.3902 44.9617 63.7327 44.8202C64.0753 44.6782 64.4693 44.7563 64.7317 45.0186C64.994 45.2809 65.0721 45.675 64.9301 46.0176C64.7885 46.3601 64.4542 46.5835 64.0835 46.5835C63.5772 46.5835 63.1668 46.1731 63.1668 45.6669ZM33.8332 69.5004H31.0832V42.0002H33.8332V48.4169C33.8332 48.9231 34.2437 49.3335 34.7499 49.3335C35.2561 49.3335 35.6666 48.9231 35.6666 48.4169V42.0002H38.4166C38.7342 42.0002 39.0292 41.8356 39.1962 41.5652C39.3632 41.2951 39.3783 40.9579 39.2367 40.6734C37.7803 37.6849 36.6676 34.5403 35.9207 31.3009C35.7857 30.6923 35.446 30.1485 34.9587 29.7601C34.4709 29.3718 33.8648 29.1622 33.2415 29.1667H27.0916C26.4684 29.1622 25.8623 29.3717 25.3744 29.7601C24.8871 30.1485 24.5474 30.6923 24.4123 31.3009C23.6655 34.5403 22.5528 37.6849 21.0964 40.6734C20.9548 40.9579 20.9699 41.2951 21.1369 41.5652C21.3039 41.8356 21.5989 42.0002 21.9165 42.0002H29.2499V69.5004H26.4999C25.7706 69.5012 25.0716 69.7913 24.556 70.3065C24.0408 70.8222 23.7506 71.5212 23.7498 72.2504V74.0838C23.7498 74.3268 23.8464 74.5601 24.0183 74.732C24.1901 74.9038 24.4234 75.0004 24.6665 75.0004H35.6666C35.9096 75.0004 36.1429 74.9038 36.3148 74.732C36.4866 74.5601 36.5832 74.3268 36.5832 74.0838V72.2504C36.5824 71.5212 36.2923 70.8222 35.777 70.3065C35.2614 69.7913 34.5624 69.5012 33.8332 69.5004H33.8332ZM26.2008 31.702C26.2953 31.2874 26.6665 30.9948 27.0916 31.0002H33.2415C33.6667 30.9948 34.0379 31.2874 34.1324 31.702C34.7986 34.6092 35.7476 37.4442 36.9655 40.1669H23.3673C24.5852 37.4443 25.5342 34.6092 26.2004 31.702H26.2008ZM34.7499 73.167H25.5832V72.2504C25.5836 71.7442 25.9936 71.3341 26.4999 71.3337H33.8332C34.3394 71.3341 34.7495 71.7442 34.7499 72.2504V73.167ZM47.5833 34.6668H65.9168C66.1599 34.6668 66.3931 34.5702 66.565 34.3983C66.7369 34.2264 66.8335 33.9932 66.8335 33.7501V20.9167C66.8335 20.6736 66.7369 20.4403 66.565 20.2685C66.3931 20.0966 66.1599 20 65.9168 20H47.5833C47.3403 20 47.107 20.0966 46.9351 20.2685C46.7632 20.4403 46.6667 20.6736 46.6667 20.9167V33.7501C46.6667 33.9932 46.7632 34.2264 46.9351 34.3983C47.107 34.5702 47.3403 34.6668 47.5833 34.6668ZM48.5 29.5461L52.1667 25.8794L59.1207 32.8334H48.4999L48.5 29.5461ZM61.7127 32.8334L58.9627 30.0834L61.3333 27.7127L65 31.3794V32.8334H61.7127ZM65 21.8333V28.7874L61.9816 25.7685C61.8097 25.5967 61.5765 25.5001 61.3334 25.5001C61.0903 25.5001 60.857 25.5967 60.6852 25.7685L57.6667 28.7874L52.815 23.9352C52.6431 23.7633 52.4098 23.6667 52.1668 23.6667C51.9237 23.6667 51.6904 23.7633 51.5185 23.9352L48.5001 26.954V21.8333H65ZM56.75 24.5834C56.75 24.2126 56.9734 23.8783 57.3159 23.7367C57.6584 23.5947 58.0525 23.6728 58.3149 23.9351C58.5772 24.1975 58.6553 24.5915 58.5133 24.9341C58.3717 25.2766 58.0374 25.5 57.6666 25.5C57.1604 25.5 56.75 25.0896 56.75 24.5834Z" fill="#269385"/>
</svg>
