<svg width="71" height="71" viewBox="0 0 71 71" fill="none" xmlns="http://www.w3.org/2000/svg">
<rect width="71" height="71" rx="10" fill="#0E8778"/>
<path d="M23.5505 43.0961C23.5505 43.5863 23.1521 43.9847 22.6604 43.9847C22.1702 43.9847 21.7695 43.5863 21.7695 43.0961C21.7695 42.6044 22.1702 42.207 22.6604 42.207C23.1517 42.207 23.5505 42.6037 23.5505 43.0961Z" fill="white"/>
<path d="M23.4201 35.7535C23.4201 36.2088 23.0508 36.577 22.5952 36.577C22.141 36.577 21.7695 36.2088 21.7695 35.7535C21.7695 35.2975 22.1407 34.9297 22.5952 34.9297C23.0508 34.9297 23.4201 35.2975 23.4201 35.7535Z" fill="white"/>
<path d="M23.8949 51.0241C23.8916 51.6119 23.416 52.0866 22.8303 52.0836C22.2425 52.0821 21.7705 51.6043 21.7705 51.0194C21.7727 50.433 22.252 49.9588 22.8358 49.9609C23.4229 49.9631 23.8949 50.4388 23.8949 51.024" fill="white"/>
<path d="M48.4103 29.8852C48.4329 29.8852 48.4548 29.8877 48.4773 29.8885V24.6585C48.4773 23.1103 47.219 21.8516 45.6704 21.8516H19.8066C18.2591 21.8516 17 23.111 17 24.6585V56.1939C17 57.7414 18.2587 58.9997 19.8066 58.9997H45.6704C47.219 58.9997 48.4773 57.7414 48.4773 56.1939V41.8308C48.4595 41.8311 48.4424 41.8341 48.4234 41.8341C47.7398 41.8341 47.0853 41.7124 46.4724 41.499V56.1949C46.4724 56.6367 46.1133 56.9958 45.6704 56.9958H19.8065C19.3655 56.9958 19.0046 56.6367 19.0046 56.1949V29.5535H46.4721V30.2145C47.0817 30.0051 47.7319 29.8857 48.4104 29.8857L48.4103 29.8852ZM19.8063 23.8561H45.6701C46.113 23.8561 46.4721 24.216 46.4721 24.6585V27.4643L19.0036 27.4647V24.6588C19.0036 24.216 19.3646 23.8561 19.8056 23.8561L19.8063 23.8561Z" fill="white"/>
<path d="M48.409 41.8222C47.7298 41.8222 47.0796 41.7027 46.4707 41.4922V41.4973C47.0837 41.7104 47.7389 41.8324 48.4218 41.8324C48.44 41.8324 48.4571 41.8298 48.4757 41.8291V41.8182C48.4535 41.8185 48.4316 41.8222 48.409 41.8222H48.409Z" fill="white"/>
<path d="M48.4243 31.4102C45.9652 31.4102 43.9639 33.4111 43.9639 35.8713C43.9639 38.3301 45.9652 40.3314 48.4243 40.3314C50.8842 40.3314 52.8855 38.3301 52.8855 35.8713C52.8851 33.4111 50.8838 31.4102 48.4243 31.4102ZM51.2389 34.2714L47.9006 38.2219C47.7866 38.3545 47.6223 38.4299 47.4486 38.4277C47.4304 38.4277 47.4111 38.4273 47.3933 38.4252C47.2399 38.408 47.0993 38.3308 47.0017 38.2106L45.7106 36.5983C45.5085 36.3477 45.5482 35.9817 45.7995 35.7803C46.0508 35.5789 46.4172 35.6193 46.6175 35.8703L47.4668 36.9301L50.3487 33.52C50.5556 33.2753 50.9231 33.244 51.1686 33.4523C51.4155 33.6584 51.4457 34.0256 51.2389 34.2714L51.2389 34.2714Z" fill="white"/>
<path d="M41.0818 16.5868H35.8693C35.9713 16.2564 36.0266 15.9079 36.0266 15.5455C36.0266 13.5908 34.4354 12 32.4804 12C30.5256 12 28.9355 13.5908 28.9355 15.5459C28.9355 15.9105 29.0061 16.2543 29.1089 16.5871L23.5493 16.5868C22.6172 16.5868 21.8564 17.325 21.8564 18.2362V20.3245H42.775V18.2362C42.775 17.325 42.0149 16.5868 41.0818 16.5868L41.0818 16.5868ZM32.4818 16.2025C31.839 16.2025 31.3138 15.6825 31.3138 15.0392C31.3138 14.3946 31.839 13.8738 32.4818 13.8738C33.125 13.8738 33.6465 14.3942 33.6465 15.0392C33.6469 15.6824 33.1253 16.2025 32.4818 16.2025Z" fill="white"/>
<path d="M42.0783 35.0352H25.664C25.3075 35.0352 25.0176 35.3156 25.0176 35.6601V35.7548C25.0176 36.1001 25.3075 36.3802 25.664 36.3802H42.0783C42.4327 36.3802 42.7212 36.0997 42.7212 35.7552V35.6601C42.7212 35.3156 42.4323 35.0352 42.0783 35.0352Z" fill="white"/>
<path d="M42.0783 42.4219H25.664C25.3075 42.4219 25.0176 42.7023 25.0176 43.0468V43.1419C25.0176 43.4864 25.3075 43.7669 25.664 43.7669H42.0783C42.4327 43.7669 42.7212 43.4864 42.7212 43.1419V43.0468C42.7212 42.7023 42.4323 42.4219 42.0783 42.4219Z" fill="white"/>
<path d="M42.0783 50.3438H25.664C25.3075 50.3438 25.0176 50.6242 25.0176 50.9687V51.0638C25.0176 51.4083 25.3075 51.6888 25.664 51.6888H42.0783C42.4327 51.6888 42.7212 51.4083 42.7212 51.0638V50.9687C42.7212 50.6242 42.4323 50.3438 42.0783 50.3438Z" fill="white"/>
</svg>
