<svg width="136" height="136" viewBox="0 0 136 136" fill="none" xmlns="http://www.w3.org/2000/svg">
<path fill-rule="evenodd" clip-rule="evenodd" d="M93.7001 10.5921C99.0348 9.16268 104.518 12.3285 105.948 17.6632L125.411 90.3008C126.84 95.6354 123.674 101.119 118.34 102.548L45.7021 122.011C40.3674 123.441 34.884 120.275 33.4546 114.94L13.9914 42.3027C12.562 36.9681 15.7278 31.4847 21.0625 30.0553L93.7001 10.5921Z" fill="#B7DBD7"/>
<path fill-rule="evenodd" clip-rule="evenodd" d="M60.9289 7.75467C64.8342 3.84942 71.1658 3.84942 75.0711 7.75466L128.245 60.9291C132.151 64.8343 132.151 71.166 128.245 75.0712L75.0711 128.246C71.1658 132.151 64.8342 132.151 60.9289 128.246L7.75451 75.0712C3.84927 71.166 3.84926 64.8343 7.75451 60.9291L60.9289 7.75467Z" fill="white"/>
<path d="M91.317 41H44.1474C42.9632 41 42 41.9043 42 43.0162V87.3032C42 88.4151 42.9631 89.3194 44.1474 89.3194H73.1747L76.3106 103.371C76.381 103.688 76.6791 103.905 77.0101 103.905C77.0591 103.905 77.108 103.901 77.1574 103.891C77.5449 103.815 77.792 103.459 77.7111 103.095V103.095L73.6933 85.0915L77.371 84.3682L81.3883 102.371C81.4697 102.735 81.8501 102.967 82.2356 102.891C82.622 102.815 82.8702 102.459 82.7893 102.095L79.9383 89.3195L91.3166 89.3205C92.5009 89.3205 93.464 88.4162 93.464 87.3043L93.4635 43.0173C93.4635 41.9058 92.5004 41.0011 91.3166 41.0011L91.317 41ZM77.2763 83.0141L73.2026 83.8152C73.0134 83.8527 72.8237 83.818 72.6644 83.72C72.5042 83.6216 72.3948 83.4711 72.3554 83.2953L70.7731 76.2032L76.2478 75.1264L77.8305 82.2185C77.9109 82.5809 77.6623 82.9376 77.2763 83.0141L77.2763 83.0141ZM87.7104 66.7677L88.7224 71.2993L57.7115 77.399L56.701 72.8678L87.7104 66.7677ZM57.212 67.6236C57.6304 67.0227 58.273 66.6102 59.0219 66.463L82.8457 61.7766C83.0429 61.7377 83.2391 61.7194 83.4328 61.7194C84.7589 61.7194 85.9527 62.5909 86.2353 63.8566L86.6258 65.6084L57.1985 71.3973L56.8076 69.6454C56.6508 68.9423 56.7946 68.2246 57.213 67.6236L57.212 67.6236ZM92.0318 87.3022C92.0318 87.673 91.7108 87.9744 91.3159 87.9744L79.6381 87.974L78.6915 83.732C78.7759 83.6471 78.8563 83.5571 78.9257 83.4578C79.2397 83.0077 79.3481 82.4686 79.2297 81.9417L77.647 74.8496L89.0142 72.6135C89.7866 72.4612 90.2834 71.7477 90.1217 71.022L89.1101 66.4908C88.9938 65.9714 88.5714 65.5889 88.0561 65.4671L87.6352 63.5794C87.1499 61.4033 84.8707 60.0021 82.5515 60.4597L58.7278 65.146C57.6049 65.3668 56.6408 65.9851 56.0132 66.8866C55.3856 67.788 55.1694 68.8653 55.4051 69.9191L55.8265 71.8078C55.4081 72.1134 55.1829 72.623 55.2982 73.1419L56.3088 77.6731C56.3877 78.0247 56.6068 78.3266 56.9274 78.523C57.1631 78.6674 57.4322 78.7414 57.7073 78.7414C57.8056 78.7414 57.905 78.732 58.0038 78.7124L69.3706 76.4768L70.9528 83.5689C71.1016 84.2355 71.5904 84.7502 72.2105 85.001L72.8736 87.9726L44.1467 87.974C43.7523 87.974 43.4308 87.6726 43.4308 87.3018L43.4313 43.016C43.4313 42.6457 43.7523 42.3438 44.1472 42.3438L91.3168 42.3443C91.7117 42.3443 92.0327 42.6457 92.0327 43.0165L92.0318 87.3022ZM48.2661 53.0321C48.0829 53.0321 47.8996 52.9665 47.7598 52.8352C47.4802 52.5727 47.4802 52.1476 47.7598 51.885L53.7538 46.2574C54.0334 45.9948 54.4862 45.9948 54.7658 46.2574C55.0454 46.5199 55.0454 46.9451 54.7658 47.2076L48.7719 52.8352C48.6326 52.9665 48.4493 53.0321 48.2661 53.0321H48.2661ZM59.6523 47.7856C59.9319 48.0481 59.9319 48.4733 59.6523 48.7358L49.4879 58.279C49.3481 58.4103 49.1649 58.4759 48.9816 58.4759C48.7984 58.4759 48.6151 58.4103 48.4754 58.279C48.1958 58.0165 48.1958 57.5913 48.4754 57.3288L58.6397 47.7856C58.9198 47.5231 59.3727 47.5231 59.6523 47.7856H59.6523ZM88.7395 78.1363C88.7395 78.5076 88.4195 78.8085 88.0236 78.8085H86.5133V80.2265C86.5133 80.5978 86.1932 80.8987 85.7973 80.8987C85.4019 80.8987 85.0813 80.5982 85.0813 80.2265V78.8085H83.571C83.1756 78.8085 82.8551 78.508 82.8551 78.1363C82.8551 77.765 83.1751 77.4641 83.571 77.4641H85.0813V76.0451C85.0813 75.6738 85.4014 75.3729 85.7973 75.3729C86.1927 75.3729 86.5133 75.6734 86.5133 76.0451V77.4641H88.0236C88.4195 77.4645 88.7395 77.765 88.7395 78.1363ZM75.4019 57.4125C75.4019 57.7837 75.0818 58.0847 74.6859 58.0847H73.1746V59.5032C73.1746 59.8744 72.8545 60.1754 72.4586 60.1754C72.0632 60.1754 71.7426 59.8744 71.7426 59.5032V58.0847H70.2323C69.8369 58.0847 69.5164 57.7837 69.5164 57.4125C69.5164 57.0412 69.8364 56.7402 70.2323 56.7402H71.7426V55.3218C71.7426 54.9505 72.0627 54.6495 72.4586 54.6495C72.854 54.6495 73.1746 54.9505 73.1746 55.3218V56.7402H74.6859C75.0818 56.7407 75.4019 57.0417 75.4019 57.4125ZM89.3761 56.3066C89.3761 56.6779 89.056 56.9789 88.6601 56.9789H87.1567V58.3908C87.1567 58.7621 86.8367 59.0631 86.4407 59.0631C86.0453 59.0631 85.7248 58.7621 85.7248 58.3908V56.9789H84.2204C83.8249 56.9789 83.5044 56.6779 83.5044 56.3066C83.5044 55.9354 83.8244 55.6344 84.2204 55.6344H85.7248V54.2224C85.7248 53.8511 86.0448 53.5502 86.4407 53.5502C86.8362 53.5502 87.1567 53.8511 87.1567 54.2224V55.6344H88.6601C89.056 55.6344 89.3761 55.9354 89.3761 56.3066Z" fill="#0E8778"/>
</svg>
