<svg width="96" height="96" viewBox="0 0 96 96" fill="none" xmlns="http://www.w3.org/2000/svg">
<circle cx="47.9389" cy="47.7221" r="47.3862" fill="#E7F3F2"/>
<path d="M48.5 13C38.9742 13 30.3447 16.8652 24.1049 23.1049C17.8652 29.3446 14 37.9736 14 47.5C14 66.5541 29.4459 82 48.5 82C58.0258 82 66.6553 78.1348 72.8951 71.8951C79.1343 65.6559 83 57.0264 83 47.5C83 28.4459 67.5541 13 48.5 13ZM63.8408 70.4477C59.4528 73.3872 54.1782 75.0996 48.5 75.0996C33.2564 75.0996 20.9 62.7428 20.9 47.4996C20.9 41.8212 22.6124 36.5466 25.5519 32.1588C26.1295 31.2965 27.3444 31.223 28.0781 31.9571L64.0424 67.9214C64.7765 68.6545 64.703 69.8695 63.8412 70.4471L63.8408 70.4477ZM71.4479 62.8406C70.8699 63.7024 69.6555 63.7763 68.9218 63.0422L32.9575 27.0779C32.2239 26.3443 32.2973 25.1294 33.1591 24.5518C37.5471 21.6117 42.8217 19.8993 48.5 19.8993C63.7435 19.8993 76.1 32.2561 76.1 47.4993C76.1 53.1777 74.3875 58.4528 71.448 62.8401L71.4479 62.8406Z" fill="#269385"/>
<path d="M66.7045 47.713H61.2478V38.8159C61.2472 38.2103 61.0064 37.6295 60.578 37.2012C60.1499 36.7728 59.5692 36.5317 58.9636 36.5311H57.6887V31.9346C57.6882 31.5569 57.5381 31.1948 57.2707 30.928C57.0036 30.6608 56.6415 30.5105 56.2638 30.5102H53.0014C52.6237 30.5105 52.2617 30.6608 51.9942 30.928C51.7271 31.1948 51.5768 31.5568 51.5765 31.9346V36.5308H50.3613V36.5311C49.7553 36.5317 49.1746 36.7725 48.7462 37.2009C48.3178 37.6293 48.0767 38.2103 48.0762 38.8159V47.713H45.7645C45.7625 46.5703 45.823 45.1643 45.5214 44.0494L44.0447 38.7383V34.5147C44.0321 34.3982 43.9954 34.2857 43.9371 34.184L40.2013 29.0233C40.0952 28.8766 39.9253 28.7895 39.7444 28.7895H35.3192C35.3176 28.7889 35.3159 28.7889 35.3142 28.7895H32.3857C31.0775 28.7895 30.0132 29.8143 30.0132 31.0743C30.0423 31.4341 29.8793 32.1473 30.3047 32.3399L32.025 33.2894C32.0488 33.2995 32.0732 33.3079 32.0981 33.3143C32.1138 33.3205 32.1258 33.3325 32.1423 33.3373L33.1909 33.6377L31.7548 38.6607C31.7134 38.8096 31.7344 38.969 31.813 39.102C31.8917 39.235 32.0211 39.3302 32.1717 39.3657L34.3827 39.8734C34.5949 39.9221 34.8161 39.8445 34.9516 39.674L37.7547 36.1364V38.5959L33.6465 43.0597H33.6463C33.163 43.4845 32.8846 44.0963 32.8818 44.74V47.7128H30.5774C30.2658 47.7128 30.013 47.9654 30.013 48.2773C30.0146 49.9949 30.0116 53.4445 30.013 55.1587C30.0158 57.5888 30.9823 59.9187 32.7007 61.6371C34.4191 63.3558 36.749 64.3224 39.1792 64.3249H58.6964C59.6205 65.4205 60.9824 66.0505 62.4155 66.0452C68.0696 65.847 69.0482 58.2549 63.8284 56.5339V52.3425H64.9842C65.5901 52.3416 66.1709 52.1008 66.5993 51.6724C67.0277 51.244 67.2685 50.6633 67.2693 50.0574V48.2777C67.2693 48.1279 67.21 47.9842 67.1041 47.8784C66.9983 47.7726 66.8546 47.7129 66.7048 47.7129L66.7045 47.713ZM52.7052 31.9346C52.7055 31.7713 52.838 31.6391 53.0012 31.6391H56.2635C56.4268 31.6391 56.5592 31.7713 56.5595 31.9346V36.5308L52.7052 36.5311L52.7052 31.9346ZM49.2055 38.8159H49.2052C49.2058 38.5096 49.3276 38.2159 49.5443 37.9991C49.761 37.7824 50.0547 37.6603 50.3611 37.66H52.1408H58.9631H58.9634C59.2697 37.6603 59.5634 37.7824 59.7802 37.9991C59.9966 38.2158 60.1184 38.5096 60.1187 38.8159V47.713H57.807V40.5363C57.807 40.2246 57.5544 39.9718 57.2425 39.9718H52.0818C51.7701 39.9718 51.5173 40.2246 51.5173 40.5363V47.713H49.2053L49.2055 38.8159ZM56.6782 41.101V47.7133H52.6462V41.101H56.6782ZM32.1727 32.0814L31.1414 31.5125V31.0748C31.1414 30.4375 31.6992 29.919 32.3849 29.919H34.07L32.1727 32.0814ZM34.2873 38.6937L33.0037 38.3994L34.2758 33.949L37.3513 34.8266L34.2873 38.6937ZM34.0459 32.7086H34.0442L33.3089 32.4981L35.5719 29.9187H39.4555L42.3746 33.9505H38.3978L34.0459 32.7086ZM42.915 35.0797V38.2516H38.8823V35.0797H42.915ZM34.0093 44.7409C34.0169 44.3911 34.1804 44.0635 34.4548 43.8471L38.5656 39.3807H43.0506L44.4277 44.3314C44.6968 45.3114 44.6293 46.6975 44.6349 47.7133H34.0096L34.0093 44.7409ZM39.1785 63.1973V63.197C37.0476 63.1945 35.0047 62.3469 33.498 60.8402C31.9913 59.3334 31.1437 57.2905 31.1412 55.1598V52.3441H62.6988V56.3168C60.3134 56.1401 57.692 58.0094 57.5458 61.0116C57.5105 61.7628 57.6536 62.5116 57.963 63.197L39.1785 63.1973ZM66.0896 61.5486C65.9275 63.1914 64.7212 64.87 62.4048 64.9179C60.2745 64.9621 58.4436 62.9766 58.6821 60.8516V60.8514C58.8014 59.8327 59.3124 58.9 60.1071 58.2515C62.8444 56.0924 66.5368 58.5645 66.0896 61.5482V61.5486ZM66.1397 50.0589V50.0586C66.1395 50.3652 66.0174 50.6589 65.8007 50.8756C65.5839 51.0923 65.2902 51.2141 64.9836 51.2147H31.1416V48.8431H66.1399L66.1397 50.0589Z" fill="#269385"/>
<path d="M62.4044 58.9375C61.3107 58.9375 60.184 59.7022 60.1465 61.1915C60.1834 62.6526 61.3104 63.4167 62.4044 63.417C63.4984 63.4173 64.6249 62.6523 64.6624 61.1915V61.163C64.6254 59.7016 63.4984 58.9378 62.4044 58.9375V58.9375ZM63.5334 61.1773C63.4819 62.6748 61.3281 62.6714 61.2755 61.1916C61.3183 59.6787 63.4752 59.672 63.5334 61.1773Z" fill="#269385"/>
</svg>
