<svg width="64" height="64" viewBox="0 0 64 64" fill="none" xmlns="http://www.w3.org/2000/svg">
<path fill-rule="evenodd" clip-rule="evenodd" d="M38.8974 6.63312C44.2301 5.19669 49.7063 8.35834 51.1288 13.6949L57.4362 37.3584C58.8586 42.6949 55.6887 48.1855 50.3559 49.6219L26.9038 55.939C21.571 57.3754 16.0948 54.2138 14.6724 48.8772L8.36497 25.2137C6.94254 19.8772 10.1125 14.3866 15.4453 12.9502L38.8974 6.63312Z" fill="#B7DBD7"/>
<path fill-rule="evenodd" clip-rule="evenodd" d="M25.0569 7.69996C28.9519 3.78448 35.2669 3.78447 39.1619 7.69995L56.3621 24.9907C60.2571 28.9062 60.2571 35.2545 56.3622 39.17L39.1619 56.4608C35.2669 60.3762 28.9519 60.3762 25.0569 56.4608L7.8566 39.17C3.96162 35.2545 3.96161 28.9062 7.85659 24.9908L25.0569 7.69996Z" fill="#3E9F93"/>
<path d="M44.754 35.7302L40.9977 31.9739C40.9196 31.8958 40.8136 31.852 40.7031 31.852H39.2063L37.7815 30.4272V27.2609H38.1989V26.4262H34.8599V27.2609H35.2773V27.923L32.2335 24.8792V24.879C32.0704 24.7161 31.8062 24.7161 31.6432 24.879L24.6705 31.8522H23.1737C23.063 31.8522 22.9568 31.8961 22.8786 31.9744L19.1222 35.7307C19.044 35.809 19 35.9152 19 36.0259V43.1212C19 43.2319 19.044 43.3381 19.1222 43.4163C19.2005 43.4946 19.3067 43.5385 19.4174 43.5385H44.4596C44.5703 43.5385 44.6765 43.4946 44.7548 43.4163C44.833 43.3381 44.877 43.2319 44.877 43.1212V36.0259C44.877 35.915 44.8328 35.8086 44.7542 35.7304L44.754 35.7302ZM19.8344 36.4431H25.6775V41.4515H19.8344V36.4431ZM26.5123 32.8595L31.9381 27.4336L37.3639 32.8595V36.8605H26.5123V32.8595ZM38.1987 36.4431H44.0419V41.4515H38.1987V36.4431ZM40.5302 32.6867L43.4518 35.6083H38.1986V33.6942L38.7382 34.2338V34.234C38.9012 34.3968 39.1654 34.3968 39.3285 34.234L40.1632 33.3992C40.3261 33.2362 40.3261 32.972 40.1632 32.8089L40.0408 32.6867L40.5302 32.6867ZM36.1118 27.2609H36.9466V29.5924L36.1118 28.7577V27.2609ZM31.9381 25.7642L39.2781 33.1042L39.0335 33.3488L32.2334 26.5483C32.0704 26.3854 31.8062 26.3854 31.6431 26.5483L24.8431 33.3488L24.5984 33.1042L31.9381 25.7642ZM23.346 32.6868H23.8351L23.7129 32.809C23.55 32.9721 23.55 33.2363 23.7129 33.3993L24.5476 34.234C24.7106 34.3969 24.9749 34.3969 25.1379 34.234L25.6775 33.6943V35.6084H20.4243L23.346 32.6868ZM19.8343 42.7037V42.2863H25.6775V42.7037H19.8343ZM31.1033 42.7037V38.9474H32.7728V42.7037H31.1033ZM33.6075 42.7037V38.53C33.6075 38.4193 33.5636 38.3131 33.4853 38.2348C33.4071 38.1566 33.3008 38.1126 33.1902 38.1126H30.6859C30.4555 38.1126 30.2686 38.2995 30.2686 38.53V42.7037H26.5122V37.6952H37.3639V42.7037H33.6075ZM38.1986 42.7037V42.2863H44.0418V42.7037H38.1986Z" fill="white"/>
<path d="M30.2685 32.6865H27.7643C27.5338 32.6865 27.3469 32.8734 27.3469 33.1039V35.6081C27.3469 35.7188 27.3909 35.825 27.4692 35.9033C27.5474 35.9815 27.6536 36.0255 27.7643 36.0255H30.2685C30.3792 36.0255 30.4854 35.9815 30.5637 35.9033C30.6419 35.825 30.6859 35.7188 30.6859 35.6081V33.1039C30.6859 32.9932 30.6419 32.887 30.5637 32.8088C30.4854 32.7305 30.3792 32.6865 30.2685 32.6865ZM29.8511 35.1907H28.1817V33.5213H29.8511V35.1907Z" fill="white"/>
<path d="M24.0078 37.2783H21.5036C21.2731 37.2783 21.0862 37.4652 21.0862 37.6957V40.1999C21.0862 40.3106 21.1302 40.4168 21.2084 40.4951C21.2867 40.5733 21.3929 40.6173 21.5036 40.6173H24.0078C24.1185 40.6173 24.2247 40.5733 24.3029 40.4951C24.3812 40.4168 24.4251 40.3106 24.4251 40.1999V37.6957C24.4251 37.585 24.3812 37.4788 24.3029 37.4006C24.2247 37.3223 24.1185 37.2783 24.0078 37.2783ZM23.5904 39.7825H21.9209V38.1131H23.5904V39.7825Z" fill="white"/>
<path d="M36.1118 32.6865H33.6076C33.3771 32.6865 33.1902 32.8734 33.1902 33.1039V35.6081C33.1902 35.7188 33.2342 35.825 33.3124 35.9033C33.3907 35.9815 33.4969 36.0255 33.6076 36.0255H36.1118C36.2225 36.0255 36.3287 35.9815 36.4069 35.9033C36.4852 35.825 36.5292 35.7188 36.5292 35.6081V33.1039C36.5292 32.9932 36.4852 32.887 36.4069 32.8088C36.3287 32.7305 36.2225 32.6865 36.1118 32.6865ZM35.6944 35.1907H34.0249V33.5213H35.6944V35.1907Z" fill="white"/>
<path d="M42.3725 37.2783H39.8683C39.6378 37.2783 39.4509 37.4652 39.4509 37.6957V40.1999C39.4509 40.3106 39.4949 40.4168 39.5732 40.4951C39.6514 40.5733 39.7576 40.6173 39.8683 40.6173H42.3725C42.4832 40.6173 42.5894 40.5733 42.6677 40.4951C42.7459 40.4168 42.7899 40.3106 42.7899 40.1999V37.6957C42.7899 37.585 42.7459 37.4788 42.6677 37.4006C42.5894 37.3223 42.4832 37.2783 42.3725 37.2783ZM41.9552 39.7825H40.2857V38.1131H41.9552V39.7825Z" fill="white"/>
<path d="M33.19 29.3477C33.19 29.237 33.146 29.1308 33.0678 29.0526L32.233 28.2178C32.07 28.055 31.8058 28.055 31.6428 28.2178L30.808 29.0526C30.7298 29.1308 30.6858 29.237 30.6858 29.3477V30.5998C30.6858 30.7105 30.7298 30.8167 30.808 30.895C30.8863 30.9732 30.9925 31.0172 31.1032 31.0172H32.7726C32.8833 31.0172 32.9895 30.9732 33.0678 30.895C33.146 30.8167 33.19 30.7105 33.19 30.5998V29.3477ZM32.3553 30.1825H31.5205V29.5204L31.9379 29.1031L32.3553 29.5204V30.1825Z" fill="white"/>
<path d="M22.3387 24.7568H21.504C21.504 25.1995 21.3281 25.6242 21.015 25.9374C20.7018 26.2504 20.2772 26.4263 19.8345 26.4263V27.2611C20.2772 27.2611 20.7018 27.437 21.015 27.75C21.3281 28.0632 21.504 28.4878 21.504 28.9305H22.3387C22.3387 28.4878 22.5146 28.0632 22.8276 27.75C23.1408 27.437 23.5655 27.2611 24.0082 27.2611V26.4263C23.5655 26.4263 23.1408 26.2504 22.8276 25.9374C22.5146 25.6242 22.3387 25.1995 22.3387 24.7568ZM21.9213 27.5491C21.7356 27.2693 21.4958 27.0294 21.2159 26.8437C21.4958 26.6579 21.7356 26.4181 21.9213 26.1383C22.1071 26.4181 22.3469 26.6579 22.6268 26.8437C22.3469 27.0295 22.1071 27.2693 21.9213 27.5491Z" fill="white"/>
<path d="M25.2601 25.1737H26.0948C26.0948 24.731 26.2707 24.3063 26.5837 23.9931C26.8969 23.6801 27.3216 23.5042 27.7643 23.5042V22.6695C27.3216 22.6695 26.8969 22.4936 26.5837 22.1806C26.2707 21.8673 26.0948 21.4427 26.0948 21H25.2601C25.2601 21.4427 25.0842 21.8674 24.7711 22.1806C24.4579 22.4936 24.0333 22.6695 23.5906 22.6695V23.5042C24.0333 23.5042 24.4579 23.6801 24.7711 23.9931C25.0842 24.3064 25.2601 24.731 25.2601 25.1737ZM25.6774 22.3814C25.8632 22.6613 26.103 22.9011 26.3829 23.0869C26.103 23.2726 25.8632 23.5124 25.6774 23.7923C25.4917 23.5124 25.2519 23.2726 24.972 23.0869C25.2519 22.9011 25.4917 22.6613 25.6774 22.3814Z" fill="white"/>
<path d="M41.5376 28.9305H42.3724C42.3724 28.4878 42.5483 28.0632 42.8613 27.75C43.1745 27.437 43.5992 27.2611 44.0419 27.2611V26.4263C43.5992 26.4263 43.1745 26.2504 42.8613 25.9374C42.5483 25.6242 42.3724 25.1995 42.3724 24.7568H41.5376C41.5376 25.1995 41.3618 25.6242 41.0487 25.9374C40.7355 26.2504 40.3109 26.4263 39.8682 26.4263V27.2611C40.3109 27.2611 40.7355 27.437 41.0487 27.75C41.3618 28.0632 41.5376 28.4878 41.5376 28.9305ZM41.955 26.1383C42.1408 26.4181 42.3806 26.6579 42.6604 26.8437C42.3806 27.0295 42.1408 27.2693 41.955 27.5491C41.7693 27.2693 41.5294 27.0294 41.2496 26.8437C41.5295 26.6579 41.7693 26.4181 41.955 26.1383Z" fill="white"/>
<path d="M37.7813 25.1737H38.616C38.616 24.731 38.7919 24.3063 39.105 23.9931C39.4182 23.6801 39.8428 23.5042 40.2855 23.5042V22.6695C39.8428 22.6695 39.4182 22.4936 39.105 22.1806C38.7919 21.8673 38.616 21.4427 38.616 21H37.7813C37.7813 21.4427 37.6054 21.8674 37.2924 22.1806C36.9792 22.4936 36.5545 22.6695 36.1118 22.6695V23.5042C36.5545 23.5042 36.9792 23.6801 37.2924 23.9931C37.6054 24.3064 37.7813 24.731 37.7813 25.1737ZM38.1987 22.3814C38.3844 22.6613 38.6242 22.9011 38.9041 23.0869C38.6242 23.2726 38.3844 23.5124 38.1987 23.7923C38.0129 23.5124 37.7731 23.2726 37.4932 23.0869C37.7731 22.9011 38.0129 22.6613 38.1987 22.3814Z" fill="white"/>
</svg>
