<svg width="136" height="136" viewBox="0 0 136 136" fill="none" xmlns="http://www.w3.org/2000/svg">
<path fill-rule="evenodd" clip-rule="evenodd" d="M93.7001 10.5921C99.0348 9.16268 104.518 12.3285 105.948 17.6632L125.411 90.3008C126.84 95.6354 123.674 101.119 118.34 102.548L45.7021 122.011C40.3674 123.441 34.884 120.275 33.4546 114.94L13.9914 42.3027C12.562 36.9681 15.7278 31.4847 21.0625 30.0553L93.7001 10.5921Z" fill="#C5ECDC"/>
<path fill-rule="evenodd" clip-rule="evenodd" d="M60.9289 7.75467C64.8342 3.84942 71.1658 3.84942 75.0711 7.75466L128.245 60.9291C132.151 64.8343 132.151 71.166 128.245 75.0712L75.0711 128.246C71.1658 132.151 64.8342 132.151 60.9289 128.246L7.75451 75.0712C3.84927 71.166 3.84926 64.8343 7.75451 60.9291L60.9289 7.75467Z" fill="#3E9F93"/>
<path d="M98.0337 74.3372L89.2775 65.581C89.0955 65.399 88.8484 65.297 88.5908 65.297H85.1018L81.7804 61.9756V54.595H82.7533V52.6492H74.9701V54.595H75.943V56.1382L68.8478 49.043V49.0425C68.4677 48.6629 67.8518 48.6629 67.4718 49.0425L51.2181 65.2973H47.7291C47.4711 65.2973 47.2235 65.3998 47.0411 65.5822L38.2849 74.3384C38.1025 74.5208 38 74.7684 38 75.0264V91.5658C38 91.8238 38.1025 92.0714 38.2849 92.2538C38.4673 92.4362 38.7149 92.5388 38.9729 92.5388H97.3474C97.6054 92.5388 97.853 92.4363 98.0354 92.2538C98.2178 92.0714 98.3203 91.8238 98.3203 91.5658V75.0264C98.3203 74.768 98.2174 74.52 98.0341 74.3376L98.0337 74.3372ZM39.9449 75.9989H53.5656V87.6738H39.9449V75.9989ZM55.5114 67.6454L68.1592 54.9976L80.8071 67.6454V76.9718H55.5114V67.6454ZM82.7529 75.9989H96.3736V87.6738H82.7529V75.9989ZM88.1877 67.2428L94.9981 74.0531H82.7528V69.5912L84.0105 70.849V70.8494C84.3906 71.229 85.0065 71.229 85.3865 70.8494L87.3323 68.9036C87.7119 68.5235 87.7119 67.9077 87.3323 67.5276L87.047 67.2427L88.1877 67.2428ZM77.8883 54.5949H79.8341V60.0298L77.8883 58.084V54.5949ZM68.1592 51.1059L85.2691 68.2158L84.6988 68.7861L68.8476 52.9338C68.4676 52.5542 67.8517 52.5542 67.4717 52.9338L51.6205 68.7861L51.0502 68.2158L68.1592 51.1059ZM48.1307 67.2429H49.2708L48.9859 67.5278C48.6063 67.9078 48.6063 68.5237 48.9859 68.9038L50.9317 70.8496C51.3118 71.2292 51.9276 71.2292 52.3077 70.8496L53.5655 69.5914V74.0533H41.3202L48.1307 67.2429ZM39.9448 90.5927V89.6198H53.5655V90.5927H39.9448ZM66.2133 90.5927V81.8365H70.1049V90.5927H66.2133ZM72.0508 90.5927V80.8636C72.0508 80.6056 71.9483 80.358 71.7658 80.1756C71.5834 79.9932 71.3359 79.8907 71.0779 79.8907H65.2404C64.7031 79.8907 64.2675 80.3263 64.2675 80.8636V90.5927H55.5113V78.9178H80.8069V90.5927H72.0508ZM82.7528 90.5927V89.6198H96.3735V90.5927H82.7528Z" fill="white"/>
<path d="M64.2674 67.2422H58.4299C57.8927 67.2422 57.457 67.6778 57.457 68.2151V74.0525C57.457 74.3105 57.5595 74.5581 57.742 74.7405C57.9244 74.9229 58.1719 75.0255 58.4299 75.0255H64.2674C64.5254 75.0255 64.773 74.923 64.9554 74.7405C65.1378 74.5581 65.2403 74.3105 65.2403 74.0525V68.2151C65.2403 67.9571 65.1378 67.7095 64.9554 67.5271C64.773 67.3447 64.5254 67.2422 64.2674 67.2422ZM63.2945 73.0796H59.4028V69.188H63.2945V73.0796Z" fill="white"/>
<path d="M49.6736 77.9453H43.8362C43.2989 77.9453 42.8633 78.381 42.8633 78.9182V84.7557C42.8633 85.0137 42.9658 85.2612 43.1482 85.4437C43.3306 85.6261 43.5782 85.7286 43.8362 85.7286H49.6736C49.9316 85.7286 50.1792 85.6261 50.3616 85.4437C50.544 85.2612 50.6465 85.0137 50.6465 84.7557V78.9182C50.6465 78.6602 50.544 78.4127 50.3616 78.2302C50.1792 78.0478 49.9316 77.9453 49.6736 77.9453ZM48.7007 83.7828H44.8091V79.8911H48.7007V83.7828Z" fill="white"/>
<path d="M77.8885 67.2422H72.051C71.5138 67.2422 71.0781 67.6778 71.0781 68.2151V74.0525C71.0781 74.3105 71.1806 74.5581 71.363 74.7405C71.5455 74.9229 71.793 75.0255 72.051 75.0255H77.8885C78.1465 75.0255 78.3941 74.923 78.5765 74.7405C78.7589 74.5581 78.8614 74.3105 78.8614 74.0525V68.2151C78.8614 67.9571 78.7589 67.7095 78.5765 67.5271C78.394 67.3447 78.1465 67.2422 77.8885 67.2422ZM76.9156 73.0796H73.0239V69.188H76.9156V73.0796Z" fill="white"/>
<path d="M92.4822 77.9453H86.6448C86.1075 77.9453 85.6719 78.381 85.6719 78.9182V84.7557C85.6719 85.0137 85.7744 85.2612 85.9568 85.4437C86.1392 85.6261 86.3868 85.7286 86.6448 85.7286H92.4822C92.7402 85.7286 92.9878 85.6261 93.1702 85.4437C93.3526 85.2612 93.4551 85.0137 93.4551 84.7557V78.9182C93.4551 78.6602 93.3526 78.4127 93.1702 78.2302C92.9878 78.0478 92.7402 77.9453 92.4822 77.9453ZM91.5093 83.7828H87.6177V79.8911H91.5093V83.7828Z" fill="white"/>
<path d="M71.0777 59.4576C71.0777 59.1996 70.9752 58.952 70.7928 58.7696L68.8469 56.8238C68.4669 56.4442 67.851 56.4442 67.471 56.8238L65.5252 58.7696C65.3427 58.952 65.2402 59.1996 65.2402 59.4576V62.3763C65.2402 62.6343 65.3427 62.8819 65.5252 63.0643C65.7076 63.2467 65.9551 63.3492 66.2131 63.3492H70.1048C70.3628 63.3492 70.6103 63.2467 70.7928 63.0643C70.9752 62.8819 71.0777 62.6343 71.0777 62.3763V59.4576ZM69.1319 61.4034H67.1861V59.8602L68.159 58.8873L69.1319 59.8602V61.4034Z" fill="white"/>
<path d="M45.7828 48.7578H43.8369C43.8369 49.7898 43.4269 50.7797 42.6973 51.5098C41.9671 52.2394 40.9773 52.6494 39.9453 52.6494V54.5953C40.9773 54.5953 41.9672 55.0053 42.6973 55.735C43.4269 56.4651 43.8369 57.4549 43.8369 58.4869H45.7828C45.7828 57.4549 46.1928 56.465 46.9225 55.735C47.6526 55.0053 48.6424 54.5953 49.6744 54.5953V52.6494C48.6424 52.6494 47.6525 52.2394 46.9225 51.5098C46.1928 50.7796 45.7828 49.7898 45.7828 48.7578ZM44.8099 55.2667C44.3768 54.6144 43.8178 54.0553 43.1655 53.6224C43.8178 53.1893 44.3769 52.6303 44.8099 51.978C45.2429 52.6303 45.8019 53.1894 46.4542 53.6224C45.8019 54.0554 45.2428 54.6144 44.8099 55.2667Z" fill="white"/>
<path d="M52.5928 49.7291H54.5386C54.5386 48.6971 54.9486 47.7072 55.6783 46.9771C56.4084 46.2475 57.3983 45.8375 58.4303 45.8375V43.8916C57.3983 43.8916 56.4084 43.4816 55.6783 42.7519C54.9486 42.0218 54.5386 41.0319 54.5386 40H52.5928C52.5928 41.032 52.1828 42.0219 51.4531 42.7519C50.723 43.4816 49.7331 43.8916 48.7012 43.8916V45.8375C49.7331 45.8375 50.723 46.2475 51.4531 46.9771C52.1828 47.7073 52.5928 48.6971 52.5928 49.7291ZM53.5657 43.2202C53.9987 43.8725 54.5577 44.4316 55.2101 44.8645C54.5577 45.2976 53.9987 45.8566 53.5657 46.5089C53.1327 45.8566 52.5737 45.2975 51.9213 44.8645C52.5737 44.4315 53.1327 43.8725 53.5657 43.2202Z" fill="white"/>
<path d="M90.5362 58.4869H92.482C92.482 57.4549 92.892 56.465 93.6217 55.735C94.3518 55.0053 95.3417 54.5953 96.3736 54.5953V52.6494C95.3416 52.6494 94.3517 52.2394 93.6217 51.5098C92.892 50.7796 92.482 49.7898 92.482 48.7578H90.5362C90.5362 49.7898 90.1262 50.7797 89.3965 51.5098C88.6664 52.2394 87.6765 52.6494 86.6445 52.6494V54.5953C87.6765 54.5953 88.6664 55.0053 89.3965 55.735C90.1262 56.4651 90.5362 57.4549 90.5362 58.4869ZM91.5091 51.978C91.9421 52.6303 92.5011 53.1894 93.1535 53.6224C92.5011 54.0554 91.942 54.6144 91.5091 55.2667C91.076 54.6144 90.5171 54.0553 89.8647 53.6224C90.5171 53.1893 91.0761 52.6303 91.5091 51.978Z" fill="white"/>
<path d="M81.7803 49.7291H83.7261C83.7261 48.6971 84.1361 47.7072 84.8658 46.9771C85.5959 46.2475 86.5858 45.8375 87.6178 45.8375V43.8916C86.5858 43.8916 85.5959 43.4816 84.8658 42.7519C84.1361 42.0218 83.7261 41.0319 83.7261 40H81.7803C81.7803 41.032 81.3703 42.0219 80.6406 42.7519C79.9105 43.4816 78.9206 43.8916 77.8887 43.8916V45.8375C78.9206 45.8375 79.9105 46.2475 80.6406 46.9771C81.3703 47.7073 81.7803 48.6971 81.7803 49.7291ZM82.7532 43.2202C83.1862 43.8725 83.7452 44.4316 84.3976 44.8645C83.7452 45.2976 83.1862 45.8566 82.7532 46.5089C82.3202 45.8566 81.7612 45.2975 81.1088 44.8645C81.7612 44.4315 82.3202 43.8725 82.7532 43.2202Z" fill="white"/>
</svg>
