<svg width="99" height="98" viewBox="0 0 99 98" fill="none" xmlns="http://www.w3.org/2000/svg">
<path d="M43.0061 98H30.7293C29.9155 98 29.1345 97.6773 28.559 97.1031C27.9835 96.5289 27.6602 95.7496 27.6602 94.9375V79.625C27.6602 78.8129 27.9835 78.0336 28.559 77.4594C29.1345 76.8852 29.9155 76.5625 30.7293 76.5625H43.0061C43.82 76.5625 44.601 76.8852 45.1764 77.4594C45.7519 78.0336 46.0753 78.8129 46.0753 79.625V94.9375C46.0753 95.7496 45.7519 96.5289 45.1764 97.1031C44.601 97.6773 43.82 98 43.0061 98ZM33.7985 91.875H39.9369V82.6875H33.7985V91.875Z" fill="#0E8778"/>
<path d="M73.7 0C67.1882 0 60.943 2.58125 56.3379 7.1757C51.7334 11.7709 49.1465 18.0024 49.1465 24.5C49.1465 30.9976 51.7334 37.2291 56.3379 41.8243C60.943 46.4188 67.1882 49 73.7 49C80.2117 49 86.4569 46.4188 91.0621 41.8243C95.6666 37.2291 98.2535 30.9976 98.2535 24.5C98.2459 18.0045 95.6562 11.7777 91.0532 7.18463C86.4501 2.59157 80.2096 0.007525 73.7 0V0ZM73.7 42.875C68.8159 42.875 64.132 40.9391 60.6786 37.493C57.2251 34.047 55.2849 29.3734 55.2849 24.5C55.2849 19.6266 57.2249 14.9529 60.6786 11.5069C64.1322 8.06102 68.8159 6.125 73.7 6.125C78.584 6.125 83.2679 8.06085 86.7214 11.5069C90.1748 14.953 92.1151 19.6266 92.1151 24.5C92.1096 29.372 90.168 34.0422 86.716 37.4876C83.263 40.9323 78.5826 42.8696 73.7 42.875Z" fill="#0E8778"/>
<path d="M9.24492 39.8125H12.3141V42.875C12.3141 43.9694 12.8992 44.9804 13.8487 45.5273C14.7982 46.0741 15.9684 46.0741 16.9179 45.5273C17.8674 44.9804 18.4525 43.9694 18.4525 42.875V39.8125H21.5217C22.6185 39.8125 23.6317 39.2287 24.1798 38.2812C24.7278 37.3337 24.7278 36.1662 24.1798 35.2187C23.6317 34.2713 22.6185 33.6875 21.5217 33.6875H18.4525V30.625C18.4525 29.5305 17.8674 28.5195 16.9179 27.9727C15.9684 27.4258 14.7982 27.4258 13.8487 27.9727C12.8992 28.5195 12.3141 29.5306 12.3141 30.625V33.6875H9.24492C8.1481 33.6875 7.1349 34.2712 6.58683 35.2187C6.03876 36.1662 6.03876 37.3338 6.58683 38.2812C7.1349 39.2287 8.14814 39.8125 9.24492 39.8125Z" fill="#0E8778"/>
<path d="M21.5232 18.375H24.5924V21.4375C24.5924 22.5319 25.1775 23.5429 26.127 24.0898C27.0766 24.6366 28.2467 24.6366 29.1962 24.0898C30.1457 23.5429 30.7308 22.5319 30.7308 21.4375V18.375H33.8C34.8968 18.375 35.91 17.7912 36.4581 16.8437C37.0062 15.8962 37.0062 14.7287 36.4581 13.7812C35.91 12.8338 34.8968 12.25 33.8 12.25H30.7308V9.18746C30.7308 8.09302 30.1457 7.08203 29.1962 6.53516C28.2467 5.98828 27.0765 5.98828 26.127 6.53516C25.1775 7.08203 24.5924 8.09306 24.5924 9.18746V12.25H21.5232C20.4264 12.25 19.4132 12.8337 18.8652 13.7812C18.3171 14.7287 18.3171 15.8963 18.8652 16.8437C19.4132 17.7912 20.4265 18.375 21.5232 18.375Z" fill="#0E8778"/>
<path d="M84.8222 15.9834C84.1865 15.4761 83.3753 15.2417 82.5663 15.3312C81.7572 15.4207 81.0166 15.8275 80.5084 16.4612L70.3801 29.1014L66.6662 25.3956V25.3963C65.8865 24.645 64.7678 24.3593 63.7224 24.645C62.6776 24.9315 61.8611 25.7463 61.5739 26.7888C61.2876 27.8319 61.5739 28.9483 62.3269 29.7262L68.4652 35.8512C69.0386 36.424 69.8169 36.7467 70.6288 36.7487H70.7973C71.6694 36.7002 72.4792 36.2839 73.0245 35.603L85.3012 20.2905C85.8102 19.6568 86.0459 18.8461 85.9561 18.0381C85.8664 17.2301 85.4588 16.4911 84.8223 15.9832L84.8222 15.9834Z" fill="#0E8778"/>
<path d="M12.314 9.18871C13.1278 9.19145 13.9095 8.87016 14.4857 8.29593C15.0619 7.72172 15.3846 6.94241 15.3832 6.12961C15.3818 5.3175 15.0557 4.53889 14.4775 3.96748C13.8938 3.41377 13.119 3.10547 12.314 3.10547C11.509 3.10547 10.7342 3.41377 10.1505 3.96748C9.57843 4.54169 9.25711 5.31827 9.25781 6.12838C9.25781 6.93776 9.5798 7.71432 10.1525 8.28788C10.7253 8.86141 11.5028 9.18544 12.314 9.18885L12.314 9.18871Z" fill="#0E8778"/>
<path d="M66.6603 65.2094L39.0377 37.6469C38.4622 37.0727 37.6819 36.75 36.868 36.75C36.0542 36.75 35.2738 37.0727 34.6984 37.6469L0.937313 71.3344C0.344714 71.9045 0.00764811 72.6893 0.000106677 73.5103C-0.0067441 74.332 0.316619 75.1215 0.89894 75.7025C1.48126 76.2836 2.27253 76.6063 3.09595 76.5994C3.91874 76.5919 4.70522 76.2556 5.27665 75.6643L6.17617 74.7674V94.9361C6.17617 95.7482 6.49954 96.5275 7.075 97.1018C7.65047 97.676 8.43148 97.9986 9.24536 97.9986H64.4907C65.3046 97.9986 66.0856 97.676 66.6611 97.1018C67.2365 96.5275 67.5599 95.7482 67.5599 94.9361V74.7674L68.4594 75.6649V75.6643C69.239 76.4155 70.3577 76.7013 71.4032 76.4155C72.448 76.1291 73.2645 75.3143 73.5516 74.2718C73.838 73.2286 73.5516 72.1123 72.7987 71.3344L66.6603 65.2094ZM61.4215 91.8741H12.3145V68.6429L36.868 44.1429L61.4215 68.6429V91.8741Z" fill="#0E8778"/>
</svg>
