<svg width="71" height="71" viewBox="0 0 71 71" fill="none" xmlns="http://www.w3.org/2000/svg">
<rect width="71" height="71" rx="10" fill="#0E8778"/>
<path d="M32.6289 44.3122L25.8934 37.5626V37.563C25.3519 37.0212 25.3519 36.1431 25.8934 35.6016C26.4348 35.0602 27.3129 35.0602 27.8544 35.6016L32.612 40.3677L42.5264 30.2699H42.5268C43.064 29.7238 43.9417 29.7165 44.4882 30.2533C45.0343 30.7904 45.0416 31.6682 44.5048 32.2147L32.6289 44.3122Z" fill="white"/>
<path d="M35.1949 13L35.8884 13.3994C40.8461 16.2172 46.3052 18.0409 51.9614 18.7673L52.7935 18.8424L53.1182 19.6137C54.722 23.8817 55.4759 28.4221 55.3377 32.9789C55.458 37.0716 54.6294 41.1364 52.9158 44.8551C49.2128 51.7806 43.0481 57.0661 35.639 59.6688L35.1951 59.8105L34.7625 59.6688C31.0208 58.4738 27.5547 56.5464 24.5646 53.9987C21.5753 51.4514 19.1224 48.3348 17.3488 44.8304C13.7399 37.454 14.7635 26.6234 17.2435 19.6831L17.521 18.8843L18.3531 18.7733C24.002 17.9114 29.4624 16.0944 34.5014 13.3996L35.1949 13ZM50.8548 21.4307C45.3665 20.6238 40.0645 18.8505 35.1949 16.1929C30.2984 18.7344 25.0328 20.4899 19.5906 21.3943C17.4407 27.9968 16.8498 37.4842 19.8402 43.609V43.6094C23.0183 49.8779 28.5333 54.6464 35.1949 56.8865C41.7525 54.4324 47.1889 49.6702 50.4861 43.4935C52.8887 39.2352 53.46 28.4657 50.855 21.4314L50.8548 21.4307Z" fill="white"/>
</svg>
