<svg width="71" height="71" viewBox="0 0 71 71" fill="none" xmlns="http://www.w3.org/2000/svg">
<rect width="71" height="71" rx="10" fill="#0E8778"/>
<path d="M34.9994 13.0002C28.7822 13.0002 23.148 15.4981 19.0045 19.5166L19.6752 15.1017C19.8112 14.2052 19.1952 13.368 18.2986 13.2312C17.3328 13.0376 16.5797 13.7967 16.4281 14.6078L14.9845 24.1208C14.8209 25.2029 15.7413 26.1394 16.8263 25.9946L26.3553 24.7174C27.2533 24.5961 27.8836 23.7706 27.7638 22.8727C27.6442 21.9735 26.8181 21.3414 25.919 21.4609L21.023 22.1155C24.592 18.5208 29.5228 16.2855 34.9987 16.2855C45.9057 16.2855 54.7119 25.0919 54.7119 35.9987C54.7119 46.9055 45.9055 55.7119 34.9987 55.7119C24.0919 55.7119 15.2855 46.9055 15.2855 35.9987C15.2855 35.5631 15.1124 35.145 14.8044 34.837C14.4964 34.529 14.0784 34.3559 13.6428 34.3559C13.2071 34.3559 12.7891 34.529 12.4811 34.837C12.1731 35.145 12 35.5631 12 35.9987C12 48.6808 22.3166 58.9974 34.9987 58.9974C47.6808 58.9974 57.9974 48.6808 57.9974 35.9987C57.9974 23.3166 47.6808 13 34.9987 13L34.9994 13.0002Z" fill="white"/>
<path d="M35.0002 26.1406C34.5646 26.1406 34.1465 26.3137 33.8385 26.6217C33.5305 26.9297 33.3574 27.3478 33.3574 27.7834V39.2827C33.3574 39.7184 33.5305 40.1364 33.8385 40.4444C34.1465 40.7524 34.5646 40.9255 35.0002 40.9255H46.4995C46.9352 40.9255 47.3532 40.7524 47.6612 40.4444C47.9692 40.1364 48.1423 39.7184 48.1423 39.2827C48.1423 38.8471 47.9692 38.4291 47.6612 38.1211C47.3532 37.8131 46.9352 37.64 46.4995 37.64H36.6429V27.7834C36.6429 27.3478 36.4699 26.9297 36.1619 26.6217C35.8538 26.3137 35.4358 26.1406 35.0002 26.1406Z" fill="white"/>
</svg>
