<svg width="136" height="136" viewBox="0 0 136 136" fill="none" xmlns="http://www.w3.org/2000/svg">
<path fill-rule="evenodd" clip-rule="evenodd" d="M93.7001 10.5921C99.0348 9.16268 104.518 12.3285 105.948 17.6632L125.411 90.3008C126.84 95.6354 123.674 101.119 118.34 102.548L45.7021 122.011C40.3674 123.441 34.884 120.275 33.4546 114.94L13.9914 42.3027C12.562 36.9681 15.7278 31.4847 21.0625 30.0553L93.7001 10.5921Z" fill="#B7DBD7"/>
<path fill-rule="evenodd" clip-rule="evenodd" d="M60.9289 7.75467C64.8342 3.84942 71.1658 3.84942 75.0711 7.75466L128.245 60.9291C132.151 64.8343 132.151 71.166 128.245 75.0712L75.0711 128.246C71.1658 132.151 64.8342 132.151 60.9289 128.246L7.75451 75.0712C3.84927 71.166 3.84926 64.8343 7.75451 60.9291L60.9289 7.75467Z" fill="white"/>
<path d="M69.7749 91H89.3581C90.3619 91 91.2963 90.6011 91.9895 89.8782C92.6875 89.1493 93.0455 88.1932 92.9959 87.1853C92.0092 67.1941 84.3275 56.1728 83.1908 54.6449V52.2925C83.1908 49.532 85.755 47.4497 89.155 47.4497C89.502 47.4497 89.7841 47.1703 89.7841 46.8245V41.6252C89.7841 41.2795 89.5024 41 89.155 41H72.503C72.156 41 71.8739 41.2795 71.8739 41.6252V42.4653H68.8744C68.5274 42.4653 68.2453 42.7447 68.2453 43.0905V46.5141C68.2453 46.8599 68.527 47.1393 68.8744 47.1393H71.8739V47.9092C71.8739 48.255 72.1555 48.5344 72.503 48.5344H75.2663C74.7557 49.9165 73.1619 52.9107 68.913 52.9107C68.566 52.9107 68.2839 53.1901 68.2839 53.5358C68.2839 53.8816 68.5656 54.161 68.913 54.161C72.5315 54.161 74.5407 52.2685 75.6094 50.6005V54.8551C75.6094 62.1771 73.6673 65.1395 71.6107 68.2759C71.4225 68.5628 71.2351 68.8492 71.0483 69.1391C70.5231 69.9566 70.0112 70.6833 69.5155 71.3875C67.6269 74.07 66.1348 76.1888 66.1348 80.1512V87.3844C66.1352 89.3772 67.7685 90.9999 69.7751 90.9999L69.7749 91ZM71.8737 45.8882H69.5034V43.7144H71.8737V45.8882ZM73.1315 47.2833V42.25H88.5256V46.2208C84.7251 46.4719 81.9327 48.9984 81.9327 52.2925V54.2294H76.8674V47.9083C76.8674 47.5626 76.5858 47.2831 76.2383 47.2831L73.1315 47.2833ZM72.1084 69.8102C72.2927 69.5238 72.4782 69.2404 72.6642 68.957C74.6722 65.8944 76.7411 62.717 76.856 55.4781H82.2429C82.801 56.252 84.6207 58.9314 86.515 63.3858C87.4464 65.5756 88.4786 68.4095 89.3855 71.8327L70.7356 71.8331C71.18 71.201 71.6362 70.5457 72.1088 69.8098L72.1084 69.8102ZM67.3928 80.1496C67.3928 77.0434 68.3948 75.2176 69.8613 73.0826H89.7062C90.4244 76.0149 91.036 79.3484 91.4176 83.0505L67.3937 83.051L67.3928 80.1496ZM67.3928 84.3018H91.5335C91.6173 85.2622 91.6901 86.2387 91.7397 87.2467C91.7726 87.9099 91.5379 88.538 91.0794 89.0167C90.6262 89.4898 90.0151 89.7505 89.3593 89.7505H69.775C68.462 89.7505 67.3928 88.6884 67.3928 87.3836V84.3018Z" fill="#0E8778"/>
<path d="M45.6484 90.9996H60.5004C61.9612 90.9996 63.1488 89.802 63.1488 88.3301L63.1493 70.1639C63.1493 69.0051 62.8201 67.8812 62.1974 66.912C61.7442 66.207 61.7442 65.2596 62.1974 64.5552C62.8197 63.5856 63.1493 62.4612 63.1493 61.3033V55.0926C63.1493 51.955 60.7438 49.3775 57.6954 49.1246V45.7965C57.6954 44.9825 57.0389 44.3207 56.2314 44.3207H55.3609V41.6252C55.3609 41.2795 55.0832 41 54.7407 41H51.4081C51.066 41 50.7879 41.2795 50.7879 41.6252V44.3203H49.9174C49.1099 44.3203 48.4534 44.9829 48.4534 45.796V49.1242C45.4054 49.377 43 51.9544 43 55.0917V61.3024C43 62.4612 43.3291 63.5851 43.9519 64.5543C44.4051 65.2592 44.4051 66.2066 43.9519 66.9111C43.3291 67.8807 43 69.0051 43 70.1639V88.3301C43 89.8023 44.1884 91 45.6484 91L45.6484 90.9996ZM52.0282 42.2496H54.1204V44.3196H52.0282V42.2496ZM49.6942 45.7954C49.6942 45.6711 49.7945 45.5695 49.9182 45.5695H56.2313C56.3545 45.5695 56.4553 45.6707 56.4553 45.7954V49.0987H49.6941L49.6942 45.7954ZM44.2398 70.1636C44.2398 69.2468 44.4998 68.3574 44.9919 67.5919C45.7063 66.4802 45.7063 64.9861 44.9919 63.8748C44.4998 63.1084 44.2398 62.219 44.2398 61.3022V55.0915C44.2398 52.4756 46.3502 50.3482 48.9451 50.3482H57.2044C59.7992 50.3482 61.9096 52.4756 61.9096 55.0915V61.3022C61.9096 62.219 61.6497 63.1084 61.1576 63.8739C60.4431 64.9852 60.4431 66.4788 61.1576 67.591C61.6497 68.3574 61.9096 69.2459 61.9096 70.1628V71.833H44.2401L44.2398 70.1636ZM44.2398 73.0833H61.9094V83.0508H44.2398V73.0833ZM44.2398 84.3009H61.9094V88.3297C61.9094 89.1127 61.2771 89.7492 60.5008 89.7492L45.6478 89.7488C44.8715 89.7497 44.2392 89.1127 44.2392 88.3297L44.2398 84.3009Z" fill="#0E8778"/>
<path d="M53.0754 52.9414C50.195 52.9414 47.8516 55.2847 47.8516 58.1651C47.8516 61.0455 50.195 63.3892 53.0754 63.3892C55.9559 63.3892 58.2993 61.0454 58.2993 58.1651C58.2993 55.2847 55.9559 52.9414 53.0754 52.9414ZM53.0754 62.1168C50.8967 62.1168 49.1241 60.3442 49.1241 58.1651C49.1241 55.9864 50.8968 54.2139 53.0754 54.2139C55.2541 54.2139 57.0268 55.9865 57.0268 58.1651C57.0268 60.3443 55.2541 62.1168 53.0754 62.1168Z" fill="#0E8778"/>
</svg>
