<svg width="97" height="97" viewBox="0 0 97 97" fill="none" xmlns="http://www.w3.org/2000/svg">
<path d="M93.5098 87.3635V83.7635C93.5098 82.1007 92.8492 80.5051 91.6736 79.3279C90.4988 78.1516 88.9041 77.4894 87.2407 77.4881H66.1254L64.3257 63.0886H74.3121V69.4884C74.3121 71.2033 75.227 72.7876 76.7118 73.6453C78.1966 74.5024 80.0264 74.5024 81.5111 73.6453C82.9959 72.7875 83.9108 71.2033 83.9108 69.4884V67.6127C85.3792 68.1319 87.0089 67.9055 88.2809 67.0063C89.5528 66.107 90.3092 64.6464 90.3099 63.0885H91.9097C93.6245 63.0885 95.2085 62.1735 96.0662 60.6886C96.9232 59.2036 96.9232 57.3737 96.0662 55.8887C95.2085 54.4038 93.6245 53.4888 91.9097 53.4888H90.3099C90.3092 51.931 89.5529 50.4703 88.2809 49.5711C87.0089 48.6718 85.3791 48.4454 83.9108 48.9646V47.089C83.9108 45.374 82.9959 43.7898 81.5111 42.932C80.0264 42.0749 78.1966 42.0749 76.7118 42.932C75.227 43.7899 74.3121 45.374 74.3121 47.089V53.4887H63.1257L60.1262 29.4895H64.7134V35.8893C64.7134 37.6043 65.6283 39.1885 67.1131 40.0463C68.5979 40.9034 70.4277 40.9034 71.9125 40.0463C73.3973 39.1884 74.3121 37.6043 74.3121 35.8893V34.0136C75.7805 34.5329 77.4102 34.3065 78.6822 33.4072C79.9541 32.508 80.7105 31.0474 80.7113 29.4895H82.311C84.0258 29.4895 85.6099 28.5745 86.4675 27.0895C87.3246 25.6046 87.3246 23.7746 86.4675 22.2897C85.6098 20.8048 84.0258 19.8898 82.311 19.8898H80.7113C80.7105 18.332 79.9542 16.8713 78.6822 15.972C77.4102 15.0728 75.7804 14.8463 74.3121 15.3656V13.4899C74.3121 11.775 73.3973 10.1907 71.9125 9.33298C70.4277 8.47587 68.5979 8.47587 67.1131 9.33298C65.6283 10.1908 64.7134 11.775 64.7134 13.4899V19.8897H58.9264L57.4966 8.44232C57.1374 5.56314 55.3899 3.04254 52.8194 1.69676C50.249 0.351081 47.1823 0.351081 44.6119 1.69676C42.0415 3.04243 40.294 5.56314 39.9347 8.44232L38.5049 19.8897H32.7179V13.4899C32.7179 11.775 31.803 10.1907 30.3182 9.33298C28.8334 8.47587 27.0037 8.47587 25.5189 9.33298C24.0341 10.1908 23.1192 11.775 23.1192 13.4899V15.3656C21.6508 14.8463 20.0211 15.0728 18.7492 15.972C17.4772 16.8713 16.7208 18.3319 16.7201 19.8898H15.1203C13.4055 19.8898 11.8215 20.8048 10.9638 22.2897C10.1068 23.7747 10.1068 25.6046 10.9638 27.0895C11.8215 28.5745 13.4055 29.4895 15.1203 29.4895H16.7201C16.7208 31.0473 17.4771 32.508 18.7492 33.4072C20.0211 34.3065 21.6509 34.5329 23.1192 34.0136V35.8893C23.1192 37.6043 24.0341 39.1885 25.5189 40.0463C27.0037 40.9034 28.8334 40.9034 30.3182 40.0463C31.803 39.1884 32.7179 37.6043 32.7179 35.8893V29.4895H37.3051L34.3056 53.4887H23.1192V47.089C23.1192 45.374 22.2043 43.7898 20.7195 42.932C19.2347 42.0749 17.405 42.0749 15.9202 42.932C14.4354 43.7899 13.5205 45.374 13.5205 47.089V48.9646C12.0522 48.4454 10.4224 48.6718 9.15046 49.5711C7.8785 50.4703 7.12212 51.9309 7.12139 53.4888H5.52161C3.80685 53.4888 2.22277 54.4038 1.36511 55.8887C0.508081 57.3737 0.508081 59.2036 1.36511 60.6886C2.22284 62.1735 3.80683 63.0885 5.52161 63.0885H7.12139C7.12211 64.6463 7.87843 66.107 9.15046 67.0063C10.4224 67.9055 12.0522 68.1319 13.5205 67.6127V69.4884C13.5205 71.2033 14.4354 72.7876 15.9202 73.6453C17.405 74.5024 19.2348 74.5024 20.7195 73.6453C22.2043 72.7875 23.1192 71.2033 23.1192 69.4884V63.0886H33.1057L31.3059 77.4881H10.1906C8.52872 77.4895 6.93457 78.1509 5.75915 79.3259C4.5843 80.5016 3.92296 82.0958 3.9215 83.7579V87.3579C2.48241 87.8621 1.36825 89.0207 0.920495 90.4784C0.472703 91.9362 0.744804 93.5198 1.65254 94.7454C2.56026 95.9704 3.99644 96.6919 5.52126 96.6875H91.9094C93.4299 96.686 94.8605 95.9639 95.7646 94.741C96.6688 93.5182 96.9395 91.939 96.4945 90.4841C96.0503 89.0298 94.9426 87.872 93.5093 87.3635H93.5098ZM91.91 56.6884C92.7935 56.6884 93.5098 57.4048 93.5098 58.2884C93.5098 59.1719 92.7935 59.8883 91.91 59.8883H90.3103V56.6884H91.91ZM85.5109 51.8886C85.9352 51.8886 86.3422 52.0571 86.6422 52.3571C86.9422 52.6571 87.1107 53.0643 87.1107 53.4885V63.0882C87.1107 63.9717 86.3944 64.6882 85.5109 64.6882C84.6275 64.6882 83.9111 63.9717 83.9111 63.0882V53.4885C83.9111 52.605 84.6275 51.8886 85.5109 51.8886ZM77.512 47.0887C77.512 46.2052 78.2284 45.4888 79.1118 45.4888C79.9952 45.4888 80.7116 46.2052 80.7116 47.0887V69.488C80.7116 70.3715 79.9952 71.088 79.1118 71.088C78.2284 71.088 77.512 70.3715 77.512 69.488V47.0887ZM82.3114 23.0895C83.1948 23.0895 83.9111 23.8059 83.9111 24.6895C83.9111 25.573 83.1948 26.2894 82.3114 26.2894H80.7116V23.0895H82.3114ZM75.9122 18.2897C76.3365 18.2897 76.7436 18.4583 77.0435 18.7582C77.3435 19.0582 77.512 19.4654 77.512 19.8896V29.4893C77.512 30.3729 76.7957 31.0893 75.9122 31.0893C75.0288 31.0893 74.3125 30.3729 74.3125 29.4893V19.8896C74.3125 19.0061 75.0288 18.2897 75.9122 18.2897ZM67.9133 13.4898C67.9133 12.6063 68.6297 11.8899 69.5131 11.8899C70.3966 11.8899 71.1129 12.6063 71.1129 13.4898V35.8891C71.1129 36.7726 70.3966 37.4891 69.5131 37.4891C68.6297 37.4891 67.9133 36.7726 67.9133 35.8891V13.4898ZM43.1176 8.83793C43.3483 7.00083 44.4639 5.39375 46.1044 4.536C47.7449 3.67745 49.7011 3.67745 51.3416 4.536C52.9821 5.39382 54.0976 7.00083 54.3284 8.83793L55.7039 19.8896H41.73L43.1176 8.83793ZM15.1224 26.2894C14.2389 26.2894 13.5226 25.573 13.5226 24.6895C13.5226 23.8059 14.2389 23.0895 15.1224 23.0895H16.7222V26.2894H15.1224ZM21.5215 31.0893C20.6381 31.0893 19.9217 30.3729 19.9217 29.4893V19.8896C19.9217 19.0061 20.6381 18.2897 21.5215 18.2897C22.405 18.2897 23.1213 19.0061 23.1213 19.8896V29.4893C23.1213 29.9136 22.9527 30.3207 22.6528 30.6207C22.3528 30.9207 21.9457 31.0893 21.5215 31.0893ZM29.5204 35.8891C29.5204 36.7726 28.8041 37.4891 27.9206 37.4891C27.0372 37.4891 26.3208 36.7726 26.3208 35.8891V13.4898C26.3208 12.6063 27.0372 11.8899 27.9206 11.8899C28.8041 11.8899 29.5204 12.6063 29.5204 13.4898V35.8891ZM32.72 23.0895H64.7156V26.2894H32.72V23.0895ZM40.5311 29.4893H56.9046L59.9042 53.4885H37.531L40.5311 29.4893ZM5.52424 59.8883C4.6408 59.8883 3.92446 59.1719 3.92446 58.2884C3.92446 57.4048 4.6408 56.6884 5.52424 56.6884H7.12403V59.8883H5.52424ZM11.9234 64.6882C11.0399 64.6882 10.3236 63.9717 10.3236 63.0882V53.4885C10.3236 52.605 11.0399 51.8886 11.9234 51.8886C12.8068 51.8886 13.5232 52.605 13.5232 53.4885V63.0882C13.5232 63.5125 13.3546 63.9196 13.0546 64.2196C12.7547 64.5196 12.3476 64.6882 11.9234 64.6882ZM19.9223 69.488C19.9223 70.3715 19.2059 71.088 18.3225 71.088C17.439 71.088 16.7227 70.3715 16.7227 69.488V47.0887C16.7227 46.2052 17.439 45.4888 18.3225 45.4888C19.2059 45.4888 19.9223 46.2052 19.9223 47.0887V69.488ZM23.1218 56.6884H74.3148V59.8883H23.1218V56.6884ZM36.3322 63.0882H61.1041L62.9039 77.4877H34.532L36.3322 63.0882ZM7.12476 83.7577C7.12547 82.9442 7.4497 82.1635 8.02464 81.5878C8.60027 81.0128 9.38089 80.6885 10.1943 80.6878H87.2434C88.0569 80.6885 88.8375 81.0128 89.4131 81.5878C89.988 82.1635 90.3123 82.9442 90.313 83.7577V87.0876H7.12435L7.12476 83.7577ZM91.9132 93.4874H5.52497C4.64153 93.4874 3.92519 92.771 3.92519 91.8874C3.92519 91.0039 4.64153 90.2875 5.52497 90.2875H91.9132C92.7966 90.2875 93.5129 91.0039 93.5129 91.8874C93.5129 92.771 92.7966 93.4874 91.9132 93.4874Z" fill="#3C8477"/>
</svg>
