<svg width="71" height="71" viewBox="0 0 71 71" fill="none" xmlns="http://www.w3.org/2000/svg">
<rect width="71" height="71" rx="10" fill="#0E8778"/>
<path d="M34.9999 56.0063C34.9999 56.5582 34.5516 57.0041 33.9996 57.0041H30.9995C30.4474 57.0041 30 56.5578 30 56.0063C30 55.4543 30.4474 55.0076 30.9995 55.0076H33.9996C34.5516 55.0076 34.9999 55.4543 34.9999 56.0063ZM57.9995 51.014H53.9994C53.4473 51.014 52.9991 51.4607 52.9991 52.0127C52.9991 52.5647 53.4473 53.0105 53.9994 53.0105H57.9995C58.5515 53.0105 58.9998 52.5642 58.9998 52.0127C58.9994 51.4607 58.552 51.014 57.9995 51.014ZM48.9991 58.0028H45.9994C45.4474 58.0028 44.9991 58.4495 44.9991 59.0007C44.9991 59.5527 45.4465 59.9994 45.9994 59.9994H48.9991C49.5511 59.9994 49.9994 59.5527 49.9994 59.0007C49.9994 58.4495 49.552 58.0028 48.9991 58.0028ZM47.9996 55.0076C47.9996 54.4556 47.5522 54.0097 46.9993 54.0097H43.9996C43.4476 54.0097 42.9993 54.456 42.9993 55.0076C42.9993 55.5596 43.4467 56.0063 43.9996 56.0063H46.9993C47.5513 56.0063 47.9996 55.5596 47.9996 55.0076ZM31.9993 52.0128C31.9993 51.4608 31.5518 51.0141 30.9989 51.0141H27.9993C27.4472 51.0141 26.9989 51.4608 26.9989 52.0128C26.9989 52.5647 27.4464 53.0106 27.9993 53.0106H30.9989C31.5518 53.011 31.9993 52.5647 31.9993 52.0128ZM44.5887 19.317C44.6875 19.7695 45.091 20.1048 45.5592 20.1048C45.599 20.1048 45.6389 20.1048 45.6891 20.0948C45.9489 20.0646 46.1888 19.9345 46.349 19.7252C46.4989 19.5404 46.567 19.3153 46.5607 19.08C46.5603 19.0485 46.5624 19.0174 46.5591 18.9859C46.4889 18.4463 45.9883 18.0473 45.4388 18.1173C45.179 18.1476 44.939 18.2773 44.7788 18.487C44.6091 18.7066 44.5389 18.9656 44.5688 19.2258C44.5729 19.2569 44.5825 19.2859 44.5887 19.317ZM50.9995 43.6479V47.0211H57.9997C58.5517 47.0211 59 47.4678 59 48.019C59 48.5709 58.5526 49.0177 57.9997 49.0177H50.9995V50.0155C50.9995 50.5679 50.552 51.0142 50 51.0142C49.448 51.0142 48.9997 50.5679 48.9997 50.0155V44.0097C48.326 44.0304 47.6503 43.9517 46.9999 43.7755V50.0155C46.9999 50.5679 46.5525 51.0142 46.0004 51.0142C45.4484 51.0142 45.0001 50.5679 45.0001 50.0155V49.0177H11.9995C11.4474 49.0177 11 48.5709 11 48.019C11 47.709 11.1444 47.4351 11.3665 47.2519C11.1332 46.7994 11 46.2863 11 45.7423C11 43.9753 12.3398 42.5473 14.0603 42.4578C14.4999 40.67 16.0601 39.4227 17.8699 39.4132C19.25 39.4211 20.4737 40.1376 21.1776 41.2721C21.3806 41.2377 21.5877 41.2149 21.7994 41.2149H21.8334C22.2821 39.0074 24.1894 37.3441 26.4665 37.3441C28.7842 37.3441 30.7177 39.0659 31.1219 41.331C32.7726 41.7554 33.9996 43.2915 33.9996 45.1166C33.9996 45.8082 33.8215 46.4568 33.5127 47.0207H44.9992V43.5294C44.1977 43.8551 43.3368 44.0259 42.469 44.0259C38.7894 44.0259 35.7889 41.0306 35.7889 37.3561C35.7889 35.5995 36.4683 33.9419 37.7185 32.6938C37.2789 31.7755 37.0486 30.7975 37.0486 29.7892C37.0486 27.7421 37.9684 25.8458 39.5781 24.5673C39.6179 22.9504 40.248 21.4121 41.3479 20.2141C41.7086 19.8345 42.3677 19.8055 42.7583 20.1644C42.7815 20.1859 42.7985 20.2108 42.8189 20.2332C43.1555 20.609 43.1671 21.1954 42.8176 21.5721C42.0178 22.4407 41.5774 23.5591 41.5774 24.7368C41.5774 24.7671 41.5873 24.8263 41.6077 24.9962C41.628 25.3555 41.4578 25.6854 41.1577 25.8851C39.8378 26.7541 39.0475 28.2116 39.0475 29.7888C39.0475 30.6864 39.3178 31.5757 39.8275 32.354C40.1076 32.7833 40.018 33.3622 39.6075 33.6817C38.4469 34.5901 37.7878 35.9187 37.7878 37.3554C37.7878 39.9217 39.898 42.0286 42.4673 42.0286C43.3701 42.0286 44.243 41.7721 44.9975 41.2835C45.0199 41.2686 45.0444 41.2557 45.0673 41.24C45.3458 41.0601 45.6973 41.0303 45.9978 41.1455C46.0634 41.1712 46.1282 41.2006 46.1875 41.24C46.4432 41.4111 46.7159 41.5508 46.9973 41.6647C47.6311 41.9221 48.316 42.0356 48.9971 42.005C49.3337 41.99 49.6695 41.9407 49.9974 41.8554C50.3424 41.765 50.6786 41.6357 50.9969 41.4675C51.1904 41.366 51.3784 41.2512 51.5573 41.1198C51.8167 40.9296 52.1471 40.8703 52.4572 40.9702C52.7672 41.0705 53.0071 41.32 53.0968 41.6196C53.367 42.4579 54.127 43.0277 54.9866 43.0277C56.0964 43.0277 56.9972 42.1288 56.9972 41.0303C56.9972 40.1919 56.4771 39.4626 55.6868 39.1629C55.3564 39.0428 55.1161 38.763 55.0464 38.4245C54.9762 38.0751 55.0962 37.7358 55.3465 37.4958C55.7665 37.1054 55.9969 36.587 55.9969 36.038C55.9969 35.3488 55.6466 34.7198 55.0468 34.3501C54.7969 34.1902 54.6267 33.9308 54.5869 33.6415C54.547 33.3618 54.6367 33.0527 54.8268 32.843C55.5872 31.9744 55.9973 30.9165 55.9973 29.788C55.9973 27.3915 54.1872 25.4041 51.7873 25.1546C51.317 25.1148 50.9376 24.7352 50.887 24.2665C50.7471 22.8585 49.9975 21.6111 48.8174 20.832C48.3849 20.5411 48.2575 19.9771 48.4932 19.5292C48.5082 19.5006 48.5202 19.4715 48.5372 19.4442C48.8373 19.0045 49.4774 18.8752 49.9264 19.1645C51.3766 20.1329 52.377 21.5912 52.7564 23.2986C55.7964 23.9674 57.9971 26.6925 57.9971 29.7876C57.9971 31.0453 57.6364 32.2835 56.9469 33.3511C57.6272 34.0899 57.9971 35.0389 57.9971 36.0376C57.9971 36.6965 57.8265 37.3545 57.5069 37.9339C58.457 38.6931 58.9973 39.8215 58.9973 41.0291C58.9973 43.2353 57.2075 45.023 54.9973 45.023C53.7072 45.023 52.4869 44.3939 51.7472 43.3352C51.5065 43.4562 51.2554 43.5602 50.9997 43.648L50.9995 43.6479ZM14.1991 47.0211H18.4864C18.1776 46.4575 17.9995 45.8085 17.9995 45.1169C17.9995 43.9263 18.5225 42.8605 19.3439 42.1441C18.9894 41.699 18.4586 41.4152 17.8696 41.4098C16.8199 41.4193 15.9602 42.3186 15.9295 43.4167C15.9403 43.4374 15.9403 43.4867 15.9498 43.5568C15.9598 43.8962 15.81 44.2148 15.5298 44.4146C15.27 44.6048 14.9097 44.6446 14.5992 44.5348C14.4494 44.485 14.3195 44.4544 14.1995 44.4544C13.5404 44.4544 13 45.0337 13 45.7424C13 46.4419 13.5395 47.0212 14.1991 47.0212L14.1991 47.0211ZM22.6188 47.0211H30.2001C31.1921 47.0211 32.0002 46.1666 32.0002 45.1169C32.0002 44.0673 31.1929 43.2124 30.2001 43.2124C29.648 43.2124 29.1998 42.7657 29.1998 42.2137C29.1998 40.6302 27.9741 39.3415 26.4661 39.3415C24.9589 39.3415 23.7324 40.6307 23.7324 42.2137C23.7365 42.2452 23.7477 42.326 23.749 42.3575C23.7627 42.6919 23.6066 43.0114 23.3347 43.207C23.2293 43.2824 23.1114 43.3288 22.9906 43.3591C22.796 43.408 22.5901 43.4042 22.3962 43.3317C22.1833 43.2513 21.9882 43.2128 21.7981 43.2128C21.4744 43.2128 21.171 43.3048 20.9078 43.4647C20.6035 43.6487 20.3558 43.9239 20.1955 44.255C20.0702 44.5144 19.998 44.8074 19.998 45.1182C19.998 45.9632 20.521 46.6801 21.2423 46.9282C21.4179 46.9887 21.6043 47.0223 21.7981 47.0223H22.6187L22.6188 47.0211ZM44.0001 39.0335C44.55 39.0335 44.9995 38.5843 44.9995 38.0357C44.9995 37.4866 44.5496 37.037 44.0001 37.037C43.4497 37.037 42.9997 37.4866 42.9997 38.0357C42.9997 38.5843 43.4497 39.0335 44.0001 39.0335ZM48.0001 39.0335C48.5501 39.0335 48.9996 38.5843 48.9996 38.0357C48.9996 37.4866 48.5497 37.037 48.0001 37.037C47.4498 37.037 46.9998 37.4866 46.9998 38.0357C46.9998 38.5843 47.4498 39.0335 48.0001 39.0335ZM50.9998 38.0357C50.9998 38.5847 51.4497 39.0335 52.0001 39.0335C52.5501 39.0335 52.9996 38.5843 52.9996 38.0357C52.9996 37.4866 52.5497 37.037 52.0001 37.037C51.4493 37.037 50.9998 37.4866 50.9998 38.0357ZM49.9999 33.0434C49.4495 33.0434 48.9996 33.493 48.9996 34.0421C48.9996 34.5911 49.4495 35.0399 49.9999 35.0399C50.5499 35.0399 50.9994 34.5907 50.9994 34.0421C50.9998 33.493 50.5499 33.0434 49.9999 33.0434ZM46.0002 35.0399C46.5502 35.0399 46.9997 34.5907 46.9997 34.042C46.9997 33.493 46.5498 33.0433 46.0002 33.0433C45.4498 33.0433 44.9999 33.493 44.9999 34.042C44.9999 34.5911 45.4494 35.0399 46.0002 35.0399ZM46.0002 31.0467C46.5502 31.0467 46.9997 30.5975 46.9997 30.0488C46.9997 29.4998 46.5498 29.0501 46.0002 29.0501C45.4498 29.0501 44.9999 29.4998 44.9999 30.0488C44.9999 30.5975 45.4494 31.0467 46.0002 31.0467ZM41.9994 29.0497C41.4494 29.0497 40.9999 29.4994 40.9999 30.0484C40.9999 30.5975 41.4499 31.0463 41.9994 31.0463C42.5494 31.0463 42.9997 30.5971 42.9997 30.0484C42.9997 29.4998 42.5494 29.0497 41.9994 29.0497ZM54.0002 29.0497C54.0002 28.5007 53.5498 28.0519 52.9999 28.0519C52.4495 28.0519 52.0004 28.5011 52.0004 29.0497C52.0004 29.5988 52.4503 30.0484 52.9999 30.0484C53.5498 30.0484 54.0002 29.5988 54.0002 29.0497ZM45.0002 25.0566C45.0002 25.6056 45.4502 26.0544 46.0006 26.0544C46.5505 26.0544 47 25.6052 47 25.0566C47 24.5075 46.5501 24.0587 46.0006 24.0587C45.4498 24.0583 45.0002 24.5075 45.0002 25.0566ZM19.9998 51.0137C19.4498 51.0137 19.0003 51.4633 19.0003 52.0124C19.0003 52.5615 19.4503 53.0103 19.9998 53.0103C20.5498 53.0103 21.0001 52.5611 21.0001 52.0124C21.0001 51.4638 20.5498 51.0137 19.9998 51.0137ZM16.0001 53.0107C16.5501 53.0107 17.0005 52.5615 17.0005 52.0128C17.0005 51.4637 16.5501 51.0141 16.0001 51.0141C15.4502 51.0141 15.0007 51.4637 15.0007 52.0128C15.0002 52.5615 15.4502 53.0107 16.0001 53.0107ZM12.0001 51.0137C11.4501 51.0137 11.0006 51.4633 11.0006 52.0124C11.0006 52.5615 11.4505 53.0103 12.0001 53.0103C12.55 53.0103 13.0004 52.5611 13.0004 52.0124C13.0004 51.4638 12.55 51.0137 12.0001 51.0137ZM17.9999 54.0094C17.4495 54.0094 17.0004 54.4586 17.0004 55.0073C17.0004 55.5563 17.4504 56.006 17.9999 56.006C18.5499 56.006 19.0003 55.5563 19.0003 55.0073C19.0003 54.4582 18.5499 54.0094 17.9999 54.0094ZM13.9998 54.0094C13.4495 54.0094 13.0004 54.4586 13.0004 55.0073C13.0004 55.5563 13.4503 56.006 13.9998 56.006C14.5498 56.006 15.0002 55.5563 15.0002 55.0073C15.0002 54.4582 14.5498 54.0094 13.9998 54.0094ZM16 57.0039C15.4501 57.0039 15.0006 57.4535 15.0006 58.0026C15.0006 58.5517 15.4505 59.0005 16 59.0005C16.55 59.0005 17.0004 58.5512 17.0004 58.0026C17.0004 57.4539 16.5496 57.0039 16 57.0039ZM25.5529 57.11L25 57.3855V57.0043C25 56.4531 24.5526 56.0064 24.0005 56.0064C23.4485 56.0064 23.0002 56.4531 23.0002 57.0043V57.3855L22.4473 57.11C21.9521 56.8646 21.3523 57.0631 21.1054 57.5563C20.8584 58.0494 21.0585 58.6495 21.5528 58.896L21.7633 59.0013L23.5527 59.8947C23.561 59.8989 23.5701 59.9001 23.5776 59.9039C23.6257 59.9262 23.6763 59.9432 23.727 59.9577C23.7452 59.9631 23.7631 59.971 23.783 59.9751C23.8544 59.9905 23.927 60 24.0001 60C24.0727 60 24.1454 59.9909 24.2168 59.9751C24.2359 59.971 24.2537 59.9631 24.2728 59.9577C24.3239 59.9436 24.3741 59.9262 24.4226 59.9039C24.4309 59.9001 24.4401 59.8993 24.4476 59.8947L26.2369 59.0013L26.4474 58.896C26.9417 58.6495 27.1418 58.0494 26.8948 57.5563C26.6479 57.0627 26.0485 56.8638 25.5529 57.11ZM57.9999 57.008C57.8492 57.008 57.6969 57.037 57.5528 57.1091L57 57.3847V57.0035C57 56.4523 56.5517 56.0056 55.9996 56.0056C55.4476 56.0056 55.0002 56.4523 55.0002 57.0035V57.3847L54.4473 57.1091C53.9521 56.8638 53.3523 57.0623 53.1054 57.5554C52.8584 58.0486 53.0584 58.6487 53.5524 58.8952L53.7637 59.0005L55.5522 59.8939C55.5605 59.8981 55.5696 59.8993 55.5771 59.903C55.6252 59.9254 55.6759 59.9428 55.7265 59.9569C55.7456 59.9623 55.7635 59.9702 55.7825 59.9743C55.8539 59.9896 55.9266 59.9992 55.9992 59.9992C56.0719 59.9992 56.1445 59.99 56.2163 59.9743C56.2354 59.9702 56.2532 59.9623 56.2715 59.9569C56.3221 59.942 56.3728 59.9254 56.4209 59.903C56.4292 59.8993 56.4384 59.8985 56.4458 59.8939L58.4456 58.8952C58.9395 58.6486 59.14 58.0486 58.8926 57.5554C58.7191 57.2065 58.3664 57.0089 57.9999 57.008ZM40.5523 52.1177L39.9994 52.3932V52.0124C39.9994 51.4604 39.552 51.0137 38.9999 51.0137C38.4479 51.0137 37.9996 51.4604 37.9996 52.0124V52.3932L37.4467 52.1177C36.9524 51.8728 36.3517 52.0721 36.1048 52.5644C35.8578 53.0575 36.0579 53.6576 36.5522 53.9041L38.552 54.902C38.5603 54.9062 38.5694 54.9074 38.5769 54.9111C38.6251 54.9335 38.6757 54.9509 38.7263 54.965C38.7446 54.9704 38.7633 54.9783 38.7815 54.9824C38.8529 54.9977 38.9256 55.0073 38.9986 55.0073C39.0713 55.0073 39.1439 54.9982 39.2153 54.9824C39.2348 54.9783 39.2522 54.9704 39.2713 54.965C39.322 54.9509 39.3726 54.9335 39.4207 54.9111C39.429 54.907 39.4382 54.9057 39.4456 54.902L41.4463 53.9041C41.9402 53.6576 42.1407 53.0575 41.8933 52.5644C41.6472 52.0721 41.0474 51.8728 40.5523 52.1177ZM19.9987 32.0451H20.9991C21.5511 32.0451 21.9994 31.5984 21.9994 31.0464C21.9994 30.4944 21.5511 30.0485 20.9991 30.0485H19.9987C19.4467 30.0485 18.9993 30.4948 18.9993 31.0464C18.9993 31.5979 19.4467 32.0451 19.9987 32.0451ZM18.9993 28.0515C18.9993 27.4995 18.5518 27.0528 17.9989 27.0528C17.4469 27.0528 16.9995 27.4995 16.9995 28.0515V29.0493C16.9995 29.6013 17.4469 30.0481 17.9989 30.0481C18.551 30.0481 18.9993 29.6013 18.9993 29.0493V28.0515ZM15.9992 30.048H14.9997C14.4476 30.048 13.9994 30.4943 13.9994 31.0459C13.9994 31.5979 14.4468 32.0446 14.9997 32.0446H15.9992C16.5512 32.0446 16.9995 31.5979 16.9995 31.0459C16.9995 30.4943 16.5512 30.048 15.9992 30.048ZM17.999 35.0395C18.551 35.0395 18.9993 34.5932 18.9993 34.0416V33.0429C18.9993 32.4909 18.5518 32.045 17.999 32.045C17.4469 32.045 16.9995 32.4913 16.9995 33.0429V34.0416C16.9995 34.5936 17.4469 35.0395 17.999 35.0395ZM57 17.0695H57.9994C58.5515 17.0695 58.9998 16.6228 58.9998 16.0708C58.9998 15.5188 58.5523 15.073 57.9994 15.073H57C56.4479 15.073 55.9996 15.5193 55.9996 16.0708C55.9996 16.6228 56.4479 17.0695 57 17.0695ZM55.0002 15.073C55.5522 15.073 55.9997 14.6263 55.9997 14.0743V13.0756C55.9997 12.5236 55.5522 12.0777 55.0002 12.0777C54.4481 12.0777 53.9999 12.524 53.9999 13.0756V14.0743C53.9999 14.6263 54.4477 15.073 55.0002 15.073ZM52.0001 17.0695H52.9996C53.5516 17.0695 53.9999 16.6228 53.9999 16.0708C53.9999 15.5188 53.5525 15.073 52.9996 15.073H52.0001C51.448 15.073 50.9998 15.5193 50.9998 16.0708C50.9998 16.6228 51.4476 17.0695 52.0001 17.0695ZM55.0002 17.0695C54.4481 17.0695 53.9999 17.5158 53.9999 18.0674V19.0661C53.9999 19.6181 54.4473 20.064 55.0002 20.064C55.5522 20.064 55.9997 19.6177 55.9997 19.0661V18.0674C55.9997 17.5158 55.5522 17.0695 55.0002 17.0695ZM33.0005 34.0423H34C34.552 34.0423 35.0003 33.5956 35.0003 33.0436C35.0003 32.4916 34.552 32.0457 34 32.0457H33.0005C32.4484 32.0457 32.0002 32.492 32.0002 33.0436C32.0002 33.5955 32.4476 34.0423 33.0005 34.0423ZM32.0002 30.0487C32.0002 29.4967 31.5527 29.05 30.9998 29.05C30.4478 29.05 30.0003 29.4967 30.0003 30.0487V31.0465C30.0003 31.5985 30.4478 32.0452 30.9998 32.0452C31.5519 32.0452 32.0002 31.5985 32.0002 31.0465V30.0487ZM29.0001 32.0456H28.0006C27.4485 32.0456 27.0002 32.4919 27.0002 33.0435C27.0002 33.5955 27.4477 34.0422 28.0006 34.0422H29.0001C29.5521 34.0422 30.0004 33.5955 30.0004 33.0435C30 32.4915 29.5525 32.0456 29.0001 32.0456ZM30.9998 37.0371C31.5519 37.0371 32.0002 36.5908 32.0002 36.0392V35.0405C32.0002 34.4885 31.5527 34.0426 30.9998 34.0426C30.4478 34.0426 30.0004 34.4889 30.0004 35.0405V36.0392C29.9999 36.5908 30.4478 37.0371 30.9998 37.0371ZM11.001 20.7401C11.001 18.688 12.4019 16.9658 14.2726 16.5298C14.6868 13.9638 16.8593 12 19.4681 12C20.9814 12 22.344 12.6635 23.3054 13.7185C24.2206 12.7132 25.5364 12.077 27.0011 12.077C29.758 12.077 32.0015 14.3168 32.0015 17.0693C32.0015 19.1521 30.716 20.939 28.8964 21.6862C28.4751 23.6123 26.7999 25.0566 24.8008 25.0566L15.2006 25.0561C12.8845 25.057 11.001 23.1201 11.001 20.7401ZM13.0008 20.7401C13.0008 22.0194 13.9874 23.0599 15.2006 23.0599H24.8004C25.5567 23.0599 26.2245 22.6559 26.6205 22.0421C26.8061 21.7546 26.9297 21.4214 26.9771 21.0621C26.9912 20.9568 27.0007 20.8499 27.0007 20.7405C27.0007 20.5035 26.9667 20.2751 26.9036 20.0597C26.6267 19.1115 25.7892 18.4207 24.8 18.4207C24.656 18.4207 24.5078 18.4414 24.3542 18.4787C24.26 18.5011 24.1637 18.5293 24.0645 18.5674C23.8055 18.6636 23.5224 18.6437 23.2771 18.5239C23.2248 18.4978 23.1713 18.4734 23.1231 18.4385C22.8512 18.2409 22.6973 17.9197 22.713 17.5836C22.7143 17.5546 22.7271 17.434 22.7309 17.4042C22.7313 16.7387 22.5433 16.1175 22.2232 15.5903C21.6442 14.6368 20.6256 13.9978 19.4659 13.9978C17.6646 13.9978 16.1994 15.5348 16.1994 17.4232C16.1994 17.9752 15.7519 18.4211 15.199 18.4211C13.9875 18.4207 13.0008 19.4612 13.0008 20.74L13.0008 20.7401ZM24.4129 15.5614C24.5121 15.8399 24.5914 16.1287 24.6449 16.4263C26.587 16.3467 28.2594 17.6495 28.8085 19.453C29.5308 18.9052 30.0007 18.0415 30.0007 17.0689C30.0007 15.4176 28.6546 14.0737 27.0006 14.0737C25.8973 14.0745 24.9339 14.6734 24.4129 15.5614Z" fill="white"/>
</svg>
