<svg width="71" height="71" viewBox="0 0 71 71" fill="none" xmlns="http://www.w3.org/2000/svg">
<rect width="71" height="71" rx="10" fill="#0E8778"/>
<path d="M60.1626 49.0352H42.5477C41.6719 49.0352 40.8747 49.5085 40.5195 50.2349C39.9435 51.4264 37.8284 52.2945 35.5003 52.2945C33.1722 52.2945 31.0572 51.4264 30.4812 50.2349C30.1259 49.5008 29.3291 49.0352 28.4529 49.0352H10.838C10.5145 49.0352 10.2461 49.2955 10.2461 49.6271C10.2461 49.9587 10.5145 50.219 10.838 50.219H28.4446C28.8707 50.219 29.2495 50.432 29.4076 50.7555C30.1966 52.3813 32.6432 53.4783 35.4924 53.4783C38.3415 53.4783 40.7878 52.3812 41.5773 50.7555C41.735 50.432 42.1138 50.219 42.5403 50.219H60.1552C60.4787 50.219 60.7471 49.9505 60.7471 49.6271C60.7467 49.3036 60.4864 49.0352 60.163 49.0352H60.1626Z" fill="white"/>
<path d="M14.5706 51.8359C13.584 51.8359 12.7871 52.6332 12.7871 53.6194C12.7871 54.5979 13.5843 55.3874 14.5706 55.3874C15.5491 55.3874 16.3386 54.5902 16.3386 53.6194C16.3382 52.6409 15.5413 51.8359 14.5706 51.8359ZM14.5706 54.2035C14.239 54.2035 13.971 53.9432 13.971 53.6194C13.971 53.2878 14.2313 53.0197 14.5706 53.0197C14.8941 53.0197 15.1548 53.2882 15.1548 53.6194C15.1544 53.9432 14.8941 54.2035 14.5706 54.2035Z" fill="white"/>
<path d="M13.2759 58.6309C13.2759 58.9625 13.0074 59.2309 12.6758 59.2309C12.3446 59.2309 12.0762 58.9625 12.0762 58.6309C12.0762 58.2997 12.3446 58.0312 12.6758 58.0312C13.0074 58.0312 13.2759 58.2997 13.2759 58.6309Z" fill="white"/>
<path d="M15.3829 59.1758C15.0595 59.1758 14.791 59.4442 14.791 59.7754C14.791 60.107 15.0595 60.3751 15.3829 60.3751C15.7064 60.3751 15.9826 60.1066 15.9826 59.7754C15.983 59.4442 15.7145 59.1758 15.3829 59.1758Z" fill="white"/>
<path d="M17.1192 55.9648C16.7957 55.9648 16.5195 56.2333 16.5195 56.5645C16.5195 56.8961 16.788 57.1641 17.1192 57.1641C17.4508 57.1641 17.7111 56.8957 17.7111 56.5645C17.7111 56.2333 17.443 55.9648 17.1192 55.9648Z" fill="white"/>
<path d="M19.0923 52.5137C19.0923 52.8449 18.8234 53.1138 18.4922 53.1138C18.161 53.1138 17.8926 52.8449 17.8926 52.5137C17.8926 52.1825 18.161 51.9141 18.4922 51.9141C18.8234 51.9141 19.0923 52.1825 19.0923 52.5137Z" fill="white"/>
<path d="M21.6958 54.3852C21.6958 54.7164 21.4269 54.9848 21.0957 54.9848C20.7645 54.9848 20.4961 54.7164 20.4961 54.3852C20.4961 54.054 20.7645 53.7852 21.0957 53.7852C21.4269 53.7852 21.6958 54.054 21.6958 54.3852Z" fill="white"/>
<path d="M23.3067 52.7188C23.6301 52.7188 23.8986 52.4504 23.8986 52.1192C23.8986 51.7876 23.6301 51.5195 23.3067 51.5195C22.9832 51.5195 22.707 51.788 22.707 52.1192C22.7066 52.4504 22.9828 52.7188 23.3067 52.7188Z" fill="white"/>
<path d="M23.3146 55.7031C22.9911 55.7031 22.7227 55.9716 22.7227 56.3028C22.7227 56.6344 22.9911 56.9024 23.3146 56.9024C23.638 56.9024 23.9065 56.634 23.9065 56.3028C23.9065 55.9716 23.638 55.7031 23.3146 55.7031Z" fill="white"/>
<path d="M25.4297 58.5547C25.1063 58.5547 24.8301 58.8231 24.8301 59.1543C24.8301 59.4859 25.0985 59.754 25.4297 59.754C25.7613 59.754 26.0216 59.4855 26.0216 59.1543C26.0216 58.8227 25.7532 58.5547 25.4297 58.5547Z" fill="white"/>
<path d="M29.25 58.1719C28.9266 58.1719 28.6504 58.4403 28.6504 58.7715C28.6504 59.1031 28.9188 59.3712 29.25 59.3712C29.5816 59.3712 29.8419 59.1027 29.8419 58.7715C29.8419 58.4399 29.5812 58.1719 29.25 58.1719Z" fill="white"/>
<path d="M30.5978 54.4414C30.2743 54.4414 30.0059 54.7099 30.0059 55.041C30.0059 55.3726 30.2743 55.6407 30.5978 55.6407C30.9212 55.6407 31.1974 55.3722 31.1974 55.041C31.1978 54.7099 30.9294 54.4414 30.5978 54.4414Z" fill="white"/>
<path d="M32.3185 59.1055C31.995 59.1055 31.7266 59.3739 31.7266 59.7051C31.7266 60.0367 31.995 60.3048 32.3185 60.3048C32.6419 60.3048 32.9104 60.0363 32.9104 59.7051C32.9104 59.3735 32.6419 59.1055 32.3185 59.1055Z" fill="white"/>
<path d="M33.0782 55.9648C32.7548 55.9648 32.4863 56.2333 32.4863 56.5645C32.4863 56.8961 32.7548 57.1641 33.0782 57.1641C33.4017 57.1641 33.6701 56.8957 33.6701 56.5645C33.6701 56.2333 33.4098 55.9648 33.0782 55.9648Z" fill="white"/>
<path d="M39.9669 54.8125C39.6435 54.8125 39.375 55.081 39.375 55.4121C39.375 55.7437 39.6435 56.0118 39.9669 56.0118C40.2904 56.0118 40.5588 55.7433 40.5588 55.4121C40.5588 55.081 40.2985 54.8125 39.9669 54.8125Z" fill="white"/>
<path d="M41.5371 59.0977C41.2137 59.0977 40.9375 59.3661 40.9375 59.6973C40.9375 60.0289 41.206 60.2969 41.5371 60.2969C41.8687 60.2969 42.129 60.0285 42.129 59.6973C42.129 59.3661 41.861 59.0977 41.5371 59.0977Z" fill="white"/>
<path d="M42.2715 52.9258C41.9481 52.9258 41.6719 53.1942 41.6719 53.5254C41.6719 53.857 41.9403 54.1251 42.2715 54.1251C42.6031 54.1251 42.8634 53.8566 42.8634 53.5254C42.8634 53.1938 42.6031 52.9258 42.2715 52.9258Z" fill="white"/>
<path d="M43.9688 57.4453C43.6453 57.4453 43.3691 57.7138 43.3691 58.045C43.3691 58.3766 43.6376 58.6446 43.9688 58.6446C44.3004 58.6446 44.5607 58.3761 44.5607 58.045C44.5607 57.7138 44.3004 57.4453 43.9688 57.4453Z" fill="white"/>
<path d="M48.2622 59.6743C48.2622 60.0055 47.9937 60.2739 47.6626 60.2739C47.3314 60.2739 47.0625 60.0055 47.0625 59.6743C47.0625 59.3427 47.3314 59.0742 47.6626 59.0742C47.9937 59.0742 48.2622 59.3427 48.2622 59.6743Z" fill="white"/>
<path d="M50.4864 56.043C50.163 56.043 49.8945 56.3114 49.8945 56.6426C49.8945 56.9742 50.163 57.2423 50.4864 57.2423C50.8099 57.2423 51.0861 56.9738 51.0861 56.6426C51.0865 56.3114 50.8103 56.043 50.4864 56.043Z" fill="white"/>
<path d="M54.0298 53.2793C54.0298 53.6109 53.7613 53.8794 53.4297 53.8794C53.0985 53.8794 52.8301 53.6109 52.8301 53.2793C52.8301 52.9481 53.0985 52.6797 53.4297 52.6797C53.7613 52.6797 54.0298 52.9481 54.0298 53.2793Z" fill="white"/>
<path d="M56.6739 52.9727C56.9974 52.9727 57.2736 52.7043 57.2736 52.3731C57.2736 52.0415 57.0051 51.7734 56.6739 51.7734C56.3423 51.7734 56.082 52.0419 56.082 52.3731C56.082 52.7043 56.3423 52.9727 56.6739 52.9727Z" fill="white"/>
<path d="M59.3028 54.3867C58.9794 54.3867 58.7109 54.6552 58.7109 54.9864C58.7109 55.318 58.9794 55.586 59.3028 55.586C59.6263 55.586 59.8947 55.3176 59.8947 54.9864C59.8947 54.6548 59.6344 54.3867 59.3028 54.3867Z" fill="white"/>
<path d="M52.1348 58.5039C51.8113 58.5039 51.5352 58.7724 51.5352 59.1035C51.5352 59.4351 51.8036 59.7032 52.1348 59.7032C52.4664 59.7032 52.7267 59.4347 52.7267 59.1035C52.7267 58.7724 52.4664 58.5039 52.1348 58.5039Z" fill="white"/>
<path d="M50.6134 52.5215C50.6134 52.1981 50.345 51.9219 50.0215 51.9219C49.6981 51.9219 49.4219 52.1903 49.4219 52.5215C49.4219 52.8531 49.6903 53.1212 50.0215 53.1212C50.3531 53.1212 50.6134 52.845 50.6134 52.5215Z" fill="white"/>
<path d="M20.2681 56.5078C19.1793 56.5078 18.2871 57.3995 18.2871 58.4888C18.2871 59.57 19.1788 60.454 20.2681 60.454C21.3493 60.454 22.2333 59.57 22.2333 58.4888C22.2333 57.3996 21.3493 56.5078 20.2681 56.5078ZM20.2681 59.2701C19.8261 59.2701 19.4709 58.9231 19.4709 58.4888C19.4709 58.0391 19.818 57.6916 20.2681 57.6916C20.7024 57.6916 21.0495 58.0468 21.0495 58.4888C21.0495 58.9227 20.7024 59.2701 20.2681 59.2701Z" fill="white"/>
<path d="M48.2528 53.8169C48.2528 52.7281 47.3688 51.8359 46.2877 51.8359C45.1988 51.8359 44.3066 52.7277 44.3066 53.8169C44.3066 54.8981 45.1984 55.7821 46.2877 55.7821C47.3688 55.7821 48.2528 54.9059 48.2528 53.8169ZM46.2877 54.5983C45.8457 54.5983 45.4904 54.2512 45.4904 53.8169C45.4904 53.3672 45.8375 53.0197 46.2877 53.0197C46.7219 53.0197 47.069 53.375 47.069 53.8169C47.069 54.2508 46.7215 54.5983 46.2877 54.5983Z" fill="white"/>
<path d="M26.7874 52.6172C25.8089 52.6172 25.0039 53.4144 25.0039 54.4007C25.0039 55.3792 25.8011 56.1686 26.7874 56.1686C27.7659 56.1686 28.5554 55.3714 28.5554 54.4007C28.5554 53.4145 27.7581 52.6172 26.7874 52.6172ZM26.7874 54.9848C26.4558 54.9848 26.1878 54.7245 26.1878 54.4006C26.1878 54.069 26.4481 53.801 26.7874 53.801C27.1109 53.801 27.3716 54.0694 27.3716 54.4006C27.3716 54.7245 27.1113 54.9848 26.7874 54.9848Z" fill="white"/>
<path d="M56.1847 55.0156C55.1508 55.0156 54.3145 55.8524 54.3145 56.8859C54.3145 57.9116 55.1512 58.7406 56.1847 58.7406C57.2105 58.7406 58.0394 57.9039 58.0394 56.8859C58.039 55.8597 57.2104 55.0156 56.1847 55.0156ZM56.1847 57.5568C55.8059 57.5568 55.4983 57.2569 55.4983 56.8858C55.4983 56.4992 55.7981 56.1994 56.1847 56.1994C56.5558 56.1994 56.8556 56.5074 56.8556 56.8858C56.8552 57.2565 56.5554 57.5568 56.1847 57.5568Z" fill="white"/>
<path d="M37.0706 55.918C36.084 55.918 35.2871 56.7152 35.2871 57.7015C35.2871 58.68 36.0843 59.4694 37.0706 59.4694C38.0491 59.4694 38.8386 58.6722 38.8386 57.7015C38.8386 56.7152 38.0491 55.918 37.0706 55.918ZM37.0706 58.2856C36.739 58.2856 36.471 58.0253 36.471 57.7014C36.471 57.3698 36.7313 57.1018 37.0706 57.1018C37.3941 57.1018 37.6548 57.3702 37.6548 57.7014C37.6548 58.0253 37.3945 58.2856 37.0706 58.2856Z" fill="white"/>
<path d="M17.4043 40.694H10.838C10.5145 40.694 10.2461 40.9543 10.2461 41.2859C10.2461 41.6175 10.5145 41.8778 10.838 41.8778H17.4039C18.2166 41.8778 18.9112 41.3726 19.1956 40.6545H22.1392C22.9914 40.6545 23.8281 40.8753 24.5541 41.2937C27.4187 42.9509 29.4788 43.7876 30.702 43.7876C30.7965 43.7876 30.8837 43.7798 30.9705 43.7717C32.2097 43.6218 33.8351 42.7695 35.5477 41.6013C35.9107 42.0983 36.4948 42.4221 37.1498 42.4221C38.231 42.4221 39.115 41.5381 39.115 40.457C39.115 39.9913 38.9414 39.5811 38.6653 39.2418C40.9302 37.3794 43.0453 35.367 44.3159 34.12C45.0341 33.4096 45.1681 32.3048 44.6475 31.4368C44.0319 30.4265 42.7455 30.0872 41.7198 30.6632L39.4862 31.9101C37.7973 30.0872 36.0138 29.0532 34.1827 28.8243V24.9495L35.8399 23.2923C35.9503 23.3 36.0847 23.3081 36.2424 23.3081C37.1341 23.3081 38.6968 23.1423 39.7148 22.1243C41.1906 20.6484 40.875 18.06 40.8668 17.9573C40.8355 17.6889 40.622 17.4758 40.354 17.4445C40.2436 17.4286 37.647 17.1129 36.1793 18.5888C34.9877 19.7804 34.9642 21.7141 35.0114 22.4636L34.1906 23.2845V18.6596C34.8061 18.1231 36.4633 16.4814 36.4633 14.4613C36.4633 12.0383 34.0643 10.1522 33.9617 10.0736C33.7486 9.90777 33.4488 9.90777 33.2357 10.0736C33.1331 10.1526 30.726 12.0387 30.726 14.4613C30.726 16.4737 32.3754 18.1072 32.9987 18.6519V24.705V24.7208V25.226L32.1779 24.4051C32.2251 23.6633 32.2015 21.73 31.01 20.5303C29.5341 19.0544 26.9379 19.3701 26.8353 19.386C26.5668 19.4173 26.3619 19.6308 26.3224 19.8988C26.3065 20.0092 25.999 22.5981 27.4745 24.0658C28.4925 25.0838 30.0474 25.2496 30.9469 25.2496C31.1045 25.2496 31.2389 25.2419 31.3493 25.2338L33.0065 26.891V28.7852C29.9444 28.9824 27.7585 31.3028 27.127 32.0604H26.7718H26.7559C25.9037 32.0604 25.0987 31.7211 24.4592 31.0897C23.6543 30.2847 22.565 29.819 21.3971 29.8269L19.2112 29.8427C18.9272 29.1246 18.2327 28.6195 17.4118 28.6195H10.8386C10.5151 28.6195 10.2467 28.8879 10.2467 29.2114C10.2467 29.5348 10.5151 29.8033 10.8386 29.8033H17.4045C17.8229 29.8033 18.1541 30.1426 18.1541 30.5528V39.9361C18.1626 40.3549 17.8233 40.6943 17.4049 40.6943L17.4043 40.694ZM37.1498 41.2464C36.8895 41.2464 36.6606 41.1278 36.5184 40.9307C36.9131 40.6386 37.3311 40.3229 37.773 39.9758C37.8757 40.1098 37.9388 40.2838 37.9388 40.465C37.9311 40.8911 37.5837 41.2464 37.1498 41.2464ZM37.0076 19.4173C37.7494 18.6755 39.0278 18.5805 39.7069 18.5887C39.7146 19.2833 39.6124 20.5457 38.8701 21.2879C38.3886 21.7694 37.6863 21.9825 37.0631 22.0692L37.734 21.3983C37.9629 21.1694 37.9629 20.7905 37.734 20.5616C37.5051 20.3327 37.1262 20.3327 36.8973 20.5616L36.2263 21.2325C36.3131 20.6088 36.5184 19.9065 37.0076 19.4173ZM28.2949 23.229C27.5531 22.4872 27.4504 21.2243 27.4581 20.5298C28.1604 20.5298 29.4152 20.6166 30.1651 21.3665C30.6466 21.848 30.8597 22.5504 30.9464 23.1736L30.2755 22.5026C30.0466 22.2737 29.6677 22.2737 29.4388 22.5026C29.2098 22.7316 29.2098 23.1104 29.4388 23.3394L30.1097 24.0103C29.4787 23.9235 28.7764 23.7105 28.2949 23.229ZM31.9017 14.4532C31.9017 13.1036 32.9988 11.8802 33.5906 11.3201C34.1744 11.8806 35.2637 13.1039 35.2637 14.4532C35.2637 15.4162 34.7035 16.3156 34.1748 16.9548V15.5106C34.1748 15.1872 33.9064 14.9187 33.5829 14.9187C33.2595 14.9187 32.991 15.1872 32.991 15.5106V16.9548C32.4618 16.3156 31.9017 15.4239 31.9017 14.4532ZM33.1959 29.9532C34.9638 29.8823 36.7237 30.7504 38.4204 32.502L34.7663 34.538C34.7427 33.8829 34.4824 33.2674 34.0168 32.8018C33.5275 32.3126 32.8884 32.0523 32.2016 32.0523H28.7606C29.6682 31.1923 31.2544 30.0322 33.1959 29.9532ZM21.3897 31.0107H21.4056C22.2264 31.0107 23.0314 31.3423 23.6392 31.9497C24.4759 32.7864 25.5725 33.2439 26.7408 33.2439H26.7567C26.9539 33.2439 30.7656 33.2361 32.1865 33.2361C32.5576 33.2361 32.9047 33.3783 33.165 33.6386C33.4253 33.8989 33.5752 34.2464 33.5752 34.6171C33.5752 35.3825 32.9519 36.0062 32.1861 36.0062H25.3358C25.0123 36.0062 24.7439 36.2747 24.7439 36.5981C24.7439 36.9216 25.0123 37.19 25.3358 37.19H32.1861C33.0147 37.19 33.7487 36.7953 34.2221 36.1956L42.2957 31.6971C42.769 31.4367 43.3532 31.5867 43.6371 32.0523C43.8738 32.447 43.8188 32.9521 43.4872 33.2755C41.3722 35.3589 34.2143 42.1932 30.8446 42.5957C29.9765 42.6902 27.8537 41.8302 25.1623 40.2676C24.2547 39.7466 23.2208 39.4704 22.1555 39.4704H19.3541V31.026L21.3897 31.0107Z" fill="white"/>
<path d="M32.5727 47.8422C32.5727 48.1734 32.3039 48.4419 31.9727 48.4419C31.6415 48.4419 31.373 48.1734 31.373 47.8422C31.373 47.5106 31.6415 47.2422 31.9727 47.2422C32.3039 47.2422 32.5727 47.5106 32.5727 47.8422Z" fill="white"/>
<path d="M34.9321 45.0727C34.9321 45.4039 34.6637 45.6723 34.3325 45.6723C34.0013 45.6723 33.7324 45.4039 33.7324 45.0727C33.7324 44.7411 34.0013 44.4727 34.3325 44.4727C34.6637 44.4727 34.9321 44.7411 34.9321 45.0727Z" fill="white"/>
<path d="M38.1684 44.1739C38.1684 44.5051 37.9 44.7735 37.5688 44.7735C37.2376 44.7735 36.9688 44.5051 36.9688 44.1739C36.9688 43.8427 37.2376 43.5742 37.5688 43.5742C37.9 43.5742 38.1684 43.8427 38.1684 44.1739Z" fill="white"/>
<path d="M39.6035 46.7793C39.6035 47.1028 39.872 47.379 40.1954 47.379C40.5189 47.379 40.7873 47.1105 40.7873 46.7793C40.7873 46.4477 40.5189 46.1797 40.1954 46.1797C39.872 46.1797 39.6035 46.4559 39.6035 46.7793Z" fill="white"/>
<path d="M33.0293 50.3028C33.0293 50.6262 33.2978 50.9024 33.6212 50.9024C33.9447 50.9024 34.2208 50.634 34.2208 50.3028C34.2208 49.9712 33.9524 49.7031 33.6212 49.7031C33.29 49.7031 33.0293 49.9793 33.0293 50.3028Z" fill="white"/>
<path d="M35.2168 48.6867C35.2168 49.7124 36.0535 50.5414 37.0871 50.5414C38.1128 50.5414 38.9418 49.7047 38.9418 48.6867C38.9418 47.6528 38.1051 46.8164 37.0871 46.8164C36.0532 46.8164 35.2168 47.6531 35.2168 48.6867ZM37.0792 48.0003C37.4503 48.0003 37.7502 48.3082 37.7502 48.6867C37.7502 49.0578 37.4503 49.3576 37.0792 49.3576C36.7004 49.3576 36.3928 49.0578 36.3928 48.6867C36.4006 48.3001 36.7004 48.0003 37.0792 48.0003Z" fill="white"/>
<path d="M57.6925 16.2672C57.6925 14.4678 56.2325 13.0078 54.4332 13.0078C52.6338 13.0078 51.1738 14.4678 51.1738 16.2672C51.1738 18.0665 52.6338 19.5265 54.4332 19.5265C56.2244 19.5265 57.6925 18.0665 57.6925 16.2672ZM54.4332 18.3427C53.2888 18.3427 52.3577 17.4114 52.3577 16.2672C52.3577 15.1229 53.2889 14.1917 54.4332 14.1917C55.5774 14.1917 56.5087 15.1229 56.5087 16.2672C56.5087 17.4114 55.5774 18.3427 54.4332 18.3427Z" fill="white"/>
<path d="M58.7402 16.2677C58.7402 16.5911 59.0087 16.8596 59.3321 16.8596H60.1607C60.4842 16.8596 60.7526 16.5911 60.7526 16.2677C60.7526 15.9442 60.4842 15.6758 60.1607 15.6758H59.3321C59.0087 15.6758 58.7402 15.9442 58.7402 16.2677Z" fill="white"/>
<path d="M48.7032 16.8596H49.5318C49.8553 16.8596 50.1237 16.5911 50.1237 16.2677C50.1237 15.9442 49.8553 15.6758 49.5318 15.6758H48.7032C48.3798 15.6758 48.1113 15.9442 48.1113 16.2677C48.1113 16.5915 48.3716 16.8596 48.7032 16.8596Z" fill="white"/>
<path d="M58.6784 14.413C58.7811 14.413 58.8837 14.3894 58.9705 14.334L59.6887 13.9238C59.9726 13.758 60.0675 13.395 59.9017 13.1188C59.7359 12.8349 59.373 12.74 59.0968 12.9058L58.3786 13.316C58.0947 13.4818 57.9997 13.8447 58.1655 14.1209C58.2759 14.3022 58.4735 14.413 58.6784 14.413Z" fill="white"/>
<path d="M49.8878 18.2102L49.1696 18.6204C48.8857 18.7862 48.7908 19.1491 48.9565 19.4253C49.0669 19.6148 49.2645 19.7252 49.4694 19.7252C49.5721 19.7252 49.6747 19.7015 49.7615 19.6461L50.4797 19.2359C50.7636 19.0701 50.8585 18.7072 50.6927 18.431C50.5351 18.1393 50.1717 18.0444 49.8878 18.2102Z" fill="white"/>
<path d="M56.5877 12.5347C56.6822 12.5901 56.7848 12.6138 56.8797 12.6138C57.0851 12.6138 57.2822 12.5111 57.3926 12.3139L57.8028 11.5957C57.9686 11.3118 57.866 10.9484 57.5898 10.7908C57.3058 10.625 56.9425 10.7276 56.7848 11.0038L56.3746 11.722C56.2088 12.006 56.3033 12.3689 56.5877 12.5347Z" fill="white"/>
<path d="M51.2673 21.7457C51.3618 21.8011 51.4644 21.8247 51.5593 21.8247C51.7647 21.8247 51.9618 21.722 52.0722 21.5249L52.4824 20.8067C52.6482 20.5227 52.5456 20.1594 52.2694 20.0017C51.9854 19.8359 51.6221 19.9386 51.4644 20.2148L51.0542 20.933C50.8884 21.2169 50.9833 21.5799 51.2673 21.7457Z" fill="white"/>
<path d="M54.4337 11.9581C54.7572 11.9581 55.0256 11.6897 55.0256 11.3662V10.5372C55.0256 10.2138 54.7572 9.94531 54.4337 9.94531C54.1102 9.94531 53.8418 10.2138 53.8418 10.5372V11.3662C53.8418 11.6897 54.1021 11.9581 54.4337 11.9581Z" fill="white"/>
<path d="M55.0236 21.9947V21.1661C55.0236 20.8427 54.7552 20.5742 54.4317 20.5742C54.1083 20.5742 53.8398 20.8427 53.8398 21.1661V21.9947C53.8398 22.3182 54.1083 22.5866 54.4317 22.5866C54.7552 22.5866 55.0236 22.3263 55.0236 21.9947Z" fill="white"/>
<path d="M51.4644 12.3235C51.5748 12.5129 51.7724 12.6233 51.9773 12.6233C52.08 12.6233 52.1826 12.5997 52.2694 12.5443C52.5533 12.3785 52.6482 12.0156 52.4824 11.7393L52.0722 11.0212C51.9064 10.7372 51.5435 10.6423 51.2673 10.8081C50.9833 10.9739 50.8884 11.3369 51.0542 11.6131L51.4644 12.3235Z" fill="white"/>
<path d="M56.7847 21.5305C56.8951 21.72 57.0927 21.8304 57.2976 21.8304C57.4003 21.8304 57.5029 21.8067 57.5897 21.7513C57.8736 21.5855 57.9685 21.2226 57.8028 20.9464L57.3925 20.2282C57.2267 19.9443 56.8638 19.8493 56.5876 20.0151C56.3036 20.1809 56.2087 20.5439 56.3745 20.8201L56.7847 21.5305Z" fill="white"/>
<path d="M49.177 13.9142L49.8951 14.3244C49.9896 14.3798 50.0923 14.4034 50.1872 14.4034C50.3925 14.4034 50.5897 14.3008 50.7001 14.1036C50.8659 13.8197 50.7632 13.4563 50.487 13.2987L49.7689 12.8884C49.4849 12.7226 49.1216 12.8253 48.9639 13.1015C48.7904 13.3854 48.893 13.7484 49.177 13.9142Z" fill="white"/>
<path d="M58.3788 19.2345L59.097 19.6447C59.1915 19.7001 59.2942 19.7238 59.3891 19.7238C59.5944 19.7238 59.7916 19.6211 59.902 19.4239C60.0678 19.14 59.9651 18.7766 59.6889 18.619L58.9707 18.2088C58.6868 18.043 58.3234 18.1456 58.1658 18.4218C58 18.7057 58.1026 19.0691 58.3788 19.2345Z" fill="white"/>
<path d="M46.6818 26.0315C47.2183 26.0315 47.6603 26.4735 47.6603 27.01C47.6603 27.3334 47.9288 27.6019 48.2522 27.6019C48.5757 27.6019 48.8441 27.3334 48.8441 27.01C48.8441 26.4735 49.2861 26.0315 49.8226 26.0315C50.1461 26.0315 50.4145 25.763 50.4145 25.4396C50.4145 25.1161 50.1461 24.8477 49.8226 24.8477C49.2071 24.8477 48.6466 25.108 48.2522 25.5263C47.8574 25.108 47.2973 24.8477 46.6817 24.8477C46.3583 24.8477 46.0898 25.1161 46.0898 25.4396C46.0898 25.763 46.358 26.0315 46.6818 26.0315Z" fill="white"/>
<path d="M51.9786 30.418C51.6552 30.418 51.3867 30.6864 51.3867 31.0099C51.3867 31.3333 51.6552 31.6018 51.9786 31.6018C52.5151 31.6018 52.9571 32.0438 52.9571 32.5803C52.9571 32.9037 53.2256 33.1722 53.549 33.1722C53.8725 33.1722 54.1409 32.9037 54.1409 32.5803C54.1409 32.0438 54.5829 31.6018 55.1194 31.6018C55.4429 31.6018 55.7113 31.3333 55.7113 31.0099C55.7113 30.6864 55.4429 30.418 55.1194 30.418C54.5039 30.418 53.9434 30.6783 53.549 31.0966C53.1542 30.6783 52.6019 30.418 51.9786 30.418Z" fill="white"/>
</svg>
