<svg width="64" height="64" viewBox="0 0 64 64" fill="none" xmlns="http://www.w3.org/2000/svg">
<path fill-rule="evenodd" clip-rule="evenodd" d="M38.8974 6.63214C44.2301 5.19571 49.7063 8.35736 51.1288 13.6939L57.4362 37.3574C58.8586 42.694 55.6887 48.1845 50.3559 49.621L26.9038 55.938C21.571 57.3744 16.0948 54.2128 14.6724 48.8763L8.36497 25.2127C6.94254 19.8762 10.1125 14.3856 15.4453 12.9492L38.8974 6.63214Z" fill="#B7DBD7"/>
<path fill-rule="evenodd" clip-rule="evenodd" d="M24.9475 7.69898C28.8425 3.78351 35.1575 3.7835 39.0525 7.69897L56.2528 24.9898C60.1478 28.9052 60.1478 35.2535 56.2528 39.169L39.0525 56.4598C35.1575 60.3753 28.8425 60.3753 24.9475 56.4598L7.74723 39.169C3.85225 35.2535 3.85224 28.9053 7.74722 24.9898L24.9475 7.69898Z" fill="#3E9F93"/>
<path d="M28.7856 20.9866C28.5379 20.9866 28.3373 21.1871 28.3373 21.4349V22.0715H27.5084C27.2877 20.2049 25.6957 18.7512 23.7682 18.7512C21.6904 18.7512 20 20.4399 20 22.5152C20 24.5958 21.6904 26.2883 23.7682 26.2883C25.6928 26.2883 27.2824 24.8356 27.5071 22.9684H28.3373V23.605C28.3373 23.8528 28.5379 24.0533 28.7856 24.0533C29.0334 24.0533 29.2339 23.8528 29.2339 23.605V22.9684H31.3817L31.3804 23.6125C29.9612 24.4965 29.1167 26.434 28.99 29.1218C28.95 29.2443 28.9779 28.4736 28.9383 42.8988C28.191 43.1442 27.6465 43.8404 27.6465 44.6689V46.2443C27.6465 46.492 27.847 46.6926 28.0947 46.6926H38.4791C38.7268 46.6926 38.9273 46.492 38.9273 46.2443V44.6685C38.9273 43.829 38.3681 43.1253 37.6053 42.889L37.6323 36.2137C37.6331 35.9663 37.4335 35.7645 37.1857 35.7637H37.184C36.9371 35.7637 36.7366 35.9634 36.7357 36.2103L36.7092 42.7974H29.8351C29.8508 38.0063 29.8508 30.0678 29.8806 29.2758C29.9769 26.8151 30.7248 25.0239 31.9355 24.3262H34.4711C36.7717 25.5588 36.6877 29.2122 36.737 29.3874L36.7368 33.9714C36.7368 34.2191 36.9373 34.4197 37.185 34.4197C37.4328 34.4197 37.6333 34.2191 37.6333 33.9714L37.6335 29.2741C37.6335 27.3544 36.9028 24.8798 35.2418 23.7474C35.2418 23.7014 35.2428 22.9191 35.2428 22.9676H37.4102V23.6043C37.4102 23.852 37.6107 24.0525 37.8585 24.0525C38.1062 24.0525 38.3067 23.852 38.3067 23.6043V21.4346C38.3067 21.1868 38.1062 20.9863 37.8585 20.9863C37.6107 20.9863 37.4102 21.1868 37.4102 21.4346V22.0712H35.2445L35.2464 20.9899H35.8904C36.1381 20.9899 36.3386 20.7894 36.3386 20.5416C36.3386 20.2939 36.1381 20.0934 35.8904 20.0934C35.8453 20.0934 33.6203 20.091 33.7617 20.0912L33.7619 18.8966H35.0946C35.3423 18.8966 35.5428 18.696 35.5428 18.4483C35.5428 18.2005 35.3423 18 35.0946 18H31.5328C31.2851 18 31.0845 18.2005 31.0845 18.4483C31.0845 18.696 31.2851 18.8966 31.5328 18.8966H32.8651V20.0887C32.82 20.0887 30.5955 20.0933 30.7368 20.0931C30.4891 20.0931 30.2886 20.2937 30.2886 20.5414C30.2886 20.7892 30.4891 20.9897 30.7368 20.9897H31.3852L31.3833 22.071H29.2338V21.4346C29.2338 21.1868 29.0333 20.9863 28.7855 20.9863L28.7856 20.9866ZM38.0305 44.6688V45.7961H28.5428V44.6688C28.5428 44.1317 28.9803 43.6943 29.5174 43.6943H37.0556C37.5928 43.6943 38.0302 44.1315 38.0302 44.6688H38.0305ZM34.3484 20.9904L34.3454 23.4255V23.4285H32.2776L32.2833 20.9897C32.3293 20.9899 34.4828 20.9904 34.3484 20.9904ZM23.7681 25.3915C22.1845 25.3915 20.8964 24.1013 20.8964 22.5151C20.8964 20.9343 22.1845 19.6479 23.7681 19.6479C25.3517 19.6479 26.6402 20.9343 26.6402 22.5151C26.6402 24.1011 25.3517 25.3915 23.7681 25.3915Z" fill="white"/>
<path d="M23.2923 21.3811L22.7771 20.8658C22.6019 20.6906 22.3182 20.6906 22.1431 20.8658C21.9679 21.041 21.9679 21.3247 22.1431 21.4997L22.6505 22.0071C22.278 22.8261 22.8859 23.7422 23.7678 23.7422C24.4455 23.7422 24.9967 23.1897 24.9967 22.51C24.9969 21.6352 24.098 21.0423 23.2923 21.3811L23.2923 21.3811ZM23.7681 22.8456C23.585 22.8456 23.4361 22.695 23.4361 22.5102C23.4361 22.329 23.585 22.1819 23.7681 22.1819C23.9516 22.1819 24.1004 22.329 24.1004 22.5102C24.1002 22.695 23.9514 22.8456 23.7681 22.8456Z" fill="white"/>
</svg>
