<svg width="136" height="136" viewBox="0 0 136 136" fill="none" xmlns="http://www.w3.org/2000/svg">
<path fill-rule="evenodd" clip-rule="evenodd" d="M93.7001 10.596C99.0348 9.16659 104.518 12.3324 105.948 17.6671L125.411 90.3047C126.84 95.6393 123.674 101.123 118.34 102.552L45.7021 122.015C40.3674 123.445 34.884 120.279 33.4546 114.944L13.9914 42.3067C12.562 36.972 15.7278 31.4886 21.0625 30.0592L93.7001 10.596Z" fill="#C5ECDC"/>
<path fill-rule="evenodd" clip-rule="evenodd" d="M60.9289 7.75857C64.8342 3.85333 71.1658 3.85333 75.0711 7.75857L128.245 60.933C132.151 64.8382 132.151 71.1699 128.245 75.0751L75.0711 128.25C71.1658 132.155 64.8342 132.155 60.9289 128.25L7.75451 75.0751C3.84927 71.1699 3.84926 64.8382 7.75451 60.933L60.9289 7.75857Z" fill="#3E9F93"/>
<path d="M61.3592 45.9011C60.8697 45.9011 60.4735 46.2973 60.4735 46.7868V48.0448H58.8356C58.3994 44.3565 55.254 41.4842 51.4455 41.4842C47.34 41.4842 44 44.8209 44 48.9213C44 53.0324 47.34 56.3766 51.4455 56.3766C55.2482 56.3766 58.389 53.5063 58.8331 49.8168H60.4735V51.0748C60.4735 51.5643 60.8697 51.9605 61.3592 51.9605C61.8487 51.9605 62.2449 51.5643 62.2449 51.0748V49.8168H66.4887L66.4862 51.0895C63.6819 52.8362 62.0134 56.6644 61.763 61.9751C61.684 62.2171 61.739 60.6944 61.6609 89.1965C60.1843 89.6814 59.1084 91.0571 59.1084 92.6941V95.8068C59.1084 96.2963 59.5046 96.6926 59.9941 96.6926H80.5121C81.0016 96.6926 81.3978 96.2963 81.3978 95.8068V92.6934C81.3978 91.0345 80.2928 89.6441 78.7856 89.1773L78.839 75.9877C78.8407 75.499 78.4461 75.1003 77.9566 75.0986H77.9533C77.4654 75.0986 77.0692 75.4931 77.0675 75.981L77.015 88.9963H63.4328C63.4639 79.5297 63.4639 63.8444 63.5227 62.2793C63.713 57.4175 65.1908 53.8783 67.5828 52.4998H72.593C77.1385 54.9351 76.9725 62.1537 77.07 62.5L77.0695 71.5572C77.0695 72.0467 77.4658 72.443 77.9553 72.443C78.4448 72.443 78.841 72.0467 78.841 71.5572L78.8414 62.276C78.8414 58.4831 77.3977 53.5935 74.1157 51.356C74.1157 51.2653 74.1178 49.7194 74.1178 49.8153H78.4001V51.0732C78.4001 51.5627 78.7964 51.959 79.2859 51.959C79.7754 51.959 80.1716 51.5627 80.1716 51.0732V46.7862C80.1716 46.2967 79.7754 45.9005 79.2859 45.9005C78.7964 45.9005 78.4001 46.2967 78.4001 46.7862V48.0442H74.1211L74.1249 45.9076H75.3972C75.8867 45.9076 76.2829 45.5114 76.2829 45.0219C76.2829 44.5324 75.8867 44.1362 75.3972 44.1362C75.3081 44.1362 70.9118 44.1316 71.1912 44.132L71.1916 41.7715H73.8248C74.3143 41.7715 74.7105 41.3752 74.7105 40.8857C74.7105 40.3962 74.3143 40 73.8248 40H66.7872C66.2977 40 65.9015 40.3962 65.9015 40.8857C65.9015 41.3752 66.2977 41.7715 66.7872 41.7715H69.4197V44.1269C69.3306 44.1269 64.9352 44.1362 65.2145 44.1357C64.725 44.1357 64.3288 44.532 64.3288 45.0215C64.3288 45.511 64.725 45.9072 65.2145 45.9072H66.4956L66.4918 48.0438H62.2447V46.7862C62.2447 46.2967 61.8485 45.9005 61.359 45.9005L61.3592 45.9011ZM79.6259 92.694V94.9213H60.8794V92.694C60.8794 91.6326 61.7438 90.7683 62.8051 90.7683H77.6996C78.761 90.7683 79.6252 91.6322 79.6252 92.694H79.6259ZM72.3505 45.9086L72.3446 50.72V50.7259H68.2589L68.2702 45.9073C68.361 45.9077 72.616 45.9086 72.3505 45.9086ZM51.4453 54.6046C48.3162 54.6046 45.7712 52.0554 45.7712 48.9213C45.7712 45.7977 48.3162 43.2561 51.4453 43.2561C54.5743 43.2561 57.1202 45.7977 57.1202 48.9213C57.1202 52.055 54.5743 54.6046 51.4453 54.6046Z" fill="white"/>
<path d="M50.505 46.684L49.4869 45.6659C49.1406 45.3197 48.5801 45.3197 48.2343 45.6659C47.8881 46.0122 47.8881 46.5727 48.2343 46.9185L49.2368 47.9211C48.5007 49.5392 49.702 51.3493 51.4444 51.3493C52.7834 51.3493 53.8725 50.2577 53.8725 48.9147C53.873 47.1862 52.0969 46.0147 50.5048 46.6841L50.505 46.684ZM51.4449 49.5777C51.0831 49.5777 50.789 49.2802 50.789 48.9151C50.789 48.5571 51.0831 48.2663 51.4449 48.2663C51.8075 48.2663 52.1016 48.5571 52.1016 48.9151C52.1012 49.2802 51.8071 49.5777 51.4449 49.5777Z" fill="white"/>
</svg>
