<svg width="62" height="62" viewBox="0 0 62 62" fill="none" xmlns="http://www.w3.org/2000/svg">
<rect width="62" height="62" rx="10" fill="#E7F3F2"/>
<path d="M42.7312 25.2644C42.5211 25.2644 42.3171 25.2854 42.1194 25.3256V22.1807C42.1194 21.8338 42.0377 21.4868 41.8824 21.1771L40.5592 18.5302L41.6578 16.3338C41.9603 15.7293 42.1198 15.0525 42.1198 14.3765C42.1198 11.9637 40.1566 10 37.7433 10L24.0489 10.0004C21.636 10.0004 19.6723 11.9637 19.6723 14.377C19.6723 15.0529 19.8319 15.7298 20.1344 16.3342L21.233 18.5306L19.9098 21.1775C19.7549 21.4877 19.6728 21.8346 19.6728 22.1812V25.326C19.4751 25.2858 19.2702 25.2649 19.061 25.2649C17.3728 25.2649 16 26.6381 16 28.3259V38.1211C16 39.3588 17.0071 40.3659 18.2447 40.3659H25.4975L26.0181 42.9704C26.1893 43.8256 26.9465 44.4471 27.8192 44.4471H28.6522V50.5688H24.2696C23.9316 50.5688 23.6578 50.8426 23.6578 51.1805C23.6578 51.5185 23.9316 51.7923 24.2696 51.7923H37.5237C37.8617 51.7923 38.1355 51.5185 38.1355 51.1805C38.1355 50.8426 37.8617 50.5688 37.5237 50.5688H33.1412V44.4471H33.9741C34.8464 44.4471 35.6041 43.8264 35.7752 42.9704L36.2958 40.3659H43.5486C44.7863 40.3659 45.7933 39.3588 45.7933 38.1211L45.7925 28.3255C45.7925 26.6374 44.4192 25.2645 42.731 25.2645L42.7312 25.2644ZM44.5679 28.3254V35.8759H40.8947V28.3254C40.8947 27.3128 41.7186 26.4888 42.7313 26.4888C43.744 26.4888 44.568 27.3127 44.568 28.3254H44.5679ZM22.1217 32.5761C24.7793 31.7971 27.8017 31.3855 30.8961 31.3855C33.9905 31.3855 37.013 31.7971 39.6705 32.5761V35.875L22.1221 35.8754L22.1217 32.5761ZM21.2297 15.7867C21.0124 15.3512 20.8973 14.8639 20.8973 14.3775C20.8973 12.6397 22.3112 11.2258 24.0489 11.2258H37.7434C39.4811 11.2258 40.895 12.6397 40.895 14.3775C40.895 14.8639 40.7799 15.352 40.5626 15.7867L39.4969 17.9185L36.32 17.9181C36.053 16.9769 35.1859 16.2851 34.1612 16.2851H27.6315C26.606 16.2851 25.7397 16.9769 25.4727 17.9181H22.2967L21.2297 15.7867ZM35.1815 18.5303C35.1815 19.0933 34.7237 19.5506 34.1611 19.5506H27.6314C27.0684 19.5506 26.6111 19.0928 26.6111 18.5303C26.6111 17.9673 27.0689 17.5099 27.6314 17.5099H34.1611C34.7241 17.5099 35.1815 17.9681 35.1815 18.5303ZM20.8978 22.1808C20.8978 22.0234 20.9355 21.8651 21.0057 21.7243L22.2964 19.1425H25.4724C25.7394 20.0837 26.6065 20.7754 27.6312 20.7754H34.1609C35.1864 20.7754 36.0526 20.0837 36.3197 19.1425H39.4957L40.7864 21.7243C40.8566 21.8655 40.8943 22.0229 40.8943 22.1808V25.8784C40.1516 26.4371 39.6698 27.3266 39.6698 28.3255V31.3044C36.9861 30.557 33.9726 30.1621 30.8954 30.1621C27.8181 30.1621 24.8046 30.5565 22.1209 31.3044V28.3255C22.1209 27.3266 21.6397 26.4372 20.8965 25.8784L20.8961 22.1808H20.8978ZM19.0612 26.4889C20.0738 26.4889 20.8978 27.3128 20.8978 28.3255V35.876H17.2246V28.3255C17.2246 27.3129 18.0486 26.4889 19.0613 26.4889H19.0612ZM31.9167 50.568H29.8764V44.4464H31.9167V50.568ZM34.5743 42.7301C34.517 43.015 34.265 43.2221 33.9741 43.2221H27.8191C27.5282 43.2221 27.2758 43.015 27.2189 42.7301L26.7462 40.3655H35.0479L34.5743 42.7301ZM44.5685 38.1204C44.5685 38.6834 44.1107 39.1407 43.5481 39.1407H18.2446C17.6816 39.1407 17.2242 38.6829 17.2242 38.1204V37.1H44.5682L44.5685 38.1204Z" fill="#0E8778"/>
<path d="M27.6295 27.3059H34.1592C35.3969 27.3059 36.4039 26.2988 36.4039 25.0611C36.4039 23.8234 35.3969 22.8164 34.1592 22.8164H27.6295C26.3918 22.8164 25.3848 23.8235 25.3848 25.0611C25.3848 26.2988 26.3923 27.3059 27.6295 27.3059ZM27.6295 24.0412H34.1592C34.7222 24.0412 35.1795 24.4989 35.1795 25.0615C35.1795 25.6245 34.7218 26.0818 34.1592 26.0818H27.6295C27.0665 26.0818 26.6092 25.6241 26.6092 25.0615C26.6096 24.4985 27.0669 24.0412 27.6295 24.0412Z" fill="#0E8778"/>
<path d="M19.059 30.1628C19.397 30.1628 19.6708 29.889 19.6708 29.551V28.3266C19.6708 27.9886 19.397 27.7148 19.059 27.7148C18.7211 27.7148 18.4473 27.9886 18.4473 28.3266V29.551C18.4468 29.889 18.7211 30.1628 19.059 30.1628Z" fill="#0E8778"/>
<path d="M42.7309 30.1628C43.0689 30.1628 43.3427 29.889 43.3427 29.551V28.3266C43.3427 27.9886 43.0689 27.7148 42.7309 27.7148C42.3929 27.7148 42.1191 27.9886 42.1191 28.3266V29.551C42.1191 29.889 42.3929 30.1628 42.7309 30.1628Z" fill="#0E8778"/>
</svg>
