<svg width="44" height="44" viewBox="0 0 44 44" fill="none" xmlns="http://www.w3.org/2000/svg">
<rect width="44" height="44" rx="10" fill="#E7F3F2"/>
<path d="M30.3255 17.9285C30.1764 17.9285 30.0316 17.9434 29.8914 17.9719V15.7401C29.8914 15.4939 29.8334 15.2477 29.7232 15.0278L28.7841 13.1494L29.5637 11.5906C29.7784 11.1616 29.8916 10.6813 29.8916 10.2016C29.8916 8.4893 28.4984 7.0957 26.7857 7.0957L17.0671 7.09601C15.3548 7.09601 13.9612 8.48929 13.9612 10.2019C13.9612 10.6816 14.0744 11.162 14.2891 11.5909L15.0687 13.1497L14.1297 15.0281C14.0197 15.2483 13.9614 15.4945 13.9614 15.7404V17.9723C13.8212 17.9437 13.6758 17.9288 13.5273 17.9288C12.3293 17.9288 11.355 18.9034 11.355 20.1011V27.0526C11.355 27.931 12.0697 28.6457 12.948 28.6457H18.0951L18.4646 30.494C18.5861 31.1009 19.1235 31.542 19.7428 31.542H20.3339V35.8864H17.2237C16.9839 35.8864 16.7896 36.0807 16.7896 36.3206C16.7896 36.5604 16.9839 36.7548 17.2237 36.7548H26.6299C26.8697 36.7548 27.064 36.5604 27.064 36.3206C27.064 36.0807 26.8697 35.8864 26.6299 35.8864H23.5197V31.542H24.1108C24.7299 31.542 25.2676 31.1015 25.389 30.494L25.7585 28.6457H30.9056C31.784 28.6457 32.4986 27.931 32.4986 27.0526L32.498 20.1009C32.498 18.9029 31.5234 17.9286 30.3254 17.9286L30.3255 17.9285ZM31.6289 20.1008V25.4592H29.0222V20.1008C29.0222 19.3822 29.6069 18.7974 30.3256 18.7974C31.0443 18.7974 31.629 19.3822 31.629 20.1008H31.6289ZM15.6994 23.1175C17.5855 22.5646 19.7304 22.2725 21.9264 22.2725C24.1224 22.2725 26.2675 22.5646 28.1534 23.1175V25.4586L15.6997 25.4589L15.6994 23.1175ZM15.0664 11.2024C14.9121 10.8933 14.8305 10.5475 14.8305 10.2023C14.8305 8.96905 15.8339 7.96563 17.0671 7.96563H26.7857C28.019 7.96563 29.0224 8.96905 29.0224 10.2023C29.0224 10.5475 28.9407 10.8939 28.7865 11.2024L28.0302 12.7153L25.7756 12.715C25.5861 12.047 24.9708 11.5561 24.2436 11.5561H19.6096C18.8818 11.5561 18.2671 12.047 18.0776 12.715H15.8236L15.0664 11.2024ZM24.9676 13.1494C24.9676 13.549 24.6428 13.8735 24.2435 13.8735H19.6095C19.21 13.8735 18.8854 13.5487 18.8854 13.1494C18.8854 12.7499 19.2103 12.4253 19.6095 12.4253H24.2435C24.6431 12.4253 24.9676 12.7505 24.9676 13.1494ZM14.8309 15.7401C14.8309 15.6284 14.8576 15.5161 14.9074 15.4162L15.8234 13.5839H18.0774C18.2668 14.2519 18.8822 14.7428 19.6094 14.7428H24.2434C24.9711 14.7428 25.5859 14.2518 25.7754 13.5839H28.0294L28.9454 15.4162C28.9951 15.5164 29.0219 15.6281 29.0219 15.7401V18.3643C28.4948 18.7608 28.1529 19.392 28.1529 20.1009V22.2149C26.2484 21.6845 24.1097 21.4043 21.9259 21.4043C19.742 21.4043 17.6034 21.6842 15.6989 22.2149V20.1009C15.6989 19.392 15.3573 18.7608 14.8299 18.3643L14.8296 15.7401H14.8309ZM13.5274 18.7975C14.2461 18.7975 14.8309 19.3822 14.8309 20.1009V25.4593H12.2241V20.1009C12.2241 19.3823 12.8088 18.7975 13.5275 18.7975H13.5274ZM22.6507 35.8859H21.2028V31.5415H22.6507V35.8859ZM24.5367 30.3235C24.4961 30.5257 24.3172 30.6727 24.1108 30.6727H19.7428C19.5363 30.6727 19.3572 30.5257 19.3168 30.3235L18.9813 28.6454H24.8729L24.5367 30.3235ZM31.6294 27.0521C31.6294 27.4516 31.3045 27.7762 30.9053 27.7762H12.9479C12.5483 27.7762 12.2238 27.4513 12.2238 27.0521V26.328H31.6292L31.6294 27.0521Z" fill="#0E8778"/>
<path d="M19.6082 19.3775H24.2422C25.1205 19.3775 25.8352 18.6628 25.8352 17.7844C25.8352 16.9061 25.1205 16.1914 24.2422 16.1914H19.6082C18.7298 16.1914 18.0151 16.9061 18.0151 17.7844C18.0151 18.6628 18.7301 19.3775 19.6082 19.3775ZM19.6082 17.0606H24.2422C24.6417 17.0606 24.9663 17.3855 24.9663 17.7847C24.9663 18.1843 24.6414 18.5088 24.2422 18.5088H19.6082C19.2086 18.5088 18.8841 18.1839 18.8841 17.7847C18.8844 17.3852 19.2089 17.0606 19.6082 17.0606Z" fill="#0E8778"/>
<path d="M13.526 21.4052C13.7658 21.4052 13.9601 21.2109 13.9601 20.9711V20.1021C13.9601 19.8623 13.7658 19.668 13.526 19.668C13.2861 19.668 13.0918 19.8623 13.0918 20.1021V20.9711C13.0915 21.2109 13.2861 21.4052 13.526 21.4052Z" fill="#0E8778"/>
<path d="M30.3253 21.4052C30.5651 21.4052 30.7594 21.2109 30.7594 20.9711V20.1021C30.7594 19.8623 30.5651 19.668 30.3253 19.668C30.0854 19.668 29.8911 19.8623 29.8911 20.1021V20.9711C29.8911 21.2109 30.0854 21.4052 30.3253 21.4052Z" fill="#0E8778"/>
</svg>
