<svg width="62" height="62" viewBox="0 0 62 62" fill="none" xmlns="http://www.w3.org/2000/svg">
<rect width="62" height="62" rx="10" fill="#E7F3F2"/>
<path d="M16.5819 53.2947C20.7626 53.2947 24.1639 49.8935 24.1639 45.7127L24.1635 39.576C24.1635 35.5822 21.0575 32.3075 17.1351 32.0222V26.1013C17.1351 25.5447 17.5879 25.0918 18.1446 25.0918H26.274V50.2532C26.274 51.9177 27.6285 53.2723 29.2935 53.2723H50.2529C51.9182 53.2723 53.2724 51.9177 53.2724 50.2528V12.0191C53.2724 10.3542 51.9182 9 50.2529 9H29.2935C27.6285 9 26.274 10.3542 26.274 12.0191V23.9846H18.1446C16.9776 23.9846 16.0284 24.9339 16.0284 26.1008V32.0217C12.106 32.3074 9 35.582 9 39.5758V45.7129C9 49.8936 12.4009 53.2945 16.582 53.2945L16.5819 53.2947ZM41.5782 33.6774H37.5573V28.5108H41.5782V33.6774ZM36.4505 33.6774H32.43V28.5108H36.4505V33.6774ZM31.3233 33.6774H27.3808V28.5108H31.3233V33.6774ZM27.3808 34.7841H31.3233V39.9511H27.3808V34.7841ZM32.4304 34.7841H36.4509V39.9511H32.4304V34.7841ZM37.5573 34.7841H41.5782V39.9511H37.5573V34.7841ZM41.5782 41.0578V46.2247H37.5573V41.0578H41.5782ZM41.5782 21.1301H37.5573V15.9632H41.5782V21.1301ZM41.5782 22.2368V27.4038H37.5573V22.2368H41.5782ZM36.4505 27.4038H32.43V22.2368H36.4505V27.4038ZM31.3233 27.4038H27.3808V22.2368H31.3233V27.4038ZM27.3808 41.0572H31.3233V46.2242H27.3808V41.0572ZM32.4304 41.0572H36.4509V46.2242H32.4304V41.0572ZM36.4505 47.3309V52.1651H32.43V47.3309H36.4505ZM37.5573 47.3309H41.5782V52.1651H37.5573V47.3309ZM41.5782 14.8557H37.5573V10.1056H41.5782V14.8557ZM36.4505 14.8557H32.43L32.4304 10.1056H36.4509L36.4505 14.8557ZM36.4505 15.9624V21.1293H32.43V15.9624H36.4505ZM31.3233 21.1293H27.3808V15.9624H31.3233V21.1293ZM27.3808 50.2525V47.3311H31.3233V52.1653H29.2936C28.2393 52.1653 27.3809 51.3072 27.3809 50.2526L27.3808 50.2525ZM52.1656 12.0188V50.2525C52.1656 51.3071 51.3074 52.1652 50.2529 52.1652H42.6848V10.1061H50.2532C51.3075 10.1061 52.1657 10.9643 52.1657 12.0185L52.1656 12.0188ZM29.293 10.1064H31.3227V14.8564H27.3802V12.0187C27.3802 10.9645 28.2387 10.1063 29.2929 10.1063L29.293 10.1064ZM23.0494 39.4381H18.6058V38.4243C18.6058 37.5014 17.9812 36.7289 17.1346 36.4865V33.1285C20.4008 33.4068 22.9791 36.1175 23.0494 39.4382V39.4381ZM16.5815 37.5068C17.0872 37.5068 17.4991 37.9183 17.4991 38.4244V40.1677C17.4991 40.6738 17.0872 41.0853 16.5815 41.0853C16.0758 41.0853 15.6639 40.6738 15.6639 40.1677V38.4244C15.6635 37.9183 16.0754 37.5068 16.5815 37.5068ZM16.0279 33.1284V36.4864C15.1818 36.7289 14.5567 37.5013 14.5567 38.4242V39.438H10.1132C10.1834 36.1173 12.7617 33.4067 16.0279 33.1283V33.1284ZM10.1063 40.5452H14.595C14.7726 41.4813 15.594 42.1924 16.5815 42.1924C17.569 42.1924 18.3905 41.4813 18.5681 40.5452H23.0568V45.7125C23.0568 49.2829 20.1519 52.1874 16.5819 52.1874C13.0112 52.1874 10.1064 49.2829 10.1064 45.7125L10.1063 40.5452Z" fill="#0E8778"/>
<path d="M17.6982 50.6508C17.7577 50.6508 17.8175 50.6416 17.877 50.6211C18.0287 50.5694 21.6021 49.3117 21.6021 46.0926C21.6021 45.7869 21.3547 45.5391 21.0485 45.5391C20.7428 45.5391 20.495 45.7869 20.495 46.0926C20.495 48.5161 17.5473 49.5638 17.5175 49.5739C17.2288 49.6735 17.0755 49.9885 17.1747 50.2768C17.2546 50.5065 17.4685 50.6509 17.6982 50.6509L17.6982 50.6508Z" fill="#0E8778"/>
<path d="M47.4044 42.6412C48.8613 42.6412 50.0472 41.4557 50.0472 39.9985V22.1896C50.0472 20.7324 48.8613 19.5469 47.4044 19.5469C45.9476 19.5469 44.7617 20.7324 44.7617 22.1896V39.9985C44.7617 41.4557 45.9472 42.6412 47.4044 42.6412ZM45.8684 22.1898C45.8684 21.3429 46.5575 20.6538 47.4044 20.6538C48.2514 20.6538 48.9404 21.3429 48.9404 22.1898V39.9987C48.9404 40.8456 48.2514 41.5347 47.4044 41.5347C46.5575 41.5347 45.8684 40.8456 45.8684 39.9987V22.1898Z" fill="#0E8778"/>
</svg>
