<svg width="44" height="44" viewBox="0 0 44 44" fill="none" xmlns="http://www.w3.org/2000/svg">
<rect width="44" height="44" rx="10" fill="#E7F3F2"/>
<path d="M11.7677 37.8217C14.7346 37.8217 17.1484 35.4079 17.1484 32.4409L17.1482 28.0858C17.1482 25.2515 14.9439 22.9275 12.1603 22.7251V18.5231C12.1603 18.1281 12.4816 17.8067 12.8767 17.8067H18.6459V35.6632C18.6459 36.8445 19.6072 37.8058 20.7888 37.8058H35.6632C36.8451 37.8058 37.8061 36.8445 37.8061 35.6629V8.52933C37.8061 7.34774 36.8451 6.38672 35.6632 6.38672H20.7888C19.6072 6.38672 18.6459 7.34774 18.6459 8.52933V17.021H12.8767C12.0485 17.021 11.3749 17.6946 11.3749 18.5228V22.7247C8.59123 22.9274 6.38696 25.2514 6.38696 28.0857V32.4411C6.38696 35.408 8.8005 37.8216 11.7677 37.8216L11.7677 37.8217ZM29.507 23.8997H26.6534V20.2331H29.507V23.8997ZM25.868 23.8997H23.0147V20.2331H25.868V23.8997ZM22.2293 23.8997H19.4314V20.2331H22.2293V23.8997ZM19.4314 24.6851H22.2293V28.352H19.4314V24.6851ZM23.015 24.6851H25.8683V28.352H23.015V24.6851ZM26.6534 24.6851H29.507V28.352H26.6534V24.6851ZM29.507 29.1374V32.8043H26.6534V29.1374H29.507ZM29.507 14.9952H26.6534V11.3283H29.507V14.9952ZM29.507 15.7806V19.4475H26.6534V15.7806H29.507ZM25.868 19.4475H23.0147V15.7806H25.868V19.4475ZM22.2293 19.4475H19.4314V15.7806H22.2293V19.4475ZM19.4314 29.137H22.2293V32.8039H19.4314V29.137ZM23.015 29.137H25.8683V32.8039H23.015V29.137ZM25.868 33.5893V37.02H23.0147V33.5893H25.868ZM26.6534 33.5893H29.507V37.02H26.6534V33.5893ZM29.507 10.5423H26.6534V7.17136H29.507V10.5423ZM25.868 10.5423H23.0147L23.015 7.17136H25.8683L25.868 10.5423ZM25.868 11.3278V14.9946H23.0147V11.3278H25.868ZM22.2293 14.9946H19.4314V11.3278H22.2293V14.9946ZM19.4314 35.6627V33.5894H22.2293V37.0201H20.7889C20.0407 37.0201 19.4315 36.4111 19.4315 35.6627L19.4314 35.6627ZM37.0206 8.52912V35.6627C37.0206 36.4111 36.4116 37.0201 35.6632 37.0201H30.2923V7.17171H35.6635C36.4116 7.17171 37.0207 7.78071 37.0207 8.52891L37.0206 8.52912ZM20.7884 7.17192H22.2289V10.5429H19.431V8.52905C19.431 7.78088 20.0402 7.17185 20.7884 7.17185L20.7884 7.17192ZM16.3575 27.9879H13.204V27.2685C13.204 26.6135 12.7607 26.0653 12.1599 25.8933V23.5102C14.4779 23.7077 16.3076 25.6314 16.3575 27.988V27.9879ZM11.7674 26.6173C12.1263 26.6173 12.4186 26.9094 12.4186 27.2685V28.5057C12.4186 28.8649 12.1263 29.1569 11.7674 29.1569C11.4085 29.1569 11.1162 28.8649 11.1162 28.5057V27.2685C11.1159 26.9094 11.4082 26.6173 11.7674 26.6173ZM11.3745 23.5101V25.8932C10.774 26.0653 10.3305 26.6135 10.3305 27.2684V27.9879H7.17696C7.22682 25.6313 9.05658 23.7076 11.3745 23.51V23.5101ZM7.17205 28.7736H10.3576C10.4836 29.438 11.0666 29.9426 11.7674 29.9426C12.4682 29.9426 13.0512 29.438 13.1772 28.7736H16.3628V32.4408C16.3628 34.9746 14.3012 37.0359 11.7677 37.0359C9.23359 37.0359 7.17212 34.9746 7.17212 32.4408L7.17205 28.7736Z" fill="#0E8778"/>
<path d="M12.5599 35.9461C12.6021 35.9461 12.6446 35.9395 12.6868 35.925C12.7944 35.8883 15.3304 34.9957 15.3304 32.7112C15.3304 32.4942 15.1548 32.3184 14.9376 32.3184C14.7206 32.3184 14.5447 32.4942 14.5447 32.7112C14.5447 34.4311 12.4528 35.1746 12.4317 35.1818C12.2268 35.2524 12.118 35.476 12.1884 35.6806C12.2451 35.8436 12.3969 35.9461 12.5599 35.9461L12.5599 35.9461Z" fill="#0E8778"/>
<path d="M33.6418 30.2606C34.6757 30.2606 35.5173 29.4193 35.5173 28.3851V15.7466C35.5173 14.7124 34.6757 13.8711 33.6418 13.8711C32.6079 13.8711 31.7664 14.7124 31.7664 15.7466V28.3851C31.7664 29.4193 32.6077 30.2606 33.6418 30.2606ZM32.5518 15.7467C32.5518 15.1457 33.0408 14.6566 33.6418 14.6566C34.2429 14.6566 34.7319 15.1457 34.7319 15.7467V28.3853C34.7319 28.9863 34.2429 29.4754 33.6418 29.4754C33.0408 29.4754 32.5518 28.9863 32.5518 28.3853V15.7467Z" fill="#0E8778"/>
</svg>
