<svg width="62" height="62" viewBox="0 0 62 62" fill="none" xmlns="http://www.w3.org/2000/svg">
<rect width="62" height="62" rx="10" fill="#E7F3F2"/>
<path d="M50.6839 29.6633V29.4695L48.6174 18.2326C48.5529 17.8452 48.1655 17.6514 47.8423 17.7159L45.001 18.4261C44.9365 18.4261 44.8719 18.4907 44.8071 18.4907C44.6781 18.4261 44.6133 18.3616 44.4843 18.3616H38.8016C38.4142 18.3616 38.1558 18.62 38.1558 19.0074V29.5981H24.5946V26.8213H31.6335C32.7315 26.8213 33.7001 25.9172 33.7001 24.7547V13.0665C33.7001 11.9686 32.7959 11 31.6335 11L12.2605 11.0003C11.1625 11.0003 10.194 11.9044 10.194 13.0668V24.8205C10.194 25.9185 11.0981 26.887 12.2605 26.887H19.2994V29.6638L10.6457 29.6635C10.2584 29.6635 10 29.9219 10 30.3093V33.3445C10 33.7318 10.2584 33.9902 10.6457 33.9902H11.5499V50.1347C11.5499 50.522 11.8082 50.7804 12.1956 50.7804H14.4557C14.8431 50.7804 15.1014 50.522 15.1014 50.1347V33.9902H36.1542V50.1347C36.1542 50.522 36.4126 50.7804 36.8 50.7804H49.199C49.5864 50.7804 49.8448 50.522 49.8448 50.1347V33.9902H50.6846C51.072 33.9902 51.3304 33.7319 51.3304 33.3445V30.3093C51.3304 29.9219 51.072 29.6635 50.6846 29.6635L50.6839 29.6633ZM47.4549 19.202L49.3921 29.6633H47.713L45.8403 19.5894L47.4549 19.202ZM46.4218 29.6633H45.0658L45.0655 22.366L46.4218 29.6633ZM43.774 29.6633H42.2242V19.718H43.774V29.6633ZM39.3828 19.718H40.9327V29.6633H39.3828V19.718ZM12.2603 12.2917H31.5047C31.8921 12.2917 32.2798 12.6146 32.2798 13.0668V22.3012H11.5497V13.066C11.5497 12.6141 11.8726 12.2912 12.2603 12.2912L12.2603 12.2917ZM11.5498 24.8201V23.5286H32.2791V24.8201C32.2791 25.2075 31.9562 25.5952 31.5039 25.5952H12.2596C11.8722 25.5952 11.5493 25.2724 11.5493 24.8201H11.5498ZM20.5908 26.8867H23.2386V29.6635H20.5908V26.8867ZM13.8102 49.489H12.8413V33.99H13.81L13.8102 49.489ZM37.3815 49.489V42.3855H48.4889V49.489H37.3815ZM48.4889 41.0941H37.3815V33.9906H48.4889V41.0941ZM50.0388 32.6992H11.292V30.9555H50.0388V32.6992Z" fill="#0E8778"/>
<path d="M41.0617 38.5782H44.8072C45.1946 38.5782 45.4529 38.3199 45.4529 37.9325L45.4532 36.0598C45.4532 35.6724 45.1949 35.4141 44.8075 35.4141C44.4201 35.4141 44.1617 35.6724 44.1617 36.0598V37.2868H41.7078L41.7075 36.0598C41.7075 35.6724 41.4492 35.4141 41.0618 35.4141C40.6744 35.4141 40.416 35.6724 40.416 36.0598V37.9325C40.416 38.3199 40.7389 38.5782 41.0618 38.5782H41.0617Z" fill="#0E8778"/>
<path d="M44.8072 44.8398C44.4198 44.8398 44.1614 45.0982 44.1614 45.4856V46.7126H41.7075V45.4856C41.7075 45.0982 41.4492 44.8398 41.0618 44.8398C40.6744 44.8398 40.416 45.0982 40.416 45.4856V47.3583C40.416 47.7457 40.6744 48.004 41.0618 48.004H44.8072C45.1946 48.004 45.453 47.7457 45.453 47.3583V45.4856C45.4533 45.1627 45.1949 44.8398 44.8072 44.8398H44.8072Z" fill="#0E8778"/>
</svg>
