<svg width="44" height="44" viewBox="0 0 44 44" fill="none" xmlns="http://www.w3.org/2000/svg">
<rect width="44" height="44" rx="10" fill="#E7F3F2"/>
<path d="M35.9693 21.0514V20.9138L34.5027 12.9393C34.4569 12.6643 34.182 12.5268 33.9526 12.5726L31.9362 13.0766C31.8904 13.0766 31.8446 13.1224 31.7986 13.1224C31.707 13.0766 31.661 13.0308 31.5695 13.0308H27.5366C27.2617 13.0308 27.0783 13.2142 27.0783 13.4891V21.0051H17.4542V19.0345H22.4496C23.2288 19.0345 23.9162 18.3928 23.9162 17.5679V9.27303C23.9162 8.49383 23.2745 7.80645 22.4496 7.80645L8.70099 7.80666C7.9218 7.80666 7.23442 8.44829 7.23442 9.27324V17.6145C7.23442 18.3937 7.87605 19.0811 8.70099 19.0811H13.6964V21.0517L7.55504 21.0515C7.28013 21.0515 7.09677 21.2349 7.09677 21.5098V23.6638C7.09677 23.9387 7.28012 24.1221 7.55504 24.1221H8.19667V35.5794C8.19667 35.8543 8.38002 36.0377 8.65494 36.0377H10.2589C10.5338 36.0377 10.7171 35.8544 10.7171 35.5794V24.1221H25.6578V35.5794C25.6578 35.8543 25.8412 36.0377 26.1161 36.0377H34.9154C35.1903 36.0377 35.3737 35.8544 35.3737 35.5794V24.1221H35.9697C36.2447 24.1221 36.428 23.9387 36.428 23.6638V21.5098C36.428 21.2349 36.2447 21.0515 35.9697 21.0515L35.9693 21.0514ZM33.6777 13.6272L35.0525 21.0514H33.8608L32.5318 13.9022L33.6777 13.6272ZM32.9445 21.0514H31.9822L31.982 15.8726L32.9445 21.0514ZM31.0654 21.0514H29.9655V13.9934H31.0654V21.0514ZM27.9491 13.9934H29.049V21.0514H27.9491V13.9934ZM8.70086 8.72313H22.3582C22.6331 8.72313 22.9082 8.95226 22.9082 9.2732V15.8267H8.19659V9.27266C8.19659 8.95196 8.42572 8.7228 8.70085 8.7228L8.70086 8.72313ZM8.19659 17.6143V16.6977H22.9077V17.6143C22.9077 17.8892 22.6786 18.1644 22.3576 18.1644H8.70032C8.42541 18.1644 8.19627 17.9352 8.19627 17.6143H8.19659ZM14.6129 19.0809H16.4919V21.0515H14.6129V19.0809ZM9.80079 35.1213H9.1132V24.1219H9.80063L9.80079 35.1213ZM26.5288 35.1213V30.0801H34.4115V35.1213H26.5288ZM34.4115 29.1636H26.5288V24.1224H34.4115V29.1636ZM35.5114 23.2059H8.01365V21.9684H35.5114V23.2059Z" fill="#0E8778"/>
<path d="M29.1407 27.3782H31.7988C32.0737 27.3782 32.2571 27.1948 32.2571 26.9199L32.2573 25.5909C32.2573 25.316 32.0739 25.1326 31.799 25.1326C31.5241 25.1326 31.3407 25.316 31.3407 25.5909V26.4616H29.5992L29.599 25.5909C29.599 25.316 29.4157 25.1326 29.1407 25.1326C28.8658 25.1326 28.6825 25.316 28.6825 25.5909V26.9199C28.6825 27.1948 28.9116 27.3782 29.1407 27.3782H29.1407Z" fill="#0E8778"/>
<path d="M31.7988 31.8221C31.5239 31.8221 31.3405 32.0054 31.3405 32.2803V33.1511H29.599V32.2803C29.599 32.0054 29.4157 31.8221 29.1407 31.8221C28.8658 31.8221 28.6825 32.0054 28.6825 32.2803V33.6094C28.6825 33.8843 28.8658 34.0676 29.1407 34.0676H31.7988C32.0737 34.0676 32.2571 33.8843 32.2571 33.6094V32.2803C32.2573 32.0512 32.0739 31.8221 31.7988 31.8221H31.7988Z" fill="#0E8778"/>
</svg>
