<svg width="44" height="44" viewBox="0 0 44 44" fill="none" xmlns="http://www.w3.org/2000/svg">
<rect width="44" height="44" rx="10" fill="#E7F3F2"/>
<path d="M31.9617 9.22461H11.3296C10.5837 9.22545 9.8684 9.52208 9.34113 10.0496C8.8136 10.5769 8.51697 11.2923 8.51611 12.0381V32.6702C8.51695 33.416 8.81358 34.1313 9.34113 34.6586C9.86844 35.1861 10.5838 35.4828 11.3296 35.4836H31.9617C32.7075 35.4828 33.4228 35.1862 33.9501 34.6586C34.4776 34.1313 34.7743 33.416 34.7751 32.6702V12.0381C34.7743 11.2922 34.4777 10.5769 33.9501 10.0496C33.4228 9.5221 32.7075 9.22547 31.9617 9.22461ZM33.8373 32.6702C33.8369 33.1675 33.6391 33.6442 33.2874 33.9959C32.9357 34.3475 32.459 34.5454 31.9617 34.5458H11.3296C10.8322 34.5454 10.3555 34.3476 10.0039 33.9959C9.65222 33.6442 9.45436 33.1675 9.45394 32.6702V12.0381C9.45435 11.5407 9.65217 11.064 10.0039 10.7124C10.3556 10.3607 10.8322 10.1629 11.3296 10.1624H31.9617C32.459 10.1629 32.9357 10.3607 33.2874 10.7124C33.639 11.0641 33.8369 11.5407 33.8373 12.0381V32.6702Z" fill="#0E8778"/>
<path d="M29.2787 12.377H14.0125C13.3908 12.3776 12.7948 12.6248 12.3554 13.0644C11.9158 13.5038 11.6686 14.0998 11.668 14.7215V29.9876C11.6686 30.6094 11.9158 31.2054 12.3554 31.6447C12.7948 32.0843 13.3908 32.3316 14.0125 32.3322H29.2787C29.9004 32.3316 30.4964 32.0843 30.9358 31.6447C31.3754 31.2054 31.6226 30.6094 31.6232 29.9876V14.7215C31.6226 14.0998 31.3754 13.5038 30.9358 13.0644C30.4964 12.6248 29.9004 12.3776 29.2787 12.377ZM30.6854 29.9876V29.9874C30.685 30.3605 30.5368 30.718 30.273 30.9818C30.0092 31.2456 29.6517 31.3938 29.2786 31.3942H14.0125C13.6395 31.3938 13.2819 31.2456 13.0181 30.9818C12.7544 30.718 12.6062 30.3605 12.6058 29.9874V14.7213C12.6062 14.3483 12.7544 13.9907 13.0181 13.7269C13.2819 13.4632 13.6395 13.315 14.0125 13.3145H29.2786C29.6517 13.315 30.0092 13.4632 30.273 13.7269C30.5368 13.9907 30.685 14.3483 30.6854 14.7213V29.9876Z" fill="#0E8778"/>
<path d="M28.3885 14.6719H14.9027C14.654 14.6723 14.4157 14.7711 14.2399 14.9469C14.0641 15.1228 13.9653 15.361 13.9648 15.6097V29.0956C13.9653 29.3443 14.0641 29.5825 14.2399 29.7583C14.4157 29.9341 14.654 30.033 14.9027 30.0334H28.3885C28.6372 30.033 28.8754 29.9342 29.0513 29.7583C29.2271 29.5825 29.3259 29.3442 29.3263 29.0956V15.6097C29.3259 15.361 29.2271 15.1228 29.0513 14.9469C28.8754 14.7711 28.6372 14.6723 28.3885 14.6719ZM14.9027 15.6097H21.1764V29.0956H14.9027V15.6097ZM28.3885 29.0956H22.1148V15.6097H28.3885V29.0956Z" fill="#0E8778"/>
<path d="M19.1733 27.2168H16.9093C16.6504 27.2168 16.4404 27.4268 16.4404 27.6857C16.4404 27.9447 16.6504 28.1546 16.9093 28.1546H19.1733C19.4322 28.1546 19.6422 27.9447 19.6422 27.6857C19.6422 27.4268 19.4322 27.2168 19.1733 27.2168Z" fill="#0E8778"/>
<path d="M24.1198 28.1546H26.3837C26.6427 28.1546 26.8527 27.9447 26.8527 27.6857C26.8527 27.4268 26.6427 27.2168 26.3837 27.2168H24.1198C23.8608 27.2168 23.6509 27.4268 23.6509 27.6857C23.6509 27.9447 23.8608 28.1546 24.1198 28.1546Z" fill="#0E8778"/>
</svg>
