<svg width="62" height="62" viewBox="0 0 62 62" fill="none" xmlns="http://www.w3.org/2000/svg">
<rect width="62" height="62" rx="10" fill="#E7F3F2"/>
<path d="M45.0369 13H15.9644C14.9134 13.0012 13.9055 13.4192 13.1625 14.1625C12.4192 14.9056 12.0012 15.9135 12 16.9644V46.0369C12.0012 47.0879 12.4192 48.0959 13.1625 48.8388C13.9056 49.5822 14.9135 50.0001 15.9644 50.0013H45.0369C46.0879 50.0002 47.0958 49.5822 47.8388 48.8388C48.5822 48.0958 49.0001 47.0878 49.0013 46.0369V16.9644C49.0002 15.9134 48.5822 14.9055 47.8388 14.1625C47.0958 13.4192 46.0878 13.0012 45.0369 13ZM47.6799 46.0369C47.6793 46.7378 47.4005 47.4094 46.905 47.905C46.4094 48.4005 45.7378 48.6793 45.0369 48.6799H15.9644C15.2636 48.6793 14.5919 48.4005 14.0964 47.905C13.6009 47.4094 13.3221 46.7378 13.3215 46.0369V16.9644C13.3221 16.2636 13.6008 15.5919 14.0964 15.0964C14.592 14.6009 15.2636 14.3221 15.9644 14.3215H45.0369C45.7378 14.3221 46.4094 14.6008 46.905 15.0964C47.4005 15.592 47.6793 16.2636 47.6799 16.9644V46.0369Z" fill="#0E8778"/>
<path d="M41.2565 17.4414H19.7451C18.869 17.4423 18.0292 17.7907 17.4101 18.4101C16.7906 19.0292 16.4423 19.869 16.4414 20.7451V42.2565C16.4423 43.1326 16.7907 43.9723 17.4101 44.5915C18.0292 45.2109 18.869 45.5593 19.7451 45.5602H41.2565C42.1326 45.5593 42.9723 45.2109 43.5915 44.5915C44.2109 43.9723 44.5593 43.1326 44.5602 42.2565V20.7451C44.5593 19.869 44.2109 19.0292 43.5915 18.4101C42.9723 17.7906 42.1326 17.4423 41.2565 17.4414ZM43.2387 42.2565V42.2562C43.2381 42.7818 43.0293 43.2856 42.6576 43.6573C42.2859 44.029 41.7821 44.2378 41.2564 44.2384H19.7451C19.2194 44.2378 18.7156 44.029 18.3439 43.6573C17.9723 43.2856 17.7634 42.7818 17.7628 42.2562V20.7448C17.7634 20.2192 17.9723 19.7153 18.3439 19.3437C18.7156 18.972 19.2194 18.7632 19.7451 18.7626H41.2564C41.7821 18.7632 42.2859 18.972 42.6576 19.3437C43.0293 19.7153 43.2381 20.2192 43.2387 20.7448V42.2565Z" fill="#0E8778"/>
<path d="M40.002 20.6758H20.9992C20.6488 20.6764 20.3131 20.8156 20.0653 21.0634C19.8176 21.3111 19.6783 21.6468 19.6777 21.9972V41.0001C19.6783 41.3505 19.8176 41.6862 20.0653 41.9339C20.3131 42.1817 20.6488 42.3209 20.9992 42.3215H40.002C40.3525 42.3209 40.6881 42.1817 40.9359 41.9339C41.1837 41.6862 41.3229 41.3505 41.3235 41.0001V21.9972C41.3229 21.6468 41.1837 21.3111 40.9359 21.0634C40.6881 20.8156 40.3524 20.6764 40.002 20.6758ZM20.9992 21.9973H29.8395V41.0001H20.9992V21.9973ZM40.002 41.0001H31.1617V21.9973H40.002V41.0001Z" fill="#0E8778"/>
<path d="M27.0169 38.3516H23.8268C23.4619 38.3516 23.166 38.6474 23.166 39.0123C23.166 39.3772 23.4619 39.673 23.8268 39.673H27.0169C27.3818 39.673 27.6776 39.3772 27.6776 39.0123C27.6776 38.6474 27.3818 38.3516 27.0169 38.3516Z" fill="#0E8778"/>
<path d="M33.9869 39.673H37.177C37.5419 39.673 37.8378 39.3772 37.8378 39.0123C37.8378 38.6474 37.5419 38.3516 37.177 38.3516H33.9869C33.622 38.3516 33.3262 38.6474 33.3262 39.0123C33.3262 39.3772 33.622 39.673 33.9869 39.673Z" fill="#0E8778"/>
</svg>
