<svg width="44" height="44" viewBox="0 0 44 44" fill="none" xmlns="http://www.w3.org/2000/svg">
<rect width="44" height="44" rx="10" fill="#E7F3F2"/>
<path d="M31.2995 15.5495H20.3402C20.1076 15.5495 19.9187 15.3605 19.9187 15.128V12.1774C19.9187 11.9448 20.1076 11.7559 20.3402 11.7559H31.2995C31.5325 11.7559 31.721 11.9448 31.721 12.1774V15.128C31.721 15.3605 31.5325 15.5495 31.2995 15.5495ZM20.7612 14.7064H30.8775V12.5989H20.7612V14.7064Z" fill="#269385"/>
<path d="M22.8693 18.922H20.3402C20.1076 18.922 19.9187 18.7331 19.9187 18.5005V17.236C19.9187 17.0034 20.1076 16.8145 20.3402 16.8145H22.8693C23.1022 16.8145 23.2908 17.0034 23.2908 17.236V18.5005C23.2908 18.7331 23.1022 18.922 22.8693 18.922ZM20.7617 18.079H22.4478V17.6575H20.7617V18.079Z" fill="#269385"/>
<path d="M27.0844 18.922H24.5553C24.3223 18.922 24.1338 18.7331 24.1338 18.5005V17.236C24.1338 17.0034 24.3223 16.8145 24.5553 16.8145H27.0844C27.3173 16.8145 27.5059 17.0034 27.5059 17.236V18.5005C27.5059 18.7331 27.3173 18.922 27.0844 18.922ZM24.9768 18.079H26.6629V17.6575H24.9768V18.079Z" fill="#269385"/>
<path d="M31.2997 18.922H28.7706C28.5377 18.922 28.3491 18.7331 28.3491 18.5005V17.236C28.3491 17.0034 28.5377 16.8145 28.7706 16.8145H31.2997C31.5327 16.8145 31.7212 17.0034 31.7212 17.236V18.5005C31.7212 18.7331 31.5327 18.922 31.2997 18.922ZM29.1921 18.079H30.8782V17.6575H29.1921V18.079Z" fill="#269385"/>
<path d="M22.8693 21.8693H20.3402C20.1076 21.8693 19.9187 21.6804 19.9187 21.4478V20.1832C19.9187 19.9506 20.1076 19.7617 20.3402 19.7617H22.8693C23.1022 19.7617 23.2908 19.9506 23.2908 20.1832V21.4478C23.2908 21.6804 23.1022 21.8693 22.8693 21.8693ZM20.7617 21.0263H22.4478V20.6047H20.7617V21.0263Z" fill="#269385"/>
<path d="M27.0844 21.8693H24.5553C24.3223 21.8693 24.1338 21.6804 24.1338 21.4478V20.1832C24.1338 19.9506 24.3223 19.7617 24.5553 19.7617H27.0844C27.3173 19.7617 27.5059 19.9506 27.5059 20.1832V21.4478C27.5059 21.6804 27.3173 21.8693 27.0844 21.8693ZM24.9768 21.0263H26.6629V20.6047H24.9768V21.0263Z" fill="#269385"/>
<path d="M31.2997 21.8693H28.7706C28.5377 21.8693 28.3491 21.6804 28.3491 21.4478V20.1832C28.3491 19.9506 28.5377 19.7617 28.7706 19.7617H31.2997C31.5327 19.7617 31.7212 19.9506 31.7212 20.1832V21.4478C31.7212 21.6804 31.5327 21.8693 31.2997 21.8693ZM29.1921 21.0263H30.8782V20.6047H29.1921V21.0263Z" fill="#269385"/>
<path d="M22.8693 24.8204H20.3402C20.1076 24.8204 19.9187 24.6319 19.9187 24.3989V23.1344C19.9187 22.9014 20.1076 22.7129 20.3402 22.7129H22.8693C23.1022 22.7129 23.2908 22.9014 23.2908 23.1344V24.3989C23.2908 24.6319 23.1022 24.8204 22.8693 24.8204ZM20.7617 23.9774H22.4478V23.5559H20.7617V23.9774Z" fill="#269385"/>
<path d="M27.0844 24.8204H24.5553C24.3223 24.8204 24.1338 24.6319 24.1338 24.3989V23.1344C24.1338 22.9014 24.3223 22.7129 24.5553 22.7129H27.0844C27.3173 22.7129 27.5059 22.9014 27.5059 23.1344V24.3989C27.5059 24.6319 27.3173 24.8204 27.0844 24.8204ZM24.9768 23.9774H26.6629V23.5559H24.9768V23.9774Z" fill="#269385"/>
<path d="M31.2997 24.8204H28.7706C28.5377 24.8204 28.3491 24.6319 28.3491 24.3989V23.1344C28.3491 22.9014 28.5377 22.7129 28.7706 22.7129H31.2997C31.5327 22.7129 31.7212 22.9014 31.7212 23.1344V24.3989C31.7212 24.6319 31.5327 24.8204 31.2997 24.8204ZM29.1921 23.9774H30.8782V23.5559H29.1921V23.9774Z" fill="#269385"/>
<path d="M22.8693 27.7716H20.3402C20.1076 27.7716 19.9187 27.5831 19.9187 27.3501V26.0856C19.9187 25.8526 20.1076 25.6641 20.3402 25.6641H22.8693C23.1022 25.6641 23.2908 25.8526 23.2908 26.0856V27.3501C23.2908 27.5831 23.1022 27.7716 22.8693 27.7716ZM20.7617 26.9286H22.4478V26.5071H20.7617V26.9286Z" fill="#269385"/>
<path d="M27.0844 27.7716H24.5553C24.3223 27.7716 24.1338 27.5831 24.1338 27.3501V26.0856C24.1338 25.8526 24.3223 25.6641 24.5553 25.6641H27.0844C27.3173 25.6641 27.5059 25.8526 27.5059 26.0856V27.3501C27.5059 27.5831 27.3173 27.7716 27.0844 27.7716ZM24.9768 26.9286H26.6629V26.5071H24.9768V26.9286Z" fill="#269385"/>
<path d="M31.2997 27.7716H28.7706C28.5377 27.7716 28.3491 27.5831 28.3491 27.3501V26.0856C28.3491 25.8526 28.5377 25.6641 28.7706 25.6641H31.2997C31.5327 25.6641 31.7212 25.8526 31.7212 26.0856V27.3501C31.7212 27.5831 31.5327 27.7716 31.2997 27.7716ZM29.1921 26.9286H30.8782V26.5071H29.1921V26.9286Z" fill="#269385"/>
<path d="M31.2993 9.22704H20.34C18.9452 9.22704 17.811 10.3613 17.811 11.7561V29.8806C17.811 31.2754 18.9452 32.4097 20.34 32.4097H23.2906V33.2527H14.0174V31.9882H14.4389C15.8337 31.9882 16.9679 30.8539 16.9679 29.4591V11.7556C16.9679 10.3608 15.8337 9.22656 14.4389 9.22656H13.1743C11.7795 9.22656 10.6453 10.3608 10.6453 11.7556V29.4591C10.6453 30.8539 11.7795 31.9882 13.1743 31.9882V33.2527C13.1743 33.7175 13.5526 34.0958 14.0174 34.0958H23.2906C23.7554 34.0958 24.1336 33.7175 24.1336 33.2527V32.4097H31.2993C32.6941 32.4097 33.8284 31.2754 33.8284 29.8806V11.7561C33.8284 10.3613 32.6941 9.22704 31.2993 9.22704ZM11.4888 16.8143H16.1254V24.823H11.4888V16.8143ZM13.1748 10.0701H14.4394C15.3693 10.0701 16.1254 10.8262 16.1254 11.7561V15.9712H11.4888V11.7561C11.4888 10.8262 12.2449 10.0701 13.1748 10.0701ZM11.4888 29.4596V25.666H16.1254V29.4596C16.1254 30.3896 15.3693 31.1457 14.4394 31.1457H13.1748C12.2449 31.1457 11.4888 30.3896 11.4888 29.4596ZM32.9854 29.8811C32.9854 30.8111 32.2293 31.5672 31.2993 31.5672H20.34C19.4101 31.5672 18.654 30.8111 18.654 29.8811V11.7566C18.654 10.8266 19.4101 10.0706 20.34 10.0706H31.2993C32.2293 10.0706 32.9854 10.8266 32.9854 11.7566V29.8811Z" fill="#269385"/>
</svg>
