<svg width="62" height="62" viewBox="0 0 62 62" fill="none" xmlns="http://www.w3.org/2000/svg">
<path d="M45.1411 21.536H28.6179C28.2673 21.536 27.9824 21.2511 27.9824 20.9004V16.4519C27.9824 16.1012 28.2673 15.8164 28.6179 15.8164H45.1411C45.4923 15.8164 45.7766 16.1012 45.7766 16.4519V20.9004C45.7766 21.2511 45.4923 21.536 45.1411 21.536ZM29.2527 20.2649H44.5048V17.0874H29.2527V20.2649Z" fill="#0E8778"/>
<path d="M32.431 26.6189H28.6179C28.2673 26.6189 27.9824 26.3341 27.9824 25.9834V24.0769C27.9824 23.7262 28.2673 23.4414 28.6179 23.4414H32.431C32.7822 23.4414 33.0665 23.7262 33.0665 24.0769V25.9834C33.0665 26.3341 32.7822 26.6189 32.431 26.6189ZM29.2534 25.3479H31.7955V24.7124H29.2534V25.3479Z" fill="#0E8778"/>
<path d="M38.7826 26.6188H34.9695C34.6183 26.6188 34.334 26.3339 34.334 25.9832V24.0767C34.334 23.7261 34.6183 23.4412 34.9695 23.4412H38.7826C39.1338 23.4412 39.4181 23.7261 39.4181 24.0767V25.9832C39.4181 26.3339 39.1338 26.6188 38.7826 26.6188ZM35.605 25.3477H38.147V24.7122H35.605V25.3477Z" fill="#0E8778"/>
<path d="M45.1399 26.6189H41.3269C40.9757 26.6189 40.6914 26.3341 40.6914 25.9834V24.0769C40.6914 23.7262 40.9757 23.4414 41.3269 23.4414H45.1399C45.4912 23.4414 45.7754 23.7262 45.7754 24.0769V25.9834C45.7754 26.3341 45.4912 26.6189 45.1399 26.6189ZM41.9624 25.3479H44.5044V24.7124H41.9624V25.3479Z" fill="#0E8778"/>
<path d="M32.431 31.0682H28.6179C28.2673 31.0682 27.9824 30.7833 27.9824 30.4326V28.5261C27.9824 28.1755 28.2673 27.8906 28.6179 27.8906H32.431C32.7822 27.8906 33.0665 28.1755 33.0665 28.5261V30.4326C33.0665 30.7833 32.7822 31.0682 32.431 31.0682ZM29.2534 29.7971H31.7955V29.1616H29.2534V29.7971Z" fill="#0E8778"/>
<path d="M38.7825 31.0682H34.9695C34.6183 31.0682 34.334 30.7833 34.334 30.4326V28.5261C34.334 28.1755 34.6183 27.8906 34.9695 27.8906H38.7825C39.1338 27.8906 39.418 28.1755 39.418 28.5261V30.4326C39.418 30.7833 39.1338 31.0682 38.7825 31.0682ZM35.605 29.7971H38.147V29.1616H35.605V29.7971Z" fill="#0E8778"/>
<path d="M45.1399 31.0682H41.3269C40.9757 31.0682 40.6914 30.7833 40.6914 30.4326V28.5261C40.6914 28.1755 40.9757 27.8906 41.3269 27.8906H45.1399C45.4912 27.8906 45.7754 28.1755 45.7754 28.5261V30.4326C45.7754 30.7833 45.4912 31.0682 45.1399 31.0682ZM41.9624 29.7971H44.5044V29.1616H41.9624V29.7971Z" fill="#0E8778"/>
<path d="M32.431 35.5135H28.6179C28.2673 35.5135 27.9824 35.2292 27.9824 34.878V32.9714C27.9824 32.6202 28.2673 32.3359 28.6179 32.3359H32.431C32.7822 32.3359 33.0665 32.6202 33.0665 32.9714V34.878C33.0665 35.2292 32.7822 35.5135 32.431 35.5135ZM29.2534 34.2425H31.7955V33.6069H29.2534V34.2425Z" fill="#0E8778"/>
<path d="M38.7825 35.5135H34.9695C34.6183 35.5135 34.334 35.2292 34.334 34.878V32.9714C34.334 32.6202 34.6183 32.3359 34.9695 32.3359H38.7825C39.1338 32.3359 39.418 32.6202 39.418 32.9714V34.878C39.418 35.2292 39.1338 35.5135 38.7825 35.5135ZM35.605 34.2425H38.147V33.6069H35.605V34.2425Z" fill="#0E8778"/>
<path d="M45.1399 35.5135H41.3269C40.9757 35.5135 40.6914 35.2292 40.6914 34.878V32.9714C40.6914 32.6202 40.9757 32.3359 41.3269 32.3359H45.1399C45.4912 32.3359 45.7754 32.6202 45.7754 32.9714V34.878C45.7754 35.2292 45.4912 35.5135 45.1399 35.5135ZM41.9624 34.2425H44.5044V33.6069H41.9624V34.2425Z" fill="#0E8778"/>
<path d="M32.431 39.9627H28.6179C28.2673 39.9627 27.9824 39.6784 27.9824 39.3272V37.4207C27.9824 37.0694 28.2673 36.7852 28.6179 36.7852H32.431C32.7822 36.7852 33.0665 37.0694 33.0665 37.4207V39.3272C33.0665 39.6784 32.7822 39.9627 32.431 39.9627ZM29.2534 38.6917H31.7955V38.0562H29.2534V38.6917Z" fill="#0E8778"/>
<path d="M38.7826 39.9626H34.9695C34.6183 39.9626 34.334 39.6784 34.334 39.3271V37.4206C34.334 37.0694 34.6183 36.7851 34.9695 36.7851H38.7826C39.1338 36.7851 39.4181 37.0694 39.4181 37.4206V39.3271C39.4181 39.6784 39.1338 39.9626 38.7826 39.9626ZM35.605 38.6916H38.147V38.0561H35.605V38.6916Z" fill="#0E8778"/>
<path d="M45.1399 39.9627H41.3269C40.9757 39.9627 40.6914 39.6784 40.6914 39.3272V37.4207C40.6914 37.0694 40.9757 36.7852 41.3269 36.7852H45.1399C45.4912 36.7852 45.7754 37.0694 45.7754 37.4207V39.3272C45.7754 39.6784 45.4912 39.9627 45.1399 39.9627ZM41.9624 38.6917H44.5044V38.0562H41.9624V38.6917Z" fill="#0E8778"/>
<rect width="62" height="62" rx="10" fill="#E7F3F2"/>
<path d="M44.1038 21.911H28.6611C28.3334 21.911 28.0672 21.6448 28.0672 21.3171V17.1594C28.0672 16.8317 28.3334 16.5655 28.6611 16.5655H44.1038C44.4321 16.5655 44.6977 16.8317 44.6977 17.1594V21.3171C44.6977 21.6448 44.4321 21.911 44.1038 21.911ZM29.2544 20.7231H43.5092V17.7534H29.2544V20.7231Z" fill="#269385"/>
<path d="M32.2248 26.6628H28.6611C28.3334 26.6628 28.0672 26.3966 28.0672 26.0688V24.287C28.0672 23.9593 28.3334 23.693 28.6611 23.693H32.2248C32.5531 23.693 32.8188 23.9593 32.8188 24.287V26.0688C32.8188 26.3966 32.5531 26.6628 32.2248 26.6628ZM29.2551 25.4749H31.6309V24.8809H29.2551V25.4749Z" fill="#269385"/>
<path d="M38.1645 26.6628H34.6008C34.2725 26.6628 34.0068 26.3966 34.0068 26.0688V24.287C34.0068 23.9593 34.2725 23.693 34.6008 23.693H38.1645C38.4927 23.693 38.7584 23.9593 38.7584 24.287V26.0688C38.7584 26.3966 38.4927 26.6628 38.1645 26.6628ZM35.1947 25.4749H37.5705V24.8809H35.1947V25.4749Z" fill="#269385"/>
<path d="M44.1041 26.6628H40.5404C40.2121 26.6628 39.9464 26.3966 39.9464 26.0688V24.287C39.9464 23.9593 40.2121 23.693 40.5404 23.693H44.1041C44.4323 23.693 44.698 23.9593 44.698 24.287V26.0688C44.698 26.3966 44.4323 26.6628 44.1041 26.6628ZM41.1343 25.4749H43.5101V24.8809H41.1343V25.4749Z" fill="#269385"/>
<path d="M32.2248 30.8163H28.6611C28.3334 30.8163 28.0672 30.55 28.0672 30.2223V28.4405C28.0672 28.1127 28.3334 27.8465 28.6611 27.8465H32.2248C32.5531 27.8465 32.8188 28.1127 32.8188 28.4405V30.2223C32.8188 30.55 32.5531 30.8163 32.2248 30.8163ZM29.2551 29.6284H31.6309V29.0344H29.2551V29.6284Z" fill="#269385"/>
<path d="M38.1645 30.8163H34.6008C34.2725 30.8163 34.0068 30.55 34.0068 30.2223V28.4405C34.0068 28.1127 34.2725 27.8465 34.6008 27.8465H38.1645C38.4927 27.8465 38.7584 28.1127 38.7584 28.4405V30.2223C38.7584 30.55 38.4927 30.8163 38.1645 30.8163ZM35.1947 29.6284H37.5705V29.0344H35.1947V29.6284Z" fill="#269385"/>
<path d="M44.1041 30.8163H40.5404C40.2121 30.8163 39.9464 30.55 39.9464 30.2223V28.4405C39.9464 28.1127 40.2121 27.8465 40.5404 27.8465H44.1041C44.4323 27.8465 44.698 28.1127 44.698 28.4405V30.2223C44.698 30.55 44.4323 30.8163 44.1041 30.8163ZM41.1343 29.6284H43.5101V29.0344H41.1343V29.6284Z" fill="#269385"/>
<path d="M32.2248 34.9766H28.6611C28.3334 34.9766 28.0672 34.7109 28.0672 34.3826V32.6008C28.0672 32.2725 28.3334 32.0068 28.6611 32.0068H32.2248C32.5531 32.0068 32.8188 32.2725 32.8188 32.6008V34.3826C32.8188 34.7109 32.5531 34.9766 32.2248 34.9766ZM29.2551 33.7887H31.6309V33.1947H29.2551V33.7887Z" fill="#269385"/>
<path d="M38.1645 34.9766H34.6008C34.2725 34.9766 34.0068 34.7109 34.0068 34.3826V32.6008C34.0068 32.2725 34.2725 32.0068 34.6008 32.0068H38.1645C38.4927 32.0068 38.7584 32.2725 38.7584 32.6008V34.3826C38.7584 34.7109 38.4927 34.9766 38.1645 34.9766ZM35.1947 33.7887H37.5705V33.1947H35.1947V33.7887Z" fill="#269385"/>
<path d="M44.1041 34.9766H40.5404C40.2121 34.9766 39.9464 34.7109 39.9464 34.3826V32.6008C39.9464 32.2725 40.2121 32.0068 40.5404 32.0068H44.1041C44.4323 32.0068 44.698 32.2725 44.698 32.6008V34.3826C44.698 34.7109 44.4323 34.9766 44.1041 34.9766ZM41.1343 33.7887H43.5101V33.1947H41.1343V33.7887Z" fill="#269385"/>
<path d="M32.2248 39.1334H28.6611C28.3334 39.1334 28.0672 38.8678 28.0672 38.5395V36.7577C28.0672 36.4294 28.3334 36.1637 28.6611 36.1637H32.2248C32.5531 36.1637 32.8188 36.4294 32.8188 36.7577V38.5395C32.8188 38.8678 32.5531 39.1334 32.2248 39.1334ZM29.2551 37.9456H31.6309V37.3516H29.2551V37.9456Z" fill="#269385"/>
<path d="M38.1645 39.1334H34.6008C34.2725 39.1334 34.0068 38.8678 34.0068 38.5395V36.7577C34.0068 36.4294 34.2725 36.1637 34.6008 36.1637H38.1645C38.4927 36.1637 38.7584 36.4294 38.7584 36.7577V38.5395C38.7584 38.8678 38.4927 39.1334 38.1645 39.1334ZM35.1947 37.9456H37.5705V37.3516H35.1947V37.9456Z" fill="#269385"/>
<path d="M44.1041 39.1334H40.5404C40.2121 39.1334 39.9464 38.8678 39.9464 38.5395V36.7577C39.9464 36.4294 40.2121 36.1637 40.5404 36.1637H44.1041C44.4323 36.1637 44.698 36.4294 44.698 36.7577V38.5395C44.698 38.8678 44.4323 39.1334 44.1041 39.1334ZM41.1343 37.9456H43.5101V37.3516H41.1343V37.9456Z" fill="#269385"/>
<path d="M44.1035 13.0007H28.6608C26.6954 13.0007 25.0971 14.599 25.0971 16.5644V42.1035C25.0971 44.0689 26.6954 45.6672 28.6608 45.6672H32.8185V46.8551H19.7516V45.0732H20.3455C22.3109 45.0732 23.9092 43.4749 23.9092 41.5095V16.5637C23.9092 14.5983 22.3109 13 20.3455 13H18.5637C16.5983 13 15 14.5983 15 16.5637V41.5095C15 43.4749 16.5983 45.0732 18.5637 45.0732V46.8551C18.5637 47.51 19.0967 48.043 19.7516 48.043H32.8185C33.4734 48.043 34.0064 47.51 34.0064 46.8551V45.6672H44.1035C46.0689 45.6672 47.6672 44.0689 47.6672 42.1035V16.5644C47.6672 14.599 46.0689 13.0007 44.1035 13.0007ZM16.1886 23.6918H22.722V34.9768H16.1886V23.6918ZM18.5644 14.1886H20.3462C21.6566 14.1886 22.722 15.254 22.722 16.5644V22.5039H16.1886V16.5644C16.1886 15.254 17.254 14.1886 18.5644 14.1886ZM16.1886 41.5102V36.1647H22.722V41.5102C22.722 42.8206 21.6566 43.886 20.3462 43.886H18.5644C17.254 43.886 16.1886 42.8206 16.1886 41.5102ZM46.4793 42.1042C46.4793 43.4145 45.4139 44.4799 44.1035 44.4799H28.6608C27.3504 44.4799 26.285 43.4145 26.285 42.1042V16.565C26.285 15.2547 27.3504 14.1893 28.6608 14.1893H44.1035C45.4139 14.1893 46.4793 15.2547 46.4793 16.565V42.1042Z" fill="#269385"/>
</svg>
