<svg width="44" height="44" viewBox="0 0 44 44" fill="none" xmlns="http://www.w3.org/2000/svg">
<rect width="44" height="44" rx="10" fill="#E7F3F2"/>
<path d="M25.466 21.504C25.864 21.5035 26.2455 21.3452 26.5271 21.0637C26.8085 20.7821 26.9669 20.4006 26.9673 20.0026V15.2757C27.0816 15.2098 27.1889 15.1329 27.2878 15.046H28.4576C28.9901 15.046 29.482 14.7619 29.7483 14.3008C30.0144 13.8397 30.0144 13.2716 29.7483 12.8105C29.482 12.3494 28.9901 12.0653 28.4576 12.0653H27.2884C27.1893 11.978 27.0817 11.9006 26.9673 11.8343V10.0634C27.2436 10.0204 27.4956 9.88024 27.6779 9.66801C27.86 9.45577 27.9604 9.18566 27.9609 8.90599V8.26996C27.9606 7.95925 27.8369 7.66117 27.6171 7.4414C27.3973 7.22163 27.0993 7.09788 26.7886 7.09766H8.26898C7.95828 7.09788 7.6602 7.22163 7.44043 7.4414C7.22065 7.66118 7.0969 7.95924 7.09668 8.26996V8.90599C7.09712 9.18565 7.19758 9.45577 7.37966 9.66801C7.56196 9.88025 7.81389 10.0204 8.09024 10.0634V20.2077C8.09069 20.5513 8.22752 20.8808 8.47058 21.1239C8.71364 21.367 9.0432 21.5038 9.38674 21.5042H11.5055C11.6803 21.8493 11.8794 22.1813 12.1017 22.4978H11.0709C10.5987 22.4982 10.1545 22.7224 9.87374 23.1021C9.59298 23.4818 9.50893 23.9721 9.64709 24.4239C9.78503 24.8754 10.129 25.2349 10.5741 25.3928V25.4784C10.5743 27.7028 11.6395 29.7927 13.4392 31.0999L12.5699 36.3253C12.5459 36.4692 12.586 36.6162 12.6801 36.7276C12.7741 36.8391 12.9123 36.9037 13.058 36.9041H21.9998C22.146 36.9041 22.2846 36.8398 22.3791 36.7282C22.4733 36.6169 22.5139 36.4694 22.4897 36.3253L21.6204 31.0999C23.4194 29.7923 24.484 27.7025 24.4837 25.4784V25.3928C24.9288 25.2349 25.2728 24.8754 25.4107 24.4239C25.5489 23.9721 25.4648 23.4818 25.1841 23.1021C24.9033 22.7225 24.4591 22.4982 23.9869 22.4978H22.9579C23.1804 22.1813 23.3795 21.8493 23.554 21.5042L25.466 21.504ZM25.9738 20.0026C25.9734 20.2829 25.7463 20.51 25.466 20.5104H23.9757C24.3119 19.5526 24.4835 18.5449 24.4835 17.5298C24.4835 14.1194 22.594 11.2041 19.9505 10.0783H25.9736V11.5686H25.8612C25.1513 11.5888 24.5059 11.986 24.1684 12.6107C23.8309 13.2356 23.8524 13.993 24.2247 14.5977C24.5971 15.2025 25.2637 15.5629 25.9736 15.5427L25.9738 20.0026ZM27.084 13.0592H28.4577C28.732 13.0592 28.9544 13.2816 28.9544 13.5559C28.9544 13.8303 28.732 14.0527 28.4577 14.0527H27.084C26.9421 14.052 26.8064 14.1121 26.7115 14.2179C26.4901 14.4648 26.1599 14.5847 25.8317 14.5379C25.5032 14.4911 25.2198 14.2833 25.0763 13.9844C24.9328 13.6854 24.9479 13.3344 25.1167 13.0489C25.2854 12.7633 25.5855 12.5808 25.9166 12.5624H25.9732C26.2562 12.5624 26.5256 12.683 26.7141 12.8939C26.8084 12.999 26.943 13.0591 27.084 13.0591L27.084 13.0592ZM8.26866 9.085C8.16997 9.085 8.08992 9.00493 8.08992 8.90625V8.27021C8.08992 8.22298 8.10877 8.17729 8.14226 8.1438C8.17574 8.11031 8.22143 8.09146 8.26867 8.09146H26.7882C26.8869 8.09146 26.967 8.17153 26.967 8.27021V8.90625C26.967 9.00494 26.8869 9.08499 26.7882 9.08499L8.26866 9.085ZM11.0805 20.5107H9.38637C9.21915 20.5103 9.08387 20.375 9.08343 20.2078V10.0788H15.1065C12.4619 11.2045 10.5735 14.1199 10.5735 17.5303C10.5731 18.5454 10.7445 19.5531 11.0803 20.5109L11.0805 20.5107ZM13.6437 35.9106L14.3516 31.6645C16.3456 32.6893 18.7114 32.6893 20.7052 31.6645L21.4131 35.9106H13.6437ZM17.5285 31.4396C15.9479 31.4379 14.4328 30.8092 13.3153 29.6916C12.1977 28.5741 11.569 27.059 11.5673 25.4784H23.4897C23.488 27.059 22.8593 28.5741 21.7417 29.6916C20.6242 30.8092 19.1091 31.4379 17.5285 31.4396ZM23.9865 23.4913C24.2608 23.4913 24.4833 23.7138 24.4833 23.9881C24.4833 24.2624 24.2608 24.4849 23.9865 24.4849H11.0705C10.7962 24.4849 10.5737 24.2624 10.5737 23.9881C10.5737 23.7138 10.7962 23.4913 11.0705 23.4913H23.9865ZM22.7898 20.8008C22.51 21.4166 22.1414 21.9881 21.6965 22.4978H13.3604C12.9155 21.9881 12.547 21.4166 12.2671 20.8008C11.8031 19.7729 11.5645 18.6578 11.5672 17.5301C11.5672 13.695 14.2417 10.5753 17.5284 10.5753C20.8151 10.5753 23.4896 13.695 23.4896 17.5301C23.4923 18.6578 23.2537 19.7729 22.7897 20.8008H22.7898Z" fill="#0E8778"/>
<path d="M15.3072 12.1257C14.4148 12.6025 13.6603 13.3545 13.1258 14.299C12.9906 14.5374 13.0739 14.8404 13.3121 14.9759C13.5505 15.1112 13.8535 15.0278 13.989 14.7896C14.4312 14.0078 15.0477 13.39 15.7736 13.0019C15.896 12.9436 15.9894 12.8378 16.0317 12.709C16.0743 12.5801 16.0621 12.4397 15.9985 12.32C15.9348 12.2002 15.8251 12.1119 15.6944 12.0751C15.5638 12.0385 15.4241 12.0567 15.3072 12.1257L15.3072 12.1257Z" fill="#0E8778"/>
<path d="M13.0909 15.5553C12.9627 15.524 12.8274 15.5446 12.7148 15.6129C12.6021 15.6814 12.5211 15.7917 12.4897 15.9199C12.4038 16.2722 12.3464 16.6311 12.3184 16.9928C12.2969 17.2664 12.5012 17.5055 12.7749 17.5268H12.8139C13.0738 17.5277 13.2905 17.3279 13.3107 17.0686C13.3346 16.7606 13.3834 16.4548 13.4566 16.1544C13.5209 15.8881 13.3572 15.62 13.0909 15.5552L13.0909 15.5553Z" fill="#0E8778"/>
<path d="M36.4064 22.9942H35.4129V22.0007C35.4129 21.8689 35.3605 21.7425 35.2674 21.6494C35.1742 21.5562 35.0478 21.5039 34.9161 21.5039H28.9549C28.6805 21.5039 28.4581 21.7263 28.4581 22.0007V22.9942H27.4645C27.1902 22.9942 26.9678 23.2167 26.9678 23.491V25.4781C26.9678 25.6098 27.0201 25.7362 27.1133 25.8294C27.2064 25.9225 27.3328 25.9748 27.4645 25.9748H28.4581V26.9684C28.4581 27.1001 28.5104 27.2265 28.6036 27.3197C28.6967 27.4128 28.8231 27.4651 28.9549 27.4651H29.4516V31.9361C29.4516 32.0678 29.504 32.1942 29.5971 32.2874C29.6902 32.3805 29.8167 32.4328 29.9484 32.4328H33.9225C34.0543 32.4328 34.1807 32.3805 34.2738 32.2874C34.367 32.1942 34.4193 32.0678 34.4193 31.9361V27.4651H34.9161C35.0478 27.4651 35.1742 27.4128 35.2674 27.3197C35.3605 27.2265 35.4129 27.1001 35.4129 26.9684V25.9748H36.4064C36.5381 25.9748 36.6645 25.9225 36.7577 25.8294C36.8508 25.7362 36.9032 25.6098 36.9032 25.4781V23.491C36.9032 23.3593 36.8508 23.2328 36.7577 23.1397C36.6645 23.0466 36.5381 22.9942 36.4064 22.9942ZM28.4581 24.9813H27.9613V23.9878H28.4581V24.9813ZM33.4258 31.4393H30.4452V30.4458H33.4258V31.4393ZM33.4258 29.4522H30.4452V27.4651H33.4258V29.4522ZM34.4193 26.4716H29.4516V22.4974H34.4193V26.4716ZM35.9096 24.9813H35.4129V23.9878H35.9096V24.9813Z" fill="#0E8778"/>
</svg>
