<svg width="62" height="62" viewBox="0 0 62 62" fill="none" xmlns="http://www.w3.org/2000/svg">
<rect width="62" height="62" rx="10" fill="#E7F3F2"/>
<path d="M35.884 30.2998C36.4449 30.2992 36.9824 30.076 37.3793 29.6795C37.7758 29.2826 37.9989 28.7451 37.9996 28.1842V21.5236C38.1605 21.4308 38.3117 21.3224 38.4511 21.1999H40.0995C40.8498 21.1999 41.5429 20.7996 41.9182 20.1499C42.2932 19.5002 42.2932 18.6996 41.9182 18.0499C41.5429 17.4002 40.8498 16.9999 40.0995 16.9999H38.452C38.3123 16.8768 38.1608 16.7677 37.9995 16.6743V14.179C38.3889 14.1184 38.7439 13.9209 39.0008 13.6219C39.2573 13.3228 39.3989 12.9422 39.3995 12.5481V11.6519C39.3992 11.2141 39.2248 10.794 38.9152 10.4844C38.6055 10.1747 38.1855 10.0003 37.7476 10H11.6519C11.2141 10.0003 10.794 10.1747 10.4844 10.4844C10.1747 10.7941 10.0003 11.2141 10 11.6519V12.5481C10.0006 12.9422 10.1422 13.3228 10.3987 13.6219C10.6556 13.9209 11.0106 14.1184 11.4 14.179V28.4733C11.4006 28.9574 11.5935 29.4217 11.936 29.7643C12.2784 30.1068 12.7428 30.2996 13.2269 30.3002H16.2125C16.4587 30.7864 16.7393 31.2543 17.0525 31.7002H15.6C14.9347 31.7008 14.3087 32.0167 13.9131 32.5518C13.5175 33.0868 13.3991 33.7777 13.5938 34.4142C13.7881 35.0505 14.2728 35.557 14.9 35.7795V35.9001C14.9003 39.0345 16.4013 41.9794 18.9372 43.8213L17.7122 51.1844C17.6785 51.3872 17.735 51.5944 17.8675 51.7513C18 51.9084 18.1947 51.9994 18.4 52H30.9999C31.2058 52 31.4011 51.9094 31.5343 51.7522C31.6671 51.5953 31.7243 51.3875 31.6902 51.1844L30.4652 43.8213C33.0003 41.9789 34.5003 39.0342 34.4999 35.9001V35.7795C35.1271 35.557 35.6118 35.0504 35.8062 34.4142C36.0008 33.7777 35.8824 33.0867 35.4868 32.5518C35.0912 32.0168 34.4652 31.7008 33.7999 31.7002H32.3499C32.6634 31.2542 32.944 30.7864 33.1899 30.3002L35.884 30.2998ZM36.5996 28.1842C36.599 28.5792 36.279 28.8992 35.884 28.8998H33.784C34.2578 27.5502 34.4996 26.1302 34.4996 24.6999C34.4996 19.8943 31.8372 15.7863 28.1122 14.2H36.5993V16.2999H36.4408C35.4405 16.3284 34.5312 16.8881 34.0556 17.7683C33.58 18.649 33.6103 19.7161 34.135 20.5683C34.6596 21.4204 35.599 21.9283 36.5993 21.8999L36.5996 28.1842ZM38.164 18.4003H40.0996C40.4861 18.4003 40.7996 18.7137 40.7996 19.1003C40.7996 19.4868 40.4861 19.8003 40.0996 19.8003H38.164C37.964 19.7993 37.7727 19.884 37.639 20.0331C37.3271 20.3809 36.8618 20.55 36.3993 20.484C35.9365 20.4181 35.5372 20.1253 35.3349 19.704C35.1327 19.2828 35.154 18.7881 35.3918 18.3859C35.6296 17.9834 36.0524 17.7262 36.519 17.7003H36.5987C36.9974 17.7003 37.3771 17.8703 37.6428 18.1674C37.7756 18.3156 37.9653 18.4003 38.164 18.4003L38.164 18.4003ZM11.6514 12.8003C11.5124 12.8003 11.3996 12.6875 11.3996 12.5485V11.6522C11.3996 11.5857 11.4261 11.5213 11.4733 11.4741C11.5205 11.4269 11.5849 11.4004 11.6514 11.4004H37.7472C37.8863 11.4004 37.9991 11.5132 37.9991 11.6522V12.5485C37.9991 12.6875 37.8863 12.8003 37.7472 12.8003L11.6514 12.8003ZM15.6136 28.9002H13.2264C12.9908 28.8996 12.8001 28.709 12.7995 28.4733V14.2007H21.2866C17.5601 15.7869 14.8992 19.895 14.8992 24.7006C14.8985 26.1309 15.1401 27.5509 15.6132 28.9005L15.6136 28.9002ZM19.2254 50.6L20.2229 44.6169C23.0325 46.061 26.3663 46.061 29.1756 44.6169L30.1731 50.6H19.2254ZM24.6994 44.3001C22.4722 44.2976 20.3373 43.4117 18.7626 41.837C17.1879 40.2623 16.302 38.1273 16.2995 35.9001H33.0993C33.0968 38.1273 32.2109 40.2623 30.6362 41.837C29.0615 43.4117 26.9266 44.2976 24.6994 44.3001ZM33.7993 33.1002C34.1859 33.1002 34.4993 33.4136 34.4993 33.8002C34.4993 34.1867 34.1859 34.5001 33.7993 34.5001H15.5995C15.2129 34.5001 14.8995 34.1867 14.8995 33.8002C14.8995 33.4136 15.2129 33.1002 15.5995 33.1002H33.7993ZM32.1131 29.3089C31.7187 30.1767 31.1993 30.982 30.5725 31.7002H18.8262C18.1993 30.982 17.6799 30.1767 17.2855 29.3089C16.6318 27.8605 16.2956 26.2893 16.2993 24.7002C16.2993 19.2962 20.068 14.9003 24.6992 14.9003C29.3305 14.9003 33.0992 19.2962 33.0992 24.7002C33.1029 26.2893 32.7667 27.8605 32.1129 29.3089H32.1131Z" fill="#0E8778"/>
<path d="M21.5693 17.0856C20.3118 17.7574 19.2487 18.8172 18.4956 20.148C18.305 20.484 18.4225 20.9108 18.7581 21.1018C19.094 21.2924 19.5209 21.1749 19.7119 20.8393C20.335 19.7377 21.2037 18.8671 22.2266 18.3203C22.399 18.2381 22.5306 18.089 22.5903 17.9074C22.6503 17.7259 22.6331 17.5281 22.5434 17.3593C22.4537 17.1906 22.2991 17.0662 22.115 17.0143C21.9309 16.9628 21.7341 16.9884 21.5694 17.0856L21.5693 17.0856Z" fill="#0E8778"/>
<path d="M18.4461 21.9185C18.2655 21.8745 18.0748 21.9035 17.9161 21.9998C17.7573 22.0963 17.6433 22.2516 17.5989 22.4323C17.478 22.9288 17.397 23.4344 17.3577 23.9441C17.3273 24.3297 17.6152 24.6666 18.0008 24.6966H18.0558C18.422 24.6978 18.7273 24.4163 18.7558 24.051C18.7895 23.6169 18.8583 23.186 18.9614 22.7628C19.052 22.3875 18.8214 22.0097 18.4461 21.9184L18.4461 21.9185Z" fill="#0E8778"/>
<path d="M51.2999 32.4008H49.8999V31.0008C49.8999 30.8152 49.8261 30.637 49.6949 30.5058C49.5636 30.3745 49.3855 30.3008 49.1999 30.3008H40.8C40.4134 30.3008 40.1 30.6142 40.1 31.0008V32.4008H38.7C38.3134 32.4008 38 32.7142 38 33.1008V35.9007C38 36.0864 38.0737 36.2645 38.205 36.3957C38.3362 36.527 38.5144 36.6007 38.7 36.6007H40.1V38.0007C40.1 38.1863 40.1737 38.3645 40.305 38.4957C40.4362 38.627 40.6144 38.7007 40.8 38.7007H41.5V45.0006C41.5 45.1863 41.5737 45.3644 41.705 45.4956C41.8362 45.6269 42.0143 45.7006 42.2 45.7006H47.7999C47.9855 45.7006 48.1637 45.6269 48.2949 45.4956C48.4262 45.3644 48.4999 45.1863 48.4999 45.0006V38.7007H49.1999C49.3855 38.7007 49.5636 38.627 49.6949 38.4957C49.8261 38.3645 49.8999 38.1863 49.8999 38.0007V36.6007H51.2999C51.4855 36.6007 51.6636 36.527 51.7949 36.3957C51.9261 36.2645 51.9999 36.0864 51.9999 35.9007V33.1008C51.9999 32.9151 51.9261 32.737 51.7949 32.6058C51.6636 32.4745 51.4855 32.4008 51.2999 32.4008ZM40.1 35.2007H39.4V33.8007H40.1V35.2007ZM47.0999 44.3007H42.9V42.9007H47.0999V44.3007ZM47.0999 41.5007H42.9V38.7007H47.0999V41.5007ZM48.4999 37.3007H41.5V31.7008H48.4999V37.3007ZM50.5999 35.2007H49.8999V33.8007H50.5999V35.2007Z" fill="#0E8778"/>
</svg>
