<svg width="64" height="64" viewBox="0 0 64 64" fill="none" xmlns="http://www.w3.org/2000/svg">
<path fill-rule="evenodd" clip-rule="evenodd" d="M38.8974 6.63214C44.2301 5.19571 49.7063 8.35736 51.1288 13.6939L57.4362 37.3574C58.8586 42.694 55.6887 48.1845 50.3559 49.621L26.9038 55.938C21.571 57.3744 16.0948 54.2128 14.6724 48.8763L8.36497 25.2127C6.94254 19.8762 10.1125 14.3856 15.4453 12.9492L38.8974 6.63214Z" fill="#B7DBD7"/>
<path fill-rule="evenodd" clip-rule="evenodd" d="M25.0569 7.69898C28.9519 3.78351 35.2669 3.7835 39.1619 7.69897L56.3621 24.9898C60.2571 28.9052 60.2571 35.2535 56.3622 39.169L39.1619 56.4598C35.2669 60.3753 28.9519 60.3753 25.0569 56.4598L7.8566 39.169C3.96162 35.2535 3.96161 28.9053 7.85659 24.9898L25.0569 7.69898Z" fill="#3E9F93"/>
<path fill-rule="evenodd" clip-rule="evenodd" d="M31.339 23.0004C29.5795 23.0004 28.1308 24.44 28.1308 26.2095C28.1308 26.4518 28.164 26.6893 28.2109 26.918C27.5699 27.2109 27.0413 27.7106 26.7098 28.3305C26.6766 28.3305 26.6498 28.2969 26.6199 28.2834C26.6531 28.1116 26.6699 27.9362 26.6699 27.7571C26.6699 26.2051 25.4003 24.9385 23.8603 24.9385H22.7554C21.2154 24.9385 19.9458 26.2051 19.9458 27.7571C19.9458 27.9356 19.9791 28.1133 19.9959 28.2851C19.0745 28.7481 18.4391 29.7061 18.4391 30.8066C18.4391 30.9984 18.4724 31.1848 18.4958 31.3659C17.6073 31.8401 17 32.78 17 33.8561C17 35.4081 18.2696 36.6746 19.8093 36.6746H22.5589V39.485H20.4239C20.2249 39.485 20.0343 39.5648 19.8934 39.7068C19.7528 39.8488 19.6739 40.0415 19.6739 40.2423C19.6739 40.4432 19.7528 40.6359 19.8934 40.7779C20.0343 40.9199 20.2249 40.9996 20.4239 40.9996H31.9991H31.9989C31.9993 40.9998 31.9995 40.9998 32 41C32.0008 40.9998 32.0019 40.9998 32.0027 40.9996H43.5763H43.5761C43.7751 40.9996 43.9657 40.9199 44.1066 40.7779C44.2472 40.6359 44.3261 40.4432 44.3261 40.2423C44.3261 40.0415 44.2472 39.8488 44.1066 39.7068C43.9657 39.5648 43.7751 39.485 43.5761 39.485H41.4414V36.6746H44.1907C45.7304 36.6746 47 35.4081 47 33.8561C47 32.7799 46.3931 31.8396 45.5044 31.3659C45.541 31.184 45.5611 30.9976 45.5611 30.8066C45.5611 29.7061 44.9258 28.748 44.0048 28.2851C44.0381 28.1133 44.0548 27.9369 44.0548 27.7571C44.0548 26.2051 42.7852 24.9385 41.2455 24.9385H40.1403C38.6004 24.9385 37.3308 26.2051 37.3308 27.7571C37.3308 27.9356 37.364 28.1123 37.3808 28.283C37.3475 28.283 37.3207 28.3166 37.2908 28.3301C36.9606 27.7101 36.4311 27.211 35.7902 26.9176C35.8402 26.6885 35.8703 26.4519 35.8703 26.209C35.8703 24.4394 34.4216 23 32.6625 23L31.339 23.0004ZM31.339 24.515H32.658C33.6219 24.515 34.3658 25.2626 34.3658 26.2095C34.3658 26.5159 34.289 26.7933 34.1524 27.0369V27.0367C34.0299 27.2552 34.0224 27.5206 34.1323 27.7456C34.2423 27.9704 34.4556 28.126 34.7017 28.1604C35.5392 28.2783 36.1653 28.9729 36.1653 29.8373C36.1653 30.1437 36.0851 30.4256 35.9451 30.6722H35.9453C35.8229 30.8871 35.8126 31.1487 35.9173 31.3729C36.0221 31.5968 36.2289 31.7551 36.4708 31.7963C37.2821 31.9343 37.8837 32.6183 37.8837 33.4656C37.8837 34.4124 37.14 35.16 36.1759 35.16H32.7492V34.0997L34.3335 32.7338H34.3337C34.485 32.6032 34.5788 32.4175 34.5945 32.2172C34.6102 32.0171 34.5464 31.8187 34.417 31.6659C34.1481 31.3479 33.675 31.3103 33.3601 31.5818L32.7495 32.1082V31.4324L34.3338 30.0664V30.0661C34.6487 29.7946 34.686 29.3167 34.4171 28.9987C34.1482 28.6806 33.675 28.643 33.3601 28.9146L32.7495 29.4409V29.091C32.7495 28.89 32.6704 28.6973 32.5298 28.5553C32.3891 28.4133 32.1983 28.3337 31.9995 28.3337C31.8005 28.3337 31.6096 28.4133 31.469 28.5553C31.3284 28.6973 31.2493 28.89 31.2493 29.091V29.4409L30.6391 28.9146C30.5185 28.8108 30.3687 28.7485 30.2109 28.736C29.9715 28.7168 29.7375 28.8144 29.5816 28.9987C29.3127 29.3167 29.35 29.7946 29.6649 30.0661L31.2493 31.4322V32.108L30.639 31.5816V31.5818C30.5185 31.4781 30.3687 31.4157 30.2109 31.4033C29.9715 31.384 29.7375 31.4817 29.5816 31.6659C29.4523 31.8187 29.3885 32.0171 29.4042 32.2172C29.4199 32.4175 29.5136 32.6032 29.6649 32.7338L31.2492 34.0997V35.16H27.8225C26.8587 35.16 26.1147 34.4124 26.1147 33.4656C26.1147 32.6183 26.7168 31.9347 27.5281 31.7963H27.5283C27.7702 31.7549 27.9768 31.5968 28.0814 31.3727C28.1862 31.1487 28.1758 30.8871 28.0535 30.6722C27.9135 30.4265 27.8334 30.1446 27.8334 29.8373C27.8334 28.9729 28.4599 28.2779 29.2974 28.1604V28.1606C29.5435 28.126 29.7567 27.9707 29.8668 27.7456C29.9767 27.5206 29.9691 27.2552 29.8467 27.0369C29.7101 26.7945 29.6333 26.5143 29.6333 26.2094C29.6333 25.2626 30.3772 24.515 31.3415 24.515L31.339 24.515ZM40.1371 26.4533H41.2422C41.9838 26.4533 42.5515 27.0255 42.5515 27.7572C42.5515 27.9929 42.4915 28.2069 42.3881 28.3941V28.3939C42.2661 28.6122 42.2588 28.8771 42.3686 29.102C42.4787 29.3266 42.6915 29.4819 42.9374 29.5165C43.5801 29.6074 44.0597 30.1384 44.0597 30.8066C44.0597 31.0422 43.9996 31.2594 43.8896 31.4494C43.768 31.6643 43.7579 31.9256 43.8626 32.1492C43.9674 32.373 44.1737 32.5308 44.4154 32.5723C45.0373 32.68 45.4984 33.202 45.4984 33.8563C45.4984 34.588 44.931 35.1603 44.189 35.1603H41.4397V32.8382C41.4397 32.6373 41.3608 32.4446 41.22 32.3026C41.0794 32.1606 40.8887 32.0807 40.6897 32.0807C40.4907 32.0807 40.3001 32.1606 40.1595 32.3026C40.0188 32.4446 39.9397 32.6373 39.9397 32.8382V35.16H38.8953C39.2021 34.6677 39.3829 34.0872 39.3829 33.4656C39.3829 32.1988 38.6442 31.1003 37.5763 30.5794C37.6263 30.3673 37.6564 30.1499 37.6629 29.9261C37.863 29.7106 38.1327 29.5603 38.4427 29.5166C38.6885 29.4819 38.9014 29.3268 39.0114 29.1022C39.1215 28.8776 39.1142 28.6124 38.9922 28.3941C38.8854 28.2057 38.8287 27.9925 38.8287 27.7571C38.8287 27.0254 39.3963 26.4532 40.1383 26.4532L40.1371 26.4533ZM22.7547 26.4533H23.8596C24.6017 26.4533 25.1692 27.0255 25.1692 27.7572C25.1692 27.9929 25.1091 28.2069 25.0057 28.3937L25.0059 28.3935C24.8835 28.6118 24.8762 28.877 24.9863 29.1018C25.0961 29.3266 25.3092 29.4819 25.555 29.5166C25.8652 29.5603 26.1364 29.7085 26.3352 29.9261C26.3352 30.1518 26.3718 30.3686 26.4218 30.5797C25.3539 31.1003 24.615 32.1987 24.615 33.4654C24.615 34.0871 24.7952 34.6676 25.1026 35.1599H24.0584V32.8381V32.8383C24.0584 32.6373 23.9792 32.4446 23.8386 32.3026C23.698 32.1606 23.5074 32.0808 23.3083 32.0808C23.1093 32.0808 22.9187 32.1606 22.7781 32.3026C22.6372 32.4446 22.5583 32.6373 22.5583 32.8383V35.1601H19.8086C19.0666 35.1601 18.4993 34.5879 18.4993 33.8562C18.4993 33.2019 18.9601 32.679 19.5824 32.5721L19.5827 32.5723C19.8241 32.5309 20.0305 32.3728 20.1353 32.1493C20.2399 31.9255 20.2299 31.6643 20.1081 31.4494C20.0014 31.2609 19.938 31.0437 19.938 30.8066C19.938 30.1389 20.4176 29.6068 21.0598 29.5166H21.06C21.3057 29.4819 21.5187 29.3268 21.6286 29.1022C21.7386 28.8776 21.7315 28.6124 21.6095 28.3941C21.5028 28.2056 21.4461 27.9924 21.4461 27.7571C21.4461 27.0253 22.0136 26.4531 22.7556 26.4531L22.7547 26.4533ZM27.3005 36.6316C27.4707 36.6652 27.6443 36.6753 27.8218 36.6753H31.2485V39.4856H24.0576V36.6753H26.8069C26.977 36.6753 27.1407 36.6753 27.3007 36.6316H27.3005ZM36.6959 36.6316C36.856 36.6652 37.0228 36.6753 37.1904 36.6753H39.9397V39.4861H32.7482V36.6753H36.1749C36.3518 36.6753 36.5261 36.6753 36.6958 36.6316H36.6959Z" fill="white"/>
</svg>
