<svg width="64" height="64" viewBox="0 0 64 64" fill="none" xmlns="http://www.w3.org/2000/svg">
<path fill-rule="evenodd" clip-rule="evenodd" d="M38.8974 6.63214C44.2301 5.19571 49.7063 8.35736 51.1288 13.6939L57.4362 37.3574C58.8586 42.694 55.6887 48.1845 50.3559 49.621L26.9038 55.938C21.571 57.3744 16.0948 54.2128 14.6724 48.8763L8.36497 25.2127C6.94254 19.8762 10.1125 14.3856 15.4453 12.9492L38.8974 6.63214Z" fill="#B7DBD7"/>
<path fill-rule="evenodd" clip-rule="evenodd" d="M25.0569 7.69898C28.9519 3.78351 35.2669 3.7835 39.1619 7.69897L56.3621 24.9898C60.2571 28.9052 60.2571 35.2535 56.3622 39.169L39.1619 56.4598C35.2669 60.3753 28.9519 60.3753 25.0569 56.4598L7.8566 39.169C3.96162 35.2535 3.96161 28.9053 7.85659 24.9898L25.0569 7.69898Z" fill="#3E9F93"/>
<path d="M29.2698 33.9597C31.5391 34.3757 37.3636 35.5483 41.8644 36.4182L41.9023 36.6452C41.5996 36.7585 41.2593 36.9478 40.9945 37.3638C40.7297 37.7799 40.6163 38.2716 40.7297 38.7632C40.7675 38.9523 40.9945 39.1035 41.1836 39.0658L44.3985 38.385C44.5876 38.3471 44.7388 38.1202 44.7011 37.9311C44.512 37.0612 43.7555 36.4561 42.8856 36.4561H42.6586L42.6208 36.0779C42.6208 35.9267 42.4695 35.7752 42.3181 35.7376L32.6358 33.8086L32.6736 33.6195C33.2032 33.6574 33.6569 33.3169 33.7705 32.9009C33.9596 32.4091 33.7705 31.8418 33.3166 31.5771L28.8915 28.7403C28.9672 27.2274 29.3453 26.0927 29.3453 26.0927C29.7992 24.7689 29.0806 23.2939 27.7567 22.8021C26.4329 22.3483 24.9579 23.0291 24.4661 24.3908C24.3528 24.7311 23.7853 26.5088 23.7098 28.8159L23.5964 28.7781C23.4452 28.7402 23.2937 28.7024 23.1425 28.7024C22.4617 28.7024 21.8565 29.1563 21.6675 29.7992L21.5541 30.1774L21.0623 31.8037C20.8354 32.5224 21.2514 33.2787 21.9322 33.4678C22.0079 33.5057 24.6554 34.2999 24.769 34.3377C24.9581 34.6025 25.185 34.8295 25.4498 35.0186V41.4483C25.4498 42.167 26.0171 42.7343 26.7358 42.7343H29.7237C30.4424 42.7343 31.0097 42.167 31.0097 41.4483C31.0097 40.7297 30.4424 40.1624 29.7237 40.1624H28.0217V35.2078C28.589 34.943 29.005 34.527 29.2698 33.9597ZM43.7934 37.7419L41.4484 38.2336C41.4862 38.0824 41.5241 37.931 41.5996 37.7797C42.0158 37.1746 43.2639 36.9098 43.7934 37.7419ZM29.4586 33.2032C29.4965 32.825 29.4586 32.409 29.3074 32.0306C29.2695 31.8794 29.2317 31.7658 29.194 31.6146C31.3877 33.0139 31.7659 33.2409 31.9171 33.3544L31.8414 33.6948L29.4586 33.2032ZM25.1847 24.6552C25.525 23.7096 26.5463 23.218 27.5297 23.5584C28.4753 23.8987 28.9669 24.92 28.6644 25.8655C28.6644 25.8655 28.3241 26.8866 28.1726 28.324L28.0969 28.2861L27.5674 25.3739C27.5295 25.1848 27.3404 25.0336 27.1135 25.0712C26.9244 25.1091 26.7731 25.2982 26.8108 25.5251L27.3781 28.5888C27.3781 28.7022 27.4538 28.7779 27.5293 28.8536L32.9001 32.2954C33.0513 32.3711 33.0892 32.5602 33.0134 32.7493C32.9756 32.9005 32.7108 33.0141 32.4839 32.9005C32.0678 32.6357 32.1435 32.6736 26.8481 29.3075C26.7724 29.2696 26.6969 29.1562 26.6969 29.0805L26.0918 25.6765C26.0539 25.4875 25.8648 25.3362 25.6379 25.3739C25.4488 25.4117 25.2976 25.6008 25.3352 25.8278L25.9404 29.2318C25.9782 29.5344 26.1673 29.7991 26.4321 29.9881L28.2477 31.1607C28.3234 31.5767 28.4367 31.9928 28.588 32.4088C28.6637 32.6736 28.7014 32.9384 28.7014 33.1652L25.6756 32.56L25.9404 31.6523C26.0161 31.4632 25.9025 31.2362 25.6756 31.1984L25.0704 31.0093C25.2595 30.3663 25.0326 29.6476 24.4274 29.2694C24.5037 26.8111 25.0712 24.9957 25.1845 24.6551L25.1847 24.6552ZM22.4237 30.0641C22.5371 29.648 22.991 29.4211 23.407 29.5345L23.8987 29.6857C24.3148 29.7991 24.5417 30.253 24.4283 30.669C23.3693 30.3667 23.7853 30.518 22.4237 30.0641ZM21.7807 32.0687L22.1589 30.8206C24.3526 31.5014 24.8442 31.6526 25.109 31.7284L24.5796 33.5059L22.1967 32.7872C21.8564 32.7117 21.705 32.3712 21.7807 32.0687ZM27.681 40.957H29.7611C30.0638 40.957 30.2907 41.1839 30.2907 41.4865C30.2907 41.7892 30.0638 42.0161 29.7611 42.0161H26.7732C26.4705 42.0161 26.2436 41.7892 26.2436 41.4865L26.2438 34.8299C26.2438 34.6786 26.168 34.5651 26.0547 34.4895C25.7143 34.3004 25.4874 34.0357 25.336 33.6953L25.4872 33.128L28.513 33.7332C28.2861 34.1113 27.9835 34.414 27.5674 34.5652C27.4162 34.6031 27.3026 34.7543 27.3026 34.9056V40.5031C27.3028 40.7678 27.454 40.9569 27.681 40.9569L27.681 40.957Z" fill="white"/>
<path d="M29.875 22.5385C31.1231 22.5385 32.1442 21.5174 32.1442 20.2693C32.1442 19.0211 31.1231 18 29.875 18C28.6269 18 27.6057 19.0211 27.6057 20.2693C27.6057 21.5174 28.6269 22.5385 29.875 22.5385ZM29.875 18.7563C30.707 18.7563 31.3879 19.4372 31.3879 20.2692C31.3879 21.1013 30.707 21.7821 29.875 21.7821C29.0429 21.7821 28.3621 21.1013 28.3621 20.2692C28.3621 19.4372 29.0429 18.7563 29.875 18.7563Z" fill="white"/>
<path d="M43.2265 39.7862C43.1131 39.7484 42.9617 39.7862 42.8861 39.8996C42.8104 39.9753 42.7727 40.1266 42.7727 40.2399C42.924 40.8829 42.697 41.3747 42.4324 41.6771C42.2055 40.2778 40.4656 39.5213 40.0874 39.8994C40.0117 39.9751 39.974 40.1264 39.974 40.2398C40.1253 40.8827 39.8983 41.3745 39.6337 41.677C39.4446 40.4667 38.3099 39.8993 37.6291 39.7859C37.5157 39.748 37.3643 39.7859 37.2888 39.8993C37.2131 39.975 37.1754 40.1262 37.1754 40.2396C37.3266 40.8826 37.0997 41.3743 36.835 41.6768C36.646 40.4665 35.5112 39.8991 34.8304 39.7857C34.717 39.7478 34.5656 39.7857 34.4901 39.8991C34.4144 39.9748 34.3767 40.126 34.3767 40.2394C34.6415 41.412 33.7337 42.0549 33.4689 42.244H32.9016C32.6747 42.244 32.5234 42.3953 32.5234 42.6222C32.5234 42.8491 32.6747 43.0004 32.9016 43.0004H44.7402C44.9293 43.0004 45.1184 42.8491 45.1184 42.6222C45.4959 40.8073 44.0587 39.9753 43.2266 39.7862L43.2265 39.7862ZM43.5668 40.6938C43.9828 40.9208 44.5124 41.3747 44.4746 42.2067H42.9995C43.3022 41.8285 43.5668 41.3368 43.5668 40.6938ZM40.8058 40.6938C41.2597 40.9208 41.7891 41.3368 41.7136 42.2067H40.2385C40.541 41.8285 40.8058 41.3368 40.8058 40.6938ZM38.0448 40.6938C38.4987 40.9208 39.0281 41.3368 38.9526 42.2067H37.4775C37.78 41.8285 38.0448 41.3368 38.0448 40.6938ZM35.2838 40.6938C35.7377 40.9208 36.2671 41.3368 36.1916 42.2067H34.7165C35.019 41.8285 35.2459 41.3368 35.2838 40.6938Z" fill="white"/>
</svg>
