<svg width="136" height="136" viewBox="0 0 136 136" fill="none" xmlns="http://www.w3.org/2000/svg">
<path fill-rule="evenodd" clip-rule="evenodd" d="M93.7001 10.5921C99.0348 9.16268 104.518 12.3285 105.948 17.6632L125.411 90.3008C126.84 95.6354 123.674 101.119 118.34 102.548L45.7021 122.011C40.3674 123.441 34.884 120.275 33.4546 114.94L13.9914 42.3027C12.562 36.9681 15.7278 31.4847 21.0625 30.0553L93.7001 10.5921Z" fill="#B2D8C8"/>
<path fill-rule="evenodd" clip-rule="evenodd" d="M60.9289 7.75467C64.8342 3.84942 71.1658 3.84942 75.0711 7.75466L128.245 60.9291C132.151 64.8343 132.151 71.166 128.245 75.0712L75.0711 128.246C71.1658 132.151 64.8342 132.151 60.9289 128.246L7.75451 75.0712C3.84927 71.166 3.84926 64.8343 7.75451 60.9291L60.9289 7.75467Z" fill="white"/>
<path d="M58.9348 74.6931L67.2327 67.1465C68.1444 67.7831 69.4213 67.6011 70.0596 66.6919C71.1539 65.2372 73.4333 64.055 76.8074 62.9638C79.2693 62.1457 81.4579 59.7814 83.2814 55.7808C83.5548 55.1442 83.9198 54.5986 84.1932 54.0531C85.3787 55.4168 87.3848 55.4168 88.6612 54.2351L92.8558 50.507C93.2205 50.1434 93.2205 49.5979 92.9471 49.2339C92.5825 48.8703 92.0353 48.8703 91.6703 49.1429L87.4757 52.8709C86.8373 53.4165 85.9255 53.3255 85.4697 52.6889L76.7162 42.3239C76.2603 41.7783 76.2603 40.8691 76.8987 40.3236L81.3668 36.5955C81.7314 36.232 81.8226 35.6864 81.458 35.3224C81.0934 34.9588 80.5463 34.8678 80.1812 35.2314L75.7132 39.0504C74.3455 40.2326 74.1631 42.2329 75.3486 43.5966L75.622 43.8692C74.163 45.4149 71.8832 47.2333 68.327 48.5064C60.7586 51.2343 60.1203 61.4176 60.3937 64.9639L55.1047 70.7833C54.1017 71.7834 54.1017 72.9656 54.6489 73.8747C53.4633 74.5113 52.6428 73.7837 51.2751 72.9655C40.9711 63.3276 26.4725 78.3303 36.2297 88.1501C37.324 89.2412 38.6003 90.0594 40.0597 90.6049C40.6068 90.7869 41.3365 90.4229 41.3365 89.7868C41.3365 89.5142 41.154 89.1502 40.9719 89.0592C35.5009 83.5129 39.4217 74.0568 47.2638 74.0568C48.2668 74.0568 49.361 74.2388 50.2729 74.6024C51.6405 75.4206 53.6466 76.8757 55.8351 75.239C56.9289 75.6936 58.1145 75.512 58.935 74.6934L58.9348 74.6931ZM37.1416 86.4219C31.3056 79.8754 37.6888 69.6011 46.2602 72.1471C39.3303 72.6927 34.6793 79.7848 37.1416 86.4219ZM68.8746 50.1426C72.6134 48.7789 75.1665 46.8692 76.7167 45.1419L83.0086 52.5979C82.4615 53.4161 82.0056 54.2346 81.6409 55.0527C80.5466 57.5076 78.7231 60.508 76.2607 61.2356C72.522 62.4178 69.9688 63.8725 68.6011 65.6002C68.5099 65.6912 68.3278 65.6912 68.3278 65.6912C68.2365 65.6912 68.1453 65.6002 68.1453 65.5092C67.9627 62.5087 73.7075 61.1446 73.7075 61.1446C74.6192 60.9626 74.6192 59.5989 73.7075 59.417C68.2365 58.0532 64.1331 60.9627 62.0358 63.0539C62.2179 59.0529 63.4031 52.0519 68.8745 50.1427L68.8746 50.1426ZM56.2906 71.9638C64.1327 63.3261 65.227 61.6893 69.2389 60.9618C67.5975 61.962 66.1386 63.4166 66.3211 65.508L57.6585 73.3281C56.8376 74.1462 55.3787 72.8735 56.2905 71.9639L56.2906 71.9638Z" fill="#0E8778"/>
<path d="M93.2219 83.4223C90.4862 77.512 83.6475 78.4216 77.6294 81.0584C78.815 77.967 77.2648 74.33 75.1676 72.0567C74.985 71.7841 74.6204 71.6931 74.2558 71.7841C73.8912 71.8751 73.7087 72.1477 73.6174 72.4207C72.0672 78.331 68.7844 81.3315 67.3255 82.3317C64.7723 78.6947 60.669 78.5126 57.7511 80.4224C57.4778 80.6044 57.2952 80.8769 57.2952 81.1499C57.2952 81.4225 57.4778 81.6955 57.6599 81.8775C62.2191 84.969 62.1279 89.1516 58.8454 93.0608L56.7477 93.06C56.2006 93.06 55.8359 93.4235 55.8359 93.9691C55.8359 94.5147 56.2006 94.8783 56.7477 94.8783H86.0181C86.5653 94.8783 86.9299 94.5147 86.9299 93.9691C86.9299 93.4235 86.5653 93.06 86.0181 93.06H83.1916C80.3647 88.4228 87.1124 85.5133 92.4926 84.6037C92.766 84.5127 93.0398 84.4217 93.131 84.1492C93.3136 84.0586 93.3136 83.695 93.2223 83.422L93.2219 83.4223ZM81.2768 93.1512H61.1246C63.8603 89.0596 63.7691 84.786 59.9391 81.4225C62.401 80.6043 64.5896 81.3315 66.231 84.1503C66.5043 84.6049 67.0515 84.6959 67.4165 84.5139C67.599 84.4229 72.3404 81.877 74.8027 74.694C76.7175 77.7855 76.8087 80.786 73.891 82.9682C73.5263 83.2408 73.4351 83.7863 73.7084 84.2413C73.9818 84.6049 74.5289 84.7869 74.894 84.5139C79.0886 81.968 87.6596 78.513 90.9426 83.2408C84.8328 84.5139 79.7261 87.0598 81.2766 93.1517L81.2768 93.1512Z" fill="#0E8778"/>
</svg>
