<svg width="136" height="136" viewBox="0 0 136 136" fill="none" xmlns="http://www.w3.org/2000/svg">
<path fill-rule="evenodd" clip-rule="evenodd" d="M93.7001 10.5921C99.0348 9.16268 104.518 12.3285 105.948 17.6632L125.411 90.3008C126.84 95.6354 123.674 101.119 118.34 102.548L45.7021 122.011C40.3674 123.441 34.884 120.275 33.4546 114.94L13.9914 42.3027C12.562 36.9681 15.7278 31.4847 21.0625 30.0553L93.7001 10.5921Z" fill="#C5ECDC"/>
<path fill-rule="evenodd" clip-rule="evenodd" d="M60.9289 7.75467C64.8342 3.84942 71.1658 3.84942 75.0711 7.75466L128.245 60.9291C132.151 64.8343 132.151 71.166 128.245 75.0712L75.0711 128.246C71.1658 132.151 64.8342 132.151 60.9289 128.246L7.75451 75.0712C3.84927 71.166 3.84926 64.8343 7.75451 60.9291L60.9289 7.75467Z" fill="white"/>
<path d="M58.84 77.2198C64.5585 78.2682 79.2361 81.2231 90.5782 83.4153L90.6736 83.9872C89.911 84.2729 89.0533 84.7499 88.386 85.7982C87.7187 86.8466 87.433 88.0859 87.7187 89.3246C87.8141 89.8011 88.386 90.1822 88.8625 90.0873L96.964 88.3716C97.4405 88.2762 97.8217 87.7043 97.7267 87.2278C97.2502 85.0356 95.3437 83.5107 93.1515 83.5107H92.5796L92.4843 82.5577C92.4843 82.1766 92.1031 81.795 91.7216 81.7001L67.3221 76.8392L67.4175 76.3626C68.7521 76.458 69.8954 75.6 70.1816 74.5516C70.6581 73.3124 70.1816 71.8829 69.0378 71.2156L57.8864 64.0671C58.0772 60.2546 59.0302 57.3951 59.0302 57.3951C60.174 54.0592 58.3629 50.3421 55.0269 49.1029C51.691 47.9591 47.9739 49.6748 46.7347 53.1062C46.4489 53.9638 45.019 58.4436 44.8286 64.2576L44.5429 64.1622C44.1618 64.0668 43.7802 63.9714 43.3991 63.9714C41.6834 63.9714 40.1585 65.1152 39.682 66.7355L39.3963 67.6886L38.1571 71.7868C37.5852 73.5978 38.6336 75.5039 40.3492 75.9803C40.54 76.0757 47.2116 78.0771 47.4978 78.1725C47.9743 78.8398 48.5462 79.4117 49.2135 79.8882V96.0912C49.2135 97.9022 50.643 99.3318 52.4541 99.3318H59.9837C61.7948 99.3318 63.2243 97.9022 63.2243 96.0912C63.2243 94.2802 61.7948 92.8506 59.9837 92.8506H55.6947V80.365C57.1242 79.6977 58.1726 78.6494 58.84 77.2198ZM95.4392 86.7509L89.5298 87.9901C89.6252 87.609 89.7206 87.2274 89.9109 86.8463C90.9598 85.3214 94.1049 84.6542 95.4392 86.7509ZM59.3156 75.3134C59.411 74.3604 59.3156 73.312 58.9345 72.3586C58.8391 71.9775 58.7437 71.6913 58.6488 71.3102C64.177 74.8365 65.13 75.4084 65.5111 75.6946L65.3203 76.5522L59.3156 75.3134ZM48.5454 53.7726C49.403 51.3896 51.9767 50.1509 54.4547 51.0085C56.8377 51.8662 58.0765 54.4399 57.3142 56.8224C57.3142 56.8224 56.4566 59.3957 56.075 63.0179L55.8843 62.9225L54.5497 55.5837C54.4543 55.1072 53.9778 54.726 53.4059 54.821C52.9294 54.9164 52.5483 55.3929 52.6432 55.9648L54.0728 63.6852C54.0728 63.9709 54.2636 64.1617 54.4539 64.3525L67.9881 73.0258C68.3692 73.2166 68.4646 73.6931 68.2738 74.1696C68.1784 74.5508 67.5111 74.8369 66.9393 74.5508C65.8909 73.8835 66.0816 73.9789 52.7373 65.4963C52.5465 65.4009 52.3562 65.1151 52.3562 64.9244L50.8312 56.3464C50.7358 55.8699 50.2593 55.4887 49.6874 55.5837C49.2109 55.6791 48.8298 56.1556 48.9248 56.7275L50.4497 65.3055C50.5451 66.0682 51.0216 66.7351 51.6889 67.2115L56.264 70.1664C56.4548 71.2148 56.7406 72.2632 57.1217 73.3116C57.3125 73.9789 57.4074 74.6462 57.4074 75.2177L49.7824 73.6928L50.4497 71.4051C50.6404 70.9286 50.3543 70.3567 49.7824 70.2613L48.2574 69.7848C48.7339 68.1645 48.162 66.3535 46.6371 65.4004C46.8293 59.2054 48.2593 54.6306 48.5449 53.7724L48.5454 53.7726ZM41.5877 67.4029C41.8734 66.3545 43.0172 65.7826 44.0656 66.0683L45.3048 66.4494C46.3532 66.7352 46.9251 67.879 46.6393 68.9273C43.9705 68.1656 45.019 68.5467 41.5877 67.4029ZM39.9674 72.4545L40.9204 69.3093C46.4486 71.025 47.6873 71.4061 48.3546 71.5969L47.0205 76.0762L41.0157 74.2652C40.1581 74.0749 39.7766 73.2168 39.9674 72.4545ZM54.836 94.8529H60.078C60.8407 94.8529 61.4125 95.4248 61.4125 96.1875C61.4125 96.9501 60.8406 97.522 60.078 97.522H52.5483C51.7856 97.522 51.2138 96.9501 51.2138 96.1875L51.2142 79.4127C51.2142 79.0316 51.0234 78.7454 50.7377 78.5551C49.8801 78.0785 49.3081 77.4113 48.9267 76.5536L49.3078 75.1241L56.9328 76.649C56.3609 77.602 55.5983 78.3647 54.5498 78.7458C54.1687 78.8412 53.8825 79.2223 53.8825 79.6034V93.7093C53.883 94.3762 54.2641 94.8527 54.836 94.8527L54.836 94.8529Z" fill="#0E8778"/>
<path d="M60.365 48.437C63.5102 48.437 66.0835 45.8638 66.0835 42.7185C66.0835 39.5733 63.5102 37 60.365 37C57.2198 37 54.6465 39.5733 54.6465 42.7185C54.6465 45.8638 57.2198 48.437 60.365 48.437ZM60.365 38.9059C62.4618 38.9059 64.1775 40.6216 64.1775 42.7184C64.1775 44.8152 62.4618 46.5309 60.365 46.5309C58.2682 46.5309 56.5525 44.8152 56.5525 42.7184C56.5525 40.6216 58.2682 38.9059 60.365 38.9059Z" fill="#0E8778"/>
<path d="M94.0106 91.9004C93.7249 91.805 93.3433 91.9004 93.153 92.1862C92.9622 92.3769 92.8673 92.7581 92.8673 93.0438C93.2484 94.6641 92.6765 95.9033 92.0096 96.6655C91.4377 93.1392 87.0534 91.2327 86.1003 92.1857C85.9095 92.3765 85.8145 92.7576 85.8145 93.0433C86.1957 94.6636 85.6238 95.9028 84.9569 96.6651C84.4804 93.6152 81.6209 92.1853 79.9053 91.8995C79.6195 91.8041 79.238 91.8995 79.0476 92.1853C78.8569 92.376 78.7619 92.7572 78.7619 93.0429C79.143 94.6632 78.5711 95.9024 77.9043 96.6646C77.4278 93.6147 74.5683 92.1848 72.8526 91.8991C72.5669 91.8037 72.1854 91.8991 71.995 92.1848C71.8042 92.3756 71.7093 92.7567 71.7093 93.0424C72.3766 95.9973 70.089 97.6176 69.4216 98.0941H67.9921C67.4202 98.0941 67.0391 98.4752 67.0391 99.0471C67.0391 99.619 67.4202 100 67.9921 100H97.8253C98.3018 100 98.7784 99.619 98.7784 99.0471C99.7296 94.4737 96.1079 92.3769 94.0111 91.9004L94.0106 91.9004ZM94.8682 94.1876C95.9167 94.7595 97.2512 95.9033 97.1559 98.0001H93.4388C94.2015 97.047 94.8682 95.8079 94.8682 94.1876ZM87.9105 94.1876C89.0543 94.7595 90.3885 95.8079 90.1982 98.0001H86.4811C87.2433 97.047 87.9105 95.8079 87.9105 94.1876ZM80.9528 94.1876C82.0966 94.7595 83.4307 95.8079 83.2405 98.0001H79.5234C80.2856 97.047 80.9528 95.8079 80.9528 94.1876ZM73.9951 94.1876C75.1389 94.7595 76.473 95.8079 76.2828 98.0001H72.5657C73.3279 97.047 73.8997 95.8079 73.9951 94.1876Z" fill="#0E8778"/>
</svg>
