<svg width="64" height="64" viewBox="0 0 64 64" fill="none" xmlns="http://www.w3.org/2000/svg">
<path fill-rule="evenodd" clip-rule="evenodd" d="M38.8974 6.63214C44.2301 5.19571 49.7063 8.35736 51.1288 13.6939L57.4362 37.3574C58.8586 42.694 55.6887 48.1845 50.3559 49.621L26.9038 55.938C21.571 57.3744 16.0948 54.2128 14.6724 48.8763L8.36497 25.2127C6.94254 19.8762 10.1125 14.3856 15.4453 12.9492L38.8974 6.63214Z" fill="#B7DBD7"/>
<path fill-rule="evenodd" clip-rule="evenodd" d="M25.0569 7.69898C28.9519 3.78351 35.2669 3.7835 39.1619 7.69897L56.3621 24.9898C60.2571 28.9052 60.2571 35.2535 56.3622 39.169L39.1619 56.4598C35.2669 60.3753 28.9519 60.3753 25.0569 56.4598L7.8566 39.169C3.96162 35.2535 3.96161 28.9053 7.85659 24.9898L25.0569 7.69898Z" fill="#3E9F93"/>
<path d="M45.6665 43.1819H44.9582C46.3748 40.8511 44.8748 36.3121 44.7916 36.0668C44.7082 35.8624 44.5416 35.7806 44.3333 35.7806C44.1249 35.8215 43.9998 35.985 43.9583 36.1485C43.9166 37.4162 43.4166 38.602 42.9166 39.5425C42.3332 38.1522 43 35.6987 43 35.6578C43.0417 35.4534 42.9583 35.2489 42.7917 35.1671C42.6251 35.0852 42.3751 35.1262 42.2917 35.2897L40.625 37.6615C40.125 35.6169 39.25 33.4905 37.6668 32.3866C37.5418 32.3048 37.3333 32.3048 37.2084 32.3866C37.0835 32.4685 37.0001 32.632 37.0418 32.7955C37.0418 32.8364 37.4584 34.9219 37.2501 37.5799L36.5833 37.0486C36.4999 36.9668 36.375 36.8851 36.2499 36.8851C36.125 36.8851 35.9999 36.926 35.9165 37.0077L35.3747 37.621C35.4164 36.5986 35.7914 35.6581 35.7914 35.6581C35.8748 35.4537 35.7914 35.2492 35.5831 35.1265C35.3747 35.0446 35.1664 35.0855 35.0413 35.29L32.8747 38.7658C32.7497 38.316 32.5829 37.8662 32.4163 37.4164C32.7497 36.8031 32.6246 37.0892 34.2496 30.056C34.4579 29.8925 34.6245 29.6472 34.7496 29.3609C35.3746 29.3609 35.958 29.1564 36.4997 28.7883C36.8331 29.0746 37.3329 29.2381 37.7081 28.9927L44.6249 24.4131C45.2499 23.9633 45.4582 23.2681 45.2083 22.5729C44.8749 21.5505 43.5834 20.8962 42.4999 21.7142L36.1664 26.9483C35.8747 27.1528 35.7915 27.5617 35.9164 27.9707C35.9164 28.0117 35.9581 28.0933 35.9998 28.1343C35.6249 28.3796 35.2498 28.5022 34.8331 28.5431C34.7914 28.2159 34.6248 27.8889 34.3748 27.6435C34.0831 27.3163 33.6665 27.1528 33.2499 27.1119C33.2499 26.6211 33.4165 26.2123 33.7499 25.8034C33.9582 25.926 34.1665 25.9669 34.3749 25.9669C34.6249 25.9669 34.8332 25.885 34.9998 25.7215L40.7914 19.8329C41.2498 19.3013 41.3748 18.6879 41.0831 18.0746C40.5831 17.0115 39.1248 16.5208 38.1249 17.6248L33.0416 24.0447C32.8333 24.2901 32.7916 24.6173 32.9582 24.9853C32.9999 25.0671 33.0831 25.1897 33.1248 25.2715C32.5831 25.9667 32.4165 26.7028 32.4165 27.2752C32.2499 27.3571 32.0416 27.4797 31.9165 27.6024L25.2916 28.6248C23.7083 28.8702 22.4165 29.9743 21.9999 31.4873L21.4582 33.2866C21.4165 33.4501 21.4582 33.6138 21.5831 33.6954C21.7084 33.818 21.9167 33.818 22.0416 33.7771L31.7083 29.7287C31.8332 29.8922 31.9583 30.015 32.0832 30.1375L30.2082 33.8178C30.0416 33.6543 29.8748 33.4906 29.7082 33.368C29.5833 33.2454 29.3748 33.2454 29.2499 33.3271C29.0833 33.4089 29.0416 33.5725 29.0416 33.7769C29.0416 33.8178 29.4165 35.658 29.625 37.7435C29.4167 37.4572 29.25 37.2528 29.25 37.2528C29.1666 37.1709 29.0834 37.1302 28.9583 37.1302C28.8334 37.1302 28.75 37.1711 28.6666 37.2528C28.5832 37.3346 28.5 37.4163 28.3749 37.5391L28.3332 37.58C28.2083 37.7435 28.0415 37.8663 27.9583 38.0298C27.5834 35.9852 28 33.8588 28 33.8178C28.0417 33.6543 27.9583 33.4499 27.7917 33.368C27.6251 33.2862 27.4168 33.3271 27.2917 33.4499C26.0416 34.6358 25.25 36.108 24.8332 37.7435C24.8332 37.7026 23.1666 35.4536 23.1249 35.4127C22.9582 35.2491 22.7082 35.2491 22.5414 35.4127C22.3748 35.5762 22.3748 35.8215 22.4997 35.9852L22.5414 36.0262C22.8749 36.5987 22.9164 38.1935 22.5414 39.6246C21.8748 38.1524 21.5831 35.9852 21.5831 35.9443C21.5831 35.8217 21.4582 35.699 21.3331 35.6171C21.2082 35.5762 21.0414 35.5762 20.9582 35.6171C18.6249 36.9665 19.8333 42.037 20.1249 43.182L19.5415 43.1822H19.4166C19.1666 43.1822 19 43.3458 19 43.5911C19 43.8365 19.1666 44 19.4166 44H45.5834C45.8334 44 46 43.8365 46 43.5911C45.9998 43.3459 45.8749 43.1822 45.6664 43.1822L45.6665 43.1819ZM44.4167 38.1111C44.7916 39.9103 44.9167 42.2003 43.8333 43.1819H42.9583C43.5 42.5277 43.5833 41.6281 43.25 40.5647C43.6666 39.9105 44.125 39.0927 44.4167 38.1113L44.4167 38.1111ZM41.8333 37.3343C41.7499 38.2339 41.7916 39.2972 42.1667 40.0741C42.2501 40.2376 42.3334 40.442 42.4168 40.6466C42.7085 41.4644 42.8334 42.5686 41.7501 43.1001C41.7084 43.1001 41.6667 43.141 41.6667 43.1819H41.125C41.125 42.814 41.125 40.9738 40.7501 38.8474L41.8333 37.3343ZM39.9166 38.8472C40.2916 40.9737 40.2916 42.8957 40.2916 43.1818H38.3332C37.1248 42.4048 37.7915 39.5424 37.8749 38.7654C38.1249 36.8025 38.0415 35.0032 37.9166 33.8992C39 35.126 39.5832 37.048 39.9166 38.8472ZM36.2499 37.9067L36.9999 38.8063C36.875 39.5833 36.3749 41.7505 37.2082 43.1408H35.8332C36.875 41.587 35.8332 39.665 35.5415 38.6835L36.2499 37.9067ZM34.5832 37.6613C34.5832 37.9886 34.5832 38.3565 34.6666 38.6837C34.8749 39.7061 36.2499 41.7917 34.8332 43.0592C34.7915 43.1001 34.7915 43.1001 34.7915 43.141L33.7917 43.1409C33.7917 42.9364 33.625 41.5461 33.1667 39.8285L34.5832 37.6613ZM31.4584 43.0181C30.3334 42.8546 30.5417 40.1965 30.5417 39.256C30.5 37.7021 30.2917 36.0255 30.0834 34.9214C31.2083 36.3118 31.875 38.2747 32.3333 39.9103C32.7499 41.505 32.9167 42.8135 32.9583 43.1817H31.7499C31.6667 43.1 31.5833 43.0182 31.4584 43.0182L31.4584 43.0181ZM36.708 27.6017L43.0415 22.3264C43.6665 21.8766 44.2916 22.3264 44.4582 22.8171C44.5416 23.0216 44.5831 23.4305 44.1665 23.7576L37.2496 28.3375C37.1662 28.3375 37.0413 28.2149 36.8747 28.0103C36.7079 27.8061 36.6664 27.6423 36.7079 27.6016L36.708 27.6017ZM34.0415 28.9102C33.9581 29.401 33.4998 29.728 33.0415 29.6463C32.7498 29.6054 32.4581 29.401 32.3331 29.0738C32.1248 28.5012 32.6249 27.9288 33.2081 27.9288C33.6664 27.9288 34.083 28.3786 34.0415 28.9102ZM38.7499 18.1555C39.2916 17.5421 40.0416 17.951 40.2914 18.4418C40.4166 18.6462 40.4581 18.9734 40.1665 19.3004L34.4164 25.189C34.2915 25.189 34.083 25.0664 33.8747 24.8618C33.7498 24.6983 33.7081 24.5755 33.7081 24.5755L38.7499 18.1555ZM22.8332 31.7316C23.2081 30.5457 24.2081 29.6461 25.4582 29.4417L31.4583 28.5012C31.4166 28.6238 31.4166 28.7875 31.4583 28.951L22.5414 32.6722L22.8332 31.7316ZM32.8748 30.4639C32.9997 30.5048 33.2082 30.5048 33.3331 30.4639L31.9998 36.2706V36.3524C31.6664 35.6572 31.2915 35.0439 30.8331 34.4713L32.8748 30.4639ZM29.708 39.3377C29.7497 40.5646 29.4997 42.1184 30.333 43.1815H28.0414C27.9165 42.7317 27.4996 40.8507 28.1663 39.215C28.3329 38.8061 28.5829 38.438 28.8746 38.1109C29.0831 38.3563 29.3746 38.8061 29.708 39.3377ZM25.458 38.7244C25.6663 37.2932 26.1664 36.0663 26.9996 34.9622C26.9162 36.0663 26.9162 37.6203 27.333 39.0514C26.7081 40.6871 26.9996 42.4455 27.1664 43.1815H25.7914V43.0997C25.7914 43.0999 25.1246 41.096 25.458 38.7244ZM23.4164 43.1815C22.9998 42.4455 22.8747 41.3823 23.2081 40.4418C23.5415 39.5013 23.7081 38.4381 23.7081 37.4976L24.6665 38.7653C24.4164 40.8508 24.8331 42.6091 24.9999 43.1817L23.4164 43.1815ZM20.9997 43.1406C20.5831 41.7503 19.9165 38.2744 20.8748 36.8022C21.0831 37.8246 21.4997 39.6238 22.2081 40.7278C21.9998 41.7909 22.2498 42.6907 22.4581 43.1813L20.9997 43.1815V43.1406L20.9997 43.1406Z" fill="white"/>
</svg>
