<svg width="136" height="136" viewBox="0 0 136 136" fill="none" xmlns="http://www.w3.org/2000/svg">
<path fill-rule="evenodd" clip-rule="evenodd" d="M93.7001 10.5921C99.0348 9.16268 104.518 12.3285 105.948 17.6632L125.411 90.3008C126.84 95.6354 123.674 101.119 118.34 102.548L45.7021 122.011C40.3674 123.441 34.884 120.275 33.4546 114.94L13.9914 42.3027C12.562 36.9681 15.7278 31.4847 21.0625 30.0553L93.7001 10.5921Z" fill="#C5ECDC"/>
<path fill-rule="evenodd" clip-rule="evenodd" d="M60.9289 7.75467C64.8342 3.84942 71.1658 3.84942 75.0711 7.75466L128.245 60.9291C132.151 64.8343 132.151 71.166 128.245 75.0712L75.0711 128.246C71.1658 132.151 64.8342 132.151 60.9289 128.246L7.75451 75.0712C3.84927 71.166 3.84926 64.8343 7.75451 60.9291L60.9289 7.75467Z" fill="white"/>
<path d="M87.5012 38H72.8423C71.6505 38 70.5779 38.4768 69.7436 39.1919L60.8048 46.1051V41.8142C60.8048 41.099 60.3281 40.6223 59.613 40.6223H48.529C47.8139 40.6223 47.3371 41.099 47.3371 41.8142V47.6547C47.2179 47.7739 47.0988 47.893 47.0988 48.0122L44.1192 55.4022C44.1192 55.5214 44 55.6406 44 55.879V95.8081C44 96.5232 44.4767 97 45.1918 97H90.8383C91.5534 97 92.0301 96.5232 92.0301 95.8081V42.5293C92.0301 40.0263 90.004 38 87.5012 38ZM71.2923 41.099C71.769 40.6223 72.3649 40.3839 72.8417 40.3839H87.5005C88.6923 40.3839 89.6458 41.3374 89.6458 42.5293V49.5618H87.6197V43.7213C87.6197 43.0061 87.143 42.5293 86.4279 42.5293H73.3177C73.0793 42.5293 72.841 42.6485 72.6026 42.7677L62.8296 49.5618L61.2802 48.8466L71.2923 41.099ZM66.8825 49.5618L73.6759 44.9132H85.1175V49.5618H66.8825ZM49.6002 43.0061H58.4198V47.2971H49.7194V43.0061H49.6002ZM48.8851 49.6809H57.9431L62.2337 51.8264C62.3528 51.9456 62.5912 51.9456 62.7104 51.9456H89.5273V54.6871H46.8597L48.8851 49.6809ZM46.2631 94.736V57.0709H89.5259V94.6161H46.2631V94.736Z" fill="#0E8778"/>
<path d="M57.5408 79.42H60.9245V80.0103C58.7493 80.3645 57.0574 82.1354 57.0574 84.3786V85.4411C57.0574 86.1495 57.5408 86.6217 58.2659 86.6217C58.991 86.6217 59.4743 86.1495 59.4743 85.4411V84.3786C59.4743 83.316 60.3203 82.4896 61.4079 82.3716C62.2539 84.4966 64.4291 86.0314 66.967 86.0314H68.0546C70.5924 86.0314 72.6469 84.4966 73.6137 82.3716C74.7013 82.4896 75.5472 83.316 75.5472 84.3786V85.4411C75.5472 86.1495 76.0306 86.6217 76.7557 86.6217C77.4808 86.6217 77.9642 86.1495 77.9642 85.4411V84.3786C77.9642 82.1354 76.2723 80.3645 74.0971 80.0103V79.42H77.4808C78.2059 79.42 78.6893 78.9478 78.6893 78.2394C78.6893 77.5311 78.2059 77.0588 77.4808 77.0588H74.2179V76.7046C76.2723 76.3505 77.8434 74.5795 77.8434 72.4545V70.9197C77.8434 70.2113 77.36 69.7391 76.6349 69.7391C75.9098 69.7391 75.4264 70.2113 75.4264 70.9197V72.4545C75.4264 73.2809 74.943 73.8712 74.2179 74.2254C74.0971 73.1628 73.6137 72.1003 72.8886 71.2738C72.2843 70.6835 71.5592 70.2113 70.8341 69.9752L71.6801 68.0862C71.9218 67.4959 71.6801 66.7875 71.0758 66.5514C70.4716 66.3153 69.7465 66.5514 69.5048 67.1417L68.4172 69.621H66.7253L65.6376 67.1417C65.3959 66.5514 64.6708 66.3153 64.0666 66.5514C63.4624 66.7875 63.2207 67.4959 63.4624 68.0862L64.3083 69.9752C63.4624 70.2113 62.7373 70.6835 62.2539 71.2738C61.5288 72.1003 61.0454 73.1628 60.9245 74.2254C60.1994 73.8712 59.716 73.1628 59.716 72.4545V70.9197C59.716 70.2113 59.2326 69.7391 58.5076 69.7391C57.7825 69.7391 57.2991 70.2113 57.2991 70.9197V72.4545C57.2991 74.5795 58.8701 76.3505 60.9245 76.7046V77.0588H57.6616C56.9365 77.0588 56.4531 77.5311 56.4531 78.2394C56.4531 78.9478 56.8157 79.42 57.5408 79.42ZM63.3415 80.4826L63.0998 75.8782H66.2419V83.6702C64.6708 83.316 63.4624 82.0174 63.3415 80.4826ZM68.6589 83.6702V75.8782H71.8009L71.5592 80.4826C71.4384 82.0174 70.2299 83.316 68.6589 83.6702ZM65.8793 71.9822H69.1423C69.8673 71.9822 70.5924 72.3364 71.1967 72.8086C71.3175 73.0448 71.5592 73.1628 71.6801 73.3989H63.4624C63.5832 73.1628 63.7041 72.9267 63.9458 72.8086C64.3083 72.2183 65.0334 71.9822 65.8793 71.9822Z" fill="#0E8778"/>
<path d="M84.0078 61.1289H52.0209C51.2994 61.1289 50.8184 61.6051 50.8184 62.3194V90.7725C50.8184 91.4869 51.2994 91.9631 52.0209 91.9631H84.0078C84.7293 91.9631 85.2103 91.4869 85.2103 90.7725V62.3194C85.2103 61.7242 84.6091 61.1289 84.0078 61.1289ZM82.8053 89.582H53.2234V63.51H82.8053V89.582Z" fill="#0E8778"/>
</svg>
