<svg width="136" height="136" viewBox="0 0 136 136" fill="none" xmlns="http://www.w3.org/2000/svg">
<path fill-rule="evenodd" clip-rule="evenodd" d="M93.7001 10.5921C99.0348 9.16268 104.518 12.3285 105.948 17.6632L125.411 90.3008C126.84 95.6354 123.674 101.119 118.34 102.548L45.7021 122.011C40.3674 123.441 34.884 120.275 33.4546 114.94L13.9914 42.3027C12.562 36.9681 15.7278 31.4847 21.0625 30.0553L93.7001 10.5921Z" fill="#C5ECDC"/>
<path fill-rule="evenodd" clip-rule="evenodd" d="M60.9289 7.75467C64.8342 3.84942 71.1658 3.84942 75.0711 7.75466L128.245 60.9291C132.151 64.8343 132.151 71.166 128.245 75.0712L75.0711 128.246C71.1658 132.151 64.8342 132.151 60.9289 128.246L7.75451 75.0712C3.84927 71.166 3.84926 64.8343 7.75451 60.9291L60.9289 7.75467Z" fill="white"/>
<path d="M94.296 92.2426H92.8006C95.7913 87.2356 92.6245 77.4853 92.4489 76.9584C92.2728 76.5192 91.9211 76.3434 91.4813 76.3434C91.0415 76.4313 90.7774 76.7826 90.6898 77.1338C90.6018 79.8571 89.5462 82.4042 88.4906 84.4247C87.2589 81.438 88.6666 76.1676 88.6666 76.0798C88.7547 75.6406 88.5786 75.2014 88.2269 75.0256C87.8751 74.8498 87.3473 74.9377 87.1713 75.2889L83.6528 80.3839C82.5972 75.9919 80.7501 71.424 77.4076 69.0528C77.1439 68.877 76.7037 68.877 76.44 69.0528C76.1763 69.2286 76.0003 69.5799 76.0883 69.9311C76.0883 70.019 76.9678 74.499 76.5281 80.2086L75.1203 79.0674C74.9442 78.8916 74.6805 78.7162 74.4164 78.7162C74.1527 78.7162 73.8886 78.8041 73.7125 78.9795L72.5689 80.297C72.6569 78.1008 73.4484 76.0804 73.4484 76.0804C73.6245 75.6412 73.4484 75.2021 73.0087 74.9383C72.5689 74.7625 72.1291 74.8504 71.865 75.2896L67.2909 82.7562C67.0272 81.79 66.6751 80.8238 66.3234 79.8575C67.0272 78.5399 66.7631 79.1546 70.1936 64.0463C70.6333 63.6951 70.9851 63.168 71.2492 62.553C72.5685 62.553 73.8002 62.1138 74.9438 61.323C75.6477 61.938 76.7029 62.2893 77.4948 61.7622L92.097 51.9243C93.4164 50.9581 93.8561 49.4647 93.3287 47.9714C92.6248 45.7751 89.8982 44.3697 87.6109 46.1268L74.2402 57.3705C73.6244 57.8097 73.4487 58.6881 73.7124 59.5668C73.7124 59.6547 73.8005 59.8301 73.8885 59.918C73.097 60.4451 72.3051 60.7084 71.4255 60.7964C71.3375 60.0934 70.9858 59.3909 70.458 58.8639C69.8421 58.161 68.9626 57.8097 68.0831 57.7218C68.0831 56.6676 68.4348 55.7893 69.1387 54.9109C69.5785 55.1743 70.0182 55.2622 70.458 55.2622C70.9858 55.2622 71.4256 55.0864 71.7774 54.7351L84.0041 42.0855C84.9717 40.9435 85.2358 39.6259 84.62 38.3085C83.5644 36.0248 80.4856 34.9706 78.3748 37.3422L67.6434 51.1331C67.2036 51.6602 67.1156 52.3631 67.4673 53.1535C67.5554 53.3293 67.731 53.5927 67.8191 53.7685C66.6754 55.2618 66.3237 56.843 66.3237 58.0727C65.972 58.2485 65.5322 58.5119 65.2681 58.7756L51.2822 60.9719C47.9397 61.4989 45.2127 63.8706 44.3331 67.121L43.1895 70.9859C43.1014 71.3372 43.1895 71.6888 43.4532 71.8643C43.7177 72.1276 44.1575 72.1276 44.4211 72.0397L64.8286 63.3431C65.0923 63.6943 65.3564 63.958 65.6201 64.2214L61.6618 72.1272C61.31 71.7759 60.9579 71.4243 60.6062 71.1609C60.3425 70.8976 59.9023 70.8976 59.6386 71.073C59.2869 71.2488 59.1988 71.6001 59.1988 72.0393C59.1988 72.1272 59.9903 76.0801 60.4305 80.5601C59.9907 79.9451 59.639 79.5059 59.639 79.5059C59.4629 79.3301 59.2873 79.2426 59.0231 79.2426C58.7595 79.2426 58.5834 79.3305 58.4073 79.5059C58.2312 79.6818 58.0556 79.8572 57.7915 80.1209L57.7034 80.2088C57.4397 80.5601 57.0876 80.8238 56.9119 81.1751C56.1204 76.783 57 72.2151 57 72.1272C57.088 71.776 56.9119 71.3368 56.5602 71.161C56.2085 70.9851 55.7687 71.0731 55.5046 71.3368C52.8656 73.8843 51.1945 77.0468 50.3146 80.5601C50.3146 80.4722 46.7961 75.641 46.708 75.5531C46.3563 75.2019 45.8285 75.2019 45.4764 75.5531C45.1246 75.9044 45.1246 76.4314 45.3883 76.7831L45.4764 76.871C46.1802 78.101 46.2679 81.5268 45.4764 84.601C44.069 81.4386 43.4533 76.7831 43.4533 76.6952C43.4533 76.4319 43.1896 76.1681 42.9255 75.9923C42.6618 75.9044 42.3096 75.9044 42.134 75.9923C37.2081 78.8911 39.7591 89.7832 40.3749 92.2429L39.1432 92.2433H38.8795C38.3517 92.2433 38 92.5946 38 93.1217C38 93.6487 38.3517 94 38.8795 94H94.1205C94.6483 94 95 93.6487 95 93.1217C94.9996 92.595 94.7359 92.2433 94.2957 92.2433L94.296 92.2426ZM91.6574 81.3499C92.4489 85.2148 92.713 90.134 90.4258 92.2426H88.5787C89.7223 90.8372 89.898 88.9047 89.1945 86.6206C90.074 85.2151 91.0416 83.4584 91.6575 81.3502L91.6574 81.3499ZM86.2037 79.6811C86.0276 81.6135 86.1157 83.8977 86.9076 85.5665C87.0836 85.9177 87.2593 86.3569 87.4354 86.7965C88.0512 88.5531 88.3149 90.9252 86.028 92.0668C85.94 92.0668 85.8519 92.1548 85.8519 92.2427H84.7083C84.7083 91.4522 84.7083 87.4993 83.9168 82.9314L86.2037 79.6811ZM82.1573 82.9311C82.9488 87.499 82.9488 91.6277 82.9488 92.2423H78.8145C76.2635 90.5732 77.6708 84.4244 77.8469 82.7553C78.3747 78.5387 78.1986 74.6736 77.9349 72.302C80.2222 74.9374 81.4534 79.0661 82.1573 82.9311ZM74.4164 80.9107L75.9997 82.8432C75.736 84.5123 74.6804 89.1678 76.4395 92.1544H73.5368C75.736 88.8165 73.5368 84.6878 72.921 82.5794L74.4164 80.9107ZM70.8979 80.3836C70.8979 81.0865 70.8979 81.877 71.0739 82.5799C71.5137 84.7762 74.4164 89.2561 71.4257 91.979C71.3376 92.0669 71.3376 92.0669 71.3376 92.1548L69.2268 92.1544C69.2268 91.7152 68.8751 88.7286 67.9075 85.039L70.8979 80.3836ZM64.301 91.8908C61.9261 91.5395 62.3659 85.8296 62.3659 83.8091C62.2778 80.4712 61.8381 76.8695 61.3983 74.4979C63.7731 77.4845 65.1805 81.7012 66.1481 85.2147C67.0276 88.6405 67.3798 91.4513 67.4674 92.2421H64.9165C64.7408 92.0667 64.5647 91.8909 64.301 91.8909L64.301 91.8908ZM75.3837 58.7741L88.7544 47.4419C90.0737 46.4756 91.3934 47.4419 91.7451 48.496C91.9212 48.9352 92.0088 49.8136 91.1293 50.5164L76.527 60.3547C76.3509 60.3547 76.0872 60.0913 75.7355 59.6517C75.3834 59.213 75.2957 58.8613 75.3834 58.7738L75.3837 58.7741ZM69.7544 61.585C69.5783 62.6391 68.6107 63.3417 67.6431 63.1662C67.0273 63.0783 66.4115 62.6391 66.1477 61.9362C65.708 60.7062 66.7636 59.4766 67.9948 59.4766C68.9624 59.4766 69.8419 60.4428 69.7544 61.585ZM79.6942 38.4821C80.8378 37.1646 82.4212 38.0429 82.9486 39.0971C83.2127 39.5363 83.3003 40.2392 82.6849 40.9417L70.5457 53.5912C70.282 53.5912 69.8419 53.3279 69.4021 52.8883C69.1384 52.5371 69.0504 52.2733 69.0504 52.2733L79.6942 38.4821ZM46.0922 67.6458C46.8837 65.0982 48.9949 63.1658 51.6339 62.7266L64.3008 60.7062C64.2127 60.9696 64.2127 61.3212 64.3008 61.6725L45.4762 69.6662L46.0922 67.6458ZM67.2912 64.9224C67.5549 65.0104 67.995 65.0104 68.2587 64.9224L65.444 77.396V77.5718C64.7402 76.0785 63.9487 74.761 62.9811 73.531L67.2912 64.9224ZM60.6058 83.9848C60.6938 86.6202 60.166 89.9581 61.9252 92.2418H57.0873C56.8236 91.2756 55.9437 87.2348 57.351 83.721C57.7027 82.8427 58.2306 82.0519 58.8464 81.3494C59.2866 81.8765 59.9019 82.8427 60.6058 83.9848ZM51.6336 82.6673C52.0734 79.5927 53.129 76.9573 54.8881 74.5856C54.712 76.9572 54.712 80.2955 55.5919 83.3698C54.2726 86.8835 54.8881 90.6606 55.2402 92.2418H52.3375V92.066C52.3375 92.0664 50.9297 87.7617 51.6336 82.6673ZM47.3235 92.2418C46.444 90.6606 46.1799 88.3769 46.8838 86.3564C47.5877 84.336 47.9394 82.0522 47.9394 80.0318L49.9625 82.7551C49.4347 87.2351 50.3142 91.0122 50.6664 92.2421L47.3235 92.2418ZM42.2216 92.1539C41.342 89.1673 39.9347 81.7006 41.9579 78.538C42.3976 80.7342 43.2772 84.5992 44.7726 86.9709C44.3328 89.2546 44.8606 91.1875 45.3004 92.2413L42.2216 92.2417V92.1538L42.2216 92.1539Z" fill="#0E8778"/>
</svg>
