<svg width="136" height="136" viewBox="0 0 136 136" fill="none" xmlns="http://www.w3.org/2000/svg">
<path fill-rule="evenodd" clip-rule="evenodd" d="M93.7001 10.5921C99.0348 9.16268 104.518 12.3285 105.948 17.6632L125.411 90.3008C126.84 95.6354 123.674 101.119 118.34 102.548L45.7021 122.011C40.3674 123.441 34.884 120.275 33.4546 114.94L13.9914 42.3027C12.562 36.9681 15.7278 31.4847 21.0625 30.0553L93.7001 10.5921Z" fill="#B2D8C8"/>
<path fill-rule="evenodd" clip-rule="evenodd" d="M60.9289 7.75467C64.8342 3.84942 71.1658 3.84942 75.0711 7.75466L128.245 60.9291C132.151 64.8343 132.151 71.166 128.245 75.0712L75.0711 128.246C71.1658 132.151 64.8342 132.151 60.9289 128.246L7.75451 75.0712C3.84927 71.166 3.84926 64.8343 7.75451 60.9291L60.9289 7.75467Z" fill="white"/>
<path d="M79.633 91.418H76.3384C75.7325 91.418 75.2402 91.9102 75.2402 92.5162C75.2402 93.1221 75.7325 93.6144 76.3384 93.6144H79.633C80.239 93.6144 80.7313 93.1221 80.7313 92.5162C80.7313 91.9102 80.2395 91.418 79.633 91.418Z" fill="#0E8778"/>
<path d="M71.9461 91.4207H67.5455C67.5455 91.2923 67.5312 91.1629 67.4842 91.0354C67.3449 90.6633 64.0777 82.2816 55.4731 81.6031V77.7011C55.8575 77.8275 56.2364 77.8977 56.6051 77.8977C59.007 77.8977 61.0175 75.5027 61.8181 74.5491C65.0942 70.6485 64.949 65.255 64.9417 65.0266C64.9309 64.7157 64.7892 64.4235 64.5509 64.224C64.3127 64.024 63.9984 63.9343 63.692 63.9769C63.466 64.0088 58.1284 64.7986 54.8524 68.6992C54.5768 69.0277 54.3342 69.3429 54.1057 69.6537C53.715 68.6884 53.1413 67.7701 52.452 67.0818C49.1177 63.7519 43.9596 63.6401 43.7409 63.6367C43.4683 63.6509 43.1511 63.751 42.9403 63.9672C42.7305 64.1814 42.6172 64.4736 42.6275 64.7741C42.6354 64.9859 42.8506 69.997 46.0099 73.4402C47.3807 74.9335 49.1187 75.8112 50.7782 75.8484C50.8145 75.8484 50.8498 75.8494 50.8861 75.8494C51.5778 75.8494 52.2162 75.6813 52.7795 75.3959C52.9123 75.6572 53.0761 75.9112 53.2781 76.1539V81.6042C44.6748 82.2818 41.4077 90.6645 41.267 91.0365C41.2199 91.164 41.2057 91.2934 41.2057 91.4218H40.0982C39.4922 91.4218 39 91.9141 39 92.52C39 93.126 39.4922 93.6182 40.0982 93.6182H71.9461C72.5521 93.6182 73.0443 93.126 73.0443 92.52C73.0443 91.9141 72.5526 91.4209 71.9461 91.4209L71.9461 91.4207ZM56.5336 70.1106C58.3622 67.9337 61.0769 66.8983 62.6791 66.4502C62.5154 68.1063 61.9653 70.9583 60.1365 73.1351C57.1704 76.666 56.0413 75.7203 55.3692 75.1545C54.7804 74.6603 54.5534 74.2274 54.5862 73.6612C54.6206 73.0582 54.9873 71.9537 56.5336 70.1107L56.5336 70.1106ZM50.8273 73.6503C49.7776 73.6273 48.5813 72.9924 47.6273 71.9525C45.8888 70.0581 45.2221 67.473 44.9705 65.9531C46.4957 66.1791 49.0843 66.8209 50.8998 68.6329C51.7892 69.5213 52.4584 71.051 52.4584 72.1914C52.4584 72.511 52.4045 72.9425 52.153 73.193C51.7583 73.5877 51.2161 73.6612 50.8273 73.6504L50.8273 73.6503ZM54.3754 83.7327C61.3764 83.7327 64.5461 89.8081 65.2653 91.4201H43.4895C44.221 89.8155 47.4529 83.7327 54.3759 83.7327H54.3754Z" fill="#0E8778"/>
<path d="M96.6651 66.975L93.2979 61.2016C96.5278 59.1636 97.8173 55.2428 96.7278 50.6392C95.7978 46.7078 93.0709 42.5189 90.119 42.3125C87.0441 42.1017 85.2649 44.1298 84.4138 45.9684L83.244 43.9632C83.1386 43.7832 82.9846 43.6371 82.8003 43.5415L82.4498 43.3592C79.187 41.6668 75.3894 41.5491 72.031 43.0385C68.6707 44.5274 66.2071 47.4205 65.2717 50.975L65.1707 51.3584C65.1178 51.5584 65.1236 51.7682 65.1859 51.9643L58.3662 51.6481C58.0358 51.6373 57.7392 51.7579 57.5196 51.9883C57.2999 52.2188 57.1911 52.533 57.222 52.8502L57.5534 56.3076C57.596 56.7523 57.9039 57.1269 58.3309 57.2553L67.7544 60.0813L73.2277 77.3677C73.567 78.4394 74.35 79.3189 75.3756 79.7817C75.8918 80.0146 76.4473 80.1308 77.0018 80.1308C77.5489 80.1308 78.0956 80.0175 78.6049 79.7915L94.8496 72.5894C95.8776 72.1335 96.666 71.2593 97.0121 70.1885C97.3581 69.1178 97.2317 67.9471 96.665 66.9753L96.6651 66.975ZM86.0267 48.0156C86.0586 47.8631 86.8503 44.2827 89.966 44.5034C91.431 44.6053 93.7195 47.4675 94.5908 51.144C95.0036 52.8914 95.5694 57.1248 92.1943 59.309L85.8468 48.4236C85.9312 48.305 85.9949 48.1687 86.0268 48.0157L86.0267 48.0156ZM67.3961 51.5343C68.1605 48.6285 70.1745 46.2649 72.921 45.0469C75.6676 43.8291 78.7724 43.9257 81.4385 45.3092L82.3631 46.8884L67.9095 53.2962L67.3746 51.6083L67.3961 51.5343ZM59.669 55.3638L59.5298 53.9022L65.6239 54.1856C65.7126 54.189 65.7921 54.1616 65.8754 54.1459L66.9525 57.5483L59.669 55.3638ZM94.922 69.5112C94.7661 69.9946 94.4234 70.3745 93.9601 70.5799L77.7155 77.782C77.2507 77.9875 76.7403 77.985 76.277 77.7776C75.8147 77.5688 75.4744 77.1869 75.3205 76.7034L68.5764 55.4046L83.4793 48.7976L94.7669 68.0821C95.0233 68.5209 95.0782 69.0278 94.9223 69.5113L94.922 69.5112Z" fill="#0E8778"/>
<path d="M83.9665 58.1291L78.6677 56.0852C78.1034 55.8675 77.466 56.1499 77.2479 56.7147L75.204 62.0136C73.8597 65.5003 75.6026 69.4309 79.0894 70.7761C79.8812 71.0816 80.7073 71.234 81.5309 71.234C82.4644 71.234 83.3968 71.0384 84.2754 70.6486C85.9306 69.9152 87.2009 68.5806 87.8524 66.8916C89.1972 63.4049 87.4543 59.4743 83.9665 58.1291ZM85.8026 66.1015C85.3623 67.2438 84.5033 68.1454 83.3855 68.6415C82.2677 69.1391 81.0235 69.1685 79.8801 68.7283C77.5234 67.8188 76.3462 65.1626 77.2542 62.8058L78.9025 58.5316L83.1767 60.1799C85.5334 61.0878 86.7105 63.7441 85.8026 66.1015Z" fill="#0E8778"/>
<path d="M54.0284 62.8104C54.1436 62.8486 54.2613 62.8672 54.3755 62.8672C54.8358 62.8672 55.2638 62.576 55.4178 62.1161L56.516 58.8215C56.7082 58.246 56.3974 57.6243 55.8218 57.4321C55.2452 57.239 54.6236 57.5518 54.4324 58.1264L53.3342 61.421C53.142 61.9965 53.4528 62.6182 54.0284 62.8104Z" fill="#0E8778"/>
<path d="M48.8843 56.277C48.9985 56.277 49.1162 56.2584 49.2314 56.2202L52.526 55.122C53.1016 54.9298 53.4124 54.3081 53.2202 53.7326C53.028 53.158 52.4074 52.8432 51.8308 53.0384L48.5362 54.1366C47.9607 54.3287 47.6498 54.9504 47.842 55.526C47.995 55.9848 48.4244 56.277 48.8843 56.277Z" fill="#0E8778"/>
<path d="M52.6677 50.6004C52.8545 50.7255 53.0663 50.7848 53.2761 50.7848C53.6311 50.7848 53.9792 50.6137 54.191 50.296C54.5268 49.792 54.391 49.109 53.887 48.7727L50.5924 46.5763C50.0859 46.238 49.4054 46.3753 49.0691 46.8802C48.7332 47.3842 48.869 48.0672 49.3731 48.4035L52.6677 50.6004Z" fill="#0E8778"/>
<path d="M85.6741 85.9297H82.3795C81.7735 85.9297 81.2812 86.4219 81.2812 87.0279C81.2812 87.6339 81.7735 88.1261 82.3795 88.1261H85.6741C86.28 88.1261 86.7723 87.6339 86.7723 87.0279C86.7723 86.4219 86.2805 85.9297 85.6741 85.9297Z" fill="#0E8778"/>
<path d="M77.9868 88.1261C78.5928 88.1261 79.085 87.6339 79.085 87.0279C79.085 86.4219 78.5928 85.9297 77.9868 85.9297H70.2994C69.6934 85.9297 69.2012 86.4219 69.2012 87.0279C69.2012 87.6339 69.6934 88.1261 70.2994 88.1261H77.9868Z" fill="#0E8778"/>
</svg>
