<svg width="64" height="64" viewBox="0 0 64 64" fill="none" xmlns="http://www.w3.org/2000/svg">
<path fill-rule="evenodd" clip-rule="evenodd" d="M38.8974 6.63214C44.2301 5.19571 49.7063 8.35736 51.1288 13.6939L57.4362 37.3574C58.8586 42.694 55.6887 48.1845 50.3559 49.621L26.9038 55.938C21.571 57.3744 16.0948 54.2128 14.6724 48.8763L8.36497 25.2127C6.94254 19.8762 10.1125 14.3856 15.4453 12.9492L38.8974 6.63214Z" fill="#B7DBD7"/>
<path fill-rule="evenodd" clip-rule="evenodd" d="M25.0569 7.69898C28.9519 3.78351 35.2669 3.7835 39.1619 7.69897L56.3621 24.9898C60.2571 28.9052 60.2571 35.2535 56.3622 39.169L39.1619 56.4598C35.2669 60.3753 28.9519 60.3753 25.0569 56.4598L7.8566 39.169C3.96162 35.2535 3.96161 28.9053 7.85659 24.9898L25.0569 7.69898Z" fill="#3E9F93"/>
<path d="M36.8047 42.6543H35.3611C35.0956 42.6543 34.8799 42.87 34.8799 43.1355C34.8799 43.401 35.0956 43.6167 35.3611 43.6167H36.8047C37.0703 43.6167 37.286 43.401 37.286 43.1355C37.286 42.87 37.0705 42.6543 36.8047 42.6543Z" fill="white"/>
<path d="M33.4364 42.655H31.5081C31.5081 42.5987 31.5019 42.542 31.4813 42.4861C31.4203 42.3231 29.9886 38.6504 26.2182 38.353V36.6432C26.3867 36.6987 26.5527 36.7294 26.7143 36.7294C27.7667 36.7294 28.6477 35.6799 28.9985 35.2621C30.434 33.5529 30.3704 31.1896 30.3672 31.0895C30.3625 30.9533 30.3004 30.8252 30.196 30.7378C30.0916 30.6502 29.9539 30.6108 29.8196 30.6295C29.7206 30.6435 27.3818 30.9896 25.9462 32.6988C25.8255 32.8427 25.7192 32.9808 25.6191 33.117C25.4478 32.694 25.1965 32.2917 24.8944 31.9901C23.4334 30.531 21.1732 30.482 21.0774 30.4805C20.9579 30.4867 20.819 30.5305 20.7266 30.6253C20.6346 30.7191 20.585 30.8472 20.5895 30.9789C20.593 31.0717 20.6873 33.2674 22.0716 34.7762C22.6723 35.4305 23.4338 35.8151 24.161 35.8314C24.1769 35.8314 24.1924 35.8319 24.2083 35.8319C24.5114 35.8319 24.7911 35.7582 25.0379 35.6331C25.0962 35.7477 25.1679 35.8589 25.2564 35.9653V38.3535C21.4866 38.6504 20.055 42.3236 19.9934 42.4866C19.9727 42.5424 19.9665 42.5992 19.9665 42.6554H19.4812C19.2157 42.6554 19 42.8711 19 43.1367C19 43.4022 19.2157 43.6179 19.4812 43.6179H33.4364C33.702 43.6179 33.9176 43.4022 33.9176 43.1367C33.9176 42.8711 33.7022 42.655 33.4364 42.655L33.4364 42.655ZM26.6829 33.3172C27.4842 32.3633 28.6737 31.9096 29.3758 31.7133C29.304 32.439 29.063 33.6886 28.2617 34.6425C26.962 36.1897 26.4672 35.7753 26.1727 35.5274C25.9147 35.3108 25.8152 35.1211 25.8296 34.873C25.8447 34.6088 26.0054 34.1248 26.6829 33.3173L26.6829 33.3172ZM24.1825 34.8682C23.7226 34.8582 23.1984 34.5799 22.7803 34.1243C22.0185 33.2942 21.7264 32.1615 21.6162 31.4955C22.2845 31.5945 23.4188 31.8757 24.2143 32.6697C24.604 33.059 24.8972 33.7293 24.8972 34.229C24.8972 34.369 24.8736 34.5581 24.7634 34.6679C24.5905 34.8408 24.3529 34.873 24.1825 34.8683L24.1825 34.8682ZM25.7373 39.2862C28.805 39.2862 30.1939 41.9483 30.509 42.6547H20.9672C21.2878 41.9516 22.7039 39.2862 25.7375 39.2862H25.7373Z" fill="white"/>
<path d="M44.2678 31.9436L42.7923 29.4138C44.2076 28.5208 44.7726 26.8028 44.2952 24.7856C43.8877 23.0629 42.6928 21.2274 41.3994 21.1369C40.052 21.0445 39.2724 21.9333 38.8994 22.7389L38.3869 21.8602C38.3407 21.7814 38.2732 21.7174 38.1924 21.6755L38.0388 21.5956C36.6092 20.854 34.9451 20.8024 33.4735 21.4551C32.0011 22.1075 30.9216 23.3752 30.5117 24.9327L30.4674 25.1007C30.4442 25.1883 30.4468 25.2803 30.4741 25.3662L27.4858 25.2276C27.3411 25.2229 27.2111 25.2758 27.1148 25.3767C27.0186 25.4777 26.9709 25.6154 26.9844 25.7544L27.1297 27.2694C27.1484 27.4642 27.2833 27.6283 27.4704 27.6846L31.5996 28.9229L33.9979 36.4975C34.1466 36.9671 34.4896 37.3525 34.939 37.5553C35.1653 37.6573 35.4087 37.7083 35.6516 37.7083C35.8914 37.7083 36.1309 37.6586 36.3541 37.5596L43.4722 34.4038C43.9227 34.204 44.2682 33.8209 44.4198 33.3517C44.5714 32.8826 44.516 32.3696 44.2677 31.9437L44.2678 31.9436ZM39.6062 23.6359C39.6202 23.5691 39.9671 22.0002 41.3323 22.0969C41.9743 22.1416 42.9771 23.3958 43.3588 25.0068C43.5397 25.7724 43.7876 27.6274 42.3087 28.5845L39.5274 23.8147C39.5643 23.7627 39.5923 23.703 39.6062 23.636L39.6062 23.6359ZM31.4426 25.1778C31.7775 23.9045 32.66 22.8688 33.8635 22.3351C35.067 21.8015 36.4275 21.8438 37.5957 22.45L38.0009 23.142L31.6675 25.9498L31.4332 25.2102L31.4426 25.1778ZM28.0567 26.8558L27.9957 26.2154L30.666 26.3395C30.7049 26.341 30.7397 26.329 30.7762 26.3221L31.2482 27.813L28.0567 26.8558ZM43.504 33.0549C43.4357 33.2667 43.2855 33.4332 43.0825 33.5233L35.9644 36.6791C35.7607 36.7691 35.5371 36.768 35.334 36.6772C35.1315 36.5856 34.9824 36.4183 34.9149 36.2065L31.9598 26.8737L38.49 23.9786L43.436 32.4287C43.5483 32.621 43.5724 32.8431 43.5041 33.055L43.504 33.0549Z" fill="white"/>
<path d="M38.7036 28.0665L36.3817 27.1709C36.1344 27.0755 35.8552 27.1992 35.7596 27.4467L34.864 29.7686C34.2749 31.2964 35.0386 33.0187 36.5665 33.6082C36.9134 33.742 37.2754 33.8088 37.6363 33.8088C38.0453 33.8088 38.4539 33.7231 38.8389 33.5523C39.5642 33.2309 40.1208 32.6462 40.4063 31.9061C40.9956 30.3782 40.2319 28.6559 38.7036 28.0665ZM39.5081 31.5598C39.3152 32.0604 38.9388 32.4554 38.449 32.6728C37.9592 32.8909 37.414 32.9038 36.913 32.7109C35.8803 32.3123 35.3645 31.1484 35.7623 30.1157L36.4846 28.2428L38.3575 28.9651C39.3901 29.3629 39.9059 30.5269 39.5081 31.5598Z" fill="white"/>
<path d="M25.5852 30.118C25.6357 30.1348 25.6872 30.1429 25.7373 30.1429C25.939 30.1429 26.1266 30.0153 26.194 29.8138L26.6752 28.3702C26.7594 28.118 26.6232 27.8456 26.371 27.7614C26.1184 27.6767 25.846 27.8138 25.7622 28.0656L25.281 29.5092C25.1968 29.7614 25.333 30.0338 25.5852 30.118Z" fill="white"/>
<path d="M23.331 27.257C23.381 27.257 23.4326 27.2488 23.4831 27.2321L24.9267 26.7509C25.1789 26.6667 25.3151 26.3943 25.2309 26.1421C25.1467 25.8903 24.8747 25.7524 24.6221 25.8379L23.1785 26.3191C22.9263 26.4033 22.7901 26.6757 22.8743 26.9279C22.9413 27.129 23.1295 27.257 23.331 27.257Z" fill="white"/>
<path d="M24.9889 24.7685C25.0708 24.8233 25.1636 24.8493 25.2555 24.8493C25.4111 24.8493 25.5636 24.7743 25.6564 24.6351C25.8035 24.4142 25.744 24.115 25.5232 23.9676L24.0796 23.0052C23.8576 22.8569 23.5595 22.9171 23.4121 23.1384C23.2649 23.3592 23.3244 23.6585 23.5453 23.8059L24.9889 24.7685Z" fill="white"/>
<path d="M39.4517 40.25H38.0081C37.7425 40.25 37.5269 40.4657 37.5269 40.7312C37.5269 40.9967 37.7425 41.2124 38.0081 41.2124H39.4517C39.7172 41.2124 39.9329 40.9967 39.9329 40.7312C39.9329 40.4657 39.7175 40.25 39.4517 40.25Z" fill="white"/>
<path d="M36.0834 41.2124C36.3489 41.2124 36.5646 40.9967 36.5646 40.7312C36.5646 40.4657 36.3489 40.25 36.0834 40.25H32.7149C32.4493 40.25 32.2336 40.4657 32.2336 40.7312C32.2336 40.9967 32.4493 41.2124 32.7149 41.2124H36.0834Z" fill="white"/>
</svg>
