<svg width="136" height="136" viewBox="0 0 136 136" fill="none" xmlns="http://www.w3.org/2000/svg">
<path fill-rule="evenodd" clip-rule="evenodd" d="M93.7001 10.5921C99.0348 9.16268 104.518 12.3285 105.948 17.6632L125.411 90.3008C126.84 95.6354 123.674 101.119 118.34 102.548L45.7021 122.011C40.3674 123.441 34.884 120.275 33.4546 114.94L13.9914 42.3027C12.562 36.9681 15.7278 31.4847 21.0625 30.0553L93.7001 10.5921Z" fill="#B2D8C8"/>
<path fill-rule="evenodd" clip-rule="evenodd" d="M60.9289 7.75467C64.8342 3.84942 71.1658 3.84942 75.0711 7.75466L128.245 60.9291C132.151 64.8343 132.151 71.166 128.245 75.0712L75.0711 128.246C71.1658 132.151 64.8342 132.151 60.9289 128.246L7.75451 75.0712C3.84927 71.166 3.84926 64.8343 7.75451 60.9291L60.9289 7.75467Z" fill="#3E9F93"/>
<path fill-rule="evenodd" clip-rule="evenodd" d="M66.9357 47.001C62.7715 47.001 59.3428 50.36 59.3428 54.4888C59.3428 55.0543 59.4216 55.6085 59.5325 56.142C58.0155 56.8253 56.7645 57.9913 55.98 59.4379C55.9012 59.4379 55.8378 59.3595 55.767 59.328C55.8457 58.9271 55.8854 58.5179 55.8854 58.0998C55.8854 54.4785 52.8807 51.5232 49.2361 51.5232H46.6211C42.9765 51.5232 39.9718 54.4785 39.9718 58.0998C39.9718 58.5164 40.0506 58.9311 40.0902 59.3319C37.9096 60.4122 36.4059 62.6477 36.4059 65.2153C36.4059 65.663 36.4846 66.0979 36.5401 66.5204C34.4372 67.6268 33 69.8199 33 72.3309C33 75.9522 36.0047 78.9075 39.6488 78.9075H46.156V85.4649H41.1033C40.6323 85.4649 40.1811 85.6513 39.8478 85.9826C39.515 86.3139 39.3283 86.7636 39.3283 87.232C39.3283 87.7008 39.515 88.1505 39.8478 88.4818C40.1811 88.8131 40.6323 88.999 41.1033 88.999H68.4979H68.4974C68.4984 88.9995 68.4989 88.9995 68.4999 89C68.5019 88.9995 68.5044 88.9995 68.5064 88.999H95.8972H95.8967C96.3677 88.999 96.8189 88.8131 97.1522 88.4818C97.485 88.1505 97.6717 87.7008 97.6717 87.232C97.6717 86.7636 97.485 86.3139 97.1522 85.9826C96.8189 85.6513 96.3677 85.4649 95.8967 85.4649H90.8446V78.9075H97.3512C100.995 78.9075 104 75.9522 104 72.3309C104 69.8198 102.564 67.6258 100.46 66.5204C100.547 66.0959 100.595 65.661 100.595 65.2153C100.595 62.6475 99.091 60.4121 96.9113 59.3319C96.9901 58.9311 97.0297 58.5194 97.0297 58.0998C97.0297 54.4785 94.025 51.5232 90.3809 51.5232H87.7654C84.1209 51.5232 81.1162 54.4785 81.1162 58.0998C81.1162 58.5164 81.1949 58.9286 81.2345 59.327C81.1558 59.327 81.0924 59.4054 81.0216 59.4369C80.24 57.9903 78.987 56.8257 77.47 56.141C77.5884 55.6065 77.6597 55.0543 77.6597 54.4878C77.6597 50.3585 74.231 47 70.0679 47L66.9357 47.001ZM66.9357 50.5351H70.0573C72.3384 50.5351 74.0991 52.2794 74.0991 54.4888C74.0991 55.2037 73.9173 55.851 73.5939 56.4195V56.419C73.3042 56.9288 73.2863 57.5481 73.5464 58.0731C73.8069 58.5977 74.3115 58.9606 74.894 59.041C76.876 59.3161 78.3578 60.9368 78.3578 62.9537C78.3578 63.6686 78.1681 64.3264 77.8368 64.9018H77.8372C77.5475 65.4032 77.5232 66.0136 77.7709 66.5367C78.019 67.0593 78.5083 67.4286 79.0808 67.5247C81.001 67.8467 82.4248 69.4426 82.4248 71.4197C82.4248 73.629 80.6646 75.3734 78.383 75.3734H70.2731V72.8992L74.0227 69.7122H74.0232C74.3813 69.4075 74.6031 68.9741 74.6403 68.5067C74.6774 68.0398 74.5264 67.5769 74.2203 67.2205C73.5839 66.4784 72.4641 66.3907 71.7188 67.0242L70.2737 68.2524V66.6757L74.0233 63.4882V63.4877C74.7687 62.8541 74.8568 61.7389 74.2204 60.9969C73.584 60.2548 72.4642 60.1671 71.7189 60.8006L70.2738 62.0288V61.2123C70.2738 60.7434 70.0866 60.2938 69.7538 59.9625C69.421 59.6311 68.9693 59.4453 68.4988 59.4453C68.0278 59.4453 67.5761 59.6311 67.2433 59.9625C66.9105 60.2938 66.7233 60.7434 66.7233 61.2123V62.0288L65.2791 60.8006C64.9938 60.5585 64.6392 60.4131 64.2658 60.384C63.6992 60.3391 63.1455 60.5669 62.7766 60.9969C62.1402 61.7389 62.2283 62.8542 62.9737 63.4877L66.7232 66.6752V68.2519L65.279 67.0237V67.0242C64.9937 66.7821 64.6391 66.6367 64.2657 66.6076C63.6991 66.5627 63.1455 66.7905 62.7765 67.2205C62.4704 67.5769 62.3194 68.0399 62.3565 68.5067C62.3937 68.9741 62.6155 69.4075 62.9736 69.7122L66.7232 72.8992V75.3734H58.6133C56.3322 75.3734 54.5715 73.629 54.5715 71.4197C54.5715 69.4426 55.9963 67.8476 57.9165 67.5247H57.917C58.4895 67.4281 58.9783 67.0593 59.2259 66.5362C59.474 66.0136 59.4493 65.4032 59.1601 64.9018C58.8287 64.3284 58.639 63.6707 58.639 62.9537C58.639 60.9368 60.1218 59.3151 62.1038 59.041V59.0415C62.6863 58.9606 63.1909 58.5982 63.4515 58.0731C63.7115 57.548 63.6936 56.9288 63.4039 56.4194C63.0805 55.8539 62.8987 55.2001 62.8987 54.4887C62.8987 52.2793 64.6594 50.535 66.9416 50.535L66.9357 50.5351ZM87.7577 55.0578H90.3732C92.1284 55.0578 93.472 56.3929 93.472 58.1002C93.472 58.65 93.3298 59.1494 93.0852 59.5862V59.5857C92.7964 60.095 92.7791 60.7133 93.0391 61.2379C93.2996 61.762 93.8033 62.1244 94.3852 62.2053C95.9061 62.4173 97.0413 63.6563 97.0413 65.2153C97.0413 65.7651 96.8991 66.2719 96.6386 66.7152C96.3509 67.2166 96.3271 67.8265 96.5747 68.3482C96.8228 68.8703 97.3112 69.2386 97.8831 69.3353C99.355 69.5867 100.446 70.8046 100.446 72.3314C100.446 74.0388 99.1035 75.3739 97.3473 75.3739H90.8407V69.9559C90.8407 69.487 90.654 69.0373 90.3207 68.706C89.9879 68.3747 89.5367 68.1883 89.0657 68.1883C88.5947 68.1883 88.1435 68.3747 87.8107 68.706C87.4779 69.0373 87.2907 69.487 87.2907 69.9559V75.3734H84.8189C85.5449 74.2246 85.9728 72.8703 85.9728 71.4198C85.9728 68.464 84.2246 65.9006 81.6972 64.6854C81.8156 64.1904 81.8869 63.683 81.9022 63.1609C82.3757 62.658 83.0141 62.3075 83.7476 62.2054C84.3295 62.1245 84.8332 61.7626 85.0937 61.2385C85.3542 60.7144 85.3369 60.0957 85.0481 59.5863C84.7956 59.1465 84.6613 58.6491 84.6613 58.0999C84.6613 56.3925 86.0045 55.0574 87.7606 55.0574L87.7577 55.0578ZM46.6195 55.0578H49.2344C50.9907 55.0578 52.3337 56.3929 52.3337 58.1002C52.3337 58.65 52.1916 59.1494 51.9469 59.5853L51.9474 59.5848C51.6577 60.0942 51.6403 60.7129 51.9008 61.2375C52.1609 61.7621 52.665 62.1245 53.2469 62.2054C53.9809 62.3074 54.6228 62.6531 55.0932 63.1609C55.0932 63.6875 55.1799 64.1933 55.2982 64.6859C52.7709 65.9007 51.0221 68.4636 51.0221 71.4194C51.0221 72.8699 51.4485 74.2243 52.1761 75.373H49.7048V69.9555V69.956C49.7048 69.4871 49.5176 69.0374 49.1847 68.7061C48.8519 68.3748 48.4007 68.1884 47.9298 68.1884C47.4588 68.1884 47.0076 68.3748 46.6748 68.7061C46.3415 69.0374 46.1548 69.4871 46.1548 69.956V75.3735H39.6471C37.8908 75.3735 36.5483 74.0384 36.5483 72.331C36.5483 70.8045 37.6389 69.5843 39.1118 69.3349L39.1123 69.3353C39.6838 69.2387 40.1721 68.8699 40.4202 68.3483C40.6678 67.8262 40.6441 67.2168 40.3558 66.7153C40.1032 66.2755 39.9532 65.7686 39.9532 65.2154C39.9532 63.6574 41.0883 62.4159 42.6082 62.2054H42.6087C43.1901 62.1245 43.6943 61.7626 43.9543 61.2385C44.2148 60.7144 44.198 60.0956 43.9092 59.5863C43.6566 59.1465 43.5224 58.649 43.5224 58.0998C43.5224 56.3925 44.8656 55.0573 46.6217 55.0573L46.6195 55.0578ZM57.3779 78.807C57.7805 78.8854 58.1916 78.9091 58.6116 78.9091H66.7215V85.4665H49.703V78.9091H56.2096C56.6123 78.9091 56.9996 78.9091 57.3784 78.807H57.3779ZM79.6136 78.807C79.9925 78.8854 80.3872 78.9091 80.7839 78.9091H87.2906V85.4675H70.2708V78.9091H78.3807C78.7992 78.9091 79.2117 78.9091 79.6134 78.807H79.6136Z" fill="white"/>
</svg>
