<svg width="64" height="64" viewBox="0 0 64 64" fill="none" xmlns="http://www.w3.org/2000/svg">
<path fill-rule="evenodd" clip-rule="evenodd" d="M38.8974 6.63214C44.2301 5.19571 49.7063 8.35736 51.1288 13.6939L57.4362 37.3574C58.8586 42.694 55.6887 48.1845 50.3559 49.621L26.9038 55.938C21.571 57.3744 16.0948 54.2128 14.6724 48.8763L8.36497 25.2127C6.94254 19.8762 10.1125 14.3856 15.4453 12.9492L38.8974 6.63214Z" fill="#B7DBD7"/>
<path fill-rule="evenodd" clip-rule="evenodd" d="M25.0569 7.69898C28.9519 3.78351 35.2669 3.7835 39.1619 7.69897L56.3621 24.9898C60.2571 28.9053 60.2571 35.2535 56.3622 39.169L39.1619 56.4598C35.2669 60.3753 28.9519 60.3753 25.0569 56.4598L7.8566 39.169C3.96162 35.2535 3.96161 28.9053 7.85659 24.9898L25.0569 7.69898Z" fill="#3E9F93"/>
<path d="M29.2085 36.1546L32.7947 32.8931C33.1888 33.1682 33.7406 33.0896 34.0165 32.6966C34.4894 32.0679 35.4745 31.557 36.9327 31.0854C37.9967 30.7319 38.9426 29.7101 39.7307 27.9811C39.8488 27.7059 40.0066 27.4701 40.1247 27.2344C40.6371 27.8238 41.5041 27.8238 42.0557 27.313L43.8686 25.7018C44.0261 25.5447 44.0261 25.3089 43.908 25.1516C43.7504 24.9945 43.514 24.9945 43.3562 25.1123L41.5434 26.7235C41.2675 26.9593 40.8734 26.9199 40.6764 26.6448L36.8933 22.1652C36.6963 21.9295 36.6963 21.5365 36.9722 21.3008L38.9032 19.6896C39.0608 19.5324 39.1002 19.2966 38.9426 19.1393C38.7851 18.9822 38.5486 18.9429 38.3908 19.1L36.4598 20.7505C35.8688 21.2614 35.7899 22.1259 36.3023 22.7153L36.4204 22.8331C35.7899 23.5011 34.8046 24.287 33.2677 24.8372C29.9968 26.0161 29.7209 30.4172 29.839 31.9499L27.5533 34.4649C27.1198 34.8971 27.1198 35.408 27.3562 35.8009C26.8439 36.076 26.4893 35.7616 25.8982 35.408C21.445 31.2427 15.1789 37.7265 19.3958 41.9705C19.8687 42.442 20.4204 42.7956 21.0511 43.0314C21.2875 43.1101 21.6029 42.9527 21.6029 42.6778C21.6029 42.56 21.524 42.4027 21.4453 42.3634C19.0808 39.9664 20.7753 35.8796 24.1645 35.8796C24.598 35.8796 25.0709 35.9583 25.465 36.1154C26.0561 36.469 26.9231 37.0979 27.8689 36.3905C28.3416 36.587 28.854 36.5085 29.2086 36.1547L29.2085 36.1546ZM19.7899 41.2236C17.2677 38.3943 20.0264 33.9539 23.7308 35.0543C20.7358 35.2901 18.7258 38.3551 19.7899 41.2236ZM33.5043 25.5444C35.1202 24.955 36.2236 24.1297 36.8935 23.3831L39.6128 26.6055C39.3763 26.9591 39.1793 27.3128 39.0217 27.6664C38.5488 28.7273 37.7606 30.0241 36.6965 30.3385C35.0806 30.8494 33.9772 31.4782 33.3861 32.2248C33.3467 32.2642 33.268 32.2642 33.268 32.2642C33.2286 32.2642 33.1891 32.2248 33.1891 32.1855C33.1102 30.8888 35.593 30.2992 35.593 30.2992C35.9871 30.2206 35.9871 29.6312 35.593 29.5526C33.2286 28.9632 31.4551 30.2206 30.5487 31.1244C30.6274 29.3952 31.1396 26.3695 33.5043 25.5444L33.5043 25.5444ZM28.0658 34.9751C31.455 31.242 31.9279 30.5346 33.6618 30.2202C32.9524 30.6525 32.3219 31.2811 32.4007 32.185L28.6569 35.5647C28.3022 35.9183 27.6716 35.3682 28.0657 34.9751L28.0658 34.9751Z" fill="white"/>
<path d="M44.0266 39.9274C42.8443 37.373 39.8888 37.7661 37.2879 38.9057C37.8003 37.5697 37.1303 35.9979 36.2239 35.0154C36.145 34.8976 35.9874 34.8582 35.8299 34.8976C35.6723 34.9369 35.5934 35.0547 35.554 35.1727C34.884 37.727 33.4652 39.0237 32.8347 39.456C31.7313 37.8842 29.9579 37.8055 28.6968 38.6308C28.5787 38.7095 28.4998 38.8273 28.4998 38.9453C28.4998 39.0631 28.5787 39.1811 28.6574 39.2597C30.6278 40.5958 30.5884 42.4034 29.1698 44.0929L28.2632 44.0926C28.0267 44.0926 27.8691 44.2497 27.8691 44.4855C27.8691 44.7213 28.0267 44.8784 28.2632 44.8784H40.9133C41.1498 44.8784 41.3074 44.7213 41.3074 44.4855C41.3074 44.2497 41.1498 44.0926 40.9133 44.0926H39.6918C38.47 42.0885 41.3863 40.831 43.7115 40.438C43.8296 40.3986 43.9479 40.3593 43.9874 40.2415C44.0663 40.2024 44.0663 40.0452 44.0268 39.9272L44.0266 39.9274ZM38.8642 44.132H30.1548C31.3371 42.3637 31.2977 40.5167 29.6424 39.0631C30.7064 38.7095 31.6523 39.0237 32.3617 40.242C32.4798 40.4385 32.7163 40.4778 32.874 40.3991C32.9529 40.3598 35.0021 39.2595 36.0662 36.1552C36.8938 37.4912 36.9332 38.788 35.6722 39.7311C35.5146 39.8489 35.4752 40.0847 35.5933 40.2813C35.7114 40.4385 35.9479 40.5171 36.1057 40.3991C37.9185 39.2988 41.6227 37.8056 43.0416 39.8489C40.401 40.3991 38.194 41.4994 38.8641 44.1322L38.8642 44.132Z" fill="white"/>
</svg>
