<svg width="64" height="64" viewBox="0 0 64 64" fill="none" xmlns="http://www.w3.org/2000/svg">
<path fill-rule="evenodd" clip-rule="evenodd" d="M38.8974 6.63214C44.2301 5.19571 49.7063 8.35736 51.1288 13.6939L57.4362 37.3574C58.8586 42.694 55.6887 48.1845 50.3559 49.621L26.9038 55.938C21.571 57.3744 16.0948 54.2128 14.6724 48.8763L8.36497 25.2127C6.94254 19.8762 10.1125 14.3856 15.4453 12.9492L38.8974 6.63214Z" fill="#B7DBD7"/>
<path fill-rule="evenodd" clip-rule="evenodd" d="M25.0569 7.69898C28.9519 3.78351 35.2669 3.7835 39.1619 7.69897L56.3621 24.9898C60.2571 28.9052 60.2571 35.2535 56.3622 39.169L39.1619 56.4598C35.2669 60.3753 28.9519 60.3753 25.0569 56.4598L7.8566 39.169C3.96162 35.2535 3.96161 28.9053 7.85659 24.9898L25.0569 7.69898Z" fill="#3E9F93"/>
<path d="M39.5452 19H33.6329C33.1522 19 32.7196 19.2101 32.3831 19.5253L28.7778 22.5718V20.6808C28.7778 20.3657 28.5856 20.1556 28.2971 20.1556H23.8266C23.5382 20.1556 23.346 20.3657 23.346 20.6808V23.2546C23.2979 23.3071 23.2498 23.3596 23.2498 23.4122L22.0481 26.6688C22.0481 26.7213 22 26.7738 22 26.8789V44.4747C22 44.7899 22.1923 45 22.4807 45H40.8911C41.1795 45 41.3718 44.7899 41.3718 44.4747V20.996C41.3718 19.8929 40.5546 19 39.5452 19ZM33.0077 20.3657C33.2 20.1556 33.4403 20.0505 33.6326 20.0505H39.5449C40.0256 20.0505 40.4102 20.4707 40.4102 20.996V24.095H39.593V21.5212C39.593 21.2061 39.4007 20.996 39.1123 20.996H33.8246C33.7285 20.996 33.6323 21.0485 33.5362 21.101L29.5945 24.095L28.9696 23.7799L33.0077 20.3657ZM31.2291 24.095L33.9691 22.0465H38.5838V24.095H31.2291ZM24.2587 21.2061H27.8159V23.097H24.3068V21.2061H24.2587ZM23.9703 24.1475H27.6236L29.3541 25.093C29.4022 25.1455 29.4983 25.1455 29.5464 25.1455H40.3624V26.3536H23.1534L23.9703 24.1475ZM22.9128 44.0023V27.4041H40.3618V43.9495H22.9128V44.0023Z" fill="white"/>
<path d="M27.4614 37.2518H28.8261V37.5119C27.9488 37.668 27.2664 38.4484 27.2664 39.4369V39.9052C27.2664 40.2173 27.4614 40.4254 27.7538 40.4254C28.0463 40.4254 28.2412 40.2173 28.2412 39.9052V39.4369C28.2412 38.9687 28.5824 38.6045 29.0211 38.5525C29.3623 39.489 30.2396 40.1653 31.2632 40.1653H31.7019C32.7255 40.1653 33.5541 39.489 33.944 38.5525C34.3827 38.6045 34.7239 38.9687 34.7239 39.4369V39.9052C34.7239 40.2173 34.9188 40.4254 35.2113 40.4254C35.5037 40.4254 35.6987 40.2173 35.6987 39.9052V39.4369C35.6987 38.4484 35.0163 37.668 34.139 37.5119V37.2518H35.5037C35.7962 37.2518 35.9911 37.0437 35.9911 36.7315C35.9911 36.4194 35.7962 36.2113 35.5037 36.2113H34.1877V36.0552C35.0163 35.8991 35.65 35.1187 35.65 34.1822V33.5059C35.65 33.1937 35.455 32.9856 35.1625 32.9856C34.8701 32.9856 34.6751 33.1937 34.6751 33.5059V34.1822C34.6751 34.5464 34.4802 34.8065 34.1877 34.9626C34.139 34.4944 33.944 34.0261 33.6516 33.662C33.4078 33.4018 33.1154 33.1937 32.8229 33.0897L33.1641 32.2572C33.2616 31.9971 33.1641 31.6849 32.9204 31.5809C32.6767 31.4768 32.3843 31.5809 32.2868 31.841L31.8481 32.9336H31.1657L30.7271 31.841C30.6296 31.5809 30.3371 31.4768 30.0934 31.5809C29.8497 31.6849 29.7522 31.9971 29.8497 32.2572L30.1909 33.0897C29.8497 33.1937 29.5573 33.4018 29.3623 33.662C29.0698 34.0261 28.8749 34.4944 28.8261 34.9626C28.5337 34.8065 28.3387 34.4944 28.3387 34.1822V33.5059C28.3387 33.1937 28.1438 32.9856 27.8513 32.9856C27.5589 32.9856 27.3639 33.1937 27.3639 33.5059V34.1822C27.3639 35.1187 27.9975 35.8991 28.8261 36.0552V36.2113H27.5101C27.2177 36.2113 27.0227 36.4194 27.0227 36.7315C27.0227 37.0437 27.1689 37.2518 27.4614 37.2518ZM29.801 37.72L29.7035 35.691H30.9708V39.1248C30.3371 38.9687 29.8497 38.3964 29.801 37.72ZM31.9456 39.1248V35.691H33.2129L33.1154 37.72C33.0667 38.3964 32.5792 38.9687 31.9456 39.1248ZM30.8245 33.9741H32.1406C32.433 33.9741 32.7255 34.1302 32.9692 34.3383C33.0179 34.4424 33.1154 34.4944 33.1641 34.5984H29.8497C29.8985 34.4944 29.9472 34.3903 30.0447 34.3383C30.1909 34.0782 30.4834 33.9741 30.8245 33.9741Z" fill="white"/>
<path d="M38.1364 29.1914H25.2353C24.9442 29.1914 24.7502 29.4013 24.7502 29.716V42.2547C24.7502 42.5695 24.9442 42.7793 25.2353 42.7793H38.1364C38.4274 42.7793 38.6214 42.5695 38.6214 42.2547V29.716C38.6214 29.4537 38.3789 29.1914 38.1364 29.1914ZM37.6514 41.7301H25.7203V30.2407H37.6514V41.7301Z" fill="white"/>
</svg>
