<svg width="34" height="20" viewBox="0 0 34 20" fill="none" xmlns="http://www.w3.org/2000/svg">
<path d="M0.748392 19.2352C1.22773 19.7249 1.87777 20 2.55556 20C3.23334 20 3.88338 19.7249 4.36272 19.2352L17.0154 6.30514L29.6681 19.2352C30.1502 19.711 30.7959 19.9743 31.4661 19.9684C32.1363 19.9624 32.7774 19.6877 33.2513 19.2034C33.7253 18.7191 33.9941 18.0639 33.9999 17.379C34.0057 16.6941 33.7481 16.0343 33.2825 15.5416L18.8226 0.764797C18.3433 0.275098 17.6932 0 17.0154 0C16.3376 0 15.6876 0.275098 15.2083 0.764797L0.748392 15.5416C0.269197 16.0315 0 16.6958 0 17.3884C0 18.0811 0.269197 18.7454 0.748392 19.2352Z" fill="white"/>
</svg>
