<svg width="49" height="40" viewBox="0 0 49 40" fill="none" xmlns="http://www.w3.org/2000/svg">
<path fill-rule="evenodd" clip-rule="evenodd" d="M41.6454 12.9327V4.42838C41.6454 4.01311 41.3056 3.67578 40.8874 3.67578C40.4691 3.67578 40.1293 4.01311 40.1293 4.42838V12.9327C40.1293 13.348 40.4691 13.6853 40.8874 13.6853C41.3056 13.6853 41.6454 13.348 41.6454 12.9327ZM35.0771 4.42838V8.65804C35.0771 9.07331 35.4169 9.41064 35.8352 9.41064C36.2535 9.41064 36.5932 9.07331 36.5932 8.65804V4.42838C36.5932 4.01311 36.2535 3.67578 35.8352 3.67578C35.4169 3.67578 35.0771 4.01311 35.0771 4.42838Z" fill="#3C8477"/>
<path fill-rule="evenodd" clip-rule="evenodd" d="M43.3835 2.57652C43.3835 2.11085 43.1971 1.66438 42.8651 1.3347C42.5334 1.00544 42.0837 0.820312 41.6146 0.820312H35.1059C34.6368 0.820312 34.1871 1.00543 33.855 1.3347C33.5234 1.66429 33.3369 2.11081 33.3369 2.57652V3.42555C33.3369 3.89122 33.5234 4.33803 33.855 4.66737C34.187 4.99663 34.6368 5.18176 35.1059 5.18176H41.6146C42.0836 5.18176 42.5333 4.99664 42.8651 4.66737C43.197 4.33811 43.3835 3.89126 43.3835 3.42555V2.57652ZM41.8674 2.57652V3.42555C41.8674 3.49241 41.8407 3.5559 41.793 3.60328C41.7456 3.64998 41.6813 3.67652 41.6146 3.67652H35.1059C35.0392 3.67652 34.9746 3.64998 34.9275 3.60328C34.8802 3.55624 34.8531 3.4924 34.8531 3.42555V2.57652C34.8531 2.51034 34.8798 2.44617 34.9275 2.39946C34.9746 2.35242 35.0392 2.32555 35.1059 2.32555H41.6146C41.6813 2.32555 41.7456 2.35209 41.793 2.39946C41.8403 2.44616 41.8674 2.51034 41.8674 2.57652Z" fill="#3C8477"/>
<path fill-rule="evenodd" clip-rule="evenodd" d="M41.8633 20.4225V31.0302C41.8633 31.4455 42.2031 31.7828 42.6213 31.7828C43.0393 31.7828 43.3794 31.4455 43.3794 31.0302V20.4225C43.3794 20.0072 43.0393 19.6699 42.6213 19.6699C42.2031 19.6699 41.8633 20.0072 41.8633 20.4225Z" fill="#3C8477"/>
<path fill-rule="evenodd" clip-rule="evenodd" d="M20.9907 20.8053C20.9436 21.0812 20.9199 21.3624 20.9199 21.6463V31.0309C20.9199 31.4462 21.2597 31.7835 21.678 31.7835C22.0962 31.7835 22.436 31.4462 22.436 31.0309V21.6463C22.436 21.4467 22.4526 21.2485 22.4854 21.0543C22.5548 20.6444 22.2756 20.256 21.8634 20.1875C21.4509 20.1193 21.0594 20.3958 20.9907 20.8057L20.9907 20.8053ZM31.3114 31.0312V21.6465C31.3114 20.2979 30.7716 19.005 29.8116 18.0515C28.8515 17.0977 27.5486 16.5625 26.1905 16.5625H26.0409C24.6825 16.5625 23.3803 17.0977 22.4199 18.0515C22.1238 18.3452 22.1238 18.8223 22.4199 19.1156C22.7157 19.4092 23.1962 19.4092 23.4916 19.1156C24.1678 18.4443 25.0846 18.0673 26.0406 18.0673H26.1902C27.1462 18.0673 28.0629 18.4439 28.7391 19.1156C29.4149 19.7868 29.795 20.697 29.795 21.6462V31.0308C29.795 31.4461 30.1348 31.7834 30.5531 31.7834C30.9713 31.7834 31.3111 31.4461 31.3111 31.0308L31.3114 31.0312Z" fill="#3C8477"/>
<path fill-rule="evenodd" clip-rule="evenodd" d="M21.678 25.7122H30.5536C30.9719 25.7122 31.3117 25.3749 31.3117 24.9596C31.3117 24.5444 30.9719 24.207 30.5536 24.207H21.678C21.2597 24.207 20.9199 24.5444 20.9199 24.9596C20.9199 25.3749 21.2597 25.7122 21.678 25.7122Z" fill="#3C8477"/>
<path fill-rule="evenodd" clip-rule="evenodd" d="M26.8735 31.0312V17.3151C26.8735 16.8998 26.5337 16.5625 26.1155 16.5625C25.6972 16.5625 25.3574 16.8998 25.3574 17.3151V31.0312C25.3574 31.4465 25.6972 31.7838 26.1155 31.7838C26.5337 31.7838 26.8735 31.4465 26.8735 31.0312Z" fill="#3C8477"/>
<path fill-rule="evenodd" clip-rule="evenodd" d="M13.6439 11.978L25.952 1.56471C26.0461 1.48441 26.1848 1.48441 26.2796 1.56471L44.7534 17.1955C44.8099 17.2432 44.8424 17.3127 44.8424 17.3866V20.7723C44.8424 20.87 44.7852 20.9591 44.6959 21.0001C44.6066 21.0411 44.501 21.0266 44.4262 20.9628C40.3422 17.5079 29.9721 8.73376 27.2631 6.44157C26.6022 5.88216 25.6299 5.88216 24.9687 6.44157L15.6503 14.3257C15.3319 14.5951 15.2936 15.0702 15.565 15.3864C15.8364 15.7025 16.3156 15.7405 16.6338 15.471L25.9521 7.58692C26.0462 7.50729 26.1849 7.50729 26.2797 7.58692L43.4428 22.109C43.968 22.5532 44.705 22.6539 45.3315 22.367C45.9576 22.0794 46.3589 21.4575 46.3589 20.7725V17.3868C46.3589 16.8721 46.1318 16.3839 45.7372 16.0503C43.4116 14.0825 30.3536 3.03342 27.2634 0.419554C26.6024 -0.139851 25.6301 -0.139851 24.9689 0.419554L12.6608 10.8329C12.3424 11.1023 12.3045 11.5781 12.5759 11.8939C12.8473 12.2101 13.3258 12.248 13.6443 11.9786L13.6439 11.978Z" fill="#3C8477"/>
<path fill-rule="evenodd" clip-rule="evenodd" d="M7.01879 39.4587H44.6405C45.0584 39.4587 45.3986 39.1214 45.3986 38.7061C45.3986 38.2908 45.0584 37.9535 44.6405 37.9535H7.01879C6.60051 37.9535 6.26074 38.2908 6.26074 38.7061C6.26074 39.1214 6.60051 39.4587 7.01879 39.4587ZM45.3986 34.889V32.0335C45.3986 31.5679 45.2121 31.1214 44.8801 30.7921C44.5485 30.4625 44.0987 30.2773 43.6296 30.2773H12.3339C11.9157 30.2773 11.5759 30.615 11.5759 31.0299C11.5759 31.4452 11.9157 31.7825 12.3339 31.7825H43.6296C43.6963 31.7825 43.7606 31.8091 43.808 31.8564C43.8554 31.9035 43.8824 31.9673 43.8824 32.0335V34.889C43.8824 35.3043 44.2222 35.6416 44.6405 35.6416C45.0584 35.6416 45.3985 35.3043 45.3985 34.889L45.3986 34.889Z" fill="#3C8477"/>
<path fill-rule="evenodd" clip-rule="evenodd" d="M38.8053 37.9531H14.3762C13.9579 37.9531 13.6182 38.2904 13.6182 38.7057C13.6182 39.121 13.9579 39.4583 14.3762 39.4583H38.8053C39.2236 39.4583 39.5633 39.121 39.5633 38.7057C39.5633 38.2904 39.2236 37.9531 38.8053 37.9531ZM17.2057 36.4564H37.6505C38.0687 36.4564 38.4085 36.119 38.4085 35.7038C38.4085 35.2885 38.0687 34.9512 37.6505 34.9512H17.2057C16.7874 34.9512 16.4476 35.2885 16.4476 35.7038C16.4476 36.119 16.7874 36.4564 17.2057 36.4564Z" fill="#3C8477"/>
<path fill-rule="evenodd" clip-rule="evenodd" d="M7.7273 9.55522C8.2285 8.93803 8.88092 8.53926 9.60986 8.53926C10.2254 8.53926 10.7879 8.82518 11.2492 9.28548C12.0427 10.077 12.5382 11.3615 12.5382 12.8015C12.5382 13.0464 12.5236 13.2867 12.4959 13.5208C12.3307 14.8661 12.5727 16.2466 13.1585 17.3568C13.7148 18.4164 14.0404 19.7153 14.0404 21.1178C14.0404 23.234 13.3027 25.119 12.1362 26.2821C11.4262 26.9907 10.5569 27.4231 9.60996 27.4231C8.6627 27.4231 7.79368 26.9907 7.08406 26.2821C5.91753 25.119 5.17984 23.234 5.17984 21.1178C5.17984 19.7164 5.50472 18.4174 6.06307 17.3588C6.64921 16.2484 6.89151 14.8668 6.72569 13.5183C6.72569 13.5173 6.72535 13.5159 6.72535 13.5149C6.69557 13.2831 6.68135 13.0449 6.68135 12.802C6.68135 12.4703 6.70809 12.1471 6.75851 11.8361C6.76664 11.7853 6.77577 11.7346 6.78525 11.6842C6.86241 11.2763 6.59235 10.8825 6.18084 10.8052C5.77 10.7286 5.3727 10.9968 5.29552 11.4053C5.28334 11.4685 5.27217 11.5326 5.26168 11.5968C5.1984 11.9845 5.16523 12.3881 5.16523 12.802C5.16523 13.1081 5.18351 13.4085 5.22073 13.7007C5.34798 14.7392 5.17166 15.8057 4.72056 16.6611H4.72022C4.05761 17.9172 3.66406 19.4557 3.66406 21.1185C3.66406 23.6763 4.60014 25.9384 6.00959 27.3449C7.01741 28.3498 8.2665 28.9287 9.61028 28.9287C10.9541 28.9287 12.2032 28.3498 13.211 27.3449C14.6208 25.9384 15.5568 23.6764 15.5568 21.1185C15.5568 19.4564 15.1633 17.9186 14.5027 16.6607C14.5027 16.6604 14.5023 16.6597 14.5023 16.6594C14.0509 15.8043 13.8746 14.7393 14.0022 13.7017V13.6994C14.037 13.4074 14.0553 13.1077 14.0553 12.8026C14.0553 9.56508 11.9903 7.03516 9.61054 7.03516C8.43691 7.03516 7.35502 7.61774 6.54785 8.61156C6.2849 8.93511 6.336 9.40917 6.66189 9.67027C6.98745 9.93065 7.46529 9.87992 7.72758 9.55637L7.7273 9.55522Z" fill="#3C8477"/>
<path fill-rule="evenodd" clip-rule="evenodd" d="M8.85254 17.6393V33.424C8.85254 33.8393 9.19231 34.1766 9.61059 34.1766C10.0289 34.1766 10.3686 33.8393 10.3686 33.424V17.6393C10.3686 17.2244 10.0289 16.8867 9.61059 16.8867C9.19231 16.8867 8.85254 17.2244 8.85254 17.6393Z" fill="#3C8477"/>
<path fill-rule="evenodd" clip-rule="evenodd" d="M38.3754 39.3286C38.5016 39.4149 38.6519 39.461 38.8055 39.461H47.5616C47.8283 39.461 48.076 39.3215 48.2124 39.0937C48.4307 38.7299 48.5565 38.3055 48.5565 37.8519C48.5565 36.5107 47.4605 35.4225 46.1095 35.4225C46.0932 35.4225 46.077 35.4225 46.0604 35.4228C45.6949 34.5378 44.8188 33.9142 43.7964 33.9142C43.5609 33.9142 43.3334 33.9475 43.1182 34.009C42.4576 33.2665 41.4918 32.7988 40.4166 32.7988C38.4271 32.7988 36.8115 34.4025 36.8115 36.378C36.8115 37.6013 37.4312 38.6825 38.3757 39.3283L38.3754 39.3286ZM39.0607 37.9554C38.6123 37.5751 38.3273 37.0093 38.3273 36.3783C38.3273 35.2334 39.2634 34.3044 40.4163 34.3044C41.1825 34.3044 41.8526 34.7149 42.2163 35.3254C42.3219 35.5031 42.4959 35.6295 42.6979 35.6755C42.8999 35.7222 43.1125 35.6839 43.2857 35.571C43.4323 35.4752 43.6076 35.4195 43.7961 35.4195C44.3003 35.4195 44.7118 35.8183 44.726 36.3162C44.7334 36.5615 44.861 36.7883 45.0681 36.9233C45.2749 37.0584 45.5351 37.0843 45.7649 36.9932C45.8715 36.9512 45.9879 36.928 46.1091 36.928C46.6231 36.928 47.0401 37.342 47.0401 37.8523C47.0401 37.8876 47.038 37.9222 47.034 37.9561H39.061L39.0606 37.9558L39.0607 37.9554Z" fill="#3C8477"/>
<path fill-rule="evenodd" clip-rule="evenodd" d="M2.49165 39.3263C2.61787 39.4126 2.76813 39.4587 2.92109 39.4587H14.3759C14.6432 39.4587 14.8902 39.3192 15.0273 39.0914C15.2923 38.6503 15.4442 38.1356 15.4442 37.5852C15.4442 35.9598 14.1146 34.6397 12.4767 34.6397C12.4019 34.6397 12.3274 34.6421 12.2543 34.6478C11.8516 33.4954 10.7477 32.6665 9.44989 32.6665C9.11283 32.6665 8.78829 32.7226 8.48608 32.8261C7.66374 31.8373 6.41969 31.207 5.02887 31.207C2.55468 31.207 0.545898 33.2015 0.545898 35.6577C0.545898 37.1791 1.31613 38.5236 2.49109 39.3263L2.49165 39.3263ZM3.17186 37.9535C2.49571 37.4132 2.06252 36.5854 2.06252 35.6578C2.06252 34.0323 3.39217 32.7122 5.02939 32.7122C6.11708 32.7122 7.06867 33.2952 7.58509 34.1626C7.69068 34.3397 7.86496 34.466 8.06733 34.5127C8.26902 34.5588 8.48189 34.5211 8.65448 34.4079C8.88324 34.2584 9.15668 34.1717 9.45043 34.1717C10.2372 34.1717 10.8785 34.7943 10.9012 35.5694C10.9083 35.8153 11.0356 36.0421 11.2427 36.1768C11.4498 36.3119 11.71 36.3374 11.9401 36.2467C12.106 36.1805 12.2873 36.1449 12.4769 36.1449C13.2779 36.1449 13.9283 36.79 13.9283 37.5852C13.9283 37.7126 13.9117 37.8362 13.8803 37.9535H3.17143H3.17186Z" fill="#3C8477"/>
</svg>
