<svg width="118" height="97" viewBox="0 0 118 97" fill="none" xmlns="http://www.w3.org/2000/svg">
<path fill-rule="evenodd" clip-rule="evenodd" d="M100.696 32.1534V11.4638C100.696 10.4535 99.8697 9.63281 98.8521 9.63281C97.8345 9.63281 97.0079 10.4535 97.0079 11.4638V32.1534C97.0079 33.1636 97.8345 33.9843 98.8521 33.9843C99.8697 33.9843 100.696 33.1636 100.696 32.1534ZM84.7168 11.4638V21.7538C84.7168 22.7641 85.5434 23.5848 86.561 23.5848C87.5786 23.5848 88.4052 22.7641 88.4052 21.7538V11.4638C88.4052 10.4535 87.5786 9.63281 86.561 9.63281C85.5434 9.63281 84.7168 10.4535 84.7168 11.4638Z" fill="#3C8477"/>
<path fill-rule="evenodd" clip-rule="evenodd" d="M104.926 6.96007C104.926 5.82717 104.472 4.74098 103.665 3.93892C102.858 3.13789 101.764 2.6875 100.623 2.6875H84.7879C83.6468 2.6875 82.5527 3.13787 81.7449 3.93892C80.938 4.74077 80.4844 5.82707 80.4844 6.96007V9.0256C80.4844 10.1585 80.938 11.2455 81.7449 12.0468C82.5525 12.8478 83.6467 13.2982 84.7879 13.2982H100.623C101.764 13.2982 102.858 12.8478 103.665 12.0468C104.472 11.2457 104.926 10.1586 104.926 9.0256V6.96007ZM101.238 6.96007V9.0256C101.238 9.18826 101.173 9.34274 101.057 9.458C100.941 9.57162 100.785 9.63619 100.623 9.63619H84.788C84.6258 9.63619 84.4686 9.57162 84.3541 9.458C84.2389 9.34356 84.173 9.18825 84.173 9.0256V6.96007C84.173 6.79905 84.238 6.64294 84.3541 6.52931C84.4686 6.41488 84.6258 6.34949 84.788 6.34949H100.623C100.785 6.34949 100.941 6.41406 101.057 6.52931C101.172 6.64293 101.238 6.79906 101.238 6.96007Z" fill="#3C8477"/>
<path fill-rule="evenodd" clip-rule="evenodd" d="M101.229 50.3739V76.1807C101.229 77.191 102.055 78.0117 103.073 78.0117C104.09 78.0117 104.917 77.191 104.917 76.1807V50.3739C104.917 49.3636 104.09 48.543 103.073 48.543C102.055 48.543 101.229 49.3636 101.229 50.3739Z" fill="#3C8477"/>
<path fill-rule="evenodd" clip-rule="evenodd" d="M50.4475 51.3026C50.333 51.9736 50.2754 52.6578 50.2754 53.3485V76.1798C50.2754 77.19 51.102 78.0107 52.1196 78.0107C53.1372 78.0107 53.9638 77.19 53.9638 76.1798V53.3485C53.9638 52.8629 54.0041 52.3807 54.084 51.9082C54.2528 50.911 53.5736 49.9662 52.5708 49.7994C51.5672 49.6335 50.6146 50.3062 50.4475 51.3034L50.4475 51.3026ZM75.5561 76.1803V53.349C75.5561 50.068 74.2429 46.9228 71.9073 44.603C69.5716 42.2824 66.4019 40.9805 63.0979 40.9805H62.734C59.4291 40.9805 56.2611 42.2826 53.9246 44.603C53.2042 45.3174 53.2042 46.4781 53.9246 47.1916C54.6441 47.906 55.8132 47.906 56.532 47.1916C58.1769 45.5585 60.4073 44.6413 62.7331 44.6413H63.097C65.4228 44.6413 67.6532 45.5576 69.2982 47.1916C70.9424 48.8248 71.867 51.0391 71.867 53.3482V76.1795C71.867 77.1898 72.6936 78.0104 73.7112 78.0104C74.7288 78.0104 75.5554 77.1898 75.5554 76.1795L75.5561 76.1803Z" fill="#3C8477"/>
<path fill-rule="evenodd" clip-rule="evenodd" d="M52.1216 63.2439H73.7146C74.7322 63.2439 75.5588 62.4233 75.5588 61.413C75.5588 60.4027 74.7322 59.582 73.7146 59.582H52.1216C51.1039 59.582 50.2773 60.4027 50.2773 61.413C50.2773 62.4233 51.1039 63.2439 52.1216 63.2439Z" fill="#3C8477"/>
<path fill-rule="evenodd" clip-rule="evenodd" d="M64.7607 76.1805V42.8114C64.7607 41.8011 63.9341 40.9805 62.9165 40.9805C61.8989 40.9805 61.0723 41.8011 61.0723 42.8114V76.1805C61.0723 77.1908 61.8989 78.0115 62.9165 78.0115C63.9341 78.0115 64.7607 77.1908 64.7607 76.1805Z" fill="#3C8477"/>
<path fill-rule="evenodd" clip-rule="evenodd" d="M32.574 29.8281L62.5176 4.49419C62.7465 4.29883 63.0841 4.29883 63.3146 4.49419L108.258 42.5212C108.396 42.6373 108.475 42.8065 108.475 42.9863V51.223C108.475 51.4609 108.336 51.6775 108.118 51.7772C107.901 51.8769 107.644 51.8418 107.462 51.6865C97.5266 43.2813 72.298 21.9353 65.7073 16.3588C64.0994 14.9978 61.734 14.9978 60.1254 16.3588L37.4554 35.5395C36.6806 36.195 36.5876 37.3508 37.2479 38.12C37.9082 38.8891 39.074 38.9815 39.8479 38.3259L62.5179 19.1452C62.7468 18.9515 63.0844 18.9515 63.3149 19.1452L105.07 54.475C106.348 55.5556 108.141 55.8008 109.665 55.1028C111.188 54.4031 112.164 52.8902 112.164 51.2235V42.9868C112.164 41.7345 111.612 40.5469 110.652 39.7352C104.994 34.9478 73.226 8.06732 65.708 1.70821C64.1001 0.347264 61.7346 0.347264 60.126 1.70821L30.1824 27.0421C29.4077 27.6977 29.3155 28.8551 29.9758 29.6234C30.6361 30.3926 31.8002 30.485 32.575 29.8294L32.574 29.8281Z" fill="#3C8477"/>
<path fill-rule="evenodd" clip-rule="evenodd" d="M16.4555 96.6883H107.983C109 96.6883 109.827 95.8676 109.827 94.8573C109.827 93.8471 109 93.0264 107.983 93.0264H16.4555C15.4379 93.0264 14.6113 93.8471 14.6113 94.8573C14.6113 95.8676 15.4379 96.6883 16.4555 96.6883ZM109.827 85.571V78.6241C109.827 77.4912 109.374 76.405 108.566 75.6038C107.759 74.802 106.665 74.3516 105.524 74.3516H29.3864C28.3688 74.3516 27.5422 75.173 27.5422 76.1825C27.5422 77.1928 28.3688 78.0134 29.3864 78.0134H105.524C105.686 78.0134 105.842 78.078 105.958 78.1933C106.073 78.3077 106.139 78.463 106.139 78.624V85.5709C106.139 86.5812 106.965 87.4019 107.983 87.4019C109 87.4019 109.827 86.5812 109.827 85.5709L109.827 85.571Z" fill="#3C8477"/>
<path fill-rule="evenodd" clip-rule="evenodd" d="M93.7879 93.022H34.3559C33.3383 93.022 32.5117 93.8427 32.5117 94.8529C32.5117 95.8632 33.3383 96.6839 34.3559 96.6839H93.7879C94.8055 96.6839 95.6321 95.8632 95.6321 94.8529C95.6321 93.8427 94.8055 93.022 93.7879 93.022ZM41.2396 89.3806H90.9783C91.996 89.3806 92.8226 88.56 92.8226 87.5497C92.8226 86.5394 91.996 85.7188 90.9783 85.7188H41.2396C40.222 85.7188 39.3953 86.5394 39.3953 87.5497C39.3953 88.56 40.222 89.3806 41.2396 89.3806Z" fill="#3C8477"/>
<path fill-rule="evenodd" clip-rule="evenodd" d="M18.1821 23.9317C19.4014 22.4302 20.9886 21.46 22.762 21.46C24.2596 21.46 25.628 22.1556 26.7502 23.2754C28.6808 25.2012 29.8862 28.3261 29.8862 31.8294C29.8862 32.4253 29.8507 33.0097 29.7832 33.5794C29.3815 36.8523 29.9701 40.2107 31.3953 42.9115C32.7488 45.4895 33.5409 48.6496 33.5409 52.0614C33.5409 57.21 31.7461 61.7957 28.9082 64.6254C27.1809 66.3493 25.0659 67.4013 22.7623 67.4013C20.4577 67.4013 18.3435 66.3494 16.6172 64.6254C13.7792 61.7957 11.9845 57.21 11.9845 52.0614C11.9845 48.6521 12.7749 45.492 14.1333 42.9166C15.5592 40.2151 16.1487 36.854 15.7453 33.5731C15.7453 33.5707 15.7445 33.5674 15.7445 33.565C15.672 33.001 15.6375 32.4214 15.6375 31.8305C15.6375 31.0237 15.7025 30.2374 15.8252 29.4806C15.8449 29.3572 15.8672 29.2337 15.8902 29.1111C16.0779 28.1188 15.4209 27.1608 14.4198 26.9728C13.4203 26.7864 12.4537 27.4387 12.2659 28.4326C12.2363 28.5863 12.2091 28.7424 12.1836 28.8986C12.0297 29.8418 11.949 30.8235 11.949 31.8306C11.949 32.5752 11.9934 33.306 12.084 34.017C12.3936 36.5435 11.9646 39.138 10.8672 41.219H10.8663C9.2543 44.2751 8.29688 48.018 8.29688 52.0632C8.29688 58.2859 10.5742 63.7894 14.0032 67.211C16.455 69.6559 19.4938 71.0642 22.763 71.0642C26.0322 71.0642 29.0713 69.6558 31.5229 67.211C34.9527 63.7894 37.2301 58.2861 37.2301 52.0632C37.2301 48.0196 36.2725 44.2785 34.6654 41.2182C34.6654 41.2174 34.6646 41.2157 34.6646 41.2149C33.5663 39.1347 33.1374 36.5436 33.4478 34.0194V34.0137C33.5326 33.3034 33.577 32.5743 33.577 31.8321C33.577 23.9557 28.5532 17.8008 22.7637 17.8008C19.9084 17.8008 17.2764 19.2181 15.3127 21.6359C14.6729 22.4231 14.7973 23.5764 15.5901 24.2116C16.3821 24.845 17.5446 24.7216 18.1827 23.9345L18.1821 23.9317Z" fill="#3C8477"/>
<path fill-rule="evenodd" clip-rule="evenodd" d="M20.916 43.6044V82.006C20.916 83.0163 21.7426 83.8369 22.7602 83.8369C23.7778 83.8369 24.6044 83.0163 24.6044 82.006V43.6044C24.6044 42.5949 23.7778 41.7734 22.7602 41.7734C21.7426 41.7734 20.916 42.5949 20.916 43.6044Z" fill="#3C8477"/>
<path fill-rule="evenodd" clip-rule="evenodd" d="M92.7421 96.3663C93.0492 96.5764 93.4148 96.6884 93.7885 96.6884H115.091C115.739 96.6884 116.342 96.3491 116.674 95.795C117.205 94.9097 117.511 93.8774 117.511 92.7738C117.511 89.5108 114.845 86.8633 111.558 86.8633C111.518 86.8633 111.479 86.8633 111.439 86.8641C110.549 84.7112 108.418 83.1941 105.931 83.1941C105.358 83.1941 104.804 83.275 104.281 83.4246C102.674 81.6182 100.324 80.4805 97.7081 80.4805C92.8679 80.4805 88.9375 84.3819 88.9375 89.188C88.9375 92.1642 90.445 94.7944 92.7429 96.3655L92.7421 96.3663ZM94.4093 93.0256C93.3184 92.1003 92.6252 90.7239 92.6252 89.1888C92.6252 86.4033 94.9026 84.1432 97.7074 84.1432C99.5714 84.1432 101.202 85.142 102.087 86.6272C102.343 87.0596 102.767 87.3669 103.258 87.4789C103.75 87.5925 104.267 87.4993 104.688 87.2247C105.045 86.9917 105.471 86.856 105.93 86.856C107.156 86.856 108.158 87.8263 108.192 89.0377C108.21 89.6344 108.521 90.1861 109.024 90.5147C109.527 90.8433 110.161 90.9062 110.72 90.6847C110.979 90.5825 111.262 90.5262 111.557 90.5262C112.808 90.5262 113.822 91.5332 113.822 92.7747C113.822 92.8606 113.817 92.9448 113.807 93.0273H94.41L94.4092 93.0265L94.4093 93.0256Z" fill="#3C8477"/>
<path fill-rule="evenodd" clip-rule="evenodd" d="M5.44267 96.3622C5.74976 96.5723 6.11531 96.6843 6.48744 96.6843H34.355C35.0054 96.6843 35.6064 96.345 35.9398 95.7909C36.5845 94.7176 36.9542 93.4655 36.9542 92.1265C36.9542 88.1721 33.7193 84.9605 29.7346 84.9605C29.5526 84.9605 29.3715 84.9662 29.1937 84.9801C28.2139 82.1766 25.5282 80.16 22.3709 80.16C21.5509 80.16 20.7614 80.2965 20.0262 80.5483C18.0255 78.1428 14.999 76.6094 11.6153 76.6094C5.59603 76.6094 0.708984 81.4615 0.708984 87.4372C0.708984 91.1385 2.58283 94.4095 5.44132 96.3622L5.44267 96.3622ZM7.09753 93.0224C5.45256 91.708 4.39866 89.694 4.39866 87.4373C4.39866 83.4829 7.63351 80.2713 11.6166 80.2713C14.2627 80.2713 16.5778 81.6894 17.8342 83.7999C18.0911 84.2306 18.5151 84.538 19.0074 84.6516C19.4981 84.7636 20.016 84.672 20.4358 84.3965C20.9924 84.0328 21.6576 83.8219 22.3722 83.8219C24.2864 83.8219 25.8465 85.3365 25.9017 87.2222C25.919 87.8206 26.2286 88.3723 26.7324 88.7001C27.2363 89.0287 27.8694 89.0908 28.4293 88.8701C28.8327 88.7091 29.274 88.6224 29.7351 88.6224C31.6838 88.6224 33.2662 90.1918 33.2662 92.1265C33.2662 92.4363 33.2259 92.7371 33.1493 93.0224H7.09648H7.09753Z" fill="#3C8477"/>
</svg>
