<svg width="36" height="40" viewBox="0 0 36 40" fill="none" xmlns="http://www.w3.org/2000/svg">
<path d="M27.4704 39.461H7.86258C5.73683 39.461 4.01074 37.742 4.01074 35.625V18.8928C4.01074 11.3986 10.1329 5.29297 17.6667 5.29297C25.2006 5.29297 31.3227 11.3899 31.3227 18.8928V35.625C31.3142 37.742 29.5967 39.461 27.4709 39.461H27.4704ZM17.6665 6.65612C10.8897 6.65612 5.37098 12.1518 5.37098 18.9011V35.6333C5.37098 37.0051 6.48485 38.1144 7.86235 38.1144H27.4702C28.8477 38.1144 29.9616 37.0051 29.9616 35.6333V18.8925C29.9616 12.1436 24.4432 6.65612 17.666 6.65612H17.6665Z" fill="#3C8477"/>
<path d="M17.6665 20.7218C12.9644 20.7303 8.38965 19.1891 4.6573 16.3439C4.3597 16.1152 4.30017 15.6918 4.52976 15.3955C4.75934 15.0991 5.18449 15.0398 5.48209 15.2684C12.6756 20.7387 22.6582 20.7387 29.8516 15.2684C30.1662 15.0652 30.5913 15.1584 30.7955 15.4717C30.974 15.7511 30.923 16.1237 30.6764 16.3439C26.9436 19.1891 22.369 20.7303 17.6672 20.7218L17.6665 20.7218Z" fill="#3C8477"/>
<path d="M23.312 12.226H12.0201C11.6459 12.226 11.3398 11.9211 11.3398 11.5485C11.3398 11.1759 11.6459 10.8711 12.0201 10.8711H23.3205C23.6947 10.8711 24.0008 11.1759 24.0008 11.5485C24.0008 11.9211 23.6862 12.226 23.312 12.226H23.312Z" fill="#3C8477"/>
<path d="M21.6712 15.2002C21.2971 15.2002 20.991 14.8953 20.991 14.5228V11.5505C20.991 11.1779 21.2971 10.873 21.6712 10.873C22.0453 10.873 22.3514 11.1779 22.3514 11.5505V14.5228C22.3514 14.8953 22.0538 15.2002 21.6712 15.2002Z" fill="#3C8477"/>
<path d="M23.312 28.6049H12.0201C11.6459 28.6049 11.3398 28.3 11.3398 27.9274C11.3398 27.5548 11.6459 27.25 12.0201 27.25H23.3205C23.6947 27.25 24.0008 27.5548 24.0008 27.9274C24.0008 28.3 23.6862 28.6049 23.312 28.6049H23.312Z" fill="#3C8477"/>
<path d="M21.6712 31.5771C21.2971 31.5771 20.991 31.2723 20.991 30.8997V27.9274C20.991 27.5548 21.2971 27.25 21.6712 27.25C22.0453 27.25 22.3514 27.5548 22.3514 27.9274V30.8997C22.3514 31.2808 22.0538 31.5771 21.6712 31.5771Z" fill="#3C8477"/>
<path d="M23.0652 35.3362H12.2662C9.68131 35.3362 7.58961 33.2446 7.58105 30.6789V28.1639C7.58105 25.5897 9.68131 23.5066 12.2662 23.498H23.0652C25.6501 23.498 27.7418 25.5897 27.7504 28.1639V30.6789C27.7419 33.2447 25.6501 35.3362 23.0652 35.3362ZM12.2662 24.8526C10.4296 24.8526 8.95008 26.3345 8.94152 28.1636V30.6786C8.94152 32.5076 10.4296 33.981 12.2662 33.981H23.0652C24.9019 33.981 26.3813 32.4991 26.3899 30.6786V28.1636C26.3899 26.3345 24.9019 24.8611 23.0652 24.8526H12.2662Z" fill="#3C8477"/>
<path d="M4.69032 35.6497H4.3417C1.98637 35.6497 0.081716 33.7445 0.0732422 31.3988V28.596C0.0732422 26.2503 1.98637 24.3535 4.3417 24.3535H4.69032C5.06445 24.3535 5.37055 24.6584 5.37055 25.031V34.9726C5.37055 35.3452 5.06445 35.65 4.69032 35.65V35.6497ZM4.01008 25.7251C2.54762 25.8945 1.43367 27.1308 1.43367 28.5957V31.3986C1.43367 32.872 2.53907 34.1084 4.01008 34.2692V25.725V25.7251Z" fill="#3C8477"/>
<path d="M30.9898 35.65H30.6412C30.267 35.65 29.9609 35.3452 29.9609 34.9726V25.031C29.9609 24.6584 30.267 24.3535 30.6412 24.3535H30.9898C33.3451 24.3535 35.2498 26.2588 35.2498 28.596V31.3988C35.2498 33.7445 33.3451 35.6497 30.9898 35.6497V35.65ZM31.3214 25.7254V34.2781C32.7839 34.1088 33.8978 32.8725 33.8978 31.4075V28.6046C33.8893 27.1312 32.7839 25.8949 31.3214 25.7255V25.7254Z" fill="#3C8477"/>
<path d="M22.4784 7.57032C22.1042 7.57032 21.7981 7.26548 21.7981 6.89289V5.47027C21.7981 3.2009 19.953 1.35487 17.6657 1.35487C15.387 1.35487 13.5333 3.19239 13.5333 5.47027V6.89289C13.5333 7.26548 13.2272 7.57032 12.8531 7.57032C12.479 7.57032 12.1729 7.26548 12.1729 6.89289V5.47027C12.1729 2.44721 14.6302 0 17.6657 0C20.7013 0 23.1586 2.44721 23.1586 5.47027V6.89289C23.1586 7.26548 22.8525 7.57032 22.4784 7.57032Z" fill="#3C8477"/>
<path d="M6.62902 12.7781C6.38243 12.7781 6.15285 12.6511 6.03382 12.4394L2.97276 7.11307C1.96088 5.45331 2.4966 3.30248 4.16313 2.29484C5.82967 1.2872 7.98947 1.82063 9.00127 3.48031C9.02678 3.52265 9.05229 3.56499 9.0778 3.60733L11.3736 7.6042C11.5606 7.92598 11.4501 8.34091 11.1185 8.52721C10.7869 8.71352 10.3787 8.60343 10.1917 8.27318L7.89589 4.27631C7.24966 3.27711 5.91473 2.98074 4.91133 3.61581C3.96747 4.22551 3.63591 5.44489 4.15456 6.43565L7.21562 11.762C7.40268 12.0838 7.29215 12.4987 6.96903 12.685C6.867 12.7443 6.74795 12.7782 6.62892 12.7782L6.62902 12.7781Z" fill="#3C8477"/>
<path d="M28.686 12.7528C28.3119 12.7528 28.0058 12.448 28.0058 12.0754C28.0058 11.9568 28.0313 11.8383 28.0908 11.7367L31.1689 6.38492C31.7981 5.3772 31.492 4.04773 30.4801 3.42116C29.4683 2.79459 28.1333 3.09938 27.5041 4.10706C27.4786 4.1494 27.4531 4.19175 27.4276 4.23408L25.1148 8.2733C24.9277 8.59508 24.5111 8.71363 24.188 8.52733C23.8649 8.34103 23.7458 7.92611 23.9329 7.60432L26.2542 3.54814C27.215 1.86299 29.3662 1.27026 31.0583 2.22718C32.7504 3.18411 33.3456 5.32643 32.3848 7.01158C32.3763 7.02852 32.3677 7.03698 32.3592 7.05392L29.2812 12.3972C29.1621 12.6174 28.9325 12.7529 28.686 12.7529L28.686 12.7528Z" fill="#3C8477"/>
</svg>
