<svg width="40" height="40" viewBox="0 0 40 40" fill="none" xmlns="http://www.w3.org/2000/svg">
<path d="M8.50884 18.6895V19.0501C8.50884 19.4956 8.33189 19.9232 8.01669 20.2384C7.70151 20.5535 7.274 20.7305 6.82849 20.7305V19.7305L6.83186 20.7305C6.73497 20.7308 6.64245 20.7695 6.57468 20.8373C6.50681 20.9051 6.46816 20.9977 6.46783 21.0945L6.46777 21.1112V28.9356H11.2712V21.0934C11.2706 20.9969 11.232 20.9048 11.1644 20.8373C11.0966 20.7695 11.004 20.7308 10.9072 20.7305L8.50884 18.6895ZM8.50884 18.6895H9.23021H8.50884Z" stroke="#3C8477" stroke-width="2"/>
<path d="M6.14746 14.9688H11.5902V16.3294H6.14746V14.9688Z" fill="#3C8477"/>
<path d="M16.3525 29.2559C16.3525 29.4363 16.4242 29.6094 16.5518 29.737C16.6793 29.8645 16.8525 29.9362 17.0329 29.9362H22.4756C22.656 29.9362 22.8292 29.8645 22.9567 29.737C23.0843 29.6094 23.156 29.4363 23.156 29.2559V27.2148H16.3525V29.2559Z" fill="#3C8477"/>
<path d="M4.78645 34.0176C4.30019 34.0176 3.851 34.277 3.60802 34.6979C3.36504 35.1189 3.36504 35.6377 3.60802 36.0586C3.851 36.4796 4.3002 36.739 4.78645 36.739H5.99738C5.6563 36.3681 5.46678 35.8824 5.46678 35.3783C5.46678 34.8741 5.6563 34.3885 5.99738 34.0176H4.78645Z" fill="#3C8477"/>
<path d="M8.18881 35.3776C8.18881 35.7533 7.88417 36.058 7.50847 36.058C7.13276 36.058 6.82812 35.7533 6.82812 35.3776C6.82812 35.0019 7.13276 34.6973 7.50847 34.6973C7.88417 34.6973 8.18881 35.0019 8.18881 35.3776Z" fill="#3C8477"/>
<path d="M18.3935 19.0502C18.3935 19.2306 18.3219 19.4037 18.1943 19.5313C18.0667 19.6588 17.8936 19.7305 17.7132 19.7305C17.3527 19.7317 17.007 19.8754 16.7522 20.1302C16.4974 20.385 16.3538 20.7307 16.3525 21.0912V25.8536H19.0739V17.6895H18.3936L18.3935 19.0502Z" fill="#3C8477"/>
<path d="M27.9189 14.9668H33.3617V16.3275H27.9189V14.9668Z" fill="#3C8477"/>
<path d="M30.2793 18.6895V19.0501C30.2793 19.4956 30.1024 19.9232 29.7872 20.2384C29.472 20.5535 29.0445 20.7305 28.599 20.7305V19.7305L28.6024 20.7305C28.5055 20.7308 28.413 20.7695 28.3452 20.8373C28.2773 20.9051 28.2387 20.9977 28.2383 21.0945L28.2383 21.1112V21.4518H33.0417V21.0934C33.0411 20.9969 33.0025 20.9048 32.9349 20.8373C32.8671 20.7695 32.7745 20.7308 32.6777 20.7305L30.2793 18.6895ZM30.2793 18.6895H31.0007H30.2793Z" stroke="#3C8477" stroke-width="2"/>
<path d="M9.01953 34.0176C9.36061 34.3884 9.55014 34.8741 9.55014 35.3783C9.55014 35.8824 9.36061 36.3681 9.01953 36.739H12.1217C11.7807 36.3681 11.5911 35.8824 11.5911 35.3783C11.5911 34.8741 11.7807 34.3885 12.1217 34.0176H9.01953Z" fill="#3C8477"/>
<path d="M33.0417 28.9356H28.2383V24.8125H33.0417V28.9356Z" stroke="#3C8477" stroke-width="2"/>
<path d="M23.1559 25.8535V21.0911C23.1547 20.7306 23.011 20.385 22.7562 20.1302C22.5014 19.8754 22.1557 19.7317 21.7953 19.7305C21.4196 19.7305 21.1149 19.4258 21.1149 19.0501V17.6895H20.4346V25.8536L23.1559 25.8535Z" fill="#3C8477"/>
<path d="M34.7222 31.2969H4.78708C3.32857 31.2969 1.98095 32.075 1.25201 33.3379C0.522767 34.6008 0.522767 36.1571 1.25201 37.42C1.98095 38.6828 3.32857 39.461 4.78708 39.461H34.7222C36.1807 39.461 37.5283 38.6828 38.2573 37.42C38.9865 36.1571 38.9865 34.6008 38.2573 33.3379C37.5283 32.075 36.1807 31.2969 34.7222 31.2969ZM34.7222 38.1003H4.78708C3.81485 38.1003 2.9164 37.5815 2.43021 36.7396C1.94425 35.8977 1.94425 34.8602 2.43021 34.0182C2.91647 33.1763 3.81492 32.6576 4.78708 32.6576H34.7222C35.6944 32.6576 36.5929 33.1763 37.0791 34.0182C37.565 34.8602 37.565 35.8977 37.0791 36.7396C36.5928 37.5815 35.6944 38.1003 34.7222 38.1003Z" fill="#3C8477"/>
<path d="M32.681 35.3776C32.681 35.7533 32.3764 36.058 32.0007 36.058C31.625 36.058 31.3203 35.7533 31.3203 35.3776C31.3203 35.0019 31.625 34.6973 32.0007 34.6973C32.3764 34.6973 32.681 35.0019 32.681 35.3776Z" fill="#3C8477"/>
<path d="M27.3887 34.0176C27.7298 34.3884 27.9193 34.8741 27.9193 35.3783C27.9193 35.8824 27.7298 36.3681 27.3887 36.739H30.4909C30.1498 36.3681 29.9603 35.8824 29.9603 35.3783C29.9603 34.8741 30.1498 34.3885 30.4909 34.0176H27.3887Z" fill="#3C8477"/>
<path d="M26.558 35.3776C26.558 35.7533 26.2533 36.058 25.8776 36.058C25.5019 36.058 25.1973 35.7533 25.1973 35.3776C25.1973 35.0019 25.5019 34.6973 25.8776 34.6973C26.2533 34.6973 26.558 35.0019 26.558 35.3776Z" fill="#3C8477"/>
<path d="M34.7217 34.0176H33.5107C33.8518 34.3884 34.0413 34.8741 34.0413 35.3783C34.0413 35.8824 33.8518 36.3681 33.5107 36.739H34.7217C35.2079 36.739 35.6571 36.4796 35.9001 36.0586C36.1431 35.6376 36.1431 35.1189 35.9001 34.6979C35.6571 34.277 35.2079 34.0176 34.7217 34.0176Z" fill="#3C8477"/>
<path d="M15.1426 34.0176C15.4837 34.3884 15.6732 34.8741 15.6732 35.3783C15.6732 35.8824 15.4837 36.3681 15.1426 36.739H18.2448C17.9037 36.3681 17.7142 35.8824 17.7142 35.3783C17.7142 34.8741 17.9037 34.3885 18.2448 34.0176H15.1426Z" fill="#3C8477"/>
<path d="M14.3119 35.3776C14.3119 35.7533 14.0072 36.058 13.6315 36.058C13.2558 36.058 12.9512 35.7533 12.9512 35.3776C12.9512 35.0019 13.2558 34.6973 13.6315 34.6973C14.0072 34.6973 14.3119 35.0019 14.3119 35.3776Z" fill="#3C8477"/>
<path d="M20.4349 35.3776C20.4349 35.7533 20.1303 36.058 19.7546 36.058C19.3789 36.058 19.0742 35.7533 19.0742 35.3776C19.0742 35.0019 19.3789 34.6973 19.7546 34.6973C20.1303 34.6973 20.4349 35.0019 20.4349 35.3776Z" fill="#3C8477"/>
<path d="M21.2656 34.0176C21.6067 34.3884 21.7962 34.8741 21.7962 35.3783C21.7962 35.8824 21.6067 36.3681 21.2656 36.739H24.3678C24.0268 36.3681 23.8372 35.8824 23.8372 35.3783C23.8372 34.8741 24.0268 34.3885 24.3678 34.0176H21.2656Z" fill="#3C8477"/>
<path d="M21.7959 4.76172H17.7139V6.80275H19.0746V9.2453L19.7549 9.92564L20.4352 9.2453V6.80275H21.7959V4.76172Z" fill="#3C8477"/>
<path d="M20.4349 17.6882V16.3275H22.476V14.9668H20.4349V10.8848H19.0742V14.9668H17.0332V16.3275H19.0742V17.6882H20.4349Z" fill="#3C8477"/>
<path d="M0.705078 0V1.36069H14.9923V3.40172H24.5171V1.36069H39.4847V0H0.705078Z" fill="#3C8477"/>
</svg>
