<svg width="102" height="96" viewBox="0 0 102 96" fill="none" xmlns="http://www.w3.org/2000/svg">
<path d="M34.1795 10.684H70.9968V45.6716H74.3438V10.684H77.6908V7.35189H73.3636L67.1595 1.17542C66.8458 0.863038 66.4199 0.6875 65.9761 0.6875H39.1999C38.7562 0.6875 38.3303 0.863034 38.0165 1.17542L31.8125 7.35189H27.4853V10.684H30.8323V92.3217H7.40313V39.0073H27.4853V35.6751H9.76995L13.117 32.343H27.4853V29.0109H12.4237C11.9799 29.0109 11.554 29.1864 11.2402 29.4988L5.03621 35.6752H0.708984V39.0074H4.05601V92.3217H0.708984V95.6539H47.5673V92.3217H34.1792L34.1795 10.684ZM39.8933 4.01974H65.2829L68.6299 7.35189H36.5463L39.8933 4.01974Z" fill="#3C8477"/>
<path d="M50.9154 27.3441H54.2624V24.012H57.6094V20.6798H54.2624V17.3477H50.9154V20.6798H47.5684V24.012H50.9154V27.3441Z" fill="#3C8477"/>
<path d="M76.0167 55.8794V50.67C76.0167 50.2282 75.8404 49.8042 75.5266 49.4918C75.2128 49.1794 74.787 49.0039 74.3432 49.0039H57.6081C56.6839 49.0039 55.9346 49.7499 55.9346 50.67V55.8794C54.4986 56.2505 53.2271 57.085 52.3186 58.2528C51.4094 59.4205 50.9156 60.8553 50.9141 62.3325V88.9897C50.9163 90.7569 51.6223 92.4505 52.8768 93.7C54.1319 94.9488 55.833 95.6517 57.6081 95.654H74.3432C76.1183 95.6517 77.8195 94.9489 79.0746 93.7C80.329 92.4504 81.035 90.7569 81.0373 88.9897V62.3325C81.0358 60.8553 80.5419 59.4206 79.6327 58.2528C78.7242 57.0851 77.4527 56.2505 76.0168 55.8794H76.0167ZM72.6697 52.3361V55.6682H59.2816V52.3361H72.6697ZM57.6081 59.0003H74.3432C75.2307 59.0011 76.0809 59.3529 76.7085 59.9777C77.336 60.6024 77.6894 61.4489 77.6902 62.3325V63.9985H54.261V62.3325C54.2618 61.4488 54.6151 60.6024 55.2427 59.9777C55.8703 59.3529 56.7205 59.0011 57.608 59.0003H57.6081ZM77.6902 67.3307V83.9915H54.261V67.3307H77.6902ZM74.3432 92.3218H57.6081C56.7205 92.3211 55.8703 91.9693 55.2428 91.3445C54.6152 90.7197 54.2618 89.8733 54.2611 88.9897V87.3236H77.6902V88.9897C77.6895 89.8733 77.3361 90.7197 76.7086 91.3445C76.081 91.9692 75.2308 92.3211 74.3433 92.3218H74.3432Z" fill="#3C8477"/>
<path d="M60.9551 77.3284H64.3021V80.6605H67.6491V77.3284H70.9961V73.9962H67.6491V70.6641H64.3021V73.9962H60.9551V77.3284Z" fill="#3C8477"/>
<path d="M94.4258 72.3282H84.3848V75.6603H94.4258C95.3134 75.6611 96.1636 76.0129 96.7911 76.6377C97.4187 77.2624 97.7721 78.1089 97.7728 78.9925V88.9889C97.7721 89.8725 97.4187 90.7189 96.7911 91.3437C96.1636 91.9684 95.3134 92.3203 94.4258 92.321H84.3848V95.6532H94.4258C96.2009 95.6509 97.9021 94.9481 99.1572 93.6992C100.412 92.4496 101.118 90.756 101.12 88.9889V78.9924C101.118 77.2252 100.412 75.5316 99.1572 74.2821C97.902 73.0333 96.2009 72.3304 94.4258 72.3281V72.3282Z" fill="#3C8477"/>
<path d="M91.0781 78.9922H94.4251V82.3243H91.0781V78.9922Z" fill="#3C8477"/>
<path d="M91.0781 85.6562H94.4251V88.9884H91.0781V85.6562Z" fill="#3C8477"/>
<path d="M84.3848 78.9922H87.7318V82.3243H84.3848V78.9922Z" fill="#3C8477"/>
<path d="M84.3848 85.6562H87.7318V88.9884H84.3848V85.6562Z" fill="#3C8477"/>
<path d="M94.4258 59H84.3848V62.3322H94.4258C95.3134 62.3329 96.1636 62.6848 96.7911 63.3095C97.4187 63.9343 97.7721 64.7807 97.7728 65.6643V70.6625H101.12V65.6643C101.118 63.8971 100.412 62.2034 99.1571 60.954C97.902 59.7052 96.2009 59.0023 94.4258 59L94.4258 59Z" fill="#3C8477"/>
<path d="M91.0781 65.6641H94.4251V68.9962H91.0781V65.6641Z" fill="#3C8477"/>
<path d="M84.3848 65.6641H87.7318V68.9962H84.3848V65.6641Z" fill="#3C8477"/>
<path d="M10.75 44.0078H14.097V54.0043H10.75V44.0078Z" fill="#3C8477"/>
<path d="M17.4453 44.0078H20.7923V54.0043H17.4453V44.0078Z" fill="#3C8477"/>
<path d="M24.1387 44.0078H27.4857V54.0043H24.1387V44.0078Z" fill="#3C8477"/>
<path d="M37.5273 17.3477H40.8744V27.3441H37.5273V17.3477Z" fill="#3C8477"/>
<path d="M64.3027 17.3477H67.6498V27.3441H64.3027V17.3477Z" fill="#3C8477"/>
<path d="M37.5273 32.3438H40.8744V42.3402H37.5273V32.3438Z" fill="#3C8477"/>
<path d="M44.2207 32.3438H47.5677V42.3402H44.2207V32.3438Z" fill="#3C8477"/>
<path d="M50.9141 32.3438H54.2611V42.3402H50.9141V32.3438Z" fill="#3C8477"/>
<path d="M57.6094 32.3438H60.9564V42.3402H57.6094V32.3438Z" fill="#3C8477"/>
<path d="M64.3027 32.3438H67.6498V42.3402H64.3027V32.3438Z" fill="#3C8477"/>
<path d="M37.5273 49.0039H40.8744V59.0003H37.5273V49.0039Z" fill="#3C8477"/>
<path d="M44.2207 49.0039H47.5677V59.0003H44.2207V49.0039Z" fill="#3C8477"/>
<path d="M37.5273 65.6641H40.8744V75.6605H37.5273V65.6641Z" fill="#3C8477"/>
<path d="M44.2207 65.6641H47.5677V75.6605H44.2207V65.6641Z" fill="#3C8477"/>
<path d="M10.75 59H14.097V68.9964H10.75V59Z" fill="#3C8477"/>
<path d="M17.4453 59H20.7923V68.9964H17.4453V59Z" fill="#3C8477"/>
<path d="M24.1387 59H27.4857V68.9964H24.1387V59Z" fill="#3C8477"/>
<path d="M10.75 73.9922H14.097V83.9886H10.75V73.9922Z" fill="#3C8477"/>
<path d="M17.4453 73.9922H20.7923V83.9886H17.4453V73.9922Z" fill="#3C8477"/>
<path d="M24.1387 73.9922H27.4857V83.9886H24.1387V73.9922Z" fill="#3C8477"/>
<path d="M99.4471 24.0098H94.4265V22.3438H91.0795V29.008H94.4265V27.342H97.7735V39.9803L91.0795 46.6446C90.1553 47.5647 88.6566 47.5647 87.7325 46.6446L81.0384 39.9803V27.342H84.3855V29.008H87.7325V22.3438H84.3855V24.0098H79.3649C78.4408 24.0098 77.6914 24.7558 77.6914 25.6759V40.6706C77.6914 41.1124 77.8677 41.5363 78.1815 41.8487L85.3656 49.0008C86.0252 49.6606 86.8381 50.1477 87.7324 50.42V55.6651H91.0794V50.42C91.9737 50.1477 92.7865 49.6606 93.4462 49.0008L100.63 41.8487C100.944 41.5363 101.12 41.1124 101.12 40.6706V25.6759C101.12 25.2341 100.944 24.8101 100.63 24.4977C100.316 24.1854 99.8906 24.0098 99.4469 24.0098H99.4471Z" fill="#3C8477"/>
</svg>
