<svg width="42" height="40" viewBox="0 0 42 40" fill="none" xmlns="http://www.w3.org/2000/svg">
<path d="M14.169 4.10901H29.3024V18.4904H30.6782V4.10901H32.054V2.73935H30.2753L27.7252 0.200557C27.5962 0.0721535 27.4211 0 27.2387 0H16.2326C16.0502 0 15.8751 0.0721519 15.7461 0.200557L13.196 2.73935H11.4173V4.10901H12.7931V37.6656H3.16271V15.7511H11.4173V14.3814H4.13558L5.51135 13.0118H11.4173V11.6421H5.22637C5.04396 11.6421 4.86891 11.7143 4.73993 11.8427L2.18981 14.3815H0.411133V15.7511H1.7869V37.6656H0.411133V39.0353H19.6719V37.6656H14.1688L14.169 4.10901ZM16.5176 1.36969H26.9538L28.3296 2.73935H15.1418L16.5176 1.36969Z" fill="#3C8477"/>
<path d="M31.3661 22.6855V20.5442C31.3661 20.3626 31.2936 20.1883 31.1647 20.0599C31.0357 19.9315 30.8606 19.8594 30.6782 19.8594H23.7994C23.4195 19.8594 23.1115 20.166 23.1115 20.5442V22.6855C22.5213 22.838 21.9986 23.1811 21.6252 23.6611C21.2515 24.1411 21.0485 24.7308 21.0479 25.338V36.2952C21.0488 37.0216 21.339 37.7178 21.8546 38.2314C22.3705 38.7447 23.0698 39.0336 23.7994 39.0346H30.6782C31.4079 39.0336 32.1072 38.7447 32.623 38.2314C33.1386 37.7178 33.4288 37.0216 33.4298 36.2952V25.338C33.4292 24.7308 33.2262 24.1411 32.8524 23.6611C32.479 23.1811 31.9564 22.838 31.3661 22.6855H31.3661ZM29.9903 21.229V22.5987H24.4873V21.229H29.9903ZM23.7994 23.9683H30.6782C31.043 23.9686 31.3925 24.1133 31.6505 24.3701C31.9084 24.6269 32.0537 24.9748 32.054 25.338V26.0228H22.4236V25.338C22.4239 24.9748 22.5692 24.6269 22.8271 24.3701C23.0851 24.1133 23.4345 23.9686 23.7993 23.9683H23.7994ZM32.054 27.3925V34.2408H22.4236V27.3925H32.054ZM30.6782 37.6649H23.7994C23.4346 37.6646 23.0851 37.52 22.8271 37.2632C22.5692 37.0064 22.4239 36.6584 22.4236 36.2953V35.6104H32.054V36.2953C32.0537 36.6585 31.9084 37.0064 31.6505 37.2632C31.3925 37.52 31.0431 37.6646 30.6783 37.6649H30.6782Z" fill="#3C8477"/>
<path d="M25.1748 31.501H26.5506V32.8707H27.9263V31.501H29.3021V30.1314H27.9263V28.7617H26.5506V30.1314H25.1748V31.501Z" fill="#3C8477"/>
<path d="M38.933 29.4473H34.8057V30.817H38.933C39.2978 30.8173 39.6473 30.9619 39.9052 31.2187C40.1632 31.4755 40.3084 31.8234 40.3087 32.1866V36.2956C40.3084 36.6588 40.1632 37.0067 39.9052 37.2635C39.6473 37.5203 39.2978 37.6649 38.933 37.6652H34.8057V39.0349H38.933C39.6626 39.0339 40.3619 38.745 40.8778 38.2317C41.3934 37.7181 41.6836 37.0219 41.6845 36.2955V32.1866C41.6836 31.4602 41.3934 30.764 40.8778 30.2504C40.3618 29.7371 39.6626 29.4482 38.933 29.4473V29.4473Z" fill="#3C8477"/>
<path d="M34.8057 32.1875H36.1814V33.5572H34.8057V32.1875Z" fill="#3C8477"/>
<path d="M34.8057 34.9258H36.1814V36.2954H34.8057V34.9258Z" fill="#3C8477"/>
<path d="M38.933 23.9688H34.8057V25.3384H38.933C39.2978 25.3387 39.6473 25.4833 39.9052 25.7401C40.1632 25.997 40.3084 26.3449 40.3087 26.7081V28.7625H41.6845V26.7081C41.6836 25.9817 41.3934 25.2855 40.8777 24.7719C40.3618 24.2586 39.6626 23.9697 38.933 23.9688L38.933 23.9688Z" fill="#3C8477"/>
<path d="M34.8057 26.707H36.1814V28.0767H34.8057V26.707Z" fill="#3C8477"/>
<path d="M4.53809 17.8047H5.91386V21.9137H4.53809V17.8047Z" fill="#3C8477"/>
<path d="M7.29004 17.8047H8.66581V21.9137H7.29004V17.8047Z" fill="#3C8477"/>
<path d="M10.042 17.8047H11.4178V21.9137H10.042V17.8047Z" fill="#3C8477"/>
<path d="M15.5449 13.0117H16.9207V17.1207H15.5449V13.0117Z" fill="#3C8477"/>
<path d="M18.2959 13.0117H19.6717V17.1207H18.2959V13.0117Z" fill="#3C8477"/>
<path d="M21.0479 13.0117H22.4236V17.1207H21.0479V13.0117Z" fill="#3C8477"/>
<path d="M23.7988 13.0117H25.1746V17.1207H23.7988V13.0117Z" fill="#3C8477"/>
<path d="M26.5508 13.0117H27.9266V17.1207H26.5508V13.0117Z" fill="#3C8477"/>
<path d="M15.5449 19.8594H16.9207V23.9683H15.5449V19.8594Z" fill="#3C8477"/>
<path d="M18.2959 19.8594H19.6717V23.9683H18.2959V19.8594Z" fill="#3C8477"/>
<path d="M15.5449 26.707H16.9207V30.816H15.5449V26.707Z" fill="#3C8477"/>
<path d="M18.2959 26.707H19.6717V30.816H18.2959V26.707Z" fill="#3C8477"/>
<path d="M4.53809 23.9688H5.91386V28.0777H4.53809V23.9688Z" fill="#3C8477"/>
<path d="M7.29004 23.9688H8.66581V28.0777H7.29004V23.9688Z" fill="#3C8477"/>
<path d="M10.042 23.9688H11.4178V28.0777H10.042V23.9688Z" fill="#3C8477"/>
<path d="M4.53809 30.1328H5.91386V34.2418H4.53809V30.1328Z" fill="#3C8477"/>
<path d="M7.29004 30.1328H8.66581V34.2418H7.29004V30.1328Z" fill="#3C8477"/>
<path d="M10.042 30.1328H11.4178V34.2418H10.042V30.1328Z" fill="#3C8477"/>
<path d="M40.9962 9.58717H38.9326V8.90234H37.5568V11.6417H38.9326V10.9568H40.3083V16.1517L37.5568 18.891C37.1769 19.2692 36.5609 19.2692 36.181 18.891L33.4295 16.1517V10.9568H34.8053V11.6417H36.181V8.90234H34.8053V9.58717H32.7416C32.3617 9.58717 32.0537 9.89382 32.0537 10.272V16.4355C32.0537 16.6171 32.1262 16.7913 32.2552 16.9197L35.2081 19.8596C35.4793 20.1307 35.8134 20.331 36.181 20.4429V22.5989H37.5568V20.4429C37.9243 20.331 38.2585 20.1307 38.5296 19.8596L41.4826 16.9197C41.6116 16.7913 41.684 16.6171 41.684 16.4355V10.272C41.684 10.0904 41.6116 9.91613 41.4826 9.78773C41.3536 9.65933 41.1786 9.58717 40.9961 9.58717H40.9962Z" fill="#3C8477"/>
</svg>
