<svg width="41" height="40" viewBox="0 0 41 40" fill="none" xmlns="http://www.w3.org/2000/svg">
<path d="M23.9834 33.5977H26.0235V35.6224H23.9834V33.5977Z" fill="#3C8477"/>
<path d="M4.68848 31.3164H6.72856V33.6418H4.68848V31.3164Z" fill="#3C8477"/>
<path d="M4.68848 25.75H6.72856V28.0754H4.68848V25.75Z" fill="#3C8477"/>
<path d="M4.68848 20.1797H6.72856V22.5051H4.68848V20.1797Z" fill="#3C8477"/>
<path d="M34.3528 31.3164H36.3929V33.6418H34.3528V31.3164Z" fill="#3C8477"/>
<path d="M34.3528 25.75H36.3929V28.0754H34.3528V25.75Z" fill="#3C8477"/>
<path d="M34.3528 20.1816H36.3929V22.5071H34.3528V20.1816Z" fill="#3C8477"/>
<path d="M39.3679 9.69154H32.228V6.41596H33.4182C34.7304 6.41596 35.7982 5.35624 35.7982 4.05386L35.7979 2.3621C35.7979 1.05971 34.7301 0 33.4179 0H7.57783C6.26558 0 5.19784 1.05971 5.19784 2.3621V4.05358C5.19784 5.35596 6.26558 6.41567 7.57783 6.41567H8.76797V9.69126L1.62743 9.69154C1.06413 9.69154 0.607422 10.1448 0.607422 10.7039V38.4478C0.607422 39.0068 1.06416 39.4601 1.62743 39.4601H39.3674C39.9307 39.4601 40.3874 39.0068 40.3874 38.4478V10.7039C40.3874 10.1445 39.9307 9.69154 39.3674 9.69154L39.3679 9.69154ZM8.76768 37.4355H2.64778V16.4668H8.76768V37.4355ZM30.1879 37.4564H17.0128V27.1067H23.983V31.6759H26.023V27.1067H27.8081V25.082H13.2727V27.1067H14.9726V37.4564H10.8075L10.8078 6.41581H30.1879L30.1879 37.4564ZM38.3478 37.4355H32.2279V16.4668H38.3478V37.4355Z" fill="#3C8477"/>
<path d="M22.7542 19.5665L20.4983 18.4194L18.2423 19.5665C17.5278 19.9595 16.6052 19.2836 16.7727 18.4899L17.1976 16.095L15.3934 14.3942C14.7749 13.8483 15.1301 12.7465 15.9528 12.6578L18.4685 12.3042L19.5887 10.1092C19.9314 9.38025 21.066 9.38025 21.4084 10.1092L22.5287 12.3042L25.0443 12.6578C25.8671 12.7462 26.222 13.8484 25.6037 14.3942L23.7996 16.095L24.2244 18.4899C24.4084 19.911 22.9011 19.6411 22.7543 19.5665H22.7542ZM20.9634 16.3809L21.8593 16.8364L21.6951 15.9108C21.6357 15.5765 21.7492 15.235 21.9972 15.0015L22.6682 14.3689L21.7159 14.235C21.386 14.1888 21.0996 13.9853 20.9489 13.69L20.4983 12.8071L20.0476 13.69C19.897 13.9853 19.6106 14.1885 19.2807 14.235L18.3284 14.3689L18.9993 15.0015C19.2474 15.2353 19.3606 15.5768 19.3015 15.9108L19.1372 16.8364L20.0332 16.3809C20.4983 16.0303 20.8174 16.3068 20.9633 16.3809H20.9634Z" fill="#3C8477"/>
</svg>
