<svg width="98" height="97" viewBox="0 0 98 97" fill="none" xmlns="http://www.w3.org/2000/svg">
<path d="M57.5781 82.4219H62.5413V87.3477H57.5781V82.4219Z" fill="#3C8477"/>
<path d="M10.6367 76.875H15.5999V82.5324H10.6367V76.875Z" fill="#3C8477"/>
<path d="M10.6367 63.3281H15.5999V68.9855H10.6367V63.3281Z" fill="#3C8477"/>
<path d="M10.6367 49.7812H15.5999V55.4386H10.6367V49.7812Z" fill="#3C8477"/>
<path d="M82.8066 76.875H87.7698V82.5324H82.8066V76.875Z" fill="#3C8477"/>
<path d="M82.8066 63.3281H87.7698V68.9855H82.8066V63.3281Z" fill="#3C8477"/>
<path d="M82.8066 49.7812H87.7698V55.4386H82.8066V49.7812Z" fill="#3C8477"/>
<path d="M95.0068 24.2654H77.6367V16.2965H80.5322C83.7246 16.2965 86.3223 13.7184 86.3223 10.5499L86.3216 6.43409C86.3216 3.26561 83.724 0.6875 80.5315 0.6875H17.6668C14.4744 0.6875 11.8767 3.26561 11.8767 6.43409V10.5492C11.8767 13.7177 14.4744 16.2958 17.6668 16.2958H20.5623V24.2648L3.19049 24.2654C1.82009 24.2654 0.708984 25.3682 0.708984 26.7283V94.2246C0.708984 95.5847 1.82016 96.6875 3.19049 96.6875H95.0058C96.3762 96.6875 97.4873 95.5847 97.4873 94.2246V26.7283C97.4873 25.3675 96.3761 24.2654 95.0058 24.2654L95.0068 24.2654ZM20.5615 91.7618H5.67285V40.7485H20.5615V91.7618ZM72.6734 91.8127H40.6206V66.6337H57.5778V77.7497H62.541V66.6337H66.8838V61.7078H31.5216V66.6337H35.6571V91.8127H25.5242L25.5249 16.2961H72.6734L72.6734 91.8127ZM92.5251 91.7618H77.6364V40.7485H92.5251V91.7618Z" fill="#3C8477"/>
<path d="M54.588 48.2873L49.0996 45.4966L43.6112 48.2873C41.8728 49.2433 39.6282 47.5992 40.0359 45.6682L41.0694 39.8418L36.6802 35.7039C35.1755 34.376 36.0396 31.6953 38.0411 31.4795L44.1614 30.6193L46.8867 25.2794C47.7204 23.5058 50.4808 23.5058 51.3138 25.2794L54.0392 30.6193L60.1594 31.4795C62.161 31.6946 63.0244 34.376 61.5203 35.7039L57.1311 39.8418L58.1646 45.6682C58.6122 49.1253 54.9452 48.4687 54.5881 48.2873H54.588ZM50.231 40.5373L52.4108 41.6455L52.0111 39.3936C51.8667 38.5802 52.1428 37.7494 52.7463 37.1814L54.3786 35.6424L52.0618 35.3167C51.2592 35.2042 50.5625 34.7091 50.1959 33.9908L49.0996 31.8429L48.0032 33.9908C47.6367 34.7091 46.94 35.2035 46.1373 35.3167L43.8205 35.6424L45.4528 37.1814C46.0563 37.7502 46.3318 38.581 46.188 39.3936L45.7883 41.6455L47.9681 40.5373C49.0995 39.6844 49.8758 40.3571 50.231 40.5373H50.231Z" fill="#3C8477"/>
</svg>
