<svg width="38" height="46" viewBox="0 0 38 46" fill="none" xmlns="http://www.w3.org/2000/svg">
<path d="M37.4724 3.10728L35.9466 0.483285C35.6792 0.0209092 35.0845 -0.137457 34.6215 0.130146L30.2945 2.61804C29.6582 1.78661 28.6544 1.28287 27.5888 1.28287C26.9923 1.28287 26.4053 1.44124 25.8898 1.73746L11.5768 9.96473L11.2985 9.48822C10.877 8.76602 9.87144 8.49703 9.14316 8.91485L5.45429 11.0369C4.69728 11.4692 4.43632 12.4321 4.87233 13.1826L5.72025 14.6429L3.92254 15.6755C3.4581 15.9416 3.29902 16.5338 3.56604 16.9947C3.74571 17.3051 4.07202 17.4776 4.40756 17.4776C4.57303 17.4776 4.73991 17.4366 4.89259 17.3478L6.68858 16.3153L7.3934 17.5299L5.59605 18.5625C5.13161 18.8286 4.97254 19.4208 5.23955 19.8817C5.41923 20.1921 5.74553 20.3646 6.08108 20.3646C6.24654 20.3646 6.41342 20.3236 6.56611 20.2348L8.36209 19.2023L9.06372 20.4169L7.26956 21.4509C6.80654 21.7171 6.64746 22.3092 6.91484 22.7701C7.09451 23.0805 7.42082 23.253 7.75637 23.253C7.92183 23.253 8.08729 23.212 8.2414 23.1233L10.0374 22.0907L10.8853 23.5542C11.1683 24.0371 11.6917 24.3351 12.2516 24.3351C12.5286 24.3351 12.802 24.2623 13.0406 24.1244L16.7326 22.0024C17.0969 21.7917 17.3593 21.4513 17.4676 21.0459C17.5759 20.6404 17.5202 20.2176 17.3085 19.8567L17.0334 19.3816L25.2654 14.6497C25.8651 15.3005 26.1069 16.1019 25.9638 17.0966L22.0807 27.0022C20.8273 26.432 19.3353 26.4051 18.0847 27.0828C15.7941 28.3291 15.6017 30.3547 15.6017 32.3248V35.3892C13.3029 34.7858 10.5465 33.2831 10.5717 29.5756L12.6443 30.1681C12.7348 30.1967 12.8239 30.2077 12.9116 30.2077C13.3349 30.2077 13.723 29.9305 13.8437 29.5078C13.9932 28.9962 13.6942 28.4611 13.1804 28.3122L1.70171 25.0275C1.1833 24.8801 0.648553 25.1795 0.502296 25.6896C0.357785 26.2018 0.655334 26.737 1.1709 26.8831L3.64936 27.5925C3.57444 30.0791 3.92632 37.5235 10.394 41.0555C10.149 41.4956 9.99629 41.9979 9.99629 42.5363C9.99629 43.3613 10.3191 44.139 10.9046 44.7215C11.4901 45.3044 12.2695 45.6258 13.0982 45.6258H31.6953C33.4053 45.6258 34.7972 44.2401 34.7972 42.5376C34.7972 40.8351 33.4054 39.4495 31.6953 39.4495H29.9391C29.0354 37.7456 27.7678 35.3793 26.519 33.0957L31.9275 19.3007C33.7203 14.7303 33.1969 11.6262 32.5592 9.94891C32.7197 9.6845 32.8568 9.40241 32.9363 9.09522C33.1337 8.36349 33.0666 7.60983 32.7772 6.9209L37.1152 4.42803C37.3396 4.29971 37.5019 4.08903 37.5686 3.84052C37.6332 3.59377 37.5999 3.33078 37.4727 3.10736L37.4724 3.10728ZM12.3833 22.2732L6.73474 12.5287L9.80013 10.7661L15.4519 20.5107L12.3833 22.2732ZM12.5456 11.6392L26.8604 3.41189C27.5396 3.02057 28.4717 3.2772 28.8583 3.94708L30.9167 7.48806C31.1124 7.8253 31.1649 8.21803 31.063 8.59518C30.9611 8.97201 30.7179 9.28732 30.3792 9.48033L16.0662 17.7076L12.5456 11.6392ZM5.56371 28.1409L8.661 29.0293C8.28569 34.9029 13.1261 36.7955 15.6045 37.3721V39.4514H13.0959C12.695 39.4514 12.3147 39.5352 11.9632 39.673C6.11728 36.9412 5.53353 30.7271 5.56371 28.1412V28.1409ZM32.8543 42.536C32.8543 43.1726 32.3327 43.6919 31.6946 43.6919H13.0958C12.7872 43.6919 12.4946 43.5717 12.2749 43.3546C12.0554 43.1344 11.9361 42.8463 11.9361 42.5359C11.9361 41.8993 12.4563 41.3814 13.0958 41.3814H31.6928C32.3338 41.3828 32.8539 41.9007 32.8539 42.5359L32.8543 42.536ZM17.5451 39.4493L17.5465 32.3242C17.5451 30.1941 17.8743 29.3991 19.018 28.7783C20.1887 28.1448 21.7574 28.5994 22.4366 29.7776C24.0082 32.4999 26.2114 36.5842 27.74 39.4488L17.5451 39.4493ZM30.1183 18.5974L25.2967 30.8912C24.883 30.1485 24.4854 29.4436 24.1197 28.8119C23.9957 28.598 23.8459 28.4064 23.69 28.2194L27.8164 17.6993C27.8419 17.6361 27.8576 17.571 27.8689 17.5046C28.109 16.0443 27.7972 14.719 26.9876 13.6596L30.9755 11.3679C31.3479 12.8491 31.4417 15.2228 30.1183 18.5977L30.1183 18.5974ZM31.8457 5.22857L31.2936 4.27693L34.7534 2.28785L35.3055 3.23949L31.8457 5.22857Z" fill="#3C8477"/>
<path d="M21.8509 32.0406C21.8509 32.8416 21.1983 33.4913 20.3937 33.4913C19.5891 33.4913 18.9365 32.8416 18.9365 32.0406C18.9365 31.2395 19.5892 30.5898 20.3937 30.5898C21.1983 30.5898 21.8509 31.2396 21.8509 32.0406Z" fill="#3C8477"/>
</svg>
