<svg width="40" height="40" viewBox="0 0 40 40" fill="none" xmlns="http://www.w3.org/2000/svg">
<path d="M1.33833 18.9505V33.6822C1.33833 34.0632 1.59233 34.3172 1.97332 34.3172C2.35431 34.3172 2.60831 34.0632 2.60831 33.6822V19.0775H3.62429C4.00528 19.0775 4.25927 18.8235 4.25927 18.4425C4.25927 18.0615 4.00528 17.8075 3.62429 17.8075H1.97332C1.59233 17.8075 1.33833 17.5535 1.33833 17.1725C1.33833 16.7915 1.59233 16.5376 1.97332 16.5376H3.62429C4.00528 16.5376 4.25927 16.2836 4.25927 15.9026C4.25927 15.5216 4.00528 15.2676 3.62429 15.2676H1.97332C0.893842 15.2676 0.0683594 16.0931 0.0683594 17.1725C0.0683594 17.998 0.576349 18.6965 1.33833 18.9505Z" fill="#3C8477"/>
<path d="M38.8023 38.1266H38.1673V18.95C38.9293 18.696 39.4373 17.9975 39.4373 17.172C39.4373 16.0925 38.6118 15.2671 37.5323 15.2671H36.8338C36.5798 14.0606 35.6274 13.0446 34.4209 12.7906C34.4844 11.5841 34.8019 10.3142 35.3734 9.23468C35.5004 8.91719 35.3734 8.53619 35.1194 8.4092C34.8019 8.2822 34.4209 8.4092 34.2939 8.66319C33.6589 9.93317 33.2779 11.3301 33.2144 12.7906C31.9444 13.0446 30.992 13.9971 30.6745 15.2671H20.2607C19.8797 15.2671 19.6257 15.5211 19.6257 15.902C19.6257 16.283 19.8797 16.537 20.2607 16.537H37.5323C37.9133 16.537 38.1673 16.791 38.1673 17.172C38.1673 17.553 37.9133 17.807 37.5323 17.807H34.9924C34.6114 17.807 34.3574 18.061 34.3574 18.442C34.3574 18.823 34.6114 19.077 34.9924 19.077H36.8973V22.8869H22.9276V19.077H32.4524C32.8334 19.077 33.0874 18.823 33.0874 18.442C33.0874 18.061 32.8334 17.807 32.4524 17.807H19.9428C19.5618 17.807 19.3078 18.061 19.3078 18.442C19.3078 18.823 19.5618 19.077 19.9428 19.077H21.6573V28.6018C21.6573 28.9828 21.9113 29.2368 22.2923 29.2368C22.6733 29.2368 22.9273 28.9828 22.9273 28.6018V24.1569H29.2771V33.0467H22.9273V31.1417C22.9273 30.7607 22.6733 30.5067 22.2923 30.5067C21.9113 30.5067 21.6573 30.7607 21.6573 31.1417V38.1266H17.3394C15.9424 35.4596 12.5135 35.5866 12.5135 35.5866V33.0467H13.1485C13.5295 33.0467 13.7835 32.7927 13.7835 32.4117V30.5067H15.6884C16.7679 30.5067 17.5934 29.6813 17.5934 28.6018C17.5934 27.5223 16.7679 26.6968 15.6884 26.6968H13.7835V25.4268H15.3709C16.5774 25.4268 17.5934 24.5379 17.7839 23.3314C17.8474 23.0139 17.5934 22.6964 17.2124 22.6329C16.8949 22.5694 16.5774 22.8234 16.5139 23.2044C16.4504 23.7759 15.9424 24.2204 15.3709 24.2204H8.38607C7.81458 24.2204 7.3066 23.7759 7.2431 23.2044L6.41761 13.9336C6.35412 13.6161 6.48111 13.2986 6.67161 13.0446C6.8621 12.7906 7.1796 12.6636 7.49709 12.6636H16.2599C16.5774 12.6636 16.8949 12.7906 17.0854 13.0446C17.2759 13.2986 17.4029 13.6161 17.3394 13.9336L16.7044 20.9184C16.6409 21.2359 16.9584 21.5534 17.2759 21.6169C17.6569 21.6804 17.9109 21.3629 17.9744 21.0454L18.6094 14.0606C18.6729 13.3621 18.4824 12.7271 18.0379 12.2191C17.5934 11.7111 16.9584 11.3936 16.2599 11.3936H7.56023C6.86174 11.3936 6.22676 11.7111 5.78226 12.2191C5.33777 12.7271 5.08378 13.3621 5.14728 14.0606L6.03626 23.3314C6.16326 24.5379 7.17924 25.4903 8.38571 25.4903H9.97318V26.7603H8.06822C6.98874 26.7603 6.16326 27.5858 6.16326 28.6653C6.16326 29.7448 6.98874 30.5702 8.06822 30.5702H9.97318V32.4752C9.97318 32.8562 10.2272 33.1102 10.6082 33.1102H11.2432V35.6501C11.2432 35.6501 7.87772 35.4596 6.41725 38.1901H2.60733V36.2851C2.60733 35.9041 2.35334 35.6501 1.97234 35.6501C1.59135 35.6501 1.33736 35.9041 1.33736 36.2851V38.1901H0.70237C0.321378 38.1901 0.0673828 38.4441 0.0673828 38.8251C0.0673828 39.2061 0.321378 39.4601 0.70237 39.4601H32.4517C32.8327 39.4601 33.0867 39.2061 33.0867 38.8251C33.0867 38.4441 32.8327 38.1901 32.4517 38.1901H22.9269V34.3802H36.8966V38.1901H34.9917C34.6107 38.1901 34.3567 38.4441 34.3567 38.8251C34.3567 39.2061 34.6107 39.4601 34.9917 39.4601H38.8016C39.1826 39.4601 39.4366 39.2061 39.4366 38.8251C39.4366 38.4441 39.1826 38.1266 38.8016 38.1266H38.8023ZM31.9444 15.2671C32.1984 14.5051 32.8969 13.9971 33.7224 13.9971C34.5479 13.9971 35.2464 14.5051 35.5004 15.2671H31.9444ZM11.307 38.1266H8.06858C9.14806 36.5391 11.307 36.8566 11.307 36.8566V38.1266ZM11.307 25.4268H12.577V26.6968H11.307V25.4268ZM8.13208 29.2368C7.75109 29.2368 7.49709 28.9828 7.49709 28.6018C7.49709 28.2208 7.75109 27.9668 8.13208 27.9668H15.7519C16.1329 27.9668 16.3869 28.2208 16.3869 28.6018C16.3869 28.9828 16.1329 29.2368 15.7519 29.2368H8.13208ZM11.307 30.5067H12.577V31.7767H11.307V30.5067ZM12.577 38.1266V36.8566C12.577 36.8566 14.8629 36.7296 15.8154 38.1266H12.577ZM36.8966 33.0467H30.5467V24.1569H36.8966V33.0467Z" fill="#3C8477"/>
<path d="M4.06887 13.4262C4.32286 13.1722 4.32286 12.7912 4.06887 12.5372C3.94187 12.4102 3.87837 12.2197 3.87837 12.0292V10.1878H9.59325C9.97425 10.1878 10.2282 9.93376 10.2282 9.55277C10.2282 9.17178 9.97425 8.91779 9.59325 8.91779H3.87837V4.47288C3.87837 4.09189 3.62438 3.83789 3.24339 3.83789C2.86239 3.83789 2.6084 4.09189 2.6084 4.47288V12.0289C2.6084 12.5368 2.79889 13.0448 3.17989 13.4258C3.30688 13.5528 3.81487 13.7433 4.06887 13.4258V13.4262Z" fill="#3C8477"/>
<path d="M3.24339 2.56693C3.62438 2.56693 3.87837 2.31293 3.87837 1.93194C3.87837 1.55095 4.19587 1.29695 4.51336 1.29695H19.753C19.9435 1.29695 20.0705 1.36045 20.1975 1.48745C20.3245 1.61445 20.388 1.80494 20.388 1.93194V8.9168H14.6731C14.2922 8.9168 14.0382 9.17079 14.0382 9.55178C14.0382 9.93278 14.2922 10.1868 14.6731 10.1868H20.388V12.0917C20.388 12.4092 20.1975 12.6632 19.9435 12.7267C19.626 12.8537 19.4356 13.1712 19.5625 13.5522C19.753 14.1237 20.3245 13.9967 20.388 13.9332C21.2135 13.6792 21.7215 12.9172 21.7215 12.0917V1.9958C21.7215 1.48781 21.531 0.979824 21.15 0.598832C20.7055 0.21784 20.261 0.0273438 19.753 0.0273438H4.51336C3.49738 0.0273438 2.6084 0.916325 2.6084 1.9323C2.6084 2.3133 2.86239 2.56729 3.24339 2.56729V2.56693Z" fill="#3C8477"/>
<path d="M18.4831 5.10635C18.8641 5.10635 19.1181 4.85236 19.1181 4.47137V3.20139C19.1181 2.8204 18.8641 2.56641 18.4831 2.56641H17.2131C16.8321 2.56641 16.5781 2.8204 16.5781 3.20139C16.5781 3.58239 16.8321 3.83638 17.2131 3.83638H17.8481V4.47137C17.8481 4.85236 18.1021 5.10635 18.4831 5.10635Z" fill="#3C8477"/>
<path d="M15.3075 3.20139C15.3075 2.8204 15.0535 2.56641 14.6725 2.56641H13.4026C13.0216 2.56641 12.7676 2.8204 12.7676 3.20139C12.7676 3.58239 13.0216 3.83638 13.4026 3.83638H14.6725C15.0535 3.83638 15.3075 3.58239 15.3075 3.20139Z" fill="#3C8477"/>
<path d="M28.5154 7.71037C28.8963 8.02786 29.2773 7.83737 29.4043 7.71037C30.9918 6.1229 31.1188 3.70995 29.8488 1.93199C30.9283 1.17001 32.3888 1.10651 33.5952 1.80499C35.3732 2.88447 36.0082 5.10692 35.1192 6.94839C34.9922 7.26588 35.1192 7.64687 35.4367 7.77387C35.8177 7.96437 36.1987 7.71037 36.2622 7.45638C37.4687 5.04343 36.5797 2.05899 34.2937 0.662016C32.6428 -0.353963 30.5473 -0.163467 29.0233 0.979509C27.3089 -0.353963 24.7689 -0.226966 23.1815 1.3605C22.9275 1.6145 22.9275 1.99549 23.1815 2.24948L28.5154 7.71037ZM28.5154 2.31298C29.5948 3.39246 29.7218 5.10692 28.8963 6.3134L24.5149 1.93199C25.7214 1.10651 27.4359 1.2335 28.5154 2.31298Z" fill="#3C8477"/>
<path d="M24.8961 5.8679C24.5152 5.4869 24.3247 4.97891 24.3247 4.47092C24.3247 4.08993 24.0707 3.83594 23.6897 3.83594C23.3722 3.83594 23.0547 4.08993 23.0547 4.47092C23.0547 5.35991 23.3722 6.18539 24.0072 6.82038C24.5787 7.39186 25.3406 7.70936 26.1026 7.77286C26.1026 7.77286 26.6741 7.83635 26.7376 7.13787C26.8011 6.82038 26.4836 6.50288 26.1026 6.50288C25.7216 6.43938 25.2136 6.24889 24.8961 5.8679Z" fill="#3C8477"/>
<path d="M33.0874 28.6018C33.0874 28.9524 32.803 29.2368 32.4524 29.2368C32.1017 29.2368 31.8174 28.9524 31.8174 28.6018C31.8174 28.2511 32.1017 27.9668 32.4524 27.9668C32.803 27.9668 33.0874 28.2511 33.0874 28.6018Z" fill="#3C8477"/>
<path d="M28.0708 28.6018C28.0708 28.9524 27.7864 29.2368 27.4358 29.2368C27.0851 29.2368 26.8008 28.9524 26.8008 28.6018C26.8008 28.2511 27.0851 27.9668 27.4358 27.9668C27.7864 27.9668 28.0708 28.2511 28.0708 28.6018Z" fill="#3C8477"/>
<path d="M30.4848 20.9826C30.4848 21.3333 30.2005 21.6176 29.8498 21.6176C29.4992 21.6176 29.2148 21.3333 29.2148 20.9826C29.2148 20.632 29.4992 20.3477 29.8498 20.3477C30.2005 20.3477 30.4848 20.632 30.4848 20.9826Z" fill="#3C8477"/>
<path d="M12.768 9.55296C12.768 9.90361 12.4837 10.1879 12.133 10.1879C11.7824 10.1879 11.498 9.90361 11.498 9.55296C11.498 9.2023 11.7824 8.91797 12.133 8.91797C12.4837 8.91797 12.768 9.2023 12.768 9.55296Z" fill="#3C8477"/>
</svg>
