<svg width="97" height="97" viewBox="0 0 97 97" fill="none" xmlns="http://www.w3.org/2000/svg">
<path d="M3.80058 46.7881V82.6279C3.80058 83.5548 4.4185 84.1727 5.34539 84.1727C6.27228 84.1727 6.89021 83.5548 6.89021 82.6279V47.097H9.36192C10.2888 47.097 10.9067 46.4791 10.9067 45.5522C10.9067 44.6253 10.2888 44.0074 9.36192 44.0074H5.34539C4.4185 44.0074 3.80058 43.3895 3.80058 42.4626C3.80058 41.5357 4.4185 40.9178 5.34539 40.9178H9.36192C10.2888 40.9178 10.9067 40.2998 10.9067 39.3729C10.9067 38.4461 10.2888 37.8281 9.36192 37.8281H5.34539C2.7192 37.8281 0.710938 39.8364 0.710938 42.4626C0.710938 44.4708 1.94679 46.1701 3.80058 46.7881Z" fill="#3C8477"/>
<path d="M94.9447 93.4422H93.3999V46.7886C95.2537 46.1707 96.4895 44.4714 96.4895 42.4631C96.4895 39.837 94.4812 37.8287 91.855 37.8287H90.1558C89.5378 34.8935 87.2206 32.4218 84.2854 31.8039C84.4399 28.8687 85.2123 25.7791 86.6027 23.1529C86.9116 22.3805 86.6027 21.4536 85.9847 21.1446C85.2123 20.8357 84.2854 21.1446 83.9765 21.7626C82.4317 24.8522 81.5048 28.2508 81.3503 31.8039C78.2607 32.4218 75.9434 34.7391 75.171 37.8287H49.836C48.9091 37.8287 48.2912 38.4466 48.2912 39.3735C48.2912 40.3004 48.9091 40.9183 49.836 40.9183H91.855C92.7819 40.9183 93.3999 41.5363 93.3999 42.4631C93.3999 43.39 92.7819 44.008 91.855 44.008H85.6758C84.7489 44.008 84.131 44.6259 84.131 45.5528C84.131 46.4797 84.7489 47.0976 85.6758 47.0976H90.3102V56.3665H56.3242V47.0976H79.4965C80.4234 47.0976 81.0413 46.4797 81.0413 45.5528C81.0413 44.6259 80.4234 44.008 79.4965 44.008H49.0627C48.1358 44.008 47.5179 44.6259 47.5179 45.5528C47.5179 46.4797 48.1358 47.0976 49.0627 47.0976H53.2337V70.2699C53.2337 71.1968 53.8516 71.8147 54.7785 71.8147C55.7054 71.8147 56.3233 71.1968 56.3233 70.2699V59.4562H71.7715V81.0836H56.3233V76.4492C56.3233 75.5223 55.7054 74.9043 54.7785 74.9043C53.8516 74.9043 53.2337 75.5223 53.2337 76.4492V93.4422H42.7289C39.3303 86.9539 30.9883 87.2629 30.9883 87.2629V81.0836H32.5331C33.46 81.0836 34.0779 80.4657 34.0779 79.5388V74.9043H38.7124C41.3386 74.9043 43.3469 72.8961 43.3469 70.2699C43.3469 67.6437 41.3386 65.6354 38.7124 65.6354H34.0779V62.5458H37.94C40.8752 62.5458 43.3469 60.383 43.8103 57.4479C43.9648 56.6755 43.3469 55.9031 42.42 55.7486C41.6476 55.5941 40.8752 56.212 40.7207 57.1389C40.5662 58.5293 39.3303 59.6106 37.94 59.6106H20.947C19.5567 59.6106 18.3208 58.5293 18.1663 57.1389L16.1581 34.5846C16.0036 33.8122 16.3125 33.0398 16.776 32.4218C17.2394 31.8039 18.0118 31.4949 18.7842 31.4949H40.1027C40.8752 31.4949 41.6476 31.8039 42.111 32.4218C42.5745 33.0398 42.8834 33.8122 42.7289 34.5846L41.1841 51.5776C41.0296 52.35 41.802 53.1224 42.5745 53.2769C43.5013 53.4314 44.1193 52.659 44.2738 51.8865L45.8186 34.8935C45.9731 33.1942 45.5096 31.6494 44.4282 30.4136C43.3469 29.1777 41.802 28.4053 40.1027 28.4053H18.9378C17.2385 28.4053 15.6937 29.1777 14.6124 30.4136C13.531 31.6494 12.9131 33.1942 13.0675 34.8935L15.2303 57.4479C15.5392 60.383 18.011 62.7003 20.9461 62.7003H24.8082V65.7899H20.1737C17.5475 65.7899 15.5392 67.7982 15.5392 70.4244C15.5392 73.0506 17.5475 75.0588 20.1737 75.0588H24.8082V79.6933C24.8082 80.6202 25.4261 81.2381 26.353 81.2381H27.8978V87.4174C27.8978 87.4174 19.7103 86.9539 16.1572 93.5966H6.88826V88.9622C6.88826 88.0353 6.27033 87.4174 5.34344 87.4174C4.41655 87.4174 3.79862 88.0353 3.79862 88.9622V93.5966H2.2538C1.32691 93.5966 0.708984 94.2146 0.708984 95.1415C0.708984 96.0684 1.32691 96.6863 2.2538 96.6863H79.4947C80.4216 96.6863 81.0396 96.0684 81.0396 95.1415C81.0396 94.2146 80.4216 93.5966 79.4947 93.5966H56.3225V84.3277H90.3085V93.5966H85.674C84.7471 93.5966 84.1292 94.2146 84.1292 95.1415C84.1292 96.0684 84.7471 96.6863 85.674 96.6863H94.9429C95.8698 96.6863 96.4877 96.0684 96.4877 95.1415C96.4877 94.2146 95.8698 93.4422 94.9429 93.4422H94.9447ZM78.2607 37.8287C78.8786 35.9749 80.5779 34.7391 82.5861 34.7391C84.5944 34.7391 86.2937 35.9749 86.9116 37.8287H78.2607ZM28.0532 93.4422H20.1746C22.8008 89.5801 28.0532 90.3525 28.0532 90.3525V93.4422ZM28.0532 62.5458H31.1428V65.6354H28.0532V62.5458ZM20.3291 71.8147C19.4022 71.8147 18.7842 71.1968 18.7842 70.2699C18.7842 69.343 19.4022 68.7251 20.3291 68.7251H38.8669C39.7938 68.7251 40.4117 69.343 40.4117 70.2699C40.4117 71.1968 39.7938 71.8147 38.8669 71.8147H20.3291ZM28.0532 74.9043H31.1428V77.994H28.0532V74.9043ZM31.1428 93.4422V90.3525C31.1428 90.3525 36.7041 90.0436 39.0214 93.4422H31.1428ZM90.3085 81.0836H74.8603V59.4562H90.3085V81.0836Z" fill="#3C8477"/>
<path d="M10.4437 33.3502C11.0616 32.7323 11.0616 31.8054 10.4437 31.1875C10.1347 30.8785 9.98026 30.415 9.98026 29.9516V25.4716H23.8836C24.8105 25.4716 25.4284 24.8537 25.4284 23.9268C25.4284 22.9999 24.8105 22.382 23.8836 22.382H9.98026V11.5683C9.98026 10.6414 9.36233 10.0234 8.43544 10.0234C7.50855 10.0234 6.89062 10.6414 6.89062 11.5683V29.9507C6.89062 31.1866 7.35407 32.4224 8.28096 33.3493C8.58993 33.6583 9.82578 34.1217 10.4437 33.3493V33.3502Z" fill="#3C8477"/>
<path d="M8.43544 6.9362C9.36233 6.9362 9.98026 6.31828 9.98026 5.39139C9.98026 4.46449 10.7527 3.84657 11.5251 3.84657H48.6007C49.0642 3.84657 49.3731 4.00105 49.6821 4.31001C49.9911 4.61898 50.1455 5.08242 50.1455 5.39139V22.3844H36.2422C35.3153 22.3844 34.6974 23.0023 34.6974 23.9292C34.6974 24.8561 35.3153 25.474 36.2422 25.474H50.1455V30.1085C50.1455 30.8809 49.6821 31.4988 49.0642 31.6533C48.2918 31.9623 47.8283 32.7347 48.1373 33.6616C48.6007 35.0519 49.9911 34.7429 50.1455 34.5885C52.1538 33.9705 53.3897 32.1168 53.3897 30.1085V5.54675C53.3897 4.3109 52.9262 3.07504 51.9993 2.14815C50.918 1.22126 49.8366 0.757812 48.6007 0.757812H11.5251C9.05337 0.757812 6.89062 2.92056 6.89062 5.39227C6.89062 6.31916 7.50855 6.93709 8.43544 6.93709V6.9362Z" fill="#3C8477"/>
<path d="M45.5114 13.1129C46.4383 13.1129 47.0562 12.4949 47.0562 11.568V8.47841C47.0562 7.55152 46.4383 6.93359 45.5114 6.93359H42.4218C41.4949 6.93359 40.877 7.55152 40.877 8.47841C40.877 9.4053 41.4949 10.0232 42.4218 10.0232H43.9666V11.568C43.9666 12.4949 44.5845 13.1129 45.5114 13.1129Z" fill="#3C8477"/>
<path d="M37.7867 8.47841C37.7867 7.55152 37.1688 6.93359 36.2419 6.93359H33.1522C32.2253 6.93359 31.6074 7.55152 31.6074 8.47841C31.6074 9.4053 32.2253 10.0232 33.1522 10.0232H36.2419C37.1688 10.0232 37.7867 9.4053 37.7867 8.47841Z" fill="#3C8477"/>
<path d="M69.9184 19.4456C70.8453 20.218 71.7722 19.7545 72.0812 19.4456C75.9432 15.5835 76.2522 9.71321 73.1626 5.38771C75.7887 3.53393 79.3418 3.37945 82.277 5.07875C86.6025 7.70494 88.1473 13.1118 85.9846 17.5918C85.6756 18.3642 85.9846 19.2911 86.757 19.6C87.6839 20.0635 88.6107 19.4456 88.7652 18.8276C91.7004 12.9573 89.5376 5.69668 83.9763 2.29808C79.9598 -0.173634 74.8619 0.289812 71.1543 3.07049C66.9833 -0.173634 60.804 0.13533 56.942 3.99738C56.324 4.6153 56.324 5.5422 56.942 6.16012L69.9184 19.4456ZM69.9184 6.3146C72.5446 8.9408 72.8536 13.1118 70.8453 16.047L60.1861 5.38771C63.1212 3.37945 67.2922 3.68841 69.9184 6.3146Z" fill="#3C8477"/>
<path d="M61.1147 14.9669C60.1878 14.04 59.7244 12.8041 59.7244 11.5683C59.7244 10.6414 59.1065 10.0234 58.1796 10.0234C57.4072 10.0234 56.6348 10.6414 56.6348 11.5683C56.6348 13.731 57.4072 15.7393 58.952 17.2841C60.3423 18.6744 62.1961 19.4468 64.0499 19.6013C64.0499 19.6013 65.4402 19.7558 65.5947 18.0565C65.7492 17.2841 64.9768 16.5117 64.0499 16.5117C63.123 16.3572 61.8871 15.8937 61.1147 14.9669Z" fill="#3C8477"/>
<path d="M81.0408 70.2714C81.0408 71.1245 80.3491 71.8162 79.496 71.8162C78.6429 71.8162 77.9512 71.1245 77.9512 70.2714C77.9512 69.4183 78.6429 68.7266 79.496 68.7266C80.3491 68.7266 81.0408 69.4183 81.0408 70.2714Z" fill="#3C8477"/>
<path d="M68.8357 70.2714C68.8357 71.1245 68.144 71.8162 67.2909 71.8162C66.4378 71.8162 65.7461 71.1245 65.7461 70.2714C65.7461 69.4183 66.4378 68.7266 67.2909 68.7266C68.144 68.7266 68.8357 69.4183 68.8357 70.2714Z" fill="#3C8477"/>
<path d="M74.7088 51.7323C74.7088 52.5854 74.0171 53.2771 73.164 53.2771C72.3109 53.2771 71.6191 52.5854 71.6191 51.7323C71.6191 50.8792 72.3109 50.1875 73.164 50.1875C74.0171 50.1875 74.7088 50.8792 74.7088 51.7323Z" fill="#3C8477"/>
<path d="M31.6072 23.9276C31.6072 24.7807 30.9155 25.4725 30.0624 25.4725C29.2093 25.4725 28.5176 24.7807 28.5176 23.9276C28.5176 23.0745 29.2093 22.3828 30.0624 22.3828C30.9155 22.3828 31.6072 23.0745 31.6072 23.9276Z" fill="#3C8477"/>
</svg>
