<svg width="40" height="40" viewBox="0 0 40 40" fill="none" xmlns="http://www.w3.org/2000/svg">
<path d="M38.667 36.115V34.615C38.667 33.9222 38.3918 33.2574 37.9019 32.7669C37.4124 32.2767 36.748 32.0008 36.0549 32.0003H27.2568L26.5069 26.0005H30.668V28.667C30.668 29.3816 31.0492 30.0417 31.6678 30.3991C32.2865 30.7562 33.0489 30.7562 33.6676 30.3991C34.2862 30.0417 34.6674 29.3816 34.6674 28.667V27.8855C35.2793 28.1019 35.9583 28.0075 36.4883 27.6328C37.0183 27.2581 37.3334 26.6495 37.3337 26.0004H38.0003C38.7148 26.0004 39.3748 25.6192 39.7322 25.0005C40.0893 24.3817 40.0893 23.6192 39.7322 23.0005C39.3748 22.3818 38.7148 22.0005 38.0003 22.0005H37.3337C37.3334 21.3515 37.0183 20.7428 36.4883 20.3681C35.9583 19.9935 35.2792 19.8991 34.6674 20.1155V19.3339C34.6674 18.6194 34.2862 17.9593 33.6676 17.6019C33.0489 17.2448 32.2865 17.2448 31.6678 17.6019C31.0492 17.9593 30.668 18.6194 30.668 19.3339V22.0005H26.007L24.7572 12.0009H26.6685V14.6674C26.6685 15.382 27.0497 16.0421 27.6684 16.3995C28.2871 16.7566 29.0495 16.7566 29.6681 16.3995C30.2868 16.0421 30.668 15.382 30.668 14.6674V13.8859C31.2798 14.1023 31.9588 14.0079 32.4888 13.6332C33.0188 13.2585 33.334 12.6499 33.3343 12.0008H34.0009C34.7153 12.0008 35.3754 11.6196 35.7327 11.0009C36.0898 10.3821 36.0898 9.61964 35.7327 9.00092C35.3753 8.38219 34.7154 8.00095 34.0009 8.00095H33.3343C33.334 7.35187 33.0188 6.74324 32.4888 6.36855C31.9588 5.99386 31.2798 5.89952 30.668 6.11588V5.33434C30.668 4.61978 30.2868 3.95968 29.6681 3.60229C29.0494 3.24515 28.287 3.24515 27.6684 3.60229C27.0497 3.95971 26.6685 4.61978 26.6685 5.33434V8.00092H24.2573L23.6615 3.23117C23.5118 2.03152 22.7837 0.981267 21.7127 0.420523C20.6417 -0.140174 19.3639 -0.140174 18.2929 0.420523C17.2219 0.981221 16.4937 2.03152 16.344 3.23117L15.7483 8.00092H13.337V5.33434C13.337 4.61978 12.9558 3.95968 12.3372 3.60229C11.7185 3.24515 10.9561 3.24515 10.3375 3.60229C9.71879 3.95971 9.33759 4.61978 9.33759 5.33434V6.11588C8.72577 5.89952 8.04672 5.99386 7.51674 6.36855C6.98675 6.74324 6.67159 7.35183 6.67129 8.00095H6.00471C5.29023 8.00095 4.6302 8.38219 4.27284 9.00092C3.91574 9.61965 3.91574 10.3821 4.27284 11.0009C4.63023 11.6196 5.29022 12.0008 6.00471 12.0008H6.67129C6.67159 12.6499 6.98672 13.2585 7.51674 13.6332C8.04672 14.0079 8.72579 14.1023 9.33759 13.8859V14.6674C9.33759 15.382 9.71879 16.0421 10.3375 16.3995C10.9561 16.7566 11.7185 16.7566 12.3372 16.3995C12.9558 16.0421 13.337 15.382 13.337 14.6674V12.0009H15.2484L13.9986 22.0005H9.33759V19.3339C9.33759 18.6194 8.95639 17.9593 8.33773 17.6019C7.71906 17.2448 6.95666 17.2448 6.338 17.6019C5.71934 17.9593 5.33814 18.6194 5.33814 19.3339V20.1155C4.72632 19.8991 4.04727 19.9935 3.51728 20.3681C2.9873 20.7428 2.67214 21.3514 2.67184 22.0005H2.00526C1.29078 22.0005 0.630745 22.3818 0.273384 23.0005C-0.0837099 23.6192 -0.0837099 24.3817 0.273384 25.0005C0.630775 25.6192 1.29077 26.0004 2.00526 26.0004H2.67184C2.67213 26.6495 2.98727 27.2581 3.51728 27.6328C4.04727 28.0075 4.72634 28.1019 5.33814 27.8855V28.667C5.33814 29.3816 5.71934 30.0417 6.338 30.3991C6.95667 30.7562 7.71907 30.7562 8.33773 30.3991C8.95639 30.0417 9.33759 29.3816 9.33759 28.667V26.0005H13.4986L12.7487 32.0003H3.95069C3.25822 32.0008 2.594 32.2764 2.10423 32.766C1.61472 33.2559 1.33916 33.9201 1.33855 34.6127V36.1127C0.738928 36.3228 0.274694 36.8055 0.0881294 37.4129C-0.0984508 38.0203 0.0149248 38.6801 0.393147 39.1908C0.771365 39.7012 1.36977 40.0018 2.00512 40H38.0002C38.6337 39.9994 39.2298 39.6985 39.6065 39.189C39.9833 38.6795 40.096 38.0215 39.9106 37.4152C39.7256 36.8093 39.264 36.3269 38.6668 36.115H38.667ZM38.0004 23.3337C38.3685 23.3337 38.667 23.6322 38.667 24.0004C38.667 24.3685 38.3685 24.667 38.0004 24.667H37.3339V23.3337H38.0004ZM35.3341 21.3338C35.5109 21.3338 35.6805 21.404 35.8055 21.529C35.9305 21.654 36.0007 21.8237 36.0007 22.0004V26.0003C36.0007 26.3684 35.7022 26.6669 35.3341 26.6669C34.966 26.6669 34.6676 26.3684 34.6676 26.0003V22.0004C34.6676 21.6323 34.966 21.3338 35.3341 21.3338ZM32.0013 19.3339C32.0013 18.9657 32.2997 18.6672 32.6678 18.6672C33.0359 18.6672 33.3344 18.9657 33.3344 19.3339V28.6669C33.3344 29.035 33.0359 29.3335 32.6678 29.3335C32.2997 29.3335 32.0013 29.035 32.0013 28.6669V19.3339ZM34.001 9.33418C34.3691 9.33418 34.6676 9.63268 34.6676 10.0008C34.6676 10.369 34.3691 10.6675 34.001 10.6675H33.3344V9.33418H34.001ZM31.3347 7.33425C31.5115 7.33425 31.6811 7.40448 31.8061 7.52948C31.931 7.65447 32.0013 7.82411 32.0013 8.00089V12.0008C32.0013 12.3689 31.7028 12.6674 31.3347 12.6674C30.9666 12.6674 30.6681 12.3689 30.6681 12.0008V8.00089C30.6681 7.63275 30.9666 7.33425 31.3347 7.33425ZM28.0018 5.33431C28.0018 4.96617 28.3003 4.66767 28.6684 4.66767C29.0365 4.66767 29.335 4.96617 29.335 5.33431V14.6673C29.335 15.0355 29.0365 15.334 28.6684 15.334C28.3003 15.334 28.0018 15.0355 28.0018 14.6673V5.33431ZM17.6703 3.39601C17.7664 2.63055 18.2312 1.96094 18.9148 1.60354C19.5983 1.24581 20.4134 1.24581 21.0969 1.60354C21.7805 1.96097 22.2453 2.63055 22.3414 3.39601L22.9145 8.00089H17.0921L17.6703 3.39601ZM6.00558 10.6675C5.63748 10.6675 5.33901 10.369 5.33901 10.0008C5.33901 9.63268 5.63748 9.33418 6.00558 9.33418H6.67216V10.6675H6.00558ZM8.67188 12.6674C8.30378 12.6674 8.00531 12.3689 8.00531 12.0008V8.00089C8.00531 7.63275 8.30378 7.33425 8.67188 7.33425C9.03999 7.33425 9.33846 7.63275 9.33846 8.00089V12.0008C9.33846 12.1775 9.26823 12.3472 9.14325 12.4722C9.01827 12.5972 8.84865 12.6674 8.67188 12.6674ZM12.0048 14.6673C12.0048 15.0355 11.7063 15.334 11.3382 15.334C10.9701 15.334 10.6716 15.0355 10.6716 14.6673V5.33431C10.6716 4.96617 10.9701 4.66767 11.3382 4.66767C11.7063 4.66767 12.0048 4.96617 12.0048 5.33431V14.6673ZM13.3379 9.33418H26.6694V10.6675H13.3379V9.33418ZM16.5926 12.0008H23.4149L24.6647 22.0004H15.3425L16.5926 12.0008ZM2.00636 24.667C1.63826 24.667 1.33978 24.3685 1.33978 24.0004C1.33978 23.6322 1.63826 23.3337 2.00636 23.3337H2.67293V24.667H2.00636ZM4.67266 26.6669C4.30456 26.6669 4.00608 26.3684 4.00608 26.0003V22.0004C4.00608 21.6323 4.30456 21.3338 4.67266 21.3338C5.04076 21.3338 5.33924 21.6323 5.33924 22.0004V26.0003C5.33924 26.1771 5.26901 26.3467 5.14402 26.4717C5.01904 26.5967 4.84942 26.6669 4.67266 26.6669ZM8.00554 28.6669C8.00554 29.035 7.70706 29.3335 7.33896 29.3335C6.97086 29.3335 6.67239 29.035 6.67239 28.6669V19.3339C6.67239 18.9657 6.97086 18.6672 7.33896 18.6672C7.70706 18.6672 8.00554 18.9657 8.00554 19.3339V28.6669ZM9.33869 23.3337H30.6691V24.667H9.33869V23.3337ZM14.843 26.0003H25.1646L25.9145 32.0001H14.0929L14.843 26.0003ZM2.67324 34.6126C2.67354 34.2736 2.80863 33.9483 3.04819 33.7085C3.28803 33.4689 3.61329 33.3338 3.95222 33.3335H36.056C36.395 33.3338 36.7202 33.4689 36.96 33.7085C37.1996 33.9483 37.3347 34.2736 37.335 34.6126V36H2.67307L2.67324 34.6126ZM38.0017 38.6666H2.00666C1.63856 38.6666 1.34009 38.3681 1.34009 38C1.34009 37.6318 1.63856 37.3333 2.00666 37.3333H38.0017C38.3698 37.3333 38.6683 37.6318 38.6683 38C38.6683 38.3681 38.3698 38.6666 38.0017 38.6666Z" fill="#3C8477"/>
</svg>
