<svg width="64" height="64" viewBox="0 0 64 64" fill="none" xmlns="http://www.w3.org/2000/svg">
<path fill-rule="evenodd" clip-rule="evenodd" d="M38.8974 6.63214C44.2301 5.19571 49.7063 8.35736 51.1288 13.6939L57.4362 37.3574C58.8586 42.694 55.6887 48.1845 50.3559 49.621L26.9038 55.938C21.571 57.3744 16.0948 54.2128 14.6724 48.8763L8.36497 25.2127C6.94254 19.8762 10.1125 14.3856 15.4453 12.9492L38.8974 6.63214Z" fill="#B7DBD7"/>
<path fill-rule="evenodd" clip-rule="evenodd" d="M25.0569 7.69898C28.9519 3.78351 35.2669 3.7835 39.1619 7.69897L56.3621 24.9898C60.2571 28.9052 60.2571 35.2535 56.3622 39.169L39.1619 56.4598C35.2669 60.3753 28.9519 60.3753 25.0569 56.4598L7.8566 39.169C3.96162 35.2535 3.96161 28.9053 7.85659 24.9898L25.0569 7.69898Z" fill="#3E9F93"/>
<path fill-rule="evenodd" clip-rule="evenodd" d="M24.6649 26.1573V28.1929C24.6649 28.5101 24.8054 28.8027 25.0977 29.0662C25.3797 29.3207 25.8395 29.562 26.4005 29.8219C28.2313 30.6706 31.3301 31.8316 31.3301 35.8263V42.9508C31.3301 43.7818 30.7303 44.4775 29.9628 44.4775H20.3927C19.6252 44.4775 19.0254 43.7818 19.0254 42.9508V35.8263C19.0254 31.808 20.6706 30.5989 21.6621 29.7451C22.2496 29.2391 22.6142 28.788 22.6142 28.1929V26.1573C22.6142 25.8765 22.3844 25.6484 22.1015 25.6484C21.8186 25.6484 21.5888 25.8765 21.5888 26.1573V28.1929C21.5888 28.3685 21.4858 28.4992 21.3535 28.6398C21.1327 28.8745 20.828 29.1076 20.4969 29.4011C19.397 30.3762 18 31.9272 18 35.8266V42.9511C18 44.3674 19.0849 45.4956 20.3927 45.4956H29.9628C31.2706 45.4956 32.3556 44.3674 32.3556 42.9511V35.8266C32.3556 31.8949 29.8058 30.305 27.7459 29.3226C27.1195 29.0234 26.5447 28.7857 26.1272 28.5465C25.9924 28.4693 25.8766 28.3938 25.7873 28.3134C25.7411 28.2716 25.6905 28.2437 25.6905 28.1932V26.1576C25.6905 25.8768 25.4607 25.6488 25.1778 25.6488C24.8949 25.6488 24.6651 25.8768 24.6651 26.1576L24.6649 26.1573Z" fill="white"/>
<path fill-rule="evenodd" clip-rule="evenodd" d="M19.0254 42.4436H31.3301C31.613 42.4436 31.8427 42.2155 31.8427 41.9347C31.8427 41.6539 31.613 41.4258 31.3301 41.4258H19.0254C18.7425 41.4258 18.5127 41.6539 18.5127 41.9347C18.5127 42.2155 18.7425 42.4436 19.0254 42.4436Z" fill="white"/>
<path fill-rule="evenodd" clip-rule="evenodd" d="M41.5835 38.8828C40.7346 38.8828 40.0454 39.5669 40.0454 40.4095C40.0454 41.2521 40.7346 41.9362 41.5835 41.9362C42.4324 41.9362 43.1216 41.2521 43.1216 40.4095C43.1216 39.5669 42.4324 38.8828 41.5835 38.8828ZM41.5835 39.9006C41.8664 39.9006 42.0962 40.1287 42.0962 40.4095C42.0962 40.6903 41.8664 40.9184 41.5835 40.9184C41.3006 40.9184 41.0708 40.6903 41.0708 40.4095C41.0708 40.1287 41.3006 39.9006 41.5835 39.9006Z" fill="white"/>
<path fill-rule="evenodd" clip-rule="evenodd" d="M36.9754 36.3403L37.582 35.5236C37.6783 35.3934 37.8317 35.3164 37.9947 35.3164C38.1576 35.3164 38.311 35.3932 38.4073 35.5236L39.0139 36.3403L39.8367 36.9424C39.9679 37.038 40.0455 37.1903 40.0455 37.352C40.0455 37.5138 39.9681 37.666 39.8367 37.7616L39.0139 38.3637L38.4073 39.1804C38.311 39.3106 38.1576 39.3876 37.9947 39.3876C37.8317 39.3876 37.6783 39.3108 37.582 39.1804L36.9754 38.3637L36.1526 37.7616C36.0214 37.666 35.9438 37.5138 35.9438 37.352C35.9438 37.1903 36.0212 37.0381 36.1526 36.9424L36.9754 36.3403ZM37.9947 36.6834L37.7548 37.006C37.7246 37.0471 37.6877 37.0839 37.6461 37.1139L37.3211 37.352L37.6461 37.5901C37.6875 37.6201 37.7246 37.6567 37.7548 37.698L37.9947 38.0206L38.2345 37.698C38.2647 37.6569 38.3016 37.6201 38.3432 37.5901L38.6683 37.352L38.3432 37.1139C38.3018 37.0839 38.2647 37.0473 38.2345 37.006L37.9947 36.6834Z" fill="white"/>
<path fill-rule="evenodd" clip-rule="evenodd" d="M42.1033 34.3091L42.7099 33.4923C42.8063 33.3622 42.9596 33.2852 43.1226 33.2852C43.2856 33.2852 43.4389 33.3619 43.5353 33.4923L44.1418 34.3091L44.9647 34.9112C45.0958 35.0068 45.1734 35.159 45.1734 35.3208C45.1734 35.4825 45.096 35.6347 44.9647 35.7304L44.1418 36.3325L43.5353 37.1492C43.4389 37.2794 43.2856 37.3564 43.1226 37.3564C42.9596 37.3564 42.8063 37.2796 42.7099 37.1492L42.1033 36.3325L41.2805 35.7304C41.1494 35.6347 41.0718 35.4825 41.0718 35.3208C41.0718 35.159 41.1491 35.0068 41.2805 34.9112L42.1033 34.3091ZM43.1226 34.6521L42.8827 34.9747C42.8525 35.0159 42.8157 35.0527 42.774 35.0827L42.449 35.3207L42.774 35.5588C42.8154 35.5888 42.8525 35.6254 42.8827 35.6668L43.1226 35.9894L43.3625 35.6668C43.3927 35.6256 43.4295 35.5888 43.4712 35.5588L43.7962 35.3207L43.4712 35.0827C43.4297 35.0527 43.3927 35.0161 43.3625 34.9747L43.1226 34.6521Z" fill="white"/>
<path fill-rule="evenodd" clip-rule="evenodd" d="M30.4548 27.7407L28.4132 24.6013C28.2598 24.3657 28.3285 24.0501 28.5661 23.8979C28.8039 23.7452 29.1213 23.8134 29.2752 24.0497L31.326 27.2028C31.3305 27.2098 31.3347 27.2171 31.3392 27.2241C31.7631 27.9539 31.5109 28.8883 30.7762 29.3097C30.0456 29.7279 29.112 29.4842 28.6833 28.7656L26.6371 25.619C26.4837 25.3834 26.5519 25.0679 26.79 24.9156C27.0278 24.763 27.3452 24.8311 27.4991 25.0674L29.5498 28.2205C29.5544 28.2276 29.5585 28.2348 29.5631 28.2419C29.7041 28.4852 30.0184 28.5686 30.2635 28.4282C30.5061 28.2891 30.5905 27.9824 30.4548 27.7407Z" fill="white"/>
<path fill-rule="evenodd" clip-rule="evenodd" d="M28.4653 24.6358L26.5647 26.5224C26.4688 26.618 26.3381 26.6714 26.2021 26.6714H20.5625C19.7136 26.6714 19.0244 25.9874 19.0244 25.1447V22.6003C19.0244 21.8053 19.4098 20.8823 20.0104 20.2721C20.4503 19.8252 21.001 19.5469 21.5879 19.5469H32.8672C33.7161 19.5469 34.4052 20.2309 34.4052 21.0736V23.1092C34.4052 23.9518 33.7161 24.6358 32.8672 24.6358H28.4651L28.4653 24.6358ZM25.99 25.6536L27.8907 23.767C27.9866 23.6714 28.1173 23.618 28.2532 23.618H32.8675C33.1504 23.618 33.3801 23.3899 33.3801 23.1091V21.0735C33.3801 20.7927 33.1504 20.5646 32.8675 20.5646H21.5882C21.2698 20.5646 20.9828 20.7407 20.7438 20.9835C20.3266 21.4079 20.0501 22.0472 20.0501 22.6002V25.1447C20.0501 25.4255 20.2799 25.6536 20.5628 25.6536H25.9903L25.99 25.6536Z" fill="white"/>
<path fill-rule="evenodd" clip-rule="evenodd" d="M35.9438 22.5959H37.9946C38.2775 22.5959 38.5073 22.3678 38.5073 22.087C38.5073 21.8062 38.2775 21.5781 37.9946 21.5781H35.9438C35.661 21.5781 35.4312 21.8062 35.4312 22.087C35.4312 22.3678 35.661 22.5959 35.9438 22.5959Z" fill="white"/>
<path fill-rule="evenodd" clip-rule="evenodd" d="M36.2002 20.4948L37.9761 19.477C38.2213 19.3366 38.3053 19.0251 38.1638 18.7818C38.0224 18.5385 37.7086 18.4551 37.4634 18.5955L35.6875 19.6133C35.4424 19.7537 35.3584 20.0652 35.4998 20.3085C35.6413 20.5518 35.9551 20.6352 36.2002 20.4948Z" fill="white"/>
<path fill-rule="evenodd" clip-rule="evenodd" d="M35.6875 24.5629L37.4634 25.5807C37.7086 25.7211 38.0224 25.6378 38.1638 25.3944C38.3053 25.1511 38.2213 24.8397 37.9761 24.6993L36.2002 23.6815C35.9551 23.5411 35.6413 23.6244 35.4998 23.8678C35.3584 24.1111 35.4424 24.4225 35.6875 24.5629Z" fill="white"/>
<path fill-rule="evenodd" clip-rule="evenodd" d="M29.279 21.5825V20.0558C29.279 19.775 29.5088 19.5469 29.7917 19.5469C30.0746 19.5469 30.3044 19.775 30.3044 20.0558V21.5825C30.3044 22.1443 29.8451 22.6003 29.279 22.6003H25.1775C24.6115 22.6003 24.1521 22.1443 24.1521 21.5825V20.0558C24.1521 19.775 24.3819 19.5469 24.6648 19.5469C24.9477 19.5469 25.1775 19.775 25.1775 20.0558V21.5825H29.279Z" fill="white"/>
<path fill-rule="evenodd" clip-rule="evenodd" d="M37.9946 28.542V32.7756C37.9946 33.6182 37.3054 34.3023 36.4565 34.3023C35.6076 34.3023 34.9185 33.6182 34.9185 32.7756V26.6689C34.9185 26.3881 35.1483 26.16 35.4312 26.16C35.714 26.16 35.9438 26.3881 35.9438 26.6689V32.7756C35.9438 33.0564 36.1736 33.2845 36.4565 33.2845C36.7394 33.2845 36.9692 33.0564 36.9692 32.7756V28.1946C36.9697 27.9926 37.0908 27.8093 37.2773 27.7289C37.5213 27.6235 37.7486 27.5849 37.9685 27.4404C38.1397 27.3284 38.3622 27.3284 38.5334 27.4404C39.0159 27.7568 39.5613 27.9854 40.1475 28.104C40.3864 28.1519 40.5581 28.3605 40.5581 28.6026V30.2311C40.5581 30.5119 40.7879 30.74 41.0708 30.74C41.3537 30.74 41.5835 30.5119 41.5835 30.2311V28.6026C41.5835 28.3605 41.7552 28.1517 41.9941 28.104C42.3212 28.0379 42.6043 27.8566 42.8538 27.6114C43.0113 27.4567 43.2507 27.4201 43.448 27.5203C43.6576 27.6266 43.895 27.6866 44.1468 27.6866C44.9957 27.6866 45.6849 27.0026 45.6849 26.1599C45.6849 25.4586 45.5592 24.9797 45.3747 24.641C45.0937 24.125 44.6888 23.9376 44.4816 23.7586C44.2509 23.558 44.1468 23.3453 44.1468 23.1068C44.1468 22.8498 44.315 22.5531 44.6409 22.2499C45.0172 21.9002 45.6849 21.4509 45.6849 20.5623C45.6849 19.4387 44.7661 18.5267 43.6341 18.5267C43.3546 18.5267 43.088 18.5822 42.8456 18.683C42.6963 18.7446 42.5261 18.7335 42.3867 18.6514C41.7003 18.2489 40.8999 18.0178 40.0452 18.0178C39.7623 18.0178 39.5325 17.7897 39.5325 17.5089C39.5325 17.2281 39.7623 17 40.0452 17C41.0019 17 41.9033 17.2372 42.6927 17.655C42.9896 17.5603 43.3059 17.5089 43.6341 17.5089C45.3317 17.5089 46.7102 18.8772 46.7102 20.5623C46.7102 21.6555 46.076 22.3251 45.5475 22.806C45.4573 22.888 45.3491 22.9943 45.2696 23.0747C45.3465 23.1338 45.442 23.2076 45.5223 23.2722C46.038 23.6843 46.7102 24.3835 46.7102 26.1601C46.7102 27.5646 45.5616 28.7046 44.1467 28.7046C43.8549 28.7046 43.5745 28.6562 43.3136 28.5667C43.0952 28.7407 42.8599 28.8807 42.6086 28.98V30.2313C42.6086 31.0739 41.9195 31.758 41.0706 31.758C40.2217 31.758 39.5325 31.0739 39.5325 30.2313V29.0022C39.0711 28.8725 38.6337 28.6858 38.2281 28.4506C38.1512 28.4831 38.0738 28.5127 37.9944 28.5422L37.9946 28.542Z" fill="white"/>
<path fill-rule="evenodd" clip-rule="evenodd" d="M30.3047 34.8118C30.3047 33.9692 29.6155 33.2852 28.7666 33.2852H21.5889C20.74 33.2852 20.0508 33.9692 20.0508 34.8118V37.8652C20.0508 38.7078 20.74 39.3919 21.5889 39.3919H28.7666C29.6155 39.3919 30.3047 38.7078 30.3047 37.8652V34.8118ZM29.2793 34.8118V37.8652C29.2793 38.146 29.0495 38.3741 28.7666 38.3741H21.5889C21.306 38.3741 21.0762 38.146 21.0762 37.8652V34.8118C21.0762 34.531 21.306 34.3029 21.5889 34.3029H28.7666C29.0495 34.3029 29.2793 34.531 29.2793 34.8118Z" fill="white"/>
</svg>
