<svg width="136" height="136" viewBox="0 0 136 136" fill="none" xmlns="http://www.w3.org/2000/svg">
<path fill-rule="evenodd" clip-rule="evenodd" d="M93.7001 10.596C99.0348 9.16659 104.518 12.3324 105.948 17.6671L125.411 90.3047C126.84 95.6393 123.674 101.123 118.34 102.552L45.7021 122.015C40.3674 123.445 34.884 120.279 33.4546 114.944L13.9914 42.3067C12.562 36.972 15.7278 31.4886 21.0625 30.0592L93.7001 10.596Z" fill="#C5ECDC"/>
<path fill-rule="evenodd" clip-rule="evenodd" d="M60.9289 7.75857C64.8342 3.85333 71.1658 3.85333 75.0711 7.75857L128.245 60.933C132.151 64.8382 132.151 71.1699 128.245 75.0751L75.0711 128.25C71.1658 132.155 64.8342 132.155 60.9289 128.25L7.75451 75.0751C3.84927 71.1699 3.84926 64.8382 7.75451 60.933L60.9289 7.75857Z" fill="white"/>
<path fill-rule="evenodd" clip-rule="evenodd" d="M53.7462 58.5123V62.4052C53.7462 63.0117 54.0149 63.5713 54.5739 64.0754C55.1131 64.562 55.9925 65.0234 57.0653 65.5204C60.5666 67.1437 66.493 69.3638 66.493 77.0034V90.6286C66.493 92.2179 65.3457 93.5483 63.878 93.5483H45.5759C44.1082 93.5483 42.9609 92.2179 42.9609 90.6286V77.0034C42.9609 69.3188 46.1073 67.0065 48.0035 65.3736C49.1271 64.406 49.8244 63.5432 49.8244 62.4052V58.5123C49.8244 57.9753 49.3849 57.5391 48.8439 57.5391C48.3029 57.5391 47.8634 57.9753 47.8634 58.5123V62.4052C47.8634 62.7411 47.6664 62.9909 47.4134 63.2598C46.991 63.7086 46.4084 64.1544 45.775 64.7158C43.6718 66.5806 41 69.5468 41 77.004V90.6292C41 93.3378 43.0748 95.4954 45.5759 95.4954H63.8781C66.3792 95.4954 68.454 93.3378 68.454 90.6292V77.004C68.454 69.4849 63.5777 66.4444 59.6383 64.5656C58.4403 63.9934 57.3412 63.5389 56.5428 63.0814C56.2849 62.9337 56.0635 62.7894 55.8927 62.6356C55.8043 62.5557 55.7076 62.5023 55.7076 62.4058V58.5129C55.7076 57.9759 55.2681 57.5397 54.7271 57.5397C54.1861 57.5397 53.7466 57.9759 53.7466 58.5129L53.7462 58.5123Z" fill="#0E8778"/>
<path fill-rule="evenodd" clip-rule="evenodd" d="M42.961 89.6574H66.4928C67.0338 89.6574 67.4732 89.2212 67.4732 88.6842C67.4732 88.1472 67.0338 87.7109 66.4928 87.7109H42.961C42.4199 87.7109 41.9805 88.1472 41.9805 88.6842C41.9805 89.2212 42.4199 89.6574 42.961 89.6574Z" fill="#0E8778"/>
<path fill-rule="evenodd" clip-rule="evenodd" d="M86.1016 82.8516C84.4782 82.8516 83.1602 84.1598 83.1602 85.7712C83.1602 87.3827 84.4782 88.6909 86.1016 88.6909C87.7251 88.6909 89.0431 87.3827 89.0431 85.7712C89.0431 84.1598 87.7251 82.8516 86.1016 82.8516ZM86.1016 84.798C86.6426 84.798 87.0821 85.2342 87.0821 85.7712C87.0821 86.3083 86.6426 86.7445 86.1016 86.7445C85.5606 86.7445 85.1211 86.3083 85.1211 85.7712C85.1211 85.2342 85.5606 84.798 86.1016 84.798Z" fill="#0E8778"/>
<path fill-rule="evenodd" clip-rule="evenodd" d="M77.2892 77.9894L78.4492 76.4275C78.6335 76.1785 78.9268 76.0312 79.2384 76.0312C79.5501 76.0312 79.8434 76.1781 80.0276 76.4275L81.1876 77.9894L82.7613 79.1409C83.0121 79.3238 83.1605 79.6149 83.1605 79.9242C83.1605 80.2336 83.0125 80.5247 82.7613 80.7076L81.1876 81.859L80.0276 83.4209C79.8434 83.6699 79.5501 83.8172 79.2384 83.8172C78.9268 83.8172 78.6335 83.6703 78.4492 83.4209L77.2892 81.859L75.7156 80.7076C75.4648 80.5247 75.3164 80.2336 75.3164 79.9242C75.3164 79.6149 75.4644 79.3238 75.7156 79.1409L77.2892 77.9894ZM79.2384 78.6455L78.7797 79.2625C78.7219 79.3411 78.6514 79.4115 78.5718 79.4688L77.9502 79.9242L78.5718 80.3795C78.651 80.4369 78.7219 80.5068 78.7797 80.5859L79.2384 81.2029L79.6972 80.5859C79.7549 80.5073 79.8254 80.4369 79.9051 80.3795L80.5266 79.9242L79.9051 79.4688C79.8259 79.4115 79.755 79.3415 79.6972 79.2625L79.2384 78.6455Z" fill="#0E8778"/>
<path fill-rule="evenodd" clip-rule="evenodd" d="M87.0959 74.0988L88.2559 72.5369C88.4401 72.2879 88.7334 72.1406 89.0451 72.1406C89.3567 72.1406 89.65 72.2875 89.8343 72.5369L90.9943 74.0988L92.5679 75.2502C92.8187 75.4331 92.9671 75.7242 92.9671 76.0336C92.9671 76.3429 92.8191 76.634 92.5679 76.817L90.9943 77.9684L89.8343 79.5303C89.65 79.7793 89.3567 79.9266 89.0451 79.9266C88.7334 79.9266 88.4401 79.7797 88.2559 79.5303L87.0959 77.9684L85.5222 76.817C85.2714 76.6341 85.123 76.3429 85.123 76.0336C85.123 75.7242 85.271 75.4332 85.5222 75.2502L87.0959 74.0988ZM89.0451 74.7549L88.5863 75.3718C88.5286 75.4505 88.4581 75.5209 88.3784 75.5782L87.7568 76.0336L88.3784 76.4889C88.4576 76.5462 88.5285 76.6162 88.5863 76.6953L89.0451 77.3122L89.5038 76.6953C89.5616 76.6166 89.6321 76.5462 89.7117 76.4889L90.3333 76.0336L89.7117 75.5782C89.6325 75.5209 89.5616 75.4509 89.5038 75.3718L89.0451 74.7549Z" fill="#0E8778"/>
<path fill-rule="evenodd" clip-rule="evenodd" d="M64.8191 61.5441L60.9146 55.5401C60.6214 55.0895 60.7527 54.486 61.207 54.1949C61.6618 53.9029 62.2689 54.0333 62.5631 54.4851L66.4851 60.5153C66.4939 60.5287 66.5017 60.5426 66.5105 60.5561C67.3212 61.9516 66.8388 63.7386 65.4337 64.5446C64.0365 65.3444 62.2511 64.8782 61.4312 63.504L57.5179 57.4864C57.2247 57.0359 57.3551 56.4324 57.8103 56.1413C58.2651 55.8493 58.8723 55.9796 59.1664 56.4315L63.0884 62.4616C63.0972 62.4751 63.105 62.489 63.1138 62.5024C63.3834 62.9678 63.9844 63.1272 64.4532 62.8587C64.9172 62.5928 65.0787 62.0063 64.8191 61.5441Z" fill="#0E8778"/>
<path fill-rule="evenodd" clip-rule="evenodd" d="M61.0141 55.5994L57.3792 59.2074C57.1958 59.3903 56.9459 59.4924 56.6859 59.4924H45.9005C44.277 59.4924 42.959 58.1841 42.959 56.5727V51.7066C42.959 50.1863 43.6961 48.421 44.8447 47.2541C45.686 46.3994 46.7391 45.8672 47.8614 45.8672H69.4323C71.0557 45.8672 72.3737 47.1754 72.3737 48.7869V52.6798C72.3737 54.2912 71.0557 55.5995 69.4323 55.5995H61.0136L61.0141 55.5994ZM56.2802 57.5459L59.915 53.9379C60.0984 53.755 60.3484 53.6529 60.6084 53.6529H69.4328C69.9738 53.6529 70.4133 53.2167 70.4133 52.6797V48.7868C70.4133 48.2498 69.9738 47.8135 69.4328 47.8135H47.862C47.2531 47.8135 46.7042 48.1502 46.2473 48.6147C45.4493 49.4263 44.9205 50.6489 44.9205 51.7065V56.5726C44.9205 57.1096 45.36 57.5458 45.901 57.5458H56.2807L56.2802 57.5459Z" fill="#0E8778"/>
<path fill-rule="evenodd" clip-rule="evenodd" d="M75.3164 51.7043H79.2384C79.7794 51.7043 80.2189 51.2681 80.2189 50.731C80.2189 50.194 79.7794 49.7578 79.2384 49.7578H75.3164C74.7754 49.7578 74.3359 50.194 74.3359 50.731C74.3359 51.2681 74.7754 51.7043 75.3164 51.7043Z" fill="#0E8778"/>
<path fill-rule="evenodd" clip-rule="evenodd" d="M75.8067 47.6845L79.203 45.738C79.6718 45.4695 79.8325 44.8739 79.562 44.4085C79.2914 43.9432 78.6913 43.7838 78.2225 44.0523L74.8262 45.9987C74.3574 46.2672 74.1968 46.8629 74.4673 47.3282C74.7378 47.7935 75.3379 47.953 75.8067 47.6845Z" fill="#0E8778"/>
<path fill-rule="evenodd" clip-rule="evenodd" d="M74.8262 55.4646L78.2225 57.411C78.6913 57.6796 79.2914 57.5201 79.5619 57.0548C79.8325 56.5895 79.6718 55.9938 79.203 55.7253L75.8067 53.7788C75.3379 53.5103 74.7378 53.6698 74.4673 54.1351C74.1968 54.6004 74.3574 55.1961 74.8262 55.4646Z" fill="#0E8778"/>
<path fill-rule="evenodd" clip-rule="evenodd" d="M62.5705 49.7601V46.8404C62.5705 46.3034 63.01 45.8672 63.551 45.8672C64.092 45.8672 64.5315 46.3034 64.5315 46.8404V49.7601C64.5315 50.8346 63.653 51.7066 62.5705 51.7066H54.7266C53.6441 51.7066 52.7656 50.8346 52.7656 49.7601V46.8404C52.7656 46.3034 53.2051 45.8672 53.7461 45.8672C54.2871 45.8672 54.7266 46.3034 54.7266 46.8404V49.7601H62.5705Z" fill="#0E8778"/>
<path fill-rule="evenodd" clip-rule="evenodd" d="M79.2384 63.0733V71.1697C79.2384 72.7812 77.9204 74.0894 76.2969 74.0894C74.6735 74.0894 73.3555 72.7812 73.3555 71.1697V59.491C73.3555 58.954 73.7949 58.5178 74.336 58.5178C74.877 58.5178 75.3165 58.954 75.3165 59.491V71.1697C75.3165 71.7068 75.7559 72.143 76.2969 72.143C76.838 72.143 77.2774 71.7068 77.2774 71.1697V62.4089C77.2783 62.0227 77.5099 61.672 77.8666 61.5182C78.3332 61.3166 78.7679 61.2428 79.1885 60.9665C79.5159 60.7523 79.9414 60.7523 80.2688 60.9665C81.1915 61.5717 82.2346 62.0088 83.3556 62.2355C83.8126 62.3272 84.1409 62.7261 84.1409 63.1892V66.3036C84.1409 66.8406 84.5804 67.2768 85.1214 67.2768C85.6624 67.2768 86.1019 66.8406 86.1019 66.3036V63.1892C86.1019 62.7261 86.4302 62.3268 86.8871 62.2355C87.5126 62.1091 88.0541 61.7624 88.5312 61.2936C88.8324 60.9977 89.2902 60.9278 89.6676 61.1194C90.0685 61.3227 90.5225 61.4374 91.004 61.4374C92.6274 61.4374 93.9455 60.1292 93.9455 58.5177C93.9455 57.1764 93.7051 56.2606 93.3523 55.6128C92.8148 54.6261 92.0405 54.2677 91.6444 53.9253C91.2032 53.5417 91.004 53.135 91.004 52.6788C91.004 52.1874 91.3257 51.62 91.949 51.04C92.6686 50.3713 93.9454 49.512 93.9454 47.8127C93.9454 45.6638 92.1884 43.9197 90.0235 43.9197C89.489 43.9197 88.9791 44.0257 88.5155 44.2187C88.2301 44.3364 87.9045 44.3151 87.6379 44.1583C86.3252 43.3884 84.7945 42.9465 83.16 42.9465C82.619 42.9465 82.1795 42.5102 82.1795 41.9732C82.1795 41.4362 82.619 41 83.16 41C84.9897 41 86.7134 41.4536 88.2232 42.2526C88.7909 42.0715 89.3958 41.9733 90.0235 41.9733C93.2701 41.9733 95.9064 44.5901 95.9064 47.8126C95.9064 49.9034 94.6935 51.1838 93.6828 52.1035C93.5103 52.2604 93.3033 52.4637 93.1514 52.6175C93.2985 52.7305 93.481 52.8717 93.6346 52.9951C94.6208 53.7832 95.9063 55.1205 95.9063 58.5181C95.9063 61.204 93.7098 63.3842 91.0039 63.3842C90.4458 63.3842 89.9096 63.2917 89.4106 63.1205C88.993 63.4533 88.543 63.721 88.0624 63.9108V66.304C88.0624 67.9154 86.7444 69.2237 85.1209 69.2237C83.4975 69.2237 82.1795 67.9154 82.1795 66.304V63.9534C81.297 63.7053 80.4605 63.3482 79.6849 62.8985C79.5378 62.9607 79.3898 63.0171 79.2379 63.0736L79.2384 63.0733Z" fill="#0E8778"/>
<path fill-rule="evenodd" clip-rule="evenodd" d="M64.5317 75.0603C64.5317 73.4489 63.2137 72.1406 61.5902 72.1406H47.8633C46.2399 72.1406 44.9219 73.4489 44.9219 75.0603V80.8997C44.9219 82.5111 46.2399 83.8194 47.8633 83.8194H61.5902C63.2137 83.8194 64.5317 82.5111 64.5317 80.8997V75.0603ZM62.5707 75.0603V80.8997C62.5707 81.4367 62.1312 81.8729 61.5902 81.8729H47.8633C47.3223 81.8729 46.8829 81.4367 46.8829 80.8997V75.0603C46.8829 74.5233 47.3223 74.0871 47.8633 74.0871H61.5902C62.1312 74.0871 62.5707 74.5233 62.5707 75.0603Z" fill="#0E8778"/>
</svg>
