<svg width="136" height="136" viewBox="0 0 136 136" fill="none" xmlns="http://www.w3.org/2000/svg">
<path fill-rule="evenodd" clip-rule="evenodd" d="M93.7001 10.5921C99.0348 9.16268 104.518 12.3285 105.948 17.6632L125.411 90.3008C126.84 95.6354 123.674 101.119 118.34 102.548L45.7021 122.011C40.3674 123.441 34.884 120.275 33.4546 114.94L13.9914 42.3027C12.562 36.9681 15.7278 31.4847 21.0625 30.0553L93.7001 10.5921Z" fill="#C5ECDC"/>
<path fill-rule="evenodd" clip-rule="evenodd" d="M60.9289 7.75467C64.8342 3.84942 71.1658 3.84942 75.0711 7.75466L128.245 60.9291C132.151 64.8343 132.151 71.166 128.245 75.0712L75.0711 128.246C71.1658 132.151 64.8342 132.151 60.9289 128.246L7.75451 75.0712C3.84927 71.166 3.84926 64.8343 7.75451 60.9291L60.9289 7.75467Z" fill="#3E9F93"/>
<path d="M94.7899 71.161H87.5101V69.5435C87.5101 68.9003 87.2545 68.283 86.7998 67.8277C86.3445 67.373 85.7272 67.1168 85.084 67.1168H80.2308C79.587 67.1168 78.9698 67.373 78.515 67.8277C78.0597 68.283 77.8042 68.9003 77.8042 69.5435V71.161H67.2892C66.8429 71.161 66.4807 71.5232 66.4807 71.97C66.4807 72.4169 66.8429 72.7791 67.2892 72.7791H77.8042V80.0583H75.3775C74.9312 80.0583 74.569 80.4205 74.569 80.8673V83.294V83.2934C74.569 83.5084 74.6542 83.7137 74.806 83.8655C74.9578 84.0173 75.1631 84.1024 75.3775 84.1024H81.8483V88.2413L76.0861 88.9618C75.663 89.0154 75.3543 89.3889 75.3809 89.8143C75.4074 90.2403 75.76 90.572 76.1865 90.5732C76.2204 90.5732 76.2542 90.5709 76.2875 90.5664L81.8482 89.8719V91.3816C81.8482 91.8285 82.2104 92.1907 82.6573 92.1907C83.1041 92.1907 83.4658 91.8285 83.4658 91.3816V89.9424L86.5395 90.5574V90.5568C86.7527 90.607 86.9779 90.5686 87.1623 90.4502C87.3468 90.3317 87.4755 90.1432 87.5183 89.9283C87.5612 89.7133 87.5155 89.4899 87.3903 89.3093C87.2656 89.1294 87.0732 89.0069 86.8565 88.9714L83.4657 88.2921V84.1024H86.7013C86.9157 84.1024 87.1216 84.0172 87.2734 83.8654C87.4246 83.7136 87.5098 83.5083 87.5098 83.2933V72.779H94.7895C95.2364 72.779 95.598 72.4168 95.598 71.9699C95.598 71.5231 95.2364 71.1608 94.7895 71.1608L94.7899 71.161ZM79.4221 69.5435C79.4221 69.0966 79.7843 68.735 80.2311 68.735H85.0844C85.2988 68.735 85.5042 68.8201 85.6559 68.9713C85.8077 69.1231 85.8929 69.3291 85.8929 69.5434V80.0584H79.4221L79.4221 69.5435ZM85.8929 82.485H76.1871V81.676H85.8929V82.485ZM50.7088 80.8675H41.8114C41.5857 80.8664 41.3696 80.9606 41.2161 81.1259C41.0627 81.2912 40.9854 81.5135 41.0023 81.7386L41.8114 92.2536V92.253C41.8441 92.6756 42.1967 93.0011 42.6204 93H49.8996C50.3233 93.0011 50.6759 92.6756 50.7087 92.253L51.5177 81.7381L51.5172 81.7386C51.5346 81.5135 51.4573 81.2912 51.3033 81.1259C51.1499 80.9606 50.9343 80.8664 50.7087 80.8675H50.7088ZM43.3692 91.3819L42.6848 82.485H49.8349L49.5714 85.9097C49.2312 86.2776 48.7612 86.4993 48.2614 86.5292C47.3677 86.5292 46.4645 85.6773 45.7823 84.1934C45.5956 83.7872 45.1154 83.6089 44.7098 83.7951C44.3035 83.9813 44.1253 84.4614 44.3114 84.8676C45.2683 86.9512 46.7082 88.1467 48.2614 88.1467C48.6586 88.1399 49.0519 88.0576 49.4186 87.9041L49.1506 91.3818L43.3692 91.3819ZM67.013 81.4441C66.9104 81.1016 66.5955 80.8675 66.2384 80.8675H62.8329L59.1934 59.0146V59.0141C59.1635 58.798 59.0472 58.6028 58.8712 58.4736C58.6952 58.3444 58.4746 58.2919 58.259 58.3274C58.0435 58.3635 57.8523 58.4848 57.7276 58.6643C57.6034 58.8437 57.5566 59.066 57.5984 59.2804L61.1929 80.8675H57.8263C57.4691 80.8675 57.1543 81.1016 57.0516 81.4441L53.8972 91.959C53.8239 92.2038 53.8707 92.469 54.023 92.6738C54.1759 92.8786 54.4163 92.9999 54.6718 92.9999H69.3925C69.6481 92.9999 69.8885 92.8786 70.0414 92.6738C70.1937 92.469 70.2405 92.2038 70.1672 91.959L67.013 81.4441ZM58.4282 82.485H65.6363L66.3641 84.9117H57.7004L58.4282 82.485ZM65.5975 91.3824L64.9153 88.8283L64.9159 88.8277C64.8674 88.6133 64.7337 88.4277 64.5452 88.3137C64.3573 88.1998 64.1311 88.1676 63.9184 88.224C63.7057 88.281 63.5257 88.4215 63.4191 88.6139C63.3125 88.8068 63.2893 89.0342 63.3542 89.2441L63.9207 91.3819H61.6278V89.7643C61.6278 89.3175 61.2656 88.9558 60.8193 88.9558C60.3724 88.9558 60.0102 89.3175 60.0102 89.7643V91.3819H55.759L57.2146 86.5286L66.8499 86.5291L68.3055 91.3824L65.5975 91.3824ZM95.5978 42.8526V61.4557C95.5978 61.6701 95.5126 61.8761 95.3614 62.0278C95.2097 62.1796 95.0037 62.2648 94.7893 62.2648H67.2891C66.8428 62.2648 66.4806 61.9026 66.4806 61.4557V50.1324C66.4806 49.6855 66.8428 49.3233 67.2891 49.3233C67.736 49.3233 68.0982 49.6855 68.0982 50.1324V60.6473H93.9807V43.6619H73.76C73.3131 43.6619 72.9515 43.2997 72.9515 42.8528C72.9515 42.4066 73.3131 42.0443 73.76 42.0443H94.7896C95.004 42.0443 95.2099 42.1295 95.3617 42.2813C95.5129 42.4331 95.598 42.6384 95.598 42.8528L95.5978 42.8526ZM66.4799 40.4266V38.8085C66.4799 38.3622 66.8422 38 67.2884 38C67.7353 38 68.0975 38.3622 68.0975 38.8085V40.4266C68.0975 40.8729 67.7353 41.2351 67.2884 41.2351C66.8422 41.2351 66.4799 40.8729 66.4799 40.4266ZM68.0975 45.2799V46.8974V46.8968C68.0975 47.3437 67.7352 47.7059 67.2884 47.7059C66.8421 47.7059 66.4799 47.3437 66.4799 46.8968V45.2793C66.4799 44.8324 66.8421 44.4708 67.2884 44.4708C67.7352 44.4708 68.0975 44.8324 68.0975 45.2793V45.2799ZM63.2442 42.8532V42.8527C63.2442 42.4064 63.6064 42.0442 64.0533 42.0442H65.6708C66.1176 42.0442 66.4798 42.4064 66.4798 42.8527C66.4798 43.2995 66.1176 43.6617 65.6708 43.6617H64.0533C63.6064 43.6617 63.2442 43.2995 63.2442 42.8527V42.8532ZM68.0975 42.8532V42.8527C68.0975 42.4064 68.4597 42.0442 68.9065 42.0442H70.524C70.9709 42.0442 71.3325 42.4064 71.3325 42.8527C71.3325 43.2995 70.9709 43.6617 70.524 43.6617H68.9065C68.4597 43.6617 68.0975 43.2995 68.0975 42.8527V42.8532ZM47.0679 70.3534V68.7359C47.0679 68.2891 47.4301 67.9269 47.8769 67.9269C48.3238 67.9269 48.686 68.2891 48.686 68.7359V70.3534C48.686 70.8003 48.3238 71.1619 47.8769 71.1619C47.4301 71.1619 47.0679 70.8003 47.0679 70.3534ZM48.6854 75.2067V76.8242H48.686C48.686 77.2705 48.3238 77.6327 47.8769 77.6327C47.4301 77.6327 47.0678 77.2705 47.0678 76.8242V75.2061C47.0678 74.7599 47.4301 74.3976 47.8769 74.3976C48.3238 74.3976 48.686 74.7598 48.686 75.2061L48.6854 75.2067ZM43.8321 72.7801H43.8327C43.8327 72.3332 44.1949 71.971 44.6418 71.971H46.2593C46.7061 71.971 47.0678 72.3332 47.0678 72.7801C47.0678 73.2263 46.7061 73.5886 46.2593 73.5886H44.6418C44.1949 73.5886 43.8327 73.2264 43.8327 72.7801H43.8321ZM51.9204 72.7801H51.921C51.921 72.9945 51.8358 73.1998 51.684 73.3516C51.5323 73.5034 51.3269 73.5886 51.1119 73.5886H49.4944C49.0476 73.5886 48.6859 73.2263 48.6859 72.7801C48.6859 72.3332 49.0476 71.971 49.4944 71.971H51.1119C51.3269 71.971 51.5323 72.0562 51.684 72.208C51.8358 72.3597 51.921 72.5651 51.921 72.78L51.9204 72.7801Z" fill="white"/>
</svg>
