<svg width="64" height="64" viewBox="0 0 64 64" fill="none" xmlns="http://www.w3.org/2000/svg">
<path fill-rule="evenodd" clip-rule="evenodd" d="M38.8974 6.63214C44.2301 5.19571 49.7063 8.35736 51.1288 13.6939L57.4362 37.3574C58.8586 42.694 55.6887 48.1845 50.3559 49.621L26.9038 55.938C21.571 57.3744 16.0948 54.2128 14.6724 48.8763L8.36497 25.2127C6.94254 19.8762 10.1125 14.3856 15.4453 12.9492L38.8974 6.63214Z" fill="#B7DBD7"/>
<path fill-rule="evenodd" clip-rule="evenodd" d="M25.0569 7.69898C28.9519 3.78351 35.2669 3.7835 39.1619 7.69897L56.3621 24.9898C60.2571 28.9052 60.2571 35.2535 56.3622 39.169L39.1619 56.4598C35.2669 60.3753 28.9519 60.3753 25.0569 56.4598L7.8566 39.169C3.96162 35.2535 3.96161 28.9053 7.85659 24.9898L25.0569 7.69898Z" fill="#3E9F93"/>
<path d="M43.4791 33.9708H40.3015V33.2647C40.3015 32.984 40.19 32.7146 39.9915 32.5158C39.7927 32.3173 39.5233 32.2055 39.2426 32.2055H37.1241C36.8431 32.2055 36.5737 32.3173 36.3752 32.5158C36.1765 32.7146 36.0649 32.984 36.0649 33.2647V33.9708H31.4752C31.2804 33.9708 31.1223 34.1289 31.1223 34.3239C31.1223 34.519 31.2804 34.6771 31.4752 34.6771H36.0649V37.8544H35.0057C34.8109 37.8544 34.6528 38.0125 34.6528 38.2076V39.2668V39.2666C34.6528 39.3604 34.69 39.45 34.7562 39.5163C34.8225 39.5825 34.9121 39.6197 35.0057 39.6197H37.8302V41.4263L35.315 41.7408C35.1303 41.7642 34.9956 41.9272 35.0072 42.1129C35.0187 42.2988 35.1726 42.4437 35.3588 42.4441C35.3736 42.4441 35.3884 42.4432 35.4029 42.4412L37.8301 42.138V42.797C37.8301 42.9921 37.9882 43.1502 38.1833 43.1502C38.3783 43.1502 38.5362 42.9921 38.5362 42.797V42.1688L39.8779 42.4372V42.437C39.971 42.4589 40.0692 42.4422 40.1497 42.3905C40.2303 42.3387 40.2864 42.2565 40.3051 42.1627C40.3239 42.0688 40.3039 41.9713 40.2492 41.8925C40.1948 41.8139 40.1108 41.7605 40.0163 41.745L38.5362 41.4485V39.6197H39.9485C40.0421 39.6197 40.132 39.5825 40.1982 39.5162C40.2642 39.45 40.3014 39.3603 40.3014 39.2665V34.677H43.479C43.674 34.677 43.8319 34.5189 43.8319 34.3239C43.8319 34.1288 43.674 33.9707 43.479 33.9707L43.4791 33.9708ZM36.7711 33.2647C36.7711 33.0697 36.9292 32.9118 37.1243 32.9118H39.2427C39.3363 32.9118 39.426 32.949 39.4922 33.015C39.5585 33.0813 39.5956 33.1711 39.5956 33.2647V37.8545H36.7712L36.7711 33.2647ZM39.5956 38.9137H35.3591V38.5605H39.5956V38.9137ZM24.2379 38.2077H20.3542C20.2556 38.2072 20.1613 38.2483 20.0943 38.3204C20.0274 38.3926 19.9936 38.4896 20.001 38.5879L20.3542 43.1776V43.1774C20.3684 43.3619 20.5224 43.5039 20.7073 43.5035H23.8847C24.0696 43.5039 24.2235 43.3619 24.2378 43.1774L24.591 38.5877L24.5907 38.5879C24.5983 38.4896 24.5646 38.3926 24.4974 38.3204C24.4304 38.2483 24.3363 38.2072 24.2378 38.2077H24.2379ZM21.0342 42.7971L20.7354 38.9137H23.8564L23.7414 40.4086C23.5929 40.5691 23.3878 40.6659 23.1696 40.679C22.7795 40.679 22.3852 40.3071 22.0875 39.6594C22.0059 39.4821 21.7964 39.4043 21.6193 39.4855C21.442 39.5668 21.3642 39.7764 21.4454 39.9537C21.8631 40.8632 22.4916 41.385 23.1696 41.385C23.343 41.382 23.5146 41.3461 23.6747 41.2791L23.5577 42.7971L21.0342 42.7971ZM31.3546 38.4593C31.3098 38.3098 31.1724 38.2076 31.0165 38.2076H29.53L27.9414 28.6689V28.6687C27.9283 28.5744 27.8776 28.4891 27.8007 28.4328C27.7239 28.3764 27.6276 28.3535 27.5335 28.369C27.4395 28.3847 27.356 28.4377 27.3015 28.516C27.2474 28.5943 27.2269 28.6913 27.2451 28.7849L28.8141 38.2076H27.3446C27.1887 38.2076 27.0513 38.3098 27.0065 38.4593L25.6296 43.0491C25.5976 43.1559 25.618 43.2717 25.6845 43.3611C25.7513 43.4505 25.8562 43.5034 25.9677 43.5034H32.3933C32.5048 43.5034 32.6097 43.4505 32.6765 43.3611C32.743 43.2717 32.7634 43.1559 32.7314 43.0491L31.3546 38.4593ZM27.6074 38.9137H30.7537L31.0714 39.9729H27.2897L27.6074 38.9137ZM30.7367 42.7974L30.439 41.6825L30.4392 41.6823C30.418 41.5887 30.3597 41.5077 30.2774 41.4579C30.1954 41.4082 30.0967 41.3941 30.0038 41.4188C29.911 41.4436 29.8324 41.5049 29.7859 41.5889C29.7393 41.6731 29.7292 41.7724 29.7576 41.864L30.0048 42.7971H29.004V42.0911C29.004 41.896 28.8459 41.7382 28.6511 41.7382C28.456 41.7382 28.2979 41.896 28.2979 42.0911V42.7971H26.4422L27.0776 40.6787L31.2834 40.6789L31.9188 42.7974L30.7367 42.7974ZM43.8318 21.6143V29.7345C43.8318 29.828 43.7946 29.9179 43.7286 29.9842C43.6624 30.0504 43.5725 30.0876 43.4789 30.0876H31.4751C31.2803 30.0876 31.1222 29.9295 31.1222 29.7345V24.7919C31.1222 24.5968 31.2803 24.4387 31.4751 24.4387C31.6702 24.4387 31.8283 24.5968 31.8283 24.7919V29.3816H43.126V21.9675H34.2997C34.1046 21.9675 33.9467 21.8094 33.9467 21.6143C33.9467 21.4195 34.1046 21.2614 34.2997 21.2614H43.479C43.5726 21.2614 43.6625 21.2986 43.7287 21.3649C43.7947 21.4311 43.8319 21.5208 43.8319 21.6143L43.8318 21.6143ZM31.1219 20.5553V19.849C31.1219 19.6542 31.28 19.4961 31.4748 19.4961C31.6699 19.4961 31.828 19.6542 31.828 19.849V20.5553C31.828 20.7501 31.6699 20.9082 31.4748 20.9082C31.28 20.9082 31.1219 20.7501 31.1219 20.5553ZM31.828 22.6737V23.3798V23.3795C31.828 23.5746 31.6699 23.7327 31.4748 23.7327C31.28 23.7327 31.1219 23.5746 31.1219 23.3795V22.6735C31.1219 22.4784 31.28 22.3206 31.4748 22.3206C31.6699 22.3206 31.828 22.4784 31.828 22.6735V22.6737ZM29.7095 21.6145V21.6143C29.7095 21.4195 29.8676 21.2614 30.0627 21.2614H30.7687C30.9638 21.2614 31.1219 21.4195 31.1219 21.6143C31.1219 21.8093 30.9638 21.9674 30.7687 21.9674H30.0627C29.8676 21.9674 29.7095 21.8093 29.7095 21.6143V21.6145ZM31.828 21.6145V21.6143C31.828 21.4195 31.9861 21.2614 32.1811 21.2614H32.8872C33.0822 21.2614 33.2401 21.4195 33.2401 21.6143C33.2401 21.8093 33.0822 21.9674 32.8872 21.9674H32.1811C31.9861 21.9674 31.828 21.8093 31.828 21.6143V21.6145ZM22.6486 33.6183V32.9122C22.6486 32.7172 22.8067 32.5591 23.0018 32.5591C23.1968 32.5591 23.3549 32.7172 23.3549 32.9122V33.6183C23.3549 33.8133 23.1968 33.9712 23.0018 33.9712C22.8067 33.9712 22.6486 33.8133 22.6486 33.6183ZM23.3547 35.7367V36.4428H23.3549C23.3549 36.6376 23.1968 36.7957 23.0017 36.7957C22.8067 36.7957 22.6486 36.6376 22.6486 36.4428V35.7365C22.6486 35.5417 22.8067 35.3836 23.0017 35.3836C23.1968 35.3836 23.3549 35.5417 23.3549 35.7365L23.3547 35.7367ZM21.2362 34.6775H21.2365C21.2365 34.4825 21.3946 34.3244 21.5896 34.3244H22.2957C22.4907 34.3244 22.6486 34.4825 22.6486 34.6775C22.6486 34.8723 22.4907 35.0304 22.2957 35.0304H21.5896C21.3946 35.0304 21.2365 34.8723 21.2365 34.6775H21.2362ZM24.7667 34.6775H24.767C24.767 34.7711 24.7298 34.8607 24.6636 34.927C24.5973 34.9932 24.5077 35.0304 24.4138 35.0304H23.7078C23.5127 35.0304 23.3549 34.8723 23.3549 34.6775C23.3549 34.4825 23.5127 34.3244 23.7078 34.3244H24.4138C24.5077 34.3244 24.5973 34.3615 24.6636 34.4278C24.7298 34.494 24.767 34.5837 24.767 34.6775L24.7667 34.6775Z" fill="white"/>
</svg>
