<svg width="64" height="64" viewBox="0 0 64 64" fill="none" xmlns="http://www.w3.org/2000/svg">
<path fill-rule="evenodd" clip-rule="evenodd" d="M38.8974 6.63214C44.2301 5.19571 49.7063 8.35736 51.1288 13.6939L57.4362 37.3574C58.8586 42.694 55.6887 48.1845 50.3559 49.621L26.9038 55.938C21.571 57.3744 16.0948 54.2128 14.6724 48.8763L8.36497 25.2127C6.94254 19.8762 10.1125 14.3856 15.4453 12.9492L38.8974 6.63214Z" fill="#B7DBD7"/>
<path fill-rule="evenodd" clip-rule="evenodd" d="M25.0569 7.69898C28.9519 3.78351 35.2669 3.7835 39.1619 7.69897L56.3621 24.9898C60.2571 28.9052 60.2571 35.2535 56.3622 39.169L39.1619 56.4598C35.2669 60.3753 28.9519 60.3753 25.0569 56.4598L7.8566 39.169C3.96162 35.2535 3.96161 28.9053 7.85659 24.9898L25.0569 7.69898Z" fill="#3E9F93"/>
<path fill-rule="evenodd" clip-rule="evenodd" d="M36.4828 21.6897C36.4828 21.9372 36.2821 22.1379 36.0345 22.1379C35.0442 22.1379 34.2414 22.9407 34.2414 23.931C34.2414 24.1786 34.0407 24.3793 33.7932 24.3793C33.5456 24.3793 33.3449 24.1786 33.3449 23.931C33.3449 22.9407 32.5421 22.1379 31.5518 22.1379C31.3042 22.1379 31.1035 21.9372 31.1035 21.6897C31.1035 21.4421 31.3042 21.2414 31.5518 21.2414C32.5421 21.2414 33.3449 20.4386 33.3449 19.4483C33.3449 19.2007 33.5456 19 33.7932 19C34.0407 19 34.2414 19.2007 34.2414 19.4483C34.2414 20.4386 35.0442 21.2414 36.0345 21.2414C36.2821 21.2414 36.4828 21.4421 36.4828 21.6897ZM33.0368 21.6898C33.3365 21.8892 33.5936 22.1462 33.793 22.446C33.9924 22.1462 34.2494 21.8892 34.5492 21.6898C34.2494 21.4904 33.9924 21.2333 33.793 20.9335C33.5936 21.2333 33.3365 21.4904 33.0368 21.6898Z" fill="white"/>
<path fill-rule="evenodd" clip-rule="evenodd" d="M36.4826 31.1029C36.4826 30.1126 35.6798 29.3098 34.6895 29.3098C34.4419 29.3098 34.2412 29.1091 34.2412 28.8615C34.2412 28.614 34.4419 28.4133 34.6895 28.4133C35.6798 28.4133 36.4826 27.6105 36.4826 26.6202C36.4826 26.3726 36.6833 26.1719 36.9309 26.1719C37.1784 26.1719 37.3791 26.3726 37.3791 26.6202C37.3791 27.6105 38.1819 28.4133 39.1722 28.4133C39.4198 28.4133 39.6205 28.614 39.6205 28.8615C39.6205 29.1091 39.4198 29.3098 39.1722 29.3098C38.1819 29.3098 37.3791 30.1126 37.3791 31.1029C37.3791 31.3505 37.1784 31.5512 36.9309 31.5512C36.6833 31.5512 36.4826 31.3505 36.4826 31.1029ZM37.6868 28.8617C37.387 28.6623 37.1299 28.4053 36.9306 28.1055C36.7312 28.4053 36.4741 28.6623 36.1743 28.8617C36.4741 29.0611 36.7312 29.3182 36.9306 29.618C37.1299 29.3182 37.387 29.0611 37.6868 28.8617Z" fill="white"/>
<path fill-rule="evenodd" clip-rule="evenodd" d="M43.5859 30.7087L33.4342 32.832L29.4687 29.6441L30.7323 19.4853C30.7471 19.362 30.7086 19.2382 30.6264 19.1454C30.5443 19.0525 30.4264 18.9996 30.3028 19C29.4677 19.0245 28.6738 19.3702 28.0852 19.9659C27.6495 20.4295 27.0514 20.7047 26.4174 20.7333C25.857 20.7319 25.3316 20.4591 25.0063 20.0005C24.5176 19.3694 23.7663 19.0003 22.9705 19.0003C22.1747 19.0003 21.4234 19.3694 20.9347 20.0005C20.6094 20.4582 20.085 20.7308 19.5253 20.7333C19.5253 20.7333 19.4559 20.7272 19.4429 20.7268C19.2939 20.72 19.1527 20.7937 19.0725 20.92C18.9901 21.0442 18.977 21.2021 19.038 21.3382L21.9305 27.7947C21.39 27.9951 20.9865 28.4557 20.8573 29.0197C20.728 29.5838 20.8904 30.1753 21.2892 30.593C21.3246 30.6303 21.3616 30.6663 21.4 30.7001C20.9651 31.0856 20.7521 31.6649 20.8331 32.2419C20.9141 32.8189 21.2783 33.3164 21.8024 33.566C21.7229 33.7562 21.6805 33.9599 21.6773 34.1662C21.6773 34.8841 22.2566 35.4661 22.9712 35.4661H23.4201C23.4447 36.0878 23.762 36.6606 24.2749 37.0092C24.4152 39.1826 23.7061 41.3254 22.2984 42.9816C22.1432 43.1632 22.1639 43.4367 22.3445 43.5926C22.4779 43.7137 22.6027 43.844 22.718 43.9826C23.1696 44.6292 23.9101 45.0098 24.6962 44.9992C25.5313 44.9747 26.3252 44.6289 26.9138 44.0333C27.3495 43.5697 27.9476 43.2945 28.5816 43.2659C29.142 43.2673 29.6674 43.5401 29.9927 43.9986C30.481 44.6299 31.2321 44.9992 32.0279 44.9992C32.5869 45.0141 33.1328 44.8273 33.5666 44.4727C33.6759 44.3848 33.7358 44.2491 33.7275 44.1087C33.5981 42.3602 32.9803 40.6839 31.945 39.2724L43.5609 42.3845C43.6904 42.4192 43.8285 42.3915 43.9348 42.3096C44.0411 42.2276 44.1034 42.1006 44.1034 41.9659V31.1329C44.1033 31.0029 44.0451 30.8798 43.9448 30.7975C43.8445 30.7153 43.7128 30.6827 43.5859 30.7087ZM20.0769 21.5456C20.6598 21.4009 21.1796 21.0689 21.5575 20.6001C21.8823 20.1403 22.4087 19.8671 22.9699 19.8671C23.5311 19.8671 24.0575 20.1403 24.3823 20.6001C24.8707 21.2313 25.6218 21.6004 26.4175 21.6002C27.2526 21.5759 28.0464 21.2301 28.635 20.6344C28.9665 20.3114 29.3674 20.0693 29.8068 19.9268L28.648 29.2405L26.8095 28.5693C26.6712 27.2894 26.8239 25.9946 27.2558 24.7825C27.4668 24.2046 27.7417 23.6523 28.0753 23.1359L27.3516 22.6645C26.983 23.2353 26.6792 23.8457 26.4459 24.4844C26.0151 25.6878 25.8355 26.9673 25.918 28.2435L24.6488 27.7794L23.8294 22.8291L22.9789 22.9713L23.7561 27.6667H22.8189L20.0769 21.5456ZM32.0283 44.1325C32.3157 44.1426 32.6 44.07 32.8477 43.9232C32.6493 42.05 31.8397 40.2953 30.5452 38.9327H28.6368L30.2027 40.8232L29.5394 41.3787L27.4327 38.8382L26.7987 38.4742L26.4166 41.1608L25.5627 41.0377L25.9939 38.0101L25.1603 37.5313C25.1615 39.5977 24.4746 41.6051 23.2088 43.2338C23.2636 43.2936 23.3162 43.3542 23.3679 43.414C23.6551 43.8708 24.1591 44.1433 24.6967 44.1325C25.3307 44.1039 25.9287 43.8287 26.3644 43.3651C26.953 42.7694 27.7469 42.4236 28.582 42.3992C29.3777 42.3992 30.1289 42.7684 30.6172 43.3997C30.9425 43.8583 31.4679 44.1311 32.0283 44.1325ZM43.2406 41.403L30.845 38.0812C30.8087 38.0715 30.7713 38.0666 30.7337 38.0665H27.8295L24.9051 36.3878C24.5484 36.2162 24.3129 35.8632 24.2905 35.4665H25.5584V34.5999H22.9708C22.7326 34.5999 22.5395 34.4059 22.5395 34.1666C22.5452 34.0092 22.6 33.8576 22.6961 33.7333H24.6959V32.8666H22.5395C22.0632 32.8666 21.677 32.4786 21.677 32C21.677 31.5214 22.0632 31.1334 22.5395 31.1334H24.2646V30.2667H22.5395C22.3025 30.2671 22.0757 30.1694 21.9126 29.9966C21.7494 29.8238 21.6642 29.5911 21.677 29.3533C21.7279 28.8763 22.1357 28.5192 22.6129 28.5334H24.1887L28.793 30.2164L33.0501 33.6397C33.1079 33.6851 33.1763 33.7149 33.2489 33.7263L43.2406 35.4002V41.403ZM35.6616 33.2509L43.2408 34.5201V31.6641L35.6616 33.2509Z" fill="white"/>
</svg>
