<svg width="180" height="223" viewBox="0 0 180 223" fill="none" xmlns="http://www.w3.org/2000/svg">
<g opacity="0.5">
<rect width="14.4615" height="13.5976" rx="6.79878" fill="#0E8778"/>
<rect x="43.3848" width="14.4615" height="13.5976" rx="6.79878" fill="#0E8778"/>
<rect x="87.9746" width="14.4615" height="13.5976" rx="6.79878" fill="#0E8778"/>
<rect x="132.564" width="14.4615" height="13.5976" rx="6.79878" fill="#0E8778"/>
<rect x="177.154" width="14.4615" height="13.5976" rx="6.79878" fill="#0E8778"/>
<rect y="29.9141" width="14.4615" height="13.5976" rx="6.79878" fill="#0E8778"/>
<rect x="43.3848" y="29.9141" width="14.4615" height="13.5976" rx="6.79878" fill="#0E8778"/>
<rect x="87.9746" y="29.9141" width="14.4615" height="13.5976" rx="6.79878" fill="#0E8778"/>
<rect x="132.564" y="29.9141" width="14.4615" height="13.5976" rx="6.79878" fill="#0E8778"/>
<rect x="177.154" y="29.9141" width="14.4615" height="13.5976" rx="6.79878" fill="#0E8778"/>
<rect y="59.8291" width="14.4615" height="13.5976" rx="6.79878" fill="#0E8778"/>
<rect x="43.3848" y="59.8301" width="14.4615" height="13.5976" rx="6.79878" fill="#0E8778"/>
<rect x="87.9746" y="59.8301" width="14.4615" height="13.5976" rx="6.79878" fill="#0E8778"/>
<rect x="132.564" y="59.8301" width="14.4615" height="13.5976" rx="6.79878" fill="#0E8778"/>
<rect x="177.154" y="59.8301" width="14.4615" height="13.5976" rx="6.79878" fill="#0E8778"/>
<rect y="89.7441" width="14.4615" height="13.5976" rx="6.79878" fill="#0E8778"/>
<rect x="43.3848" y="89.7441" width="14.4615" height="13.5976" rx="6.79878" fill="#0E8778"/>
<rect x="87.9746" y="89.7441" width="14.4615" height="13.5976" rx="6.79878" fill="#0E8778"/>
<rect x="132.564" y="89.7441" width="14.4615" height="13.5976" rx="6.79878" fill="#0E8778"/>
<rect x="177.154" y="89.7441" width="14.4615" height="13.5976" rx="6.79878" fill="#0E8778"/>
<rect y="119.659" width="14.4615" height="13.5976" rx="6.79878" fill="#0E8778"/>
<rect x="43.3848" y="119.658" width="14.4615" height="13.5976" rx="6.79878" fill="#0E8778"/>
<rect x="87.9746" y="119.658" width="14.4615" height="13.5976" rx="6.79878" fill="#0E8778"/>
<rect x="132.564" y="119.658" width="14.4615" height="13.5976" rx="6.79878" fill="#0E8778"/>
<rect x="177.154" y="119.658" width="14.4615" height="13.5976" rx="6.79878" fill="#0E8778"/>
<rect y="149.573" width="14.4615" height="13.5976" rx="6.79878" fill="#0E8778"/>
<rect x="43.3848" y="149.573" width="14.4615" height="13.5976" rx="6.79878" fill="#0E8778"/>
<rect x="87.9746" y="149.573" width="14.4615" height="13.5976" rx="6.79878" fill="#0E8778"/>
<rect x="132.564" y="149.573" width="14.4615" height="13.5976" rx="6.79878" fill="#0E8778"/>
<rect x="177.154" y="149.573" width="14.4615" height="13.5976" rx="6.79878" fill="#0E8778"/>
<rect y="179.487" width="14.4615" height="13.5976" rx="6.79878" fill="#0E8778"/>
<rect x="43.3848" y="179.488" width="14.4615" height="13.5976" rx="6.79878" fill="#0E8778"/>
<rect x="87.9746" y="179.488" width="14.4615" height="13.5976" rx="6.79878" fill="#0E8778"/>
<rect x="132.564" y="179.488" width="14.4615" height="13.5976" rx="6.79878" fill="#0E8778"/>
<rect x="177.154" y="179.488" width="14.4615" height="13.5976" rx="6.79878" fill="#0E8778"/>
<rect y="209.402" width="14.4615" height="13.5976" rx="6.79878" fill="#0E8778"/>
<rect x="43.3848" y="209.402" width="14.4615" height="13.5976" rx="6.79878" fill="#0E8778"/>
<rect x="87.9746" y="209.402" width="14.4615" height="13.5976" rx="6.79878" fill="#0E8778"/>
<rect x="132.564" y="209.402" width="14.4615" height="13.5976" rx="6.79878" fill="#0E8778"/>
<rect x="177.154" y="209.402" width="14.4615" height="13.5976" rx="6.79878" fill="#0E8778"/>
</g>
</svg>
