<svg width="19" height="46" viewBox="0 0 19 46" fill="none" xmlns="http://www.w3.org/2000/svg">
<g opacity="0.5">
<rect y="0.255371" width="2.95388" height="2.7774" rx="1.3887" fill="#3C8477"/>
<rect x="8.86133" y="0.255371" width="2.95388" height="2.7774" rx="1.3887" fill="#3C8477"/>
<rect x="17.9707" y="0.255371" width="2.95388" height="2.7774" rx="1.3887" fill="#3C8477"/>
<rect y="6.36572" width="2.95388" height="2.7774" rx="1.3887" fill="#3C8477"/>
<rect x="8.86133" y="6.36572" width="2.95388" height="2.7774" rx="1.3887" fill="#3C8477"/>
<rect x="17.9707" y="6.36572" width="2.95388" height="2.7774" rx="1.3887" fill="#3C8477"/>
<rect y="12.4762" width="2.95388" height="2.7774" rx="1.3887" fill="#3C8477"/>
<rect x="8.86133" y="12.4761" width="2.95388" height="2.7774" rx="1.3887" fill="#3C8477"/>
<rect x="17.9707" y="12.4761" width="2.95388" height="2.7774" rx="1.3887" fill="#3C8477"/>
<rect y="18.5865" width="2.95388" height="2.7774" rx="1.3887" fill="#3C8477"/>
<rect x="8.86133" y="18.5864" width="2.95388" height="2.7774" rx="1.3887" fill="#3C8477"/>
<rect x="17.9707" y="18.5864" width="2.95388" height="2.7774" rx="1.3887" fill="#3C8477"/>
<rect y="24.6969" width="2.95388" height="2.7774" rx="1.3887" fill="#3C8477"/>
<rect x="8.86133" y="24.6963" width="2.95388" height="2.7774" rx="1.3887" fill="#3C8477"/>
<rect x="17.9707" y="24.6963" width="2.95388" height="2.7774" rx="1.3887" fill="#3C8477"/>
<rect y="30.8066" width="2.95388" height="2.7774" rx="1.3887" fill="#3C8477"/>
<rect x="8.86133" y="30.8066" width="2.95388" height="2.7774" rx="1.3887" fill="#3C8477"/>
<rect x="17.9707" y="30.8066" width="2.95388" height="2.7774" rx="1.3887" fill="#3C8477"/>
<rect y="36.917" width="2.95388" height="2.7774" rx="1.3887" fill="#3C8477"/>
<rect x="8.86133" y="36.917" width="2.95388" height="2.7774" rx="1.3887" fill="#3C8477"/>
<rect x="17.9707" y="36.917" width="2.95388" height="2.7774" rx="1.3887" fill="#3C8477"/>
<rect y="43.0275" width="2.95388" height="2.7774" rx="1.3887" fill="#3C8477"/>
<rect x="8.86133" y="43.0273" width="2.95388" height="2.7774" rx="1.3887" fill="#3C8477"/>
<rect x="17.9707" y="43.0273" width="2.95388" height="2.7774" rx="1.3887" fill="#3C8477"/>
</g>
</svg>
