<svg width="201" height="201" viewBox="0 0 201 201" fill="none" xmlns="http://www.w3.org/2000/svg">
<g filter="url(#filter0_di_859_3295)">
<circle cx="100.5" cy="96.5" r="96.5" fill="#55CFAA"/>
</g>
<path d="M84.0561 127.997L84.7761 127.197L85.4161 126.797L86.1361 127.197C87.1761 126.397 88.0561 125.517 88.7761 124.637C89.4961 123.757 90.8561 121.437 93.0161 117.837L97.9761 109.437C100.616 104.957 114.456 86.1569 117.576 82.6369C124.776 74.3969 127.176 71.9169 128.136 70.6369C129.016 69.5169 129.576 68.6369 129.576 67.9969C129.576 67.5969 129.336 66.9569 128.936 66.9569C128.536 66.9569 127.896 67.2769 127.096 67.8369L127.736 66.3969L125.016 67.9969L125.176 66.8769C125.016 67.3569 123.736 68.6369 123.416 68.6369C123.176 68.6369 123.096 68.3969 123.096 67.9969V67.6769L120.856 68.7969C120.696 68.7969 120.536 68.7169 120.536 68.4769C120.536 68.2369 120.696 67.6769 120.856 66.8769C119.736 68.0769 118.136 69.4369 116.056 70.8769C113.256 72.7969 102.376 86.4769 97.9761 93.5969C95.0161 98.3169 93.8161 101.117 93.3361 101.117C93.1761 101.117 93.0961 100.797 93.0161 100.157C91.5761 103.437 90.2961 106.157 89.0161 108.157C87.7361 110.157 86.5361 111.197 85.6561 111.197C84.6161 111.197 83.7361 109.197 82.7761 105.117C82.3761 103.357 81.4961 102.237 80.2161 101.597L79.9761 101.517C79.7361 101.517 79.4161 101.677 79.0161 101.917C78.6161 102.157 78.3761 102.397 78.2161 102.397H78.1361L76.6961 101.917L75.4161 103.837C75.2561 104.077 74.9361 104.157 74.6961 104.157C74.2961 104.157 73.9761 104.077 73.8161 103.837C73.4961 104.957 73.0961 105.517 72.7761 105.517C72.5361 105.517 72.0561 105.357 71.4161 104.957C71.9761 109.197 72.4561 111.997 72.9361 113.357C73.8961 115.997 76.0561 121.997 78.1361 125.997C78.3761 126.477 78.6961 127.037 78.9361 127.517C79.7361 127.037 79.9761 126.957 80.5361 126.957L81.1761 127.037C81.5761 127.197 81.8161 127.437 81.8161 127.837L83.6561 126.957C83.9761 126.957 84.0561 127.277 84.0561 127.997Z" fill="#919191"/>
<defs>
<filter id="filter0_di_859_3295" x="0" y="0" width="201" height="201" filterUnits="userSpaceOnUse" color-interpolation-filters="sRGB">
<feFlood flood-opacity="0" result="BackgroundImageFix"/>
<feColorMatrix in="SourceAlpha" type="matrix" values="0 0 0 0 0 0 0 0 0 0 0 0 0 0 0 0 0 0 127 0" result="hardAlpha"/>
<feOffset dy="4"/>
<feGaussianBlur stdDeviation="2"/>
<feComposite in2="hardAlpha" operator="out"/>
<feColorMatrix type="matrix" values="0 0 0 0 0 0 0 0 0 0 0 0 0 0 0 0 0 0 0.25 0"/>
<feBlend mode="normal" in2="BackgroundImageFix" result="effect1_dropShadow_859_3295"/>
<feBlend mode="normal" in="SourceGraphic" in2="effect1_dropShadow_859_3295" result="shape"/>
<feColorMatrix in="SourceAlpha" type="matrix" values="0 0 0 0 0 0 0 0 0 0 0 0 0 0 0 0 0 0 127 0" result="hardAlpha"/>
<feOffset dy="4"/>
<feGaussianBlur stdDeviation="2"/>
<feComposite in2="hardAlpha" operator="arithmetic" k2="-1" k3="1"/>
<feColorMatrix type="matrix" values="0 0 0 0 0 0 0 0 0 0 0 0 0 0 0 0 0 0 0.25 0"/>
<feBlend mode="normal" in2="shape" result="effect2_innerShadow_859_3295"/>
</filter>
</defs>
</svg>
