<svg width="210" height="175" viewBox="0 0 210 175" fill="none" xmlns="http://www.w3.org/2000/svg">
<path d="M105.464 174.143C163.167 174.143 209.944 171.41 209.944 168.039C209.944 164.668 163.167 161.936 105.464 161.936C47.7615 161.936 0.984375 164.668 0.984375 168.039C0.984375 171.41 47.7615 174.143 105.464 174.143Z" fill="#F5F5F5"/>
<path d="M111.075 140.681H42.333C41.2276 140.665 40.169 140.232 39.3695 139.468C38.5699 138.703 38.0887 137.665 38.0221 136.561L31.8576 17.1012C31.8234 16.5698 31.8993 16.0371 32.0805 15.5365C32.2617 15.0358 32.5443 14.578 32.9106 14.1918C33.2768 13.8055 33.7189 13.4991 34.209 13.2918C34.6992 13.0845 35.2268 12.9808 35.7589 12.9871H104.501C105.606 13.0014 106.665 13.4336 107.465 14.1967C108.264 14.9598 108.746 15.9975 108.812 17.1012L114.966 136.561C115 137.092 114.925 137.624 114.744 138.124C114.564 138.624 114.282 139.082 113.917 139.468C113.552 139.855 113.111 140.162 112.622 140.37C112.133 140.579 111.607 140.685 111.075 140.681Z" fill="#56ABA1"/>
<path opacity="0.8" d="M111.075 140.681H42.333C41.2276 140.665 40.169 140.232 39.3695 139.468C38.5699 138.703 38.0887 137.665 38.0221 136.561L31.8576 17.1012C31.8234 16.5698 31.8993 16.0371 32.0805 15.5365C32.2617 15.0358 32.5443 14.578 32.9106 14.1918C33.2768 13.8055 33.7189 13.4991 34.209 13.2918C34.6992 13.0845 35.2268 12.9808 35.7589 12.9871H104.501C105.606 13.0014 106.665 13.4336 107.465 14.1967C108.264 14.9598 108.746 15.9975 108.812 17.1012L114.966 136.561C115 137.092 114.925 137.624 114.744 138.124C114.564 138.624 114.282 139.082 113.917 139.468C113.552 139.855 113.111 140.162 112.622 140.37C112.133 140.579 111.607 140.685 111.075 140.681Z" fill="white"/>
<path d="M97.7166 9.09424H90.1133V9.63344H97.7166V9.09424Z" fill="#FEE675"/>
<path d="M87.4793 9.09424H84.6934V9.63344H87.4793V9.09424Z" fill="#FEE675"/>
<path d="M114.033 133.099H48.2921C47.2335 133.089 46.218 132.678 45.4502 131.949C44.6823 131.219 44.2191 130.226 44.1537 129.169L38.2693 14.912C38.2366 14.4035 38.3093 13.8937 38.4828 13.4146C38.6562 12.9355 38.9267 12.4974 39.2774 12.1278C39.628 11.7583 40.0511 11.4652 40.5203 11.2669C40.9894 11.0687 41.4944 10.9696 42.0036 10.9759H107.745C108.803 10.9876 109.818 11.4001 110.585 12.1304C111.352 12.8607 111.814 13.8546 111.878 14.912L117.762 129.169C117.795 129.676 117.722 130.185 117.549 130.664C117.376 131.142 117.106 131.58 116.756 131.949C116.406 132.318 115.983 132.611 115.514 132.809C115.046 133.007 114.542 133.106 114.033 133.099Z" fill="#B7DBD7"/>
<path d="M114.034 130.474H48.2928C47.9073 130.461 47.5401 130.307 47.2609 130.04C46.9817 129.774 46.8101 129.414 46.7786 129.029L40.8889 14.7782C40.8756 14.6262 40.8946 14.4731 40.9448 14.329C40.9949 14.185 41.0751 14.0532 41.1799 13.9424C41.285 13.8319 41.4124 13.7449 41.5536 13.6873C41.6948 13.6297 41.8466 13.6027 41.9989 13.6081H107.74C108.125 13.6227 108.49 13.7777 108.768 14.044C109.047 14.3103 109.217 14.6693 109.249 15.0532L115.165 129.304C115.178 129.456 115.159 129.608 115.109 129.752C115.059 129.895 114.979 130.027 114.875 130.137C114.771 130.247 114.644 130.335 114.504 130.393C114.364 130.451 114.213 130.479 114.061 130.474H114.034ZM41.9989 13.7429C41.865 13.7386 41.7316 13.7622 41.6073 13.8124C41.4829 13.8625 41.3704 13.938 41.2769 14.0341C41.1869 14.1337 41.1181 14.2505 41.0746 14.3774C41.031 14.5044 41.0137 14.6389 41.0236 14.7728L46.908 129.024C46.938 129.374 47.0947 129.701 47.3488 129.943C47.6029 130.185 47.9367 130.326 48.2874 130.34H114.028C114.162 130.345 114.295 130.322 114.418 130.271C114.542 130.221 114.653 130.145 114.745 130.048C114.837 129.95 114.908 129.834 114.951 129.706C114.995 129.579 115.011 129.444 114.998 129.31L109.119 15.0586C109.091 14.7091 108.935 14.3823 108.682 14.1399C108.429 13.8974 108.095 13.7562 107.745 13.7429H41.9989Z" fill="white"/>
<path opacity="0.3" d="M91.0378 55.2474C98.5151 47.5695 98.0281 34.9599 89.9502 27.083C81.8723 19.2061 69.2622 19.0448 61.7849 26.7226C54.3076 34.4004 54.7946 47.01 62.8725 54.8869C70.9504 62.7638 83.5605 62.9252 91.0378 55.2474Z" fill="white"/>
<path d="M92.5339 40.9877C92.6847 43.6374 92.1521 46.2815 90.9874 48.6659C89.7265 51.2234 87.7692 53.3725 85.341 54.8654C82.9128 56.3584 80.1124 57.1345 77.2626 57.1044C74.3093 57.0778 71.4131 56.2866 68.856 54.8079C66.2988 53.3291 64.1678 51.2132 62.6703 48.6659C61.2746 46.3365 60.4716 43.7 60.3316 40.9877C60.1987 38.9076 60.4964 36.8225 61.2059 34.8627C61.9154 32.903 63.0214 31.1109 64.4549 29.5986C65.8884 28.0863 67.6184 26.8863 69.5366 26.0738C71.4548 25.2612 73.52 24.8536 75.6029 24.8764C79.9381 24.9216 84.0951 26.6089 87.2367 29.5984C90.3783 32.5879 92.2711 36.6576 92.5339 40.9877Z" fill="white"/>
<path d="M90.9714 48.6659C89.7106 51.2234 87.7533 53.3724 85.325 54.8654C82.8968 56.3584 80.0965 57.1345 77.2466 57.1044C74.2933 57.0778 71.3971 56.2866 68.84 54.8078C66.2829 53.3291 64.1518 51.2131 62.6543 48.6659C66.7492 45.8361 71.6127 44.3306 76.5892 44.3523C81.6988 44.3715 86.6937 45.8696 90.9714 48.6659Z" fill="#FEE675"/>
<path d="M81.4035 40.6137C84.0974 37.8476 83.9211 33.3037 81.0096 30.4647C78.0981 27.6257 73.5541 27.5666 70.8602 30.3328C68.1663 33.0989 68.3426 37.6428 71.2541 40.4818C74.1656 43.3208 78.7096 43.3799 81.4035 40.6137Z" fill="#FEE675"/>
<path d="M104.61 88.6478H53.1325C52.6842 88.6431 52.2542 88.4687 51.9292 88.1595C51.6043 87.8504 51.4085 87.4295 51.3812 86.9816L50.9933 79.4328C50.9799 79.2181 51.011 79.0029 51.0845 78.8007C51.1581 78.5986 51.2725 78.4138 51.4207 78.2579C51.5689 78.102 51.7477 77.9784 51.9458 77.8948C52.1439 77.8112 52.3571 77.7694 52.5721 77.7721H104.049C104.497 77.7766 104.926 77.9503 105.251 78.2584C105.576 78.5664 105.772 78.9859 105.801 79.4328L106.189 86.9816C106.203 87.1968 106.172 87.4126 106.099 87.6154C106.026 87.8182 105.912 88.0037 105.763 88.1601C105.615 88.3166 105.436 88.4407 105.238 88.5246C105.039 88.6085 104.825 88.6505 104.61 88.6478Z" fill="white"/>
<path d="M88.8453 73.6043H67.3448C66.8946 73.6009 66.4626 73.4263 66.1363 73.1159C65.8101 72.8055 65.6141 72.3825 65.5881 71.9328L65.5073 70.3152C65.4931 70.1 65.5236 69.8842 65.5968 69.6814C65.67 69.4786 65.7844 69.2932 65.9326 69.1367C66.0809 68.9802 66.2599 68.8561 66.4584 68.7722C66.6569 68.6883 66.8707 68.6464 67.0861 68.649H88.5813C89.0296 68.6537 89.4596 68.8281 89.7846 69.1373C90.1095 69.4464 90.3053 69.8673 90.3326 70.3152L90.4188 71.9328C90.432 72.1476 90.4012 72.3628 90.328 72.5651C90.2549 72.7675 90.1411 72.9527 89.9937 73.1094C89.8462 73.266 89.6682 73.3908 89.4707 73.4759C89.2732 73.561 89.0604 73.6047 88.8453 73.6043Z" fill="#FEE675"/>
<path d="M96.8427 124.942H64.635C63.8724 124.932 63.1415 124.635 62.5888 124.109C62.0362 123.583 61.7027 122.867 61.6551 122.105L61.4665 118.385C61.4475 118.019 61.5031 117.654 61.63 117.31C61.7568 116.967 61.9523 116.653 62.2044 116.387C62.4565 116.122 62.76 115.911 63.0963 115.767C63.4327 115.622 63.7949 115.548 64.1608 115.549H96.3577C97.1204 115.558 97.8513 115.856 98.404 116.382C98.9566 116.908 99.2901 117.623 99.3376 118.385L99.5262 122.105C99.5452 122.47 99.4899 122.835 99.3637 123.178C99.2375 123.521 99.0431 123.834 98.7921 124.099C98.5412 124.364 98.239 124.576 97.9039 124.721C97.5688 124.866 97.2077 124.941 96.8427 124.942Z" fill="#56ABA1"/>
<path d="M105.553 106.905H54.07C53.622 106.899 53.1928 106.724 52.8681 106.415C52.5434 106.106 52.3472 105.686 52.3187 105.239L51.9307 97.6901C51.9174 97.4751 51.9485 97.2597 52.022 97.0573C52.0955 96.8548 52.2098 96.6697 52.3579 96.5134C52.5061 96.3571 52.6847 96.233 52.8829 96.1488C53.081 96.0646 53.2944 96.0221 53.5096 96.024H104.987C105.435 96.0286 105.865 96.2031 106.19 96.5122C106.515 96.8214 106.711 97.2423 106.738 97.6901L107.132 105.239C107.144 105.454 107.113 105.669 107.039 105.871C106.965 106.073 106.851 106.258 106.703 106.414C106.555 106.57 106.376 106.694 106.178 106.779C105.981 106.863 105.768 106.906 105.553 106.905Z" fill="white"/>
<path d="M59.6622 83.2075C59.677 83.4457 59.6426 83.6845 59.561 83.9089C59.4795 84.1332 59.3525 84.3384 59.1882 84.5114C59.0238 84.6845 58.8256 84.8218 58.6058 84.9147C58.386 85.0076 58.1495 85.0542 57.9109 85.0515C57.4152 85.0456 56.9402 84.8522 56.5813 84.51C56.2224 84.1679 56.0063 83.7025 55.9764 83.2075C55.9608 82.9695 55.9945 82.7308 56.0754 82.5064C56.1564 82.2821 56.2828 82.0769 56.4467 81.9037C56.6106 81.7306 56.8086 81.5932 57.0281 81.5002C57.2476 81.4072 57.4839 81.3607 57.7223 81.3634C58.2185 81.3692 58.6941 81.5625 59.0539 81.9045C59.4137 82.2465 59.6309 82.7119 59.6622 83.2075Z" fill="#263238"/>
<path d="M65.3365 83.2075C65.3521 83.4455 65.3184 83.6841 65.2374 83.9085C65.1565 84.1328 65.0301 84.338 64.8662 84.5112C64.7022 84.6843 64.5043 84.8217 64.2848 84.9147C64.0653 85.0077 63.8289 85.0543 63.5906 85.0515C63.0945 85.0469 62.6188 84.8538 62.2596 84.5115C61.9005 84.1691 61.6847 83.703 61.6561 83.2075C61.6404 82.9695 61.6742 82.7308 61.7551 82.5064C61.836 82.2821 61.9624 82.0769 62.1264 81.9037C62.2903 81.7306 62.4882 81.5932 62.7078 81.5002C62.9273 81.4072 63.1636 81.3607 63.402 81.3634C63.898 81.368 64.3737 81.5611 64.7329 81.9034C65.092 82.2458 65.3078 82.7119 65.3365 83.2075Z" fill="#263238"/>
<path d="M70.9782 83.2075C70.9938 83.4455 70.9601 83.6841 70.8792 83.9085C70.7982 84.1328 70.6718 84.338 70.5079 84.5112C70.344 84.6843 70.146 84.8217 69.9265 84.9147C69.707 85.0077 69.4707 85.0543 69.2323 85.0515C68.7361 85.0457 68.2605 84.8524 67.9007 84.5104C67.5409 84.1684 67.3237 83.703 67.2924 83.2075C67.2776 82.9692 67.312 82.7304 67.3936 82.506C67.4751 82.2817 67.602 82.0766 67.7664 81.9035C67.9308 81.7304 68.129 81.5931 68.3488 81.5002C68.5686 81.4073 68.8051 81.3607 69.0437 81.3634C69.5394 81.3693 70.0144 81.5628 70.3733 81.9049C70.7322 82.247 70.9483 82.7124 70.9782 83.2075Z" fill="#263238"/>
<path d="M76.6638 83.2074C76.6786 83.4452 76.6443 83.6835 76.5631 83.9075C76.4818 84.1315 76.3554 84.3364 76.1916 84.5094C76.0278 84.6824 75.8302 84.8198 75.6111 84.913C75.392 85.0063 75.156 85.0534 74.9179 85.0515C74.4217 85.0456 73.946 84.8524 73.5862 84.5104C73.2265 84.1684 73.0092 83.703 72.978 83.2074C72.9632 82.9696 72.9974 82.7312 73.0787 82.5073C73.1599 82.2833 73.2863 82.0784 73.4501 81.9054C73.6139 81.7324 73.8115 81.595 74.0306 81.5018C74.2498 81.4085 74.4857 81.3614 74.7239 81.3633C75.2201 81.3692 75.6957 81.5624 76.0555 81.9044C76.4153 82.2464 76.6325 82.7118 76.6638 83.2074Z" fill="#263238"/>
<path d="M60.6169 101.455C60.6325 101.693 60.5988 101.931 60.5179 102.156C60.4369 102.38 60.3105 102.585 60.1466 102.758C59.9826 102.931 59.7847 103.069 59.5652 103.162C59.3457 103.255 59.1093 103.301 58.871 103.299C58.3748 103.293 57.8991 103.1 57.5394 102.758C57.1796 102.416 56.9623 101.95 56.9311 101.455C56.9163 101.216 56.9507 100.977 57.0323 100.753C57.1138 100.529 57.2407 100.324 57.4051 100.151C57.5694 99.9775 57.7677 99.8402 57.9875 99.7473C58.2072 99.6544 58.4438 99.6078 58.6824 99.6105C59.178 99.6164 59.6531 99.8098 60.012 100.152C60.3708 100.494 60.587 100.959 60.6169 101.455Z" fill="#263238"/>
<path d="M66.2794 101.455C66.2942 101.692 66.2599 101.931 66.1786 102.155C66.0974 102.379 65.971 102.584 65.8072 102.757C65.6434 102.929 65.4458 103.067 65.2267 103.16C65.0076 103.253 64.7716 103.301 64.5334 103.299C64.0373 103.293 63.5616 103.1 63.2018 102.758C62.8421 102.416 62.6248 101.95 62.5936 101.455C62.5779 101.217 62.6117 100.978 62.6926 100.754C62.7735 100.529 62.8999 100.324 63.0639 100.151C63.2278 99.9777 63.4257 99.8403 63.6453 99.7473C63.8648 99.6543 64.1011 99.6077 64.3395 99.6105C64.8357 99.6163 65.3113 99.8096 65.6711 100.152C66.0308 100.494 66.2481 100.959 66.2794 101.455Z" fill="#263238"/>
<path d="M71.9434 101.455C71.9583 101.693 71.9238 101.932 71.8423 102.156C71.7607 102.38 71.6338 102.585 71.4694 102.759C71.3051 102.932 71.1068 103.069 70.887 103.162C70.6673 103.255 70.4307 103.301 70.1921 103.299C69.6961 103.294 69.2204 103.101 68.8612 102.759C68.502 102.416 68.2863 101.95 68.2576 101.455C68.242 101.217 68.2757 100.978 68.3567 100.754C68.4376 100.529 68.564 100.324 68.7279 100.151C68.8919 99.9777 69.0898 99.8403 69.3093 99.7473C69.5288 99.6543 69.7652 99.6077 70.0035 99.6105C70.4997 99.6163 70.9754 99.8096 71.3351 100.152C71.6949 100.494 71.9122 100.959 71.9434 101.455Z" fill="#263238"/>
<path d="M77.6013 101.455C77.6169 101.693 77.5832 101.931 77.5022 102.156C77.4213 102.38 77.2949 102.585 77.131 102.758C76.967 102.931 76.7691 103.069 76.5496 103.162C76.3301 103.255 76.0937 103.301 75.8554 103.299C75.3592 103.293 74.8835 103.1 74.5237 102.758C74.164 102.416 73.9467 101.95 73.9155 101.455C73.9006 101.216 73.9351 100.977 74.0166 100.753C74.0982 100.529 74.2251 100.324 74.3895 100.151C74.5538 99.9775 74.7521 99.8402 74.9719 99.7473C75.1916 99.6544 75.4282 99.6078 75.6668 99.6105C76.1628 99.6151 76.6385 99.8082 76.9977 100.151C77.3569 100.493 77.5726 100.959 77.6013 101.455Z" fill="#263238"/>
<path d="M83.2653 101.454C83.2809 101.692 83.2472 101.931 83.1663 102.156C83.0853 102.38 82.9589 102.585 82.795 102.758C82.6311 102.931 82.4331 103.069 82.2136 103.162C81.9941 103.255 81.7578 103.301 81.5194 103.299C81.0232 103.293 80.5476 103.099 80.1878 102.757C79.828 102.415 79.6108 101.95 79.5795 101.454C79.5647 101.217 79.599 100.978 79.6802 100.754C79.7615 100.53 79.8879 100.325 80.0517 100.153C80.2155 99.9795 80.4131 99.8421 80.6322 99.7489C80.8513 99.6556 81.0873 99.6085 81.3254 99.6104C81.8216 99.6162 82.2973 99.8095 82.657 100.152C83.0168 100.493 83.2341 100.959 83.2653 101.454Z" fill="#263238"/>
<path d="M88.9278 101.455C88.9426 101.693 88.9082 101.932 88.8266 102.156C88.7451 102.38 88.6182 102.585 88.4538 102.759C88.2895 102.932 88.0912 103.069 87.8714 103.162C87.6516 103.255 87.4151 103.301 87.1765 103.299C86.6809 103.293 86.2058 103.099 85.8469 102.757C85.4881 102.415 85.2719 101.95 85.242 101.455C85.2264 101.217 85.2601 100.978 85.341 100.754C85.422 100.529 85.5484 100.324 85.7123 100.151C85.8763 99.9777 86.0742 99.8403 86.2937 99.7473C86.5132 99.6543 86.7496 99.6077 86.9879 99.6105C87.4841 99.6163 87.9598 99.8096 88.3195 100.152C88.6793 100.494 88.8966 100.959 88.9278 101.455Z" fill="#263238"/>
<path d="M150.189 38.8364C150.324 39.0413 150.394 39.1492 150.48 39.2947L150.722 39.6938C150.879 39.9634 151.019 40.233 151.153 40.4972C151.423 41.0364 151.692 41.5756 151.908 42.1148C152.36 43.1857 152.748 44.2821 153.072 45.3985C153.724 47.6038 154.154 49.869 154.354 52.1601L154.392 52.586C154.396 52.6722 154.396 52.7586 154.392 52.8449V53.1306C154.401 53.5056 154.379 53.8807 154.327 54.2522C154.224 54.9407 154.043 55.6154 153.788 56.2634C153.315 57.4207 152.688 58.5089 151.924 59.4986C150.499 61.3245 148.808 62.9259 146.907 64.2489L145.42 62.5073C146.773 60.9779 147.972 59.318 148.998 57.5521C149.46 56.751 149.822 55.8962 150.076 55.007C150.179 54.6304 150.238 54.2433 150.254 53.8532C150.27 53.6864 150.27 53.5184 150.254 53.3517V53.2385C150.259 53.1883 150.259 53.1377 150.254 53.0875L150.189 52.7101C149.842 50.7005 149.352 48.7184 148.723 46.7789C148.411 45.8137 148.028 44.8809 147.645 43.9696C147.457 43.5113 147.241 43.0638 147.026 42.6324L146.692 41.9961L146.525 41.6996L146.384 41.4623L150.189 38.8364Z" fill="#803E3C"/>
<path d="M145.178 64.2595L147.128 68.3843L148.675 64.8957C148.675 64.8957 147.301 61.8762 145.442 62.1566L145.178 64.2595Z" fill="#7F3E3B"/>
<path d="M148.525 68.589L150.076 66.044L148.675 64.8955L147.129 68.3841L148.525 68.589Z" fill="#7F3E3B"/>
<path d="M139.75 163.714C140.153 163.704 140.555 163.65 140.946 163.553C140.966 163.547 140.984 163.536 140.998 163.52C141.012 163.505 141.022 163.487 141.027 163.466C141.03 163.446 141.028 163.424 141.019 163.405C141.01 163.386 140.996 163.37 140.979 163.359C140.822 163.256 139.454 162.372 138.926 162.609C138.867 162.636 138.817 162.679 138.78 162.732C138.743 162.785 138.721 162.847 138.715 162.911C138.699 163.009 138.707 163.109 138.738 163.203C138.769 163.297 138.822 163.382 138.893 163.45C139.138 163.639 139.442 163.733 139.75 163.714ZM140.639 163.396C139.858 163.558 139.265 163.531 139.023 163.321C138.973 163.272 138.937 163.211 138.917 163.144C138.897 163.077 138.895 163.006 138.909 162.938C138.909 162.846 138.963 162.819 139.001 162.803C139.292 162.674 140.084 163.057 140.639 163.396Z" fill="#86C3BB"/>
<path d="M140.922 163.553H140.976C140.992 163.543 141.006 163.528 141.015 163.511C141.024 163.495 141.03 163.476 141.03 163.456C141.03 163.402 141.03 162.103 140.534 161.666C140.473 161.611 140.401 161.571 140.323 161.546C140.245 161.522 140.162 161.515 140.081 161.526C139.996 161.527 139.914 161.556 139.848 161.61C139.782 161.664 139.737 161.739 139.72 161.822C139.617 162.335 140.437 163.305 140.868 163.553H140.922ZM140.151 161.725C140.195 161.724 140.238 161.732 140.279 161.747C140.32 161.763 140.357 161.787 140.388 161.817C140.673 162.236 140.82 162.734 140.809 163.241C140.378 162.895 139.865 162.162 139.93 161.855C139.93 161.806 139.968 161.742 140.103 161.725H140.151Z" fill="#86C3BB"/>
<path d="M134.665 161.515C134.678 161.499 134.686 161.48 134.689 161.46C134.692 161.44 134.689 161.419 134.681 161.401C134.674 161.382 134.661 161.366 134.645 161.354C134.629 161.341 134.61 161.334 134.589 161.331C134.369 161.331 132.434 161.24 131.992 161.714V161.747C131.956 161.793 131.932 161.849 131.923 161.907C131.915 161.966 131.922 162.026 131.944 162.081C131.972 162.173 132.023 162.258 132.092 162.326C132.16 162.395 132.244 162.446 132.337 162.474C132.962 162.669 134.067 161.962 134.67 161.525L134.665 161.515ZM132.154 161.854C132.396 161.596 133.463 161.525 134.261 161.536C133.426 162.108 132.73 162.377 132.38 162.27C132.319 162.251 132.264 162.218 132.218 162.173C132.173 162.127 132.14 162.072 132.121 162.011C132.111 161.99 132.105 161.967 132.105 161.943C132.105 161.92 132.111 161.897 132.121 161.876L132.154 161.854Z" fill="#86C3BB"/>
<path d="M134.664 161.515C134.672 161.498 134.676 161.479 134.676 161.461C134.676 161.442 134.672 161.423 134.664 161.407C134.637 161.364 134.033 160.328 133.322 160.113C133.22 160.083 133.113 160.074 133.007 160.087C132.902 160.1 132.8 160.134 132.708 160.188C132.449 160.339 132.433 160.517 132.465 160.63C132.605 161.132 133.98 161.574 134.572 161.568C134.591 161.568 134.609 161.563 134.625 161.554C134.641 161.544 134.655 161.531 134.664 161.515ZM132.729 160.436C132.76 160.406 132.794 160.381 132.832 160.361C132.898 160.318 132.973 160.291 133.052 160.281C133.13 160.27 133.209 160.277 133.284 160.301C133.753 160.425 134.19 161.029 134.389 161.326C133.748 161.256 132.773 160.862 132.692 160.56C132.685 160.537 132.685 160.513 132.691 160.49C132.698 160.467 132.711 160.446 132.729 160.431V160.436Z" fill="#86C3BB"/>
<path d="M140.596 23.0425C140.057 25.7385 138.893 31.5672 140.763 33.3574C140.763 33.3574 140.03 36.0534 135.056 36.0534C129.581 36.0534 132.443 33.3574 132.443 33.3574C135.428 32.6456 135.353 30.4241 134.83 28.3428L140.596 23.0425Z" fill="#7F3E3B"/>
<path d="M131.481 16.7238C131.511 16.7287 131.542 16.7287 131.572 16.7238C131.598 16.7112 131.621 16.6936 131.639 16.6721C131.658 16.6506 131.672 16.6256 131.681 16.5985C131.69 16.5714 131.694 16.5428 131.692 16.5143C131.69 16.4858 131.682 16.4581 131.669 16.4326C131.524 16.125 131.308 15.8568 131.038 15.6503C130.768 15.4439 130.452 15.3054 130.117 15.2464C130.061 15.2417 130.005 15.2586 129.961 15.2937C129.917 15.3287 129.888 15.3793 129.88 15.4351C129.874 15.4915 129.89 15.5481 129.926 15.5925C129.961 15.6369 130.012 15.6656 130.069 15.6723C130.333 15.7231 130.581 15.8362 130.793 16.0021C131.005 16.1681 131.174 16.3822 131.287 16.6267C131.307 16.6586 131.336 16.6844 131.37 16.7015C131.405 16.7185 131.443 16.7262 131.481 16.7238Z" fill="#263238"/>
<path d="M129.848 19.0908C129.423 19.8779 128.894 20.6035 128.273 21.2476C128.441 21.4013 128.641 21.5166 128.858 21.5855C129.075 21.6544 129.304 21.6752 129.53 21.6466L129.848 19.0908Z" fill="#630F0F"/>
<path d="M130.251 18.4812C130.208 18.8424 129.976 19.112 129.744 19.0851C129.512 19.0581 129.351 18.74 129.394 18.3787C129.437 18.0174 129.669 17.7478 129.933 17.7748C130.197 17.8018 130.289 18.1199 130.251 18.4812Z" fill="#263238"/>
<path d="M130.004 17.807L129.174 17.4727C129.174 17.4727 129.524 18.1844 130.004 17.807Z" fill="#263238"/>
<path d="M139.421 160.49L135.024 161.515L132.352 151.399L136.749 150.375L139.421 160.49Z" fill="#7F3E3B"/>
<path d="M146.168 163.445H141.658L142.008 152.99H146.524L146.168 163.445Z" fill="#7F3E3B"/>
<path d="M141.297 162.922H146.367C146.455 162.922 146.54 162.953 146.607 163.01C146.673 163.068 146.716 163.148 146.728 163.235L147.305 167.247C147.316 167.348 147.306 167.451 147.275 167.548C147.244 167.645 147.192 167.735 147.124 167.811C147.056 167.887 146.972 167.947 146.879 167.989C146.786 168.03 146.685 168.051 146.583 168.05C144.815 168.023 143.964 167.915 141.733 167.915C140.359 167.915 138.354 168.061 136.463 168.061C134.572 168.061 134.464 166.185 135.256 166.017C138.791 165.252 139.351 164.206 140.542 163.203C140.753 163.023 141.02 162.924 141.297 162.922Z" fill="#263238"/>
<path d="M134.636 160.841L139.244 158.722C139.322 158.684 139.411 158.677 139.494 158.701C139.578 158.725 139.65 158.778 139.696 158.851L141.9 162.259C141.952 162.347 141.984 162.444 141.996 162.545C142.007 162.646 141.997 162.748 141.967 162.846C141.936 162.943 141.886 163.032 141.819 163.108C141.752 163.185 141.669 163.246 141.577 163.289C139.96 164 139.141 164.265 137.115 165.197C135.87 165.769 133.343 167.085 131.63 167.893C129.916 168.702 129.032 167.025 129.679 166.54C132.573 164.383 133.402 162.836 134.065 161.428C134.177 161.169 134.381 160.96 134.636 160.841Z" fill="#263238"/>
<path opacity="0.2" d="M132.352 151.399L133.785 156.824L138.128 155.589L136.754 150.375L132.352 151.399Z" fill="black"/>
<path opacity="0.2" d="M146.526 152.99H142.01L141.832 158.382H146.348L146.526 152.99Z" fill="black"/>
<path d="M148.572 34.3824C150.447 34.7976 152.452 41.543 152.452 41.543L147.149 47.1884C147.149 47.1884 142.747 40.8474 143.647 38.5181C144.557 36.0863 146.336 33.8972 148.572 34.3824Z" fill="#263238"/>
<path opacity="0.4" d="M145.575 38.6797C144.626 37.8115 143.985 38.0704 143.549 38.7605C143.117 40.7664 145.672 44.9667 146.701 46.5574C147.175 44.6594 147.719 40.6585 145.575 38.6797Z" fill="black"/>
<path d="M124.814 34.5171C124.814 34.5171 122.659 35.272 126.97 61.7737H145.291C144.984 54.3111 144.973 49.7064 148.524 34.3823C145.957 33.8523 143.354 33.5099 140.738 33.3578C137.968 33.1581 135.187 33.1581 132.418 33.3578C128.866 33.6867 124.814 34.5171 124.814 34.5171Z" fill="#263238"/>
<path opacity="0.4" d="M124.648 44.6862C124.767 45.9749 124.923 47.4253 125.128 49.0645C126.631 47.7111 127.86 43.8612 127.407 41.6182C126.333 42.4905 125.402 43.5257 124.648 44.6862Z" fill="black"/>
<path d="M126.607 40.6581C125.618 43.148 124.505 45.5864 123.271 47.9643C122.052 50.428 120.609 52.7744 118.96 54.9739L118.616 55.3999L118.443 55.6101C118.384 55.6802 118.335 55.7449 118.244 55.842C117.92 56.196 117.558 56.5142 117.166 56.791C116.473 57.2711 115.714 57.6488 114.914 57.9125C113.517 58.3588 112.067 58.6163 110.603 58.6782C107.86 58.7873 105.114 58.5427 102.434 57.9503L102.73 55.6856C103.969 55.6856 105.268 55.6856 106.502 55.5832C107.741 55.5222 108.976 55.3853 110.199 55.1734C111.334 54.9961 112.445 54.6848 113.507 54.246C113.936 54.0626 114.337 53.8193 114.698 53.5234C114.836 53.408 114.96 53.2778 115.07 53.1352C115.07 53.1352 115.135 53.0489 115.178 52.9896L115.302 52.8117L115.555 52.4558C116.907 50.3659 118.112 48.184 119.16 45.9261C120.238 43.6345 121.315 41.2566 122.301 38.9165L126.607 40.6581Z" fill="#803E3C"/>
<path d="M124.815 34.5172C122.568 35.0564 119.809 41.2248 119.809 41.2248L124.464 48.0727C124.464 48.0727 130.667 40.2597 129.928 37.8764C129.174 35.3907 127.557 33.8486 124.815 34.5172Z" fill="#263238"/>
<path d="M104.025 56.0314L100.14 54.2358L99.752 58.1019C99.752 58.1019 102.985 59.0563 104.602 58.1019L104.025 56.0314Z" fill="#7F3E3B"/>
<path d="M97.8171 53.8472L97.4453 56.7912L99.7516 58.1015L100.14 54.2354L97.8171 53.8472Z" fill="#7F3E3B"/>
<path d="M142.549 18.7451C141.725 23.1504 141.471 25.0376 138.95 27.038C135.178 30.0467 129.924 28.0733 129.417 23.5116C128.954 19.4029 130.376 12.8894 134.941 11.6492C135.946 11.3717 137.006 11.3565 138.019 11.605C139.031 11.8536 139.964 12.3577 140.727 13.0693C141.49 13.7808 142.058 14.6761 142.377 15.6696C142.696 16.6632 142.755 17.722 142.549 18.7451Z" fill="#7F3E3B"/>
<path d="M132.875 19.6729C132.622 21.9214 132.525 27.7609 137.461 27.9442C143.502 28.1653 145.312 22.9998 144.773 20.9346C147.92 18.3734 148.373 13.9682 144.838 10.5981C141.303 7.22815 133.522 9.10996 131.367 12.3937C128.635 16.4646 132.875 19.6729 132.875 19.6729Z" fill="#263238"/>
<path d="M138.925 11.9081C138.635 9.53563 138.861 7.90186 141.081 7.90186C143.301 7.90186 146.329 8.70526 147.439 10.9753C148.55 13.2453 148.641 16.7987 145.543 16.4374C142.444 16.0761 139.276 14.7443 138.925 11.9081Z" fill="#86C3BB"/>
<path d="M142.364 11.3369C141.825 8.51146 144.352 0.552864 150.49 0.013664C153.335 -0.228976 154.65 2.83368 153.184 3.34053C155.878 3.30818 157.603 6.87229 155.092 7.4061C157.075 8.67861 156.584 11.2883 153.755 12.5716C151.648 13.5422 143.091 15.2515 142.364 11.3369Z" fill="#263238"/>
<path d="M148.922 14.3728C146.945 14.3728 144.881 14.0817 143.598 13.2243C143.24 13.008 142.938 12.7094 142.718 12.353C142.498 11.9967 142.365 11.593 142.332 11.1754C142.331 11.1399 142.342 11.1052 142.365 11.0782C142.388 11.0511 142.421 11.0339 142.456 11.0298C142.474 11.0275 142.492 11.029 142.509 11.0342C142.527 11.0393 142.543 11.048 142.556 11.0597C142.57 11.0713 142.581 11.0857 142.589 11.1019C142.597 11.1182 142.601 11.1358 142.602 11.1538C142.634 11.5307 142.755 11.8946 142.954 12.2159C143.154 12.5373 143.426 12.807 143.749 13.0033C146.19 14.6209 151.832 14.0817 153.589 13.5425C155.109 13.0464 156.138 12.0812 156.343 10.9705C156.406 10.5629 156.356 10.1455 156.197 9.76481C156.038 9.38408 155.777 9.05486 155.443 8.81368C155.43 8.80158 155.419 8.78696 155.412 8.77073C155.405 8.7545 155.402 8.737 155.402 8.71932C155.402 8.70163 155.405 8.68414 155.412 8.66791C155.419 8.65168 155.43 8.63706 155.443 8.62496C155.468 8.60026 155.502 8.58643 155.537 8.58643C155.572 8.58643 155.606 8.60026 155.631 8.62496C156.007 8.89958 156.3 9.27345 156.476 9.70478C156.652 10.1361 156.705 10.6079 156.628 11.0675C156.407 12.2807 155.313 13.316 153.697 13.8444C152.137 14.2379 150.531 14.4157 148.922 14.3728Z" fill="#263238"/>
<path d="M131.502 19.0905C131 19.7948 130.794 20.6674 130.926 21.5223C131.103 22.6546 132.203 22.7301 133 22.0075C133.798 21.285 134.493 19.9802 133.906 19.0419C133.775 18.8393 133.595 18.6734 133.382 18.5601C133.169 18.4469 132.931 18.39 132.69 18.3948C132.449 18.3997 132.214 18.4662 132.006 18.5879C131.798 18.7097 131.625 18.8827 131.502 19.0905Z" fill="#7F3E3B"/>
<path d="M131.809 61.7734C131.809 61.7734 134.427 92.7721 137.149 110.242C139.342 124.353 141.077 157.336 141.077 157.336H147.231C147.231 157.336 149.419 125.34 148.308 111.385C145.49 76.0676 151.779 73.1883 145.307 61.7788L131.809 61.7734Z" fill="#9FCFC9"/>
<path opacity="0.4" d="M139.556 73.4897C137.118 76.051 135.149 79.0226 133.742 82.2679C134.459 89.2344 135.31 96.9665 136.216 103.739C139.93 94.1159 141.081 83.6921 139.556 73.4897Z" fill="black"/>
<path d="M127.503 61.5796C127.503 61.5796 121.818 95.436 120.924 110.695C123.155 124.806 132.283 154.635 132.283 154.635L137.882 152.602C137.882 152.602 134.783 120.077 131.415 111.175C138.997 85.6333 144.569 79.1737 142.947 61.7737C139.062 61.7737 127.503 61.5796 127.503 61.5796Z" fill="#9FCFC9"/>
<path d="M131.535 156.123L139.1 154.069L138.669 151.049L130.57 153.244L131.535 156.123Z" fill="#263238"/>
<path d="M140.231 157.46H148.071L148.481 154.711L140.188 154.43L140.231 157.46Z" fill="#263238"/>
<path d="M145.576 60.695L146.401 62.3395C146.466 62.4689 146.315 62.5984 146.105 62.5984H126.878C126.716 62.5984 126.576 62.5175 126.565 62.4096L126.398 60.792C126.398 60.6788 126.533 60.5817 126.711 60.5817H145.275C145.33 60.5741 145.387 60.5805 145.44 60.6002C145.493 60.62 145.539 60.6526 145.576 60.695Z" fill="#86C3BB"/>
<path opacity="0.5" d="M145.576 60.695L146.401 62.3395C146.466 62.4689 146.315 62.5984 146.105 62.5984H126.878C126.716 62.5984 126.576 62.5175 126.565 62.4096L126.398 60.792C126.398 60.6788 126.533 60.5817 126.711 60.5817H145.275C145.33 60.5741 145.387 60.5805 145.44 60.6002C145.493 60.62 145.539 60.6526 145.576 60.695Z" fill="black"/>
<path d="M143.082 62.7656H143.579C143.681 62.7656 143.756 62.7117 143.751 62.6524L143.514 60.4956C143.514 60.4308 143.422 60.3823 143.325 60.3823H142.824C142.727 60.3823 142.651 60.4308 142.657 60.4956L142.888 62.6524C142.899 62.7224 142.985 62.7656 143.082 62.7656Z" fill="#86C3BB"/>
<path d="M136.41 47.0644C136.351 47.0635 136.293 47.0437 136.246 47.0078C136.198 46.972 136.163 46.9219 136.146 46.8649C134.39 40.3622 130.758 35.0025 128.996 34.1937C128.859 34.1096 128.694 34.0825 128.538 34.1182C128.505 34.1354 128.469 34.1457 128.433 34.1485C128.396 34.1513 128.359 34.1466 128.324 34.1347C128.29 34.1227 128.258 34.1037 128.23 34.0789C128.203 34.0541 128.181 34.024 128.166 33.9905C128.151 33.9569 128.143 33.9206 128.143 33.8838C128.142 33.847 128.149 33.8105 128.163 33.7765C128.177 33.7425 128.198 33.7117 128.225 33.6861C128.251 33.6605 128.282 33.6406 128.317 33.6276C128.464 33.5734 128.621 33.5522 128.778 33.5652C128.934 33.5782 129.086 33.6253 129.222 33.703C131.086 34.5873 134.772 39.8715 136.615 46.5198C137.935 46.5198 139.972 46.3419 140.468 46.2988C141.082 45.5655 145.598 39.9146 143.911 33.73C143.902 33.696 143.899 33.6604 143.903 33.6253C143.907 33.5902 143.918 33.5563 143.936 33.5256C143.954 33.495 143.977 33.4681 144.005 33.4467C144.034 33.4253 144.066 33.4098 144.1 33.4011C144.169 33.3829 144.241 33.3925 144.303 33.4279C144.365 33.4632 144.41 33.5214 144.429 33.5898C146.309 40.47 140.856 46.6762 140.797 46.7355C140.776 46.7617 140.75 46.7833 140.72 46.7991C140.69 46.8148 140.658 46.8244 140.624 46.8272C140.597 46.8272 137.908 47.0644 136.41 47.0644Z" fill="#FEE989"/>
<path d="M145.339 50.8704C142.402 45.3651 141.2 44.9769 140.678 43.2083C141.074 42.2193 141.639 41.307 142.348 40.5123C141.992 40.4099 141.227 40.2589 140.732 40.1672C140.785 39.9246 140.845 39.6873 140.899 39.4555C140.359 39.3951 139.813 39.4206 139.282 39.531V38.9918C138.598 38.8428 137.895 38.7973 137.197 38.857C137.258 39.1122 137.317 39.371 137.374 39.6334C136.836 39.7359 136.016 39.903 135.623 40.0162C136.387 40.8825 136.949 41.9086 137.267 43.0196C135.682 45.7426 129.529 63.245 139.541 64.5876C149.553 65.9302 148.27 56.381 145.339 50.8704Z" fill="#FEED9C"/>
<path opacity="0.4" d="M145.339 50.8704C142.402 45.3651 141.2 44.9769 140.678 43.2083C141.074 42.2193 141.639 41.307 142.348 40.5123C141.992 40.4099 141.227 40.2589 140.732 40.1672C140.785 39.9246 140.845 39.6873 140.899 39.4555C140.359 39.3951 139.813 39.4206 139.282 39.531V38.9918C138.598 38.8428 137.895 38.7973 137.197 38.857C137.258 39.1122 137.317 39.371 137.374 39.6334C136.836 39.7359 136.016 39.903 135.623 40.0162C136.387 40.8825 136.949 41.9086 137.267 43.0196C135.682 45.7426 129.529 63.245 139.541 64.5876C149.553 65.9302 148.27 56.381 145.339 50.8704Z" fill="white"/>
<path d="M136.858 42.4969C136.795 42.7746 136.768 43.059 136.777 43.3435C136.777 43.543 137.316 43.6778 137.914 43.7371C138.512 43.7964 141.023 43.8934 140.942 43.6131C140.862 43.3327 141.066 42.9498 141.077 42.7126C141.088 42.4754 140.08 42.4646 139.234 42.4969C138.388 42.5293 137.025 42.195 136.858 42.4969Z" fill="#86C3BB"/>
<path d="M131.035 62.7656H131.531C131.628 62.7656 131.704 62.7117 131.698 62.6524L131.466 60.4956C131.466 60.4308 131.375 60.3823 131.272 60.3823H130.792C130.695 60.3823 130.62 60.4308 130.625 60.4956L130.857 62.6524C130.846 62.7224 130.933 62.7656 131.035 62.7656Z" fill="#86C3BB"/>
</svg>
