<svg width="85" height="71" viewBox="0 0 85 71" fill="none" xmlns="http://www.w3.org/2000/svg">
<path d="M42.2161 70.3642C65.5315 70.3642 84.4323 69.26 84.4323 67.8979C84.4323 66.5358 65.5315 65.4316 42.2161 65.4316C18.9008 65.4316 0 66.5358 0 67.8979C0 69.26 18.9008 70.3642 42.2161 70.3642Z" fill="#F5F5F5"/>
<path d="M44.4828 56.8441H16.7066C16.26 56.8377 15.8322 56.6627 15.5092 56.3539C15.1861 56.0452 14.9917 55.6257 14.9648 55.1795L12.4739 6.9105C12.4601 6.6958 12.4908 6.48056 12.564 6.27826C12.6372 6.07597 12.7514 5.89099 12.8994 5.73493C13.0474 5.57886 13.226 5.45506 13.4241 5.3713C13.6221 5.28753 13.8353 5.24561 14.0503 5.24816H41.8264C42.2729 5.25395 42.7006 5.42856 43.0237 5.73691C43.3468 6.04527 43.5414 6.46453 43.5683 6.9105L46.0548 55.1795C46.0686 55.394 46.038 55.609 45.9651 55.8111C45.8922 56.0132 45.7784 56.1981 45.6309 56.3542C45.4834 56.5104 45.3054 56.6345 45.1078 56.7188C44.9103 56.8031 44.6975 56.8457 44.4828 56.8441Z" fill="#3C8477"/>
<path opacity="0.8" d="M44.4828 56.8441H16.7066C16.26 56.8377 15.8322 56.6627 15.5092 56.3539C15.1861 56.0452 14.9917 55.6257 14.9648 55.1795L12.4739 6.9105C12.4601 6.6958 12.4908 6.48056 12.564 6.27826C12.6372 6.07597 12.7514 5.89099 12.8994 5.73493C13.0474 5.57886 13.226 5.45506 13.4241 5.3713C13.6221 5.28753 13.8353 5.24561 14.0503 5.24816H41.8264C42.2729 5.25395 42.7006 5.42856 43.0237 5.73691C43.3468 6.04527 43.5414 6.46453 43.5683 6.9105L46.0548 55.1795C46.0686 55.394 46.038 55.609 45.9651 55.8111C45.8922 56.0132 45.7784 56.1981 45.6309 56.3542C45.4834 56.5104 45.3054 56.6345 45.1078 56.7188C44.9103 56.8031 44.6975 56.8457 44.4828 56.8441Z" fill="white"/>
<path d="M39.0859 3.6748H36.0137V3.89267H39.0859V3.6748Z" fill="#3C8477"/>
<path d="M34.9479 3.6748H33.8223V3.89267H34.9479V3.6748Z" fill="#3C8477"/>
<path d="M45.6788 53.781H19.1154C18.6876 53.7768 18.2773 53.6107 17.9671 53.316C17.6568 53.0213 17.4696 52.6199 17.4432 52.1927L15.0656 6.02611C15.0524 5.82063 15.0817 5.61464 15.1518 5.42105C15.2219 5.22747 15.3312 5.05046 15.4729 4.90113C15.6146 4.7518 15.7855 4.63337 15.9751 4.55327C16.1647 4.47318 16.3687 4.43313 16.5745 4.43566H43.1378C43.5656 4.44039 43.9756 4.60707 44.2855 4.90217C44.5953 5.19726 44.782 5.59886 44.8078 6.02611L47.1855 52.1927C47.1987 52.3979 47.1694 52.6036 47.0994 52.7969C47.0294 52.9902 46.9203 53.167 46.7788 53.3161C46.6373 53.4653 46.4666 53.5835 46.2773 53.6635C46.088 53.7435 45.8842 53.7835 45.6788 53.781Z" fill="#B7DBD7"/>
<path d="M45.6778 52.7194H19.1144C18.9586 52.7141 18.8102 52.6516 18.6974 52.544C18.5846 52.4363 18.5153 52.291 18.5026 52.1355L16.1228 5.9711C16.1174 5.90969 16.1251 5.84784 16.1453 5.78963C16.1656 5.73141 16.198 5.67817 16.2403 5.6334C16.2828 5.58874 16.3343 5.55361 16.3913 5.53032C16.4484 5.50704 16.5097 5.49613 16.5713 5.49832H43.1346C43.29 5.5042 43.4379 5.56686 43.5502 5.67446C43.6626 5.78206 43.7316 5.92712 43.7443 6.08221L46.135 52.2466C46.1402 52.3078 46.1325 52.3694 46.1123 52.4274C46.0921 52.4854 46.0598 52.5384 46.0177 52.5831C45.9755 52.6277 45.9244 52.6629 45.8677 52.6864C45.811 52.7099 45.75 52.7212 45.6886 52.7194H45.6778ZM16.5713 5.55279C16.5172 5.55104 16.4633 5.5606 16.413 5.58085C16.3628 5.60111 16.3173 5.63162 16.2795 5.67044C16.2432 5.71068 16.2154 5.75788 16.1978 5.80918C16.1802 5.86049 16.1732 5.91483 16.1772 5.96892L18.5548 52.1333C18.567 52.2747 18.6303 52.4068 18.733 52.5047C18.8356 52.6026 18.9705 52.6596 19.1122 52.6649H45.6756C45.7294 52.6671 45.7831 52.6577 45.8331 52.6374C45.883 52.6171 45.928 52.5864 45.9652 52.5473C46.0024 52.5076 46.0308 52.4605 46.0484 52.4091C46.0661 52.3576 46.0726 52.303 46.0675 52.2488L43.692 6.08439C43.6804 5.94319 43.6175 5.81113 43.5152 5.71318C43.4129 5.61523 43.2783 5.55817 43.1368 5.55279H16.5713Z" fill="white"/>
<path opacity="0.3" d="M36.3861 22.3236C39.4074 19.2212 39.2107 14.1262 35.9467 10.9435C32.6827 7.76072 27.5875 7.69551 24.5662 10.7978C21.5449 13.9001 21.7417 18.9952 25.0057 22.1779C28.2696 25.3607 33.3649 25.4259 36.3861 22.3236Z" fill="white"/>
<path d="M36.9909 16.5621C37.0519 17.6327 36.8367 18.7011 36.366 19.6645C35.8566 20.6979 35.0657 21.5663 34.0846 22.1695C33.1034 22.7728 31.9719 23.0864 30.8204 23.0742C29.6271 23.0634 28.4569 22.7438 27.4236 22.1463C26.3904 21.5488 25.5293 20.6938 24.9242 19.6645C24.3603 18.7233 24.0358 17.658 23.9793 16.5621C23.9256 15.7216 24.0458 14.8791 24.3325 14.0872C24.6192 13.2954 25.0661 12.5713 25.6453 11.9602C26.2245 11.3491 26.9235 10.8643 27.6986 10.5359C28.4737 10.2076 29.3082 10.0429 30.1498 10.0521C31.9015 10.0704 33.5811 10.7522 34.8505 11.9601C36.1199 13.168 36.8847 14.8124 36.9909 16.5621Z" fill="white"/>
<path d="M36.3598 19.6639C35.8503 20.6973 35.0595 21.5657 34.0783 22.1689C33.0972 22.7722 31.9657 23.0858 30.8142 23.0736C29.6208 23.0629 28.4506 22.7432 27.4174 22.1457C26.3841 21.5482 25.5231 20.6932 24.918 19.6639C26.5726 18.5205 28.5377 17.9122 30.5485 17.921C32.6131 17.9288 34.6313 18.5341 36.3598 19.6639Z" fill="#FEE675"/>
<path d="M32.4928 16.4106C33.5813 15.293 33.51 13.457 32.3336 12.3098C31.1572 11.1627 29.3211 11.1388 28.2326 12.2565C27.1441 13.3742 27.2154 15.2102 28.3918 16.3573C29.5682 17.5045 31.4043 17.5283 32.4928 16.4106Z" fill="#FEE675"/>
<path d="M41.8707 35.8193H21.0707C20.8895 35.8174 20.7158 35.7469 20.5845 35.622C20.4532 35.4971 20.3741 35.327 20.3631 35.1461L20.2063 32.0959C20.2009 32.0091 20.2135 31.9222 20.2432 31.8405C20.2729 31.7588 20.3191 31.6841 20.379 31.6211C20.4389 31.5582 20.5111 31.5082 20.5912 31.4744C20.6712 31.4407 20.7574 31.4238 20.8443 31.4249H41.6442C41.825 31.4267 41.9985 31.4969 42.1297 31.6213C42.261 31.7458 42.3403 31.9153 42.3519 32.0959L42.5086 35.1461C42.5143 35.233 42.502 35.3202 42.4724 35.4021C42.4429 35.4841 42.3967 35.559 42.3368 35.6223C42.2768 35.6855 42.2045 35.7356 42.1243 35.7695C42.0441 35.8034 41.9577 35.8204 41.8707 35.8193Z" fill="white"/>
<path d="M35.5017 29.7406H26.8141C26.6322 29.7392 26.4577 29.6686 26.3258 29.5432C26.194 29.4178 26.1148 29.2469 26.1043 29.0652L26.0717 28.4115C26.066 28.3246 26.0783 28.2374 26.1079 28.1555C26.1374 28.0735 26.1836 27.9986 26.2435 27.9354C26.3035 27.8721 26.3758 27.822 26.456 27.7881C26.5362 27.7542 26.6226 27.7372 26.7096 27.7383H35.395C35.5761 27.7402 35.7499 27.8107 35.8812 27.9356C36.0125 28.0605 36.0916 28.2306 36.1026 28.4115L36.1374 29.0652C36.1428 29.1519 36.1303 29.2389 36.1008 29.3207C36.0712 29.4024 36.0252 29.4773 35.9657 29.5406C35.9061 29.6039 35.8342 29.6543 35.7544 29.6887C35.6746 29.7231 35.5886 29.7407 35.5017 29.7406Z" fill="#FEE675"/>
<path d="M38.7311 50.4847H25.7173C25.4091 50.4809 25.1138 50.3607 24.8905 50.1482C24.6672 49.9357 24.5324 49.6465 24.5132 49.3387L24.437 47.8354C24.4293 47.6877 24.4518 47.5399 24.5031 47.4012C24.5543 47.2624 24.6333 47.1355 24.7352 47.0283C24.837 46.921 24.9596 46.8357 25.0956 46.7774C25.2315 46.7192 25.3778 46.6893 25.5257 46.6895H38.5352C38.8434 46.6933 39.1387 46.8135 39.362 47.026C39.5853 47.2385 39.72 47.5277 39.7393 47.8354L39.8155 49.3387C39.8231 49.4861 39.8008 49.6335 39.7498 49.772C39.6988 49.9105 39.6202 50.0372 39.5188 50.1443C39.4174 50.2515 39.2953 50.3369 39.1599 50.3955C39.0245 50.454 38.8786 50.4843 38.7311 50.4847Z" fill="#56ABA1"/>
<path d="M42.2517 43.1964H21.4496C21.2686 43.1941 21.0951 43.1234 20.9639 42.9986C20.8327 42.8738 20.7535 42.704 20.742 42.5232L20.5852 39.473C20.5798 39.3862 20.5924 39.2991 20.6221 39.2173C20.6518 39.1355 20.698 39.0607 20.7578 38.9976C20.8177 38.9344 20.8899 38.8843 20.9699 38.8502C21.05 38.8162 21.1362 38.7991 21.2232 38.7998H42.0231C42.2043 38.8017 42.378 38.8722 42.5093 38.9971C42.6406 39.122 42.7198 39.2921 42.7308 39.473L42.8897 42.5232C42.8948 42.61 42.882 42.6969 42.8522 42.7786C42.8224 42.8602 42.7761 42.9349 42.7164 42.998C42.6566 43.0611 42.5845 43.1113 42.5046 43.1454C42.4247 43.1795 42.3386 43.1969 42.2517 43.1964Z" fill="white"/>
<path d="M23.7076 33.6211C23.7136 33.7174 23.6997 33.8139 23.6667 33.9046C23.6338 33.9952 23.5825 34.0781 23.5161 34.148C23.4497 34.2179 23.3695 34.2734 23.2807 34.311C23.1919 34.3485 23.0964 34.3673 23 34.3662C22.7997 34.3639 22.6077 34.2857 22.4627 34.1475C22.3177 34.0092 22.2304 33.8212 22.2183 33.6211C22.212 33.525 22.2256 33.4285 22.2583 33.3379C22.291 33.2472 22.3421 33.1643 22.4083 33.0944C22.4746 33.0244 22.5546 32.9689 22.6432 32.9313C22.7319 32.8937 22.8274 32.8749 22.9237 32.876C23.1242 32.8784 23.3164 32.9565 23.4618 33.0947C23.6072 33.2328 23.695 33.4209 23.7076 33.6211Z" fill="#263238"/>
<path d="M26.0023 33.6211C26.0086 33.7173 25.995 33.8137 25.9623 33.9044C25.9296 33.995 25.8785 34.078 25.8122 34.1479C25.746 34.2179 25.666 34.2734 25.5773 34.311C25.4886 34.3485 25.3931 34.3674 25.2968 34.3662C25.0964 34.3644 24.9042 34.2864 24.7591 34.148C24.6139 34.0097 24.5268 33.8214 24.5152 33.6211C24.5089 33.525 24.5225 33.4285 24.5552 33.3379C24.5879 33.2472 24.639 33.1643 24.7052 33.0944C24.7715 33.0244 24.8514 32.9689 24.9401 32.9313C25.0288 32.8937 25.1243 32.8749 25.2206 32.876C25.4211 32.8779 25.6133 32.9559 25.7584 33.0942C25.9035 33.2326 25.9907 33.4209 26.0023 33.6211Z" fill="#263238"/>
<path d="M28.2817 33.6211C28.288 33.7173 28.2743 33.8137 28.2416 33.9044C28.2089 33.995 28.1579 34.078 28.0916 34.1479C28.0254 34.2179 27.9454 34.2734 27.8567 34.311C27.768 34.3485 27.6725 34.3674 27.5762 34.3662C27.3757 34.3639 27.1835 34.2858 27.0382 34.1476C26.8928 34.0094 26.805 33.8214 26.7924 33.6211C26.7864 33.5249 26.8003 33.4284 26.8332 33.3377C26.8662 33.2471 26.9175 33.1642 26.9839 33.0943C27.0503 33.0243 27.1304 32.9689 27.2192 32.9313C27.308 32.8938 27.4036 32.8749 27.5 32.876C27.7003 32.8784 27.8922 32.9566 28.0372 33.0948C28.1822 33.233 28.2696 33.4211 28.2817 33.6211Z" fill="#263238"/>
<path d="M30.5783 33.6211C30.5843 33.7172 30.5704 33.8135 30.5376 33.904C30.5048 33.9945 30.4537 34.0773 30.3875 34.1472C30.3213 34.2171 30.2415 34.2726 30.1529 34.3103C30.0644 34.348 29.9691 34.367 29.8728 34.3662C29.6723 34.3639 29.4801 34.2858 29.3348 34.1476C29.1894 34.0094 29.1016 33.8213 29.089 33.6211C29.083 33.525 29.0969 33.4287 29.1297 33.3382C29.1625 33.2477 29.2136 33.1649 29.2798 33.095C29.346 33.0251 29.4258 32.9696 29.5143 32.9319C29.6029 32.8943 29.6982 32.8752 29.7945 32.876C29.9949 32.8784 30.1871 32.9564 30.3325 33.0946C30.4779 33.2328 30.5657 33.4209 30.5783 33.6211Z" fill="#263238"/>
<path d="M24.0942 40.9942C24.1005 41.0904 24.0868 41.1868 24.0541 41.2774C24.0214 41.3681 23.9704 41.451 23.9041 41.521C23.8379 41.5909 23.7579 41.6464 23.6692 41.684C23.5805 41.7216 23.485 41.7404 23.3887 41.7393C23.1882 41.737 22.996 41.6589 22.8507 41.5207C22.7053 41.3825 22.6175 41.1944 22.6049 40.9942C22.5989 40.8979 22.6128 40.8014 22.6457 40.7108C22.6787 40.6201 22.73 40.5372 22.7964 40.4673C22.8628 40.3974 22.9429 40.3419 23.0317 40.3044C23.1205 40.2668 23.2161 40.248 23.3125 40.2491C23.5128 40.2515 23.7047 40.3296 23.8497 40.4679C23.9947 40.6061 24.0821 40.7941 24.0942 40.9942Z" fill="#263238"/>
<path d="M26.3834 40.9942C26.3893 41.0903 26.3755 41.1866 26.3427 41.2771C26.3099 41.3676 26.2588 41.4504 26.1926 41.5203C26.1264 41.5902 26.0466 41.6457 25.958 41.6834C25.8695 41.721 25.7741 41.7401 25.6779 41.7393C25.4774 41.737 25.2852 41.6589 25.1399 41.5207C24.9945 41.3825 24.9067 41.1944 24.8941 40.9942C24.8878 40.898 24.9014 40.8016 24.9341 40.7109C24.9668 40.6203 25.0179 40.5374 25.0841 40.4674C25.1504 40.3974 25.2303 40.3419 25.319 40.3044C25.4077 40.2668 25.5032 40.248 25.5995 40.2491C25.8 40.2514 25.9922 40.3295 26.1376 40.4677C26.283 40.6059 26.3707 40.794 26.3834 40.9942Z" fill="#263238"/>
<path d="M28.6724 40.9942C28.6784 41.0905 28.6645 41.1869 28.6316 41.2776C28.5986 41.3683 28.5473 41.4511 28.4809 41.5211C28.4145 41.591 28.3344 41.6465 28.2456 41.684C28.1568 41.7216 28.0612 41.7404 27.9648 41.7393C27.7644 41.7374 27.5721 41.6594 27.427 41.5211C27.2819 41.3828 27.1947 41.1944 27.1831 40.9942C27.1768 40.898 27.1905 40.8016 27.2232 40.7109C27.2559 40.6203 27.3069 40.5374 27.3732 40.4674C27.4394 40.3974 27.5194 40.3419 27.6081 40.3044C27.6968 40.2668 27.7923 40.248 27.8886 40.2491C28.0891 40.2514 28.2813 40.3295 28.4267 40.4677C28.572 40.6059 28.6598 40.794 28.6724 40.9942Z" fill="#263238"/>
<path d="M30.9574 40.9942C30.9637 41.0904 30.9501 41.1868 30.9174 41.2774C30.8847 41.3681 30.8336 41.451 30.7674 41.521C30.7012 41.5909 30.6212 41.6464 30.5325 41.684C30.4438 41.7216 30.3483 41.7404 30.252 41.7393C30.0515 41.737 29.8593 41.6589 29.7139 41.5207C29.5686 41.3825 29.4808 41.1944 29.4682 40.9942C29.4622 40.8979 29.4761 40.8014 29.509 40.7108C29.542 40.6201 29.5933 40.5372 29.6597 40.4673C29.7261 40.3974 29.8062 40.3419 29.895 40.3044C29.9838 40.2668 30.0794 40.248 30.1758 40.2491C30.3762 40.2509 30.5684 40.3289 30.7136 40.4673C30.8587 40.6056 30.9459 40.794 30.9574 40.9942Z" fill="#263238"/>
<path d="M33.2465 40.9942C33.2528 41.0903 33.2392 41.1868 33.2065 41.2774C33.1738 41.3681 33.1227 41.451 33.0565 41.5209C32.9902 41.5909 32.9102 41.6464 32.8216 41.684C32.7329 41.7216 32.6374 41.7404 32.541 41.7393C32.3406 41.7369 32.1484 41.6588 32.003 41.5206C31.8576 41.3825 31.7698 41.1944 31.7572 40.9942C31.7512 40.8981 31.7651 40.8018 31.7979 40.7113C31.8307 40.6208 31.8818 40.538 31.948 40.4681C32.0142 40.3982 32.094 40.3427 32.1826 40.305C32.2711 40.2673 32.3664 40.2483 32.4627 40.249C32.6632 40.2514 32.8554 40.3295 33.0007 40.4677C33.1461 40.6059 33.2339 40.7939 33.2465 40.9942Z" fill="#263238"/>
<path d="M35.5338 40.9942C35.5398 41.0905 35.5258 41.1869 35.4929 41.2776C35.4599 41.3683 35.4086 41.4511 35.3422 41.5211C35.2758 41.591 35.1957 41.6465 35.1069 41.684C35.0181 41.7216 34.9225 41.7404 34.8261 41.7393C34.6259 41.7369 34.4339 41.6587 34.2889 41.5205C34.1439 41.3823 34.0566 41.1942 34.0445 40.9942C34.0382 40.898 34.0518 40.8016 34.0845 40.7109C34.1172 40.6203 34.1683 40.5374 34.2345 40.4674C34.3007 40.3974 34.3807 40.3419 34.4694 40.3044C34.5581 40.2668 34.6536 40.248 34.7499 40.2491C34.9504 40.2514 35.1426 40.3295 35.288 40.4677C35.4333 40.6059 35.5211 40.794 35.5338 40.9942Z" fill="#263238"/>
<path d="M60.2863 15.6924C60.3407 15.7752 60.369 15.8187 60.4039 15.8776L60.5019 16.0388C60.565 16.1477 60.6216 16.2567 60.6761 16.3634C60.7849 16.5813 60.8938 16.7992 60.9809 17.017C61.1634 17.4497 61.3204 17.8928 61.4512 18.3439C61.7148 19.2349 61.8884 20.1502 61.9694 21.0759L61.9846 21.2481C61.9864 21.2829 61.9864 21.3178 61.9846 21.3526V21.4681C61.9882 21.6196 61.9795 21.7712 61.9585 21.9213C61.9167 22.1995 61.8437 22.4721 61.7408 22.7339C61.5495 23.2016 61.2961 23.6413 60.9874 24.0412C60.4116 24.779 59.7283 25.426 58.9603 25.9606L58.3594 25.2569C58.9062 24.6389 59.3905 23.9682 59.8051 23.2546C59.9917 22.9309 60.1379 22.5856 60.2406 22.2263C60.2822 22.0741 60.3063 21.9177 60.3124 21.7601C60.3191 21.6927 60.3191 21.6248 60.3124 21.5574V21.5117C60.3146 21.4914 60.3146 21.471 60.3124 21.4507L60.2863 21.2982C60.1463 20.4862 59.9484 19.6853 59.6941 18.9016C59.5678 18.5116 59.4132 18.1347 59.2586 17.7665C59.1824 17.5813 59.0953 17.4005 59.0082 17.2262L58.8732 16.9691L58.8057 16.8493L58.7491 16.7534L60.2863 15.6924Z" fill="#803E3C"/>
<path d="M58.2617 25.9645L59.0499 27.6312L59.6748 26.2216C59.6748 26.2216 59.1196 25.0016 58.3684 25.1149L58.2617 25.9645Z" fill="#7F3E3B"/>
<path d="M59.6128 27.7141L60.2398 26.6857L59.6737 26.2217L59.0488 27.6313L59.6128 27.7141Z" fill="#7F3E3B"/>
<path d="M56.0679 66.1504C56.2309 66.1463 56.393 66.1244 56.5513 66.085C56.5593 66.0826 56.5665 66.0781 56.5723 66.072C56.578 66.0659 56.582 66.0583 56.5839 66.0502C56.5853 66.0418 56.5841 66.0332 56.5806 66.0255C56.5772 66.0177 56.5715 66.0112 56.5643 66.0066C56.5012 65.9652 55.9482 65.6079 55.7348 65.7038C55.7111 65.7148 55.6908 65.7319 55.6759 65.7533C55.661 65.7748 55.652 65.7998 55.6499 65.8258C55.6433 65.8652 55.6464 65.9056 55.6589 65.9436C55.6714 65.9816 55.693 66.0159 55.7217 66.0436C55.8204 66.1199 55.9434 66.1578 56.0679 66.1504ZM56.4272 66.0219C56.1115 66.0872 55.872 66.0763 55.774 65.9914C55.754 65.9715 55.7393 65.9469 55.7313 65.9199C55.7233 65.8928 55.7223 65.8642 55.7283 65.8367C55.7283 65.7996 55.75 65.7887 55.7653 65.7822C55.8828 65.7299 56.2029 65.8846 56.4272 66.0219Z" fill="#3C8477"/>
<path d="M56.5421 66.0858H56.5639C56.5705 66.0816 56.5759 66.0758 56.5797 66.0689C56.5835 66.0621 56.5855 66.0544 56.5857 66.0466C56.5857 66.0248 56.5857 65.4998 56.3853 65.3233C56.3607 65.3012 56.3316 65.2847 56.3 65.2749C56.2684 65.2651 56.235 65.2623 56.2022 65.2666C56.1679 65.2669 56.1347 65.279 56.1081 65.3008C56.0815 65.3226 56.0633 65.3528 56.0563 65.3865C56.0149 65.5934 56.346 65.9856 56.5203 66.0858H56.5421ZM56.2306 65.3472C56.2482 65.3467 56.2658 65.3498 56.2822 65.3561C56.2987 65.3625 56.3137 65.3721 56.3264 65.3843C56.4414 65.5537 56.5008 65.7547 56.4964 65.9595C56.3221 65.82 56.1151 65.5237 56.1412 65.3995C56.1412 65.3799 56.1565 65.3538 56.211 65.3472H56.2306Z" fill="#3C8477"/>
<path d="M54.0137 65.2615C54.0188 65.2551 54.0221 65.2475 54.0233 65.2394C54.0244 65.2313 54.0234 65.223 54.0203 65.2155C54.0172 65.2079 54.0121 65.2013 54.0056 65.1964C53.999 65.1915 53.9913 65.1884 53.9832 65.1874C53.8939 65.1874 53.1123 65.1504 52.9337 65.3421V65.3552C52.919 65.3741 52.9094 65.3964 52.906 65.4201C52.9025 65.4438 52.9053 65.468 52.9141 65.4903C52.9258 65.5277 52.9463 65.5617 52.974 65.5894C53.0017 65.6171 53.0357 65.6377 53.0731 65.6493C53.3256 65.7278 53.772 65.4424 54.0159 65.2659L54.0137 65.2615ZM52.999 65.3988C53.097 65.2942 53.5281 65.2659 53.8504 65.2702C53.5129 65.5012 53.232 65.6101 53.0905 65.5665C53.0658 65.5591 53.0434 65.5456 53.0251 65.5273C53.0069 65.5091 52.9935 65.4867 52.986 65.462C52.9816 65.4536 52.9793 65.4442 52.9793 65.4347C52.9793 65.4252 52.9816 65.4159 52.986 65.4075L52.999 65.3988Z" fill="#3C8477"/>
<path d="M54.0124 65.2618C54.0157 65.255 54.0174 65.2476 54.0174 65.24C54.0174 65.2325 54.0157 65.225 54.0124 65.2183C54.0016 65.2008 53.7577 64.7825 53.4703 64.6954C53.429 64.6833 53.3857 64.6797 53.343 64.685C53.3004 64.6902 53.2592 64.7041 53.2221 64.7259C53.1176 64.7869 53.111 64.8588 53.1241 64.9045C53.1807 65.1071 53.7359 65.2858 53.9754 65.2836C53.983 65.2835 53.9903 65.2814 53.9968 65.2776C54.0033 65.2738 54.0087 65.2683 54.0124 65.2618ZM53.2308 64.8261C53.2431 64.814 53.257 64.8038 53.2722 64.7956C53.299 64.7784 53.3293 64.7674 53.3609 64.7633C53.3925 64.7591 53.4247 64.762 53.455 64.7716C53.6445 64.8217 53.8208 65.0657 53.9014 65.1856C53.6423 65.1572 53.2482 64.9982 53.2155 64.8762C53.2128 64.8669 53.2127 64.8571 53.2154 64.8478C53.2181 64.8385 53.2235 64.8302 53.2308 64.8239V64.8261Z" fill="#3C8477"/>
<path d="M56.4107 9.31055C56.193 10.3999 55.7227 12.7551 56.4782 13.4784C56.4782 13.4784 56.1821 14.5677 54.1724 14.5677C51.9603 14.5677 53.1164 13.4784 53.1164 13.4784C54.3227 13.1908 54.2922 12.2932 54.081 11.4522L56.4107 9.31055Z" fill="#7F3E3B"/>
<path d="M52.7272 6.75743C52.7395 6.75942 52.752 6.75942 52.7643 6.75743C52.7746 6.75234 52.7838 6.74524 52.7914 6.73655C52.799 6.72786 52.8048 6.71775 52.8084 6.7068C52.8121 6.69586 52.8135 6.6843 52.8127 6.67279C52.8118 6.66129 52.8087 6.65007 52.8035 6.63978C52.7449 6.51551 52.6574 6.4071 52.5483 6.3237C52.4391 6.24029 52.3116 6.18431 52.1764 6.16047C52.1537 6.15857 52.1312 6.1654 52.1134 6.17958C52.0956 6.19375 52.0838 6.21419 52.0806 6.23672C52.0781 6.25952 52.0847 6.28237 52.099 6.30031C52.1133 6.31825 52.134 6.32985 52.1568 6.33259C52.2635 6.35309 52.3639 6.39877 52.4494 6.46584C52.535 6.53291 52.6034 6.61942 52.6489 6.71821C52.6573 6.7311 52.669 6.74152 52.6828 6.74841C52.6965 6.7553 52.7119 6.75841 52.7272 6.75743Z" fill="#263238"/>
<path d="M52.0678 7.71387C51.8963 8.0319 51.6823 8.32509 51.4316 8.58535C51.4995 8.64743 51.58 8.69401 51.6677 8.72185C51.7554 8.74969 51.848 8.75813 51.9393 8.74657L52.0678 7.71387Z" fill="#630F0F"/>
<path d="M52.2301 7.4678C52.2127 7.61377 52.119 7.72271 52.0253 7.71182C51.9316 7.70092 51.8662 7.57238 51.8837 7.4264C51.9011 7.28043 51.9948 7.1715 52.1015 7.18239C52.2083 7.19328 52.2453 7.32183 52.2301 7.4678Z" fill="#263238"/>
<path d="M52.1304 7.19465L51.7949 7.05957C51.7949 7.05957 51.9365 7.34716 52.1304 7.19465Z" fill="#263238"/>
<path d="M55.9348 64.848L54.1581 65.2619L53.0781 61.1747L54.8548 60.7607L55.9348 64.848Z" fill="#7F3E3B"/>
<path d="M58.6623 66.0419H56.8398L56.9814 61.8174H58.806L58.6623 66.0419Z" fill="#7F3E3B"/>
<path d="M56.6931 65.8301H58.742C58.7775 65.8298 58.8119 65.8424 58.8388 65.8657C58.8656 65.889 58.8831 65.9212 58.8878 65.9564L59.1208 67.5774C59.1254 67.6184 59.1213 67.6599 59.1087 67.6992C59.0961 67.7385 59.0754 67.7746 59.0478 67.8053C59.0202 67.836 58.9865 67.8605 58.9488 67.8771C58.9111 67.8938 58.8703 67.9023 58.829 67.902C58.1149 67.8911 57.7709 67.8476 56.8695 67.8476C56.3142 67.8476 55.5043 67.9064 54.74 67.9064C53.9758 67.9064 53.9322 67.1482 54.2523 67.0807C55.6806 66.7713 55.9071 66.3486 56.3883 65.9434C56.4733 65.8707 56.5813 65.8306 56.6931 65.8301Z" fill="#263238"/>
<path d="M54.0029 64.9894L55.8645 64.1331C55.8961 64.1181 55.9321 64.115 55.9658 64.1247C55.9995 64.1343 56.0285 64.1559 56.0474 64.1854L56.9379 65.5624C56.9587 65.5978 56.9719 65.6372 56.9765 65.678C56.9811 65.7189 56.9772 65.7602 56.9649 65.7994C56.9526 65.8386 56.9322 65.8748 56.905 65.9057C56.8779 65.9365 56.8446 65.9613 56.8073 65.9785C56.1541 66.2661 55.8231 66.3728 55.0045 66.7498C54.5015 66.9807 53.4803 67.5123 52.7879 67.8391C52.0955 68.1659 51.7385 67.4883 51.9997 67.2922C53.169 66.4208 53.5043 65.7955 53.7721 65.2268C53.8174 65.1221 53.8995 65.0376 54.0029 64.9894Z" fill="#263238"/>
<path opacity="0.2" d="M53.0781 61.1747L53.6573 63.3665L55.4122 62.8675L54.857 60.7607L53.0781 61.1747Z" fill="black"/>
<path opacity="0.2" d="M58.8066 61.8174H56.982L56.9102 63.9961H58.7348L58.8066 61.8174Z" fill="black"/>
<path d="M59.6328 13.8927C60.3905 14.0605 61.2005 16.786 61.2005 16.786L59.058 19.0671C59.058 19.0671 57.2791 16.505 57.6428 15.5638C58.0107 14.5812 58.7292 13.6966 59.6328 13.8927Z" fill="#263238"/>
<path opacity="0.4" d="M58.4223 15.6288C58.0391 15.278 57.78 15.3826 57.6036 15.6615C57.4294 16.4719 58.4615 18.1691 58.8773 18.8119C59.0689 18.045 59.2888 16.4284 58.4223 15.6288Z" fill="black"/>
<path d="M50.0341 13.9469C50.0341 13.9469 49.1632 14.2519 50.9051 24.9602H58.308C58.1839 21.9449 58.1795 20.0843 59.6144 13.8924C58.577 13.6783 57.5255 13.5399 56.4681 13.4785C55.349 13.3978 54.2255 13.3978 53.1063 13.4785C51.6715 13.6114 50.0341 13.9469 50.0341 13.9469Z" fill="#263238"/>
<path opacity="0.4" d="M49.9668 18.0561C50.0147 18.5768 50.0778 19.1629 50.1606 19.8252C50.768 19.2783 51.2645 17.7227 51.0816 16.8164C50.6476 17.1689 50.2714 17.5872 49.9668 18.0561Z" fill="black"/>
<path d="M50.7577 16.4283C50.3582 17.4344 49.9084 18.4197 49.4099 19.3805C48.9172 20.3759 48.3341 21.324 47.6681 22.2128L47.5287 22.3849L47.4591 22.4699C47.4351 22.4982 47.4155 22.5243 47.3785 22.5635C47.2475 22.7066 47.1015 22.8351 46.943 22.947C46.663 23.141 46.3565 23.2936 46.0329 23.4002C45.4687 23.5805 44.8829 23.6845 44.2911 23.7095C43.1827 23.7536 42.0733 23.6548 40.9902 23.4154L41.11 22.5004C41.6108 22.5004 42.1355 22.5004 42.6341 22.459C43.1349 22.4343 43.6337 22.379 44.1278 22.2934C44.5866 22.2217 45.0354 22.096 45.4646 21.9186C45.638 21.8445 45.8 21.7463 45.9458 21.6267C46.0015 21.5801 46.0518 21.5274 46.0961 21.4698C46.0961 21.4698 46.1222 21.435 46.1396 21.411L46.1897 21.3391L46.292 21.1953C46.8384 20.3509 47.3251 19.4693 47.7487 18.5569C48.1841 17.631 48.6196 16.6702 49.018 15.7246L50.7577 16.4283Z" fill="#803E3C"/>
<path d="M50.0325 13.947C49.1246 14.1648 48.0098 16.6573 48.0098 16.6573L49.891 19.4242C49.891 19.4242 52.3971 16.2673 52.0988 15.3043C51.794 14.2999 51.1408 13.6768 50.0325 13.947Z" fill="#263238"/>
<path d="M41.6329 22.6396L40.063 21.9141L39.9062 23.4762C39.9062 23.4762 41.2126 23.8618 41.8658 23.4762L41.6329 22.6396Z" fill="#7F3E3B"/>
<path d="M39.1248 21.7578L38.9746 22.9474L39.9065 23.4768L40.0633 21.9147L39.1248 21.7578Z" fill="#7F3E3B"/>
<path d="M57.1994 7.57423C56.8662 9.35422 56.7639 10.1168 55.7449 10.9251C54.2208 12.1408 52.0979 11.3434 51.8932 9.5002C51.706 7.84003 52.2808 5.20816 54.125 4.70706C54.5312 4.59491 54.9594 4.58877 55.3687 4.68922C55.778 4.78966 56.1547 4.99335 56.463 5.28086C56.7713 5.56836 57.0008 5.93009 57.1297 6.33156C57.2586 6.73303 57.2826 7.16085 57.1994 7.57423Z" fill="#7F3E3B"/>
<path d="M53.2909 7.94897C53.1885 8.85749 53.1493 11.217 55.1438 11.2911C57.5845 11.3804 58.3161 9.29323 58.0984 8.45879C59.3699 7.42391 59.5528 5.64391 58.1245 4.28223C56.6962 2.92054 53.5521 3.68091 52.6812 5.00773C51.5773 6.65265 53.2909 7.94897 53.2909 7.94897Z" fill="#263238"/>
<path d="M55.7343 4.81213C55.6167 3.8535 55.7082 3.19336 56.6052 3.19336C57.5023 3.19336 58.7259 3.51798 59.1744 4.43522C59.623 5.35245 59.66 6.78821 58.408 6.64224C57.1561 6.49626 55.8758 5.95813 55.7343 4.81213Z" fill="#86C3BB"/>
<path d="M57.1243 4.58078C56.9065 3.43915 57.9277 0.223391 60.4077 0.0055211C61.5573 -0.0925203 62.0886 1.14498 61.4963 1.34978C62.585 1.3367 63.2817 2.77682 62.2671 2.99251C63.0683 3.50669 62.8702 4.56118 61.7271 5.07971C60.8758 5.47187 57.4182 6.16252 57.1243 4.58078Z" fill="#263238"/>
<path d="M59.7742 5.80681C58.9752 5.80681 58.1413 5.68916 57.6231 5.34275C57.4782 5.25535 57.3562 5.13466 57.2672 4.99069C57.1782 4.84671 57.1248 4.68359 57.1114 4.51484C57.1107 4.50052 57.1155 4.48648 57.1248 4.47556C57.1341 4.46464 57.1472 4.45766 57.1615 4.45602C57.1687 4.45511 57.176 4.45571 57.183 4.45779C57.1899 4.45986 57.1964 4.46337 57.2019 4.46809C57.2074 4.4728 57.2119 4.47862 57.2151 4.48517C57.2182 4.49172 57.22 4.49886 57.2203 4.50613C57.2334 4.65841 57.2822 4.80545 57.3628 4.93529C57.4434 5.06514 57.5534 5.17414 57.684 5.25342C58.6703 5.90703 60.95 5.68916 61.6598 5.47129C62.2738 5.27085 62.6897 4.88086 62.7724 4.43205C62.7982 4.26736 62.7779 4.09873 62.7137 3.94489C62.6495 3.79105 62.544 3.65802 62.4088 3.56057C62.4036 3.55568 62.3995 3.54978 62.3966 3.54322C62.3938 3.53666 62.3923 3.52959 62.3923 3.52245C62.3923 3.5153 62.3938 3.50823 62.3966 3.50167C62.3995 3.49512 62.4036 3.48921 62.4088 3.48432C62.419 3.47434 62.4327 3.46875 62.4469 3.46875C62.4612 3.46875 62.4748 3.47434 62.485 3.48432C62.637 3.59528 62.7552 3.74635 62.8263 3.92063C62.8974 4.09492 62.9187 4.28557 62.8878 4.47127C62.7986 4.96148 62.3566 5.37979 61.7034 5.5933C61.0731 5.75228 60.424 5.82411 59.7742 5.80681Z" fill="#263238"/>
<path d="M52.735 7.71382C52.5323 7.99841 52.4487 8.35101 52.5021 8.69641C52.5739 9.15394 53.0181 9.18444 53.3403 8.8925C53.6626 8.60055 53.9435 8.07331 53.7061 7.69421C53.6534 7.61232 53.5806 7.5453 53.4946 7.49953C53.4087 7.45376 53.3125 7.43077 53.2151 7.43273C53.1178 7.4347 53.0226 7.46156 52.9385 7.51076C52.8545 7.55996 52.7844 7.62987 52.735 7.71382Z" fill="#7F3E3B"/>
<path d="M52.8594 24.96C52.8594 24.96 53.9175 37.4853 55.0171 44.5443C55.9033 50.2459 56.6044 63.573 56.6044 63.573H59.0909C59.0909 63.573 59.9749 50.6446 59.5263 45.0062C58.3876 30.7357 60.9285 29.5723 58.3136 24.9621L52.8594 24.96Z" fill="#9FCFC9"/>
<path opacity="0.4" d="M55.9902 29.6943C55.0048 30.7292 54.2095 31.9299 53.6409 33.2413C53.9305 36.0561 54.2745 39.1804 54.6403 41.9168C56.1412 38.0286 56.6064 33.8167 55.9902 29.6943Z" fill="black"/>
<path d="M51.1194 24.8818C51.1194 24.8818 48.8224 38.5619 48.4609 44.7276C49.3623 50.4292 53.0507 62.4818 53.0507 62.4818L55.313 61.6604C55.313 61.6604 54.061 48.5185 52.7002 44.9215C55.7637 34.601 58.015 31.9909 57.3597 24.9603C55.7898 24.9603 51.1194 24.8818 51.1194 24.8818Z" fill="#9FCFC9"/>
<path d="M52.7491 63.0834L55.8061 62.2533L55.6319 61.0332L52.3594 61.9199L52.7491 63.0834Z" fill="#263238"/>
<path d="M56.2616 63.6238H59.4296L59.595 62.5127L56.2441 62.3994L56.2616 63.6238Z" fill="#263238"/>
<path d="M58.4229 24.5246L58.7561 25.1891C58.7822 25.2413 58.7212 25.2936 58.6363 25.2936H50.8676C50.8023 25.2936 50.7457 25.261 50.7413 25.2174L50.6738 24.5638C50.6738 24.518 50.7283 24.4788 50.8001 24.4788H58.301C58.3235 24.4757 58.3464 24.4783 58.3677 24.4863C58.389 24.4943 58.408 24.5074 58.4229 24.5246Z" fill="#86C3BB"/>
<path opacity="0.5" d="M58.4229 24.5246L58.7561 25.1891C58.7822 25.2413 58.7212 25.2936 58.6363 25.2936H50.8676C50.8023 25.2936 50.7457 25.261 50.7413 25.2174L50.6738 24.5638C50.6738 24.518 50.7283 24.4788 50.8001 24.4788H58.301C58.3235 24.4757 58.3464 24.4783 58.3677 24.4863C58.389 24.4943 58.408 24.5074 58.4229 24.5246Z" fill="black"/>
<path d="M57.4144 25.3614H57.6149C57.6563 25.3614 57.6868 25.3396 57.6846 25.3157L57.5887 24.4442C57.5887 24.418 57.5517 24.3984 57.5125 24.3984H57.3098C57.2706 24.3984 57.2401 24.418 57.2423 24.4442L57.336 25.3157C57.3403 25.344 57.3752 25.3614 57.4144 25.3614Z" fill="#3C8477"/>
<path d="M54.7196 19.0166C54.6956 19.0163 54.6723 19.0083 54.6531 18.9938C54.6339 18.9793 54.6198 18.9591 54.6129 18.936C53.9031 16.3085 52.4356 14.1429 51.7236 13.8161C51.6683 13.7821 51.6018 13.7711 51.5385 13.7856C51.5254 13.7925 51.511 13.7967 51.4961 13.7978C51.4813 13.799 51.4664 13.7971 51.4524 13.7922C51.4383 13.7874 51.4254 13.7797 51.4144 13.7697C51.4034 13.7597 51.3946 13.7475 51.3885 13.734C51.3824 13.7204 51.3791 13.7057 51.3789 13.6909C51.3787 13.676 51.3815 13.6612 51.3872 13.6475C51.3929 13.6338 51.4013 13.6213 51.412 13.611C51.4227 13.6006 51.4354 13.5926 51.4493 13.5873C51.5088 13.5655 51.5723 13.5569 51.6355 13.5621C51.6987 13.5674 51.76 13.5864 51.815 13.6178C52.5684 13.9751 54.0577 16.1103 54.8023 18.7966C55.3358 18.7966 56.1588 18.7247 56.3591 18.7073C56.6073 18.411 58.4319 16.1277 57.7504 13.6287C57.7465 13.615 57.7454 13.6006 57.7471 13.5864C57.7488 13.5722 57.7533 13.5585 57.7604 13.5461C57.7675 13.5338 57.7771 13.5229 57.7884 13.5143C57.7998 13.5056 57.8128 13.4994 57.8266 13.4958C57.8544 13.4885 57.8838 13.4924 57.9087 13.5066C57.9336 13.5209 57.9518 13.5444 57.9595 13.5721C58.7193 16.3521 56.5159 18.8598 56.4919 18.8837C56.4834 18.8943 56.4729 18.903 56.4609 18.9094C56.4489 18.9158 56.4358 18.9196 56.4223 18.9208C56.4114 18.9208 55.3249 19.0166 54.7196 19.0166Z" fill="#FEE989"/>
<path d="M58.3271 20.5548C57.1405 18.3304 56.6549 18.1735 56.4437 17.4589C56.6037 17.0593 56.8321 16.6907 57.1187 16.3696C56.975 16.3282 56.6658 16.2672 56.4655 16.2301C56.4873 16.1321 56.5112 16.0362 56.533 15.9425C56.315 15.9181 56.0945 15.9284 55.8798 15.973V15.7552C55.6032 15.695 55.3192 15.6766 55.0372 15.7007C55.0618 15.8038 55.0858 15.9084 55.109 16.0144C54.8913 16.0558 54.5603 16.1234 54.4014 16.1691C54.7102 16.5191 54.9371 16.9337 55.0655 17.3827C54.4253 18.4829 51.9388 25.555 55.9843 26.0974C60.0298 26.6399 59.5116 22.7815 58.3271 20.5548Z" fill="#FEED9C"/>
<path opacity="0.4" d="M58.3271 20.5548C57.1405 18.3304 56.6549 18.1735 56.4437 17.4589C56.6037 17.0593 56.8321 16.6907 57.1187 16.3696C56.975 16.3282 56.6658 16.2672 56.4655 16.2301C56.4873 16.1321 56.5112 16.0362 56.533 15.9425C56.315 15.9181 56.0945 15.9284 55.8798 15.973V15.7552C55.6032 15.695 55.3192 15.6766 55.0372 15.7007C55.0618 15.8038 55.0858 15.9084 55.109 16.0144C54.8913 16.0558 54.5603 16.1234 54.4014 16.1691C54.7102 16.5191 54.9371 16.9337 55.0655 17.3827C54.4253 18.4829 51.9388 25.555 55.9843 26.0974C60.0298 26.6399 59.5116 22.7815 58.3271 20.5548Z" fill="white"/>
<path d="M54.9005 17.1716C54.8753 17.2837 54.8643 17.3987 54.8678 17.5136C54.8678 17.5942 55.0856 17.6487 55.3272 17.6727C55.5689 17.6966 56.5836 17.7358 56.5509 17.6225C56.5182 17.5092 56.601 17.3546 56.6053 17.2587C56.6097 17.1628 56.2025 17.1585 55.8607 17.1716C55.5188 17.1846 54.968 17.0495 54.9005 17.1716Z" fill="#86C3BB"/>
<path d="M52.5466 25.3614H52.747C52.7862 25.3614 52.8167 25.3396 52.8145 25.3157L52.7208 24.4442C52.7208 24.418 52.6838 24.3984 52.6424 24.3984H52.4485C52.4093 24.3984 52.3788 24.418 52.381 24.4442L52.4747 25.3157C52.4703 25.344 52.5052 25.3614 52.5466 25.3614Z" fill="#3C8477"/>
</svg>
