<svg width="185" height="166" viewBox="0 0 185 166" fill="none" xmlns="http://www.w3.org/2000/svg">
<path d="M92.9124 165.56C143.771 165.56 185.001 163.151 185.001 160.18C185.001 157.209 143.771 154.8 92.9124 154.8C42.0535 154.8 0.824219 157.209 0.824219 160.18C0.824219 163.151 42.0535 165.56 92.9124 165.56Z" fill="#F5F5F5"/>
<path d="M34.3058 56.2426C31.1664 56.2426 29.6893 53.0822 29.6276 52.9491C29.5738 52.8012 29.5776 52.6384 29.6382 52.4931C29.6988 52.3479 29.8118 52.2307 29.9547 52.1649C30.0976 52.0991 30.26 52.0894 30.4097 52.1378C30.5593 52.1863 30.6854 52.2892 30.7627 52.4263C30.7627 52.4691 32.0118 55.0592 34.4008 54.9927C34.5579 55.0015 34.7058 55.0691 34.8154 55.1821C34.9249 55.295 34.9881 55.445 34.9923 55.6023C34.9964 55.7596 34.9414 55.9128 34.838 56.0314C34.7346 56.15 34.5904 56.2254 34.4341 56.2426H34.3058Z" fill="#FEE675"/>
<path d="M75.3369 12.3535C75.0637 12.3547 74.7908 12.3373 74.52 12.3012C74.4389 12.2891 74.361 12.261 74.2908 12.2187C74.2205 12.1764 74.1593 12.1207 74.1105 12.0547C74.0618 11.9888 74.0265 11.9138 74.0067 11.8342C73.987 11.7546 73.983 11.6719 73.9952 11.5907C74.0074 11.5096 74.0354 11.4317 74.0776 11.3614C74.1199 11.2911 74.1756 11.2298 74.2415 11.181C74.3075 11.1322 74.3823 11.097 74.4619 11.0771C74.5415 11.0573 74.6242 11.0534 74.7052 11.0656C74.7337 11.0656 77.5929 11.4695 78.8468 9.43072C78.8895 9.36082 78.9456 9.30002 79.0118 9.25181C79.078 9.20359 79.1531 9.16889 79.2327 9.14969C79.3123 9.13049 79.3949 9.12717 79.4758 9.13992C79.5566 9.15267 79.6342 9.18124 79.7041 9.22399C79.774 9.26674 79.8347 9.32284 79.8829 9.38908C79.9311 9.45533 79.9658 9.53043 79.9849 9.61008C80.0041 9.68974 80.0074 9.7724 79.9947 9.85334C79.982 9.93428 79.9534 10.0119 79.9107 10.0818C78.6616 12.0589 76.5006 12.3535 75.3369 12.3535Z" fill="#FEE675"/>
<path opacity="0.6" d="M75.3369 12.3535C75.0637 12.3547 74.7908 12.3373 74.52 12.3012C74.4389 12.2891 74.361 12.261 74.2908 12.2187C74.2205 12.1764 74.1593 12.1207 74.1105 12.0547C74.0618 11.9888 74.0265 11.9138 74.0067 11.8342C73.987 11.7546 73.983 11.6719 73.9952 11.5907C74.0074 11.5096 74.0354 11.4317 74.0776 11.3614C74.1199 11.2911 74.1756 11.2298 74.2415 11.181C74.3075 11.1322 74.3823 11.097 74.4619 11.0771C74.5415 11.0573 74.6242 11.0534 74.7052 11.0656C74.7337 11.0656 77.5929 11.4695 78.8468 9.43072C78.8895 9.36082 78.9456 9.30002 79.0118 9.25181C79.078 9.20359 79.1531 9.16889 79.2327 9.14969C79.3123 9.13049 79.3949 9.12717 79.4758 9.13992C79.5566 9.15267 79.6342 9.18124 79.7041 9.22399C79.774 9.26674 79.8347 9.32284 79.8829 9.38908C79.9311 9.45533 79.9658 9.53043 79.9849 9.61008C80.0041 9.68974 80.0074 9.7724 79.9947 9.85334C79.982 9.93428 79.9534 10.0119 79.9107 10.0818C78.6616 12.0589 76.5006 12.3535 75.3369 12.3535Z" fill="white"/>
<path d="M4.85565 36.1538C3.65064 36.1128 2.48039 35.7394 1.474 35.075C1.403 35.0295 1.342 34.97 1.29468 34.9001C1.24737 34.8303 1.21473 34.7516 1.19876 34.6687C1.18279 34.5859 1.18382 34.5006 1.20178 34.4182C1.21973 34.3358 1.25425 34.2578 1.30323 34.1892C1.35221 34.1205 1.41463 34.0625 1.4867 34.0187C1.55877 33.9749 1.63899 33.9462 1.72248 33.9344C1.80597 33.9225 1.89099 33.9278 1.97237 33.9499C2.05376 33.9719 2.12982 34.0103 2.19593 34.0627C2.21967 34.0627 4.61342 35.6833 6.63196 34.3954C6.7011 34.3451 6.77978 34.3095 6.86318 34.2907C6.94658 34.2719 7.03293 34.2704 7.11693 34.2863C7.20093 34.3022 7.2808 34.335 7.35163 34.3829C7.42246 34.4308 7.48276 34.4927 7.52882 34.5647C7.57488 34.6368 7.60573 34.7175 7.61947 34.8019C7.63321 34.8863 7.62955 34.9727 7.60872 35.0556C7.58788 35.1386 7.55032 35.2164 7.49833 35.2843C7.44634 35.3522 7.38102 35.4087 7.3064 35.4504C6.57472 35.9173 5.72337 36.1616 4.85565 36.1538Z" fill="#FEE675"/>
<path opacity="0.6" d="M4.85565 36.1538C3.65064 36.1128 2.48039 35.7394 1.474 35.075C1.403 35.0295 1.342 34.97 1.29468 34.9001C1.24737 34.8303 1.21473 34.7516 1.19876 34.6687C1.18279 34.5859 1.18382 34.5006 1.20178 34.4182C1.21973 34.3358 1.25425 34.2578 1.30323 34.1892C1.35221 34.1205 1.41463 34.0625 1.4867 34.0187C1.55877 33.9749 1.63899 33.9462 1.72248 33.9344C1.80597 33.9225 1.89099 33.9278 1.97237 33.9499C2.05376 33.9719 2.12982 34.0103 2.19593 34.0627C2.21967 34.0627 4.61342 35.6833 6.63196 34.3954C6.7011 34.3451 6.77978 34.3095 6.86318 34.2907C6.94658 34.2719 7.03293 34.2704 7.11693 34.2863C7.20093 34.3022 7.2808 34.335 7.35163 34.3829C7.42246 34.4308 7.48276 34.4927 7.52882 34.5647C7.57488 34.6368 7.60573 34.7175 7.61947 34.8019C7.63321 34.8863 7.62955 34.9727 7.60872 35.0556C7.58788 35.1386 7.55032 35.2164 7.49833 35.2843C7.44634 35.3522 7.38102 35.4087 7.3064 35.4504C6.57472 35.9173 5.72337 36.1616 4.85565 36.1538Z" fill="white"/>
<path d="M167.777 19.4871C166.574 19.4546 165.403 19.093 164.39 18.4415C164.254 18.3476 164.161 18.2035 164.131 18.0408C164.101 17.8782 164.137 17.7103 164.231 17.5742C164.325 17.438 164.469 17.3448 164.632 17.3149C164.794 17.2851 164.962 17.3211 165.098 17.415C165.122 17.415 167.52 19.0308 169.539 17.7476C169.608 17.7036 169.685 17.6737 169.765 17.6594C169.846 17.6451 169.928 17.6469 170.008 17.6645C170.088 17.6822 170.163 17.7154 170.23 17.7623C170.297 17.8092 170.355 17.8688 170.399 17.9377C170.443 18.0067 170.472 18.0837 170.487 18.1642C170.501 18.2448 170.499 18.3273 170.482 18.4072C170.464 18.4871 170.431 18.5627 170.384 18.6297C170.337 18.6968 170.277 18.7539 170.209 18.7979C169.482 19.2587 168.637 19.4982 167.777 19.4871Z" fill="#FEE675"/>
<path opacity="0.6" d="M167.777 19.4871C166.574 19.4546 165.403 19.093 164.39 18.4415C164.254 18.3476 164.161 18.2035 164.131 18.0408C164.101 17.8782 164.137 17.7103 164.231 17.5742C164.325 17.438 164.469 17.3448 164.632 17.3149C164.794 17.2851 164.962 17.3211 165.098 17.415C165.122 17.415 167.52 19.0308 169.539 17.7476C169.608 17.7036 169.685 17.6737 169.765 17.6594C169.846 17.6451 169.928 17.6469 170.008 17.6645C170.088 17.6822 170.163 17.7154 170.23 17.7623C170.297 17.8092 170.355 17.8688 170.399 17.9377C170.443 18.0067 170.472 18.0837 170.487 18.1642C170.501 18.2448 170.499 18.3273 170.482 18.4072C170.464 18.4871 170.431 18.5627 170.384 18.6297C170.337 18.6968 170.277 18.7539 170.209 18.7979C169.482 19.2587 168.637 19.4982 167.777 19.4871Z" fill="white"/>
<path d="M91.3948 68.5752C88.4834 68.5752 86.897 65.7522 86.8258 65.6239C86.7458 65.4789 86.7266 65.3081 86.7725 65.149C86.8184 64.9899 86.9255 64.8556 87.0704 64.7755C87.2152 64.6955 87.3859 64.6763 87.5449 64.7222C87.7039 64.7681 87.8382 64.8753 87.9182 65.0203C87.9182 65.0583 89.343 67.5486 91.7178 67.3063C91.8766 67.3008 92.0315 67.3558 92.1513 67.4602C92.2711 67.5647 92.3468 67.7107 92.3631 67.8689C92.3794 68.027 92.335 68.1855 92.239 68.3122C92.1431 68.4389 92.0026 68.5244 91.846 68.5514C91.7035 68.5657 91.5468 68.5752 91.3948 68.5752Z" fill="#FEE675"/>
<path opacity="0.6" d="M91.3948 68.5752C88.4834 68.5752 86.897 65.7522 86.8258 65.6239C86.7458 65.4789 86.7266 65.3081 86.7725 65.149C86.8184 64.9899 86.9255 64.8556 87.0704 64.7755C87.2152 64.6955 87.3859 64.6763 87.5449 64.7222C87.7039 64.7681 87.8382 64.8753 87.9182 65.0203C87.9182 65.0583 89.343 67.5486 91.7178 67.3063C91.8766 67.3008 92.0315 67.3558 92.1513 67.4602C92.2711 67.5647 92.3468 67.7107 92.3631 67.8689C92.3794 68.027 92.335 68.1855 92.239 68.3122C92.1431 68.4389 92.0026 68.5244 91.846 68.5514C91.7035 68.5657 91.5468 68.5752 91.3948 68.5752Z" fill="white"/>
<path d="M11.6951 81.2697C11.5438 81.2684 11.3982 81.2121 11.2855 81.1112C11.1727 81.0103 11.1006 80.8717 11.0826 80.7214C11.0645 80.5712 11.1018 80.4195 11.1874 80.2947C11.2731 80.1699 11.4012 80.0807 11.5478 80.0436C11.5763 80.0436 14.3643 79.3069 14.7442 76.9402C14.7573 76.8594 14.7862 76.7819 14.8292 76.7123C14.8722 76.6426 14.9285 76.5821 14.9949 76.5342C15.0613 76.4864 15.1364 76.452 15.2161 76.4332C15.2957 76.4144 15.3783 76.4114 15.459 76.4245C15.5398 76.4377 15.6172 76.4665 15.6868 76.5096C15.7564 76.5526 15.8169 76.609 15.8647 76.6754C15.9126 76.7418 15.9469 76.817 15.9657 76.8967C15.9845 76.9764 15.9875 77.059 15.9744 77.1398C15.4662 80.3287 11.9943 81.2174 11.847 81.2555C11.7969 81.2649 11.7461 81.2697 11.6951 81.2697Z" fill="#FEE675"/>
<path opacity="0.6" d="M11.6951 81.2697C11.5438 81.2684 11.3982 81.2121 11.2855 81.1112C11.1727 81.0103 11.1006 80.8717 11.0826 80.7214C11.0645 80.5712 11.1018 80.4195 11.1874 80.2947C11.2731 80.1699 11.4012 80.0807 11.5478 80.0436C11.5763 80.0436 14.3643 79.3069 14.7442 76.9402C14.7573 76.8594 14.7862 76.7819 14.8292 76.7123C14.8722 76.6426 14.9285 76.5821 14.9949 76.5342C15.0613 76.4864 15.1364 76.452 15.2161 76.4332C15.2957 76.4144 15.3783 76.4114 15.459 76.4245C15.5398 76.4377 15.6172 76.4665 15.6868 76.5096C15.7564 76.5526 15.8169 76.609 15.8647 76.6754C15.9126 76.7418 15.9469 76.817 15.9657 76.8967C15.9845 76.9764 15.9875 77.059 15.9744 77.1398C15.4662 80.3287 11.9943 81.2174 11.847 81.2555C11.7969 81.2649 11.7461 81.2697 11.6951 81.2697Z" fill="black"/>
<path d="M150.382 37.9506C150.226 37.9559 150.075 37.9028 149.956 37.8018C149.838 37.7008 149.762 37.5591 149.743 37.4047C149.724 37.2503 149.763 37.0944 149.853 36.9676C149.943 36.8408 150.078 36.7524 150.23 36.7197C150.258 36.7197 153.046 35.9878 153.426 33.6211C153.434 33.5354 153.459 33.4522 153.501 33.3768C153.542 33.3013 153.598 33.2352 153.666 33.1824C153.734 33.1297 153.812 33.0915 153.896 33.0703C153.979 33.049 154.066 33.0451 154.15 33.0588C154.235 33.0725 154.317 33.1036 154.389 33.15C154.461 33.1964 154.523 33.2573 154.571 33.3287C154.619 33.4002 154.652 33.4807 154.667 33.5653C154.683 33.65 154.681 33.7369 154.661 33.8207C154.148 37.0096 150.676 37.8983 150.529 37.9316C150.481 37.9449 150.431 37.9513 150.382 37.9506Z" fill="#FEE675"/>
<path opacity="0.6" d="M150.382 37.9506C150.226 37.9559 150.075 37.9028 149.956 37.8018C149.838 37.7008 149.762 37.5591 149.743 37.4047C149.724 37.2503 149.763 37.0944 149.853 36.9676C149.943 36.8408 150.078 36.7524 150.23 36.7197C150.258 36.7197 153.046 35.9878 153.426 33.6211C153.434 33.5354 153.459 33.4522 153.501 33.3768C153.542 33.3013 153.598 33.2352 153.666 33.1824C153.734 33.1297 153.812 33.0915 153.896 33.0703C153.979 33.049 154.066 33.0451 154.15 33.0588C154.235 33.0725 154.317 33.1036 154.389 33.15C154.461 33.1964 154.523 33.2573 154.571 33.3287C154.619 33.4002 154.652 33.4807 154.667 33.5653C154.683 33.65 154.681 33.7369 154.661 33.8207C154.148 37.0096 150.676 37.8983 150.529 37.9316C150.481 37.9449 150.431 37.9513 150.382 37.9506Z" fill="black"/>
<path d="M175.899 61.6465H175.794C175.642 61.618 172.118 60.9717 171.391 57.8445C171.373 57.764 171.37 57.6805 171.384 57.5989C171.397 57.5173 171.427 57.4393 171.471 57.3693C171.516 57.2994 171.573 57.239 171.641 57.1917C171.709 57.1444 171.786 57.111 171.866 57.0936C171.947 57.0754 172.03 57.0732 172.111 57.0872C172.193 57.1013 172.27 57.1312 172.34 57.1754C172.41 57.2195 172.47 57.277 172.518 57.3445C172.565 57.4121 172.599 57.4883 172.617 57.5689C173.158 59.8976 175.989 60.4204 176.017 60.4204C176.167 60.4524 176.3 60.538 176.391 60.6612C176.482 60.7843 176.524 60.9364 176.511 61.0889C176.497 61.2414 176.429 61.3837 176.318 61.489C176.207 61.5944 176.061 61.6554 175.908 61.6608L175.899 61.6465Z" fill="#FEE675"/>
<path d="M164.767 84.5579C163.679 84.575 162.621 84.2025 161.784 83.5076C161.714 83.4577 161.655 83.3938 161.611 83.3201C161.567 83.2464 161.539 83.1644 161.528 83.0792C161.518 82.994 161.525 82.9075 161.549 82.8251C161.573 82.7428 161.614 82.6663 161.669 82.6006C161.724 82.5348 161.793 82.4812 161.869 82.4431C161.946 82.405 162.03 82.3832 162.116 82.3791C162.202 82.375 162.287 82.3887 162.368 82.4194C162.448 82.45 162.521 82.4969 162.582 82.5571C164.42 84.0874 166.999 82.8042 167.027 82.7899C167.175 82.7143 167.346 82.7004 167.504 82.7512C167.661 82.802 167.792 82.9134 167.868 83.0608C167.944 83.2083 167.958 83.3798 167.907 83.5375C167.856 83.6953 167.745 83.8264 167.597 83.902C166.712 84.3233 165.747 84.547 164.767 84.5579Z" fill="#FEE675"/>
<path d="M135.656 6.56005C135.547 6.56088 135.441 6.533 135.347 6.47926C135.219 6.40797 132.117 4.61152 132.497 1.40359C132.516 1.2391 132.599 1.08886 132.729 0.985914C132.859 0.882973 133.024 0.835765 133.188 0.854672C133.353 0.873578 133.503 0.957052 133.606 1.08673C133.708 1.21641 133.756 1.38167 133.737 1.54616C133.466 3.92241 135.955 5.38143 135.978 5.39569C136.099 5.46407 136.194 5.57097 136.247 5.69937C136.3 5.82777 136.309 5.97028 136.272 6.1042C136.235 6.23812 136.154 6.35576 136.042 6.43837C135.93 6.52098 135.794 6.56381 135.656 6.56005Z" fill="#FEE675"/>
<path d="M11.5942 9.09301C11.5125 9.09645 11.4309 9.08374 11.3541 9.05562C11.2773 9.02751 11.2068 8.98453 11.1466 8.92915C11.0864 8.87376 11.0377 8.80706 11.0032 8.73283C10.9688 8.65861 10.9493 8.57833 10.9459 8.49657C10.9424 8.41481 10.9551 8.33318 10.9832 8.25633C11.0113 8.17949 11.0543 8.10893 11.1096 8.04869C11.165 7.98845 11.2316 7.93971 11.3058 7.90525C11.38 7.87079 11.4602 7.85129 11.5419 7.84786C13.9167 7.63875 14.8666 4.91081 14.8666 4.8823C14.9217 4.73064 15.0336 4.60634 15.1786 4.53562C15.3236 4.46489 15.4903 4.45327 15.6437 4.50319C15.7971 4.55312 15.9251 4.6607 16.0007 4.80324C16.0764 4.94577 16.0938 5.11214 16.0492 5.26725C16.0065 5.41458 14.8666 8.81261 11.6512 9.06925L11.5942 9.09301Z" fill="#FEE675"/>
<path d="M57.9367 27.8992C56.2506 28.6881 54.764 32.4806 55.2485 37.9269C55.7329 43.3733 44.4576 39.5523 42.9235 45.6545C40.1545 56.6993 58.7204 63.3386 66.633 56.6993C71.5298 52.5932 76.1321 39.058 75.4576 31.6726C74.7357 23.7312 62.425 18.4037 57.9367 27.8992Z" fill="#263238"/>
<path d="M75.7539 41.8336C75.9629 41.7718 76.2669 41.6815 76.5281 41.5959L77.345 41.3203C77.8912 41.1302 78.4326 40.9211 78.9693 40.6977C80.0386 40.2585 81.082 39.7586 82.0945 39.2007C84.0786 38.1414 85.864 36.7456 87.3712 35.0755C88.7153 33.4787 89.6795 31.302 90.4346 29.0683C90.8193 27.9468 91.1423 26.7919 91.4178 25.618C91.6933 24.4442 91.9545 23.2418 92.154 22.0869L94.0918 22.2057C94.0949 24.7758 93.8162 27.3385 93.2606 29.8478C92.978 31.1335 92.5953 32.3952 92.116 33.6212C91.6193 34.9154 90.9533 36.1379 90.1354 37.2569C88.4625 39.4032 86.3879 41.203 84.0275 42.5559C82.8902 43.2287 81.7098 43.8256 80.4939 44.3429C79.886 44.5995 79.2733 44.8181 78.6464 45.051C78.3376 45.1603 78.0242 45.2649 77.6965 45.3599C77.3687 45.455 77.079 45.5453 76.6896 45.6403L75.7539 41.8336Z" fill="#7F3E3B"/>
<path d="M94.082 22.8564L94.8894 19.9526L91.6835 20.1998C91.6835 20.1998 91.4555 22.1008 92.5621 23.2461L94.082 22.8564Z" fill="#7F3E3B"/>
<path d="M95.3692 16.5737L92.4435 17.3389L91.6836 20.1999L94.8895 19.9528L95.3692 16.5737Z" fill="#7F3E3B"/>
<path d="M72.1239 42.575C73.601 41.23 77.3484 40.1987 77.3484 40.1987L81.4567 46.377C81.4567 46.377 76.7689 49.5089 74.7789 48.7817C72.7081 48.0594 70.7465 43.8249 72.1239 42.575Z" fill="#FEE675"/>
<path d="M58.5938 130.453L61.1537 133.267L68.5012 128.029L65.9412 125.216L58.5938 130.453Z" fill="#7F3E3B"/>
<path d="M44.1445 141.57L47.5784 143.276L52.6271 135.867L49.1933 134.161L44.1445 141.57Z" fill="#7F3E3B"/>
<path d="M48.1239 142.853L45.4737 139.455C45.4291 139.396 45.3645 139.355 45.2919 139.34C45.2193 139.325 45.1438 139.337 45.0795 139.374L42.0921 141.085C42.0181 141.13 41.9546 141.191 41.9057 141.262C41.8568 141.334 41.8237 141.415 41.8084 141.5C41.7931 141.586 41.7961 141.673 41.8172 141.757C41.8383 141.842 41.8769 141.92 41.9306 141.988C42.8805 143.157 43.3887 143.675 44.5571 145.172C45.2695 146.09 46.7228 148.228 47.7107 149.497C48.6986 150.766 50.0095 149.858 49.7103 149.241C48.3709 146.47 48.2854 144.826 48.3329 143.504C48.3425 143.269 48.2684 143.039 48.1239 142.853Z" fill="#263238"/>
<path d="M61.9191 133.319L60.1713 129.118C60.1405 129.043 60.0854 128.98 60.0149 128.94C59.9443 128.899 59.8624 128.883 59.7819 128.895L56.0773 129.37C55.9891 129.379 55.9044 129.41 55.8302 129.458C55.7559 129.507 55.6942 129.572 55.6502 129.649C55.6061 129.726 55.581 129.812 55.5768 129.901C55.5726 129.99 55.5895 130.078 55.6261 130.159C56.2625 131.618 56.6472 132.297 57.4166 134.146C57.8916 135.282 58.9934 138.267 59.6441 139.849C60.2948 141.432 61.9666 141.056 61.8432 140.362C61.2875 137.254 61.4774 135.249 61.9381 134.027C61.9818 133.914 62.0026 133.793 61.9993 133.671C61.9961 133.55 61.9688 133.43 61.9191 133.319Z" fill="#263238"/>
<path opacity="0.2" d="M68.497 128.029L64.7116 130.729L61.8477 128.134L65.937 125.216L68.497 128.029Z" fill="black"/>
<path opacity="0.2" d="M49.1915 134.161L52.6254 135.867L50.0179 139.688L46.584 137.977L49.1915 134.161Z" fill="black"/>
<path d="M77.2964 43.0542C77.2964 43.0542 77.4104 42.8831 75.3301 65.5906L59.7992 66.6789C59.6188 60.3391 60.0937 55.8622 57.1348 42.8356C59.3168 42.3959 61.5281 42.1163 63.7508 41.9992C66.1044 41.8421 68.4663 41.8548 70.8181 42.0372C73.853 42.3271 77.2964 43.0542 77.2964 43.0542Z" fill="#FEE675"/>
<path d="M58.3031 46.6003C57.149 46.068 56.1373 45.4977 55.0877 44.8942C54.038 44.2906 53.0454 43.6443 52.0575 42.9599C50.0467 41.5939 48.1772 40.0305 46.4768 38.2929L45.8499 37.6133L45.6884 37.4422C45.5958 37.3358 45.5086 37.2248 45.4272 37.1096C45.2803 36.9 45.1531 36.6772 45.0472 36.4442C44.7328 35.7016 44.5712 34.9031 44.5723 34.0965C44.5828 32.8126 44.7552 31.5352 45.0852 30.2945C45.6882 27.9725 46.5252 25.7177 47.5835 23.5649L49.3978 24.2683C49.1176 25.3471 48.8516 26.4687 48.6141 27.5665C48.3766 28.6644 48.1771 29.7717 48.0442 30.8553C47.89 31.8742 47.8486 32.9069 47.9207 33.9349C47.9444 34.2907 48.0346 34.6389 48.1866 34.9614C48.1866 34.9947 48.2341 35.0327 48.2484 35.0375C48.2484 35.0375 48.2626 35.0422 48.2484 35.0375L48.3956 35.1753L48.9798 35.7313C50.6102 37.2088 52.3574 38.5518 54.2043 39.7472C55.1304 40.3603 56.1041 40.9211 57.054 41.4866C58.0039 42.0522 59.025 42.5892 59.9512 43.0597L58.3031 46.6003Z" fill="#7F3E3B"/>
<path d="M63.2469 43.7057C61.4849 41.2486 58.0225 41.2867 58.0225 41.2867L53.8477 47.4649C53.8477 47.4649 58.5069 50.6396 60.497 49.9314C62.6057 49.1806 64.3346 45.217 63.2469 43.7057Z" fill="#FEE675"/>
<path d="M70.8184 42.0375L63.7511 41.9995C62.6682 42.4367 62.0413 45.255 69.213 47.6407C74.1858 44.813 71.5403 42.2989 70.8184 42.0375Z" fill="white"/>
<path d="M64.4909 34.0396C64.9231 36.316 65.3458 40.4887 63.75 42C63.75 42 64.3674 44.3145 69.2119 47.6412C72.6078 44.2337 70.8173 42.038 70.8173 42.038C68.2858 41.4154 68.3618 39.5334 68.813 37.7608L64.4909 34.0396Z" fill="#7F3E3B"/>
<path d="M79.1393 56.6426H79.0633C78.8128 56.622 78.5807 56.5029 78.4178 56.3114C78.2549 56.1199 78.1744 55.8715 78.1941 55.6208C78.3651 53.5012 76.7693 51.8996 74.936 50.0414C72.8319 47.917 70.4429 45.5075 70.348 41.7578C70.3417 41.5057 70.4357 41.2614 70.6094 41.0787C70.7831 40.896 71.0222 40.7898 71.2741 40.7835C71.526 40.7772 71.7701 40.8713 71.9527 41.0451C72.1353 41.2189 72.2415 41.4582 72.2478 41.7102C72.3237 44.7043 74.3375 46.7384 76.2848 48.7059C78.2321 50.6735 80.3267 52.7836 80.0844 55.7729C80.0642 56.0099 79.9559 56.2307 79.781 56.3917C79.606 56.5528 79.377 56.6423 79.1393 56.6426Z" fill="#263238"/>
<path d="M65.2562 61.4518C65.1794 61.4516 65.1028 61.442 65.0282 61.4233C64.784 61.3626 64.5737 61.2075 64.4437 60.9918C64.3137 60.7762 64.2745 60.5177 64.3348 60.2732C65.2515 56.5473 64.0498 53.6197 62.777 50.5401C61.6371 47.7741 60.4592 44.9131 61.0292 41.5674C61.0784 41.3251 61.22 41.1115 61.4239 40.972C61.6279 40.8325 61.8781 40.778 62.1216 40.82C62.3651 40.862 62.5826 40.9974 62.728 41.1972C62.8734 41.3971 62.9353 41.6458 62.9005 41.8905C62.4255 44.6945 63.4467 47.1848 64.5295 49.8177C65.8024 52.9021 67.2415 56.3999 66.1776 60.7485C66.1231 60.951 66.0032 61.1298 65.8365 61.257C65.6699 61.3843 65.4658 61.4528 65.2562 61.4518Z" fill="#263238"/>
<path opacity="0.2" d="M67.9193 36.9766L66.0195 37.1999C66.1116 37.7117 66.295 38.2027 66.561 38.6494C66.9362 39.215 67.7721 39.4621 68.5985 39.4859C68.5976 38.8979 68.6775 38.3126 68.836 37.7465L67.9193 36.9766Z" fill="black"/>
<path d="M60.2898 31.749C61.6814 35.2943 62.1896 36.8246 64.6166 38.0888C68.2642 39.9898 72.3108 37.5137 72.0068 33.6262C71.7361 30.1236 69.5086 24.9149 65.5048 24.6202C64.623 24.5514 63.7383 24.7092 62.9346 25.0786C62.1309 25.448 61.4349 26.0167 60.9125 26.7308C60.3901 27.4449 60.0587 28.2807 59.9497 29.1589C59.8407 30.0372 59.9578 30.9287 60.2898 31.749Z" fill="#7F3E3B"/>
<path d="M64.101 24.1074C66.8035 25.7708 64.4905 35.5562 59.9167 35.0381C55.3429 34.5201 60.1067 21.6503 64.101 24.1074Z" fill="#263238"/>
<path d="M64.003 24.1444C61.9655 25.4988 63.3571 27.8561 70.2248 26.4588C70.2248 26.4541 67.3846 21.8917 64.003 24.1444Z" fill="#263238"/>
<path d="M60.7827 35.1939C61.083 35.8655 61.636 36.3915 62.3215 36.6577C63.2382 36.9999 63.7749 36.1824 63.5944 35.2937C63.4282 34.481 62.7537 33.3167 61.8038 33.3642C61.5962 33.3782 61.3954 33.4439 61.2196 33.5552C61.0439 33.6666 60.8986 33.8201 60.7972 34.0019C60.6958 34.1836 60.6413 34.3879 60.6388 34.596C60.6362 34.8042 60.6857 35.0097 60.7827 35.1939Z" fill="#7F3E3B"/>
<path d="M75.3396 65.5913C75.3396 65.5913 83.6512 92.7424 84.3209 104.424C85.0144 116.576 66.9805 130.995 66.9805 130.995L62.4922 126.067C62.4922 126.067 77.1444 113.615 75.1354 104.595C72.3569 92.1625 63.9408 66.3897 63.9408 66.3897L75.3396 65.5913Z" fill="#263238"/>
<path opacity="0.2" d="M70.1569 74.4785C69.3969 72.1023 67.7061 73.6991 67.1172 76.2179C68.2903 80.0199 69.6487 84.4683 70.9405 88.9214C71.4392 84.9768 71.6435 79.136 70.1569 74.4785Z" fill="black"/>
<path d="M61.2773 125.829L66.972 131.708L69.4037 130.363L63.3861 123.81L61.2773 125.829Z" fill="#FEE675"/>
<path d="M71.2315 65.8813C71.2315 65.8813 68.8568 92.4954 66.482 107.318C64.5585 119.295 51.4926 138.856 51.4926 138.856L46.7051 136.627C46.7051 136.627 55.4869 115.683 56.8548 107.542C61.2433 81.4838 55.3159 73.9653 59.8042 66.6703L71.2315 65.8813Z" fill="#263238"/>
<path d="M46.3672 136.679L51.7674 139.331L53.5389 137.131L47.2221 134.151L46.3672 136.679Z" fill="#FEE675"/>
<path d="M59.5035 65.7857L58.9003 67.2115C58.8528 67.3208 58.9858 67.4254 59.1663 67.4111L75.4571 66.2705C75.5948 66.2705 75.7088 66.185 75.7088 66.0947L75.7516 64.6689C75.7516 64.5739 75.6281 64.5026 75.4761 64.5121L59.7457 65.6147C59.6931 65.6165 59.6422 65.6337 59.5991 65.6641C59.5561 65.6945 59.5229 65.7367 59.5035 65.7857Z" fill="white"/>
<path d="M61.7383 67.3925L61.32 67.421C61.2345 67.421 61.168 67.3878 61.168 67.3355L61.2393 65.5153C61.2393 65.463 61.3153 65.4107 61.3961 65.406L61.8191 65.3774C61.9046 65.3774 61.9711 65.4107 61.9664 65.463L61.8951 67.2832C61.8951 67.345 61.8238 67.3925 61.7383 67.3925Z" fill="#263238"/>
<path d="M74.2854 66.518L73.8624 66.5465C73.7769 66.5465 73.7103 66.5132 73.7151 66.461L73.7864 64.6408C73.7864 64.5885 73.8577 64.5409 73.9432 64.5314L74.3614 64.5029C74.447 64.5029 74.5135 64.5362 74.5135 64.5885L74.4422 66.4134C74.4375 66.4657 74.3899 66.5132 74.2854 66.518Z" fill="#263238"/>
<path d="M68.0117 66.9599L67.5887 66.9884C67.5079 66.9884 67.4414 66.9551 67.4414 66.9029L67.5127 65.0779C67.5127 65.0256 67.584 64.9781 67.6695 64.9733L68.0925 64.9448C68.1733 64.9448 68.2398 64.9781 68.2398 65.0304L68.1685 66.8506C68.1685 66.9171 68.0973 66.9504 68.0117 66.9599Z" fill="#263238"/>
<path d="M66.0113 30.418C65.7832 30.494 65.6882 30.8362 65.8022 31.1879L66.6339 30.9217C66.5199 30.57 66.2395 30.3229 66.0113 30.418Z" fill="#263238"/>
<path d="M69.641 29.2676C69.4081 29.3437 69.3131 29.6906 69.4271 30.0423L70.2636 29.7714C70.1162 29.4197 69.8453 29.1964 69.641 29.2676Z" fill="#263238"/>
<path d="M69.5234 29.3204L70.2886 28.8071C70.2886 28.8071 70.07 29.6056 69.5234 29.3204Z" fill="#263238"/>
<path d="M68.6914 30.7036C69.1689 31.2906 69.7251 31.8087 70.3442 32.2434C70.2295 32.3993 70.082 32.5282 69.9122 32.621C69.7423 32.7138 69.5542 32.7682 69.3611 32.7805L68.6914 30.7036Z" fill="#630F0F"/>
<path d="M68.7475 34.258C68.7614 34.2459 68.7715 34.2301 68.7766 34.2124C68.7816 34.1946 68.7814 34.1758 68.776 34.1582C68.7684 34.1356 68.7521 34.1168 68.7308 34.1061C68.7094 34.0954 68.6847 34.0937 68.662 34.1012C68.2987 34.2271 67.9109 34.266 67.5299 34.2148C67.1488 34.1636 66.785 34.0238 66.4677 33.8065C66.4593 33.7981 66.4493 33.7913 66.4383 33.7867C66.4273 33.7821 66.4155 33.7798 66.4036 33.7798C66.3917 33.7798 66.3799 33.7821 66.3689 33.7867C66.3579 33.7913 66.3479 33.7981 66.3395 33.8065C66.3304 33.8146 66.3231 33.8244 66.3181 33.8355C66.3131 33.8466 66.3105 33.8586 66.3105 33.8707C66.3105 33.8828 66.3131 33.8948 66.3181 33.9059C66.3231 33.917 66.3304 33.9268 66.3395 33.9349C66.679 34.1782 67.0724 34.3356 67.486 34.3936C67.8996 34.4515 68.321 34.4083 68.7142 34.2675L68.7475 34.258Z" fill="#263238"/>
<path d="M64.8108 30.2042C64.8349 30.1841 64.853 30.1578 64.8631 30.1281C64.9284 29.9069 65.0465 29.7049 65.207 29.5393C65.3676 29.3738 65.566 29.2497 65.7851 29.1776C65.8082 29.172 65.8299 29.1619 65.8491 29.1479C65.8683 29.1338 65.8845 29.1162 65.8969 29.0959C65.9092 29.0756 65.9175 29.053 65.9211 29.0295C65.9248 29.0061 65.9238 28.9821 65.9181 28.959C65.9125 28.9359 65.9024 28.9141 65.8884 28.895C65.8744 28.8758 65.8567 28.8595 65.8364 28.8472C65.8161 28.8348 65.7936 28.8266 65.7701 28.8229C65.7466 28.8193 65.7226 28.8203 65.6995 28.8259C65.4241 28.9127 65.1734 29.0641 64.9683 29.2675C64.7633 29.4708 64.6099 29.7203 64.5209 29.995C64.5059 30.0404 64.5094 30.0899 64.5308 30.1327C64.5522 30.1754 64.5896 30.208 64.635 30.2232C64.6632 30.2363 64.6945 30.2415 64.7255 30.2381C64.7565 30.2348 64.786 30.223 64.8108 30.2042Z" fill="#263238"/>
<path d="M70.5009 27.8562C70.511 27.8508 70.5193 27.8425 70.5247 27.8324C70.5399 27.8138 70.5513 27.7923 70.5581 27.7692C70.5649 27.7462 70.567 27.722 70.5644 27.6981C70.5617 27.6742 70.5543 27.651 70.5426 27.63C70.5309 27.609 70.5151 27.5906 70.4962 27.5758C70.274 27.3918 70.0111 27.2635 69.7295 27.2016C69.4478 27.1396 69.1554 27.1457 68.8766 27.2193C68.8536 27.2268 68.8324 27.2388 68.8141 27.2547C68.7959 27.2705 68.781 27.2899 68.7704 27.3116C68.7597 27.3333 68.7536 27.357 68.7522 27.3811C68.7509 27.4053 68.7544 27.4294 68.7626 27.4522C68.7788 27.4968 68.8115 27.5335 68.8539 27.5547C68.8963 27.5759 68.9452 27.5801 68.9906 27.5663C69.2116 27.5094 69.4429 27.5065 69.6653 27.5578C69.8876 27.6091 70.0944 27.713 70.2682 27.8609C70.3013 27.8877 70.3428 27.902 70.3854 27.9011C70.428 27.9002 70.4689 27.8843 70.5009 27.8562Z" fill="#263238"/>
<path d="M51.4742 24.9668C51.3588 24.9665 51.2457 24.9353 51.1465 24.8765L36.6985 15.9703C36.5718 15.877 36.4849 15.7394 36.4549 15.5849C36.4249 15.4303 36.454 15.2702 36.5365 15.1362C36.619 15.0022 36.7489 14.9041 36.9003 14.8614C37.0517 14.8187 37.2136 14.8345 37.3539 14.9057L51.8019 23.8119C51.9184 23.8826 52.0085 23.9897 52.0583 24.1165C52.1081 24.2434 52.1149 24.3832 52.0777 24.5143C52.0405 24.6454 51.9613 24.7607 51.8523 24.8425C51.7432 24.9242 51.6104 24.9679 51.4742 24.9668Z" fill="#0E8778"/>
<path d="M39.9697 16.9544C40.7818 16.9212 41.6177 16.8831 41.727 16.1512C41.8362 15.4194 41.0526 15.139 40.3021 14.8633L40.0979 14.7873C40.0979 14.716 40.0647 14.6447 40.0457 14.5782L40.2119 14.3928C40.7438 13.8035 41.2995 13.1952 40.8673 12.6154C40.4351 12.0356 39.6942 12.3778 38.9675 12.7152L38.7443 12.8197C38.6825 12.777 38.6208 12.7437 38.5543 12.7057C38.4878 12.6677 38.5543 12.5536 38.5543 12.4871C38.5163 11.6791 38.4783 10.8427 37.7516 10.7334C37.025 10.6241 36.74 11.4083 36.4645 12.1591C36.4408 12.2209 36.417 12.2922 36.3885 12.3635L36.1748 12.4158L35.9943 12.2542C35.4054 11.7172 34.7975 11.1659 34.218 11.5936C33.6386 12.0213 33.9805 12.7675 34.3178 13.4946L34.4222 13.718C34.3808 13.7776 34.3428 13.8395 34.3083 13.9033H34.0898C33.2824 13.9413 32.4417 13.9794 32.3325 14.7112C32.2232 15.4431 33.0116 15.7235 33.7573 15.9992L33.9615 16.0752C33.9615 16.1465 33.9948 16.2178 34.0138 16.2843C33.9568 16.3509 33.8998 16.4174 33.8476 16.4697C33.3156 17.059 32.7647 17.6625 33.1921 18.2471C33.6196 18.8317 34.3652 18.48 35.0919 18.1473L35.3199 18.0427L35.5051 18.1568C35.5051 18.2328 35.5051 18.3089 35.5051 18.3754C35.5431 19.1833 35.5811 20.0198 36.3078 20.1291C37.0345 20.2384 37.3242 19.4542 37.5997 18.7033C37.5997 18.6463 37.6472 18.575 37.6709 18.499C37.7432 18.4861 37.8146 18.4686 37.8846 18.4467L38.0699 18.613C38.6541 19.1453 39.262 19.7014 39.8462 19.2736C40.4304 18.8459 40.0789 18.0998 39.7417 17.3726C39.7132 17.3109 39.6752 17.2301 39.6419 17.1493L39.7559 16.9639L39.9697 16.9544Z" fill="#56ABA1"/>
<path opacity="0.7" d="M39.9697 16.9544C40.7818 16.9212 41.6177 16.8831 41.727 16.1512C41.8362 15.4194 41.0526 15.139 40.3021 14.8633L40.0979 14.7873C40.0979 14.716 40.0647 14.6447 40.0457 14.5782L40.2119 14.3928C40.7438 13.8035 41.2995 13.1952 40.8673 12.6154C40.4351 12.0356 39.6942 12.3778 38.9675 12.7152L38.7443 12.8197C38.6825 12.777 38.6208 12.7437 38.5543 12.7057C38.4878 12.6677 38.5543 12.5536 38.5543 12.4871C38.5163 11.6791 38.4783 10.8427 37.7516 10.7334C37.025 10.6241 36.74 11.4083 36.4645 12.1591C36.4408 12.2209 36.417 12.2922 36.3885 12.3635L36.1748 12.4158L35.9943 12.2542C35.4054 11.7172 34.7975 11.1659 34.218 11.5936C33.6386 12.0213 33.9805 12.7675 34.3178 13.4946L34.4222 13.718C34.3808 13.7776 34.3428 13.8395 34.3083 13.9033H34.0898C33.2824 13.9413 32.4417 13.9794 32.3325 14.7112C32.2232 15.4431 33.0116 15.7235 33.7573 15.9992L33.9615 16.0752C33.9615 16.1465 33.9948 16.2178 34.0138 16.2843C33.9568 16.3509 33.8998 16.4174 33.8476 16.4697C33.3156 17.059 32.7647 17.6625 33.1921 18.2471C33.6196 18.8317 34.3652 18.48 35.0919 18.1473L35.3199 18.0427L35.5051 18.1568C35.5051 18.2328 35.5051 18.3089 35.5051 18.3754C35.5431 19.1833 35.5811 20.0198 36.3078 20.1291C37.0345 20.2384 37.3242 19.4542 37.5997 18.7033C37.5997 18.6463 37.6472 18.575 37.6709 18.499C37.7432 18.4861 37.8146 18.4686 37.8846 18.4467L38.0699 18.613C38.6541 19.1453 39.262 19.7014 39.8462 19.2736C40.4304 18.8459 40.0789 18.0998 39.7417 17.3726C39.7132 17.3109 39.6752 17.2301 39.6419 17.1493L39.7559 16.9639L39.9697 16.9544Z" fill="white"/>
<path d="M47.1601 25.1189L46.5664 21.3169L50.442 23.2179C50.296 23.858 49.9657 24.4412 49.4921 24.8955C49.2972 25.1176 49.0435 25.2801 48.7603 25.3642C48.4771 25.4482 48.176 25.4505 47.8915 25.3708L47.1601 25.1189Z" fill="#7F3E3B"/>
<path d="M48.7417 19.4536L50.727 21.1978L50.442 23.1938L46.5664 21.3118L48.7417 19.4536Z" fill="#7F3E3B"/>
<path d="M49.3705 144.673C49.4107 144.644 49.4488 144.612 49.4844 144.578C49.5252 144.541 49.5551 144.493 49.571 144.441C49.5869 144.388 49.5881 144.332 49.5747 144.278C49.4607 143.803 48.1498 143.328 48.0026 143.295C47.9864 143.288 47.9683 143.286 47.9511 143.291C47.9339 143.295 47.9187 143.305 47.9076 143.318C47.8978 143.333 47.8926 143.351 47.8926 143.368C47.8926 143.386 47.8978 143.403 47.9076 143.418C48.1213 143.893 48.5488 144.673 49.0285 144.754C49.1486 144.771 49.271 144.743 49.3705 144.673ZM48.1498 143.542C48.6675 143.737 49.3372 144.069 49.399 144.321C49.4034 144.345 49.4013 144.369 49.393 144.392C49.3846 144.415 49.3702 144.434 49.3515 144.45C49.3153 144.496 49.2679 144.532 49.2138 144.554C49.1598 144.576 49.1009 144.585 49.0427 144.578C48.7815 144.53 48.4586 144.15 48.1498 143.542Z" fill="#FEE675"/>
<path d="M49.6111 143.404C49.6421 143.385 49.6695 143.361 49.6918 143.333C49.7382 143.277 49.7635 143.206 49.7635 143.133C49.7635 143.06 49.7382 142.99 49.6918 142.933C49.6565 142.873 49.6084 142.822 49.551 142.782C49.4935 142.743 49.4281 142.717 49.3594 142.705C48.8132 142.606 47.9345 143.28 47.9013 143.309C47.889 143.319 47.8795 143.332 47.8736 143.347C47.8678 143.362 47.8659 143.379 47.868 143.394C47.8707 143.41 47.8768 143.424 47.8858 143.436C47.8949 143.449 47.9067 143.459 47.9203 143.466C48.4727 143.651 49.0736 143.629 49.6111 143.404ZM48.1862 143.333C48.5115 143.067 48.9119 142.911 49.3309 142.886C49.3746 142.891 49.4163 142.907 49.4527 142.932C49.489 142.957 49.5189 142.99 49.5398 143.029C49.6016 143.128 49.5731 143.181 49.5398 143.214C49.3689 143.418 48.59 143.456 48.1577 143.347L48.1862 143.333Z" fill="#FEE675"/>
<path d="M62.0035 135.472C62.1001 135.77 62.2881 136.029 62.5406 136.214C62.6116 136.256 62.6912 136.281 62.7734 136.289C62.8556 136.296 62.9384 136.285 63.0158 136.256C63.0621 136.243 63.1038 136.218 63.1365 136.183C63.1692 136.147 63.1916 136.104 63.2012 136.057C63.301 135.582 62.0558 134.408 61.8039 134.156C61.7884 134.146 61.7702 134.14 61.7516 134.14C61.7331 134.14 61.7149 134.146 61.6994 134.156C61.6828 134.165 61.6696 134.179 61.6618 134.196C61.6541 134.213 61.6523 134.233 61.6566 134.251C61.7267 134.67 61.8431 135.079 62.0035 135.472ZM62.992 135.829C63.019 135.883 63.0305 135.944 63.0253 136.005C63.0253 136.028 63.0253 136.052 62.9588 136.071C62.9033 136.092 62.8437 136.101 62.7844 136.096C62.7252 136.091 62.6678 136.073 62.6166 136.043C62.3267 135.871 62.0606 135.301 61.8895 134.493C62.3223 134.88 62.694 135.33 62.992 135.829Z" fill="#FEE675"/>
<path d="M61.6761 134.284C61.6747 134.294 61.6747 134.303 61.6761 134.313C62.0656 134.707 63.2292 135.344 63.6044 135.125C63.6851 135.078 63.7706 134.973 63.7041 134.745C63.4619 133.871 61.8043 134.146 61.7236 134.161C61.707 134.163 61.6914 134.17 61.6787 134.181C61.666 134.192 61.6569 134.206 61.6523 134.222C61.6526 134.245 61.661 134.267 61.6761 134.284ZM63.5284 134.736L63.5521 134.793C63.5521 134.888 63.5521 134.945 63.5521 134.969C63.3337 135.092 62.455 134.683 61.9896 134.313C62.379 134.27 63.3194 134.232 63.5284 134.736Z" fill="#FEE675"/>
<path d="M65.916 30.4707L66.6812 29.9526C66.6812 29.9526 66.4626 30.7558 65.916 30.4707Z" fill="#263238"/>
<path d="M128.006 154.967L124.325 154.972L123.332 146.446L127.013 146.441L128.006 154.967Z" fill="#FFC3BD"/>
<path d="M159.69 139.14L156.902 141.55L150.59 135.738L153.373 133.328L159.69 139.14Z" fill="#FFC3BD"/>
<path d="M156.362 141.455L159.753 138.518C159.809 138.472 159.879 138.447 159.951 138.447C160.023 138.447 160.092 138.472 160.148 138.518L162.731 140.581C162.794 140.634 162.845 140.7 162.88 140.775C162.914 140.85 162.932 140.931 162.932 141.013C162.932 141.096 162.914 141.177 162.88 141.252C162.845 141.327 162.794 141.393 162.731 141.446C161.625 142.373 160.775 142.995 159.407 144.183C158.561 144.915 156.082 147.215 154.914 148.228C153.745 149.24 152.639 148.171 153.014 147.648C154.771 145.31 155.864 143.238 156.035 142.007C156.077 141.791 156.193 141.596 156.362 141.455Z" fill="#263238"/>
<path d="M124.349 154.543H128.372C128.445 154.543 128.516 154.568 128.573 154.614C128.63 154.66 128.669 154.724 128.686 154.795L129.417 158.069C129.435 158.148 129.435 158.23 129.416 158.309C129.398 158.388 129.362 158.462 129.312 158.525C129.261 158.588 129.197 158.639 129.124 158.673C129.051 158.708 128.971 158.726 128.89 158.725C127.436 158.701 125.342 158.621 123.518 158.621C121.39 158.621 120.141 158.678 117.643 158.682C116.133 158.682 115.71 157.157 116.342 157.019C119.22 156.382 120.977 156.377 123.466 154.838C123.727 154.659 124.033 154.557 124.349 154.543Z" fill="#263238"/>
<path d="M112.384 49.0995C111.643 48.8144 111.007 48.553 110.342 48.2488C109.677 47.9447 109.036 47.6452 108.39 47.3268C107.101 46.6932 105.834 45.9866 104.59 45.2072C103.338 44.4393 102.134 43.5949 100.985 42.6789C100.695 42.4413 100.401 42.2036 100.116 41.9613L99.2706 41.1866C98.9903 40.93 98.7244 40.6353 98.4537 40.3597C98.3159 40.2076 98.1972 40.0983 98.0404 39.9177C97.8837 39.7371 97.7317 39.5612 97.594 39.3806C97.0747 38.6936 96.6334 37.9508 96.2784 37.166C95.9482 36.4494 95.6673 35.711 95.4377 34.9561C95.0012 33.5306 94.6835 32.0713 94.4878 30.5933C94.1131 27.7479 94.0415 24.8708 94.2741 22.0103H97.0383C97.2283 23.2982 97.4277 24.6526 97.689 25.9548C97.9502 27.257 98.2257 28.5592 98.5629 29.8139C98.8818 31.0394 99.2849 32.2415 99.7693 33.4115C100.171 34.446 100.737 35.4089 101.446 36.263L101.679 36.5006C101.75 36.5767 101.892 36.6907 101.997 36.7858C102.225 36.9806 102.434 37.185 102.676 37.3703C103.151 37.7505 103.626 38.126 104.158 38.4872C105.184 39.2001 106.267 39.8797 107.397 40.5165C108.527 41.1533 109.681 41.7569 110.855 42.3272C111.444 42.6171 112.037 42.9023 112.631 43.1684C113.225 43.4345 113.847 43.7149 114.379 43.9431L112.384 49.0995Z" fill="#FFC3BD"/>
<path d="M112.976 52.2368C110.88 50.933 108.901 49.4511 107.059 47.8074L108.526 40.3032C111.255 41.0799 114.029 41.6863 116.833 42.1187C121.464 42.7175 116.277 54.2043 112.976 52.2368Z" fill="#263238"/>
<path d="M97.1356 22.657L97.3968 17.9663L93.5022 19.2162C93.5022 19.2162 92.595 22.5762 95.1218 23.4602L97.1356 22.657Z" fill="#FFC3BD"/>
<path d="M96.9264 15.4429L93.7109 16.7831L93.502 19.2164L97.3965 17.9664L96.9264 15.4429Z" fill="#FFC3BD"/>
<path opacity="0.2" d="M123.34 146.446L123.848 150.842L127.529 150.837L127.021 146.441L123.34 146.446Z" fill="black"/>
<path opacity="0.2" d="M153.378 133.328L150.59 135.738L153.848 138.732L156.631 136.322L153.378 133.328Z" fill="black"/>
<path d="M130.986 41.966C130.994 41.7052 130.951 41.4453 130.858 41.2014C130.765 40.9575 130.625 40.7343 130.446 40.5448C130.267 40.3552 130.052 40.2031 129.814 40.0971C129.575 39.9911 129.318 39.9334 129.058 39.9272C118.552 39.7324 111.717 42.6789 111.247 42.869C111.072 42.9398 110.917 43.0542 110.798 43.2014C110.68 43.3486 110.6 43.5238 110.568 43.7102C110.131 46.3431 108.891 57.3784 114.966 74.649L134.439 71.8593C134.178 68.984 130.549 55.7911 130.986 41.966Z" fill="#263238"/>
<path d="M115.236 41.5435C114.082 43.088 113.559 46.6476 117.382 49.252C122.084 45.7399 124.507 41.9617 125.224 39.9941C121.85 40.1635 118.503 40.6827 115.236 41.5435Z" fill="white"/>
<path d="M114.362 42.9883C114.11 42.9883 113.868 42.8882 113.69 42.7099C113.512 42.5317 113.412 42.2899 113.412 42.0378C113.412 41.2537 114.091 40.5788 114.666 40.1368C116.594 38.7111 120.365 37.6228 125.115 38.9962C125.348 39.0733 125.543 39.2379 125.657 39.4555C125.772 39.673 125.798 39.9265 125.73 40.1628C125.662 40.3991 125.504 40.5997 125.291 40.7225C125.078 40.8452 124.826 40.8806 124.588 40.8212C119.078 39.2291 115.682 41.4913 115.317 42.1424C115.291 42.3768 115.179 42.5931 115.002 42.7495C114.826 42.9058 114.598 42.9909 114.362 42.9883Z" fill="#FEE675"/>
<path d="M122.258 30.9595C122.115 33.7017 122.291 38.6633 124.409 40.1746C123.165 41.8237 121.507 43.758 118.358 44.3235C116.459 44.6609 115.808 43.9576 115.727 43.0689C115.7 42.6402 115.795 42.2126 116 41.8352C116.205 41.4578 116.512 41.1458 116.886 40.935C118.933 39.7469 118.525 37.8363 117.788 36.0304L122.258 30.9595Z" fill="#FFC3BD"/>
<path d="M114.071 64.7924C113.964 64.792 113.858 64.7727 113.758 64.7354C113.52 64.6515 113.326 64.4767 113.217 64.2494C113.109 64.0222 113.095 63.7611 113.178 63.5235C113.31 63.191 113.371 62.8346 113.358 62.4771C113.345 62.1196 113.258 61.7687 113.102 61.4467L113.003 61.1758C112.84 60.8566 112.625 60.5673 112.366 60.3203C111.81 59.8743 111.426 59.2497 111.278 58.5524C111.13 57.8552 111.227 57.1281 111.554 56.4946C111.671 56.2233 111.74 55.9339 111.758 55.6391C111.667 55.3006 111.521 54.9794 111.326 54.6886C110.934 54.1278 110.702 53.4705 110.656 52.7876C110.71 52.0735 110.969 51.3902 111.402 50.8201C111.565 50.6039 111.693 50.3633 111.782 50.1072C111.785 49.8428 111.734 49.5806 111.63 49.3373C111.402 48.7972 111.345 48.1997 111.468 47.6264C111.661 46.9799 112.058 46.413 112.599 46.0105C112.752 45.8949 112.885 45.7553 112.993 45.5971C113.061 45.3675 113.061 45.1233 112.993 44.8937C112.849 44.3433 112.925 43.7581 113.207 43.2636C113.539 42.7408 113.506 42.6077 113.477 42.4984C113.429 42.3318 113.409 42.1585 113.416 41.9852C113.416 41.7331 113.516 41.4913 113.694 41.3131C113.872 41.1348 114.114 41.0347 114.366 41.0347C114.618 41.0347 114.859 41.1348 115.037 41.3131C115.215 41.4913 115.316 41.7331 115.316 41.9852V42.0137C115.449 42.5507 115.487 43.1923 114.841 44.2426C114.848 44.3542 114.863 44.4653 114.883 44.5753C115.027 45.098 115.005 45.6521 114.823 46.1623C114.64 46.6725 114.305 47.114 113.862 47.4268C113.558 47.6929 113.387 47.8545 113.321 48.0874C113.311 48.3069 113.355 48.5256 113.449 48.7242C113.651 49.2325 113.73 49.7811 113.682 50.3258C113.577 50.8718 113.349 51.3868 113.017 51.8324C112.796 52.1103 112.644 52.4357 112.57 52.7829C112.647 53.1155 112.787 53.4302 112.984 53.7096C113.325 54.2202 113.556 54.7964 113.663 55.4015C113.689 55.9736 113.59 56.5445 113.373 57.0744C113.218 57.4123 113.145 57.7818 113.159 58.1532C113.309 58.4828 113.524 58.7787 113.791 59.0229C114.231 59.4529 114.579 59.9668 114.817 60.5342L114.902 60.7813C115.37 61.8438 115.399 63.048 114.983 64.1318C114.921 64.3248 114.799 64.493 114.635 64.6119C114.471 64.7307 114.274 64.794 114.071 64.7924Z" fill="#FEE675"/>
<path d="M130.81 41.8096C131.328 42.2848 131.76 42.684 132.197 43.1403C132.634 43.5965 133.062 44.0385 133.484 44.4947C134.33 45.4072 135.128 46.3672 135.897 47.3462C137.5 49.3754 138.842 51.5979 139.891 53.9617C140.156 54.594 140.387 55.2396 140.585 55.896C140.685 56.2287 140.77 56.5756 140.851 56.9273L140.879 57.0556L140.922 57.279C140.951 57.4263 140.965 57.5831 140.979 57.7542C141.002 58.0712 140.992 58.3897 140.951 58.7047C140.88 59.2727 140.708 59.8233 140.442 60.3301C140.22 60.752 139.951 61.1474 139.64 61.5087C139.125 62.097 138.532 62.6119 137.878 63.039C136.761 63.7704 135.558 64.361 134.297 64.7974C133.698 65.016 133.095 65.2014 132.487 65.3582C131.879 65.5151 131.29 65.6624 130.63 65.7717L129.775 63.1436C130.25 62.8774 130.758 62.597 131.238 62.3119C131.718 62.0267 132.188 61.7273 132.663 61.4279C133.546 60.8695 134.377 60.2333 135.147 59.5269C135.442 59.2423 135.702 58.9231 135.921 58.5764C136.087 58.3055 136.073 58.1249 136.025 58.1819C136.022 58.1976 136.022 58.2138 136.025 58.2295L135.997 58.1439C135.926 57.9253 135.859 57.7019 135.764 57.4738C135.588 57.01 135.387 56.5563 135.161 56.1146C134.684 55.1759 134.141 54.2723 133.537 53.4104C132.933 52.517 132.268 51.6425 131.566 50.787C130.863 49.9316 130.141 49.0904 129.376 48.2587C129.001 47.8453 128.616 47.4413 128.227 47.0421C127.837 46.6429 127.429 46.2246 127.082 45.892L130.81 41.8096Z" fill="#FFC3BD"/>
<path d="M129.584 40.008C131.73 40.3264 135.098 45.711 135.098 45.711L129.631 53.0441C129.631 53.0441 126.715 50.2639 125.865 47.8164C124.259 43.1209 125.366 39.3902 129.584 40.008Z" fill="#263238"/>
<path d="M126.721 58.467C126.556 58.4652 126.395 58.4204 126.252 58.3371C126.11 58.2537 125.992 58.1347 125.909 57.9918C125.582 57.3527 125.441 56.635 125.501 55.9197C125.526 55.6244 125.5 55.327 125.425 55.0405C125.234 54.7453 124.995 54.4849 124.717 54.2706C124.17 53.8634 123.745 53.3145 123.487 52.6832C123.311 51.9893 123.342 51.2589 123.577 50.5826C123.663 50.3251 123.71 50.0558 123.715 49.7842C123.595 49.4581 123.422 49.1545 123.202 48.886C122.712 48.3827 122.426 47.7165 122.397 47.015C122.368 46.3134 122.599 45.6258 123.045 45.084C123.174 44.8904 123.278 44.6812 123.354 44.4614C123.329 44.1007 123.242 43.747 123.097 43.4158C122.826 42.8553 122.733 42.2249 122.831 41.6099C123.009 40.7351 123.45 39.9356 124.095 39.3192L124.156 39.2574C124.334 39.0889 124.569 38.9953 124.814 38.9961C125.058 38.9969 125.293 39.0919 125.469 39.2615C125.645 39.4311 125.749 39.6622 125.76 39.9066C125.77 40.151 125.686 40.39 125.524 40.5738L125.415 40.6832C125.027 41.0577 124.766 41.5448 124.669 42.0756C124.721 42.3141 124.792 42.5478 124.883 42.7742C125.132 43.35 125.257 43.9719 125.249 44.5992C125.175 45.1196 124.982 45.6158 124.684 46.0487C124.478 46.3293 124.343 46.6553 124.289 46.9992C124.401 47.2933 124.562 47.5664 124.764 47.8071C125.148 48.2841 125.428 48.8361 125.586 49.4278C125.659 49.9791 125.605 50.5398 125.429 51.0674C125.309 51.4019 125.265 51.7592 125.301 52.1129C125.481 52.4043 125.715 52.659 125.99 52.8638C126.473 53.2438 126.872 53.7195 127.163 54.261C127.368 54.7951 127.453 55.3681 127.41 55.9387C127.375 56.3087 127.422 56.682 127.548 57.0318C127.676 57.248 127.714 57.5065 127.653 57.7507C127.591 57.9948 127.436 58.2046 127.22 58.3339C127.069 58.4235 126.897 58.4696 126.721 58.467Z" fill="#FEE675"/>
<path opacity="0.2" d="M120.432 33.0269L117.791 36.0257C117.99 36.4863 118.149 36.9634 118.266 37.4514C119.377 37.1235 120.759 35.655 120.712 34.4478C120.705 33.9612 120.61 33.4798 120.432 33.0269Z" fill="black"/>
<path d="M114.882 23.1607C113.709 25.2043 114.459 28.1128 114.459 28.1128C114.774 28.3176 115.137 28.4344 115.512 28.4511C115.887 28.4678 116.26 28.3838 116.592 28.2079L116.259 22.79L114.882 23.1607Z" fill="#263238"/>
<path d="M124.127 28.3501C123.229 31.8954 122.882 34.015 120.726 35.5121C117.482 37.7648 113.369 35.284 113.193 31.5437C113.032 28.1742 114.528 22.9465 118.309 22.1861C119.14 22.0137 120.002 22.0571 120.812 22.3121C121.622 22.5672 122.354 23.0254 122.937 23.6433C123.52 24.2611 123.936 25.0179 124.144 25.8418C124.352 26.6656 124.346 27.5291 124.127 28.3501Z" fill="#FFC3BD"/>
<path d="M113.782 32.4754H113.654L105.604 30.7692C105.166 30.6766 104.783 30.4137 104.539 30.0385C104.295 29.6633 104.21 29.2064 104.302 28.7684C104.395 28.3304 104.657 27.9471 105.032 27.7029C105.407 27.4587 105.864 27.3736 106.302 27.4662C106.381 27.4831 106.457 27.5157 106.524 27.5619C106.591 27.6081 106.648 27.6672 106.692 27.7357C106.736 27.8041 106.767 27.8807 106.781 27.9608C106.796 28.041 106.794 28.1233 106.777 28.2029C106.741 28.3632 106.644 28.5031 106.506 28.5921C106.368 28.6811 106.201 28.712 106.04 28.6781C105.984 28.6644 105.925 28.6628 105.868 28.6734C105.81 28.6841 105.756 28.7067 105.708 28.7399C105.66 28.7711 105.618 28.8115 105.586 28.8588C105.553 28.9061 105.53 28.9594 105.518 29.0155C105.497 29.1303 105.519 29.2487 105.58 29.3482C105.646 29.4429 105.743 29.5105 105.855 29.5383L113.906 31.2445C114.055 31.2771 114.188 31.3637 114.277 31.4879C114.367 31.612 114.408 31.7649 114.392 31.9174C114.376 32.0698 114.305 32.211 114.191 32.3139C114.078 32.4169 113.931 32.4744 113.777 32.4754H113.782Z" fill="#FEE675"/>
<path d="M113.751 32.6178L112.777 32.4087L113.086 30.9829L114.036 31.1873C114.228 31.2283 114.396 31.344 114.503 31.5088C114.61 31.6737 114.647 31.8743 114.606 32.0665C114.559 32.249 114.444 32.407 114.286 32.5091C114.128 32.6113 113.937 32.6501 113.751 32.6178Z" fill="white"/>
<path d="M121.928 26.4021C121.928 25.0524 120.912 24.0687 117.52 24.3301C114.751 24.5392 113.403 23.2465 114.196 21.4453C116.438 22.6144 116.067 21.0841 120.342 20.8987C124.616 20.7134 125.856 22.3245 126.307 24.8291C128.924 28.7119 124.407 30.323 124.407 30.323L122.64 31.8675C122.274 31.9508 121.893 31.9343 121.535 31.8198C121.178 31.7053 120.857 31.4969 120.608 31.2164C120.608 31.2164 120.261 28.0655 121.928 26.4021Z" fill="#263238"/>
<path d="M117.388 20.2283L117.279 20.2853C117.177 20.3395 117.092 20.4195 117.031 20.5172C116.97 20.615 116.936 20.7271 116.932 20.8422C116.928 20.9574 116.955 21.0715 117.009 21.1732C117.063 21.2748 117.143 21.3603 117.241 21.4212L127.158 27.5566C127.251 27.6139 127.357 27.6468 127.467 27.6525C127.576 27.6582 127.685 27.6364 127.783 27.5891C127.882 27.5419 127.967 27.4707 128.032 27.382C128.096 27.2933 128.137 27.19 128.151 27.0814C128.197 26.7749 128.152 26.4615 128.022 26.1802C127.892 25.8989 127.683 25.6619 127.419 25.4988L118.965 20.271C118.729 20.1269 118.459 20.0471 118.182 20.0396C117.906 20.0321 117.632 20.0972 117.388 20.2283Z" fill="#FEE675"/>
<path d="M119.172 20.8838L121.708 17.1674C121.781 17.0614 121.891 16.9872 122.016 16.9598C122.141 16.9325 122.273 16.954 122.383 17.02L129.383 21.2165C129.445 21.2523 129.498 21.3009 129.539 21.3588C129.58 21.4167 129.608 21.4828 129.621 21.5525C129.635 21.6223 129.633 21.6941 129.617 21.7632C129.6 21.8322 129.569 21.897 129.526 21.9531L126.491 25.9643L119.172 20.8838Z" fill="#FEE675"/>
<path d="M119.172 20.8839L120.184 19.0732L128.001 24.244L126.491 25.9644L119.172 20.8839Z" fill="#FEE675"/>
<path opacity="0.6" d="M119.172 20.8839L120.184 19.0732L128.001 24.244L126.491 25.9644L119.172 20.8839Z" fill="white"/>
<path d="M124.578 32.699C123.884 33.1733 123.032 33.3574 122.204 33.2122C121.125 33.0031 121.125 31.91 121.871 31.1354C122.541 30.4368 123.913 29.7096 124.778 30.3132C125.642 30.9168 125.438 32.1049 124.578 32.699Z" fill="#FFC3BD"/>
<path d="M122.465 149.995H128.696C128.696 149.995 127.718 127.82 126.374 116.424C125.965 112.954 126.407 108.202 126.45 102.893C126.507 96.2066 126.815 88.921 127.119 83.2037C127.442 77.1823 127.713 72.8433 127.713 72.8433L114.965 74.6635C114.965 74.6635 113.702 106.234 115.683 117.298C117.744 128.79 122.465 149.995 122.465 149.995Z" fill="#86C3BB"/>
<path opacity="0.2" d="M126.448 102.88C126.505 96.1929 126.814 88.9073 127.118 83.1901L125.218 80.6475C122.872 85.0435 124.501 96.7489 126.448 102.88Z" fill="black"/>
<path d="M121.041 73.7794C121.041 73.7794 128.958 105.065 132.72 115.183C136.838 126.257 152.003 139.202 152.003 139.202L155.836 134.982C155.836 134.982 147.814 122.469 141.901 110.431C139.075 94.7997 134.458 71.8594 134.458 71.8594L121.041 73.7794Z" fill="#86C3BB"/>
<path d="M151.487 139.839L157.496 134.645L155.942 132.853L149.127 138.542L151.487 139.839Z" fill="#263238"/>
<path d="M121.681 150.138L129.109 150.128L129.104 147.728L120.807 147.614L121.681 150.138Z" fill="#263238"/>
<path d="M118.656 27.6561C118.418 27.5848 118.137 27.8129 118.023 28.1694L118.869 28.4403C118.983 28.0838 118.888 27.7321 118.656 27.6561Z" fill="#263238"/>
<path d="M114.95 26.958C114.707 26.958 114.475 27.2337 114.475 27.6091L115.359 27.6661C115.373 27.2907 115.197 26.996 114.95 26.958Z" fill="#263238"/>
<path d="M116.226 28.0415C115.709 28.8678 115.081 29.6194 114.359 30.2752C114.533 30.4551 114.743 30.5951 114.976 30.6854C115.209 30.7757 115.459 30.8141 115.708 30.798L116.226 28.0415Z" fill="#ED847E"/>
<path d="M119.862 27.2761C119.892 27.2832 119.923 27.2832 119.952 27.2761C119.996 27.2619 120.033 27.2311 120.054 27.1902C120.075 27.1493 120.08 27.1017 120.066 27.0575C119.992 26.7908 119.855 26.5457 119.667 26.343C119.478 26.1404 119.243 25.9861 118.983 25.8932C118.961 25.886 118.938 25.8833 118.915 25.8855C118.892 25.8877 118.87 25.8945 118.85 25.9057C118.83 25.9169 118.812 25.9321 118.798 25.9504C118.784 25.9687 118.774 25.9896 118.769 26.012C118.762 26.0338 118.76 26.0567 118.763 26.0794C118.765 26.1021 118.772 26.124 118.783 26.1439C118.794 26.1638 118.809 26.1813 118.827 26.1954C118.845 26.2095 118.866 26.2198 118.888 26.2258C119.094 26.3053 119.279 26.4331 119.426 26.5984C119.573 26.7638 119.679 26.9619 119.734 27.1763C119.746 27.2016 119.764 27.2238 119.786 27.2411C119.808 27.2584 119.834 27.2704 119.862 27.2761Z" fill="#263238"/>
<path d="M113.854 26.4587C113.882 26.4635 113.911 26.4612 113.939 26.4521C113.966 26.443 113.991 26.4273 114.01 26.4064C114.153 26.2414 114.333 26.1124 114.535 26.0298C114.738 25.9473 114.956 25.9135 115.174 25.9311C115.22 25.9379 115.267 25.9263 115.304 25.8987C115.341 25.8711 115.366 25.8298 115.373 25.7838C115.38 25.7391 115.369 25.6935 115.342 25.6569C115.316 25.6204 115.276 25.596 115.231 25.5889C114.956 25.5617 114.678 25.601 114.421 25.7036C114.164 25.8061 113.935 25.9689 113.754 26.1783C113.737 26.1942 113.724 26.2134 113.715 26.2347C113.706 26.2559 113.701 26.2787 113.701 26.3018C113.701 26.3249 113.706 26.3478 113.715 26.369C113.724 26.3902 113.737 26.4094 113.754 26.4254C113.783 26.4454 113.818 26.4569 113.854 26.4587Z" fill="#263238"/>
<path d="M155.838 142.758C156.08 142.537 156.297 142.29 156.484 142.021C156.494 142.007 156.499 141.99 156.499 141.973C156.499 141.957 156.494 141.94 156.484 141.926C156.477 141.91 156.464 141.897 156.449 141.889C156.433 141.882 156.416 141.879 156.399 141.883C156.247 141.883 154.893 142.106 154.717 142.539C154.698 142.586 154.691 142.638 154.698 142.689C154.704 142.74 154.724 142.788 154.755 142.829C154.8 142.902 154.863 142.963 154.938 143.005C155.013 143.048 155.097 143.07 155.183 143.071C155.431 143.046 155.663 142.935 155.838 142.758ZM156.218 142.092C155.824 142.601 155.444 142.895 155.187 142.895C155.129 142.894 155.072 142.877 155.022 142.847C154.973 142.817 154.931 142.775 154.903 142.724C154.891 142.707 154.886 142.688 154.886 142.667C154.886 142.647 154.891 142.627 154.903 142.61C154.969 142.387 155.677 142.187 156.218 142.092Z" fill="#FEE675"/>
<path d="M156.472 142.04C156.484 142.028 156.494 142.014 156.5 141.997C156.507 141.984 156.511 141.968 156.511 141.952C156.511 141.937 156.507 141.921 156.5 141.907C156.467 141.874 155.74 141.099 155.199 141.104C155.133 141.104 155.067 141.118 155.006 141.145C154.946 141.172 154.892 141.212 154.847 141.261C154.797 141.305 154.763 141.364 154.751 141.43C154.739 141.495 154.749 141.563 154.781 141.622C154.976 141.993 156.035 142.145 156.453 142.059L156.472 142.04ZM154.98 141.356C155.036 141.308 155.107 141.283 155.18 141.285C155.527 141.285 156.001 141.689 156.229 141.902C155.754 141.926 155.028 141.755 154.909 141.537C154.909 141.513 154.876 141.465 154.952 141.384L154.98 141.356Z" fill="#FEE675"/>
<path d="M123.989 155.057C124.004 155.052 124.018 155.042 124.028 155.029C124.038 155.017 124.044 155.002 124.046 154.986C124.05 154.968 124.048 154.949 124.04 154.933C124.032 154.917 124.019 154.903 124.003 154.895C123.832 154.81 122.355 154.059 121.909 154.311C121.866 154.333 121.83 154.367 121.804 154.407C121.778 154.448 121.763 154.495 121.761 154.544C121.752 154.622 121.762 154.702 121.791 154.776C121.82 154.85 121.867 154.916 121.928 154.967C122.331 155.323 123.386 155.176 123.979 155.057H123.989ZM122.023 154.449C122.303 154.353 123.106 154.658 123.69 154.924C122.878 155.062 122.265 155.028 122.042 154.824C122.002 154.79 121.972 154.746 121.953 154.697C121.935 154.648 121.929 154.595 121.937 154.544C121.937 154.525 121.943 154.506 121.953 154.49C121.963 154.474 121.977 154.461 121.994 154.453L122.023 154.449Z" fill="#FEE675"/>
<path d="M123.991 155.057H124.015C124.027 155.047 124.037 155.035 124.043 155.021C124.05 155.007 124.053 154.991 124.053 154.976C124.053 154.938 123.944 153.945 123.478 153.55C123.413 153.495 123.337 153.453 123.255 153.428C123.174 153.402 123.088 153.394 123.003 153.403C122.76 153.403 122.694 153.55 122.679 153.645C122.613 154.063 123.492 154.857 123.939 155.071C123.957 155.071 123.975 155.066 123.991 155.057ZM122.922 153.588H123.012C123.075 153.581 123.14 153.587 123.2 153.607C123.261 153.627 123.317 153.659 123.364 153.702C123.635 154.021 123.801 154.416 123.839 154.833C123.387 154.562 122.784 153.94 122.827 153.688C122.836 153.655 122.836 153.612 122.922 153.588Z" fill="#FEE675"/>
<path d="M130.219 62.8965L126.676 64.0181L129.426 66.7555C129.426 66.7555 132.636 65.363 131.63 63.9468L130.219 62.8965Z" fill="#FFC3BD"/>
<path d="M125.219 67.1452L127.741 68.6755L129.427 66.7555L126.677 64.0181L125.219 67.1452Z" fill="#FFC3BD"/>
</svg>
