<svg width="77" height="71" viewBox="0 0 77 71" fill="none" xmlns="http://www.w3.org/2000/svg">
<path d="M38.1106 70.9997C59.1585 70.9997 76.2212 70.0029 76.2212 68.7733C76.2212 67.5437 59.1585 66.5469 38.1106 66.5469C17.0627 66.5469 0 67.5437 0 68.7733C0 70.0029 17.0627 70.9997 38.1106 70.9997Z" fill="#F5F5F5"/>
<path d="M13.856 25.7582C12.5568 25.7582 11.9455 24.4503 11.9199 24.3952C11.8977 24.334 11.8992 24.2666 11.9243 24.2065C11.9494 24.1464 11.9961 24.0979 12.0553 24.0707C12.1144 24.0434 12.1816 24.0394 12.2436 24.0595C12.3055 24.0795 12.3577 24.1221 12.3897 24.1788C12.3897 24.1966 12.9066 25.2685 13.8953 25.2409C13.9603 25.2446 14.0215 25.2726 14.0669 25.3193C14.1122 25.366 14.1384 25.4281 14.1401 25.4932C14.1418 25.5583 14.119 25.6217 14.0762 25.6708C14.0334 25.7199 13.9738 25.7511 13.9091 25.7582H13.856Z" fill="#FEE675"/>
<path d="M30.8374 7.5948C30.7244 7.5953 30.6114 7.58807 30.4994 7.57317C30.4658 7.56813 30.4336 7.55653 30.4045 7.53903C30.3754 7.52152 30.3501 7.49846 30.3299 7.47116C30.3097 7.44386 30.2951 7.41284 30.2869 7.37989C30.2787 7.34695 30.2771 7.31271 30.2822 7.27913C30.2872 7.24555 30.2988 7.2133 30.3163 7.1842C30.3338 7.15511 30.3568 7.12975 30.3841 7.10956C30.4114 7.08938 30.4424 7.07478 30.4753 7.06658C30.5082 7.05838 30.5425 7.05676 30.576 7.0618C30.5878 7.0618 31.7711 7.22897 32.29 6.38521C32.3077 6.35628 32.3309 6.33112 32.3583 6.31117C32.3857 6.29121 32.4167 6.27685 32.4497 6.26891C32.4826 6.26096 32.5168 6.25959 32.5503 6.26486C32.5838 6.27014 32.6159 6.28196 32.6448 6.29965C32.6737 6.31735 32.6988 6.34056 32.7188 6.36798C32.7387 6.39539 32.7531 6.42647 32.761 6.45944C32.769 6.49241 32.7703 6.52661 32.7651 6.56011C32.7598 6.59361 32.748 6.62574 32.7303 6.65466C32.2133 7.47286 31.319 7.5948 30.8374 7.5948Z" fill="#FEE675"/>
<path opacity="0.6" d="M30.8374 7.5948C30.7244 7.5953 30.6114 7.58807 30.4994 7.57317C30.4658 7.56813 30.4336 7.55653 30.4045 7.53903C30.3754 7.52152 30.3501 7.49846 30.3299 7.47116C30.3097 7.44386 30.2951 7.41284 30.2869 7.37989C30.2787 7.34695 30.2771 7.31271 30.2822 7.27913C30.2872 7.24555 30.2988 7.2133 30.3163 7.1842C30.3338 7.15511 30.3568 7.12975 30.3841 7.10956C30.4114 7.08938 30.4424 7.07478 30.4753 7.06658C30.5082 7.05838 30.5425 7.05676 30.576 7.0618C30.5878 7.0618 31.7711 7.22897 32.29 6.38521C32.3077 6.35628 32.3309 6.33112 32.3583 6.31117C32.3857 6.29121 32.4167 6.27685 32.4497 6.26891C32.4826 6.26096 32.5168 6.25959 32.5503 6.26486C32.5838 6.27014 32.6159 6.28196 32.6448 6.29965C32.6737 6.31735 32.6988 6.34056 32.7188 6.36798C32.7387 6.39539 32.7531 6.42647 32.761 6.45944C32.769 6.49241 32.7703 6.52661 32.7651 6.56011C32.7598 6.59361 32.748 6.62574 32.7303 6.65466C32.2133 7.47286 31.319 7.5948 30.8374 7.5948Z" fill="white"/>
<path d="M1.66845 17.4455C1.16976 17.4285 0.685452 17.274 0.268959 16.999C0.239577 16.9802 0.214329 16.9555 0.194748 16.9266C0.175167 16.8977 0.161661 16.8652 0.155051 16.8309C0.148442 16.7966 0.148866 16.7613 0.156298 16.7272C0.163731 16.6931 0.178016 16.6608 0.198286 16.6324C0.218557 16.604 0.244389 16.58 0.274216 16.5619C0.304042 16.5437 0.337239 16.5319 0.37179 16.527C0.406342 16.5221 0.441528 16.5242 0.47521 16.5334C0.508892 16.5425 0.540369 16.5584 0.567727 16.5801C0.577555 16.5801 1.56821 17.2508 2.40358 16.7178C2.43219 16.6969 2.46475 16.6822 2.49927 16.6744C2.53378 16.6667 2.56952 16.666 2.60428 16.6726C2.63904 16.6792 2.6721 16.6928 2.70141 16.7126C2.73072 16.7324 2.75568 16.758 2.77474 16.7878C2.7938 16.8176 2.80657 16.8511 2.81225 16.886C2.81794 16.9209 2.81643 16.9567 2.8078 16.991C2.79918 17.0253 2.78364 17.0575 2.76212 17.0856C2.74061 17.1137 2.71357 17.1371 2.68269 17.1544C2.37989 17.3476 2.02756 17.4487 1.66845 17.4455Z" fill="#FEE675"/>
<path opacity="0.6" d="M1.66845 17.4455C1.16976 17.4285 0.685452 17.274 0.268959 16.999C0.239577 16.9802 0.214329 16.9555 0.194748 16.9266C0.175167 16.8977 0.161661 16.8652 0.155051 16.8309C0.148442 16.7966 0.148866 16.7613 0.156298 16.7272C0.163731 16.6931 0.178016 16.6608 0.198286 16.6324C0.218557 16.604 0.244389 16.58 0.274216 16.5619C0.304042 16.5437 0.337239 16.5319 0.37179 16.527C0.406342 16.5221 0.441528 16.5242 0.47521 16.5334C0.508892 16.5425 0.540369 16.5584 0.567727 16.5801C0.577555 16.5801 1.56821 17.2508 2.40358 16.7178C2.43219 16.6969 2.46475 16.6822 2.49927 16.6744C2.53378 16.6667 2.56952 16.666 2.60428 16.6726C2.63904 16.6792 2.6721 16.6928 2.70141 16.7126C2.73072 16.7324 2.75568 16.758 2.77474 16.7878C2.7938 16.8176 2.80657 16.8511 2.81225 16.886C2.81794 16.9209 2.81643 16.9567 2.8078 16.991C2.79918 17.0253 2.78364 17.0575 2.76212 17.0856C2.74061 17.1137 2.71357 17.1371 2.68269 17.1544C2.37989 17.3476 2.02756 17.4487 1.66845 17.4455Z" fill="white"/>
<path d="M69.093 10.5477C68.5951 10.5343 68.1104 10.3846 67.6915 10.115C67.6352 10.0761 67.5967 10.0165 67.5843 9.94918C67.572 9.88186 67.5869 9.81239 67.6257 9.75606C67.6645 9.69972 67.7241 9.66113 67.7914 9.64877C67.8587 9.63642 67.9281 9.65131 67.9844 9.69017C67.9942 9.69017 68.9868 10.3589 69.8222 9.82785C69.8507 9.80964 69.8826 9.79723 69.9159 9.79133C69.9492 9.78543 69.9834 9.78615 70.0164 9.79345C70.0494 9.80076 70.0807 9.8145 70.1084 9.8339C70.1362 9.8533 70.1598 9.87798 70.178 9.90652C70.1962 9.93506 70.2086 9.96691 70.2145 10.0002C70.2204 10.0336 70.2197 10.0678 70.2124 10.1008C70.2051 10.1339 70.1913 10.1652 70.1719 10.1929C70.1525 10.2207 70.1279 10.2443 70.0994 10.2625C69.7986 10.4532 69.449 10.5523 69.093 10.5477Z" fill="#FEE675"/>
<path opacity="0.6" d="M69.093 10.5477C68.5951 10.5343 68.1104 10.3846 67.6915 10.115C67.6352 10.0761 67.5967 10.0165 67.5843 9.94918C67.572 9.88186 67.5869 9.81239 67.6257 9.75606C67.6645 9.69972 67.7241 9.66113 67.7914 9.64877C67.8587 9.63642 67.9281 9.65131 67.9844 9.69017C67.9942 9.69017 68.9868 10.3589 69.8222 9.82785C69.8507 9.80964 69.8826 9.79723 69.9159 9.79133C69.9492 9.78543 69.9834 9.78615 70.0164 9.79345C70.0494 9.80076 70.0807 9.8145 70.1084 9.8339C70.1362 9.8533 70.1598 9.87798 70.178 9.90652C70.1962 9.93506 70.2086 9.96691 70.2145 10.0002C70.2204 10.0336 70.2197 10.0678 70.2124 10.1008C70.2051 10.1339 70.1913 10.1652 70.1719 10.1929C70.1525 10.2207 70.1279 10.2443 70.0994 10.2625C69.7986 10.4532 69.449 10.5523 69.093 10.5477Z" fill="white"/>
<path d="M37.4836 30.8625C36.2787 30.8625 35.6222 29.6942 35.5927 29.6411C35.5596 29.5811 35.5517 29.5104 35.5707 29.4446C35.5897 29.3787 35.634 29.3231 35.6939 29.29C35.7539 29.2569 35.8245 29.2489 35.8903 29.2679C35.9561 29.2869 36.0117 29.3313 36.0448 29.3913C36.0448 29.407 36.6345 30.4376 37.6173 30.3373C37.683 30.3351 37.7471 30.3578 37.7967 30.4011C37.8463 30.4443 37.8776 30.5047 37.8843 30.5702C37.8911 30.6356 37.8727 30.7012 37.833 30.7536C37.7933 30.8061 37.7351 30.8415 37.6703 30.8526C37.6114 30.8585 37.5465 30.8625 37.4836 30.8625Z" fill="#FEE675"/>
<path opacity="0.6" d="M37.4836 30.8625C36.2787 30.8625 35.6222 29.6942 35.5927 29.6411C35.5596 29.5811 35.5517 29.5104 35.5707 29.4446C35.5897 29.3787 35.634 29.3231 35.6939 29.29C35.7539 29.2569 35.8245 29.2489 35.8903 29.2679C35.9561 29.2869 36.0117 29.3313 36.0448 29.3913C36.0448 29.407 36.6345 30.4376 37.6173 30.3373C37.683 30.3351 37.7471 30.3578 37.7967 30.4011C37.8463 30.4443 37.8776 30.5047 37.8843 30.5702C37.8911 30.6356 37.8727 30.7012 37.833 30.7536C37.7933 30.8061 37.7351 30.8415 37.6703 30.8526C37.6114 30.8585 37.5465 30.8625 37.4836 30.8625Z" fill="white"/>
<path d="M4.49946 36.1159C4.43686 36.1154 4.3766 36.0921 4.32995 36.0503C4.2833 36.0085 4.25345 35.9512 4.24598 35.889C4.23851 35.8268 4.25394 35.764 4.28938 35.7124C4.32482 35.6608 4.37784 35.6238 4.43853 35.6085C4.45032 35.6085 5.60411 35.3036 5.76136 34.3241C5.76678 34.2907 5.77873 34.2586 5.79653 34.2298C5.81433 34.201 5.83763 34.176 5.8651 34.1561C5.89257 34.1363 5.92367 34.1221 5.95663 34.1143C5.98958 34.1065 6.02375 34.1053 6.05718 34.1107C6.09061 34.1162 6.12264 34.1281 6.15145 34.1459C6.18025 34.1638 6.20527 34.1871 6.22508 34.2146C6.24488 34.242 6.25908 34.2732 6.26687 34.3061C6.27465 34.3391 6.27587 34.3733 6.27044 34.4068C6.06013 35.7265 4.62329 36.0943 4.56236 36.11C4.54162 36.1139 4.52056 36.1159 4.49946 36.1159Z" fill="#FEE675"/>
<path opacity="0.6" d="M4.49946 36.1159C4.43686 36.1154 4.3766 36.0921 4.32995 36.0503C4.2833 36.0085 4.25345 35.9512 4.24598 35.889C4.23851 35.8268 4.25394 35.764 4.28938 35.7124C4.32482 35.6608 4.37784 35.6238 4.43853 35.6085C4.45032 35.6085 5.60411 35.3036 5.76136 34.3241C5.76678 34.2907 5.77873 34.2586 5.79653 34.2298C5.81433 34.201 5.83763 34.176 5.8651 34.1561C5.89257 34.1363 5.92367 34.1221 5.95663 34.1143C5.98958 34.1065 6.02375 34.1053 6.05718 34.1107C6.09061 34.1162 6.12264 34.1281 6.15145 34.1459C6.18025 34.1638 6.20527 34.1871 6.22508 34.2146C6.24488 34.242 6.25908 34.2732 6.26687 34.3061C6.27465 34.3391 6.27587 34.3733 6.27044 34.4068C6.06013 35.7265 4.62329 36.0943 4.56236 36.11C4.54162 36.1139 4.52056 36.1159 4.49946 36.1159Z" fill="black"/>
<path d="M61.8952 18.1879C61.8309 18.1901 61.7681 18.1682 61.7192 18.1264C61.6703 18.0845 61.6387 18.0259 61.6309 17.962C61.623 17.8981 61.6393 17.8336 61.6765 17.7811C61.7138 17.7287 61.7694 17.6921 61.8323 17.6785C61.8441 17.6785 62.9979 17.3756 63.1551 16.3962C63.1584 16.3607 63.1689 16.3263 63.186 16.2951C63.203 16.2638 63.2264 16.2365 63.2545 16.2146C63.2826 16.1928 63.3149 16.177 63.3494 16.1682C63.3839 16.1594 63.4198 16.1578 63.4549 16.1635C63.49 16.1692 63.5236 16.182 63.5536 16.2012C63.5835 16.2204 63.6092 16.2456 63.629 16.2752C63.6488 16.3048 63.6624 16.3381 63.6688 16.3731C63.6751 16.4081 63.6743 16.4441 63.6662 16.4788C63.4539 17.7985 62.0171 18.1663 61.9561 18.1801C61.9363 18.1856 61.9158 18.1882 61.8952 18.1879Z" fill="#FEE675"/>
<path opacity="0.6" d="M61.8952 18.1879C61.8309 18.1901 61.7681 18.1682 61.7192 18.1264C61.6703 18.0845 61.6387 18.0259 61.6309 17.962C61.623 17.8981 61.6393 17.8336 61.6765 17.7811C61.7138 17.7287 61.7694 17.6921 61.8323 17.6785C61.8441 17.6785 62.9979 17.3756 63.1551 16.3962C63.1584 16.3607 63.1689 16.3263 63.186 16.2951C63.203 16.2638 63.2264 16.2365 63.2545 16.2146C63.2826 16.1928 63.3149 16.177 63.3494 16.1682C63.3839 16.1594 63.4198 16.1578 63.4549 16.1635C63.49 16.1692 63.5236 16.182 63.5536 16.2012C63.5835 16.2204 63.6092 16.2456 63.629 16.2752C63.6488 16.3048 63.6624 16.3381 63.6688 16.3731C63.6751 16.4081 63.6743 16.4441 63.6662 16.4788C63.4539 17.7985 62.0171 18.1663 61.9561 18.1801C61.9363 18.1856 61.9158 18.1882 61.8952 18.1879Z" fill="black"/>
<path d="M72.4542 27.9951H72.4109C72.348 27.9833 70.8896 27.7158 70.5888 26.4217C70.581 26.3883 70.5799 26.3538 70.5856 26.32C70.5913 26.2862 70.6036 26.2539 70.6219 26.225C70.6402 26.1961 70.6641 26.1711 70.6922 26.1515C70.7203 26.1319 70.7519 26.1181 70.7854 26.1109C70.8187 26.1034 70.8532 26.1025 70.8868 26.1083C70.9205 26.1141 70.9526 26.1265 70.9815 26.1447C71.0103 26.163 71.0353 26.1868 71.0549 26.2147C71.0746 26.2427 71.0885 26.2742 71.096 26.3076C71.32 27.2713 72.4915 27.4877 72.5033 27.4877C72.5652 27.5009 72.6201 27.5364 72.6578 27.5873C72.6954 27.6383 72.7131 27.7012 72.7075 27.7643C72.7019 27.8275 72.6735 27.8863 72.6276 27.9299C72.5817 27.9735 72.5214 27.9988 72.4581 28.001L72.4542 27.9951Z" fill="#FEE675"/>
<path d="M67.8481 37.4772C67.3979 37.4842 66.9601 37.3301 66.6137 37.0425C66.5848 37.0218 66.5605 36.9954 66.5423 36.9649C66.5241 36.9344 66.5124 36.9005 66.5079 36.8652C66.5034 36.8299 66.5063 36.7942 66.5163 36.7601C66.5264 36.726 66.5433 36.6943 66.5662 36.6671C66.589 36.6399 66.6172 36.6177 66.6491 36.602C66.6809 36.5862 66.7156 36.5772 66.7511 36.5755C66.7866 36.5738 66.822 36.5795 66.8552 36.5921C66.8884 36.6048 66.9186 36.6242 66.9439 36.6491C67.7046 37.2824 68.7719 36.7514 68.7837 36.7455C68.8447 36.7142 68.9156 36.7084 68.9808 36.7295C69.0461 36.7505 69.1003 36.7966 69.1316 36.8576C69.1629 36.9186 69.1686 36.9896 69.1476 37.0549C69.1266 37.1202 69.0805 37.1744 69.0195 37.2057C68.6533 37.3801 68.2536 37.4727 67.8481 37.4772Z" fill="#FEE675"/>
<path d="M55.8009 5.19782C55.7561 5.19816 55.712 5.18662 55.6732 5.16438C55.6201 5.13488 54.3366 4.39142 54.4938 3.06382C54.5016 2.99575 54.5362 2.93357 54.5898 2.89097C54.6434 2.84836 54.7118 2.82883 54.7798 2.83665C54.8478 2.84448 54.91 2.87902 54.9525 2.93269C54.9951 2.98636 55.0146 3.05475 55.0068 3.12282C54.8948 4.10623 55.9247 4.71005 55.9346 4.71595C55.9846 4.74425 56.0238 4.78849 56.0458 4.84162C56.0678 4.89476 56.0714 4.95374 56.056 5.00916C56.0406 5.06459 56.0072 5.11327 55.9609 5.14746C55.9147 5.18165 55.8584 5.19937 55.8009 5.19782Z" fill="#FEE675"/>
<path d="M4.45603 6.24612C4.42221 6.24754 4.38845 6.24228 4.35667 6.23064C4.32488 6.21901 4.2957 6.20122 4.27079 6.1783C4.24587 6.15538 4.22572 6.12777 4.21146 6.09706C4.19721 6.06634 4.18915 6.03311 4.18773 5.99928C4.18631 5.96544 4.19156 5.93166 4.20319 5.89986C4.21482 5.86805 4.23259 5.83885 4.2555 5.81392C4.27841 5.78899 4.30599 5.76882 4.33669 5.75456C4.36739 5.7403 4.40059 5.73223 4.43441 5.73081C5.4172 5.64427 5.81031 4.51531 5.81031 4.50351C5.83314 4.44075 5.87944 4.38931 5.93944 4.36004C5.99944 4.33077 6.06845 4.32596 6.13193 4.34662C6.1954 4.36728 6.24838 4.4118 6.27969 4.47079C6.31099 4.52978 6.31818 4.59863 6.29974 4.66283C6.28205 4.7238 5.81031 6.13007 4.47962 6.23628L4.45603 6.24612Z" fill="#FEE675"/>
<path d="M23.6353 14.0293C22.9375 14.3558 22.3223 15.9254 22.5228 18.1793C22.7233 20.4333 18.057 18.852 17.4221 21.3774C16.2762 25.9483 23.9596 28.6959 27.2343 25.9483C29.2608 24.2489 31.1654 18.6474 30.8863 15.591C30.5875 12.3044 25.4928 10.0996 23.6353 14.0293Z" fill="#263238"/>
<path d="M31.0098 19.7962C31.0963 19.7706 31.222 19.7332 31.3302 19.6978L31.6682 19.5837C31.8943 19.5051 32.1184 19.4185 32.3405 19.3261C32.783 19.1443 33.2148 18.9374 33.6338 18.7065C34.4549 18.2681 35.1938 17.6905 35.8176 16.9993C36.3738 16.3385 36.7728 15.4377 37.0854 14.5133C37.2446 14.0491 37.3782 13.5712 37.4922 13.0854C37.6063 12.5996 37.7144 12.102 37.7969 11.624L38.5989 11.6732C38.6002 12.7368 38.4848 13.7974 38.2549 14.8358C38.1379 15.368 37.9795 15.8901 37.7812 16.3975C37.5756 16.9331 37.3 17.439 36.9615 17.9021C36.2692 18.7903 35.4106 19.5352 34.4338 20.0951C33.9631 20.3735 33.4746 20.6206 32.9714 20.8346C32.7198 20.9408 32.4663 21.0313 32.2068 21.1277C32.079 21.1729 31.9493 21.2162 31.8137 21.2555C31.6781 21.2949 31.5582 21.3322 31.397 21.3716L31.0098 19.7962Z" fill="#7F3E3B"/>
<path d="M38.5944 11.942L38.9285 10.7402L37.6018 10.8425C37.6018 10.8425 37.5074 11.6292 37.9654 12.1032L38.5944 11.942Z" fill="#7F3E3B"/>
<path d="M39.1269 9.34277L37.9161 9.65943L37.6016 10.8435L38.9283 10.7412L39.1269 9.34277Z" fill="#7F3E3B"/>
<path d="M29.5067 20.1035C30.118 19.5469 31.6688 19.1201 31.6688 19.1201L33.3691 21.677C33.3691 21.677 31.429 22.9731 30.6055 22.6722C29.7485 22.3732 28.9367 20.6208 29.5067 20.1035Z" fill="#FEE675"/>
<path d="M23.9082 56.4711L24.9677 57.6355L28.0084 55.4681L26.949 54.3037L23.9082 56.4711Z" fill="#7F3E3B"/>
<path d="M17.9277 61.0721L19.3488 61.7782L21.4383 58.7119L20.0171 58.0059L17.9277 61.0721Z" fill="#7F3E3B"/>
<path d="M19.5747 61.6029L18.4779 60.1966C18.4594 60.1721 18.4327 60.1552 18.4026 60.149C18.3726 60.1429 18.3413 60.1479 18.3147 60.1632L17.0784 60.8713C17.0478 60.89 17.0215 60.9149 17.0013 60.9446C16.981 60.9742 16.9673 61.0078 16.961 61.0431C16.9547 61.0784 16.9559 61.1146 16.9646 61.1494C16.9734 61.1842 16.9893 61.2168 17.0116 61.245C17.4047 61.7288 17.615 61.9432 18.0985 62.5627C18.3934 62.9423 18.9948 63.8274 19.4037 64.3525C19.8125 64.8777 20.355 64.502 20.2312 64.2463C19.6769 63.0997 19.6415 62.4191 19.6612 61.8724C19.6651 61.7751 19.6345 61.6797 19.5747 61.6029Z" fill="#263238"/>
<path d="M25.2832 57.6568L24.5599 55.9181C24.5471 55.887 24.5243 55.861 24.4952 55.8443C24.466 55.8275 24.432 55.821 24.3987 55.8257L22.8656 56.0224C22.8291 56.0263 22.794 56.0388 22.7633 56.0589C22.7326 56.0789 22.7071 56.106 22.6888 56.1379C22.6706 56.1698 22.6602 56.2055 22.6585 56.2422C22.6567 56.2789 22.6637 56.3154 22.6788 56.3489C22.9422 56.9527 23.1014 57.2339 23.4199 57.999C23.6164 58.4691 24.0724 59.7043 24.3417 60.3592C24.611 61.0142 25.3029 60.8588 25.2518 60.5716C25.0218 59.2853 25.1004 58.4553 25.2911 57.9499C25.3092 57.9029 25.3178 57.8528 25.3164 57.8026C25.3151 57.7523 25.3038 57.7027 25.2832 57.6568Z" fill="#263238"/>
<path opacity="0.2" d="M28.0057 55.4681L26.4391 56.5852L25.2539 55.5113L26.9463 54.3037L28.0057 55.4681Z" fill="black"/>
<path opacity="0.2" d="M20.0166 58.0059L21.4377 58.7119L20.3586 60.2933L18.9375 59.5852L20.0166 58.0059Z" fill="black"/>
<path d="M31.6466 20.3021C31.6466 20.3021 31.6938 20.2313 30.8329 29.6287L24.4054 30.0791C24.3307 27.4554 24.5273 25.6026 23.3027 20.2116C24.2058 20.0296 25.1209 19.9139 26.0408 19.8654C27.0148 19.8004 27.9923 19.8057 28.9656 19.8812C30.2216 20.0011 31.6466 20.3021 31.6466 20.3021Z" fill="#FEE675"/>
<path d="M23.786 21.7695C23.3084 21.5492 22.8897 21.3132 22.4553 21.0634C22.0209 20.8136 21.6101 20.5461 21.2013 20.2629C20.3691 19.6976 19.5954 19.0506 18.8917 18.3315L18.6323 18.0502L18.5654 17.9794C18.5271 17.9354 18.491 17.8894 18.4573 17.8418C18.3965 17.755 18.3439 17.6628 18.3001 17.5664C18.1699 17.2591 18.1031 16.9286 18.1035 16.5948C18.1079 16.0635 18.1792 15.5348 18.3158 15.0213C18.5653 14.0604 18.9117 13.1273 19.3497 12.2363L20.1005 12.5274C19.9846 12.9739 19.8745 13.4381 19.7762 13.8924C19.6779 14.3467 19.5954 14.805 19.5404 15.2534C19.4765 15.6751 19.4594 16.1025 19.4893 16.5279C19.4991 16.6752 19.5364 16.8193 19.5993 16.9528C19.5993 16.9665 19.619 16.9823 19.6249 16.9842C19.6249 16.9842 19.6308 16.9862 19.6249 16.9842L19.6858 17.0413L19.9276 17.2714C20.6023 17.8828 21.3254 18.4386 22.0897 18.9333C22.473 19.1871 22.8759 19.4191 23.2691 19.6532C23.6622 19.8873 24.0848 20.1095 24.4681 20.3042L23.786 21.7695Z" fill="#7F3E3B"/>
<path d="M25.8332 20.5714C25.104 19.5546 23.6711 19.5703 23.6711 19.5703L21.9434 22.1272C21.9434 22.1272 23.8716 23.441 24.6952 23.148C25.5679 22.8372 26.2834 21.1969 25.8332 20.5714Z" fill="#FEE675"/>
<path d="M28.9672 19.881L26.0424 19.8652C25.5942 20.0462 25.3348 21.2125 28.3028 22.1998C30.3608 21.0296 29.2659 19.9891 28.9672 19.881Z" fill="white"/>
<path d="M26.3476 16.5703C26.5265 17.5124 26.7015 19.2393 26.041 19.8647C26.041 19.8647 26.2965 20.8226 28.3014 22.1993C29.7068 20.7891 28.9658 19.8805 28.9658 19.8805C27.9181 19.6228 27.9496 18.844 28.1363 18.1103L26.3476 16.5703Z" fill="#7F3E3B"/>
<path d="M32.4099 25.9247H32.3784C32.2748 25.9162 32.1787 25.8669 32.1113 25.7876C32.0439 25.7084 32.0106 25.6056 32.0187 25.5019C32.0895 24.6247 31.4291 23.9618 30.6704 23.1928C29.7996 22.3136 28.8109 21.3165 28.7716 19.7646C28.769 19.6603 28.8079 19.5592 28.8798 19.4836C28.9517 19.408 29.0506 19.3641 29.1549 19.3615C29.2592 19.3588 29.3602 19.3978 29.4357 19.4697C29.5113 19.5416 29.5552 19.6407 29.5578 19.745C29.5893 20.9841 30.4227 21.8259 31.2286 22.6401C32.0345 23.4544 32.9013 24.3277 32.801 25.5648C32.7927 25.6629 32.7479 25.7543 32.6754 25.8209C32.603 25.8875 32.5083 25.9246 32.4099 25.9247Z" fill="#263238"/>
<path d="M26.6643 27.9153C26.6324 27.9152 26.6008 27.9112 26.5699 27.9035C26.4688 27.8784 26.3818 27.8142 26.328 27.7249C26.2742 27.6357 26.258 27.5287 26.2829 27.4275C26.6623 25.8855 26.165 24.674 25.6382 23.3995C25.1665 22.2548 24.679 21.0708 24.9149 19.6861C24.9353 19.5859 24.9939 19.4975 25.0783 19.4397C25.1627 19.382 25.2662 19.3594 25.367 19.3768C25.4677 19.3942 25.5578 19.4502 25.6179 19.5329C25.6781 19.6157 25.7037 19.7186 25.6893 19.8199C25.4928 20.9803 25.9154 22.0109 26.3635 23.1005C26.8903 24.377 27.4859 25.8246 27.0456 27.6242C27.023 27.708 26.9734 27.782 26.9044 27.8347C26.8354 27.8873 26.751 27.9157 26.6643 27.9153Z" fill="#263238"/>
<path opacity="0.2" d="M27.7669 17.7861L26.9807 17.8786C27.0188 18.0904 27.0947 18.2936 27.2048 18.4785C27.3601 18.7125 27.706 18.8148 28.048 18.8246C28.0476 18.5813 28.0807 18.3391 28.1463 18.1048L27.7669 17.7861Z" fill="black"/>
<path d="M24.6102 15.6227C25.1862 17.09 25.3965 17.7233 26.4009 18.2465C27.9105 19.0332 29.5851 18.0085 29.4593 16.3996C29.3473 14.9501 28.4254 12.7945 26.7684 12.6725C26.4035 12.6441 26.0374 12.7094 25.7048 12.8622C25.3722 13.0151 25.0841 13.2504 24.8679 13.546C24.6517 13.8415 24.5146 14.1874 24.4695 14.5509C24.4244 14.9143 24.4728 15.2833 24.6102 15.6227Z" fill="#7F3E3B"/>
<path d="M26.1871 12.4609C27.3056 13.1493 26.3483 17.199 24.4555 16.9846C22.5626 16.7702 24.5341 11.4441 26.1871 12.4609Z" fill="#263238"/>
<path d="M26.1451 12.4754C25.3019 13.0359 25.8778 14.0115 28.72 13.4332C28.72 13.4313 27.5446 11.5431 26.1451 12.4754Z" fill="#263238"/>
<path d="M24.8135 17.0488C24.9378 17.3268 25.1666 17.5444 25.4504 17.6546C25.8297 17.7962 26.0518 17.4579 25.9771 17.0901C25.9083 16.7538 25.6292 16.2719 25.2361 16.2916C25.1502 16.2974 25.0671 16.3246 24.9943 16.3706C24.9216 16.4167 24.8615 16.4803 24.8195 16.5555C24.7775 16.6307 24.755 16.7152 24.7539 16.8014C24.7529 16.8875 24.7734 16.9726 24.8135 17.0488Z" fill="#7F3E3B"/>
<path d="M30.8364 29.6289C30.8364 29.6289 34.2762 40.8653 34.5533 45.6998C34.8403 50.7289 27.377 56.6963 27.377 56.6963L25.5195 54.6567C25.5195 54.6567 31.5833 49.5036 30.7519 45.7706C29.602 40.6254 26.119 29.9593 26.119 29.9593L30.8364 29.6289Z" fill="#263238"/>
<path opacity="0.2" d="M28.6935 33.3068C28.379 32.3234 27.6793 32.9842 27.4355 34.0266C27.921 35.6001 28.4832 37.441 29.0178 39.2839C29.2242 37.6515 29.3087 35.2343 28.6935 33.3068Z" fill="black"/>
<path d="M25.0176 54.5576L27.3743 56.9905L28.3807 56.4339L25.8903 53.7217L25.0176 54.5576Z" fill="#3C8477"/>
<path d="M29.1385 29.748C29.1385 29.748 28.1557 40.7622 27.173 46.8967C26.3769 51.8531 20.9696 59.9485 20.9696 59.9485L18.9883 59.0261C18.9883 59.0261 22.6226 50.3583 23.1887 46.9892C25.0049 36.2051 22.5519 33.0936 24.4093 30.0745L29.1385 29.748Z" fill="#263238"/>
<path d="M18.8477 59.0483L21.0825 60.1458L21.8157 59.2351L19.2015 58.002L18.8477 59.0483Z" fill="#3C8477"/>
<path d="M24.2829 29.7091L24.0333 30.2991C24.0137 30.3444 24.0687 30.3877 24.1434 30.3818L30.8853 29.9097C30.9423 29.9097 30.9895 29.8743 30.9895 29.8369L31.0072 29.2469C31.0072 29.2076 30.9561 29.1781 30.8932 29.182L24.3832 29.6383C24.3614 29.6391 24.3403 29.6462 24.3225 29.6587C24.3047 29.6713 24.291 29.6888 24.2829 29.7091Z" fill="white"/>
<path d="M25.2087 30.374L25.0356 30.3858C25.0002 30.3858 24.9727 30.372 24.9727 30.3504L25.0022 29.5971C25.0022 29.5754 25.0336 29.5538 25.0671 29.5518L25.2421 29.54C25.2775 29.54 25.305 29.5538 25.3031 29.5754L25.2736 30.3287C25.2736 30.3543 25.2441 30.374 25.2087 30.374Z" fill="#263238"/>
<path d="M30.4021 30.0117L30.2271 30.0235C30.1917 30.0235 30.1641 30.0097 30.1661 29.9881L30.1956 29.2348C30.1956 29.2131 30.2251 29.1935 30.2605 29.1895L30.4336 29.1777C30.469 29.1777 30.4965 29.1915 30.4965 29.2131L30.467 29.9684C30.4651 29.99 30.4454 30.0097 30.4021 30.0117Z" fill="#263238"/>
<path d="M27.8044 30.1953L27.6293 30.2071C27.5959 30.2071 27.5684 30.1933 27.5684 30.1717L27.5979 29.4164C27.5979 29.3948 27.6274 29.3751 27.6628 29.3731L27.8378 29.3613C27.8713 29.3613 27.8988 29.3751 27.8988 29.3967L27.8693 30.15C27.8693 30.1776 27.8398 30.1913 27.8044 30.1953Z" fill="#263238"/>
<path d="M26.9776 15.072C26.8832 15.1034 26.8439 15.245 26.8911 15.3906L27.2353 15.2804C27.1881 15.1349 27.072 15.0326 26.9776 15.072Z" fill="#263238"/>
<path d="M28.4796 14.5953C28.3832 14.6268 28.3438 14.7704 28.391 14.9159L28.7372 14.8038C28.6762 14.6583 28.5641 14.5658 28.4796 14.5953Z" fill="#263238"/>
<path d="M28.4316 14.6177L28.7483 14.4053C28.7483 14.4053 28.6578 14.7357 28.4316 14.6177Z" fill="#263238"/>
<path d="M28.0859 15.1895C28.2835 15.4324 28.5137 15.6468 28.77 15.8267C28.7225 15.8912 28.6614 15.9446 28.5911 15.983C28.5209 16.0214 28.443 16.0439 28.3631 16.049L28.0859 15.1895Z" fill="#630F0F"/>
<path d="M28.1101 16.6608C28.1158 16.6558 28.12 16.6492 28.1221 16.6419C28.1242 16.6346 28.1241 16.6268 28.1219 16.6195C28.1187 16.6101 28.112 16.6024 28.1032 16.598C28.0943 16.5935 28.0841 16.5928 28.0747 16.5959C27.9243 16.648 27.7639 16.6641 27.6062 16.6429C27.4485 16.6217 27.2979 16.5639 27.1666 16.474C27.1631 16.4705 27.159 16.4677 27.1545 16.4658C27.1499 16.4639 27.145 16.4629 27.1401 16.4629C27.1351 16.4629 27.1303 16.4639 27.1257 16.4658C27.1211 16.4677 27.117 16.4705 27.1135 16.474C27.1098 16.4773 27.1068 16.4814 27.1047 16.486C27.1026 16.4905 27.1016 16.4955 27.1016 16.5005C27.1016 16.5055 27.1026 16.5105 27.1047 16.5151C27.1068 16.5197 27.1098 16.5237 27.1135 16.5271C27.254 16.6278 27.4168 16.6929 27.588 16.7169C27.7592 16.7409 27.9336 16.723 28.0963 16.6647L28.1101 16.6608Z" fill="#263238"/>
<path d="M26.4792 14.9827C26.4892 14.9743 26.4967 14.9635 26.5009 14.9512C26.5279 14.8596 26.5768 14.776 26.6432 14.7075C26.7097 14.639 26.7918 14.5876 26.8824 14.5578C26.892 14.5555 26.901 14.5513 26.9089 14.5455C26.9169 14.5397 26.9236 14.5324 26.9287 14.524C26.9338 14.5156 26.9372 14.5063 26.9388 14.4965C26.9403 14.4868 26.9398 14.4769 26.9375 14.4674C26.9352 14.4578 26.931 14.4488 26.9252 14.4408C26.9194 14.4329 26.9121 14.4262 26.9037 14.4211C26.8953 14.416 26.886 14.4126 26.8762 14.411C26.8665 14.4095 26.8566 14.41 26.847 14.4123C26.733 14.4482 26.6293 14.5108 26.5444 14.595C26.4596 14.6792 26.3961 14.7824 26.3593 14.8961C26.353 14.9149 26.3545 14.9354 26.3634 14.9531C26.3722 14.9708 26.3877 14.9842 26.4065 14.9905C26.4182 14.996 26.4311 14.9981 26.444 14.9967C26.4568 14.9953 26.469 14.9905 26.4792 14.9827Z" fill="#263238"/>
<path d="M28.8351 14.0111C28.8393 14.0089 28.8428 14.0055 28.845 14.0013C28.8513 13.9936 28.856 13.9847 28.8588 13.9751C28.8616 13.9656 28.8625 13.9556 28.8614 13.9457C28.8603 13.9358 28.8572 13.9262 28.8524 13.9175C28.8475 13.9088 28.841 13.9012 28.8332 13.8951C28.7412 13.8189 28.6324 13.7658 28.5159 13.7402C28.3993 13.7145 28.2783 13.7171 28.1629 13.7475C28.1534 13.7506 28.1446 13.7556 28.1371 13.7622C28.1295 13.7687 28.1233 13.7768 28.1189 13.7857C28.1145 13.7947 28.112 13.8045 28.1114 13.8145C28.1109 13.8245 28.1124 13.8345 28.1157 13.8439C28.1224 13.8624 28.136 13.8776 28.1535 13.8863C28.1711 13.8951 28.1913 13.8968 28.2101 13.8911C28.3015 13.8676 28.3973 13.8664 28.4893 13.8876C28.5813 13.9088 28.6669 13.9519 28.7388 14.0131C28.7525 14.0242 28.7697 14.0301 28.7873 14.0297C28.805 14.0293 28.8219 14.0227 28.8351 14.0111Z" fill="#263238"/>
<path d="M20.9607 12.8159C20.913 12.8157 20.8662 12.8028 20.8251 12.7785L14.8458 9.09267C14.7934 9.05404 14.7574 8.9971 14.745 8.93315C14.7326 8.86921 14.7446 8.80293 14.7788 8.74747C14.8129 8.69201 14.8667 8.65142 14.9293 8.63375C14.992 8.61609 15.059 8.62264 15.1171 8.65211L21.0964 12.3379C21.1446 12.3672 21.1818 12.4115 21.2025 12.464C21.2231 12.5165 21.2259 12.5743 21.2105 12.6286C21.1951 12.6829 21.1623 12.7306 21.1172 12.7644C21.0721 12.7982 21.0171 12.8163 20.9607 12.8159Z" fill="#3C8477"/>
<path d="M16.2 9.49971C16.5361 9.48594 16.8821 9.4702 16.9273 9.16731C16.9725 8.86442 16.6482 8.74838 16.3376 8.63431L16.2531 8.60284C16.2531 8.57334 16.2393 8.54383 16.2315 8.5163L16.3003 8.43959C16.5204 8.19571 16.7504 7.94395 16.5715 7.704C16.3927 7.46405 16.086 7.60566 15.7853 7.7453L15.6929 7.78857C15.6674 7.77087 15.6418 7.75711 15.6143 7.74137C15.5868 7.72564 15.6143 7.67843 15.6143 7.6509C15.5986 7.31654 15.5828 6.97038 15.2821 6.92514C14.9814 6.8799 14.8634 7.20443 14.7494 7.51519C14.7396 7.54076 14.7298 7.57026 14.718 7.59976L14.6295 7.6214L14.5548 7.55452C14.3111 7.33227 14.0595 7.10412 13.8197 7.28114C13.5799 7.45815 13.7214 7.76694 13.861 8.06786L13.9042 8.1603C13.8871 8.18497 13.8713 8.21058 13.8571 8.23701H13.7666C13.4325 8.25274 13.0846 8.26848 13.0394 8.57137C12.9942 8.87426 13.3205 8.9903 13.629 9.10438L13.7136 9.13584C13.7136 9.16535 13.7273 9.19485 13.7352 9.22239C13.7116 9.24992 13.688 9.27746 13.6664 9.29909C13.4462 9.54298 13.2182 9.79276 13.3951 10.0347C13.572 10.2766 13.8806 10.1311 14.1814 9.99338L14.2757 9.95011L14.3524 9.99731C14.3524 10.0288 14.3524 10.0603 14.3524 10.0878C14.3681 10.4221 14.3838 10.7683 14.6846 10.8135C14.9853 10.8588 15.1052 10.5343 15.2192 10.2235C15.2192 10.1999 15.2389 10.1704 15.2487 10.1389C15.2786 10.1336 15.3081 10.1263 15.3371 10.1173L15.4138 10.1861C15.6556 10.4064 15.9072 10.6365 16.1489 10.4595C16.3907 10.2825 16.2452 9.97371 16.1057 9.67279C16.0939 9.64722 16.0782 9.61378 16.0644 9.58035L16.1116 9.50364L16.2 9.49971Z" fill="#3C8477"/>
<path opacity="0.7" d="M16.2 9.49971C16.5361 9.48594 16.8821 9.4702 16.9273 9.16731C16.9725 8.86442 16.6482 8.74838 16.3376 8.63431L16.2531 8.60284C16.2531 8.57334 16.2393 8.54383 16.2315 8.5163L16.3003 8.43959C16.5204 8.19571 16.7504 7.94395 16.5715 7.704C16.3927 7.46405 16.086 7.60566 15.7853 7.7453L15.6929 7.78857C15.6674 7.77087 15.6418 7.75711 15.6143 7.74137C15.5868 7.72564 15.6143 7.67843 15.6143 7.6509C15.5986 7.31654 15.5828 6.97038 15.2821 6.92514C14.9814 6.8799 14.8634 7.20443 14.7494 7.51519C14.7396 7.54076 14.7298 7.57026 14.718 7.59976L14.6295 7.6214L14.5548 7.55452C14.3111 7.33227 14.0595 7.10412 13.8197 7.28114C13.5799 7.45815 13.7214 7.76694 13.861 8.06786L13.9042 8.1603C13.8871 8.18497 13.8713 8.21058 13.8571 8.23701H13.7666C13.4325 8.25274 13.0846 8.26848 13.0394 8.57137C12.9942 8.87426 13.3205 8.9903 13.629 9.10438L13.7136 9.13584C13.7136 9.16535 13.7273 9.19485 13.7352 9.22239C13.7116 9.24992 13.688 9.27746 13.6664 9.29909C13.4462 9.54298 13.2182 9.79276 13.3951 10.0347C13.572 10.2766 13.8806 10.1311 14.1814 9.99338L14.2757 9.95011L14.3524 9.99731C14.3524 10.0288 14.3524 10.0603 14.3524 10.0878C14.3681 10.4221 14.3838 10.7683 14.6846 10.8135C14.9853 10.8588 15.1052 10.5343 15.2192 10.2235C15.2192 10.1999 15.2389 10.1704 15.2487 10.1389C15.2786 10.1336 15.3081 10.1263 15.3371 10.1173L15.4138 10.1861C15.6556 10.4064 15.9072 10.6365 16.1489 10.4595C16.3907 10.2825 16.2452 9.97371 16.1057 9.67279C16.0939 9.64722 16.0782 9.61378 16.0644 9.58035L16.1116 9.50364L16.2 9.49971Z" fill="white"/>
<path d="M19.1754 12.8781L18.9297 11.3047L20.5336 12.0914C20.4732 12.3563 20.3365 12.5977 20.1405 12.7857C20.0598 12.8776 19.9548 12.9448 19.8376 12.9796C19.7204 13.0144 19.5958 13.0154 19.4781 12.9824L19.1754 12.8781Z" fill="#7F3E3B"/>
<path d="M19.8299 10.5342L20.6515 11.256L20.5336 12.0821L18.9297 11.3032L19.8299 10.5342Z" fill="#7F3E3B"/>
<path d="M20.0901 62.3563C20.1068 62.3444 20.1226 62.3312 20.1373 62.317C20.1542 62.3016 20.1665 62.282 20.1731 62.2602C20.1797 62.2384 20.1802 62.2152 20.1747 62.1931C20.1275 61.9964 19.585 61.7997 19.5241 61.7859C19.5173 61.783 19.5098 61.7824 19.5027 61.7842C19.4956 61.786 19.4893 61.79 19.4847 61.7958C19.4807 61.8019 19.4785 61.8091 19.4785 61.8164C19.4785 61.8238 19.4807 61.8309 19.4847 61.8371C19.5732 62.0337 19.7501 62.3563 19.9486 62.3897C19.9983 62.3971 20.049 62.3851 20.0901 62.3563ZM19.585 61.8882C19.7992 61.9688 20.0764 62.1065 20.1019 62.2108C20.1038 62.2206 20.1029 62.2307 20.0994 62.24C20.096 62.2494 20.09 62.2576 20.0823 62.2639C20.0673 62.2829 20.0477 62.2978 20.0253 62.3071C20.0029 62.3164 19.9786 62.3198 19.9545 62.317C19.8464 62.2973 19.7127 62.14 19.585 61.8882Z" fill="#3C8477"/>
<path d="M20.1905 61.8304C20.2033 61.8227 20.2146 61.8127 20.2239 61.8009C20.2431 61.7776 20.2535 61.7484 20.2535 61.7183C20.2535 61.6881 20.2431 61.6589 20.2239 61.6357C20.2093 61.6108 20.1894 61.5895 20.1656 61.5731C20.1418 61.5568 20.1147 61.5459 20.0863 61.5413C19.8602 61.5 19.4966 61.7793 19.4829 61.7911C19.4778 61.7953 19.4738 61.8008 19.4714 61.807C19.469 61.8132 19.4682 61.8199 19.4691 61.8265C19.4702 61.8327 19.4727 61.8386 19.4765 61.8437C19.4802 61.8489 19.4851 61.853 19.4907 61.856C19.7194 61.9326 19.968 61.9235 20.1905 61.8304ZM19.6008 61.8009C19.7354 61.6911 19.9011 61.6264 20.0745 61.616C20.0926 61.6182 20.1099 61.6247 20.1249 61.635C20.14 61.6453 20.1523 61.659 20.161 61.675C20.1865 61.7163 20.1747 61.738 20.161 61.7517C20.0902 61.8363 19.7679 61.852 19.589 61.8068L19.6008 61.8009Z" fill="#3C8477"/>
<path d="M25.3184 58.5484C25.3583 58.6715 25.4361 58.7788 25.5406 58.8552C25.57 58.8726 25.6029 58.8831 25.637 58.8862C25.671 58.8893 25.7052 58.8847 25.7373 58.8729C25.7564 58.8675 25.7737 58.8569 25.7873 58.8424C25.8008 58.8278 25.81 58.8098 25.814 58.7903C25.8553 58.5936 25.34 58.1078 25.2357 58.0036C25.2293 57.9993 25.2218 57.9971 25.2141 57.9971C25.2064 57.9971 25.1989 57.9993 25.1925 58.0036C25.1856 58.0072 25.1801 58.0131 25.1769 58.0202C25.1737 58.0273 25.173 58.0353 25.1748 58.0429C25.2038 58.2162 25.252 58.3857 25.3184 58.5484ZM25.7275 58.6959C25.7386 58.7184 25.7434 58.7436 25.7412 58.7686C25.7412 58.7785 25.7412 58.7883 25.7137 58.7962C25.6907 58.805 25.6661 58.8085 25.6415 58.8065C25.617 58.8045 25.5933 58.7969 25.5721 58.7844C25.4521 58.7136 25.342 58.4776 25.2712 58.1432C25.4503 58.3033 25.6041 58.4897 25.7275 58.6959Z" fill="#3C8477"/>
<path d="M25.1837 58.0571C25.1831 58.0611 25.1831 58.065 25.1837 58.0689C25.3448 58.2322 25.8264 58.4957 25.9817 58.4053C26.0151 58.3856 26.0505 58.3423 26.023 58.2479C25.9227 57.886 25.2367 58.0001 25.2033 58.006C25.1964 58.0069 25.19 58.0098 25.1847 58.0143C25.1795 58.0189 25.1757 58.0249 25.1738 58.0316C25.1739 58.041 25.1774 58.0501 25.1837 58.0571ZM25.9502 58.244L25.9601 58.2676C25.9601 58.3069 25.9601 58.3305 25.9601 58.3404C25.8696 58.3915 25.506 58.2224 25.3134 58.0689C25.4746 58.0512 25.8637 58.0355 25.9502 58.244Z" fill="#3C8477"/>
<path d="M26.9375 15.0933L27.2542 14.8789C27.2542 14.8789 27.1637 15.2113 26.9375 15.0933Z" fill="#263238"/>
<path d="M52.6353 66.6154L51.112 66.6174L50.7012 63.0889L52.2245 63.0869L52.6353 66.6154Z" fill="#FFC3BD"/>
<path d="M65.7485 60.0656L64.5947 61.0628L61.9824 58.6573L63.1342 57.6602L65.7485 60.0656Z" fill="#FFC3BD"/>
<path d="M64.3716 61.0242L65.775 59.8087C65.798 59.7897 65.8268 59.7793 65.8566 59.7793C65.8864 59.7793 65.9153 59.7897 65.9382 59.8087L67.0075 60.6623C67.0335 60.6843 67.0545 60.7117 67.0688 60.7426C67.0832 60.7735 67.0906 60.8072 67.0906 60.8413C67.0906 60.8754 67.0832 60.9091 67.0688 60.94C67.0545 60.9709 67.0335 60.9983 67.0075 61.0203C66.5495 61.4038 66.1976 61.6615 65.6316 62.1532C65.2817 62.4561 64.2556 63.408 63.7721 63.827C63.2886 64.2459 62.8306 63.8034 62.9859 63.587C63.7131 62.6193 64.1652 61.7618 64.236 61.2524C64.2534 61.1629 64.3014 61.0823 64.3716 61.0242Z" fill="#263238"/>
<path d="M51.1225 66.4404H52.7873C52.8175 66.4406 52.8468 66.451 52.8704 66.4699C52.8939 66.4888 52.9104 66.5152 52.917 66.5447L53.2197 67.8998C53.2271 67.9325 53.2271 67.9664 53.2195 67.999C53.212 68.0317 53.1972 68.0622 53.1762 68.0883C53.1552 68.1144 53.1286 68.1354 53.0984 68.1498C53.0681 68.1641 53.035 68.1715 53.0016 68.1712C52.4001 68.1614 51.5333 68.128 50.7785 68.128C49.8979 68.128 49.381 68.1516 48.3471 68.1535C47.722 68.1535 47.5471 67.5222 47.8085 67.4651C48.9996 67.2016 49.7269 67.1996 50.7569 66.5624C50.865 66.4885 50.9916 66.4462 51.1225 66.4404Z" fill="#263238"/>
<path d="M46.1711 22.8027C45.8644 22.6847 45.6011 22.5765 45.3259 22.4506C45.0507 22.3247 44.7853 22.2008 44.518 22.069C43.9847 21.8068 43.4605 21.5144 42.9456 21.1918C42.4273 20.874 41.929 20.5246 41.4537 20.1455C41.3338 20.0471 41.2119 19.9488 41.094 19.8485L40.7441 19.5279C40.6281 19.4217 40.5181 19.2998 40.406 19.1857C40.349 19.1227 40.2999 19.0775 40.235 19.0028C40.1702 18.928 40.1073 18.8553 40.0503 18.7805C39.8353 18.4962 39.6527 18.1888 39.5058 17.864C39.3692 17.5674 39.2529 17.2618 39.1579 16.9494C38.9772 16.3595 38.8457 15.7556 38.7648 15.1439C38.6097 13.9663 38.5801 12.7756 38.6763 11.5918H39.8203C39.8989 12.1248 39.9815 12.6853 40.0896 13.2243C40.1977 13.7632 40.3117 14.3021 40.4512 14.8213C40.5832 15.3285 40.7501 15.826 40.9505 16.3102C41.1169 16.7383 41.3512 17.1368 41.6443 17.4903L41.7407 17.5886C41.7701 17.6201 41.8291 17.6673 41.8724 17.7066C41.9667 17.7873 42.0532 17.8718 42.1534 17.9486C42.35 18.1059 42.5465 18.2613 42.7667 18.4108C43.1913 18.7058 43.6394 18.987 44.1072 19.2506C44.575 19.5141 45.0527 19.7639 45.5382 19.9999C45.7819 20.1199 46.0276 20.2379 46.2733 20.3481C46.519 20.4582 46.7765 20.5743 46.9966 20.6687L46.1711 22.8027Z" fill="#FFC3BD"/>
<path d="M46.4159 24.1008C45.5485 23.5612 44.7291 22.9479 43.9668 22.2677L44.5742 19.1621C45.7034 19.4836 46.8516 19.7345 48.012 19.9134C49.9284 20.1613 47.782 24.9151 46.4159 24.1008Z" fill="#263238"/>
<path d="M39.8603 11.8592L39.9684 9.91797L38.3566 10.4352C38.3566 10.4352 37.9812 11.8258 39.0269 12.1916L39.8603 11.8592Z" fill="#FFC3BD"/>
<path d="M39.7727 8.87402L38.442 9.42867L38.3555 10.4357L39.9672 9.9184L39.7727 8.87402Z" fill="#FFC3BD"/>
<path opacity="0.2" d="M50.7051 63.0899L50.9154 64.9092L52.4387 64.9072L52.2284 63.0879L50.7051 63.0899Z" fill="black"/>
<path opacity="0.2" d="M63.1362 57.6602L61.9824 58.6573L63.3308 59.8964L64.4826 58.8993L63.1362 57.6602Z" fill="black"/>
<path d="M53.8699 19.8505C53.8733 19.7426 53.8553 19.635 53.817 19.5341C53.7786 19.4331 53.7207 19.3408 53.6465 19.2623C53.5723 19.1839 53.4834 19.1209 53.3847 19.0771C53.2861 19.0332 53.1798 19.0093 53.0719 19.0068C48.724 18.9261 45.8956 20.1455 45.701 20.2242C45.6284 20.2535 45.5645 20.3009 45.5153 20.3618C45.4661 20.4227 45.4333 20.4952 45.4199 20.5723C45.2391 21.662 44.726 26.2289 47.24 33.3763L55.2989 32.2218C55.1908 31.0319 53.6891 25.572 53.8699 19.8505Z" fill="#263238"/>
<path d="M47.3497 19.6763C46.8721 20.3156 46.6559 21.7887 48.2382 22.8665C50.1841 21.413 51.1865 19.8494 51.4834 19.0352C50.087 19.1052 48.7017 19.3201 47.3497 19.6763Z" fill="white"/>
<path d="M46.9888 20.273C46.8846 20.273 46.7846 20.2316 46.7108 20.1578C46.6371 20.0841 46.5957 19.984 46.5957 19.8797C46.5957 19.5552 46.8768 19.2759 47.1146 19.093C47.9126 18.5029 49.4733 18.0525 51.4389 18.6209C51.5355 18.6528 51.616 18.7209 51.6634 18.811C51.7109 18.901 51.7216 19.0059 51.6934 19.1037C51.6651 19.2015 51.6001 19.2845 51.5119 19.3353C51.4238 19.3861 51.3194 19.4008 51.2207 19.3762C48.9406 18.7173 47.5353 19.6535 47.3839 19.923C47.3732 20.02 47.3268 20.1095 47.2538 20.1742C47.1808 20.2389 47.0863 20.2741 46.9888 20.273Z" fill="#FEE675"/>
<path d="M50.2572 15.2949C50.1983 16.4298 50.271 18.4831 51.1476 19.1086C50.6327 19.7911 49.9467 20.5916 48.6435 20.8256C47.8573 20.9653 47.588 20.6742 47.5546 20.3064C47.5435 20.129 47.5826 19.952 47.6675 19.7958C47.7523 19.6396 47.8794 19.5105 48.0342 19.4233C48.8813 18.9316 48.7123 18.1409 48.4076 17.3935L50.2572 15.2949Z" fill="#FFC3BD"/>
<path d="M46.8683 29.297C46.824 29.2968 46.7801 29.2888 46.7386 29.2734C46.6404 29.2386 46.5599 29.1663 46.515 29.0723C46.47 28.9782 46.4642 28.8702 46.4988 28.7718C46.5534 28.6342 46.5788 28.4867 46.5734 28.3388C46.568 28.1908 46.5319 28.0456 46.4674 27.9123L46.4261 27.8002C46.359 27.6681 46.2699 27.5484 46.1627 27.4462C45.9327 27.2616 45.7736 27.0031 45.7123 26.7146C45.6511 26.426 45.6914 26.1251 45.8266 25.8629C45.8749 25.7507 45.9035 25.6309 45.9111 25.5089C45.8736 25.3688 45.8131 25.2359 45.7322 25.1155C45.57 24.8834 45.4742 24.6114 45.4551 24.3288C45.4773 24.0333 45.5845 23.7505 45.7637 23.5145C45.8312 23.4251 45.8843 23.3255 45.9209 23.2195C45.9223 23.1101 45.9009 23.0016 45.858 22.9009C45.7635 22.6773 45.7402 22.4301 45.7912 22.1928C45.871 21.9253 46.0351 21.6907 46.259 21.5241C46.3223 21.4762 46.3773 21.4185 46.4221 21.353C46.4502 21.258 46.4502 21.1569 46.4221 21.0619C46.3624 20.8341 46.3941 20.5919 46.5106 20.3873C46.6482 20.1709 46.6344 20.1159 46.6226 20.0706C46.6028 20.0016 46.5942 19.9299 46.5971 19.8582C46.5971 19.7539 46.6385 19.6538 46.7122 19.5801C46.7859 19.5063 46.8859 19.4648 46.9902 19.4648C47.0945 19.4648 47.1945 19.5063 47.2682 19.5801C47.3419 19.6538 47.3833 19.7539 47.3833 19.8582V19.87C47.4384 20.0923 47.4541 20.3578 47.1868 20.7924C47.19 20.8386 47.1959 20.8846 47.2044 20.9301C47.2637 21.1464 47.2549 21.3758 47.1793 21.5869C47.1037 21.7981 46.9649 21.9808 46.7818 22.1102C46.656 22.2204 46.5853 22.2872 46.5578 22.3836C46.5538 22.4745 46.572 22.5649 46.6108 22.6472C46.6944 22.8575 46.7274 23.0845 46.7072 23.31C46.6636 23.5359 46.5696 23.7491 46.432 23.9335C46.3408 24.0485 46.2775 24.1831 46.2472 24.3268C46.279 24.4645 46.337 24.5947 46.4182 24.7104C46.5595 24.9217 46.6553 25.1601 46.6993 25.4105C46.7102 25.6473 46.6693 25.8836 46.5794 26.1029C46.5154 26.2427 46.4851 26.3956 46.4909 26.5493C46.5529 26.6857 46.6418 26.8082 46.7524 26.9093C46.9343 27.0872 47.0787 27.2999 47.1769 27.5347L47.2123 27.637C47.4058 28.0767 47.4178 28.5751 47.2457 29.0236C47.2202 29.1035 47.1698 29.1731 47.1019 29.2222C47.034 29.2714 46.9521 29.2976 46.8683 29.297Z" fill="#FEE675"/>
<path d="M53.7969 19.7852C54.0111 19.9818 54.19 20.1471 54.3708 20.3359C54.5517 20.5247 54.7286 20.7076 54.9035 20.8964C55.2534 21.274 55.5836 21.6713 55.902 22.0765C56.5654 22.9163 57.1208 23.8361 57.5551 24.8143C57.6646 25.076 57.7603 25.3432 57.842 25.6148C57.8833 25.7525 57.9187 25.8961 57.9521 26.0416L57.9639 26.0947L57.9816 26.1872C57.9934 26.2481 57.9993 26.313 58.0052 26.3838C58.0146 26.515 58.0107 26.6468 57.9934 26.7772C57.9643 27.0123 57.8931 27.2401 57.7831 27.4498C57.6911 27.6245 57.5797 27.7881 57.4509 27.9376C57.2379 28.1811 56.9925 28.3942 56.7217 28.5709C56.2595 28.8736 55.7617 29.1181 55.2396 29.2987C54.992 29.3891 54.7423 29.4658 54.4907 29.5307C54.2391 29.5956 53.9954 29.6566 53.7222 29.7019L53.3684 28.6142C53.5649 28.5041 53.7753 28.388 53.9738 28.27C54.1723 28.152 54.3669 28.0281 54.5635 27.9042C54.9289 27.6731 55.2729 27.4098 55.5915 27.1175C55.7136 26.9997 55.8212 26.8676 55.9118 26.7241C55.9806 26.612 55.9747 26.5372 55.9551 26.5608C55.9536 26.5673 55.9536 26.574 55.9551 26.5805L55.9433 26.5451C55.9138 26.4546 55.8863 26.3622 55.847 26.2678C55.7741 26.0758 55.6908 25.8881 55.5974 25.7053C55.4 25.3168 55.1754 24.9428 54.9251 24.5862C54.6755 24.2164 54.4003 23.8545 54.1094 23.5005C53.8185 23.1464 53.5197 22.7983 53.2033 22.4541C53.048 22.283 52.8888 22.1158 52.7276 21.9506C52.5664 21.7854 52.3974 21.6123 52.2539 21.4747L53.7969 19.7852Z" fill="#FFC3BD"/>
<path d="M53.2888 19.0405C54.1773 19.1722 55.5709 21.4006 55.5709 21.4006L53.3085 24.4354C53.3085 24.4354 52.1016 23.2849 51.7498 22.2719C51.0854 20.3287 51.5434 18.7848 53.2888 19.0405Z" fill="#263238"/>
<path d="M52.105 26.6791C52.0368 26.6784 51.9699 26.6598 51.9109 26.6253C51.852 26.5909 51.8031 26.5416 51.7689 26.4824C51.6338 26.2179 51.5752 25.9209 51.5999 25.6249C51.6104 25.5027 51.5997 25.3796 51.5684 25.261C51.4897 25.1389 51.3906 25.0311 51.2756 24.9424C51.0493 24.7739 50.8732 24.5468 50.7665 24.2855C50.6936 23.9983 50.7065 23.696 50.8038 23.4162C50.8396 23.3096 50.8588 23.1981 50.8608 23.0857C50.8114 22.9508 50.7396 22.8251 50.6485 22.714C50.446 22.5057 50.3274 22.23 50.3155 21.9397C50.3035 21.6494 50.399 21.3648 50.5837 21.1406C50.637 21.0604 50.68 20.9739 50.7114 20.8829C50.7012 20.7336 50.6653 20.5872 50.6053 20.4502C50.493 20.2182 50.4546 19.9573 50.4952 19.7028C50.5686 19.3408 50.7511 19.0099 51.0181 18.7548L51.0436 18.7292C51.117 18.6595 51.2144 18.6208 51.3156 18.6211C51.4168 18.6214 51.5139 18.6608 51.5869 18.7309C51.6598 18.8011 51.7029 18.8968 51.7071 18.9979C51.7114 19.0991 51.6765 19.198 51.6097 19.274L51.5645 19.3193C51.4039 19.4743 51.2959 19.6759 51.2559 19.8956C51.2772 19.9943 51.3068 20.091 51.3444 20.1847C51.4475 20.4229 51.499 20.6803 51.4957 20.9399C51.4652 21.1553 51.3851 21.3607 51.2618 21.5398C51.1767 21.6559 51.1207 21.7909 51.0987 21.9332C51.145 22.0549 51.2114 22.1679 51.2952 22.2675C51.4541 22.4649 51.5699 22.6934 51.6353 22.9382C51.6653 23.1664 51.6431 23.3984 51.5704 23.6168C51.5206 23.7552 51.5024 23.9031 51.5173 24.0495C51.592 24.1701 51.6887 24.2755 51.8023 24.3602C52.0022 24.5175 52.1675 24.7144 52.2878 24.9385C52.3729 25.1595 52.4078 25.3966 52.3901 25.6328C52.3755 25.7859 52.3949 25.9404 52.4471 26.0851C52.5004 26.1746 52.516 26.2816 52.4906 26.3827C52.4652 26.4837 52.4008 26.5705 52.3114 26.624C52.249 26.6611 52.1776 26.6802 52.105 26.6791Z" fill="#FEE675"/>
<path opacity="0.2" d="M49.5011 16.1504L48.4082 17.3915C48.4906 17.5821 48.5564 17.7795 48.6048 17.9815C49.0647 17.8458 49.6367 17.238 49.617 16.7385C49.614 16.5371 49.5747 16.3379 49.5011 16.1504Z" fill="black"/>
<path d="M47.2044 12.0675C46.7189 12.9132 47.0295 14.1169 47.0295 14.1169C47.1597 14.2016 47.3102 14.25 47.4654 14.2569C47.6206 14.2638 47.7748 14.229 47.912 14.1562L47.7744 11.9141L47.2044 12.0675Z" fill="#263238"/>
<path d="M51.0316 14.2159C50.6601 15.6831 50.5166 16.5603 49.6242 17.1799C48.2817 18.1122 46.5795 17.0855 46.5068 15.5376C46.44 14.1431 47.0591 11.9796 48.6237 11.6649C48.9679 11.5936 49.3246 11.6115 49.6598 11.7171C49.9951 11.8227 50.2978 12.0123 50.5392 12.268C50.7805 12.5237 50.9524 12.8369 51.0386 13.1778C51.1248 13.5188 51.1224 13.8761 51.0316 14.2159Z" fill="#FFC3BD"/>
<path d="M46.7487 15.9231H46.6956L43.364 15.217C43.1828 15.1787 43.0243 15.0699 42.9233 14.9146C42.8223 14.7593 42.7871 14.5703 42.8254 14.389C42.8637 14.2077 42.9724 14.0491 43.1276 13.948C43.2828 13.847 43.4718 13.8117 43.6529 13.8501C43.6859 13.8571 43.7171 13.8705 43.7449 13.8897C43.7726 13.9088 43.7963 13.9333 43.8146 13.9616C43.8329 13.9899 43.8454 14.0216 43.8513 14.0548C43.8573 14.088 43.8567 14.122 43.8495 14.1549C43.8349 14.2213 43.7947 14.2792 43.7376 14.316C43.6805 14.3529 43.6113 14.3657 43.5448 14.3516C43.5214 14.3459 43.497 14.3453 43.4733 14.3497C43.4496 14.3541 43.4271 14.3635 43.4072 14.3772C43.3873 14.3901 43.3701 14.4068 43.3566 14.4264C43.3431 14.446 43.3336 14.468 43.3286 14.4913C43.32 14.5387 43.329 14.5877 43.3542 14.6289C43.3814 14.6681 43.4219 14.6961 43.4682 14.7076L46.7998 15.4137C46.8617 15.4272 46.9165 15.4631 46.9537 15.5144C46.9908 15.5658 47.0077 15.6291 47.0012 15.6922C46.9946 15.7553 46.965 15.8137 46.9181 15.8563C46.8711 15.8989 46.8101 15.9227 46.7467 15.9231H46.7487Z" fill="#FEE675"/>
<path d="M46.7369 15.9813L46.334 15.8947L46.4617 15.3047L46.8549 15.3893C46.9343 15.4063 47.0038 15.4541 47.0481 15.5223C47.0923 15.5906 47.1076 15.6736 47.0907 15.7531C47.0712 15.8287 47.0239 15.8941 46.9583 15.9363C46.8928 15.9786 46.8138 15.9946 46.7369 15.9813Z" fill="white"/>
<path d="M50.1193 13.4095C50.1193 12.851 49.6987 12.4438 48.2952 12.552C47.1493 12.6385 46.5911 12.1036 46.9193 11.3581C47.8471 11.842 47.6938 11.2087 49.4628 11.132C51.2318 11.0553 51.7448 11.722 51.9315 12.7585C53.0146 14.3654 51.1453 15.0322 51.1453 15.0322L50.4141 15.6714C50.2626 15.7058 50.1047 15.699 49.9567 15.6516C49.8088 15.6042 49.6762 15.518 49.5729 15.4019C49.5729 15.4019 49.4294 14.0979 50.1193 13.4095Z" fill="#263238"/>
<path d="M48.2417 10.8547L48.1965 10.8783C48.1544 10.9007 48.119 10.9338 48.0938 10.9743C48.0686 11.0147 48.0545 11.0611 48.0529 11.1088C48.0513 11.1564 48.0623 11.2037 48.0847 11.2457C48.1072 11.2878 48.1403 11.3232 48.1808 11.3483L52.2849 13.8875C52.3235 13.9112 52.3674 13.9248 52.4126 13.9272C52.4578 13.9295 52.5029 13.9205 52.5437 13.901C52.5846 13.8814 52.6199 13.8519 52.6464 13.8152C52.673 13.7785 52.6899 13.7358 52.6957 13.6908C52.7149 13.564 52.6964 13.4343 52.6426 13.3179C52.5888 13.2014 52.502 13.1034 52.393 13.0359L48.8943 10.8724C48.7965 10.8127 48.6848 10.7797 48.5703 10.7766C48.4559 10.7735 48.3426 10.8004 48.2417 10.8547Z" fill="#FEE675"/>
<path d="M48.9805 11.1258L50.0301 9.58776C50.0601 9.54392 50.1057 9.5132 50.1576 9.50187C50.2094 9.49054 50.2637 9.49945 50.3092 9.52679L53.2065 11.2635C53.2318 11.2783 53.2537 11.2984 53.2707 11.3224C53.2877 11.3464 53.2994 11.3737 53.305 11.4025C53.3105 11.4314 53.3099 11.4611 53.3031 11.4897C53.2963 11.5183 53.2834 11.5451 53.2654 11.5683L52.0094 13.2283L48.9805 11.1258Z" fill="#FEE675"/>
<path d="M48.9805 11.1253L49.3991 10.376L52.6345 12.5159L52.0094 13.2279L48.9805 11.1253Z" fill="#FEE675"/>
<path opacity="0.6" d="M48.9805 11.1253L49.3991 10.376L52.6345 12.5159L52.0094 13.2279L48.9805 11.1253Z" fill="white"/>
<path d="M51.2179 16.0159C50.9305 16.2122 50.5778 16.2884 50.2351 16.2283C49.7889 16.1418 49.7889 15.6894 50.0975 15.3688C50.3746 15.0797 50.9427 14.7788 51.3004 15.0286C51.6581 15.2784 51.5736 15.7701 51.2179 16.0159Z" fill="#FFC3BD"/>
<path d="M50.3422 64.5582H52.921C52.921 64.5582 52.5161 55.3811 51.9599 50.6646C51.7908 49.2289 51.9736 47.262 51.9913 45.0651C52.0149 42.2978 52.1426 39.2827 52.2684 36.9166C52.4021 34.4246 52.5141 32.6289 52.5141 32.6289L47.2385 33.3822C47.2385 33.3822 46.7157 46.4478 47.5353 51.0265C48.3884 55.7823 50.3422 64.5582 50.3422 64.5582Z" fill="#86C3BB"/>
<path opacity="0.2" d="M51.9909 45.0592C52.0145 42.2919 52.1422 39.2767 52.268 36.9106L51.4818 35.8584C50.5108 37.6777 51.185 42.522 51.9909 45.0592Z" fill="black"/>
<path d="M49.7539 33.0163C49.7539 33.0163 53.0305 45.9638 54.5873 50.1512C56.2914 54.7339 62.5675 60.0915 62.5675 60.0915L64.1537 58.345C64.1537 58.345 60.8339 53.1663 58.3867 48.1844C57.2172 41.7155 55.3067 32.2217 55.3067 32.2217L49.7539 33.0163Z" fill="#86C3BB"/>
<path d="M62.3538 60.3551L64.8403 58.2054L64.1976 57.4639L61.377 59.8181L62.3538 60.3551Z" fill="#263238"/>
<path d="M50.0179 64.6166L53.0921 64.6127L53.0901 63.6195L49.6562 63.5723L50.0179 64.6166Z" fill="#263238"/>
<path d="M48.7655 13.9282C48.6672 13.8987 48.5511 13.9932 48.5039 14.1407L48.854 14.2528C48.9012 14.1053 48.8619 13.9597 48.7655 13.9282Z" fill="#263238"/>
<path d="M47.2318 13.6396C47.1315 13.6396 47.0352 13.7537 47.0352 13.9091L47.401 13.9327C47.4069 13.7773 47.3341 13.6554 47.2318 13.6396Z" fill="#263238"/>
<path d="M47.7608 14.0879C47.5466 14.4299 47.2867 14.7409 46.9883 15.0123C47.06 15.0868 47.1471 15.1447 47.2435 15.1821C47.34 15.2194 47.4433 15.2353 47.5465 15.2286L47.7608 14.0879Z" fill="#ED847E"/>
<path d="M49.2659 13.7711C49.2781 13.7741 49.2909 13.7741 49.3032 13.7711C49.3214 13.7653 49.3365 13.7525 49.3453 13.7356C49.3542 13.7186 49.356 13.6989 49.3504 13.6807C49.3198 13.5703 49.2631 13.4688 49.1851 13.385C49.107 13.3011 49.0099 13.2372 48.902 13.1988C48.893 13.1958 48.8834 13.1947 48.8739 13.1956C48.8645 13.1965 48.8553 13.1994 48.847 13.204C48.8387 13.2086 48.8314 13.2149 48.8256 13.2225C48.8199 13.23 48.8157 13.2387 48.8135 13.248C48.8108 13.257 48.8099 13.2665 48.811 13.2759C48.812 13.2852 48.8149 13.2943 48.8195 13.3026C48.824 13.3108 48.8302 13.318 48.8376 13.3239C48.8451 13.3297 48.8536 13.334 48.8627 13.3365C48.9482 13.3694 49.0245 13.4222 49.0854 13.4907C49.1464 13.5591 49.19 13.6411 49.2128 13.7298C49.2179 13.7403 49.2253 13.7495 49.2345 13.7566C49.2437 13.7638 49.2545 13.7687 49.2659 13.7711Z" fill="#263238"/>
<path d="M46.7796 13.4327C46.7914 13.4347 46.8035 13.4338 46.8148 13.43C46.8261 13.4262 46.8363 13.4197 46.8445 13.4111C46.9037 13.3428 46.9782 13.2894 47.0618 13.2553C47.1455 13.2211 47.236 13.2071 47.3261 13.2144C47.3451 13.2172 47.3645 13.2124 47.3799 13.201C47.3954 13.1896 47.4057 13.1725 47.4086 13.1534C47.4115 13.1349 47.4068 13.1161 47.3958 13.1009C47.3847 13.0858 47.3681 13.0757 47.3497 13.0728C47.2357 13.0615 47.1207 13.0778 47.0143 13.1202C46.908 13.1627 46.8133 13.2301 46.7384 13.3167C46.7315 13.3233 46.726 13.3312 46.7222 13.34C46.7185 13.3488 46.7166 13.3583 46.7166 13.3678C46.7166 13.3774 46.7185 13.3868 46.7222 13.3956C46.726 13.4044 46.7315 13.4124 46.7384 13.419C46.7506 13.4273 46.7649 13.432 46.7796 13.4327Z" fill="#263238"/>
<path d="M64.1546 61.5638C64.2547 61.4723 64.3443 61.3701 64.4219 61.2589C64.4258 61.2531 64.4279 61.2463 64.4279 61.2393C64.4279 61.2323 64.4258 61.2254 64.4219 61.2196C64.419 61.2131 64.4138 61.2077 64.4074 61.2045C64.4009 61.2013 64.3936 61.2004 64.3866 61.2019C64.3237 61.2019 63.7635 61.2943 63.6907 61.4733C63.6827 61.493 63.6799 61.5144 63.6827 61.5354C63.6854 61.5564 63.6936 61.5764 63.7065 61.5933C63.7251 61.6236 63.7511 61.6487 63.782 61.6663C63.8129 61.6838 63.8478 61.6932 63.8834 61.6936C63.9861 61.683 64.0819 61.6372 64.1546 61.5638ZM64.3119 61.2884C64.1487 61.4989 63.9915 61.6208 63.8853 61.6208C63.8612 61.6202 63.8377 61.6134 63.817 61.601C63.7964 61.5886 63.7793 61.571 63.7674 61.55C63.7628 61.543 63.7604 61.5348 63.7604 61.5264C63.7604 61.5181 63.7628 61.5099 63.7674 61.5028C63.7949 61.4104 64.0878 61.3278 64.3119 61.2884Z" fill="#3C8477"/>
<path d="M64.4172 61.2664C64.4225 61.2615 64.4265 61.2554 64.429 61.2487C64.432 61.2429 64.4335 61.2365 64.4335 61.23C64.4335 61.2235 64.432 61.2171 64.429 61.2113C64.4153 61.1975 64.1146 60.8769 63.8905 60.8789C63.863 60.879 63.8359 60.8848 63.8109 60.896C63.7858 60.9071 63.7634 60.9234 63.745 60.9438C63.7242 60.9619 63.7101 60.9866 63.7051 61.0137C63.7001 61.0409 63.7045 61.0689 63.7175 61.0933C63.7981 61.2467 64.2364 61.3096 64.4094 61.2742L64.4172 61.2664ZM63.8001 60.9832C63.823 60.9634 63.8524 60.9529 63.8826 60.9537C64.0261 60.9537 64.2227 61.1208 64.317 61.2093C64.1204 61.2192 63.8197 61.1484 63.7706 61.0579C63.7706 61.0481 63.7568 61.0284 63.7883 60.995L63.8001 60.9832Z" fill="#3C8477"/>
<path d="M50.9722 66.6533C50.9785 66.6511 50.9841 66.6472 50.9882 66.642C50.9924 66.6367 50.995 66.6305 50.9958 66.6238C50.9974 66.6165 50.9966 66.6088 50.9934 66.6021C50.9902 66.5953 50.9848 66.5898 50.9781 66.5864C50.9073 66.551 50.296 66.2403 50.1113 66.3445C50.0936 66.3538 50.0786 66.3676 50.0679 66.3845C50.0572 66.4015 50.0511 66.4209 50.0503 66.4409C50.0463 66.4735 50.0504 66.5066 50.0625 66.5372C50.0745 66.5678 50.094 66.5948 50.1191 66.6159C50.2862 66.7634 50.7226 66.7025 50.9683 66.6533H50.9722ZM50.1584 66.4016C50.2744 66.3622 50.6066 66.4881 50.8484 66.5982C50.5122 66.6553 50.2587 66.6415 50.1663 66.5569C50.1499 66.5428 50.1373 66.5248 50.1297 66.5045C50.1221 66.4842 50.1199 66.4623 50.1231 66.4409C50.1231 66.4331 50.1253 66.4254 50.1294 66.4188C50.1336 66.4122 50.1396 66.4069 50.1467 66.4035L50.1584 66.4016Z" fill="#3C8477"/>
<path d="M50.974 66.6527H50.9838C50.9889 66.6487 50.9929 66.6436 50.9957 66.6378C50.9984 66.632 50.9997 66.6256 50.9996 66.6192C50.9996 66.6035 50.9543 66.1924 50.7616 66.0292C50.7346 66.0062 50.7033 65.989 50.6695 65.9785C50.6357 65.968 50.6001 65.9645 50.5649 65.9682C50.4646 65.9682 50.4371 66.0292 50.4312 66.0685C50.4036 66.2416 50.7675 66.5701 50.9524 66.6586C50.96 66.6587 50.9675 66.6567 50.974 66.6527ZM50.5315 66.0449H50.5688C50.5951 66.0419 50.6216 66.0446 50.6467 66.0528C50.6718 66.0609 50.6949 66.0743 50.7144 66.0921C50.8267 66.2241 50.8954 66.3876 50.9111 66.5602C50.7242 66.4481 50.4744 66.1905 50.4921 66.0862C50.4961 66.0724 50.4961 66.0547 50.5315 66.0449Z" fill="#3C8477"/>
<path d="M53.5503 28.5127L52.084 28.9769L53.2221 30.1098C53.2221 30.1098 54.5508 29.5335 54.1341 28.9474L53.5503 28.5127Z" fill="#FFC3BD"/>
<path d="M51.4824 30.2707L52.5261 30.904L53.2239 30.1095L52.0859 28.9766L51.4824 30.2707Z" fill="#FFC3BD"/>
</svg>
