<svg width="273" height="173" viewBox="0 0 273 173" fill="none" xmlns="http://www.w3.org/2000/svg">
<path d="M245.592 110.827C245.592 110.827 242.478 109.375 240.036 116.676C237.594 123.978 236.869 128.089 236.869 128.089C236.869 128.089 236.168 129.649 235.053 128.865C233.937 128.081 232.208 125.646 230.621 126.376C229.033 127.106 228.693 129.13 229.443 131.906C230.194 134.681 231.616 140.817 231.74 141.373C231.864 141.929 231.67 142.779 230.828 142.369C229.986 141.958 224.837 137.706 222.95 140.265C221.064 142.825 224.439 150.222 224.791 151.027C225.144 151.832 225.032 152.23 224.659 152.5C224.285 152.769 222.697 151.176 221.184 150.011C219.671 148.845 217.718 147.795 216.76 149.363C215.803 150.932 216.3 156.777 223.212 165.356L226.674 169.119L231.703 168.078C242.329 165.195 246.16 160.756 246.305 158.922C246.45 157.088 244.232 156.806 242.346 156.847C240.459 156.889 238.224 157.242 238.083 156.802C237.942 156.362 238.083 155.972 238.838 155.557C239.593 155.142 246.653 151.097 246.645 147.924C246.637 144.75 239.974 145.173 239.049 145.02C238.125 144.866 238.473 144.045 238.892 143.676C239.311 143.306 244.07 139.166 246.305 137.361C248.54 135.557 249.493 133.769 248.598 132.196C247.702 130.624 244.908 131.632 243.548 131.611C242.188 131.591 242.532 129.914 242.532 129.914C242.532 129.914 244.356 126.181 246.678 118.817C249 111.453 245.526 110.818 245.526 110.818" fill="#EBEBEB"/>
<path d="M226.018 170.161C227.734 164.767 230.943 155.246 233.659 147.053C236.374 138.859 238.825 131.445 240.57 126.069C241.437 123.381 242.137 121.207 242.643 119.697C242.888 118.95 243.058 118.365 243.207 117.962C243.271 117.772 243.32 117.622 243.356 117.514C243.389 117.411 243.41 117.361 243.41 117.361C243.41 117.361 243.41 117.415 243.369 117.518C243.327 117.622 243.294 117.776 243.236 117.971C243.112 118.386 242.933 118.962 242.701 119.713C242.237 121.227 241.553 123.41 240.69 126.102C238.974 131.495 236.544 138.913 233.829 147.102C231.113 155.292 227.883 164.817 226.138 170.194" fill="#E0E0E0"/>
<path d="M232.904 129.873C232.973 129.975 233.033 130.084 233.083 130.197C233.19 130.408 233.335 130.724 233.497 131.109C233.85 131.885 234.326 132.968 234.787 134.171C235.247 135.374 235.682 136.432 236.03 137.253C236.176 137.623 236.304 137.938 236.404 138.187C236.46 138.297 236.502 138.414 236.528 138.535C236.459 138.433 236.399 138.325 236.35 138.212C236.242 138 236.097 137.689 235.935 137.299C235.591 136.519 235.147 135.432 234.666 134.229C234.185 133.026 233.754 131.972 233.423 131.155L233.041 130.222C232.981 130.112 232.935 129.995 232.904 129.873Z" fill="#E0E0E0"/>
<path d="M237.014 138.552C236.993 138.51 239.182 137.473 241.902 136.228C244.622 134.984 246.836 134.013 246.877 134.055C246.919 134.096 244.705 135.133 241.985 136.374C239.265 137.614 237.014 138.597 237.014 138.552Z" fill="#E0E0E0"/>
<path d="M232.262 150.948C232.383 150.909 232.508 150.884 232.635 150.873L233.651 150.724C234.505 150.599 235.69 150.421 236.988 150.172C238.286 149.923 239.451 149.67 240.305 149.471L241.304 149.243C241.425 149.205 241.551 149.183 241.677 149.176C241.563 149.229 241.443 149.27 241.321 149.301C241.089 149.371 240.753 149.471 240.334 149.583C239.505 149.807 238.327 150.085 237.017 150.33C235.707 150.574 234.53 150.744 233.663 150.836C233.248 150.886 232.884 150.919 232.639 150.935C232.514 150.95 232.388 150.955 232.262 150.948Z" fill="#E0E0E0"/>
<path d="M226.832 143.908C226.922 143.983 227.002 144.067 227.073 144.161L227.682 144.891C228.192 145.509 228.884 146.372 229.643 147.33C230.402 148.289 231.086 149.16 231.571 149.799L232.139 150.558C232.213 150.648 232.279 150.745 232.334 150.848C232.243 150.775 232.162 150.69 232.093 150.595L231.484 149.869C230.974 149.247 230.282 148.388 229.519 147.43C228.756 146.472 228.08 145.596 227.595 144.961L227.027 144.202C226.951 144.112 226.885 144.013 226.832 143.908Z" fill="#E0E0E0"/>
<path d="M221.258 154.317C221.37 154.415 221.471 154.525 221.56 154.645C221.768 154.885 222.029 155.201 222.344 155.574C223.003 156.362 223.899 157.462 224.886 158.681C225.872 159.901 226.755 161.009 227.373 161.818L228.119 162.776C228.215 162.891 228.299 163.015 228.372 163.145C228.263 163.044 228.162 162.935 228.07 162.817L227.286 161.888C226.631 161.096 225.731 160.001 224.745 158.781C223.758 157.561 222.875 156.453 222.257 155.644C221.958 155.259 221.706 154.935 221.515 154.682C221.417 154.569 221.331 154.447 221.258 154.317Z" fill="#E0E0E0"/>
<path d="M228.309 162.884C228.461 162.838 228.616 162.803 228.773 162.78L230.054 162.548C231.136 162.349 232.629 162.067 234.266 161.718C235.904 161.37 237.38 161.005 238.446 160.735L239.71 160.42C239.863 160.374 240.02 160.341 240.179 160.32C240.033 160.387 239.882 160.439 239.727 160.478C239.432 160.569 239.005 160.698 238.483 160.843C237.422 161.142 235.95 161.519 234.308 161.872C232.666 162.225 231.169 162.494 230.083 162.664C229.54 162.751 229.096 162.814 228.794 162.851C228.633 162.878 228.471 162.889 228.309 162.884Z" fill="#E0E0E0"/>
<path d="M254.843 170.011C254.843 170.069 197.881 170.119 127.634 170.119C57.3881 170.119 0.425781 170.082 0.425781 170.011C0.425781 169.941 57.3757 169.903 127.651 169.903C197.926 169.903 254.843 169.953 254.843 170.011Z" fill="#263238"/>
<path d="M177.045 25.6365L173.1 29.0127L178.365 35.1736L182.311 31.7974L177.045 25.6365Z" fill="#263238"/>
<path d="M180.453 25.1574L172.335 32.1354L166.643 25.4976C168.881 22.3529 171.551 19.9799 174.748 18.5195L180.453 25.1574Z" fill="#455A64"/>
<path d="M173.702 30.9657C173.657 31.0072 172.284 29.4971 170.634 27.6012C168.984 25.7052 167.682 24.137 167.732 24.0956C167.782 24.0541 169.15 25.5642 170.8 27.4601C172.45 29.356 173.748 30.9284 173.702 30.9657Z" fill="#263238"/>
<path d="M175.238 29.6382C174.91 29.3188 174.605 28.9764 174.326 28.6135C173.779 27.9705 173.037 27.0785 172.22 26.0828L170.147 23.5273L169.525 22.7515C169.376 22.5606 169.297 22.4735 169.297 22.461C169.38 22.3864 170.76 23.9587 172.394 25.9459C173.223 26.9416 173.936 27.8501 174.467 28.5181C174.756 28.868 175.015 29.2428 175.238 29.6382Z" fill="#263238"/>
<path d="M177.311 27.8666C176.978 27.5482 176.669 27.2057 176.387 26.8419C175.835 26.1905 175.089 25.282 174.268 24.2738L172.195 21.6768L171.573 20.8844C171.492 20.7899 171.42 20.6886 171.357 20.5815C171.714 20.876 172.034 21.2116 172.311 21.5814C172.871 22.2244 173.625 23.1288 174.442 24.1369C175.259 25.1451 175.993 26.0702 176.515 26.7464C176.811 27.0968 177.078 27.4715 177.311 27.8666Z" fill="#263238"/>
<path d="M179.18 26.2071C179.134 26.2445 177.77 24.7219 176.132 22.8052C174.495 20.8886 173.209 19.2996 173.255 19.2582C173.301 19.2167 174.661 20.7434 176.298 22.6642C177.936 24.585 179.225 26.1698 179.18 26.2071Z" fill="#263238"/>
<path d="M246.514 29.8299L242.928 26.0747L237.071 31.6753L240.657 35.4305L246.514 29.8299Z" fill="#263238"/>
<path d="M246.687 33.5255L239.299 25.7882L245.613 19.752C248.864 21.8263 251.376 24.3694 252.997 27.4892L246.687 33.5255Z" fill="#455A64"/>
<path d="M240.532 27.0866C240.491 27.041 241.921 25.589 243.729 23.8424C245.536 22.0958 247.046 20.7143 247.075 20.7558C247.104 20.7973 245.686 22.2493 243.878 24C242.07 25.7508 240.574 27.1281 240.532 27.0866Z" fill="#263238"/>
<path d="M241.943 28.5594C242.238 28.211 242.56 27.8864 242.905 27.5886C243.515 27.0078 244.369 26.2154 245.318 25.3442L247.76 23.1329L248.502 22.4691C248.681 22.3115 248.768 22.2327 248.78 22.2285C248.859 22.3073 247.362 23.7718 245.463 25.5059C244.514 26.373 243.643 27.1654 243.005 27.7006C242.674 28.0143 242.319 28.3015 241.943 28.5594Z" fill="#263238"/>
<path d="M243.816 30.5215C244.115 30.1698 244.441 29.8425 244.791 29.5424C245.408 28.9575 246.275 28.1609 247.241 27.2897L249.729 25.0743L250.487 24.4105C250.58 24.3281 250.677 24.2505 250.778 24.1782C250.503 24.5505 250.186 24.8889 249.832 25.1863C249.219 25.7796 248.352 26.5803 247.39 27.4515C246.428 28.3227 245.541 29.111 244.903 29.6586C244.563 29.9737 244.2 30.2622 243.816 30.5215Z" fill="#263238"/>
<path d="M245.571 32.3097C245.53 32.2641 246.981 30.8245 248.809 29.0862C250.638 27.348 252.155 25.9789 252.197 26.0245C252.238 26.0702 250.787 27.5098 248.958 29.2439C247.13 30.978 245.613 32.3471 245.571 32.3097Z" fill="#263238"/>
<path d="M213.414 11.9023H207.27V21.4982H213.414V11.9023Z" fill="#263238"/>
<path d="M216.698 14.7736H204.053V4.43098C208.485 3.33574 212.714 3.26936 216.711 4.43098L216.698 14.7736Z" fill="#FEE675"/>
<path d="M216.859 4.47195C216.711 4.56469 216.554 4.64251 216.391 4.70428C215.958 4.89506 215.513 5.05856 215.06 5.19382C214.381 5.40317 213.688 5.56671 212.987 5.68336C212.135 5.81862 211.275 5.89073 210.412 5.89909C209.55 5.90037 208.69 5.83657 207.837 5.70825C207.137 5.59948 206.444 5.44285 205.764 5.23945C205.311 5.10655 204.865 4.94725 204.429 4.76236C204.265 4.70523 204.107 4.62863 203.961 4.53418C203.961 4.49685 204.657 4.7831 205.806 5.0901C206.48 5.26834 207.164 5.40687 207.854 5.50497C208.698 5.6192 209.548 5.67741 210.4 5.67921C211.252 5.66951 212.102 5.60299 212.945 5.48008C213.633 5.38061 214.314 5.24209 214.985 5.06521C216.163 4.72917 216.843 4.43462 216.859 4.47195Z" fill="#263238"/>
<path d="M208.233 14.7443C208.175 14.7443 208.125 12.7571 208.125 10.3094C208.125 7.86171 208.175 5.87451 208.233 5.87451C208.291 5.87451 208.341 7.85756 208.341 10.3094C208.341 12.7613 208.295 14.7443 208.233 14.7443Z" fill="#263238"/>
<path d="M210.641 14.8027C210.583 14.8027 210.533 12.8072 210.533 10.347C210.533 7.88686 210.583 5.89551 210.641 5.89551C210.699 5.89551 210.749 7.88686 210.749 10.347C210.749 12.8072 210.703 14.8027 210.641 14.8027Z" fill="#263238"/>
<path d="M213.049 14.7653C212.991 14.7653 212.941 12.7698 212.941 10.3097C212.941 7.8495 212.991 5.854 213.049 5.854C213.107 5.854 213.157 7.8495 213.157 10.3097C213.157 12.7698 213.112 14.7653 213.049 14.7653Z" fill="#263238"/>
<path d="M215.04 14.7655C214.977 14.7655 214.932 12.6082 214.932 9.9489C214.932 7.28962 214.977 5.13232 215.04 5.13232C215.102 5.13232 215.147 7.28962 215.147 9.9489C215.147 12.6082 215.114 14.7655 215.04 14.7655Z" fill="#263238"/>
<path d="M205.956 14.703C205.897 14.703 205.848 12.5457 205.848 9.8864C205.848 7.22712 205.897 5.06982 205.956 5.06982C206.014 5.06982 206.063 7.22712 206.063 9.8864C206.063 12.5457 206.018 14.703 205.956 14.703Z" fill="#263238"/>
<path d="M241.212 94.897C258.671 77.4269 258.671 49.1024 241.212 31.6323C223.753 14.1623 195.446 14.1623 177.987 31.6323C160.528 49.1024 160.528 77.4269 177.987 94.897C195.446 112.367 223.753 112.367 241.212 94.897Z" fill="#FEE675"/>
<path d="M209.601 100.481C230.338 100.481 247.148 83.6599 247.148 62.9105C247.148 42.1611 230.338 25.3403 209.601 25.3403C188.865 25.3403 172.055 42.1611 172.055 62.9105C172.055 83.6599 188.865 100.481 209.601 100.481Z" fill="#FAFAFA"/>
<path d="M247.146 62.9099C247.146 62.9099 247.146 62.7066 247.117 62.3042C247.088 61.9018 247.117 61.3002 247.038 60.5161C246.89 58.2284 246.532 55.9592 245.969 53.7372C245.562 52.1334 245.048 50.5589 244.43 49.0243C243.704 47.1947 242.831 45.4272 241.818 43.739C239.342 39.6146 236.106 35.998 232.283 33.0811C227.642 29.548 222.239 27.1498 216.507 26.0782C211.648 25.1837 206.662 25.2414 201.826 26.2483C200.127 26.6172 198.454 27.0953 196.817 27.6796C189.851 30.2187 183.792 34.7644 179.404 40.7437C178.259 42.3008 177.239 43.946 176.353 45.6639C175.892 46.5227 175.498 47.4147 175.109 48.3108C174.719 49.2069 174.371 50.1362 174.076 51.0821C173.44 52.975 172.963 54.9178 172.65 56.8902C172.335 58.8844 172.171 60.8993 172.157 62.9182C172.171 64.9382 172.335 66.9544 172.646 68.9503C172.964 70.9218 173.441 72.8642 174.072 74.7584C174.371 75.7001 174.744 76.6129 175.105 77.5256C175.465 78.4383 175.901 79.3178 176.348 80.1765C177.234 81.8955 178.256 83.5408 179.404 85.0968C183.791 91.0782 189.85 95.6255 196.817 98.1651C198.454 98.7494 200.127 99.2274 201.826 99.5964C203.482 99.9426 205.159 100.177 206.847 100.297C210.076 100.542 213.324 100.363 216.507 99.7665C222.239 98.6948 227.642 96.2967 232.283 92.7635C236.108 89.8478 239.344 86.231 241.818 82.1057C242.83 80.417 243.703 78.6495 244.43 76.8203C245.903 73.1523 246.783 69.2732 247.038 65.3285C247.109 64.5444 247.096 63.9429 247.117 63.5405C247.138 63.138 247.146 62.9306 247.146 62.9306C247.146 62.9306 247.146 63.138 247.146 63.5405C247.146 63.9429 247.146 64.5444 247.088 65.3285C246.861 69.2843 245.997 73.1774 244.53 76.8576C243.808 78.6957 242.937 80.4716 241.926 82.1679C239.456 86.313 236.22 89.9497 232.39 92.8839C227.733 96.4385 222.309 98.8537 216.553 99.9366C213.355 100.541 210.092 100.725 206.847 100.484C205.151 100.364 203.465 100.13 201.801 99.783C200.092 99.4153 198.409 98.9358 196.763 98.3476C189.756 95.7989 183.661 91.2298 179.247 85.2171C178.094 83.6527 177.068 81.9991 176.178 80.272C175.714 79.409 175.316 78.5046 174.91 77.6044C174.503 76.7041 174.172 75.7707 173.873 74.8206C173.237 72.9186 172.757 70.9678 172.439 68.9876C171.781 64.9709 171.781 60.8738 172.439 56.857C172.759 54.8853 173.239 52.9429 173.873 51.0489C174.176 50.0989 174.549 49.182 174.914 48.2651C175.279 47.3483 175.714 46.4646 176.178 45.6017C177.071 43.8753 178.099 42.2218 179.251 40.6565C183.663 34.6447 189.757 30.0768 196.763 27.5302C198.408 26.9426 200.09 26.4631 201.797 26.0948C203.463 25.7485 205.15 25.5143 206.847 25.3937C210.091 25.1526 213.352 25.3367 216.548 25.9413C222.307 27.0193 227.731 29.4351 232.386 32.994C236.215 35.9299 239.452 39.5679 241.922 43.7141C243.779 46.8438 245.176 50.2252 246.068 53.7538C246.621 55.9836 246.967 58.2599 247.1 60.5534C247.163 61.3375 247.142 61.9391 247.158 62.3415C247.175 62.7439 247.146 62.9099 247.146 62.9099Z" fill="#263238"/>
<path d="M241.637 61.5493C240.447 61.5991 239.477 61.5493 239.473 61.4456C239.469 61.3419 240.426 61.2008 241.616 61.1344C242.806 61.0681 243.776 61.1095 243.785 61.234C243.793 61.3585 242.819 61.4995 241.637 61.5493Z" fill="#263238"/>
<path d="M240.837 70.1994C239.676 69.9256 238.764 69.6228 238.764 69.519C238.764 69.4153 239.75 69.5398 240.915 69.7929C242.08 70.0459 242.988 70.3529 242.988 70.4732C242.988 70.5935 241.989 70.4691 240.837 70.1994Z" fill="#263238"/>
<path d="M237.739 78.3097C236.69 77.7372 235.886 77.1938 235.936 77.1025C235.986 77.0112 236.881 77.3887 237.934 77.9322C238.987 78.4757 239.796 79.0358 239.738 79.1436C239.68 79.2515 238.784 78.8864 237.739 78.3097Z" fill="#263238"/>
<path d="M232.576 85.2963C231.722 84.4666 231.088 83.7281 231.162 83.6369C231.237 83.5456 231.991 84.1638 232.862 84.9852C233.733 85.8066 234.359 86.5409 234.276 86.6446C234.193 86.7484 233.426 86.1302 232.576 85.2963Z" fill="#263238"/>
<path d="M225.738 90.6478C225.141 89.6148 224.726 88.7353 224.817 88.6813C224.908 88.6274 225.481 89.4156 226.094 90.4362C226.708 91.4568 227.122 92.3363 227.019 92.4027C226.915 92.469 226.339 91.6725 225.738 90.6478Z" fill="#263238"/>
<path d="M217.712 93.9625C217.414 92.805 217.252 91.8467 217.356 91.8218C217.459 91.7969 217.795 92.7055 218.115 93.8546C218.434 95.0038 218.592 95.9621 218.472 95.9953C218.351 96.0285 218.011 95.1158 217.712 93.9625Z" fill="#263238"/>
<path d="M209.095 94.992C209.095 93.7972 209.215 92.8306 209.319 92.8306C209.423 92.8306 209.51 93.8013 209.51 94.992C209.51 96.1827 209.406 97.1534 209.286 97.1534C209.165 97.1534 209.074 96.191 209.095 94.992Z" fill="#263238"/>
<path d="M200.531 93.6927C200.871 92.5477 201.228 91.6474 201.332 91.6765C201.435 91.7055 201.253 92.6597 200.917 93.8089C200.581 94.958 200.236 95.8832 200.116 95.8251C199.996 95.767 200.17 94.8377 200.531 93.6927Z" fill="#263238"/>
<path d="M192.596 90.1213C193.231 89.1132 193.815 88.3374 193.906 88.3913C193.998 88.4453 193.566 89.3206 192.949 90.3412C192.331 91.3618 191.742 92.1334 191.639 92.0712C191.535 92.0089 191.962 91.1336 192.596 90.1213Z" fill="#263238"/>
<path d="M185.927 84.5619C186.81 83.7571 187.586 83.168 187.652 83.2468C187.718 83.3256 187.08 84.0475 186.209 84.8648C185.338 85.6821 184.571 86.2712 184.484 86.1841C184.397 86.0969 185.048 85.3668 185.927 84.5619Z" fill="#263238"/>
<path d="M180.985 77.4181C182.051 76.8829 182.955 76.522 183 76.6132C183.046 76.7045 182.233 77.2314 181.176 77.7873C180.119 78.3432 179.219 78.7042 179.161 78.5921C179.103 78.4801 179.924 77.9574 180.985 77.4181Z" fill="#263238"/>
<path d="M178.14 69.212C179.313 68.9797 180.279 68.876 180.3 68.9797C180.321 69.0834 179.392 69.3696 178.227 69.6186C177.062 69.8675 176.092 69.9712 176.067 69.8509C176.042 69.7306 176.979 69.4443 178.14 69.212Z" fill="#263238"/>
<path d="M177.614 60.5582C178.804 60.6453 179.761 60.8029 179.757 60.9066C179.753 61.0104 178.779 61.0394 177.589 60.9689C176.399 60.8983 175.437 60.7448 175.445 60.6204C175.454 60.4959 176.424 60.4503 177.614 60.5582Z" fill="#263238"/>
<path d="M179.418 52.0409C180.541 52.4558 181.42 52.8706 181.387 52.9578C181.354 53.0449 180.409 52.8209 179.281 52.4309C178.153 52.0409 177.274 51.6343 177.312 51.5182C177.349 51.402 178.298 51.6343 179.418 52.0409Z" fill="#263238"/>
<path d="M183.443 44.3447C184.413 45.0375 185.151 45.6681 185.101 45.7552C185.052 45.8423 184.197 45.3611 183.215 44.6849C182.232 44.0086 181.494 43.378 181.556 43.2743C181.619 43.1706 182.469 43.6518 183.443 44.3447Z" fill="#263238"/>
<path d="M189.377 38.006C190.127 38.9311 190.67 39.736 190.592 39.8065C190.513 39.877 189.82 39.1842 189.058 38.2674C188.295 37.3505 187.747 36.5498 187.843 36.471C187.938 36.3922 188.626 37.0808 189.377 38.006Z" fill="#263238"/>
<path d="M196.795 33.4837C197.268 34.579 197.579 35.5 197.479 35.5581C197.38 35.6161 196.907 34.7532 196.418 33.6663C195.929 32.5793 195.618 31.6583 195.73 31.592C195.842 31.5256 196.31 32.3926 196.795 33.4837Z" fill="#263238"/>
<path d="M205.147 31.1317C205.309 32.314 205.358 33.2848 205.251 33.3014C205.143 33.318 204.915 32.3721 204.736 31.1939C204.558 30.0157 204.508 29.0407 204.628 29.0241C204.749 29.0075 204.985 29.9493 205.147 31.1317Z" fill="#263238"/>
<path d="M213.829 31.1026C213.672 32.2849 213.46 33.235 213.357 33.2225C213.253 33.2101 213.278 32.2352 213.419 31.0528C213.56 29.8704 213.771 28.9162 213.892 28.9328C214.012 28.9494 213.987 29.9161 213.829 31.1026Z" fill="#263238"/>
<path d="M222.2 33.3965C221.731 34.4959 221.271 35.3505 221.172 35.309C221.072 35.2675 221.367 34.3424 221.818 33.2347C222.27 32.127 222.735 31.2765 222.847 31.3263C222.959 31.3761 222.673 32.3012 222.2 33.3965Z" fill="#263238"/>
<path d="M229.646 37.8649C228.9 38.7984 228.228 39.4995 228.145 39.4331C228.062 39.3667 228.589 38.5495 229.323 37.6077C230.057 36.666 230.724 35.9483 230.824 36.0437C230.923 36.1391 230.38 36.9356 229.646 37.8649Z" fill="#263238"/>
<path d="M235.629 44.1621C234.659 44.859 233.826 45.3569 233.763 45.2697C233.701 45.1826 234.427 44.5396 235.385 43.826C236.342 43.1124 237.176 42.6188 237.25 42.7183C237.325 42.8179 236.599 43.4651 235.629 44.1621Z" fill="#263238"/>
<path d="M239.704 51.8457C238.584 52.2606 237.631 52.5053 237.606 52.4099C237.581 52.3145 238.435 51.883 239.559 51.4557C240.682 51.0284 241.607 50.7753 241.653 50.8915C241.698 51.0077 240.823 51.4308 239.704 51.8457Z" fill="#263238"/>
<path d="M241.575 60.3175C240.385 60.4129 239.415 60.4046 239.406 60.3175C239.398 60.2304 240.352 60.0395 241.537 59.9026C242.723 59.7657 243.697 59.7989 243.706 59.9234C243.714 60.0478 242.752 60.2221 241.575 60.3175Z" fill="#263238"/>
<path d="M195.018 22.2656L194.89 22.3237L194.508 22.4772C194.176 22.6183 193.679 22.7884 193.045 23.0663C191.257 23.814 189.522 24.6802 187.85 25.6592C186.788 26.2732 185.665 27.0075 184.483 27.8331C183.301 28.6587 182.095 29.6212 180.888 30.704C175.591 35.3759 171.545 41.2985 169.118 47.9333C168.55 49.4517 168.123 50.9369 167.754 52.3267C167.385 53.7165 167.136 55.0441 166.949 56.2555C166.647 58.1695 166.471 60.1015 166.423 62.0387C166.39 62.7274 166.423 63.2584 166.423 63.6193C166.423 63.7936 166.423 63.9263 166.423 64.0342C166.427 64.0812 166.427 64.1283 166.423 64.1753C166.417 64.1298 166.417 64.0838 166.423 64.0384C166.423 63.9346 166.423 63.7977 166.423 63.6235C166.423 63.2626 166.377 62.7315 166.398 62.0429C166.413 60.0983 166.567 58.1573 166.858 56.2347C167.032 55.015 167.302 53.6916 167.638 52.2852C168.012 50.7903 168.463 49.3156 168.989 47.8669C171.405 41.1877 175.475 35.231 180.818 30.5546C182.033 29.4718 183.268 28.5384 184.437 27.6879C185.607 26.8374 186.759 26.1322 187.833 25.5265C189.516 24.5576 191.266 23.7091 193.069 22.9875C193.704 22.722 194.214 22.5726 194.554 22.4357L194.943 22.303C194.967 22.2887 194.992 22.2762 195.018 22.2656Z" fill="white"/>
<path d="M207.499 19.8432C207.072 19.9318 206.64 19.9887 206.205 20.0133C205.401 20.0963 204.298 20.2166 203.079 20.3743C201.86 20.5319 200.761 20.6979 199.965 20.8223C199.539 20.9101 199.107 20.9655 198.672 20.9883C199.084 20.8445 199.509 20.7389 199.941 20.673C200.732 20.5112 201.831 20.3203 203.05 20.1627C204.269 20.005 205.384 19.9055 206.193 19.8598C206.627 19.8134 207.064 19.8079 207.499 19.8432Z" fill="white"/>
<g opacity="0.4">
<path d="M179.59 85.4953C179.59 85.4953 199.047 116.22 229.23 100.484C260.74 84.0557 243.327 46.3984 243.327 46.3984C243.327 46.3984 258.153 76.4097 227.439 95.9748C219.79 100.849 211.46 100.854 205.109 100.215C188.877 98.5884 179.59 85.4953 179.59 85.4953Z" fill="black"/>
</g>
<path d="M220.064 42.9429C220.251 48.4531 220.085 53.9697 219.567 59.4586C219.376 61.4458 219.152 63.4538 218.385 65.2999C217.618 67.1461 216.312 68.8387 214.471 69.6187C212.63 70.3986 210.275 70.075 208.994 68.5483L220.064 42.9429Z" fill="#E0E0E0"/>
<path d="M208.783 59.9479L222.428 36.9561L214.194 62.9141L209.986 64.1712L208.783 59.9479Z" fill="#56ABA1"/>
<g opacity="0.4">
<path d="M222.427 36.9565L212.307 60.4503L214.193 62.9146L222.427 36.9565Z" fill="black"/>
</g>
<path d="M209.986 68.5647C212.411 68.5647 214.377 66.5977 214.377 64.1713C214.377 61.7448 212.411 59.7778 209.986 59.7778C207.561 59.7778 205.596 61.7448 205.596 64.1713C205.596 66.5977 207.561 68.5647 209.986 68.5647Z" fill="#FAFAFA"/>
<path d="M214.377 64.171C214.338 63.8139 214.278 63.4593 214.199 63.1089C213.944 62.1627 213.381 61.3288 212.598 60.7401C212.023 60.3071 211.349 60.0253 210.637 59.9202C209.925 59.8151 209.198 59.8902 208.523 60.1385C208.134 60.2762 207.769 60.4735 207.441 60.7235C207.091 60.9771 206.785 61.2853 206.533 61.6362C205.994 62.3713 205.703 63.2593 205.703 64.171C205.703 65.0827 205.994 65.9707 206.533 66.7058C207.036 67.3893 207.728 67.9112 208.523 68.2076C209.09 68.4158 209.695 68.5031 210.298 68.4638C210.901 68.4245 211.489 68.2595 212.025 67.9794C212.56 67.6994 213.031 67.3104 213.408 66.8374C213.784 66.3645 214.058 65.818 214.211 65.233C214.291 64.8828 214.351 64.5282 214.389 64.171C214.415 64.5347 214.383 64.9002 214.294 65.2538C214.067 66.243 213.505 67.1228 212.702 67.743C212.152 68.1705 211.508 68.4619 210.824 68.5934C210.037 68.744 209.224 68.681 208.469 68.4109C208.059 68.2693 207.674 68.0634 207.329 67.8011C206.962 67.5359 206.64 67.2137 206.375 66.8469C205.804 66.0779 205.496 65.1455 205.496 64.1876C205.496 63.2297 205.804 62.2973 206.375 61.5283C206.641 61.1624 206.963 60.8404 207.329 60.5741C207.676 60.3154 208.06 60.1112 208.469 59.9684C209.223 59.6963 210.037 59.6333 210.824 59.7859C211.66 59.9467 212.432 60.3453 213.047 60.9339C213.663 61.5226 214.096 62.2763 214.294 63.1048C214.377 63.4537 214.405 63.8134 214.377 64.171Z" fill="#263238"/>
<path d="M213.204 64.8297C213.562 63.06 212.418 61.3353 210.65 60.9775C208.881 60.6197 207.157 61.7643 206.8 63.534C206.442 65.3037 207.586 67.0283 209.355 67.3861C211.123 67.7439 212.847 66.5994 213.204 64.8297Z" fill="#455A64"/>
<path d="M175.371 169.621H196.972L186.901 82.7734L175.371 169.621Z" fill="#E0E0E0"/>
<path d="M69.0848 82.7734L55.0215 170.646L175.028 172.21L186.903 82.7734H69.0848Z" fill="#FAFAFA"/>
<path d="M181.557 123.028H62.6406L65.2278 106.848H183.705L181.557 123.028Z" fill="#EBEBEB"/>
<path d="M181.566 123.04H62.6289L65.2202 106.861H183.718L181.566 123.04ZM62.6538 123.02H181.55L183.693 106.84H65.2409L62.6538 123.02Z" fill="#263238"/>
<path d="M69.0843 82.7734L65.2285 106.848H183.706L186.902 82.7734H69.0843Z" fill="#86C3BB"/>
<path d="M69.1004 82.7739L186.918 82.6743H187.03V82.7863C183.56 108.968 179.621 138.66 175.459 170.02V170.115H174.016L55.12 170.082H55.0039V169.978L69.1004 82.7739C68.9843 83.4958 63.6277 117.187 55.2236 170.02L55.1366 169.916H173.987H175.334L175.231 170.007C179.397 138.648 183.344 108.96 186.839 82.778L186.935 82.8859L69.1004 82.7739Z" fill="#263238"/>
<path d="M183.706 106.848C183.706 106.906 157.171 106.956 124.471 106.956C91.7714 106.956 65.2285 106.906 65.2285 106.848C65.2285 106.79 91.7631 106.74 124.471 106.74C157.179 106.74 183.706 106.786 183.706 106.848Z" fill="#263238"/>
<path d="M181.559 123.028C181.559 123.09 154.883 123.136 121.988 123.136C89.0938 123.136 62.4141 123.09 62.4141 123.028C62.4141 122.966 89.0813 122.92 121.988 122.92C154.895 122.92 181.559 122.97 181.559 123.028Z" fill="#263238"/>
<path d="M179.135 137.917C179.135 137.98 152.464 138.025 119.569 138.025C86.6748 138.025 59.9785 137.98 59.9785 137.917C59.9785 137.855 86.6458 137.81 119.553 137.81C152.46 137.81 179.135 137.859 179.135 137.917Z" fill="#263238"/>
<path d="M176.719 152.807C176.719 152.865 150.043 152.914 117.149 152.914C84.2539 152.914 57.5742 152.865 57.5742 152.807C57.5742 152.749 84.2415 152.699 117.149 152.699C150.056 152.699 176.719 152.749 176.719 152.807Z" fill="#263238"/>
<path d="M71.8644 170.14C71.8064 170.14 73.983 155.952 76.7319 138.477C79.4807 121.003 81.7486 106.836 81.8066 106.848C81.8646 106.861 79.688 121.028 76.9433 138.511C74.1986 155.993 71.9266 170.148 71.8644 170.14Z" fill="#263238"/>
<path d="M90.2044 170.14C90.1422 170.14 92.323 155.952 95.0677 138.477C97.8124 121.003 100.084 106.836 100.147 106.848C100.209 106.861 98.028 121.028 95.2792 138.511C92.5304 155.993 90.2459 170.148 90.2044 170.14Z" fill="#263238"/>
<path d="M107.243 169.505C107.185 169.505 109.341 155.462 112.057 138.162C114.773 120.862 117.032 106.836 117.086 106.848C117.14 106.861 114.988 120.887 112.272 138.195C109.557 155.503 107.297 169.513 107.243 169.505Z" fill="#263238"/>
<path d="M124.099 170.007C124.041 170.007 126.213 155.848 128.954 138.411C131.694 120.974 133.962 106.836 134.02 106.848C134.078 106.861 131.906 120.999 129.165 138.444C126.425 155.889 124.157 170.015 124.099 170.007Z" fill="#263238"/>
<path d="M141.036 170.007C140.978 170.007 143.151 155.848 145.891 138.411C148.632 120.974 150.9 106.836 150.958 106.848C151.016 106.861 148.847 120.999 146.107 138.444C143.366 155.889 141.098 170.015 141.036 170.007Z" fill="#263238"/>
<path d="M157.958 170.082C157.9 170.082 160.077 155.906 162.821 138.44C165.566 120.974 167.834 106.819 167.896 106.832C167.958 106.844 165.778 121.003 163.033 138.473C160.288 155.943 158.016 170.107 157.958 170.082Z" fill="#263238"/>
<g opacity="0.2">
<path d="M147.302 107.976C149.342 107.072 150.619 104.948 151.146 102.778C151.672 100.608 151.589 98.3433 151.668 96.1072C151.747 93.8711 152.012 91.5686 153.153 89.6477C153.828 88.5152 154.778 87.5734 155.528 86.4823C156.279 85.3912 156.834 84.0637 156.556 82.7485L143.795 82.8149L147.302 107.976Z" fill="black"/>
</g>
<path d="M94.3901 124.227C94.356 124.283 94.3141 124.333 94.2657 124.376L93.8842 124.791C93.5484 125.136 93.055 125.621 92.4331 126.227C91.1893 127.422 89.4604 129.048 87.4911 130.79C85.5217 132.533 83.6974 134.051 82.3583 135.13C81.6866 135.669 81.1393 136.1 80.7579 136.374L80.3143 136.706C80.2649 136.749 80.2089 136.784 80.1484 136.81C80.1484 136.81 80.194 136.756 80.2853 136.673L80.6999 136.308L82.2546 134.993C83.5731 133.885 85.3807 132.346 87.346 130.612C89.3112 128.878 91.0774 127.268 92.3212 126.102L93.8179 124.721L94.2325 124.352C94.2796 124.304 94.3325 124.262 94.3901 124.227Z" fill="#263238"/>
<path d="M93.4335 136.976C93.2574 136.822 93.0925 136.655 92.9401 136.478L91.6424 135.092C90.523 133.902 89.0221 132.3 87.3679 130.529L83.0477 126.007L81.7376 124.634C81.5722 124.47 81.4184 124.296 81.2773 124.111C81.4651 124.25 81.64 124.405 81.7997 124.575C82.1231 124.882 82.5875 125.335 83.1555 125.899C84.2915 127.027 85.8421 128.608 87.5213 130.384C89.2004 132.159 90.693 133.794 91.7544 134.993C92.2851 135.59 92.7121 136.08 92.9982 136.42C93.1601 136.591 93.3058 136.777 93.4335 136.976Z" fill="#263238"/>
<path d="M97.8621 128.039C97.8621 128.039 97.9036 127.932 97.9907 127.72C98.1281 127.413 98.2948 127.12 98.4882 126.845C99.2506 125.779 100.326 124.977 101.565 124.55C102.452 124.229 103.398 124.105 104.338 124.185C105.458 124.294 106.536 124.662 107.489 125.26C108.589 125.938 109.519 126.861 110.205 127.956C110.999 129.18 111.394 130.619 111.337 132.076C111.289 132.862 111.045 133.624 110.628 134.291C110.19 134.984 109.607 135.573 108.92 136.017C107.455 136.957 105.731 137.409 103.994 137.308C103.084 137.259 102.189 137.064 101.341 136.731C100.458 136.386 99.665 135.847 99.0189 135.154C98.6979 134.79 98.4274 134.384 98.2146 133.947C98.0118 133.501 97.8723 133.029 97.7999 132.545C97.6623 131.552 97.7487 130.542 98.0529 129.587C98.6868 127.596 100.061 125.925 101.892 124.92C102.841 124.398 103.897 124.101 104.979 124.051C106.06 124.002 107.139 124.201 108.132 124.633C109.16 125.067 110.061 125.757 110.748 126.637C111.436 127.541 111.866 128.615 111.992 129.745C112.135 130.89 111.95 132.053 111.457 133.097C111.204 133.621 110.871 134.102 110.47 134.524C110.062 134.94 109.603 135.301 109.102 135.598C108.092 136.155 106.979 136.497 105.831 136.604C104.684 136.711 103.526 136.581 102.431 136.221C101.353 135.889 100.362 135.322 99.5289 134.561C98.7031 133.799 98.1387 132.796 97.916 131.694C97.6824 130.611 97.8365 129.481 98.3514 128.5C98.6124 128.017 98.9711 127.593 99.4045 127.255C99.8311 126.933 100.307 126.682 100.814 126.513C101.81 126.193 102.854 126.053 103.899 126.098C104.916 126.105 105.928 126.245 106.909 126.513C107.879 126.768 108.775 127.248 109.525 127.915C110.243 128.586 110.733 129.465 110.926 130.429C111.117 131.361 111.061 132.326 110.765 133.229C110.471 134.101 109.975 134.89 109.318 135.532C108.069 136.754 106.415 137.474 104.67 137.556C103.853 137.6 103.036 137.481 102.265 137.208C101.525 136.942 100.86 136.503 100.325 135.926C99.8186 135.376 99.4356 134.724 99.2013 134.013C98.9704 133.347 98.8677 132.644 98.8986 131.939C98.9578 130.635 99.4779 129.394 100.366 128.438C101.126 127.606 102.087 126.985 103.157 126.633C104.054 126.34 105.006 126.25 105.943 126.368C107.238 126.529 108.468 127.025 109.512 127.807C109.784 128.007 110.04 128.226 110.28 128.463C110.441 128.624 110.52 128.712 110.52 128.712C110.52 128.712 110.429 128.633 110.267 128.479C110.021 128.25 109.76 128.037 109.488 127.84C108.441 127.081 107.218 126.603 105.934 126.451C104.922 126.333 103.897 126.46 102.944 126.821C101.991 127.182 101.138 127.766 100.458 128.525C99.5921 129.46 99.088 130.674 99.0355 131.947C99.0073 132.638 99.11 133.328 99.3381 133.98C99.5692 134.669 99.9437 135.301 100.437 135.835C100.956 136.393 101.602 136.82 102.319 137.079C103.071 137.341 103.867 137.454 104.662 137.411C106.365 137.327 107.977 136.62 109.193 135.424C109.828 134.802 110.307 134.039 110.59 133.196C110.874 132.323 110.926 131.391 110.74 130.491C110.553 129.566 110.082 128.721 109.392 128.077C108.663 127.435 107.794 126.972 106.855 126.724C105.89 126.46 104.895 126.321 103.895 126.309C102.875 126.271 101.856 126.411 100.885 126.724C99.8936 127.028 99.0549 127.697 98.5379 128.595C98.0471 129.533 97.9004 130.614 98.1233 131.649C98.3382 132.707 98.8825 133.67 99.6781 134.399C100.485 135.145 101.448 135.701 102.497 136.026C103.563 136.376 104.69 136.504 105.807 136.4C106.924 136.295 108.008 135.962 108.99 135.42C109.475 135.135 109.92 134.786 110.313 134.383C110.698 133.978 111.018 133.516 111.262 133.014C111.739 132.006 111.919 130.884 111.78 129.778C111.662 128.687 111.251 127.65 110.59 126.774C109.926 125.923 109.056 125.256 108.061 124.837C107.098 124.416 106.051 124.221 105.001 124.269C103.951 124.316 102.925 124.604 102.004 125.111C100.225 126.091 98.8892 127.717 98.2726 129.653C97.977 130.58 97.8907 131.56 98.0197 132.524C98.0943 132.992 98.2338 133.447 98.4343 133.877C98.6395 134.296 98.8987 134.686 99.2054 135.038C99.8307 135.709 100.599 136.231 101.453 136.565C102.282 136.893 103.158 137.086 104.048 137.137C105.748 137.241 107.436 136.806 108.874 135.893C109.538 135.486 110.098 134.928 110.508 134.266C110.917 133.603 111.166 132.853 111.233 132.076C111.291 130.651 110.907 129.242 110.134 128.044C109.463 126.962 108.553 126.049 107.473 125.376C106.537 124.783 105.477 124.416 104.376 124.302C103.45 124.214 102.516 124.33 101.639 124.642C100.412 125.057 99.3408 125.839 98.5711 126.882C98.3726 127.153 98.2005 127.442 98.057 127.745C97.916 127.936 97.8621 128.039 97.8621 128.039Z" fill="#FEE675"/>
<path d="M109.092 139.494C109.13 139.539 105.842 142.352 101.746 145.779C97.6494 149.206 94.2828 151.94 94.258 151.894C94.2331 151.848 97.5084 149.036 101.605 145.613C105.701 142.19 109.055 139.448 109.092 139.494Z" fill="#263238"/>
<path d="M109.809 151.525C109.614 151.41 109.43 151.278 109.258 151.131L107.798 149.994C106.575 149.023 104.896 147.671 103.047 146.169C101.198 144.667 99.5353 143.298 98.3371 142.298L96.9233 141.103C96.7441 140.966 96.5776 140.814 96.4258 140.647C96.62 140.763 96.8044 140.895 96.9772 141.041L98.4325 142.178C99.6555 143.149 101.335 144.501 103.184 146.003C105.033 147.505 106.695 148.874 107.898 149.874L109.308 151.064C109.486 151.205 109.653 151.359 109.809 151.525Z" fill="#263238"/>
<path d="M143.705 139.656C143.739 139.701 140.596 142.112 136.678 145.049C132.76 147.986 129.559 150.305 129.522 150.255C129.484 150.206 132.631 147.799 136.549 144.862C140.467 141.925 143.668 139.606 143.705 139.656Z" fill="#263238"/>
<path d="M144.923 149.861C144.894 149.911 141.552 147.841 137.46 145.231C133.368 142.622 130.088 140.473 130.117 140.419C130.146 140.365 133.488 142.444 137.58 145.049C141.672 147.654 144.973 149.812 144.923 149.861Z" fill="#263238"/>
<path d="M109.631 170.011C109.586 169.97 112.853 166.543 116.924 162.365C120.996 158.188 124.333 154.823 124.387 154.865C124.441 154.906 121.166 158.333 117.094 162.515C113.023 166.697 109.673 170.053 109.631 170.011Z" fill="#FEE675"/>
<path d="M123.443 170.007C123.443 170.007 123.389 169.961 123.306 169.862L122.958 169.447C122.634 169.032 122.203 168.497 121.677 167.841C120.594 166.489 119.06 164.651 117.282 162.697C115.503 160.743 113.816 159.046 112.572 157.843L111.096 156.391L110.681 156.001C110.633 155.957 110.59 155.909 110.553 155.856C110.553 155.856 110.615 155.889 110.71 155.968L111.125 156.329C111.494 156.644 112.016 157.113 112.655 157.702C113.923 158.88 115.632 160.565 117.419 162.523C119.206 164.481 120.735 166.34 121.772 167.717C122.303 168.406 122.721 168.962 123.016 169.376L123.335 169.833C123.378 169.886 123.414 169.945 123.443 170.007Z" fill="#FEE675"/>
<path d="M89.5042 152.558C89.5042 152.558 89.6368 162.751 87.0663 168.853L71.3984 166.182C71.3984 166.182 76.1166 156.524 74.8314 151.155L89.5042 152.558Z" fill="#EBEBEB"/>
<path d="M89.4998 152.176C89.4998 152.176 87.5346 164.689 86.3323 168.422L70.7598 165.327C70.7598 165.327 73.9647 153.23 73.9232 149.861L89.4998 152.176Z" fill="#FEE675"/>
<path d="M75.502 155.47C75.502 155.528 77.8154 156.068 80.6969 156.674C83.5784 157.279 85.9209 157.723 85.9334 157.669C85.9458 157.615 83.6199 157.072 80.7384 156.466C77.8569 155.86 75.5144 155.412 75.502 155.47Z" fill="white"/>
<path d="M75.1035 158.121C75.1035 158.179 77.417 158.715 80.2985 159.325C83.18 159.934 85.5225 160.374 85.5349 160.32C85.5474 160.266 83.2214 159.723 80.34 159.117C77.4585 158.511 75.116 158.051 75.1035 158.121Z" fill="white"/>
<path d="M77.3926 161.121C77.6582 161.237 77.9365 161.32 78.2218 161.37C78.7566 161.499 79.4988 161.669 80.3155 161.843C81.1323 162.017 81.8827 162.158 82.4259 162.258C82.716 162.331 83.014 162.367 83.3131 162.366C83.0374 162.249 82.7495 162.165 82.4549 162.113C81.9242 161.98 81.1821 161.81 80.3611 161.64C79.5402 161.47 78.7939 161.32 78.255 161.225C77.9727 161.156 77.6832 161.121 77.3926 161.121Z" fill="white"/>
<path d="M163.629 123.936C163.629 123.936 165.234 133.868 163.609 140.203L147.92 139.867C147.92 139.867 151.129 129.752 149.093 124.695L163.629 123.936Z" fill="#EBEBEB"/>
<path d="M163.56 123.563C163.56 123.563 163.456 136.055 162.822 139.867L147.162 139.125C147.162 139.125 148.534 126.845 147.991 123.563H163.56Z" fill="#455A64"/>
<path d="M150.215 129.123C150.215 129.181 152.57 129.23 155.476 129.235C158.383 129.239 160.742 129.197 160.742 129.139C160.742 129.081 158.387 129.031 155.476 129.027C152.566 129.023 150.215 129.064 150.215 129.123Z" fill="white"/>
<path d="M150.363 131.765C150.363 131.823 152.718 131.873 155.625 131.877C158.531 131.881 160.89 131.84 160.89 131.782C160.89 131.724 158.535 131.674 155.625 131.67C152.714 131.666 150.363 131.707 150.363 131.765Z" fill="white"/>
<path d="M153.17 134.201C153.459 134.263 153.754 134.289 154.049 134.279C154.592 134.279 155.342 134.308 156.172 134.313C157.001 134.317 157.747 134.313 158.29 134.284C158.585 134.295 158.88 134.272 159.169 134.213C158.881 134.151 158.585 134.126 158.29 134.138C157.747 134.118 157.001 134.105 156.172 134.101C155.342 134.097 154.592 134.101 154.049 134.13C153.754 134.118 153.459 134.142 153.17 134.201Z" fill="white"/>
<path d="M166.947 95.2981C164.02 95.2981 161.072 93.4603 159.522 90.5687C158.014 87.6892 157.547 84.3772 158.199 81.1927C159.057 77.0441 161.802 73.6422 165.193 72.5553C168.075 71.6301 173.224 72.1404 175.654 76.2102C176.811 78.2004 177.386 80.4761 177.312 82.7775C177.301 82.941 177.258 83.1007 177.186 83.2475C177.113 83.3943 177.012 83.5254 176.889 83.6333C176.766 83.7412 176.623 83.8237 176.468 83.8762C176.313 83.9286 176.149 83.95 175.985 83.9392C175.656 83.9171 175.348 83.7649 175.13 83.516C174.912 83.267 174.803 82.9417 174.825 82.6116C174.847 80.8148 174.386 79.0451 173.49 77.488C171.616 74.3558 167.507 74.418 165.923 74.9241C163.021 75.8534 161.163 78.994 160.604 81.6947C160.066 84.3094 160.449 87.0296 161.686 89.3946C162.909 91.6764 165.384 93.0952 167.577 92.7592C167.901 92.7141 168.23 92.7983 168.492 92.9937C168.754 93.189 168.929 93.4798 168.978 93.8031C169.028 94.1264 168.948 94.4562 168.757 94.7213C168.565 94.9863 168.277 95.1652 167.955 95.2193C167.621 95.271 167.284 95.2974 166.947 95.2981Z" fill="#263238"/>
<path d="M86.6473 95.2981C83.7161 95.2981 80.7724 93.4603 79.2218 90.5687C77.713 87.6897 77.2443 84.3776 77.895 81.1927C78.6206 77.6913 81.075 73.6588 84.9433 72.5469C86.8084 72.0414 88.7857 72.1417 90.5902 72.8332L89.6947 75.1564C88.396 74.6626 86.9759 74.5858 85.6315 74.9366C82.7791 75.7663 80.9216 78.9276 80.3495 81.6947C79.8121 84.3094 80.1944 87.0296 81.4316 89.3946C82.6547 91.6805 85.134 93.0952 87.3231 92.7591L87.7004 95.2193C87.352 95.2732 86.9999 95.2996 86.6473 95.2981Z" fill="#263238"/>
<path d="M165.922 82.8398L164.777 89.1084H181.614L183.111 82.9021L165.922 82.8398Z" fill="#0E8778"/>
<path d="M90.9114 94.3067C90.9122 94.8372 90.7557 95.3559 90.4617 95.7972C90.1677 96.2386 89.7495 96.5828 89.2599 96.7861C88.7703 96.9895 88.2315 97.0429 87.7115 96.9396C87.1916 96.8363 86.714 96.581 86.3392 96.2059C85.9643 95.8309 85.7092 95.353 85.606 94.8327C85.5027 94.3125 85.5561 93.7733 85.7594 93.2834C85.9626 92.7935 86.3065 92.375 86.7476 92.0808C87.1887 91.7866 87.7071 91.63 88.2372 91.6309C88.9461 91.632 89.6256 91.9142 90.1269 92.4158C90.6282 92.9174 90.9103 93.5974 90.9114 94.3067Z" fill="#263238"/>
<path d="M171.142 94.3067C171.143 94.8372 170.986 95.3559 170.692 95.7972C170.398 96.2386 169.98 96.5828 169.49 96.7861C169.001 96.9895 168.462 97.0429 167.942 96.9396C167.422 96.8363 166.944 96.581 166.57 96.2059C166.195 95.8309 165.94 95.353 165.836 94.8327C165.733 94.3125 165.787 93.7733 165.99 93.2834C166.193 92.7935 166.537 92.375 166.978 92.0808C167.419 91.7866 167.938 91.63 168.468 91.6309C169.177 91.632 169.856 91.9142 170.357 92.4158C170.859 92.9174 171.141 93.5974 171.142 94.3067Z" fill="#263238"/>
<path d="M126.958 42.4365L122.555 59.1473L107.355 60.7818V63.4785L128.712 64.2294L132.725 45.4816L126.958 42.4365Z" fill="#FFBE9D"/>
<path d="M133.363 64.6728C133.363 64.6728 109.614 63.5402 102.852 68.8214C96.0899 74.1026 99.3653 82.7733 99.3653 82.7733L137.583 82.6737L140.958 63.2871L133.363 64.6728Z" fill="#263238"/>
<path d="M137.405 77.4635C137.29 77.4664 137.175 77.4581 137.061 77.4386C136.837 77.4137 136.51 77.3805 136.087 77.3266C135.257 77.2229 134.014 77.0486 132.521 76.7956C128.602 76.1287 124.726 75.2324 120.912 74.1114C118.682 73.4518 116.571 72.788 114.623 72.3026C112.902 71.8571 111.143 71.5793 109.37 71.4729C108.173 71.4058 106.973 71.4754 105.792 71.6803C105.377 71.7301 105.058 71.8379 104.834 71.8753C104.723 71.9026 104.611 71.9234 104.498 71.9375C104.603 71.8921 104.713 71.8573 104.826 71.8338C105.137 71.7366 105.454 71.6577 105.775 71.5973C106.959 71.358 108.167 71.2647 109.374 71.3194C111.173 71.4051 112.959 71.6706 114.706 72.1118C116.667 72.5847 118.781 73.2485 121.003 73.9081C124.797 75.0195 128.645 75.9321 132.534 76.6421C134.03 76.9159 135.245 77.1109 136.087 77.2436L137.057 77.3971C137.175 77.4095 137.291 77.4317 137.405 77.4635Z" fill="#455A64"/>
<path d="M115.333 72.1736C114.673 71.6291 113.97 71.1394 113.231 70.7091C112.456 70.3464 111.653 70.0467 110.83 69.813C111.085 69.7907 111.343 69.8161 111.589 69.8877C112.195 70.0183 112.781 70.2304 113.33 70.5183C113.879 70.8077 114.386 71.1691 114.839 71.5928C115.038 71.7542 115.205 71.9511 115.333 72.1736Z" fill="#455A64"/>
<path d="M135.879 116.328L136.199 126.313L134.192 134.287C134.159 134.424 134.155 134.566 134.18 134.704C134.205 134.842 134.258 134.974 134.335 135.09C134.413 135.207 134.514 135.307 134.632 135.383C134.75 135.459 134.883 135.509 135.021 135.532C135.181 135.561 135.346 135.551 135.502 135.504C135.658 135.456 135.8 135.372 135.917 135.258C137.426 133.781 142.965 128.321 142.894 127.595C142.82 126.766 143.255 117.033 143.255 117.033L135.879 116.328Z" fill="#FEE675"/>
<g opacity="0.6">
<path d="M134.984 135.548L142.862 126.936V127.35C142.867 127.717 142.74 128.073 142.505 128.354C141.879 129.105 140.101 131.142 135.917 135.266C135.798 135.384 135.651 135.471 135.489 135.519C135.328 135.567 135.157 135.574 134.993 135.54L134.984 135.548Z" fill="white"/>
</g>
<g opacity="0.6">
<path d="M140.771 123.729C140.644 123.822 140.557 123.958 140.527 124.112C140.497 124.266 140.526 124.426 140.609 124.559C140.696 124.683 140.828 124.769 140.976 124.8C141.125 124.831 141.28 124.804 141.409 124.725C141.54 124.628 141.629 124.487 141.659 124.328C141.69 124.169 141.66 124.004 141.575 123.866C141.472 123.744 141.326 123.668 141.167 123.652C141.008 123.637 140.85 123.684 140.725 123.783" fill="white"/>
</g>
<path d="M137.227 131.159C137.169 131.188 136.937 130.67 136.344 130.392C135.977 130.247 135.585 130.177 135.191 130.184C135.191 130.159 135.307 130.08 135.54 130.043C135.847 130.006 136.159 130.057 136.438 130.192C136.718 130.326 136.953 130.538 137.115 130.802C137.231 131.006 137.248 131.151 137.227 131.159Z" fill="#263238"/>
<path d="M136.526 132.508C136.239 132.351 135.943 132.212 135.639 132.093C135.315 132.036 134.988 131.997 134.66 131.977C134.813 131.879 134.986 131.819 135.167 131.802C135.347 131.785 135.529 131.813 135.697 131.881C136.285 132.039 136.576 132.479 136.526 132.508Z" fill="#263238"/>
<path d="M138.534 129.425C138.11 129.146 137.667 128.897 137.207 128.683C136.721 128.534 136.225 128.423 135.723 128.351C136.245 128.241 136.787 128.284 137.286 128.475C137.784 128.665 138.217 128.995 138.534 129.425Z" fill="#263238"/>
<path d="M138.69 126.388C138.665 126.451 138.109 126.222 137.392 126.206C136.675 126.189 136.107 126.364 136.082 126.301C136.484 126.079 136.939 125.97 137.398 125.986C137.857 126.001 138.303 126.14 138.69 126.388Z" fill="#263238"/>
<path d="M138.67 123.455C138.233 123.318 137.78 123.241 137.322 123.227C136.869 123.28 136.425 123.396 136.004 123.572C136.004 123.551 136.095 123.422 136.323 123.289C136.628 123.117 136.97 123.019 137.32 123.004C137.67 122.989 138.019 123.057 138.338 123.202C138.566 123.314 138.686 123.431 138.67 123.455Z" fill="#263238"/>
<path d="M137.335 122.667C137.309 122.542 137.309 122.414 137.335 122.289C137.366 121.943 137.466 121.605 137.629 121.298C137.726 121.061 137.9 120.864 138.123 120.738C138.2 120.703 138.286 120.693 138.369 120.709C138.452 120.724 138.528 120.765 138.587 120.825C138.694 120.95 138.751 121.109 138.749 121.273C138.729 121.607 138.595 121.925 138.368 122.171C138.141 122.418 137.836 122.578 137.505 122.625C137.174 122.662 136.84 122.6 136.545 122.446C136.249 122.293 136.006 122.055 135.847 121.763C135.806 121.689 135.782 121.607 135.777 121.524C135.771 121.44 135.784 121.356 135.813 121.277C135.852 121.203 135.913 121.142 135.987 121.103C136.061 121.064 136.145 121.048 136.228 121.057C136.474 121.11 136.703 121.226 136.891 121.393C137.163 121.609 137.396 121.87 137.58 122.165C137.653 122.269 137.706 122.386 137.737 122.509C137.474 122.134 137.157 121.8 136.796 121.518C136.628 121.38 136.429 121.284 136.216 121.24C136.17 121.232 136.122 121.239 136.08 121.26C136.039 121.281 136.005 121.314 135.983 121.356C135.969 121.409 135.965 121.465 135.972 121.52C135.979 121.575 135.997 121.628 136.025 121.675C136.17 121.923 136.383 122.123 136.639 122.252C136.895 122.382 137.183 122.435 137.468 122.406C137.75 122.369 138.012 122.237 138.209 122.031C138.406 121.825 138.526 121.557 138.55 121.273C138.555 121.159 138.52 121.048 138.45 120.958C138.419 120.922 138.377 120.898 138.331 120.888C138.284 120.878 138.236 120.884 138.193 120.904C138.011 121.015 137.867 121.178 137.779 121.373C137.558 121.776 137.408 122.213 137.335 122.667Z" fill="#263238"/>
<path d="M140.936 63.2873C140.936 63.2873 130.667 82.7154 130.526 86.1048C130.385 89.4943 130.526 120.738 130.526 120.738H146.421C146.836 120.738 149.22 106.661 148.735 103.421C148.25 100.181 146.538 82.7652 146.538 82.7652H155.684C155.684 82.7652 158.192 80.081 158.101 76.675C158.047 74.7956 156.82 70.954 155.613 68.917C154.83 67.6102 149.809 60.769 149.809 60.769L140.936 63.2873Z" fill="#263238"/>
<path d="M140.25 64.6025C140.239 64.6414 140.223 64.6789 140.204 64.7145C140.167 64.7975 140.117 64.9012 140.055 65.0298L139.458 66.2412C139.188 66.7681 138.869 67.407 138.496 68.1496L137.899 69.3402L137.273 70.6968L134.192 77.372C133.608 78.6166 132.994 79.9483 132.356 81.3132L131.39 83.3876C131.077 84.1049 130.841 84.853 130.685 85.6195C130.527 86.3883 130.445 87.1705 130.44 87.9552C130.415 88.731 130.399 89.4985 130.386 90.2494C130.386 91.7595 130.357 93.2116 130.361 94.5972C130.361 97.3685 130.395 99.866 130.424 101.961C130.453 104.056 130.477 105.736 130.498 106.939C130.498 107.512 130.498 107.964 130.498 108.288C130.498 108.433 130.498 108.549 130.498 108.64C130.498 108.732 130.498 108.761 130.498 108.761C130.491 108.721 130.491 108.68 130.498 108.64C130.498 108.549 130.498 108.433 130.498 108.292C130.498 107.964 130.465 107.516 130.44 106.939C130.399 105.77 130.345 104.073 130.299 101.961C130.254 99.8494 130.204 97.3726 130.191 94.5972C130.191 93.2116 130.191 91.7554 130.191 90.2494C130.191 89.4944 130.216 88.7269 130.245 87.9469C130.249 87.1498 130.331 86.355 130.49 85.5739C130.65 84.793 130.892 84.031 131.211 83.3004L132.181 81.2261L134.031 77.2932L137.173 70.6346L137.812 69.2822C138.032 68.8673 138.226 68.4524 138.425 68.0998L139.416 66.208C139.686 65.6977 139.901 65.2995 140.051 65.0132C140.121 64.8887 140.179 64.7892 140.221 64.7062C140.262 64.6232 140.246 64.5983 140.25 64.6025Z" fill="#455A64"/>
<path d="M136.926 71.2194C136.596 70.4296 136.319 69.6188 136.096 68.7924C135.805 67.9878 135.568 67.1645 135.387 66.3281C135.774 67.095 136.079 67.9 136.299 68.7302C136.593 69.5362 136.803 70.3703 136.926 71.2194Z" fill="#455A64"/>
<path d="M148.77 102.811C148.743 102.741 148.726 102.667 148.72 102.591C148.701 102.423 148.672 102.211 148.633 101.957C148.558 101.372 148.463 100.575 148.343 99.6086C148.115 97.6006 147.808 94.875 147.468 91.8631C147.128 88.8511 146.85 86.0923 146.68 84.1051C146.601 83.1343 146.535 82.3378 146.485 81.7528C146.485 81.4914 146.452 81.2799 146.44 81.1098C146.434 81.0352 146.434 80.9603 146.44 80.8857C146.466 80.9563 146.481 81.0305 146.485 81.1056C146.506 81.2757 146.535 81.4873 146.568 81.7445C146.634 82.3295 146.726 83.1219 146.833 84.0926C147.053 86.1006 147.352 88.8304 147.663 91.8423C147.974 94.8542 148.268 97.5799 148.492 99.592C148.583 100.563 148.662 101.359 148.716 101.944C148.737 102.201 148.753 102.417 148.766 102.587C148.773 102.662 148.775 102.737 148.77 102.811Z" fill="#455A64"/>
<path d="M144.731 11.2552C144.486 9.59578 145.908 7.99855 147.55 7.80356C149.192 7.60857 150.846 8.63329 151.601 10.131C151.952 10.8841 152.144 11.7017 152.165 12.5325C152.187 13.3633 152.037 14.1897 151.725 14.96C151.31 16.0096 150.543 17.0716 149.428 17.1546C148.313 17.2376 147.459 16.3871 146.721 15.603" fill="#263238"/>
<path d="M133.06 19.4863C129.743 12.2137 137.62 8.55874 141.903 9.77014C145.933 10.911 147.654 12.919 148.317 15.6156C149.044 18.321 148.899 21.1869 147.902 23.805C147.38 25.0745 146.443 26.3606 145.083 26.5182" fill="#263238"/>
<path d="M144.475 13.8064C144.816 13.8418 145.131 14.0045 145.358 14.262C145.584 14.5196 145.706 14.8531 145.698 15.1962L144.922 33.7075C144.893 35.8938 141.705 37.1301 139.363 37.0804C137.004 37.0306 136.925 35.8689 136.875 33.7905C136.821 30.3181 136.821 29.0112 136.821 29.032C136.821 29.0527 133.836 28.5341 133.218 24.6386C132.907 22.7011 133.007 19.5233 133.168 16.9262C133.318 14.5905 134.864 11.7197 137.194 11.9478L144.475 13.8064Z" fill="#FFBE9D"/>
<path d="M134.693 19.1417C134.691 19.2723 134.74 19.3986 134.83 19.4933C134.92 19.588 135.044 19.6435 135.175 19.6478C135.238 19.6529 135.302 19.6451 135.363 19.625C135.424 19.6049 135.48 19.5728 135.528 19.5306C135.576 19.4884 135.615 19.437 135.642 19.3795C135.67 19.322 135.686 19.2594 135.689 19.1956C135.69 19.0653 135.641 18.9396 135.551 18.8452C135.461 18.7507 135.338 18.6949 135.208 18.6895C135.144 18.6844 135.08 18.6922 135.02 18.7123C134.959 18.7325 134.903 18.7646 134.855 18.8067C134.807 18.8489 134.768 18.9003 134.74 18.9578C134.712 19.0154 134.697 19.0779 134.693 19.1417Z" fill="#263238"/>
<path d="M133.867 18.5816C133.929 18.6439 134.31 18.3659 134.845 18.3659C135.38 18.3659 135.778 18.6356 135.836 18.5692C135.894 18.5028 135.803 18.424 135.629 18.2995C135.396 18.1387 135.119 18.0533 134.837 18.0547C134.558 18.052 134.285 18.1409 134.061 18.3078C133.896 18.4323 133.838 18.5526 133.867 18.5816Z" fill="#263238"/>
<path d="M139.945 19.1416C139.944 19.2693 139.991 19.3926 140.078 19.4867C140.164 19.5807 140.283 19.6383 140.41 19.6478C140.474 19.6529 140.538 19.6451 140.598 19.625C140.659 19.6048 140.715 19.5727 140.763 19.5305C140.811 19.4884 140.85 19.437 140.878 19.3794C140.905 19.3219 140.921 19.2594 140.924 19.1956C140.926 19.0652 140.876 18.9396 140.786 18.8451C140.696 18.7506 140.573 18.6948 140.443 18.6894C140.317 18.6838 140.194 18.7282 140.101 18.8129C140.008 18.8976 139.952 19.0158 139.945 19.1416Z" fill="#263238"/>
<path d="M139.167 18.6812C139.229 18.7434 139.606 18.4655 140.141 18.4655C140.676 18.4655 141.074 18.7352 141.132 18.6729C141.19 18.6107 141.099 18.5236 140.925 18.3991C140.692 18.2376 140.416 18.152 140.133 18.1543C139.854 18.1543 139.583 18.2429 139.357 18.4074C139.167 18.5319 139.121 18.6563 139.167 18.6812Z" fill="#263238"/>
<path d="M137.201 22.6683C136.918 22.5811 136.626 22.5281 136.331 22.5106C136.194 22.5106 136.061 22.4691 136.04 22.3779C136.028 22.2335 136.059 22.0886 136.132 21.963C136.26 21.6311 136.393 21.2826 136.546 20.9176C136.922 20.0318 137.227 19.1176 137.458 18.1836C137.009 19.0363 136.631 19.9243 136.327 20.8387L135.937 21.8925C135.851 22.0585 135.826 22.2493 135.866 22.4318C135.887 22.48 135.918 22.523 135.958 22.5575C135.997 22.5919 136.044 22.6171 136.094 22.6309C136.17 22.651 136.248 22.6622 136.327 22.6641C136.617 22.7017 136.911 22.7031 137.201 22.6683Z" fill="#263238"/>
<path d="M136.832 29.028C138.673 29.0615 140.486 28.5802 142.068 27.6382C142.068 27.6382 140.8 30.3182 136.903 29.9531L136.832 29.028Z" fill="#EB996E"/>
<path d="M137.431 23.9627C137.534 23.8348 137.667 23.735 137.819 23.6726C137.97 23.6103 138.135 23.5873 138.298 23.6059C138.417 23.6159 138.533 23.6501 138.638 23.7064C138.744 23.7628 138.837 23.8401 138.911 23.9336C138.983 24.0231 139.025 24.1323 139.032 24.2465C139.04 24.3608 139.012 24.4745 138.953 24.5725C138.867 24.6695 138.754 24.7384 138.628 24.7702C138.502 24.802 138.37 24.7953 138.248 24.7509C137.993 24.661 137.759 24.5198 137.56 24.336C137.5 24.2932 137.448 24.2397 137.406 24.1784C137.387 24.1488 137.377 24.1142 137.377 24.0788C137.377 24.0435 137.387 24.0089 137.406 23.9792" fill="#EB996E"/>
<path d="M138.785 23.0411C138.698 23.0411 138.693 23.6178 138.196 24.0326C137.698 24.4475 137.077 24.3811 137.072 24.4475C137.068 24.5139 137.209 24.5595 137.487 24.5678C137.829 24.5717 138.162 24.4558 138.428 24.2401C138.681 24.0321 138.844 23.7351 138.884 23.4103C138.888 23.1822 138.822 23.037 138.785 23.0411Z" fill="#263238"/>
<path d="M138.911 17.7395C138.964 17.8847 139.503 17.8141 140.134 17.893C140.764 17.9718 141.274 18.1377 141.357 18.0091C141.394 17.9469 141.303 17.81 141.1 17.6648C140.826 17.489 140.515 17.3809 140.192 17.3495C139.869 17.3092 139.542 17.3477 139.238 17.4615C139.006 17.5528 138.89 17.6689 138.911 17.7395Z" fill="#263238"/>
<path d="M134.068 17.022C134.163 17.1464 134.532 17.022 134.98 17.022C135.428 17.022 135.809 17.105 135.888 16.9763C135.926 16.9141 135.888 16.7897 135.702 16.6776C135.483 16.5339 135.225 16.4628 134.964 16.4744C134.702 16.4798 134.449 16.5652 134.238 16.7191C134.081 16.8394 134.027 16.9639 134.068 17.022Z" fill="#263238"/>
<path d="M139.138 10.6703C137.817 10.7377 136.534 11.1372 135.407 11.8319C134.775 12.1595 134.215 12.6083 133.756 13.1529C133.298 13.6975 132.952 14.327 132.737 15.0056C132.682 15.1467 132.657 15.2976 132.663 15.4488C132.669 15.6 132.705 15.7485 132.77 15.8851C132.893 16.0414 133.067 16.1497 133.262 16.1913C133.456 16.233 133.659 16.2054 133.836 16.1133C134.187 15.9221 134.486 15.6471 134.706 15.3126C134.794 15.6784 135.003 16.0035 135.3 16.2346C135.596 16.4658 135.962 16.5894 136.338 16.585C136.714 16.5807 137.077 16.4487 137.368 16.2108C137.659 15.9728 137.861 15.6429 137.94 15.2753C137.97 15.649 138.143 15.9969 138.422 16.2465C138.702 16.4961 139.067 16.6282 139.441 16.6153C139.815 16.5829 140.171 16.442 140.465 16.2098C140.76 15.9776 140.981 15.6643 141.1 15.3085C141.191 15.983 141.424 16.6306 141.784 17.2085C141.968 17.4954 142.236 17.7186 142.551 17.8477C142.866 17.9769 143.213 18.0057 143.546 17.9304C143.406 18.5039 143.415 19.1035 143.571 19.6728C143.778 20.2205 144.603 29.5923 145.159 29.4014C145.714 29.2106 145.693 19.6521 145.818 19.0962C146.094 18.0298 146.233 16.9327 146.232 15.8312C146.269 14.6964 145.902 13.5855 145.195 12.697C144.489 11.8085 143.49 11.2004 142.377 10.9814C141.265 10.7263 140.124 10.6216 138.985 10.6703" fill="#263238"/>
<path d="M146.941 27.7375C146.941 27.7375 146.903 27.7624 146.82 27.7914C146.704 27.8341 146.583 27.8634 146.46 27.8786C145.883 27.9518 145.298 27.8597 144.771 27.6129C144.245 27.3661 143.8 26.9748 143.487 26.4846C143.063 25.7461 142.884 24.8919 142.977 24.0452C143.039 23.1532 143.246 22.3401 143.342 21.5934C143.436 20.9304 143.494 20.2629 143.516 19.5937C143.516 19.0212 143.516 18.5607 143.516 18.2371C143.498 18.0716 143.498 17.9047 143.516 17.7393C143.565 17.9024 143.594 18.071 143.603 18.2412C143.648 18.6948 143.67 19.1503 143.669 19.6061C143.669 20.2816 143.626 20.9564 143.541 21.6265C143.45 22.3899 143.255 23.2072 143.193 24.0659C143.104 24.8698 143.266 25.6813 143.657 26.3892C143.998 26.9528 144.522 27.3819 145.141 27.6047C145.557 27.7636 146.003 27.8315 146.447 27.8039C146.766 27.7831 146.936 27.7168 146.941 27.7375Z" fill="#263238"/>
<path d="M137.766 10.1685C137.917 10.4525 137.987 10.7725 137.97 11.0936C137.984 11.8797 137.687 12.6396 137.143 13.2071C136.599 13.7746 135.853 14.1036 135.067 14.1221C134.748 14.1527 134.427 14.0953 134.139 13.9562C134.139 13.9188 134.495 14.0184 135.059 13.9562C135.796 13.9061 136.488 13.5837 137.001 13.0516C137.513 12.5195 137.81 11.8157 137.833 11.077C137.845 10.5252 137.729 10.1768 137.766 10.1685Z" fill="#455A64"/>
<path d="M138.338 14.7567C138.358 14.7567 138.309 15.0222 138.01 15.3126C137.812 15.491 137.58 15.6273 137.328 15.7136C137.075 15.7999 136.808 15.8342 136.542 15.8146C136.021 15.7681 135.519 15.5958 135.079 15.3126C134.743 15.1011 134.561 14.9393 134.577 14.8978C134.778 14.961 134.97 15.0488 135.149 15.1591C135.587 15.3866 136.064 15.5275 136.555 15.574C137.042 15.6027 137.523 15.4555 137.911 15.1591C138.213 14.9683 138.313 14.7401 138.338 14.7567Z" fill="#455A64"/>
<path d="M147.73 13.5659C147.758 13.9231 147.732 14.2823 147.655 14.6321C147.538 15.4987 147.211 16.3233 146.702 17.0342C146.436 17.3867 146.101 17.6812 145.718 17.8995C145.334 18.1178 144.91 18.2553 144.471 18.3037C144.205 18.3277 143.936 18.3009 143.679 18.2248C143.501 18.1709 143.414 18.117 143.418 18.1045C143.76 18.1658 144.109 18.1811 144.455 18.1502C145.279 18.0162 146.021 17.5707 146.528 16.9056C147.013 16.2182 147.346 15.4344 147.502 14.6072C147.556 14.2557 147.633 13.908 147.73 13.5659Z" fill="#455A64"/>
<path d="M148.442 15.4536C148.48 15.5603 148.501 15.6723 148.504 15.7855C148.532 16.0875 148.539 16.3911 148.525 16.6941C148.503 17.7149 148.138 18.6986 147.488 19.4861C147.121 19.9191 146.644 20.2445 146.107 20.4278C145.667 20.5719 145.198 20.6005 144.743 20.5108C144.438 20.4525 144.149 20.331 143.893 20.154C143.719 20.0254 143.645 19.93 143.653 19.9217C143.993 20.1383 144.372 20.2875 144.768 20.3615C145.196 20.423 145.632 20.3817 146.041 20.2412C146.539 20.0573 146.981 19.7487 147.326 19.345C147.942 18.5867 148.308 17.6564 148.375 16.6816C148.442 15.9307 148.404 15.4578 148.442 15.4536Z" fill="#455A64"/>
<path d="M93.7926 65.5983L86.2676 82.8194H96.6285L104.008 65.4614L93.7926 65.5983Z" fill="#455A64"/>
<path d="M88.3192 47.282L96.8061 63.9845H123.573L122.491 61.8023L114.738 61.5699L108.415 47.4894C108.223 47.0605 107.911 46.6963 107.517 46.4408C107.122 46.1854 106.662 46.0496 106.193 46.0498H89.0738C88.9269 46.0446 88.7814 46.0784 88.6519 46.148C88.5225 46.2175 88.4138 46.3202 88.337 46.4455C88.2603 46.5709 88.2182 46.7144 88.215 46.8613C88.2119 47.0083 88.2478 47.1535 88.3192 47.282Z" fill="#E0E0E0"/>
<path d="M101.724 54.7703C101.724 54.973 101.664 55.1711 101.551 55.3396C101.439 55.5081 101.279 55.6395 101.092 55.717C100.905 55.7946 100.699 55.8149 100.5 55.7753C100.301 55.7358 100.119 55.6382 99.9757 55.4949C99.8325 55.3516 99.735 55.169 99.6955 54.9702C99.6559 54.7715 99.6762 54.5654 99.7537 54.3782C99.8312 54.1909 99.9625 54.0309 100.131 53.9183C100.299 53.8057 100.497 53.7456 100.7 53.7456C100.971 53.7467 101.231 53.855 101.423 54.0469C101.615 54.2389 101.723 54.4989 101.724 54.7703Z" fill="#263238"/>
<path d="M126.426 64.0176H93.7051V65.6148H126.426V64.0176Z" fill="#455A64"/>
<path d="M116.348 64.8184L126.302 82.8359H131.062L132.098 80.7741L133.052 78.6043L126.427 65.6149L116.348 64.8184Z" fill="#455A64"/>
<path d="M133.644 33.9272C133.644 33.9272 127.865 35.9642 126.621 42.4361L132.724 45.4812L133.644 33.9272Z" fill="#FEE675"/>
<path d="M133.643 33.9274C133.643 33.9274 129.601 42.9963 129.754 47.9498C129.808 49.6715 130.936 54.1728 130.936 54.1728L133.038 65.316C133.038 65.316 149.129 63.138 149.485 63.138C149.842 63.138 148.946 53.9902 148.946 53.9902L151.571 36.4124C151.571 36.4124 150.368 34.0187 144.937 33.1889C141.682 32.6786 133.643 33.9274 133.643 33.9274Z" fill="#FEE675"/>
<path d="M132.118 39.1924C132.156 39.2131 131.733 39.8894 131.223 41.0593C130.927 41.7443 130.678 42.4484 130.477 43.1668C130.234 44.0471 130.058 44.9444 129.95 45.851C129.855 46.759 129.825 47.6727 129.863 48.5849C129.901 49.3297 129.988 50.0712 130.124 50.8044C130.356 52.049 130.622 52.8124 130.58 52.8248C130.493 52.6597 130.424 52.4859 130.373 52.3063C130.299 52.1008 130.235 51.8917 130.182 51.6798C130.116 51.4309 130.029 51.1529 129.971 50.8501C129.815 50.1116 129.713 49.3629 129.664 48.6098C129.614 47.6856 129.638 46.759 129.734 45.8385C129.845 44.9193 130.029 44.0106 130.286 43.1212C130.499 42.3981 130.766 41.6922 131.086 41.0095C131.202 40.7443 131.333 40.4854 131.476 40.2337C131.575 40.0386 131.684 39.8489 131.803 39.6653C131.892 39.4974 131.998 39.3389 132.118 39.1924Z" fill="#263238"/>
<path d="M135.602 33.8445L135.834 31.3553C135.859 31.0966 135.979 30.8564 136.17 30.6804C136.361 30.5044 136.611 30.405 136.87 30.4011L144.81 30.2808C145.051 30.278 145.284 30.3668 145.461 30.5293C145.639 30.6919 145.749 30.9159 145.768 31.1562L145.971 33.8404C145.306 35.2501 144.182 36.3913 142.782 37.0763C140.448 38.2089 136.82 38.2462 136.82 38.2462L135.602 33.8445Z" fill="#FEE675"/>
<path d="M137.68 30.4218C137.705 30.4218 137.588 30.5836 137.539 30.8367C137.494 31.2032 137.494 31.5738 137.539 31.9402C137.608 32.4745 137.608 33.0156 137.539 33.5499C137.396 33.0295 137.323 32.4923 137.323 31.9527C137.267 31.5685 137.284 31.1773 137.373 30.7994C137.51 30.5131 137.667 30.4011 137.68 30.4218Z" fill="#263238"/>
<path d="M139.582 33.5003C139.443 32.9922 139.376 32.4671 139.383 31.9404C139.352 31.5677 139.352 31.193 139.383 30.8203C139.424 30.5216 139.544 30.3681 139.569 30.4054C139.594 30.4428 139.532 30.5797 139.536 30.8535C139.54 31.1273 139.582 31.5173 139.582 31.9321C139.651 32.4525 139.651 32.9799 139.582 33.5003Z" fill="#263238"/>
<path d="M141.966 33.4338C141.794 32.9497 141.689 32.4444 141.655 31.932C141.552 31.4244 141.52 30.905 141.559 30.3887C141.733 30.8766 141.837 31.3862 141.87 31.9029C141.971 32.4065 142.003 32.9215 141.966 33.4338Z" fill="#263238"/>
<path d="M144.021 33.5916C143.832 33.0585 143.731 32.4979 143.723 31.9321C143.643 31.3681 143.657 30.7948 143.764 30.2354C143.873 30.782 143.931 31.3375 143.938 31.8948C144.019 32.4566 144.047 33.0247 144.021 33.5916Z" fill="#263238"/>
<g opacity="0.3">
<path d="M145.597 43.0962C145.278 45.8882 145.489 50.7007 146.476 53.335L151.111 45.6725L145.597 43.0962Z" fill="black"/>
</g>
<path d="M151.14 35.8359L151.165 35.8608C152.479 37.2414 153.441 38.9195 153.967 40.7521L154.821 44.6477L145.7 46.0582C145.198 44.4058 145.079 42.6607 145.352 40.9554C145.8 38.0181 151.14 35.8359 151.14 35.8359Z" fill="#FEE675"/>
<path d="M154.822 44.6476C154.763 44.6685 154.702 44.6838 154.64 44.6933L154.118 44.7887L152.165 45.1081L145.556 46.1121H145.44V45.9918C145.419 45.44 145.403 44.8675 145.39 44.2784C145.369 42.7475 145.39 41.2831 145.481 39.9514C145.545 38.758 145.91 37.6002 146.543 36.5868C146.968 35.9052 147.551 35.336 148.243 34.9273C148.429 34.8164 148.626 34.7247 148.831 34.6535C148.9 34.6221 148.972 34.6011 149.047 34.5913C149.047 34.5913 148.757 34.7033 148.284 35.0062C147.626 35.4279 147.074 35.9958 146.671 36.6656C146.071 37.6727 145.729 38.813 145.676 39.9846C145.581 41.3038 145.585 42.7641 145.61 44.295C145.61 44.8758 145.639 45.4525 145.651 46.0001L145.531 45.8964L152.165 44.9629L154.126 44.7099L154.657 44.6476C154.712 44.6405 154.767 44.6405 154.822 44.6476Z" fill="#263238"/>
<path d="M135.557 38.9266C135.092 38.6561 134.666 38.3255 134.288 37.9434C133.862 37.6145 133.483 37.2293 133.16 36.7983C134.05 37.3976 134.856 38.1134 135.557 38.9266Z" fill="#FAFAFA"/>
<path d="M134.324 43.7266C133.999 44.0608 133.622 44.3409 133.209 44.5563C132.829 44.8316 132.41 45.047 131.965 45.1952C132.669 44.59 133.461 44.0974 134.316 43.7349L134.324 43.7266Z" fill="#FAFAFA"/>
<path d="M139.411 44.9087C139.337 44.3191 139.337 43.7226 139.411 43.1331C139.414 42.5403 139.486 41.9499 139.627 41.374C139.699 41.9623 139.699 42.5572 139.627 43.1455C139.625 43.7397 139.553 44.3316 139.411 44.9087Z" fill="#FAFAFA"/>
<path d="M144.357 49.7089C143.945 49.3214 143.559 48.9055 143.205 48.4643C142.797 48.0757 142.416 47.6598 142.064 47.2197C142.562 47.5086 143.002 47.887 143.362 48.3357C143.772 48.7309 144.109 49.1959 144.357 49.7089Z" fill="#FAFAFA"/>
<path d="M145.055 39.6733C144.699 40.0437 144.293 40.3621 143.848 40.6192C143.441 40.9328 142.994 41.1896 142.518 41.3826C142.874 41.0116 143.282 40.6931 143.728 40.4367C144.135 40.1248 144.581 39.8681 145.055 39.6733Z" fill="#FAFAFA"/>
<path d="M140.585 36.043C140.191 36.426 139.748 36.7539 139.267 37.0179C138.825 37.3449 138.343 37.6127 137.832 37.8144C138.226 37.4308 138.669 37.1015 139.15 36.8354C139.594 36.5124 140.076 36.2462 140.585 36.043Z" fill="#FAFAFA"/>
<path d="M144.616 37.4871C144.344 37.0855 144.132 36.6468 143.985 36.1845C143.781 35.7449 143.641 35.2782 143.57 34.7988C143.845 35.2 144.058 35.6407 144.201 36.1056C144.408 36.5428 144.547 37.0085 144.616 37.4871Z" fill="#FAFAFA"/>
<path d="M150.157 39.3081C149.494 38.8481 148.918 38.2735 148.457 37.6113C148.808 37.8122 149.121 38.0734 149.382 38.383C149.694 38.6418 149.957 38.9553 150.157 39.3081Z" fill="#FAFAFA"/>
<path d="M147.873 43.3534C147.741 42.9436 147.681 42.5142 147.695 42.0839C147.633 41.6591 147.646 41.2267 147.732 40.8062C147.923 41.6412 147.971 42.5025 147.873 43.3534Z" fill="#FAFAFA"/>
<path d="M152.481 42.5152C151.999 42.5921 151.506 42.5752 151.03 42.4654C150.544 42.4257 150.07 42.2948 149.633 42.0796C150.115 42.0847 150.594 42.1431 151.063 42.2538C151.544 42.2902 152.019 42.3778 152.481 42.5152Z" fill="#FAFAFA"/>
<path d="M133.906 50.8747C133.568 50.4063 133.289 49.8976 133.076 49.3604C132.798 48.8534 132.584 48.3142 132.438 47.7549C132.776 48.2233 133.055 48.7319 133.267 49.2691C133.546 49.7757 133.761 50.315 133.906 50.8747Z" fill="#FAFAFA"/>
<path d="M139.997 57.4211C139.607 57.0668 139.268 56.6606 138.989 56.2138C138.656 55.8063 138.378 55.3572 138.16 54.8779C138.551 55.2325 138.891 55.6387 139.172 56.0852C139.506 56.4907 139.784 56.9402 139.997 57.4211Z" fill="#FAFAFA"/>
<path d="M145.029 54.6748C144.602 54.9532 144.139 55.171 143.653 55.322C143.191 55.5397 142.701 55.6893 142.197 55.7659C143.084 55.2684 144.038 54.901 145.029 54.6748Z" fill="#FAFAFA"/>
<path d="M132.629 59.9771C132.828 59.1944 133.164 58.4529 133.62 57.7866C133.55 58.1883 133.41 58.5745 133.206 58.9275C133.076 59.3085 132.881 59.6638 132.629 59.9771Z" fill="#FAFAFA"/>
<path d="M128.727 41.2291C128.487 40.9252 128.343 40.557 128.312 40.1712C128.215 39.7972 128.232 39.4025 128.362 39.0386C128.448 39.3985 128.503 39.7648 128.528 40.1338C128.624 40.4929 128.691 40.8592 128.727 41.2291Z" fill="#FAFAFA"/>
<path d="M135.657 55.778C135.214 55.6613 134.794 55.4721 134.413 55.2179C134 55.0303 133.619 54.7782 133.285 54.4712C133.727 54.5898 134.147 54.7789 134.529 55.0313C134.94 55.2219 135.32 55.4737 135.657 55.778Z" fill="#FAFAFA"/>
<path d="M139.657 48.8672C138.977 49.6819 138.188 50.3982 137.311 50.9954C137.625 50.566 137.996 50.1809 138.413 49.8504C138.781 49.4675 139.2 49.1367 139.657 48.8672Z" fill="#FAFAFA"/>
<g opacity="0.3">
<path d="M137.207 48.7383C137.408 50.1845 138.053 51.5326 139.052 52.5965C140.089 53.6088 141.693 54.1191 143.041 53.5922C143.188 53.5517 143.323 53.4762 143.435 53.3722C143.547 53.2682 143.632 53.1387 143.683 52.9948C143.706 52.8179 143.667 52.6385 143.572 52.4872C143.478 52.336 143.334 52.2221 143.165 52.1651C142.829 52.057 142.477 52.0065 142.124 52.0157C141.119 51.9497 140.147 51.6277 139.301 51.0802C138.455 50.5328 137.763 49.778 137.29 48.8876" fill="black"/>
</g>
<path d="M142.595 52.0822C142.595 52.0822 142.5 52.1154 142.317 52.1319C142.061 52.1579 141.803 52.1579 141.546 52.1319C141.165 52.0872 140.791 51.9981 140.431 51.8664C139.542 51.5466 138.753 50.9987 138.142 50.2775C137.894 49.9852 137.682 49.665 137.508 49.3233C137.386 49.0956 137.29 48.8549 137.222 48.6056C137.189 48.5166 137.17 48.4227 137.168 48.3276C137.209 48.3276 137.321 48.701 137.641 49.2486C137.827 49.5681 138.045 49.8683 138.292 50.1447C138.596 50.481 138.937 50.7829 139.307 51.045C139.681 51.2987 140.082 51.5115 140.501 51.6797C140.846 51.8152 141.203 51.9152 141.567 51.9784C142.193 52.0697 142.595 52.0407 142.595 52.0822Z" fill="#263238"/>
<path d="M119.772 58.7696L125.776 58.0685L130.009 60.8439L146.178 56.9608L146.56 45.8756L153.745 44.9297V58.3506C153.705 59.9799 153.02 61.5268 151.842 62.6521C150.664 63.7774 149.088 64.3893 147.459 64.3537L123.761 63.694L122.753 61.6778L117.666 61.5243L119.772 58.7696Z" fill="#FFBE9D"/>
<path d="M145.986 56.9399C145.887 56.9796 145.784 57.0115 145.68 57.0354L144.801 57.2635L141.554 58.0684L130.824 60.6696L129.825 60.9102H129.784H129.751L125.522 58.1265H125.58L119.572 58.8234L119.613 58.7985L118.021 60.8189L117.607 61.35C117.561 61.4136 117.508 61.472 117.449 61.5242C117.488 61.4565 117.531 61.3913 117.578 61.3292L117.992 60.7816L119.535 58.7322H119.56L125.559 57.9812H125.592H125.617L129.854 60.7525H129.78L130.779 60.5119L141.521 57.9647L144.784 57.2138L145.671 57.0188C145.774 56.9843 145.879 56.9579 145.986 56.9399Z" fill="#EB996E"/>
<path d="M123.052 60.4912C122.277 60.5819 121.497 60.6124 120.718 60.5825H120.303L120.361 60.5617C119.892 60.9931 119.386 61.3819 118.848 61.7233C119.275 61.2512 119.741 60.8155 120.241 60.4207L120.266 60.3958H120.726C121.502 60.3638 122.28 60.3957 123.052 60.4912Z" fill="#EB996E"/>
<path d="M148.967 58.753C148.658 58.265 148.256 57.8422 147.785 57.5084C147.285 57.2257 146.734 57.0452 146.164 56.9774C146.332 56.9192 146.512 56.9049 146.686 56.9359C147.11 56.9806 147.517 57.1226 147.877 57.3507C148.236 57.5788 148.538 57.8869 148.759 58.251C148.871 58.3972 148.943 58.5704 148.967 58.753Z" fill="#EB996E"/>
<path d="M45.2806 147.376H18.207V151.098H45.2806V147.376Z" fill="#263238"/>
<path d="M45.3269 151.147H18.1621V147.331H45.3269V151.147ZM18.2533 151.052H45.2357V147.422H18.2533V151.052Z" fill="#263238"/>
<path d="M20.7188 149.861L24.6119 169.099H39.0318L42.8005 151.102L20.7188 149.861Z" fill="#263238"/>
<path d="M20.7188 167.277L22.7959 170.14H40.3212L42.8005 167.277H20.7188Z" fill="#455A64"/>
<path d="M30.7295 150.422C30.6756 150.422 30.6092 141.51 30.576 130.508C30.5429 119.506 30.576 110.595 30.6175 110.595C30.659 110.595 30.7378 119.506 30.771 130.508C30.8042 141.51 30.7835 150.422 30.7295 150.422Z" fill="#263238"/>
<path d="M36.7613 128.119C36.7432 128.19 36.7182 128.26 36.6866 128.326C36.6245 128.48 36.5415 128.67 36.4462 128.903C36.3923 129.031 36.3342 129.168 36.2679 129.318C36.2016 129.467 36.1518 129.645 36.0896 129.824L35.8782 130.405C35.8077 130.612 35.7496 130.819 35.6792 131.068C35.3575 132.158 35.1041 133.266 34.9204 134.387C34.7124 135.762 34.574 137.147 34.5058 138.536C34.4079 141.063 34.48 143.594 34.7214 146.111C34.8085 147.082 34.8956 147.862 34.9619 148.401C34.9868 148.654 35.0117 148.862 35.0282 149.024C35.0338 149.097 35.0338 149.17 35.0282 149.244C35.0021 149.174 34.9854 149.102 34.9785 149.028C34.9495 148.866 34.9163 148.663 34.8748 148.414C34.7878 147.875 34.6758 147.095 34.5722 146.128C34.2902 143.605 34.2001 141.064 34.3027 138.528C34.3642 137.131 34.5026 135.739 34.7173 134.358C34.909 133.235 35.1778 132.126 35.5216 131.039C35.5962 130.807 35.6584 130.583 35.7331 130.38L35.9569 129.799L36.156 129.297C36.2223 129.143 36.2886 129.011 36.3467 128.882L36.6245 128.318C36.6592 128.245 36.7054 128.177 36.7613 128.119Z" fill="#263238"/>
<path d="M36.0675 120.912C36.0445 121.012 36.0155 121.11 35.9804 121.207C35.9099 121.41 35.8146 121.688 35.6985 122.036L35.4912 122.634C35.4248 122.858 35.3502 123.098 35.2714 123.356C35.1139 123.87 34.9315 124.455 34.7698 125.115L34.4961 126.148C34.4132 126.509 34.3303 126.886 34.2432 127.272C34.0525 128.048 33.9157 128.89 33.7416 129.761C33.443 131.528 33.1818 133.495 32.9994 135.549C32.817 137.602 32.7548 139.589 32.7299 141.386C32.705 143.182 32.7299 144.8 32.8211 146.157C32.8419 146.837 32.8875 147.447 32.9206 147.986C32.9538 148.525 32.987 148.99 33.0201 149.368C33.0533 149.745 33.0699 150.023 33.0865 150.243C33.092 150.344 33.092 150.445 33.0865 150.546C33.0598 150.448 33.0432 150.348 33.0367 150.247C33.0119 150.027 32.9787 149.741 32.9331 149.376C32.8875 149.011 32.8419 148.546 32.8004 147.994C32.7589 147.443 32.705 146.845 32.6719 146.165C32.5807 144.804 32.5433 143.186 32.5392 141.386C32.5351 139.585 32.6221 137.606 32.7963 135.536C32.9704 133.466 33.2482 131.504 33.555 129.728C33.7333 128.844 33.8784 128.002 34.0732 127.239C34.1644 126.849 34.2557 126.471 34.3386 126.11L34.6247 125.081C34.7946 124.422 34.9895 123.837 35.1595 123.322C35.2424 123.065 35.3212 122.829 35.3917 122.605C35.4622 122.381 35.5451 122.19 35.6156 122.011L35.9307 121.182C35.966 121.087 36.0119 120.997 36.0675 120.912Z" fill="#263238"/>
<path d="M29.0148 151.998C29.0105 151.964 29.0105 151.929 29.0148 151.894C29.0148 151.815 29.0148 151.716 28.9899 151.587C28.9692 151.305 28.9443 150.911 28.9112 150.409C28.8448 149.368 28.7536 147.891 28.6375 146.065C28.4054 142.402 28.0654 137.353 27.4476 131.773C27.1325 128.985 26.7677 126.343 26.3862 123.945C26.1872 122.75 26.0048 121.613 25.7934 120.551C25.5819 119.489 25.3787 118.506 25.2129 117.606C25.0471 116.705 24.8356 115.901 24.6739 115.191C24.5122 114.482 24.3671 113.868 24.2593 113.37C24.1515 112.872 24.0479 112.499 23.9774 112.221C23.9525 112.1 23.9276 112.001 23.9111 111.922C23.9046 111.888 23.9046 111.853 23.9111 111.818C23.9281 111.85 23.9407 111.883 23.9484 111.918L24.0313 112.212C24.1101 112.486 24.2137 112.868 24.3505 113.353C24.4874 113.839 24.649 114.453 24.819 115.166C24.989 115.88 25.1963 116.681 25.3829 117.581C25.5695 118.481 25.7975 119.46 25.9882 120.522C26.1789 121.584 26.4028 122.721 26.6018 123.92C26.9916 126.318 27.3606 128.965 27.6756 131.748C28.2934 137.324 28.6127 142.39 28.8117 146.057C28.9112 147.895 28.9816 149.376 29.0231 150.405C29.0231 150.907 29.0563 151.301 29.0646 151.587C29.0646 151.712 29.0646 151.815 29.0646 151.894C29.0533 151.931 29.0365 151.966 29.0148 151.998Z" fill="#263238"/>
<path d="M30.5093 114.905C30.3891 113.66 29.1162 112.689 27.8475 112.677C27.213 112.705 26.5931 112.877 26.035 113.18C25.4768 113.484 24.995 113.91 24.6261 114.427C23.8963 115.469 23.3689 116.638 23.0713 117.875C22.2172 120.85 21.7529 123.974 22.1177 127.048C22.4826 130.122 23.7264 133.146 25.9321 135.316C26.2886 135.673 26.7613 136.025 27.2464 135.917C27.5089 135.841 27.7473 135.698 27.9388 135.503C30.0976 133.525 31.8086 131.108 32.9571 128.414C34.1055 125.72 34.6648 122.811 34.5973 119.883C34.5641 118.717 34.4107 117.497 33.7681 116.527C33.1254 115.556 31.6121 114.519 30.5134 114.909" fill="#86C3BB"/>
<path d="M21.0435 104.782L19.2607 108.018C19.2193 108.093 19.1654 108.18 19.0783 108.184C18.9912 108.189 18.9125 108.106 18.8627 108.027L14.1445 100.8L15.2308 100.182L21.0435 104.782Z" fill="#86C3BB"/>
<g opacity="0.2">
<path d="M21.0435 104.782L19.2607 108.018C19.2193 108.093 19.1654 108.18 19.0783 108.184C18.9912 108.189 18.9125 108.106 18.8627 108.027L14.1445 100.8L15.2308 100.182L21.0435 104.782Z" fill="black"/>
</g>
<path d="M30.6159 110.611L14.521 101.107C14.4294 101.071 14.3456 101.018 14.2745 100.951C14.2033 100.883 14.1462 100.802 14.1064 100.712C14.0442 100.476 14.2225 100.244 14.3925 100.065C15.5 98.9169 16.8415 98.0205 18.326 97.4371C19.8104 96.8537 21.403 96.5969 22.9955 96.6841C24.5873 96.7987 26.1274 97.2994 27.4825 98.1429C28.8376 98.9864 29.9672 100.147 30.7735 101.526C32.3241 104.301 32.378 107.977 30.5952 110.611" fill="#86C3BB"/>
<path d="M16.8594 98.0736C16.9282 98.0546 16.9995 98.0462 17.0708 98.0487C17.2076 98.0487 17.4149 98.0155 17.6803 98.0197C18.4276 98.0096 19.1742 98.0679 19.9109 98.1939C21.0083 98.3822 22.078 98.7069 23.095 99.1605C24.8503 99.9508 26.4092 101.12 27.6599 102.584C28.9107 104.048 29.8225 105.77 30.3298 107.628C30.5375 108.349 30.6764 109.088 30.7444 109.835C30.7776 110.096 30.7693 110.304 30.7776 110.445C30.7848 110.515 30.7848 110.586 30.7776 110.656C30.7776 110.656 30.7403 110.366 30.674 109.827C30.5821 109.09 30.431 108.361 30.222 107.649C29.5471 105.284 28.2232 103.156 26.4006 101.506C24.578 99.8559 22.3297 98.7502 19.9109 98.3142C19.1819 98.1756 18.4428 98.0965 17.701 98.0778C17.133 98.0819 16.8594 98.0902 16.8594 98.0736Z" fill="#263238"/>
<path d="M28.4358 104.052C28.1764 104.21 27.8977 104.335 27.6066 104.421C27.0925 104.625 26.3628 104.882 25.575 105.139C24.7873 105.396 24.041 105.596 23.502 105.728C23.216 105.816 22.9212 105.871 22.623 105.894C22.8883 105.766 23.1662 105.666 23.4523 105.596L25.5004 104.953L27.5444 104.293C27.8328 104.183 28.1314 104.103 28.4358 104.052Z" fill="#263238"/>
<path d="M25.9027 97.2402C26.0469 97.8277 26.1111 98.4319 26.0936 99.0366C26.141 99.6399 26.1075 100.247 25.994 100.841C25.9163 100.244 25.8857 99.6424 25.9027 99.0407C25.8553 98.4415 25.8553 97.8395 25.9027 97.2402Z" fill="#263238"/>
<path d="M14.3711 100.928C14.7477 100.755 15.1389 100.617 15.5403 100.514C16.27 100.285 17.2899 99.9991 18.4425 99.7253C19.5951 99.4514 20.615 99.244 21.3447 99.1113C21.7537 99.0198 22.1699 98.9643 22.5885 98.9453C22.1949 99.0719 21.7932 99.1717 21.3862 99.244C20.6399 99.41 19.6117 99.6589 18.484 99.9161C17.3562 100.173 16.3322 100.451 15.5817 100.642C15.185 100.764 14.7805 100.86 14.3711 100.928Z" fill="#263238"/>
<path d="M23.1944 111.91C21.8096 110.86 20.3461 110.665 18.6089 110.719C16.8714 110.83 15.17 111.265 13.5922 112.001C10.8765 113.187 8.32673 114.942 6.70563 117.423C5.08454 119.904 4.51653 123.19 5.73132 125.895C5.8269 126.178 6.02319 126.415 6.28274 126.563C6.58427 126.647 6.90577 126.622 7.19072 126.492C10.2795 125.484 13.3849 124.468 16.2249 122.891C19.065 121.315 21.6479 119.12 23.1695 116.253C23.5592 115.584 23.8102 114.844 23.9075 114.075C23.949 113.687 23.9073 113.294 23.785 112.922C23.6628 112.551 23.4628 112.21 23.1986 111.922" fill="#86C3BB"/>
<path d="M23.2186 111.586C23.1495 111.625 23.0757 111.656 22.9989 111.677L22.3521 111.901L21.8836 112.055C21.7136 112.117 21.5312 112.192 21.3363 112.27C20.9466 112.428 20.5071 112.586 20.0138 112.818L19.2592 113.162C18.9938 113.283 18.7326 113.432 18.4549 113.577C17.8951 113.851 17.3313 114.204 16.726 114.561C14.1405 116.164 11.8398 118.187 9.91818 120.547C9.50357 121.099 9.06824 121.617 8.72412 122.14C8.54584 122.397 8.36756 122.638 8.21001 122.883L7.79541 123.588C7.50518 124.032 7.28959 124.463 7.08229 124.833C6.98278 125.015 6.88328 125.185 6.80036 125.347C6.71744 125.509 6.6511 125.654 6.58891 125.791L6.2821 126.405C6.25321 126.479 6.21414 126.549 6.16602 126.612C6.18621 126.535 6.21399 126.46 6.24894 126.388L6.51843 125.758C6.58062 125.621 6.64696 125.471 6.71744 125.306C6.78792 125.14 6.89157 124.969 6.98693 124.783C7.18594 124.405 7.40153 123.953 7.67517 123.517C7.81614 123.289 7.9571 123.049 8.08977 122.8C8.22245 122.551 8.42146 122.31 8.59559 122.049C8.93557 121.518 9.35432 120.995 9.78136 120.435C10.7476 119.246 11.8068 118.137 12.9489 117.116C14.1037 116.112 15.3377 115.204 16.6389 114.399C17.2484 114.042 17.8205 113.693 18.3844 113.424C18.6663 113.283 18.9316 113.138 19.2136 113.009L19.9806 112.677C20.4657 112.449 20.9217 112.299 21.3198 112.15C21.5188 112.08 21.7012 112.009 21.8753 111.951L22.348 111.81L23.0072 111.623C23.0767 111.606 23.1473 111.593 23.2186 111.586Z" fill="#263238"/>
<path d="M12.4084 117.444C11.3061 117.864 10.1823 118.225 9.04181 118.527C7.91845 118.892 6.77502 119.193 5.61719 119.427C6.71948 119.007 7.84325 118.645 8.98377 118.344C10.1078 117.981 11.2511 117.68 12.4084 117.444Z" fill="#263238"/>
<path d="M12.2633 124.862C12.2067 124.515 12.1817 124.164 12.1886 123.812C12.1886 123.165 12.1886 122.265 12.1886 121.278C12.1886 120.29 12.2716 119.39 12.3255 118.743C12.334 118.391 12.3784 118.04 12.4583 117.697C12.4862 118.048 12.4862 118.4 12.4583 118.751C12.4334 119.46 12.4085 120.323 12.3795 121.282C12.3504 122.24 12.3338 123.103 12.3131 123.812C12.3286 124.163 12.3119 124.514 12.2633 124.862Z" fill="#263238"/>
<path d="M18.6349 121.634C18.581 121.634 18.4109 119.813 18.2574 117.56C18.1039 115.307 18.0168 113.478 18.0707 113.478C18.1247 113.478 18.2906 115.295 18.4482 117.547C18.6059 119.8 18.6889 121.63 18.6349 121.634Z" fill="#263238"/>
<path d="M10.7109 113.299C11.0684 113.254 11.4293 113.243 11.7889 113.266C12.4523 113.266 13.3727 113.291 14.3885 113.324C15.4042 113.357 16.3205 113.399 16.9839 113.436C17.3441 113.441 17.7033 113.476 18.0577 113.54C17.7002 113.585 17.3393 113.596 16.9797 113.573C16.3164 113.573 15.396 113.552 14.3802 113.515C13.3644 113.478 12.4481 113.44 11.7806 113.403C11.4218 113.399 11.0639 113.364 10.7109 113.299Z" fill="#263238"/>
<path d="M26.623 136.179C26.6045 136.106 26.5962 136.03 26.5981 135.955C26.5981 135.793 26.5981 135.582 26.5691 135.324C26.5442 134.773 26.54 133.98 26.5691 132.993C26.5981 132.006 26.652 130.84 26.7681 129.545C26.8842 128.251 27.0749 126.828 27.3361 125.347C27.5973 123.866 27.9207 122.476 28.2482 121.198C28.5758 119.921 28.9323 118.821 29.2557 117.879C29.5791 116.938 29.8527 116.22 30.0849 115.697C30.1844 115.457 30.2632 115.282 30.3295 115.112C30.3549 115.043 30.3869 114.976 30.4249 114.913C30.4158 114.987 30.3948 115.058 30.3627 115.125L30.1264 115.735C29.9356 116.249 29.6744 116.979 29.3718 117.933C29.0691 118.887 28.7374 120.008 28.4099 121.252C28.0824 122.497 27.7756 123.899 27.5102 125.376C27.2449 126.853 27.0666 128.28 26.9339 129.554C26.8012 130.827 26.7266 132.01 26.6935 132.989C26.6603 133.968 26.6396 134.764 26.6396 135.316C26.6396 135.573 26.6396 135.781 26.6396 135.947C26.6395 136.024 26.6339 136.102 26.623 136.179Z" fill="#263238"/>
<path d="M27.4695 125.189C27.2813 125.447 27.0658 125.683 26.8268 125.895C26.4122 126.31 25.8194 126.866 25.1477 127.459C24.476 128.052 23.8417 128.562 23.3732 128.923C23.1336 129.132 22.8722 129.314 22.5938 129.467C22.8048 129.228 23.038 129.01 23.2903 128.815L25.0192 127.314L26.7356 125.795C26.9604 125.57 27.2062 125.368 27.4695 125.189Z" fill="#263238"/>
<path d="M32.5638 129.292C32.3117 128.995 32.0829 128.679 31.8797 128.346L30.2918 126.023L28.6665 123.725C28.4255 123.418 28.2079 123.093 28.0156 122.754C28.2962 123.025 28.5503 123.322 28.7743 123.642C29.2221 124.21 29.8191 125.007 30.4328 125.915C31.0464 126.824 31.6019 127.658 31.9792 128.272C32.2056 128.593 32.4013 128.934 32.5638 129.292Z" fill="#263238"/>
<path d="M29.8947 116.378C29.9237 116.424 28.2362 117.565 26.1176 118.925C23.999 120.286 22.2618 121.357 22.2328 121.311C22.2038 121.265 23.8912 120.124 26.014 118.764C28.1367 117.403 29.8698 116.337 29.8947 116.378Z" fill="#263238"/>
<path d="M34.6886 121.543C33.7952 120.798 32.9413 120.008 32.1305 119.174C31.2768 118.389 30.4671 117.558 29.7051 116.685C30.6017 117.427 31.4571 118.218 32.2673 119.053C33.1216 119.836 33.93 120.667 34.6886 121.543Z" fill="#263238"/>
<path d="M35.8691 121.431L37.3203 121.311C38.3522 121.226 39.3536 120.919 40.2556 120.41C40.6971 120.153 41.1541 119.923 41.6238 119.722C43.4191 119.004 45.4257 119.133 47.3578 119.033C50.5234 118.874 53.6249 118.081 56.4791 116.702C56.6505 116.626 56.795 116.5 56.8937 116.341C57.1922 115.797 56.6366 115.312 56.1598 115.017C53.7095 113.507 51.2177 111.98 48.4441 111.229C45.6704 110.479 42.5152 110.607 40.152 112.238C37.3741 114.154 36.3584 118.087 35.8899 121.431" fill="#86C3BB"/>
<path d="M56.9061 116.15C56.8226 116.115 56.7409 116.077 56.6615 116.033L55.9733 115.673C55.3763 115.357 54.518 114.893 53.4276 114.374C52.1647 113.75 50.8478 113.242 49.493 112.856C47.8363 112.379 46.1012 112.238 44.3893 112.441C42.6749 112.631 41.0559 113.327 39.7374 114.44C38.7076 115.398 37.8837 116.555 37.3161 117.842C36.8062 118.933 36.4869 119.863 36.2631 120.493L36.0019 121.228C35.9761 121.315 35.9429 121.399 35.9023 121.481C35.9143 121.39 35.9351 121.301 35.9645 121.215C36.0226 121.028 36.0972 120.78 36.1884 120.473C36.4651 119.566 36.7946 118.677 37.1752 117.809C37.7339 116.492 38.5614 115.307 39.6048 114.328C40.9417 113.176 42.5945 112.453 44.3478 112.254C46.0829 112.044 47.8425 112.185 49.5221 112.669C50.8845 113.069 52.2071 113.594 53.4732 114.237C54.5553 114.776 55.4053 115.258 55.994 115.594L56.6657 115.988C56.7523 116.031 56.8331 116.086 56.9061 116.15Z" fill="#263238"/>
<path d="M53.4191 118.037C53.3901 118.079 51.487 116.851 49.1735 115.291C46.8601 113.731 45.0068 112.428 45.0275 112.387C45.0482 112.345 46.9554 113.573 49.2689 115.133C51.5824 116.693 53.4481 117.992 53.4191 118.037Z" fill="#263238"/>
<path d="M51.5933 112.2C50.6251 112.505 49.6033 112.599 48.5957 112.478C49.0884 112.375 49.5893 112.317 50.0924 112.304C50.5888 112.226 51.0909 112.191 51.5933 112.2Z" fill="#263238"/>
<path d="M43.0748 110.673C42.712 111.532 42.2363 112.338 41.6602 113.071C41.8087 112.629 42.0181 112.211 42.2825 111.827C42.4905 111.407 42.7573 111.018 43.0748 110.673Z" fill="#263238"/>
<path d="M44.7749 119.157C44.4544 119.024 44.1487 118.857 43.8628 118.66C43.3114 118.328 42.5693 117.83 41.7898 117.262C41.0103 116.693 40.3014 116.141 39.7956 115.743C39.5124 115.543 39.2487 115.316 39.0078 115.067C39.3159 115.227 39.6075 115.418 39.8785 115.635L41.9059 117.108C42.6936 117.681 43.4192 118.183 43.9499 118.548C44.2421 118.726 44.5182 118.93 44.7749 119.157Z" fill="#263238"/>
<path d="M38.0027 127.608C36.618 127.239 34.9637 128.587 34.6859 129.994C34.4081 131.4 34.9305 132.836 35.5441 134.143C36.8646 137.044 38.8233 139.61 41.274 141.647C43.7458 143.676 46.83 144.809 50.0262 144.863C49.4416 142.141 50.1796 139.295 49.8562 136.528C49.5674 134.091 48.4608 131.824 46.7173 130.097C44.9739 128.371 42.6968 127.287 40.2582 127.023C39.3751 126.928 38.351 126.791 37.9986 127.608" fill="#86C3BB"/>
<path d="M50.0267 144.862C49.9572 144.839 49.8905 144.809 49.8277 144.771C49.6461 144.669 49.4728 144.552 49.3094 144.423C48.7287 143.917 48.2623 143.293 47.9412 142.593C47.7215 142.178 47.4727 141.697 47.2323 141.178C46.9918 140.66 46.7513 140.112 46.486 139.519C46.22 138.911 45.9139 138.322 45.5697 137.756C45.2005 137.152 44.7847 136.577 44.3259 136.038C43.3806 134.926 42.3607 133.964 41.4776 133.039C40.6791 132.234 39.9522 131.36 39.305 130.429C38.8715 129.798 38.5152 129.117 38.2437 128.401C38.1566 128.147 38.0903 127.944 38.0571 127.807C38.0341 127.739 38.0202 127.668 38.0156 127.596C38.0156 127.596 38.111 127.878 38.3141 128.376C38.6098 129.073 38.9796 129.736 39.417 130.355C40.0765 131.265 40.8086 132.121 41.6061 132.914C42.4933 133.827 43.5174 134.789 44.4751 135.914C44.9445 136.46 45.3701 137.043 45.748 137.656C46.0908 138.232 46.3968 138.829 46.6642 139.444L47.3939 141.104C47.6261 141.618 47.8666 142.091 48.0822 142.518C48.3848 143.212 48.8249 143.837 49.3758 144.356C49.7738 144.713 50.0474 144.846 50.0267 144.862Z" fill="#263238"/>
<path d="M42.8672 142.601C42.8755 142.286 42.9186 141.973 42.9957 141.668C43.1035 141.095 43.2818 140.311 43.5223 139.457C43.7627 138.602 44.0198 137.843 44.2271 137.299C44.3178 136.998 44.4445 136.708 44.6044 136.437C44.5484 136.745 44.4651 137.047 44.3556 137.341C44.1815 137.897 43.941 138.66 43.7088 139.511C43.4767 140.361 43.2942 141.133 43.1284 141.697C43.0713 142.006 42.9838 142.309 42.8672 142.601Z" fill="#263238"/>
<path d="M49.7755 135.918C49.4436 135.869 49.1163 135.793 48.797 135.69C48.2 135.536 47.3749 135.32 46.4587 135.113C45.5424 134.906 44.7049 134.748 44.0996 134.632C43.7676 134.589 43.4402 134.517 43.1211 134.416C43.4562 134.408 43.7912 134.435 44.1203 134.499C44.7339 134.578 45.5797 134.719 46.5001 134.914C47.4205 135.109 48.2456 135.358 48.8343 135.549C49.16 135.639 49.4754 135.762 49.7755 135.918Z" fill="#263238"/>
<path d="M37.7266 137.859C37.7422 137.494 37.7922 137.132 37.8758 136.776C38.0002 136.117 38.1909 135.204 38.4521 134.213C38.7133 133.221 38.987 132.329 39.2025 131.69C39.309 131.339 39.4478 130.999 39.6172 130.674C39.5569 131.033 39.4682 131.387 39.3518 131.732C39.1694 132.379 38.9123 133.271 38.6553 134.258C38.3982 135.246 38.1826 136.154 38.0292 136.806C37.9585 137.165 37.8572 137.517 37.7266 137.859Z" fill="#263238"/>
<path d="M46.5942 130.093C46.5942 130.143 44.857 130.006 42.7301 129.778C40.6032 129.55 38.8785 129.326 38.8867 129.276C40.1793 129.313 41.469 129.417 42.7508 129.587C44.0398 129.69 45.3225 129.859 46.5942 130.093Z" fill="#263238"/>
<path d="M45.3269 151.085C45.3269 151.139 39.2447 151.181 31.7445 151.181C24.2443 151.181 18.1621 151.139 18.1621 151.085C18.1621 151.031 24.2443 150.99 31.7445 150.99C39.2447 150.99 45.3269 151.031 45.3269 151.085Z" fill="#455A64"/>
<path d="M41.0977 158.914C41.0977 158.968 36.9973 159.013 31.9433 159.013C26.8893 159.013 22.793 158.968 22.793 158.914C22.793 158.86 26.8893 158.818 31.9433 158.818C36.9973 158.818 41.0977 158.881 41.0977 158.914Z" fill="#455A64"/>
<path d="M41.2537 160.034C41.2537 160.088 37.1574 160.129 32.1034 160.129C27.0494 160.129 22.9531 160.088 22.9531 160.034C22.9531 159.98 27.0494 159.938 32.1034 159.938C37.1574 159.938 41.2537 159.98 41.2537 160.034Z" fill="#455A64"/>
<path d="M41.253 157.993C41.253 158.047 37.0158 158.088 31.7877 158.088C26.5595 158.088 22.3223 158.047 22.3223 157.993C22.3223 157.939 26.5595 157.897 31.7877 157.897C37.0158 157.897 41.253 157.939 41.253 157.993Z" fill="#455A64"/>
</svg>
