<svg width="176" height="176" viewBox="0 0 176 176" fill="none" xmlns="http://www.w3.org/2000/svg">
<path d="M175.003 175.867C175.003 175.926 135.911 175.977 87.7253 175.977C39.5396 175.977 0.417969 175.926 0.417969 175.867C0.417969 175.807 39.5013 175.756 87.7253 175.756C135.949 175.756 175.003 175.803 175.003 175.867Z" fill="#263238"/>
<path d="M125.458 114.18C118.114 109.068 116.445 99.5171 116.739 90.95C116.785 89.5229 116.628 88.0148 117.309 86.7581C117.99 85.5013 119.574 84.6493 120.851 85.25C121.916 85.7484 122.375 86.9838 122.98 88.0063C123.773 89.3687 124.934 90.4792 126.331 91.2099C127.242 91.6828 128.366 91.9725 129.264 91.474C130.499 90.7967 130.643 89.0926 130.635 87.6697L130.584 79.7161C130.584 78.2975 130.584 76.8448 131.01 75.4943C131.435 74.1438 132.427 72.8914 133.777 72.5122C135.126 72.1331 136.804 72.9127 137.089 74.3057C137.142 74.8935 137.155 75.4842 137.127 76.0737C137.17 76.6658 137.443 77.3176 138.005 77.4838C138.566 77.6499 139.141 77.2452 139.563 76.832C141.032 75.3963 142.028 73.5432 142.969 71.7198C143.91 69.8965 144.804 67.9965 146.132 66.4287C147.46 64.861 149.304 63.6213 151.339 63.5063C153.374 63.3913 155.545 64.648 156.06 66.646C156.575 68.644 155.392 70.6761 154.115 72.2949C152.227 74.7028 150.002 76.825 147.507 78.5957C147.023 78.8697 146.639 79.2903 146.409 79.797C146.098 80.747 146.996 81.6885 147.933 81.9995C148.993 82.3531 150.142 82.2423 151.249 82.3744C152.356 82.5065 153.557 82.9921 153.978 84.0401C154.557 85.4928 153.344 87.0222 152.148 88.0148C149.753 90.0143 147.033 91.5865 144.105 92.6626C143.058 93.046 141.977 93.3783 141.125 94.1153C140.274 94.8523 139.771 96.1261 140.274 97.1315C140.776 98.1368 142.092 98.4521 143.186 98.2476C144.28 98.0431 145.263 97.451 146.307 97.059C148.256 96.322 150.781 96.4541 152.033 98.1454C152.854 99.253 152.927 100.799 152.51 102.124C152.032 103.427 151.299 104.622 150.355 105.639C147.26 109.359 143.233 112.191 138.686 113.844C134.156 115.416 129.958 115.842 125.458 114.193" fill="#86C3BB"/>
<path d="M153.987 64.6865C153.945 64.7339 153.899 64.778 153.85 64.8186L153.425 65.1977C153.054 65.5258 152.505 66.0114 151.815 66.6547C149.863 68.471 148.049 70.4304 146.387 72.5166C145.327 73.8373 144.229 75.3283 143.079 76.9514C141.93 78.5745 140.716 80.3254 139.507 82.2084C138.226 84.1668 137.055 86.1949 135.999 88.2834C135.45 89.3697 134.964 90.5071 134.462 91.6701C133.96 92.8332 133.466 94.0047 132.955 95.1933C131.015 99.6581 129.325 104.228 127.893 108.881C126.739 112.688 125.945 116.594 125.521 120.55C125.247 123.218 125.203 125.904 125.389 128.58C125.466 129.526 125.538 130.263 125.602 130.757C125.632 130.995 125.653 131.183 125.67 131.323C125.676 131.389 125.676 131.454 125.67 131.519C125.652 131.457 125.638 131.392 125.628 131.328C125.607 131.187 125.577 131.004 125.538 130.765C125.453 130.271 125.364 129.538 125.275 128.588C125.049 125.907 125.066 123.211 125.326 120.532C125.724 116.559 126.503 112.633 127.65 108.809C129.071 104.143 130.758 99.5629 132.704 95.091L134.215 91.5636C134.713 90.4049 135.207 89.2589 135.756 88.1555C136.822 86.0605 138.002 84.0253 139.29 82.0593C140.508 80.1763 141.734 78.4339 142.888 76.8108C144.041 75.1877 145.161 73.7009 146.23 72.3888C147.914 70.313 149.76 68.3742 151.752 66.5908C152.45 65.9603 153.029 65.4832 153.395 65.1679L153.821 64.8101C153.872 64.7637 153.928 64.7223 153.987 64.6865Z" fill="#263238"/>
<path d="M135.849 88.1555C135.78 87.9598 135.733 87.7569 135.709 87.5506C135.636 87.1586 135.547 86.5835 135.445 85.8763C135.245 84.462 135.019 82.4981 134.81 80.3382C134.602 78.1783 134.346 76.2144 134.125 74.8C134.018 74.0971 133.925 73.522 133.852 73.1343C133.804 72.9318 133.777 72.7248 133.771 72.5166C133.855 72.7074 133.915 72.9077 133.95 73.113C134.052 73.5007 134.176 74.063 134.308 74.7659C134.576 76.176 134.844 78.1357 135.07 80.3041C135.296 82.4725 135.496 84.381 135.628 85.8423C135.7 86.5068 135.76 87.0692 135.811 87.5208C135.847 87.7302 135.86 87.9432 135.849 88.1555Z" fill="#263238"/>
<path d="M154.112 84.7389C153.871 84.7919 153.626 84.8219 153.38 84.8283C152.911 84.8709 152.235 84.9263 151.4 85.0243C149.723 85.2032 147.419 85.5355 144.895 86.0084C142.37 86.4812 140.114 87.0393 138.487 87.4653C137.67 87.6741 137.014 87.8615 136.559 87.9893C136.328 88.0715 136.09 88.13 135.848 88.164C136.067 88.0542 136.295 87.963 136.529 87.8913C136.976 87.7337 137.623 87.5165 138.436 87.2822C140.058 86.805 142.323 86.2427 144.856 85.757C147.016 85.3412 149.196 85.037 151.387 84.8454C152.239 84.7729 152.911 84.7431 153.384 84.7346C153.626 84.7147 153.87 84.7162 154.112 84.7389Z" fill="#263238"/>
<path d="M127.889 108.472C127.837 108.405 127.796 108.33 127.766 108.25L127.455 107.59C127.183 107.015 126.817 106.171 126.378 105.123C125.497 103.027 124.369 100.096 123.168 96.8459C121.967 93.5955 120.873 90.656 120.034 88.5429C119.609 87.5205 119.285 86.677 119.038 86.0465C118.928 85.7739 118.842 85.5523 118.77 85.3692C118.732 85.291 118.707 85.2078 118.693 85.1221C118.746 85.1906 118.787 85.2668 118.817 85.3479C118.902 85.5225 119.004 85.744 119.128 86.0082C119.4 86.5833 119.766 87.4268 120.205 88.4748C121.086 90.5665 122.214 93.4975 123.415 96.7522C124.615 100.007 125.71 102.942 126.548 105.051L127.545 107.547C127.655 107.82 127.74 108.046 127.813 108.229C127.849 108.306 127.875 108.388 127.889 108.472Z" fill="#263238"/>
<path d="M152.169 100.642C152.094 100.686 152.014 100.721 151.93 100.744L151.224 100.979L148.627 101.831C146.43 102.542 143.407 103.565 140.073 104.693C136.74 105.822 133.687 106.824 131.49 107.484C130.384 107.816 129.489 108.076 128.864 108.246L128.144 108.434C127.982 108.476 127.893 108.493 127.889 108.481C127.965 108.438 128.047 108.405 128.131 108.383L128.838 108.148L131.435 107.296C133.632 106.585 136.65 105.563 139.988 104.434C143.326 103.305 146.374 102.304 148.571 101.643C149.674 101.311 150.572 101.047 151.194 100.881L151.913 100.693C151.996 100.665 152.082 100.648 152.169 100.642Z" fill="#263238"/>
<path d="M131.306 112.417C132.05 112.416 132.781 112.219 133.424 111.845C134.067 111.471 134.599 110.933 134.968 110.287C135.325 109.635 135.548 108.918 135.625 108.178C135.702 107.439 135.63 106.691 135.415 105.98C135.228 105.319 134.887 104.634 134.257 104.361C133.955 104.252 133.629 104.225 133.313 104.284C132.997 104.343 132.702 104.486 132.46 104.697C131.981 105.127 131.622 105.675 131.421 106.287C130.642 108.348 130.272 110.478 131.306 112.421" fill="#455A64"/>
<path d="M130.516 116.375C132.084 116.32 133.643 116.638 135.063 117.305C136.484 117.972 137.726 118.967 138.686 120.209C139.167 120.844 139.576 121.717 139.171 122.403C138.767 123.089 137.796 123.157 137.013 123.021C135.376 122.714 133.867 121.929 132.676 120.764C131.486 119.599 130.667 118.107 130.324 116.477" fill="#455A64"/>
<path d="M149.576 110.862C149.177 110.329 148.674 109.883 148.099 109.55C147.523 109.217 146.886 109.004 146.225 108.923C144.901 108.771 143.56 108.924 142.304 109.371C139.86 110.159 137.621 112.093 135.918 114.031C138.183 115.765 141.487 115.599 143.156 115.412C145.795 115.113 150.393 112.971 149.542 110.862" fill="#455A64"/>
<path d="M124.738 116.6C125.157 116.5 125.569 116.375 125.973 116.225C127.465 115.586 128.864 114.747 130.132 113.733C131.409 112.698 132.382 111.336 132.947 109.792C133.107 109.322 133.21 108.835 133.253 108.34C133.281 108.159 133.281 107.975 133.253 107.794C133.139 108.446 132.975 109.089 132.764 109.716C132.159 111.195 131.193 112.499 129.954 113.507C128.7 114.501 127.337 115.348 125.892 116.034" fill="#263238"/>
<path d="M124.683 116.609L127.046 116.085C129.043 115.638 131.802 115.028 134.854 114.381C137.907 113.733 140.683 113.214 142.692 112.83L145.072 112.37C145.362 112.328 145.647 112.26 145.924 112.166C145.626 112.175 145.33 112.206 145.038 112.259C144.472 112.336 143.654 112.464 142.645 112.63C140.623 112.962 137.843 113.482 134.786 114.1C131.729 114.717 128.97 115.378 126.986 115.872C125.994 116.119 125.194 116.328 124.641 116.481" fill="#263238"/>
<path d="M136.233 120.362C136.16 120.206 136.064 120.063 135.948 119.936C135.832 119.77 135.704 119.613 135.565 119.467C135.389 119.263 135.201 119.07 135.003 118.888C134.494 118.407 133.938 117.978 133.342 117.61C132.611 117.163 131.833 116.797 131.022 116.519C130.204 116.254 129.361 116.077 128.506 115.991C127.809 115.926 127.107 115.933 126.411 116.012C126.143 116.036 125.877 116.077 125.615 116.136C125.416 116.168 125.22 116.215 125.028 116.276C124.708 116.37 124.644 116.489 124.649 116.506C125.236 116.377 125.83 116.279 126.428 116.212C127.112 116.166 127.799 116.181 128.48 116.255C130.15 116.438 131.762 116.977 133.206 117.836C133.794 118.187 134.35 118.59 134.866 119.041C135.752 119.804 136.195 120.396 136.233 120.362Z" fill="#263238"/>
<path d="M116.762 140.03L69.279 139.809C67.9209 139.803 66.5774 139.529 65.3251 139.003C64.0727 138.478 62.9362 137.71 61.9802 136.745C61.0243 135.78 60.2677 134.635 59.7537 133.378C59.2397 132.12 58.9783 130.773 58.9845 129.414L59.4869 10.3053C59.493 8.94588 59.7667 7.60095 60.2923 6.34732C60.8178 5.09369 61.5851 3.95593 62.5501 2.999C63.5151 2.04207 64.6591 1.2847 65.9166 0.770153C67.1741 0.255601 68.5207 -0.00606132 69.8793 0.000106553L117.358 0.221633C120.1 0.234035 122.725 1.33558 124.655 3.28404C126.586 5.23251 127.664 7.86838 127.653 10.6121L127.15 129.721C127.145 131.08 126.873 132.426 126.348 133.68C125.823 134.934 125.056 136.072 124.091 137.03C123.127 137.987 121.983 138.745 120.725 139.26C119.468 139.775 118.121 140.037 116.762 140.03Z" fill="#263238"/>
<path d="M117.29 4.33279L108.086 4.29018C107.786 4.29517 107.489 4.35933 107.214 4.47899C106.939 4.59865 106.69 4.77145 106.482 4.98751C106.273 5.20357 106.109 5.45863 106 5.73811C105.89 6.01759 105.836 6.31598 105.842 6.61621V8.28618C105.848 8.58662 105.794 8.88522 105.684 9.16494C105.575 9.44466 105.411 9.70001 105.203 9.91641C104.994 10.1328 104.745 10.306 104.47 10.4261C104.195 10.5462 103.898 10.6109 103.598 10.6165L85.6531 10.5313C85.0471 10.5145 84.4724 10.2581 84.055 9.81805C83.6376 9.37805 83.4116 8.79041 83.4265 8.18394L83.4435 6.52249C83.4584 5.91602 83.2324 5.32838 82.815 4.88837C82.3976 4.44837 81.8229 4.19189 81.2169 4.17516H77.9812L69.9219 4.13682C68.9682 4.13177 68.0229 4.31536 67.1404 4.67706C66.2579 5.03875 65.4555 5.57141 64.7793 6.24441C64.1032 6.91741 63.5666 7.7175 63.2005 8.59867C62.8344 9.47985 62.6459 10.4247 62.6459 11.379L62.1563 127.591C62.1518 128.542 62.3348 129.485 62.6946 130.366C63.0545 131.247 63.5842 132.048 64.2536 132.723C64.923 133.399 65.7188 133.936 66.5957 134.304C67.4726 134.672 68.4133 134.863 69.3642 134.867L116.749 135.089C117.703 135.094 118.648 134.91 119.531 134.549C120.414 134.187 121.216 133.654 121.892 132.981C122.568 132.308 123.105 131.508 123.471 130.627C123.837 129.746 124.025 128.801 124.025 127.847L124.519 11.5878C124.521 10.6364 124.335 9.69393 123.973 8.81434C123.61 7.93476 123.078 7.13525 122.407 6.46151C121.736 5.78776 120.938 5.25299 120.06 4.88773C119.182 4.52248 118.241 4.3339 117.29 4.33279Z" fill="#FAFAFA"/>
<path d="M100.379 18.127H88.1562V20.372H100.379V18.127Z" fill="#455A64"/>
<path d="M73.7285 37.0376C73.8262 37.04 73.9233 37.0528 74.0182 37.0759C74.1059 37.0527 74.1959 37.0399 74.2866 37.0376H73.7285Z" fill="#455A64"/>
<path d="M77.0771 30.8776C76.8528 30.5672 76.5796 30.2953 76.2682 30.0725C75.6159 29.5909 74.8266 29.3311 74.016 29.3311C73.2054 29.3311 72.4161 29.5909 71.7638 30.0725C71.4511 30.2952 71.1765 30.5671 70.9506 30.8776C70.7277 31.1691 70.5524 31.494 70.4312 31.8404C70.2091 32.4414 70.1411 33.0884 70.2333 33.7225C70.3255 34.3565 70.5751 34.9574 70.9592 35.47C71.006 35.5339 71.0571 35.5893 71.1039 35.6447C71.2618 35.136 71.5639 34.684 71.9736 34.3437C72.3832 34.0035 72.8827 33.7894 73.4114 33.7276C73.0809 33.5831 72.8001 33.3445 72.6041 33.0415C72.408 32.7385 72.3053 32.3845 72.3088 32.0236C72.2921 31.7863 72.3244 31.548 72.4038 31.3237C72.4831 31.0994 72.6077 30.8939 72.7698 30.7198C72.932 30.5458 73.1282 30.407 73.3462 30.3121C73.5643 30.2172 73.7995 30.1683 74.0373 30.1683C74.2751 30.1683 74.5103 30.2172 74.7283 30.3121C74.9464 30.407 75.1426 30.5458 75.3047 30.7198C75.4669 30.8939 75.5915 31.0994 75.6708 31.3237C75.7501 31.548 75.7825 31.7863 75.7658 32.0236C75.7691 32.3839 75.6668 32.7374 75.4716 33.0402C75.2764 33.343 74.9968 33.582 74.6674 33.7276C75.1902 33.7906 75.6833 34.0053 76.0857 34.3452C76.4882 34.685 76.7825 35.1353 76.9323 35.6404L77.0728 35.47C77.4569 34.9574 77.7065 34.3565 77.7987 33.7225C77.8909 33.0884 77.8229 32.4414 77.6008 31.8404C77.4763 31.4946 77.2997 31.1699 77.0771 30.8776Z" fill="#FAFAFA"/>
<path d="M120.014 40.6243C120.014 40.6243 120.137 40.6243 120.367 40.5774C120.708 40.5069 121.023 40.3415 121.274 40.1003C121.476 39.9049 121.632 39.6671 121.73 39.4041C121.829 39.1411 121.868 38.8594 121.845 38.5794C121.845 37.902 121.845 37.1224 121.845 36.2491C121.845 34.4939 121.845 32.3511 121.823 29.8589C121.823 29.237 121.823 28.5809 121.823 27.9248C121.841 27.5942 121.767 27.2651 121.61 26.9736C121.453 26.6821 121.219 26.4394 120.934 26.2719C120.346 25.9013 119.58 26.0632 118.843 26.0291H116.553L67.5921 26.0632C67.313 26.0643 67.0382 26.1316 66.7903 26.2598C66.5423 26.3879 66.3283 26.5731 66.1658 26.8002C66.0039 27.0272 65.9001 27.2905 65.8636 27.567C65.8418 27.8504 65.8347 28.1348 65.8423 28.419V38.8094C65.8546 39.0725 65.9261 39.3294 66.0514 39.561C66.1767 39.7927 66.3526 39.993 66.566 40.1471C66.7768 40.3011 67.02 40.4046 67.277 40.4496C67.5454 40.4813 67.816 40.4912 68.086 40.4794H77.7333L99.74 40.505L114.573 40.5433L118.609 40.5646H119.656C119.895 40.5646 120.014 40.5646 120.014 40.5646H119.656H118.609L114.573 40.5902L99.74 40.6285L77.7333 40.6541H68.086C67.8017 40.6637 67.5171 40.6523 67.2345 40.62C66.791 40.5404 66.3877 40.3124 66.0907 39.9733C65.7936 39.6343 65.6205 39.2044 65.5996 38.7541C65.5996 36.4962 65.5996 34.2014 65.5996 31.8697V28.3508C65.5996 28.0526 65.5996 27.7672 65.5996 27.4477C65.6459 27.1405 65.7641 26.8485 65.9445 26.5957C66.1283 26.3335 66.3724 26.1193 66.6561 25.9711C66.9398 25.8228 67.255 25.7448 67.5751 25.7437L116.536 25.7777H119.942C120.315 25.7637 120.685 25.8584 121.006 26.0504C121.314 26.2327 121.566 26.4958 121.734 26.8112C121.903 27.1266 121.983 27.4823 121.964 27.8396C121.964 28.5042 121.964 29.1518 121.964 29.7737C121.964 32.2616 121.964 34.4045 121.943 36.1639C121.943 37.0372 121.943 37.8168 121.943 38.4942C121.962 38.7833 121.917 39.0731 121.811 39.3427C121.705 39.6123 121.541 39.855 121.329 40.0534C121.068 40.2948 120.743 40.4559 120.393 40.5178C120.272 40.5718 120.145 40.6077 120.014 40.6243Z" fill="#455A64"/>
<path d="M89.2096 29.6719H71.8477V30.4272H89.2096V29.6719Z" fill="#455A64"/>
<path d="M102.797 35.7148H71.8477V36.4702H102.797V35.7148Z" fill="#455A64"/>
<path d="M116.385 32.6938H71.8477V33.4492H116.385V32.6938Z" fill="#455A64"/>
<path d="M73.7285 73.7427C73.916 73.7682 74.0182 73.7682 74.0182 73.7853C74.1059 73.7621 74.1959 73.7492 74.2866 73.7469L73.7285 73.7427Z" fill="#455A64"/>
<path d="M77.0771 67.5871C76.8539 67.2757 76.5805 67.0036 76.2682 66.7819C75.6159 66.3004 74.8266 66.0405 74.016 66.0405C73.2054 66.0405 72.4161 66.3004 71.7638 66.7819C71.1541 67.2258 70.6902 67.8413 70.4312 68.5499C70.2091 69.1508 70.1411 69.7979 70.2333 70.432C70.3255 71.066 70.5751 71.6668 70.9592 72.1795L71.1039 72.3542C71.2604 71.8446 71.5621 71.3918 71.972 71.0513C72.3818 70.7108 72.8821 70.4973 73.4114 70.4371C73.0809 70.2926 72.8001 70.054 72.6041 69.751C72.408 69.448 72.3053 69.094 72.3088 68.7331C72.2921 68.4957 72.3244 68.2575 72.4038 68.0332C72.4831 67.8089 72.6077 67.6033 72.7698 67.4293C72.932 67.2553 73.1282 67.1165 73.3462 67.0216C73.5643 66.9267 73.7995 66.8777 74.0373 66.8777C74.2751 66.8777 74.5103 66.9267 74.7283 67.0216C74.9464 67.1165 75.1426 67.2553 75.3047 67.4293C75.4669 67.6033 75.5915 67.8089 75.6708 68.0332C75.7501 68.2575 75.7825 68.4957 75.7658 68.7331C75.7685 69.0933 75.666 69.4465 75.4709 69.7492C75.2757 70.052 74.9965 70.291 74.6674 70.4371C75.1899 70.4993 75.6828 70.7131 76.0853 71.0522C76.4878 71.3914 76.7822 71.841 76.9323 72.3457L77.0728 72.1795C77.4569 71.6668 77.7065 71.066 77.7987 70.432C77.8909 69.7979 77.8229 69.1508 77.6008 68.5499C77.4763 68.2041 77.2997 67.8794 77.0771 67.5871Z" fill="#FAFAFA"/>
<path d="M120.014 77.3339C120.014 77.3339 120.137 77.3339 120.367 77.287C120.708 77.2165 121.022 77.0511 121.274 76.8099C121.476 76.6141 121.632 76.3756 121.731 76.1117C121.83 75.8479 121.868 75.5654 121.844 75.2848C121.844 74.6117 121.844 73.8321 121.844 72.9545C121.844 71.2036 121.844 69.0565 121.823 66.5643C121.823 65.9423 121.823 65.2863 121.823 64.6345C121.84 64.3032 121.766 63.9736 121.609 63.6815C121.453 63.3893 121.219 63.1458 120.933 62.9773C120.346 62.6066 119.579 62.7685 118.843 62.7344H116.552L67.5917 62.7728C67.3125 62.7728 67.0373 62.8398 66.7892 62.968C66.5411 63.0962 66.3272 63.282 66.1655 63.5098C66.0031 63.735 65.8992 63.997 65.8632 64.2723C65.8416 64.5558 65.8345 64.8402 65.8419 65.1244V75.5361C65.8549 75.7991 65.9266 76.0557 66.0519 76.2873C66.1771 76.5188 66.3527 76.7192 66.5657 76.8738C66.7764 77.0278 67.0197 77.1313 67.2767 77.1763C67.5452 77.2058 67.8156 77.2158 68.0856 77.2061H77.733L99.7397 77.2316L114.573 77.2742H118.609H119.656C119.894 77.2742 120.014 77.2742 120.014 77.2742C120.014 77.2742 119.894 77.2742 119.656 77.2742H118.609L114.573 77.2955L99.7397 77.3381L77.733 77.3637H68.0856C67.8014 77.3748 67.5168 77.3649 67.2341 77.3339C66.8021 77.2563 66.4079 77.0379 66.113 76.7127C65.818 76.3875 65.6389 75.9738 65.6035 75.5361C65.6035 73.2782 65.6035 70.9835 65.6035 68.6517V65.1329C65.6035 64.8347 65.6035 64.5535 65.6035 64.2297C65.6465 63.9151 65.7648 63.6155 65.9484 63.3564C66.1327 63.0948 66.3769 62.8809 66.6605 62.7327C66.9441 62.5845 67.259 62.5063 67.579 62.5044L116.54 62.5385H119.945C120.217 62.5279 120.488 62.5743 120.741 62.6747C120.993 62.7751 121.222 62.9273 121.413 63.1215C121.603 63.3157 121.751 63.5475 121.847 63.8022C121.942 64.0569 121.983 64.3288 121.968 64.6004C121.968 65.265 121.968 65.9082 121.968 66.5302C121.968 69.0181 121.968 71.1652 121.946 72.9204C121.946 73.798 121.946 74.5776 121.946 75.2507C121.966 75.5398 121.921 75.8297 121.815 76.0993C121.709 76.369 121.545 76.6117 121.333 76.8099C121.072 77.0522 120.747 77.2148 120.397 77.2785C120.272 77.3155 120.143 77.3341 120.014 77.3339Z" fill="#455A64"/>
<path d="M89.2096 66.6841H71.8477V67.4394H89.2096V66.6841Z" fill="#455A64"/>
<path d="M102.797 71.9717H71.8477V73.4824H102.797V71.9717Z" fill="#455A64"/>
<path d="M116.385 69.7051H71.8477V70.4604H116.385V69.7051Z" fill="#455A64"/>
<path d="M65.8546 45.5069L65.823 56.8346C65.8205 57.7592 66.5675 58.5109 67.4915 58.5135L120.309 58.6611C121.233 58.6636 121.984 57.9161 121.987 56.9915L122.019 45.6639C122.021 44.7392 121.274 43.9876 120.35 43.985L67.5325 43.8374C66.6084 43.8348 65.8572 44.5823 65.8546 45.5069Z" fill="#FEE675"/>
<path d="M89.6838 47.73L72.0273 47.6914L72.0236 48.7309L89.6801 48.7695L89.6838 47.73Z" fill="#FAFAFA"/>
<path d="M102.939 53.6209L72.0078 53.5532L72.0041 54.5927L102.935 54.6604L102.939 53.6209Z" fill="#FAFAFA"/>
<path d="M116.844 50.6528L72.0176 50.5547L72.0139 51.5941L116.84 51.6922L116.844 50.6528Z" fill="#FAFAFA"/>
<path d="M90.4737 123.957C90.439 124.191 90.3213 124.406 90.1419 124.561C89.9625 124.715 89.7335 124.801 89.4966 124.801C89.2597 124.801 89.0307 124.715 88.8513 124.561C88.672 124.406 88.5542 124.191 88.5195 123.957C88.5542 123.722 88.672 123.508 88.8513 123.353C89.0307 123.198 89.2597 123.113 89.4966 123.113C89.7335 123.113 89.9625 123.198 90.1419 123.353C90.3213 123.508 90.439 123.722 90.4737 123.957Z" fill="#455A64"/>
<path d="M93.5031 123.969C93.5309 124.169 93.4971 124.372 93.4062 124.552C93.3153 124.732 93.1717 124.879 92.9946 124.975C92.8175 125.071 92.6154 125.11 92.4153 125.088C92.2152 125.066 92.0267 124.983 91.8751 124.85C91.7235 124.718 91.6159 124.542 91.5669 124.346C91.5178 124.151 91.5296 123.945 91.6006 123.757C91.6717 123.568 91.7986 123.406 91.9644 123.292C92.1301 123.178 92.3268 123.117 92.5282 123.117C92.7704 123.101 93.0091 123.182 93.192 123.341C93.3748 123.501 93.4867 123.727 93.5031 123.969Z" fill="#455A64"/>
<path d="M96.5305 123.983C96.5583 124.182 96.5243 124.386 96.4333 124.566C96.3422 124.746 96.1983 124.893 96.021 124.989C95.8436 125.085 95.6413 125.124 95.441 125.101C95.2408 125.078 95.0523 124.995 94.9008 124.862C94.7494 124.729 94.6421 124.553 94.5936 124.357C94.545 124.162 94.5574 123.956 94.6291 123.767C94.7008 123.579 94.8284 123.417 94.9948 123.303C95.1611 123.189 95.3583 123.129 95.5598 123.131C95.8013 123.116 96.0389 123.197 96.2208 123.356C96.4027 123.516 96.5141 123.741 96.5305 123.983Z" fill="#455A64"/>
<path d="M73.7285 92.7812C73.916 92.8068 74.0182 92.8068 74.0182 92.8238C74.0182 92.8409 74.1119 92.8238 74.2866 92.7855L73.7285 92.7812Z" fill="#455A64"/>
<path d="M77.0771 86.6126C76.8526 86.3035 76.5794 86.033 76.2682 85.8117C75.6159 85.3301 74.8266 85.0703 74.016 85.0703C73.2054 85.0703 72.4161 85.3301 71.7638 85.8117C71.4513 86.033 71.1767 86.3034 70.9506 86.6126C70.7277 86.9056 70.5524 87.2319 70.4312 87.5797C70.2091 88.1806 70.1411 88.8277 70.2333 89.4618C70.3255 90.0958 70.5751 90.6966 70.9592 91.2093C71.006 91.2689 71.0571 91.3243 71.1039 91.3797C71.2616 90.8712 71.5637 90.4196 71.9734 90.08C72.3832 89.7403 72.8828 89.5273 73.4114 89.4669C73.0775 89.321 72.7944 89.0791 72.5981 88.7719C72.4018 88.4647 72.3011 88.1061 72.3088 87.7416C72.2921 87.5042 72.3244 87.266 72.4038 87.0417C72.4831 86.8174 72.6077 86.6118 72.7698 86.4378C72.932 86.2637 73.1282 86.125 73.3462 86.0301C73.5643 85.9352 73.7995 85.8862 74.0373 85.8862C74.2751 85.8862 74.5103 85.9352 74.7283 86.0301C74.9464 86.125 75.1426 86.2637 75.3047 86.4378C75.4669 86.6118 75.5915 86.8174 75.6708 87.0417C75.7501 87.266 75.7825 87.5042 75.7658 87.7416C75.7685 88.1018 75.666 88.455 75.4709 88.7577C75.2757 89.0604 74.9965 89.2995 74.6674 89.4456C75.1899 89.5077 75.6828 89.7216 76.0853 90.0607C76.4878 90.3999 76.7822 90.8495 76.9323 91.3541L77.0728 91.188C77.4552 90.6745 77.7036 90.0737 77.7958 89.44C77.888 88.8063 77.8209 88.1597 77.6008 87.5584C77.4744 87.2187 77.2979 86.8999 77.0771 86.6126Z" fill="#FAFAFA"/>
<path d="M120.014 96.3724C120.014 96.3724 120.137 96.3724 120.367 96.3255C120.708 96.255 121.023 96.0896 121.274 95.8484C121.476 95.6526 121.633 95.4141 121.731 95.1503C121.83 94.8864 121.869 94.6039 121.845 94.3233C121.845 93.6459 121.845 92.8706 121.845 91.993C121.845 90.2378 121.845 88.095 121.823 85.6028C121.823 84.9808 121.823 84.3248 121.823 83.673C121.841 83.3418 121.767 83.0122 121.61 82.72C121.453 82.4278 121.219 82.1843 120.934 82.0158C120.346 81.6452 119.58 81.807 118.843 81.773H116.553L67.5921 81.8113C67.3126 81.8103 67.0371 81.8768 66.7888 82.0051C66.5405 82.1334 66.3268 82.3197 66.1658 82.5483C66.0028 82.7731 65.8989 83.0353 65.8636 83.3109C65.8419 83.5943 65.8348 83.8787 65.8423 84.1629V94.5789C65.8546 94.8426 65.926 95.1001 66.0513 95.3324C66.1766 95.5647 66.3525 95.7658 66.566 95.9208C66.7768 96.0748 67.02 96.1783 67.277 96.2233C67.5458 96.2507 67.816 96.2607 68.086 96.2531H77.7333L99.74 96.2787L114.573 96.3213L118.609 96.3426H119.656C119.895 96.3426 120.014 96.3426 120.014 96.3426H119.656H118.609H114.573L99.74 96.3809L77.7333 96.4107H68.086C67.8017 96.4225 67.5169 96.4111 67.2345 96.3767C66.9403 96.3289 66.6616 96.2121 66.4213 96.0358C66.1776 95.8608 65.9769 95.6324 65.8346 95.3682C65.6922 95.1039 65.6118 94.8107 65.5996 94.5107C65.5996 92.2387 65.5996 89.9439 65.5996 87.6264V84.1075C65.5996 83.8093 65.5996 83.5281 65.5996 83.2044C65.6426 82.8897 65.7609 82.5901 65.9445 82.331C66.1298 82.0704 66.3742 81.8573 66.6576 81.7092C66.941 81.5611 67.2554 81.4823 67.5751 81.479L116.536 81.5173H119.942C120.315 81.5073 120.683 81.6017 121.006 81.79C121.314 81.9733 121.565 82.2373 121.734 82.5534C121.903 82.8694 121.982 83.2256 121.964 83.5835C121.964 84.2481 121.964 84.8914 121.964 85.5133C121.964 88.0013 121.964 90.1441 121.943 91.9035C121.943 92.7811 121.943 93.5565 121.943 94.2338C121.962 94.5229 121.917 94.8128 121.811 95.0825C121.705 95.3521 121.541 95.5948 121.329 95.793C121.068 96.0353 120.743 96.1979 120.393 96.2616C120.273 96.3171 120.145 96.3544 120.014 96.3724Z" fill="#455A64"/>
<path d="M89.2096 85.5674H71.8477V86.3227H89.2096V85.5674Z" fill="#455A64"/>
<path d="M102.797 91.6104H71.8477V92.3657H102.797V91.6104Z" fill="#455A64"/>
<path d="M116.385 88.5889H71.8477V89.3442H116.385V88.5889Z" fill="#455A64"/>
<path d="M73.7285 111.44C73.916 111.462 74.0182 111.466 74.0182 111.483C74.0182 111.5 74.1119 111.462 74.2866 111.445L73.7285 111.44Z" fill="#455A64"/>
<path d="M77.0771 105.281C76.8516 104.971 76.5786 104.699 76.2682 104.475C75.6136 103.999 74.8252 103.743 74.016 103.743C73.2068 103.743 72.4184 103.999 71.7638 104.475C71.4521 104.699 71.1777 104.971 70.9506 105.281C70.7277 105.573 70.5524 105.9 70.4312 106.248C70.2091 106.849 70.1411 107.496 70.2333 108.13C70.3255 108.764 70.5751 109.365 70.9592 109.877C71.006 109.937 71.0571 109.992 71.1039 110.048C71.2616 109.539 71.5637 109.088 71.9734 108.748C72.3832 108.408 72.8828 108.195 73.4114 108.135C73.0812 107.99 72.8008 107.751 72.6048 107.448C72.4088 107.145 72.3059 106.792 72.3088 106.431C72.2921 106.193 72.3244 105.955 72.4038 105.731C72.4831 105.507 72.6077 105.301 72.7698 105.127C72.932 104.953 73.1282 104.814 73.3462 104.719C73.5643 104.624 73.7995 104.575 74.0373 104.575C74.2751 104.575 74.5103 104.624 74.7283 104.719C74.9464 104.814 75.1426 104.953 75.3047 105.127C75.4669 105.301 75.5915 105.507 75.6708 105.731C75.7501 105.955 75.7825 106.193 75.7658 106.431C75.7685 106.791 75.666 107.144 75.4709 107.447C75.2757 107.75 74.9965 107.989 74.6674 108.135C75.1901 108.196 75.6832 108.41 76.0858 108.749C76.4884 109.089 76.7827 109.538 76.9323 110.043C76.9792 109.988 77.026 109.937 77.0728 109.873C77.4318 109.397 77.6726 108.842 77.7753 108.254C77.8969 107.582 77.8366 106.889 77.6008 106.248C77.4764 105.9 77.2998 105.574 77.0771 105.281Z" fill="#FAFAFA"/>
<path d="M120.014 115.032C120.014 115.032 120.137 115.032 120.367 114.985C120.815 114.889 121.213 114.633 121.485 114.264C121.757 113.895 121.885 113.44 121.845 112.983C121.845 112.306 121.845 111.53 121.845 110.653C121.845 108.898 121.845 106.755 121.823 104.263C121.823 103.641 121.823 102.984 121.823 102.333C121.839 101.998 121.762 101.666 121.601 101.372C121.439 101.079 121.199 100.836 120.908 100.671C120.32 100.301 119.554 100.462 118.818 100.428H116.527L67.5666 100.462C67.287 100.463 67.0117 100.531 66.7636 100.66C66.5155 100.789 66.3018 100.975 66.1403 101.204C65.9773 101.429 65.8733 101.691 65.838 101.966C65.8163 102.25 65.8092 102.534 65.8167 102.818V113.239C65.8291 113.502 65.9006 113.759 66.0259 113.99C66.1512 114.222 66.3271 114.422 66.5405 114.576C66.7508 114.732 66.9941 114.837 67.2515 114.883C67.5202 114.911 67.7905 114.92 68.0604 114.909H77.7078L99.7145 114.934L114.547 114.972L118.583 114.998H119.631H119.988C119.988 114.998 119.869 114.998 119.631 114.998H118.583L114.547 115.024L99.7145 115.062L77.7078 115.087H68.086C67.8017 115.097 67.5171 115.086 67.2345 115.053C66.94 115.004 66.6614 114.886 66.4213 114.708C66.1777 114.534 65.977 114.307 65.8346 114.043C65.6922 113.779 65.6118 113.487 65.5996 113.187C65.5996 110.93 65.5996 108.635 65.5996 106.303V102.784C65.5996 102.486 65.5996 102.205 65.5996 101.881C65.6426 101.566 65.7609 101.267 65.9445 101.008C66.1291 100.746 66.3733 100.533 66.6569 100.385C66.9404 100.236 67.2552 100.158 67.5751 100.156L116.536 100.194H119.942C120.315 100.184 120.683 100.278 121.006 100.467C121.314 100.65 121.566 100.914 121.735 101.23C121.904 101.546 121.983 101.902 121.964 102.26C121.964 102.925 121.964 103.568 121.964 104.19C121.964 106.678 121.964 108.821 121.943 110.58C121.943 111.458 121.943 112.233 121.943 112.911C121.962 113.2 121.917 113.489 121.811 113.759C121.705 114.029 121.54 114.271 121.329 114.47C121.069 114.713 120.744 114.874 120.393 114.934C120.272 114.986 120.145 115.019 120.014 115.032Z" fill="#455A64"/>
<path d="M89.2096 104.451H71.8477V105.207H89.2096V104.451Z" fill="#455A64"/>
<path d="M102.797 109.738H71.8477V111.249H102.797V109.738Z" fill="#455A64"/>
<path d="M116.385 106.717H71.8477V108.227H116.385V106.717Z" fill="#455A64"/>
<path d="M120.181 47.8879C121.747 47.8879 123.017 46.6176 123.017 45.0506C123.017 43.4837 121.747 42.2134 120.181 42.2134C118.615 42.2134 117.346 43.4837 117.346 45.0506C117.346 46.6176 118.615 47.8879 120.181 47.8879Z" fill="#263238"/>
<path d="M118.789 44.8208L119.981 45.8688L121.569 44.2329" stroke="#FAFAFA" stroke-linecap="round" stroke-linejoin="round"/>
<path d="M41.6002 171.376L40.9062 175.411L47.1221 175.867L47.1434 171.9L41.6002 171.376Z" fill="#FEE675"/>
<path d="M44.4038 171.432C44.3869 172.664 44.2441 173.892 43.9777 175.095C43.9538 174.478 43.9909 173.86 44.0885 173.251C44.1328 172.635 44.2384 172.026 44.4038 171.432Z" fill="#263238"/>
<path d="M47.122 175.428C46.8212 175.433 46.5205 175.41 46.2237 175.36L44.0652 175.121C43.2137 175.023 42.4559 174.921 41.9067 174.827C41.6069 174.793 41.3115 174.727 41.0254 174.632C41.3262 174.621 41.6274 174.642 41.9237 174.695L44.0865 174.938C44.938 175.032 45.6915 175.138 46.2408 175.232C46.5405 175.267 46.8359 175.332 47.122 175.428Z" fill="#263238"/>
<path d="M64.037 173.579V169.958L57.2677 169.894L57.1953 175.189L57.6211 175.219C59.4901 175.338 67.1279 175.705 68.3796 175.338C69.7803 174.93 64.037 173.579 64.037 173.579Z" fill="#FEE675"/>
<g opacity="0.38">
<path d="M59.6615 175.16C59.5662 174.587 59.263 174.07 58.81 173.707C58.3657 173.345 57.8023 173.163 57.2305 173.196V175.091L59.6615 175.16Z" fill="black"/>
</g>
<g opacity="0.38">
<path d="M66.84 174.337C66.84 174.337 68.8495 174.938 68.5941 175.27C68.3386 175.603 60.6071 175.522 57.2012 175.189V175.036L66.2184 175.202C66.2184 175.202 66.4483 174.371 66.84 174.337Z" fill="black"/>
</g>
<path d="M57.1094 175.032H57.2243L57.5564 175.057L58.7868 175.121C59.8299 175.168 61.2646 175.215 62.8527 175.232C64.4407 175.249 65.8754 175.232 66.9185 175.211L68.1489 175.172H68.4853C68.5234 175.178 68.5621 175.178 68.6002 175.172H68.1489H66.9185C65.8754 175.172 64.4407 175.172 62.8527 175.172C61.2646 175.172 59.8299 175.117 58.7911 175.083L57.5607 175.045H57.2243L57.1094 175.032Z" fill="#263238"/>
<path d="M66.2308 175.309C66.2875 175.105 66.3675 174.91 66.4694 174.725C66.5948 174.554 66.7375 174.397 66.8954 174.256C66.6846 174.334 66.509 174.485 66.4012 174.682C66.2699 174.863 66.2093 175.086 66.2308 175.309Z" fill="#263238"/>
<path d="M64.2409 174.273C64.2409 174.273 64.3559 174.171 64.4582 174.018C64.531 173.93 64.5821 173.826 64.6073 173.715C64.6073 173.715 64.488 173.818 64.39 173.971C64.292 174.124 64.2239 174.261 64.2409 174.273Z" fill="#263238"/>
<path d="M63.6966 173.98C63.6966 173.98 63.8202 173.924 63.9395 173.822C64.0588 173.72 64.1397 173.622 64.1226 173.605C64.1056 173.588 64.0034 173.656 63.8841 173.762C63.7648 173.869 63.6839 173.945 63.6966 173.98Z" fill="#263238"/>
<path d="M63.3555 173.336C63.5884 173.387 63.8297 173.387 64.0626 173.336C64.0626 173.31 63.905 173.289 63.7133 173.285C63.5918 173.276 63.4697 173.294 63.3555 173.336Z" fill="#263238"/>
<path d="M63.2422 172.884C63.3598 172.962 63.4975 173.003 63.6384 173.004C63.7822 173.032 63.9313 173.014 64.0644 172.953C63.9324 172.928 63.7981 172.918 63.6639 172.923C63.5251 172.895 63.3837 172.882 63.2422 172.884Z" fill="#263238"/>
<path d="M64.4785 173.685C64.6196 173.708 64.7634 173.708 64.9045 173.685C65.0617 173.665 65.217 173.633 65.3689 173.587C65.4608 173.562 65.5494 173.527 65.633 173.481C65.6596 173.467 65.6832 173.447 65.7022 173.424C65.7212 173.401 65.7353 173.374 65.7438 173.345C65.7501 173.312 65.7476 173.279 65.7363 173.248C65.725 173.217 65.7055 173.19 65.6799 173.17C65.5149 173.085 65.3253 173.062 65.1446 173.103C64.9638 173.144 64.8034 173.248 64.6915 173.396C64.6215 173.478 64.5719 173.576 64.5467 173.681C64.5467 173.758 64.5467 173.8 64.5467 173.8C64.5899 173.666 64.6578 173.54 64.7469 173.43C64.8466 173.316 64.9766 173.233 65.1218 173.191C65.2939 173.137 65.4805 173.152 65.6415 173.234C65.7097 173.285 65.6799 173.366 65.6032 173.413C65.525 173.453 65.4438 173.487 65.3604 173.515C65.2131 173.564 65.0621 173.601 64.9088 173.626C64.6447 173.673 64.4785 173.673 64.4785 173.685Z" fill="#263238"/>
<path d="M64.5925 173.707C64.5925 173.707 64.6649 173.605 64.6479 173.409C64.6335 173.294 64.5926 173.185 64.5286 173.089C64.4938 173.024 64.4424 172.968 64.3797 172.929C64.3169 172.889 64.2449 172.866 64.1707 172.863C64.1486 172.867 64.1275 172.876 64.1086 172.888C64.0897 172.9 64.0735 172.916 64.0608 172.935C64.0481 172.954 64.0393 172.975 64.0347 172.997C64.0302 173.019 64.0301 173.041 64.0344 173.064C64.0435 173.132 64.0683 173.198 64.1068 173.255C64.1631 173.352 64.2303 173.442 64.3071 173.524C64.3747 173.601 64.4592 173.662 64.5541 173.703C64.5541 173.703 64.4689 173.622 64.3497 173.485C64.2836 173.402 64.2238 173.313 64.1707 173.221C64.1111 173.127 64.0727 172.961 64.1707 172.944C64.2687 172.927 64.388 173.042 64.4562 173.132C64.5165 173.217 64.5572 173.314 64.5754 173.417C64.5902 173.513 64.5959 173.61 64.5925 173.707Z" fill="#263238"/>
<path d="M57.2676 173.178C57.2676 173.178 57.4592 173.178 57.7657 173.2C58.1634 173.251 58.5392 173.412 58.8513 173.664C59.1616 173.919 59.3946 174.255 59.524 174.635C59.5735 174.794 59.6147 174.954 59.6475 175.117C59.6548 175.072 59.6548 175.026 59.6475 174.98C59.6356 174.856 59.6114 174.734 59.5751 174.614C59.4551 174.216 59.2194 173.863 58.8982 173.6C58.5755 173.337 58.1806 173.178 57.7657 173.144C57.6426 173.131 57.5184 173.131 57.3953 173.144C57.351 173.148 57.3077 173.159 57.2676 173.178Z" fill="#263238"/>
<path d="M57.9962 170.367C57.9455 170.828 57.9213 171.292 57.9238 171.756C57.8978 172.22 57.8978 172.685 57.9238 173.149C57.9745 172.688 57.9987 172.224 57.9962 171.76C58.0222 171.296 58.0222 170.831 57.9962 170.367Z" fill="#263238"/>
<path d="M60.5156 174.508C60.8389 174.586 61.1709 174.622 61.5034 174.614C61.8356 174.635 62.1691 174.612 62.4953 174.546C62.4953 174.52 62.0696 174.546 61.5076 174.546C60.9456 174.546 60.5199 174.482 60.5156 174.508Z" fill="#263238"/>
<path d="M59.1738 174.491C59.1738 174.491 59.2079 174.584 59.2505 174.687C59.2931 174.789 59.3187 174.878 59.3442 174.878C59.3698 174.878 59.3783 174.772 59.3442 174.653C59.3101 174.533 59.2036 174.474 59.1738 174.491Z" fill="#263238"/>
<path d="M58.6992 173.864C58.6992 173.864 58.7248 173.949 58.7929 174.022C58.8611 174.094 58.9335 174.137 58.9506 174.124C58.9676 174.111 58.9207 174.035 58.8526 173.962C58.7844 173.89 58.712 173.847 58.6992 173.864Z" fill="#263238"/>
<path d="M57.9826 173.57C57.9826 173.592 58.0763 173.592 58.1785 173.63C58.2808 173.668 58.3489 173.72 58.366 173.703C58.383 173.685 58.3276 173.596 58.2041 173.553C58.0805 173.511 57.9783 173.549 57.9826 173.57Z" fill="#263238"/>
<path d="M57.4727 173.43C57.4727 173.43 57.5025 173.489 57.5579 173.51C57.6132 173.532 57.6644 173.51 57.6729 173.51C57.6814 173.51 57.6431 173.455 57.5877 173.434C57.5323 173.412 57.4727 173.408 57.4727 173.43Z" fill="#263238"/>
<path d="M53.7683 63.6337C53.8194 62.5729 53.9344 61.3716 53.9344 61.3716C53.9344 61.3716 56.5569 61.0861 56.7145 58.3895C56.872 55.6928 56.7145 49.4432 56.7145 49.4432L51.9376 46.9937L46.6797 51.143L47.4758 64.703L52.3123 65.0097C52.4988 65.0177 52.6851 64.9882 52.8601 64.9229C53.035 64.8576 53.1951 64.7578 53.3309 64.6295C53.4666 64.5013 53.5753 64.347 53.6504 64.176C53.7256 64.0049 53.7657 63.8205 53.7683 63.6337Z" fill="#FFBE9D"/>
<path d="M54.2408 56.2299C54.2408 56.2299 54.2408 56.2768 54.1982 56.345C54.1623 56.3888 54.1166 56.4235 54.0648 56.4465C54.013 56.4694 53.9565 56.4799 53.9 56.477C53.5932 56.477 53.2993 56.1277 53.1928 55.7145C53.1441 55.5172 53.1441 55.3111 53.1928 55.1138C53.1986 55.0239 53.2281 54.9372 53.2782 54.8624C53.3283 54.7876 53.3973 54.7274 53.4782 54.6878C53.5098 54.6741 53.5439 54.667 53.5783 54.667C53.6128 54.667 53.6469 54.6741 53.6784 54.6878C53.727 54.7095 53.7652 54.7492 53.7849 54.7986C53.8233 54.8752 53.7849 54.9264 53.7849 54.9221C53.7849 54.9178 53.785 54.8752 53.7338 54.8284C53.7095 54.793 53.6728 54.7681 53.6309 54.7586C53.5891 54.7491 53.5452 54.7558 53.508 54.7773C53.4512 54.8146 53.4041 54.8651 53.3708 54.9244C53.3374 54.9837 53.3188 55.0501 53.3163 55.1181C53.2833 55.2963 53.2905 55.4797 53.3376 55.6548C53.4314 56.0255 53.687 56.3237 53.9128 56.3535C53.958 56.3594 54.0041 56.356 54.048 56.3436C54.092 56.3311 54.1329 56.3099 54.1684 56.2811C54.2152 56.264 54.2323 56.2257 54.2408 56.2299Z" fill="#EB996E"/>
<path d="M54.2224 57.9037C54.2564 57.8057 54.2777 57.6992 54.3075 57.5969C54.3373 57.4947 54.3458 57.4521 54.3714 57.3754C54.4169 57.1524 54.4412 56.9256 54.4437 56.698C54.2105 56.7885 53.9559 56.8085 53.7114 56.7555C53.467 56.7025 53.2434 56.5788 53.0686 56.3998C52.8925 56.2133 52.7696 55.9829 52.7127 55.7326C52.6558 55.4824 52.6669 55.2214 52.745 54.977C52.8569 54.7091 53.0239 54.4679 53.2352 54.269C53.4464 54.0701 53.6972 53.9179 53.9712 53.8225C54.4991 53.6009 55.0653 53.4902 55.5847 53.2431C56.6832 52.7234 57.441 51.637 57.9604 50.4996C58.3223 49.7029 58.5947 48.7955 58.3478 47.9435C57.9817 46.6953 56.6448 46.0776 55.4485 45.7325C53.6093 45.2128 51.6168 44.9827 49.8202 45.643C48.0235 46.3033 45.865 47.4706 45.865 49.4558C44.8049 49.3664 44.2003 50.3079 43.7789 51.4496C43.5715 52.1647 43.415 52.8935 43.3105 53.6308" fill="#263238"/>
<path d="M47.3127 61.9039C45.9873 60.989 44.9215 59.7459 44.2194 58.2959C43.5173 56.846 43.2027 55.2386 43.3065 53.6308C43.5789 47.9392 54.2225 57.8909 54.2225 57.8909C54.2225 57.8909 52.1832 64.5963 47.5298 61.8911" fill="#263238"/>
<path d="M45.7338 56.2297C45.704 56.2041 45.9169 56.0039 46.0914 55.5907C46.2106 55.3281 46.2734 55.0435 46.2755 54.7551C46.2777 54.4668 46.2193 54.1812 46.1041 53.9169C45.9889 53.6526 45.8195 53.4155 45.6068 53.2209C45.3941 53.0264 45.1429 52.8787 44.8695 52.7875C44.4438 52.6342 44.1543 52.6554 44.1543 52.6171C44.4038 52.5402 44.6716 52.5477 44.9164 52.6384C45.22 52.724 45.5014 52.8746 45.7411 53.0799C45.9807 53.2851 46.1729 53.54 46.3043 53.827C46.4286 54.1179 46.4867 54.4328 46.4741 54.7489C46.4616 55.0651 46.3789 55.3744 46.2319 55.6546C46.0063 56.0848 45.7466 56.2467 45.7338 56.2297Z" fill="#FEE675"/>
<path d="M43.5423 52.7448C43.446 52.7571 43.3484 52.7361 43.2656 52.6852C43.0265 52.5679 42.83 52.3787 42.7036 52.1442C42.527 51.7929 42.463 51.3957 42.5206 51.0067C42.5701 50.5365 42.7149 50.0813 42.9463 49.669C43.1828 49.2466 43.5548 48.9164 44.0021 48.7318C44.3733 48.5803 44.789 48.5803 45.1602 48.7318C45.4056 48.8343 45.6137 49.0098 45.7562 49.2345C45.8456 49.3964 45.8584 49.5029 45.8456 49.5029C45.6723 49.2193 45.4105 49.0007 45.1006 48.8809C44.7665 48.7654 44.4009 48.7821 44.0788 48.9278C43.6811 49.1021 43.3508 49.4012 43.1379 49.7798C42.6823 50.5935 42.5546 51.5265 42.8313 52.0675C42.9834 52.3684 43.2345 52.6076 43.5423 52.7448Z" fill="#263238"/>
<path d="M91.8848 54.662C91.6932 54.466 91.2249 54.5597 91.2249 54.5597C91.2697 54.2861 91.2697 54.0069 91.2249 53.7333C91.1398 53.4649 90.5395 53.516 90.5395 53.516C90.511 53.2911 90.511 53.0635 90.5395 52.8386C90.5426 52.7894 90.5308 52.7403 90.5058 52.6978C90.4807 52.6553 90.4435 52.6213 90.399 52.6001C90.1152 52.4852 89.8109 52.4301 89.5049 52.4382C89.1345 52.1741 90.6204 50.0951 91.1738 49.4305C91.7273 48.766 91.6251 48.2505 91.1355 48.2505C90.7992 48.2505 89.0664 50.2485 88.5342 50.9173C88.002 51.5862 86.5886 53.4521 86.5417 51.9653C86.4949 50.4785 85.8946 49.3496 85.52 49.1579C85.1453 48.9662 84.7451 49.4178 84.9537 49.831C85.1313 50.3004 85.2431 50.7921 85.2858 51.2922C85.3335 51.6944 85.3148 52.1017 85.2304 52.4978C85.0752 53.2239 84.8616 53.9362 84.5918 54.6279L84.5535 54.6066C84.5535 54.6066 74.1781 64.5625 73.4288 65.2569C72.7562 65.8959 59.2729 64.4986 56.5736 64.2132C55.6528 64.0821 54.7236 64.0194 53.7935 64.0257C52.6227 64.0768 52.4141 64.243 51.2391 64.2558C48.449 64.2653 45.6642 64.4989 42.9115 64.9544C40.2166 65.4103 38.735 67.5105 37.9048 70.122C35.1757 78.6422 27.8019 98.6648 26.6992 109.997C25.8772 111.49 25.1339 113.026 24.4726 114.598C23.7105 116.681 23.8978 116.753 24.1532 116.8C24.8429 116.928 25.6348 113.192 25.9329 114.091C26.2309 114.99 24.4342 118.551 25.1623 118.653C26.1074 118.79 26.8652 114.862 26.9546 114.534C27.044 114.206 27.5209 114.325 27.423 114.615C27.2867 115.041 25.9499 119.471 26.878 119.616C27.3932 119.693 27.4485 118.764 27.4485 118.764C27.4485 118.764 28.3937 114.504 28.8322 114.602C29.2707 114.7 28.8066 117.196 28.5852 118.031C28.3639 118.866 28.6746 119.309 29.1174 119.088C29.424 118.947 30.152 116.404 30.3521 115.573C30.5522 114.743 31.046 112.455 31.7187 113.784C32.3914 115.113 33.4217 115.88 33.8474 115.914C33.9454 115.91 34.0396 115.874 34.1163 115.813C34.1929 115.752 34.2483 115.668 34.2743 115.573C34.3003 115.479 34.2957 115.378 34.261 115.286C34.2264 115.194 34.1636 115.116 34.0816 115.062C33.7214 114.71 33.4118 114.31 33.162 113.873C32.948 113.529 32.7926 113.152 32.7022 112.757C32.5136 111.968 32.4038 111.162 32.3744 110.35L32.2935 109.86C33.3578 104.586 36.9766 86.6086 41.3746 76.7166L42.6518 82.9535L43.4394 85.7183L38.5987 97.6892L59.2345 97.4166L56.1564 85.5564L59.8944 73.202C63.9433 73.2915 74.3314 73.4449 76.0727 72.661C78.2483 71.6897 89.5177 57.4779 89.5177 57.4779C90.2597 56.9075 90.9703 56.2975 91.6464 55.6503C91.6464 55.6503 92.2978 55.088 91.8848 54.662Z" fill="#FFBE9D"/>
<path d="M37.6997 88.8876C38.2957 86.8428 41.3696 76.7293 41.3696 76.7293C41.3696 76.7293 42.881 84.9726 42.485 85.9652C42.1191 86.8169 41.6848 87.6375 41.1865 88.419C37.6997 93.7357 38.1552 96.394 38.1552 96.394L59.2338 95.7507C59.2849 92.8027 57.5308 85.9524 57.1732 84.8491C56.8156 83.7457 58.0247 80.1629 58.0247 80.1629C58.0247 80.1629 60.4088 77.7432 60.3152 76.4992C60.2655 75.3817 60.1231 74.2702 59.8894 73.1763L75.5015 73.4745L73.7559 64.9841L58.7016 63.8807L53.6949 63.4121C51.1745 65.5422 47.3981 63.4121 47.3981 63.4121C42.5957 63.8807 41.8932 64.6518 39.9221 66.6242C37.5805 68.9588 31.2539 86.8215 31.2539 86.8215L37.6997 88.8876Z" fill="#FEE675"/>
<path d="M50.1651 86.8301C49.7984 86.8941 49.4252 86.9127 49.0539 86.8855C48.3642 86.8855 47.4191 86.8386 46.376 86.7364C45.3329 86.6342 44.3963 86.4808 43.7236 86.3487C43.3543 86.3027 42.9923 86.2097 42.6465 86.0718C43.0167 86.0703 43.3861 86.106 43.7492 86.1783C44.4304 86.2635 45.3627 86.3828 46.4015 86.4893C47.4404 86.5958 48.377 86.664 49.0582 86.7108C49.4303 86.7126 49.8012 86.7526 50.1651 86.8301Z" fill="#263238"/>
<path d="M51.6056 85.0366C51.2404 85.2152 50.8542 85.3469 50.4561 85.4286C49.5094 85.6794 48.5463 85.863 47.5738 85.9781C46.602 86.095 45.6231 86.142 44.6447 86.1187C44.2386 86.1308 43.8326 86.0936 43.4355 86.0079C43.8359 85.951 44.2405 85.9296 44.6447 85.944C45.3897 85.9185 46.4158 85.8673 47.5482 85.731C48.6807 85.5947 49.6769 85.4115 50.4177 85.2581C50.8063 85.1492 51.2039 85.0751 51.6056 85.0366Z" fill="#263238"/>
<path d="M58.6997 77.0361C58.6951 77.3985 58.6465 77.759 58.555 78.1097C58.4315 78.77 58.2399 79.6731 57.9972 80.6658C57.7546 81.6584 57.5076 82.5487 57.3118 83.192C57.2301 83.5452 57.1057 83.8871 56.9414 84.2102C56.9671 83.8487 57.0343 83.4913 57.1415 83.1451C57.3203 82.4039 57.5289 81.5519 57.7546 80.6104C57.9802 79.6689 58.2016 78.8169 58.3847 78.0543C58.4513 77.7042 58.5569 77.3626 58.6997 77.0361Z" fill="#263238"/>
<path d="M38.0159 96.5388L59.0902 95.8955L68.2607 131.732L66.5577 172.838H55.4032L56.7954 132.622L48.6424 107.658L49.8813 173.264L38.6162 173.43L37.4624 111.833C37.4156 110.09 36.8408 106.154 37.0366 104.424L38.0159 96.5388Z" fill="#455A64"/>
<path d="M51.4521 108.165C51.1061 108.189 50.7584 108.169 50.4175 108.105C49.7832 108.028 48.9104 107.896 47.9567 107.704C47.0031 107.513 46.1431 107.278 45.53 107.121C45.1902 107.048 44.8612 106.932 44.5508 106.776C44.5508 106.708 46.1005 107.078 48.0036 107.462C49.9066 107.845 51.4606 108.092 51.4521 108.165Z" fill="#263238"/>
<path d="M66.4679 170.584C66.4679 170.652 63.9432 170.708 60.8268 170.708C57.7103 170.708 55.4922 170.61 55.4922 170.541C55.4922 170.473 57.7103 170.46 60.8268 170.46C63.9432 170.46 66.4679 170.537 66.4679 170.584Z" fill="#263238"/>
<path d="M49.7232 170.708C49.7232 170.776 47.2709 170.832 44.2482 170.832C41.2254 170.832 38.7773 170.776 38.7773 170.708C38.7773 170.64 41.2254 170.584 44.2482 170.584C47.2709 170.584 49.7232 170.64 49.7232 170.708Z" fill="#263238"/>
<path d="M48.3485 170.708C48.2803 170.708 47.9821 156.526 47.6839 139.03C47.3857 121.533 47.2025 107.351 47.2579 107.347C47.3133 107.343 47.637 121.546 47.9353 139.013C48.2335 156.479 48.4167 170.704 48.3485 170.708Z" fill="#263238"/>
<path d="M64.9696 170.584C64.965 170.519 64.965 170.453 64.9696 170.388C64.9696 170.247 64.9696 170.06 64.9696 169.817C64.9696 169.306 65.0036 168.569 65.0334 167.627C65.0973 165.715 65.1952 162.967 65.3102 159.576C65.5699 152.76 65.9318 143.387 66.3277 133.01C66.3277 132.912 66.3277 132.818 66.3277 132.728V132.762C63.8286 122.755 61.5721 113.707 59.9415 107.146L58.047 99.3929C57.8298 98.4855 57.6595 97.7784 57.5446 97.2629C57.4907 97.0328 57.4481 96.8496 57.4169 96.7133C57.4009 96.6518 57.3895 96.5891 57.3828 96.5259C57.4098 96.5844 57.4298 96.6459 57.4424 96.7091C57.4765 96.8411 57.5276 97.0201 57.5914 97.2501C57.7192 97.7443 57.9065 98.4515 58.1406 99.3546C58.6132 101.191 59.2901 103.832 60.1246 107.091C61.7807 113.647 64.0627 122.687 66.5917 132.69V132.728C66.5917 132.814 66.5917 132.912 66.5917 133.005C66.1659 143.374 65.7827 152.76 65.5017 159.567C65.3527 162.975 65.2293 165.706 65.1441 167.619C65.0973 168.56 65.059 169.293 65.0334 169.809C65.0334 170.047 65.0079 170.235 64.9994 170.375C64.9966 170.446 64.9866 170.515 64.9696 170.584Z" fill="#263238"/>
<path d="M61.3336 131.894C60.5316 132.156 59.706 132.34 58.8685 132.443C57.8467 132.618 56.9612 132.737 56.5738 132.763V132.665C56.7015 132.699 56.7696 132.729 56.7653 132.746C56.7611 132.763 56.6887 132.746 56.5567 132.746H56.2715L56.5567 132.66C56.9271 132.55 57.8042 132.371 58.8302 132.192C59.6529 132.011 60.4914 131.911 61.3336 131.894Z" fill="#263238"/>
<path d="M61.1211 133.261C60.3802 133.291 59.638 133.257 58.903 133.159C58.161 133.14 57.4218 133.059 56.6934 132.916C57.4335 132.815 58.1841 132.815 58.9243 132.916C59.6688 132.931 60.408 133.047 61.1211 133.261Z" fill="#263238"/>
<path d="M37.9219 97.2928C38.4285 98.0128 39.1565 98.2641 39.9995 98.4005C40.8491 98.5017 41.7086 98.4859 42.554 98.3536C47.995 97.7487 53.7595 97.1906 59.0856 95.8955C52.1885 96.2789 44.9083 96.1511 38.0113 96.5388C38.0113 96.5388 37.9517 97.0117 37.9389 97.1267" fill="#263238"/>
<path d="M45.0312 107.023L48.914 122.117L48.6416 107.658L45.0312 107.023Z" fill="#263238"/>
<path d="M44.2476 52.9194C42.749 52.5189 41.1823 54.1165 41.1312 55.6671C41.1312 56.0932 41.178 56.6214 40.863 56.9452C40.5479 57.2689 39.9859 57.1795 39.5134 57.2178C39.0307 57.2659 38.5789 57.4776 38.2328 57.8177C37.8867 58.1578 37.6671 58.606 37.6103 59.088C37.5422 59.7782 37.8189 60.5194 37.5294 61.1499C37.2399 61.7804 36.5715 62.036 36.1074 62.5046C35.8259 62.8236 35.6141 63.198 35.4858 63.6037C35.3575 64.0094 35.3154 64.4375 35.3624 64.8605C35.4631 65.706 35.6853 66.5324 36.0223 67.3143C36.2947 68.0428 36.6524 68.8522 37.3846 69.1121H43.6814L44.154 66.7349L44.9246 69.1121H45.9506L45.3971 53.6777C45.3971 53.6777 45.3929 53.2218 44.2476 52.9194Z" fill="#263238"/>
<path d="M35.6371 60.2893C35.6371 60.2893 35.569 60.2893 35.4668 60.3234C35.3936 60.3633 35.3379 60.429 35.3103 60.5077C35.2828 60.5864 35.2855 60.6726 35.3178 60.7494C35.3968 60.9234 35.5392 61.0606 35.7159 61.133C35.8927 61.2054 36.0903 61.2076 36.2686 61.1391C36.4469 61.0705 36.5923 60.9365 36.6751 60.7643C36.7579 60.5921 36.7719 60.3948 36.7142 60.2127C36.6244 60.0082 36.5085 59.8164 36.3694 59.6418C36.0468 59.2114 35.9075 58.6708 35.9819 58.138C36.0201 57.8426 36.126 57.56 36.2914 57.3124C36.4569 57.0649 36.6774 56.8589 36.9356 56.7108C37.212 56.5489 37.5227 56.4549 37.8424 56.4364C38.1621 56.4178 38.4816 56.4754 38.7748 56.6043C39.3538 56.8557 39.8562 57.2263 40.4139 57.1496C40.5396 57.1447 40.6621 57.1081 40.77 57.0434C40.8779 56.9786 40.9677 56.8877 41.0313 56.779C41.1209 56.5369 41.1502 56.2766 41.1164 56.0207C41.0828 55.5318 41.1539 55.0414 41.325 54.5822C41.4961 54.123 41.7632 53.7057 42.1084 53.3581C42.5945 52.9025 43.2391 52.6549 43.905 52.668C44.0815 52.673 44.2564 52.7031 44.4244 52.7574C44.4848 52.7721 44.5423 52.7965 44.5947 52.8299C44.3672 52.7865 44.1366 52.7608 43.905 52.7532C43.2665 52.7678 42.6576 53.0252 42.2021 53.4731C41.8801 53.8114 41.6336 54.2141 41.4788 54.6547C41.3239 55.0953 41.2643 55.5638 41.3037 56.0292C41.3417 56.3173 41.3066 56.6103 41.2016 56.8812C41.1232 57.0226 41.0101 57.1417 40.8731 57.2274C40.7361 57.3131 40.5795 57.3626 40.4182 57.3712C40.1027 57.4013 39.7849 57.3454 39.4986 57.2093C39.2091 57.0857 38.9451 56.9281 38.6726 56.8131C38.4108 56.6983 38.1257 56.6466 37.8403 56.6621C37.5549 56.6776 37.2771 56.76 37.0293 56.9025C36.7985 57.0355 36.6017 57.2201 36.454 57.4418C36.3063 57.6635 36.2117 57.9163 36.1778 58.1806C36.1046 58.6663 36.2271 59.1612 36.5184 59.5566C36.6638 59.7454 36.7827 59.9532 36.8717 60.1743C36.9118 60.2844 36.9295 60.4015 36.9236 60.5186C36.9178 60.6356 36.8886 60.7503 36.8377 60.8559C36.7495 61.0431 36.599 61.1938 36.4119 61.2819C36.2409 61.3581 36.0499 61.3776 35.867 61.3373C35.7213 61.3096 35.5861 61.2425 35.4758 61.1434C35.3654 61.0443 35.2843 60.9169 35.2411 60.775C35.21 60.6839 35.2146 60.5843 35.2541 60.4964C35.2937 60.4086 35.3651 60.3391 35.454 60.3021C35.5775 60.2425 35.6413 60.2893 35.6371 60.2893Z" fill="#263238"/>
<path d="M60.0287 73.0398C59.8677 73.0621 59.7044 73.0621 59.5433 73.0398C59.1004 72.9863 58.669 72.8611 58.2661 72.6692C57.6652 72.3871 57.1289 71.9839 56.6909 71.4849C56.1347 70.8804 55.7599 70.1315 55.6093 69.3238C55.4587 68.5162 55.5385 67.6824 55.8394 66.918C56.0721 66.2955 56.4317 65.7283 56.8952 65.2523C57.2028 64.9295 57.5608 64.659 57.9553 64.4514C58.095 64.3675 58.2474 64.3071 58.4066 64.2725C57.8919 64.5663 57.4216 64.9321 57.0102 65.3588C56.58 65.8315 56.2472 66.3845 56.031 66.9862C55.7506 67.7163 55.6766 68.5097 55.8171 69.2792C55.9575 70.0487 56.3069 70.7646 56.8271 71.3485C57.243 71.8345 57.749 72.2352 58.3172 72.5286C58.862 72.7755 59.4378 72.9474 60.0287 73.0398Z" fill="#263238"/>
</svg>
