<svg width="96" height="61" viewBox="0 0 96 61" fill="none" xmlns="http://www.w3.org/2000/svg">
<path d="M85.5689 38.6817C85.5689 38.6817 84.4822 38.1749 83.6298 40.7233C82.7775 43.2718 82.5243 44.7067 82.5243 44.7067C82.5243 44.7067 82.2797 45.2512 81.8905 44.9775C81.5012 44.7038 80.8978 43.8539 80.3436 44.1087C79.7893 44.3635 79.6707 45.0702 79.9326 46.0389C80.1945 47.0076 80.6909 49.1491 80.7343 49.3432C80.7777 49.5372 80.7097 49.834 80.4159 49.6907C80.1222 49.5473 78.3249 48.0631 77.6665 48.9565C77.0081 49.8499 78.186 52.4317 78.309 52.7126C78.432 52.9935 78.3929 53.1325 78.2627 53.2266C78.1324 53.3208 77.5782 52.7647 77.05 52.3579C76.5218 51.951 75.8403 51.5846 75.506 52.132C75.1717 52.6793 75.3454 54.7195 77.7576 57.7139L78.9659 59.0273L80.7212 58.6638C84.4301 57.6575 85.7672 56.1081 85.8178 55.4681C85.8685 54.8281 85.0943 54.7296 84.4359 54.7441C83.7775 54.7586 82.9975 54.8817 82.9483 54.7282C82.8991 54.5747 82.9483 54.4386 83.2117 54.2938C83.475 54.149 85.9394 52.7372 85.9365 51.6295C85.9336 50.5218 83.6081 50.6695 83.2854 50.6159C82.9627 50.5624 83.0843 50.2757 83.2305 50.1468C83.3766 50.0179 85.0378 48.5728 85.8178 47.943C86.5978 47.3131 86.9306 46.689 86.6181 46.1402C86.3055 45.5914 85.3302 45.9433 84.8555 45.936C84.3809 45.9288 84.501 45.3438 84.501 45.3438C84.501 45.3438 85.1377 44.0406 85.9481 41.4705C86.7584 38.9003 85.5458 38.6788 85.5458 38.6788" fill="#EBEBEB"/>
<path d="M78.7383 59.3914C79.3374 57.509 80.4574 54.1859 81.4052 51.3261C82.3531 48.4663 83.2083 45.8788 83.8175 44.0022C84.1199 43.0639 84.3645 42.3052 84.541 41.7781C84.6264 41.5175 84.6857 41.3133 84.7378 41.1728C84.76 41.1062 84.7774 41.0541 84.7899 41.0165C84.8015 40.9803 84.8087 40.9629 84.8087 40.9629C84.8087 40.9629 84.8087 40.9817 84.7943 41.0179C84.7798 41.0541 84.7682 41.1077 84.748 41.1757C84.7046 41.3205 84.6423 41.5218 84.5613 41.7839C84.3992 42.3124 84.1605 43.074 83.8595 44.0138C83.2604 45.8962 82.4124 48.4852 81.4646 51.3435C80.5167 54.2018 79.3895 57.5264 78.7803 59.4029" fill="#E0E0E0"/>
<path d="M81.1387 45.3281C81.1627 45.3638 81.1836 45.4016 81.2009 45.4411C81.2385 45.5149 81.2892 45.625 81.3456 45.7596C81.4686 46.0304 81.635 46.4083 81.7956 46.8282C81.9563 47.2482 82.1082 47.6174 82.2298 47.9041C82.2804 48.033 82.3253 48.143 82.36 48.2299C82.3798 48.2683 82.3944 48.3092 82.4034 48.3515C82.3794 48.3158 82.3585 48.278 82.3412 48.2386C82.3036 48.1647 82.2529 48.0561 82.1965 47.92C82.0764 47.6478 81.9215 47.2684 81.7537 46.8485C81.5858 46.4286 81.4353 46.0608 81.3196 45.7756L81.1864 45.4498C81.1654 45.4114 81.1494 45.3705 81.1387 45.3281Z" fill="#E0E0E0"/>
<path d="M82.5743 48.3581C82.567 48.3437 83.3311 47.9817 84.2804 47.5473C85.2296 47.1129 86.0024 46.7741 86.0168 46.7885C86.0313 46.803 85.2586 47.165 84.3093 47.598C83.36 48.0309 82.5743 48.3741 82.5743 48.3581Z" fill="#E0E0E0"/>
<path d="M80.916 52.6847C80.9583 52.671 81.002 52.6623 81.0463 52.6586L81.4008 52.6065C81.6989 52.5631 82.1127 52.5008 82.5657 52.4139C83.0186 52.327 83.4252 52.2387 83.7233 52.1692L84.0721 52.0896C84.1143 52.0764 84.1581 52.0686 84.2023 52.0664C84.1622 52.0846 84.1206 52.0992 84.0779 52.1098C83.9968 52.1345 83.8796 52.1692 83.7335 52.2083C83.4441 52.2865 83.0331 52.3835 82.5758 52.4689C82.1185 52.5544 81.7076 52.6137 81.4051 52.6456C81.2604 52.663 81.1331 52.6746 81.0477 52.6804C81.004 52.6856 80.96 52.6871 80.916 52.6847Z" fill="#E0E0E0"/>
<path d="M79.0234 50.2275C79.0547 50.2537 79.0829 50.2833 79.1074 50.3159L79.3201 50.5707C79.4981 50.7865 79.7397 51.0876 80.0045 51.4221C80.2694 51.7566 80.5081 52.0607 80.6774 52.2837L80.8757 52.5487C80.9016 52.5801 80.9244 52.6141 80.9437 52.65C80.912 52.6244 80.8837 52.5947 80.8598 52.5617L80.647 52.3083C80.4691 52.0911 80.2274 51.7914 79.9611 51.4569C79.6949 51.1224 79.459 50.8169 79.2897 50.5953L79.0914 50.3303C79.0648 50.2989 79.042 50.2644 79.0234 50.2275Z" fill="#E0E0E0"/>
<path d="M77.0762 53.8613C77.1153 53.8957 77.1507 53.934 77.1818 53.9757C77.2542 54.0597 77.3453 54.1697 77.4553 54.3001C77.6854 54.5752 77.998 54.9589 78.3424 55.3846C78.6868 55.8103 78.995 56.1969 79.2106 56.4793L79.4711 56.8138C79.5043 56.854 79.5338 56.8971 79.5593 56.9426C79.5212 56.9073 79.4859 56.8691 79.4537 56.8282L79.1802 56.5039C78.9516 56.2273 78.6376 55.8451 78.2932 55.4194C77.9488 54.9937 77.6405 54.607 77.4249 54.3247C77.3207 54.19 77.2325 54.0771 77.1659 53.9888C77.1319 53.9493 77.1018 53.9066 77.0762 53.8613Z" fill="#E0E0E0"/>
<path d="M79.5371 56.8509C79.5901 56.8348 79.6443 56.8227 79.6992 56.8147L80.1463 56.7336C80.524 56.6641 81.045 56.5657 81.6165 56.444C82.1881 56.3224 82.7033 56.195 83.0752 56.1009L83.5166 55.9908C83.57 55.9748 83.6247 55.9632 83.6801 55.9561C83.6293 55.9792 83.5765 55.9976 83.5223 56.0111C83.4196 56.0429 83.2705 56.0878 83.0882 56.1385C82.7178 56.2428 82.2041 56.3745 81.631 56.4976C81.058 56.6207 80.5356 56.7148 80.1565 56.7742C79.9669 56.8046 79.8121 56.8263 79.7064 56.8393C79.6505 56.8486 79.5938 56.8525 79.5371 56.8509Z" fill="#E0E0E0"/>
<path d="M88.798 59.3384C88.798 59.3587 68.9167 59.3761 44.399 59.3761C19.8813 59.3761 0 59.363 0 59.3384C0 59.3138 19.8769 59.3008 44.4048 59.3008C68.9326 59.3008 88.798 59.3182 88.798 59.3384Z" fill="#263238"/>
<path d="M61.6464 8.94859L60.2695 10.127L62.1075 12.2773L63.4844 11.0989L61.6464 8.94859Z" fill="#263238"/>
<path d="M62.8358 8.78064L60.0025 11.2161L58.0156 8.89937C58.797 7.8018 59.729 6.97356 60.8446 6.46387L62.8358 8.78064Z" fill="#455A64"/>
<path d="M60.4788 10.8073C60.4629 10.8218 59.9839 10.2947 59.408 9.63302C58.832 8.97129 58.3776 8.42395 58.395 8.40947C58.4124 8.39499 58.8899 8.92206 59.4658 9.58378C60.0418 10.2455 60.4947 10.7943 60.4788 10.8073Z" fill="#263238"/>
<path d="M61.017 10.3448C60.9025 10.2333 60.7961 10.1138 60.6987 9.98712C60.5076 9.76268 60.2486 9.45136 59.9635 9.10385L59.24 8.21189L59.0229 7.94112C58.9709 7.87451 58.9434 7.8441 58.9434 7.83976C58.9723 7.81369 59.4542 8.36248 60.0243 9.05606C60.3137 9.40358 60.5626 9.72069 60.7479 9.95381C60.8489 10.0759 60.939 10.2068 61.017 10.3448Z" fill="#263238"/>
<path d="M61.7381 9.72625C61.6219 9.61514 61.5141 9.4956 61.4154 9.3686C61.223 9.14127 60.9625 8.82416 60.676 8.4723L59.9525 7.56586L59.7354 7.2893C59.7073 7.25633 59.6821 7.22096 59.6602 7.18359C59.7845 7.28638 59.8962 7.40351 59.993 7.53256C60.1883 7.757 60.4517 8.07265 60.7368 8.42451C61.0218 8.77637 61.278 9.09927 61.4603 9.3353C61.5637 9.45758 61.6567 9.58836 61.7381 9.72625Z" fill="#263238"/>
<path d="M62.3925 9.14734C62.3766 9.16037 61.9005 8.62896 61.3289 7.95999C60.7573 7.29103 60.3087 6.73645 60.3246 6.72197C60.3405 6.70749 60.8152 7.24035 61.3868 7.91076C61.9584 8.58118 62.4084 9.13431 62.3925 9.14734Z" fill="#263238"/>
<path d="M85.8923 10.4112L84.6406 9.10059L82.5964 11.0553L83.8481 12.366L85.8923 10.4112Z" fill="#263238"/>
<path d="M85.9517 11.7009L83.373 9.00037L85.5769 6.89355C86.7114 7.61755 87.5884 8.50516 88.1542 9.59404L85.9517 11.7009Z" fill="#455A64"/>
<path d="M83.805 9.45408C83.7905 9.43815 84.2898 8.93136 84.9207 8.32176C85.5516 7.71216 86.0783 7.22998 86.0885 7.24446C86.0986 7.25894 85.6037 7.76573 84.9728 8.37678C84.3419 8.98783 83.8195 9.46856 83.805 9.45408Z" fill="#263238"/>
<path d="M84.2969 9.96743C84.3997 9.84584 84.512 9.73254 84.6326 9.62861C84.8453 9.42589 85.1434 9.14932 85.4748 8.84525L86.3271 8.07347L86.5861 7.8418C86.6484 7.78677 86.6788 7.75926 86.6831 7.75781C86.7106 7.78532 86.1882 8.29646 85.5254 8.90172C85.1941 9.20435 84.8902 9.48091 84.6673 9.6677C84.5519 9.7772 84.428 9.87742 84.2969 9.96743Z" fill="#263238"/>
<path d="M84.9492 10.6534C85.0534 10.5307 85.1671 10.4164 85.2893 10.3117C85.5049 10.1075 85.8073 9.82952 86.1445 9.52544L87.0127 8.75222L87.2776 8.52054C87.3099 8.49175 87.3437 8.46468 87.3789 8.43945C87.2832 8.56939 87.1724 8.6875 87.0489 8.79131C86.8348 8.99837 86.5323 9.27783 86.1966 9.58191C85.8609 9.88599 85.5512 10.1611 85.3284 10.3522C85.2099 10.4622 85.0831 10.5629 84.9492 10.6534Z" fill="#263238"/>
<path d="M85.5648 11.2781C85.5503 11.2621 86.0568 10.7597 86.6949 10.153C87.3331 9.54628 87.8627 9.06844 87.8772 9.08437C87.8916 9.1003 87.3852 9.60275 86.747 10.208C86.1089 10.8133 85.5792 11.2911 85.5648 11.2781Z" fill="#263238"/>
<path d="M74.3399 4.1543H72.1953V7.50348H74.3399V4.1543Z" fill="#263238"/>
<path d="M75.4856 5.15625H71.072V1.54643C72.6189 1.16416 74.095 1.14099 75.4899 1.54643L75.4856 5.15625Z" fill="#FEE675"/>
<path d="M75.5428 1.55971C75.4912 1.59208 75.4364 1.61924 75.3793 1.6408C75.2282 1.70739 75.0731 1.76445 74.9148 1.81166C74.6777 1.88473 74.436 1.94181 74.1913 1.98252C73.894 2.02973 73.5936 2.0549 73.2927 2.05782C72.9919 2.05826 72.6915 2.036 72.394 1.99121C72.1494 1.95325 71.9077 1.89858 71.6705 1.82759C71.5121 1.7812 71.3565 1.7256 71.2045 1.66107C71.147 1.64113 71.0922 1.6144 71.041 1.58143C71.041 1.5684 71.2841 1.66831 71.685 1.77546C71.9202 1.83767 72.1589 1.88602 72.3998 1.92026C72.6943 1.96013 72.9911 1.98045 73.2883 1.98107C73.5857 1.97769 73.8825 1.95447 74.1768 1.91157C74.4167 1.87685 74.6544 1.82851 74.8888 1.76677C75.2997 1.64949 75.5371 1.54668 75.5428 1.55971Z" fill="#263238"/>
<path d="M72.5279 5.14657C72.5076 5.14657 72.4902 4.45298 72.4902 3.59867C72.4902 2.74436 72.5076 2.05078 72.5279 2.05078C72.5482 2.05078 72.5655 2.74292 72.5655 3.59867C72.5655 4.45443 72.5496 5.14657 72.5279 5.14657Z" fill="#263238"/>
<path d="M73.3736 5.16546C73.3533 5.16546 73.3359 4.46898 73.3359 3.61033C73.3359 2.75167 73.3533 2.05664 73.3736 2.05664C73.3939 2.05664 73.4112 2.75167 73.4112 3.61033C73.4112 4.46898 73.3953 5.16546 73.3736 5.16546Z" fill="#263238"/>
<path d="M74.2115 5.15324C74.1912 5.15324 74.1738 4.45676 74.1738 3.5981C74.1738 2.73945 74.1912 2.04297 74.2115 2.04297C74.2317 2.04297 74.2491 2.73945 74.2491 3.5981C74.2491 4.45676 74.2332 5.15324 74.2115 5.15324Z" fill="#263238"/>
<path d="M74.9068 5.15323C74.8851 5.15323 74.8691 4.40028 74.8691 3.47212C74.8691 2.54397 74.8851 1.79102 74.9068 1.79102C74.9285 1.79102 74.9444 2.54397 74.9444 3.47212C74.9444 4.40028 74.9329 5.15323 74.9068 5.15323Z" fill="#263238"/>
<path d="M71.7349 5.13175C71.7146 5.13175 71.6973 4.3788 71.6973 3.45064C71.6973 2.52248 71.7146 1.76953 71.7349 1.76953C71.7552 1.76953 71.7726 2.52248 71.7726 3.45064C71.7726 4.3788 71.7566 5.13175 71.7349 5.13175Z" fill="#263238"/>
<path d="M84.042 33.1215C90.1356 27.024 90.1356 17.1381 84.042 11.0406C77.9483 4.94308 68.0686 4.94309 61.9749 11.0406C55.8813 17.1381 55.8813 27.024 61.9749 33.1215C68.0686 39.219 77.9483 39.219 84.042 33.1215Z" fill="#FEE675"/>
<path d="M73.0092 35.0706C80.2467 35.0706 86.1139 29.1997 86.1139 21.9577C86.1139 14.7156 80.2467 8.84473 73.0092 8.84473C65.7717 8.84473 59.9045 14.7156 59.9045 21.9577C59.9045 29.1997 65.7717 35.0706 73.0092 35.0706Z" fill="#FAFAFA"/>
<path d="M86.1122 21.9571C86.1122 21.9571 86.1122 21.8861 86.1021 21.7457C86.0919 21.6052 86.1021 21.3953 86.0746 21.1216C86.0229 20.3231 85.8979 19.5311 85.7012 18.7556C85.5594 18.1958 85.3801 17.6463 85.1644 17.1107C84.9109 16.4721 84.606 15.8552 84.2527 15.266C83.3885 13.8265 82.2591 12.5642 80.9245 11.5461C79.3046 10.3129 77.4191 9.47591 75.4183 9.10189C73.7226 8.78968 71.9824 8.80984 70.2943 9.16126C69.7015 9.29002 69.1176 9.45688 68.5462 9.66081C66.1149 10.547 64.0002 12.1336 62.4685 14.2205C62.0688 14.764 61.7127 15.3382 61.4035 15.9378C61.2429 16.2375 61.1054 16.5489 60.9694 16.8616C60.8333 17.1744 60.7118 17.4987 60.609 17.8289C60.3869 18.4895 60.2204 19.1676 60.1112 19.8561C60.0014 20.5521 59.9438 21.2553 59.939 21.96C59.9441 22.665 60.0012 23.3687 60.1098 24.0653C60.2206 24.7534 60.3871 25.4314 60.6076 26.0925C60.7118 26.4212 60.842 26.7398 60.9679 27.0583C61.0938 27.3769 61.2457 27.6838 61.402 27.9836C61.7112 28.5835 62.0679 29.1578 62.4685 29.7009C63.9998 31.7885 66.1146 33.3757 68.5462 34.262C69.1176 34.466 69.7015 34.6328 70.2943 34.7616C70.8723 34.8824 71.4577 34.9642 72.0467 35.0063C73.1738 35.0916 74.3073 35.0292 75.4183 34.821C77.4191 34.4469 79.3046 33.6099 80.9245 32.3768C82.2595 31.3591 83.3889 30.0967 84.2527 28.6569C84.6057 28.0675 84.9106 27.4506 85.1644 26.8122C85.6783 25.5319 85.9856 24.1781 86.0746 22.8013C86.0992 22.5276 86.0948 22.3176 86.1021 22.1772C86.1093 22.0367 86.1122 21.9643 86.1122 21.9643C86.1122 21.9643 86.1122 22.0367 86.1122 22.1772C86.1122 22.3176 86.1122 22.5276 86.0919 22.8013C86.0127 24.1819 85.7112 25.5407 85.1991 26.8252C84.9471 27.4667 84.6432 28.0866 84.2903 28.6786C83.4282 30.1254 82.2986 31.3947 80.9621 32.4188C79.3365 33.6594 77.4435 34.5024 75.4343 34.8803C74.3182 35.0913 73.1794 35.1556 72.0467 35.0715C71.4548 35.0295 70.8665 34.9477 70.2856 34.8267C69.6892 34.6984 69.1019 34.531 68.5274 34.3257C66.0817 33.4362 63.9542 31.8414 62.4135 29.7429C62.0114 29.1969 61.6533 28.6197 61.3427 28.0169C61.1806 27.7157 61.0417 27.4 60.8999 27.0858C60.7581 26.7716 60.6423 26.4458 60.5381 26.1142C60.3161 25.4504 60.1487 24.7695 60.0374 24.0784C59.8078 22.6764 59.8078 21.2464 60.0374 19.8445C60.1493 19.1563 60.3167 18.4784 60.5381 17.8173C60.6438 17.4857 60.774 17.1657 60.9013 16.8457C61.0287 16.5257 61.1806 16.2173 61.3427 15.9161C61.6544 15.3135 62.0129 14.7364 62.415 14.1901C63.9549 12.0918 66.0821 10.4975 68.5274 9.60868C69.1015 9.4036 69.6883 9.23624 70.2841 9.10768C70.8655 8.98682 71.4544 8.90507 72.0467 8.86297C73.1789 8.77882 74.3172 8.84308 75.4328 9.05411C77.4426 9.43038 79.336 10.2735 80.9606 11.5157C82.2971 12.5404 83.4266 13.8102 84.2889 15.2573C84.9371 16.3496 85.4244 17.5298 85.736 18.7614C85.929 19.5396 86.0497 20.3341 86.0963 21.1346C86.118 21.4083 86.1107 21.6182 86.1165 21.7587C86.1223 21.8992 86.1122 21.9571 86.1122 21.9571Z" fill="#263238"/>
<path d="M84.1909 21.4819C83.7756 21.4993 83.437 21.4819 83.4356 21.4457C83.4341 21.4095 83.7684 21.3603 84.1837 21.3371C84.599 21.314 84.9376 21.3284 84.9405 21.3719C84.9434 21.4153 84.6033 21.4646 84.1909 21.4819Z" fill="#263238"/>
<path d="M83.911 24.5012C83.5059 24.4057 83.1875 24.3 83.1875 24.2638C83.1875 24.2276 83.5319 24.271 83.9385 24.3593C84.3452 24.4477 84.6621 24.5548 84.6621 24.5968C84.6621 24.6388 84.3133 24.5953 83.911 24.5012Z" fill="#263238"/>
<path d="M82.8295 27.3324C82.4633 27.1325 82.1826 26.9429 82.2 26.911C82.2173 26.8791 82.5299 27.0109 82.8975 27.2006C83.265 27.3903 83.5472 27.5858 83.5269 27.6234C83.5067 27.6611 83.1941 27.5336 82.8295 27.3324Z" fill="#263238"/>
<path d="M81.0268 29.7698C80.7287 29.4802 80.5073 29.2225 80.5333 29.1906C80.5594 29.1588 80.8227 29.3745 81.1266 29.6612C81.4305 29.9479 81.649 30.2042 81.6201 30.2404C81.5911 30.2766 81.3234 30.0609 81.0268 29.7698Z" fill="#263238"/>
<path d="M78.642 31.6384C78.4337 31.2779 78.289 30.9709 78.3208 30.9521C78.3526 30.9333 78.5523 31.2084 78.7665 31.5646C78.9807 31.9208 79.1254 32.2278 79.0892 32.2509C79.053 32.2741 78.8519 31.9961 78.642 31.6384Z" fill="#263238"/>
<path d="M75.8406 32.7942C75.7363 32.3902 75.6798 32.0557 75.716 32.047C75.7522 32.0384 75.8695 32.3555 75.981 32.7566C76.0925 33.1577 76.1475 33.4921 76.1056 33.5037C76.0636 33.5153 75.9448 33.1967 75.8406 32.7942Z" fill="#263238"/>
<path d="M72.8331 33.1548C72.8331 32.7378 72.8751 32.4004 72.9113 32.4004C72.9475 32.4004 72.9779 32.7392 72.9779 33.1548C72.9779 33.5704 72.9417 33.9092 72.8997 33.9092C72.8577 33.9092 72.8258 33.5733 72.8331 33.1548Z" fill="#263238"/>
<path d="M69.8435 32.701C69.9623 32.3014 70.0868 31.9872 70.123 31.9973C70.1592 32.0074 70.0955 32.3405 69.9782 32.7416C69.8609 33.1427 69.7407 33.4656 69.6988 33.4453C69.6568 33.425 69.7176 33.1007 69.8435 32.701Z" fill="#263238"/>
<path d="M67.0721 31.4543C67.2935 31.1025 67.4975 30.8317 67.5294 30.8505C67.5612 30.8694 67.4107 31.1749 67.1951 31.5311C66.9795 31.8873 66.774 32.1566 66.7378 32.1349C66.7017 32.1132 66.8507 31.8077 67.0721 31.4543Z" fill="#263238"/>
<path d="M64.7465 29.5142C65.0548 29.2333 65.3254 29.0277 65.3485 29.0552C65.3717 29.0827 65.1488 29.3347 64.8449 29.6199C64.5411 29.9052 64.2733 30.1108 64.243 30.0804C64.2126 30.05 64.4398 29.7951 64.7465 29.5142Z" fill="#263238"/>
<path d="M63.0205 27.0202C63.3924 26.8334 63.7079 26.7074 63.7238 26.7393C63.7397 26.7712 63.4561 26.9551 63.0871 27.1491C62.7181 27.3431 62.4041 27.4691 62.3838 27.43C62.3636 27.3909 62.6501 27.2084 63.0205 27.0202Z" fill="#263238"/>
<path d="M62.0284 24.1566C62.4379 24.0756 62.7751 24.0394 62.7823 24.0756C62.7895 24.1118 62.4654 24.2117 62.0588 24.2986C61.6522 24.3854 61.3135 24.4216 61.3049 24.3796C61.2962 24.3376 61.6232 24.2377 62.0284 24.1566Z" fill="#263238"/>
<path d="M61.8467 21.1364C62.262 21.1668 62.5963 21.2218 62.5948 21.258C62.5934 21.2942 62.2533 21.3043 61.838 21.2797C61.4227 21.2551 61.087 21.2015 61.0899 21.1581C61.0928 21.1147 61.4314 21.0987 61.8467 21.1364Z" fill="#263238"/>
<path d="M62.4757 18.1636C62.8679 18.3084 63.1747 18.4532 63.1631 18.4836C63.1515 18.514 62.8216 18.4358 62.428 18.2997C62.0344 18.1636 61.7276 18.0217 61.7406 17.9811C61.7537 17.9406 62.085 18.0217 62.4757 18.1636Z" fill="#263238"/>
<path d="M63.8804 15.4771C64.219 15.7189 64.4766 15.939 64.4592 15.9694C64.4419 15.9998 64.1438 15.8319 63.8008 15.5959C63.4579 15.3598 63.2003 15.1397 63.222 15.1035C63.2437 15.0673 63.5403 15.2353 63.8804 15.4771Z" fill="#263238"/>
<path d="M65.9513 13.2645C66.2132 13.5874 66.4028 13.8683 66.3753 13.8929C66.3478 13.9175 66.1061 13.6757 65.8399 13.3557C65.5736 13.0357 65.3826 12.7562 65.4159 12.7287C65.4492 12.7012 65.6894 12.9416 65.9513 13.2645Z" fill="#263238"/>
<path d="M68.542 11.6859C68.7069 12.0682 68.8155 12.3897 68.7807 12.4099C68.746 12.4302 68.581 12.129 68.4103 11.7497C68.2395 11.3703 68.131 11.0488 68.1701 11.0257C68.2091 11.0025 68.3727 11.3051 68.542 11.6859Z" fill="#263238"/>
<path d="M71.454 10.8665C71.5104 11.2792 71.5278 11.618 71.4902 11.6238C71.4525 11.6296 71.3729 11.2995 71.3106 10.8882C71.2483 10.477 71.231 10.1367 71.273 10.1309C71.315 10.1251 71.3975 10.4538 71.454 10.8665Z" fill="#263238"/>
<path d="M74.4861 10.855C74.4311 11.2677 74.3572 11.5993 74.321 11.5949C74.2848 11.5906 74.2935 11.2503 74.3427 10.8376C74.392 10.425 74.4658 10.0919 74.5078 10.0977C74.5498 10.1035 74.5411 10.4409 74.4861 10.855Z" fill="#263238"/>
<path d="M77.4067 11.6559C77.2431 12.0396 77.0825 12.3379 77.0478 12.3234C77.013 12.3089 77.1158 11.986 77.2735 11.5994C77.4312 11.2128 77.5933 10.916 77.6324 10.9333C77.6715 10.9507 77.5716 11.2736 77.4067 11.6559Z" fill="#263238"/>
<path d="M80.0034 13.2158C79.7429 13.5416 79.5085 13.7863 79.4796 13.7631C79.4506 13.74 79.6344 13.4547 79.8905 13.126C80.1467 12.7973 80.3796 12.5468 80.4144 12.5801C80.4491 12.6134 80.2595 12.8914 80.0034 13.2158Z" fill="#263238"/>
<path d="M82.0939 15.4136C81.7553 15.6569 81.4644 15.8306 81.4427 15.8002C81.421 15.7698 81.6742 15.5454 82.0085 15.2963C82.3428 15.0473 82.6336 14.875 82.6597 14.9097C82.6857 14.9445 82.4325 15.1704 82.0939 15.4136Z" fill="#263238"/>
<path d="M83.5156 18.0958C83.1249 18.2406 82.7921 18.326 82.7834 18.2927C82.7747 18.2594 83.0728 18.1088 83.465 17.9597C83.8571 17.8106 84.1798 17.7222 84.1957 17.7628C84.2116 17.8033 83.9063 17.951 83.5156 18.0958Z" fill="#263238"/>
<path d="M84.1689 21.0527C83.7536 21.086 83.415 21.0831 83.4121 21.0527C83.4092 21.0223 83.7421 20.9557 84.1559 20.9079C84.5698 20.8601 84.9098 20.8717 84.9127 20.9151C84.9156 20.9586 84.5799 21.0194 84.1689 21.0527Z" fill="#263238"/>
<path d="M67.9207 7.77148L67.8758 7.79176L67.7427 7.84533C67.6269 7.89456 67.4533 7.95393 67.2319 8.05095C66.6081 8.3119 66.0023 8.61424 65.4187 8.95593C65.0483 9.17024 64.6561 9.42653 64.2437 9.71468C63.8313 10.0028 63.4102 10.3388 62.9891 10.7167C61.1403 12.3473 59.7281 14.4144 58.8809 16.7302C58.6826 17.2601 58.5336 17.7785 58.4048 18.2636C58.276 18.7486 58.1892 19.212 58.124 19.6348C58.0184 20.3028 57.957 20.9771 57.9403 21.6533C57.9287 21.8937 57.9403 22.079 57.9403 22.205C57.9403 22.2658 57.9403 22.3121 57.9403 22.3498C57.9416 22.3662 57.9416 22.3826 57.9403 22.399C57.9384 22.3831 57.9384 22.3671 57.9403 22.3512C57.9403 22.315 57.9403 22.2672 57.9403 22.2064C57.9403 22.0804 57.9243 21.8951 57.9316 21.6547C57.9368 20.976 57.9904 20.2986 58.0922 19.6276C58.153 19.2019 58.247 18.74 58.3643 18.2491C58.495 17.7273 58.6525 17.2126 58.836 16.707C59.6791 14.3758 61.0996 12.2967 62.9645 10.6646C63.3885 10.2866 63.8197 9.96083 64.2278 9.664C64.6358 9.36716 65.0381 9.121 65.4129 8.9096C66.0005 8.57143 66.6112 8.2753 67.2406 8.02343C67.462 7.93076 67.64 7.87864 67.7586 7.83085L67.8947 7.78452C67.903 7.77954 67.9117 7.77518 67.9207 7.77148Z" fill="white"/>
<path d="M72.2761 6.92499C72.1273 6.95592 71.9764 6.97576 71.8246 6.98436C71.5439 7.01332 71.159 7.05531 70.7335 7.11034C70.3081 7.16536 69.9246 7.22328 69.6468 7.26672C69.498 7.29734 69.347 7.3167 69.1953 7.32464C69.3392 7.27444 69.4875 7.23761 69.6381 7.21459C69.9145 7.15812 70.298 7.09151 70.7234 7.03649C71.1489 6.98147 71.5381 6.94671 71.8203 6.93079C71.9717 6.91459 72.1243 6.91265 72.2761 6.92499Z" fill="white"/>
<g opacity="0.4">
<path d="M62.5371 29.8411C62.5371 29.8411 69.3282 40.5649 79.8629 35.0727C90.8606 29.3386 84.7829 16.1953 84.7829 16.1953C84.7829 16.1953 89.9576 26.67 79.2377 33.4987C76.5679 35.2001 73.6607 35.2015 71.4438 34.9785C65.7785 34.4109 62.5371 29.8411 62.5371 29.8411Z" fill="black"/>
</g>
<path d="M76.6606 14.9873C76.7258 16.9105 76.6677 18.8359 76.4869 20.7517C76.4203 21.4453 76.3422 22.1461 76.0745 22.7905C75.8068 23.4348 75.351 24.0256 74.7085 24.2978C74.066 24.5701 73.244 24.4571 72.7969 23.9243L76.6606 14.9873Z" fill="#E0E0E0"/>
<path d="M72.7246 20.9232L77.4869 12.8984L74.613 21.9585L73.1443 22.3972L72.7246 20.9232Z" fill="#56ABA1"/>
<g opacity="0.4">
<path d="M77.4874 12.8984L73.9551 21.0984L74.6135 21.9585L77.4874 12.8984Z" fill="black"/>
</g>
<path d="M73.1418 23.9311C73.9882 23.9311 74.6743 23.2446 74.6743 22.3977C74.6743 21.5508 73.9882 20.8643 73.1418 20.8643C72.2955 20.8643 71.6094 21.5508 71.6094 22.3977C71.6094 23.2446 72.2955 23.9311 73.1418 23.9311Z" fill="#FAFAFA"/>
<path d="M74.6758 22.3968C74.6621 22.2721 74.6413 22.1484 74.6136 22.0261C74.5248 21.6958 74.3282 21.4048 74.055 21.1993C73.8543 21.0482 73.619 20.9498 73.3705 20.9131C73.122 20.8765 72.8683 20.9027 72.6326 20.9893C72.4969 21.0374 72.3694 21.1063 72.2549 21.1935C72.1329 21.282 72.0259 21.3896 71.938 21.5121C71.7499 21.7686 71.6484 22.0786 71.6484 22.3968C71.6484 22.715 71.7499 23.0249 71.938 23.2815C72.1137 23.52 72.355 23.7022 72.6326 23.8057C72.8306 23.8783 73.0416 23.9088 73.2521 23.8951C73.4625 23.8813 73.6678 23.8238 73.8548 23.726C74.0417 23.6283 74.2061 23.4925 74.3376 23.3274C74.469 23.1624 74.5645 22.9716 74.6179 22.7675C74.6459 22.6452 74.6667 22.5214 74.6802 22.3968C74.6891 22.5237 74.6779 22.6513 74.6469 22.7747C74.5678 23.12 74.3714 23.427 74.0912 23.6435C73.8991 23.7927 73.6745 23.8944 73.4357 23.9403C73.1609 23.9929 72.8771 23.9709 72.6137 23.8766C72.4707 23.8272 72.3364 23.7553 72.2158 23.6638C72.0878 23.5712 71.9755 23.4588 71.883 23.3307C71.6837 23.0623 71.5762 22.7369 71.5762 22.4026C71.5762 22.0682 71.6837 21.7428 71.883 21.4744C71.9759 21.3467 72.0882 21.2343 72.2158 21.1414C72.3369 21.0511 72.4711 20.9798 72.6137 20.93C72.877 20.835 73.161 20.813 73.4357 20.8663C73.7275 20.9224 73.9969 21.0615 74.2118 21.267C74.4266 21.4724 74.5777 21.7355 74.6469 22.0246C74.6758 22.1464 74.6856 22.272 74.6758 22.3968Z" fill="#263238"/>
<path d="M74.266 22.6268C74.3908 22.0092 73.9916 21.4072 73.3743 21.2823C72.757 21.1574 72.1555 21.5569 72.0307 22.1746C71.9059 22.7923 72.3051 23.3942 72.9224 23.5191C73.5396 23.644 74.1412 23.2445 74.266 22.6268Z" fill="#455A64"/>
<path d="M61.0605 59.2007H68.5998L65.0848 28.8887L61.0605 59.2007Z" fill="#E0E0E0"/>
<path d="M23.9632 28.8887L19.0547 59.5584L60.9401 60.1043L65.0845 28.8887H23.9632Z" fill="#FAFAFA"/>
<path d="M63.2177 42.9391H21.7129L22.6159 37.292H63.9673L63.2177 42.9391Z" fill="#EBEBEB"/>
<path d="M63.223 42.9434H21.7109L22.6154 37.2963H63.9741L63.223 42.9434ZM21.7196 42.9362H63.2172L63.9654 37.2891H22.6226L21.7196 42.9362Z" fill="#263238"/>
<path d="M23.963 28.8887L22.6172 37.2913H63.9687L65.0843 28.8887H23.963Z" fill="#3C8477"/>
<path d="M23.9689 28.8892L65.0902 28.8545H65.1293V28.8936C63.9181 38.0318 62.5434 48.395 61.0905 59.3403V59.3736H60.587L19.0893 59.362H19.0488V59.3258L23.9689 28.8892C23.9283 29.1412 22.0587 40.9003 19.1255 59.3403L19.0951 59.3041H60.5768H61.0471L61.011 59.336C62.4653 48.3907 63.8429 38.0289 65.0628 28.8907L65.096 28.9283L23.9689 28.8892Z" fill="#263238"/>
<path d="M63.9687 37.2916C63.9687 37.3118 54.7074 37.3292 43.2944 37.3292C31.8813 37.3292 22.6172 37.3118 22.6172 37.2916C22.6172 37.2713 31.8784 37.2539 43.2944 37.2539C54.7103 37.2539 63.9687 37.2698 63.9687 37.2916Z" fill="#263238"/>
<path d="M63.2192 42.939C63.2192 42.9607 53.9088 42.9767 42.4277 42.9767C30.9467 42.9767 21.6348 42.9607 21.6348 42.939C21.6348 42.9173 30.9423 42.9014 42.4277 42.9014C53.9131 42.9014 63.2192 42.9187 63.2192 42.939Z" fill="#263238"/>
<path d="M62.3759 48.1353C62.3759 48.157 53.0669 48.173 41.5858 48.173C30.1048 48.173 20.7871 48.157 20.7871 48.1353C20.7871 48.1136 30.0947 48.0977 41.5801 48.0977C53.0654 48.0977 62.3759 48.115 62.3759 48.1353Z" fill="#263238"/>
<path d="M61.5298 53.3326C61.5298 53.3528 52.2193 53.3702 40.7383 53.3702C29.2572 53.3702 19.9453 53.3528 19.9453 53.3326C19.9453 53.3123 29.2529 53.2949 40.7383 53.2949C52.2237 53.2949 61.5298 53.3123 61.5298 53.3326Z" fill="#263238"/>
<path d="M24.934 59.3824C24.9137 59.3824 25.6734 54.4303 26.6329 48.3314C27.5923 42.2325 28.3838 37.2877 28.4041 37.292C28.4243 37.2963 27.6646 42.2412 26.7067 48.343C25.7487 54.4448 24.9557 59.3853 24.934 59.3824Z" fill="#263238"/>
<path d="M31.3342 59.3824C31.3125 59.3824 32.0736 54.4303 33.0316 48.3314C33.9896 42.2325 34.7826 37.2877 34.8043 37.292C34.826 37.2963 34.0648 42.2412 33.1054 48.343C32.146 54.4448 31.3487 59.3853 31.3342 59.3824Z" fill="#263238"/>
<path d="M37.2836 59.1609C37.2633 59.1609 38.0158 54.2595 38.9636 48.2214C39.9115 42.1833 40.7001 37.2877 40.7189 37.292C40.7378 37.2963 39.9867 42.192 39.0389 48.233C38.0911 54.2739 37.3024 59.1638 37.2836 59.1609Z" fill="#263238"/>
<path d="M43.1664 59.3361C43.1462 59.3361 43.9044 54.3941 44.8609 48.3082C45.8174 42.2224 46.609 37.2877 46.6292 37.292C46.6495 37.2963 45.8912 42.2311 44.9347 48.3198C43.9782 54.4086 43.1867 59.339 43.1664 59.3361Z" fill="#263238"/>
<path d="M49.0785 59.3361C49.0583 59.3361 49.8165 54.3941 50.773 48.3082C51.7296 42.2224 52.5211 37.2877 52.5414 37.292C52.5616 37.2963 51.8048 42.2311 50.8483 48.3198C49.8918 54.4086 49.1002 59.339 49.0785 59.3361Z" fill="#263238"/>
<path d="M54.9848 59.3621C54.9645 59.3621 55.7242 54.4143 56.6822 48.3183C57.6401 42.2223 58.4317 37.2818 58.4534 37.2861C58.4751 37.2905 57.7139 42.2324 56.756 48.3299C55.798 54.4274 55.005 59.3708 54.9848 59.3621Z" fill="#263238"/>
<g opacity="0.2">
<path d="M51.2635 37.686C51.9755 37.3704 52.4212 36.629 52.605 35.8717C52.7887 35.1144 52.7598 34.3238 52.7873 33.5434C52.8148 32.7629 52.9074 31.9593 53.3053 31.2889C53.5412 30.8936 53.8726 30.5649 54.1345 30.184C54.3964 29.8032 54.5903 29.3399 54.4934 28.8809L50.0393 28.904L51.2635 37.686Z" fill="black"/>
</g>
<path d="M32.7969 43.3574C32.785 43.3768 32.7704 43.3944 32.7534 43.4095L32.6203 43.5543C32.5031 43.6745 32.3309 43.8439 32.1138 44.0554C31.6797 44.4724 31.0763 45.04 30.3889 45.6481C29.7016 46.2563 29.0649 46.7862 28.5975 47.1627C28.363 47.351 28.172 47.5015 28.0389 47.5971L27.8841 47.713C27.8668 47.728 27.8473 47.7403 27.8262 47.7492C27.8262 47.7492 27.8421 47.7303 27.8739 47.7014L28.0186 47.5739L28.5613 47.1149C29.0215 46.7283 29.6524 46.1911 30.3383 45.5859C31.0242 44.9806 31.6407 44.4188 32.0748 44.0119L32.5972 43.5297L32.7419 43.4009C32.7583 43.3841 32.7768 43.3695 32.7969 43.3574Z" fill="#263238"/>
<path d="M32.4616 47.8066C32.4001 47.7529 32.3425 47.6948 32.2894 47.6328L31.8364 47.1492C31.4457 46.7336 30.9219 46.1747 30.3445 45.5564L28.8367 43.9781L28.3794 43.4989C28.3217 43.4418 28.268 43.3809 28.2188 43.3164C28.2843 43.3648 28.3453 43.4191 28.4011 43.4786C28.514 43.5857 28.676 43.7436 28.8743 43.9405C29.2708 44.3343 29.812 44.886 30.398 45.5058C30.9841 46.1255 31.505 46.696 31.8755 47.1145C32.0607 47.323 32.2098 47.4938 32.3096 47.6126C32.3661 47.6724 32.417 47.7374 32.4616 47.8066Z" fill="#263238"/>
<path d="M34.0068 44.6885C34.0068 44.6885 34.0213 44.6508 34.0517 44.577C34.0996 44.4698 34.1578 44.3675 34.2253 44.2715C34.4914 43.8994 34.8667 43.6196 35.299 43.4707C35.6087 43.3587 35.939 43.3152 36.2671 43.3433C36.6578 43.3813 37.0343 43.5097 37.3669 43.7183C37.7509 43.9551 38.0752 44.2771 38.3147 44.6595C38.5918 45.0864 38.7298 45.5887 38.7098 46.0974C38.6932 46.3717 38.6081 46.6376 38.4623 46.8706C38.3096 47.1122 38.1062 47.3178 37.8661 47.4729C37.355 47.8009 36.7532 47.9586 36.147 47.9233C35.8295 47.9062 35.5168 47.8383 35.2209 47.722C34.913 47.6017 34.636 47.4136 34.4105 47.1718C34.2985 47.0445 34.2041 46.9028 34.1298 46.7504C34.059 46.5948 34.0103 46.4301 33.9851 46.261C33.937 45.9146 33.9672 45.5618 34.0734 45.2286C34.2946 44.5337 34.7744 43.9505 35.4134 43.5996C35.7446 43.4175 36.1131 43.3139 36.4907 43.2965C36.8682 43.2792 37.2447 43.3487 37.5912 43.4997C37.9502 43.6511 38.2645 43.8918 38.5043 44.1991C38.7444 44.5146 38.8944 44.8894 38.9384 45.2836C38.9885 45.6834 38.9238 46.0892 38.7517 46.4536C38.6634 46.6364 38.5472 46.8045 38.4073 46.9517C38.265 47.0968 38.1045 47.2228 37.9298 47.3267C37.5774 47.5209 37.1888 47.6404 36.7882 47.6778C36.3877 47.7151 35.9837 47.6696 35.6015 47.5439C35.2251 47.4283 34.8791 47.2304 34.5885 46.9647C34.3003 46.6988 34.1033 46.3486 34.0256 45.9641C33.9441 45.5862 33.9978 45.1915 34.1776 44.8492C34.2687 44.6805 34.3938 44.5326 34.5451 44.4148C34.694 44.3024 34.8602 44.2148 35.0371 44.1556C35.3846 44.0441 35.7491 43.9951 36.1137 44.0108C36.4687 44.0134 36.8219 44.0621 37.1643 44.1556C37.5029 44.2447 37.8157 44.4124 38.0774 44.645C38.3281 44.8791 38.4992 45.186 38.5665 45.5225C38.633 45.8477 38.6135 46.1846 38.5101 46.4999C38.4077 46.804 38.2346 47.0794 38.0051 47.3035C37.5691 47.73 36.9919 47.9815 36.3829 48.0101C36.0979 48.0252 35.8126 47.9839 35.5436 47.8885C35.2853 47.7958 35.053 47.6423 34.8664 47.4411C34.6897 47.249 34.556 47.0215 34.4742 46.7736C34.3936 46.5411 34.3578 46.2954 34.3686 46.0496C34.3892 45.5943 34.5708 45.1612 34.8808 44.8275C35.1459 44.5372 35.4814 44.3203 35.8547 44.1976C36.1681 44.0954 36.5001 44.0638 36.8271 44.1049C37.2791 44.1611 37.7085 44.3343 38.0731 44.6074C38.1677 44.677 38.2572 44.7535 38.3408 44.8362C38.3972 44.8926 38.4247 44.923 38.4247 44.923C38.4247 44.923 38.3929 44.8955 38.3364 44.842C38.2505 44.7621 38.1596 44.6876 38.0644 44.619C37.6992 44.354 37.2722 44.187 36.8242 44.1339C36.471 44.093 36.1131 44.1374 35.7805 44.2633C35.4479 44.3893 35.1503 44.5932 34.9127 44.8579C34.6106 45.1844 34.4347 45.6079 34.4163 46.0525C34.4065 46.2935 34.4423 46.5343 34.522 46.762C34.6026 47.0024 34.7333 47.223 34.9054 47.4092C35.0868 47.6042 35.312 47.7532 35.5624 47.8436C35.8249 47.9349 36.1025 47.9743 36.38 47.9595C36.9744 47.9301 37.5373 47.6833 37.9616 47.2659C38.1834 47.0489 38.3505 46.7824 38.4493 46.4883C38.5483 46.1835 38.5663 45.8581 38.5014 45.5442C38.4362 45.2211 38.2718 44.9265 38.0311 44.7015C37.7765 44.4775 37.4733 44.3159 37.1455 44.2295C36.8087 44.1372 36.4615 44.0885 36.1123 44.0847C35.7563 44.0712 35.4008 44.1202 35.0617 44.2295C34.7158 44.3354 34.4231 44.5688 34.2427 44.8825C34.0714 45.2099 34.0202 45.587 34.098 45.9482C34.173 46.3175 34.3629 46.6536 34.6406 46.9082C34.9222 47.1686 35.2584 47.3625 35.6246 47.4758C35.9966 47.5983 36.3898 47.6427 36.7797 47.6064C37.1696 47.57 37.5478 47.4536 37.8907 47.2644C38.0601 47.165 38.2153 47.0432 38.3524 46.9024C38.4867 46.7612 38.5985 46.6 38.6837 46.4246C38.8503 46.073 38.913 45.6812 38.8646 45.2952C38.8232 44.9146 38.6797 44.5524 38.4493 44.2468C38.2175 43.9498 37.9136 43.7171 37.5666 43.5706C37.2304 43.4236 36.8649 43.3558 36.4984 43.3724C36.1319 43.389 35.774 43.4895 35.4524 43.6662C34.8314 44.0084 34.3653 44.5759 34.1501 45.2517C34.0469 45.5751 34.0168 45.9173 34.0618 46.2537C34.0878 46.4171 34.1365 46.576 34.2065 46.7258C34.2781 46.8721 34.3686 47.0084 34.4757 47.1312C34.6939 47.3654 34.9619 47.5475 35.26 47.6641C35.5493 47.7786 35.8552 47.846 36.1658 47.8639C36.759 47.9002 37.3485 47.7482 37.8502 47.4295C38.0821 47.2875 38.2774 47.0929 38.4204 46.8615C38.5634 46.6302 38.6502 46.3684 38.6736 46.0974C38.6938 45.5999 38.5599 45.1083 38.2901 44.6899C38.0559 44.3124 37.7381 43.9938 37.3611 43.7589C37.0345 43.552 36.6646 43.4237 36.2801 43.3838C35.9569 43.3532 35.631 43.3937 35.3251 43.5026C34.8966 43.6475 34.5229 43.9204 34.2542 44.2845C34.185 44.3789 34.1249 44.4798 34.0748 44.5857C34.0256 44.6523 34.0068 44.6885 34.0068 44.6885Z" fill="#FEE675"/>
<path d="M37.9257 48.6857C37.9387 48.7017 36.7912 49.6834 35.3615 50.8794C33.9318 52.0755 32.7568 53.0297 32.7481 53.0138C32.7394 52.9978 33.8826 52.0161 35.3123 50.8215C36.742 49.6269 37.9127 48.6698 37.9257 48.6857Z" fill="#263238"/>
<path d="M38.177 52.8855C38.1089 52.8454 38.0445 52.7994 37.9845 52.7479L37.4752 52.3512C37.0483 52.0123 36.4622 51.5403 35.8168 51.0161C35.1714 50.492 34.5912 50.0141 34.173 49.6652L33.6795 49.2481C33.617 49.2004 33.5589 49.1471 33.5059 49.0889C33.5737 49.1294 33.638 49.1754 33.6983 49.2264L34.2062 49.6232C34.6331 49.962 35.2192 50.434 35.8646 50.9582C36.51 51.4824 37.0902 51.9602 37.5099 52.3092L38.0019 52.7248C38.0641 52.774 38.1226 52.8278 38.177 52.8855Z" fill="#263238"/>
<path d="M50.0052 48.7425C50.0168 48.7584 48.9199 49.5997 47.5524 50.6248C46.185 51.65 45.0678 52.4594 45.0548 52.4421C45.0418 52.4247 46.1401 51.5848 47.5076 50.5597C48.8751 49.5345 49.9922 48.7251 50.0052 48.7425Z" fill="#263238"/>
<path d="M50.4351 52.3048C50.425 52.3221 49.2587 51.5996 47.8304 50.6888C46.4021 49.778 45.2575 49.028 45.2676 49.0091C45.2778 48.9903 46.4441 49.7158 47.8724 50.6251C49.3006 51.5344 50.4525 52.2874 50.4351 52.3048Z" fill="#263238"/>
<path d="M38.1134 59.3375C38.0975 59.323 39.2378 58.127 40.6588 56.6689C42.0799 55.2107 43.2448 54.0364 43.2636 54.0509C43.2824 54.0654 42.1392 55.2614 40.7182 56.721C39.2971 58.1806 38.1279 59.352 38.1134 59.3375Z" fill="#3C8477"/>
<path d="M42.9364 59.3365C42.9364 59.3365 42.9176 59.3206 42.8887 59.2859L42.7671 59.1411C42.6543 58.9963 42.5038 58.8095 42.32 58.5807C41.9423 58.1086 41.4069 57.4672 40.7861 56.7852C40.1653 56.1032 39.5763 55.511 39.1422 55.091L38.6271 54.5843L38.4824 54.4481C38.4656 54.4329 38.4506 54.4159 38.4375 54.3975C38.4375 54.3975 38.4592 54.409 38.4925 54.4366L38.6372 54.5625C38.766 54.6726 38.9483 54.8362 39.1712 55.0418C39.614 55.453 40.2102 56.0409 40.8338 56.7244C41.4575 57.4078 41.9915 58.0565 42.3533 58.5372C42.5385 58.7776 42.6846 58.9716 42.7874 59.1164L42.8988 59.2757C42.9138 59.2944 42.9265 59.3148 42.9364 59.3365Z" fill="#3C8477"/>
<path d="M31.0889 53.2453C31.0889 53.2453 31.1352 56.803 30.238 58.933L24.7695 58.0005C24.7695 58.0005 26.4163 54.6295 25.9677 52.7559L31.0889 53.2453Z" fill="#EBEBEB"/>
<path d="M31.0876 53.1127C31.0876 53.1127 30.4017 57.4798 29.9821 58.783L24.5469 57.7028C24.5469 57.7028 25.6655 53.4804 25.651 52.3047L31.0876 53.1127Z" fill="#FEE675"/>
<path d="M26.2031 54.2625C26.2031 54.2828 27.0106 54.471 28.0163 54.6824C29.022 54.8938 29.8396 55.0488 29.844 55.0299C29.8483 55.0111 29.0365 54.8214 28.0308 54.61C27.0251 54.3986 26.2075 54.2422 26.2031 54.2625Z" fill="white"/>
<path d="M26.0645 55.188C26.0645 55.2083 26.8719 55.3951 27.8776 55.608C28.8833 55.8208 29.7009 55.9743 29.7053 55.9555C29.7096 55.9366 28.8978 55.747 27.8921 55.5356C26.8864 55.3241 26.0688 55.1634 26.0645 55.188Z" fill="white"/>
<path d="M26.8633 56.2354C26.956 56.2757 27.0531 56.3048 27.1527 56.3222C27.3394 56.3671 27.5984 56.4265 27.8835 56.4873C28.1685 56.5481 28.4305 56.5974 28.62 56.6321C28.7213 56.6575 28.8253 56.6702 28.9297 56.6697C28.8335 56.6292 28.733 56.5996 28.6302 56.5814C28.4449 56.5351 28.1859 56.4757 27.8994 56.4164C27.6129 56.357 27.3524 56.3049 27.1643 56.2716C27.0658 56.2474 26.9647 56.2352 26.8633 56.2354Z" fill="white"/>
<path d="M56.9595 43.2559C56.9595 43.2559 57.5195 46.7223 56.9523 48.9334L51.4766 48.8161C51.4766 48.8161 52.5966 45.2859 51.8861 43.5208L56.9595 43.2559Z" fill="#EBEBEB"/>
<path d="M56.9358 43.126C56.9358 43.126 56.8996 47.4859 56.6782 48.8166L51.2126 48.5574C51.2126 48.5574 51.6916 44.2713 51.5021 43.126H56.9358Z" fill="#455A64"/>
<path d="M52.2793 45.0666C52.2793 45.0869 53.1012 45.1043 54.1156 45.1057C55.13 45.1071 55.9534 45.0927 55.9534 45.0724C55.9534 45.0521 55.1315 45.0348 54.1156 45.0333C53.0998 45.0319 52.2793 45.0463 52.2793 45.0666Z" fill="white"/>
<path d="M52.332 45.9895C52.332 46.0097 53.154 46.0271 54.1684 46.0286C55.1828 46.03 56.0061 46.0155 56.0061 45.9952C56.0061 45.975 55.1842 45.9576 54.1684 45.9562C53.1525 45.9547 52.332 45.9692 52.332 45.9895Z" fill="white"/>
<path d="M53.3086 46.8389C53.4094 46.8606 53.5124 46.8698 53.6154 46.8665C53.8049 46.8665 54.0669 46.8766 54.3563 46.878C54.6457 46.8795 54.9062 46.878 55.0957 46.8679C55.1986 46.872 55.3016 46.8638 55.4025 46.8433C55.3017 46.8218 55.1987 46.813 55.0957 46.8172C54.9062 46.81 54.6457 46.8056 54.3563 46.8042C54.0669 46.8027 53.8049 46.8042 53.6154 46.8143C53.5125 46.8102 53.4095 46.8185 53.3086 46.8389Z" fill="white"/>
<path d="M58.1202 33.2608C57.0986 33.2608 56.0697 32.6193 55.5285 31.6101C55.0024 30.6051 54.8394 29.4491 55.0669 28.3376C55.3665 26.8897 56.3244 25.7023 57.5081 25.3229C58.5138 25 60.3111 25.1781 61.1591 26.5986C61.563 27.2932 61.7636 28.0875 61.7379 28.8908C61.7341 28.9478 61.7191 29.0036 61.6938 29.0548C61.6685 29.106 61.6333 29.1518 61.5903 29.1894C61.5473 29.2271 61.4973 29.2559 61.4432 29.2742C61.3891 29.2925 61.3318 29.3 61.2748 29.2962C61.1597 29.2885 61.0523 29.2354 60.9763 29.1485C60.9004 29.0616 60.862 28.9481 60.8697 28.8328C60.8775 28.2057 60.7165 27.5881 60.4037 27.0446C59.7496 25.9514 58.3156 25.9731 57.7628 26.1497C56.7499 26.4741 56.1016 27.5702 55.9062 28.5128C55.7186 29.4254 55.8521 30.3749 56.2839 31.2003C56.7108 31.9967 57.5747 32.4919 58.3402 32.3746C58.4532 32.3589 58.5678 32.3883 58.6593 32.4565C58.7508 32.5246 58.8118 32.6261 58.8291 32.739C58.8464 32.8518 58.8187 32.9669 58.7518 33.0594C58.6849 33.1519 58.5844 33.2144 58.4719 33.2333C58.3555 33.2513 58.238 33.2605 58.1202 33.2608Z" fill="#263238"/>
<path d="M30.092 33.2605C29.0689 33.2605 28.0415 32.6191 27.5003 31.6098C26.9737 30.605 26.8101 29.449 27.0372 28.3374C27.2904 27.1153 28.1471 25.7078 29.4972 25.3198C30.1482 25.1433 30.8383 25.1783 31.4681 25.4197L31.1556 26.2306C30.7023 26.0582 30.2066 26.0314 29.7374 26.1538C28.7419 26.4434 28.0936 27.5468 27.8939 28.5126C27.7063 29.4252 27.8397 30.3746 28.2716 31.2C28.6984 31.9979 29.5638 32.4916 30.3278 32.3744L30.4595 33.233C30.3379 33.2518 30.215 33.261 30.092 33.2605Z" fill="#263238"/>
<path d="M57.7607 28.9121L57.3613 31.1H63.2379L63.7603 28.9338L57.7607 28.9121Z" fill="#3C8477"/>
<path d="M31.5825 32.9144C31.5828 33.0995 31.5282 33.2806 31.4256 33.4346C31.323 33.5887 31.177 33.7088 31.0061 33.7798C30.8352 33.8508 30.6472 33.8694 30.4657 33.8334C30.2842 33.7973 30.1175 33.7082 29.9867 33.5773C29.8559 33.4464 29.7668 33.2796 29.7308 33.098C29.6948 32.9164 29.7134 32.7282 29.7843 32.5572C29.8553 32.3863 29.9753 32.2402 30.1292 32.1375C30.2832 32.0348 30.4641 31.9802 30.6491 31.9805C30.8966 31.9809 31.1338 32.0794 31.3087 32.2544C31.4837 32.4295 31.5821 32.6668 31.5825 32.9144Z" fill="#263238"/>
<path d="M59.5845 32.9144C59.5847 33.0995 59.5301 33.2806 59.4275 33.4346C59.3249 33.5887 59.1789 33.7088 59.0081 33.7798C58.8372 33.8508 58.6491 33.8694 58.4676 33.8334C58.2862 33.7973 58.1195 33.7082 57.9886 33.5773C57.8578 33.4464 57.7688 33.2796 57.7327 33.098C57.6967 32.9164 57.7153 32.7282 57.7863 32.5572C57.8572 32.3863 57.9773 32.2402 58.1312 32.1375C58.2852 32.0348 58.4661 31.9802 58.6511 31.9805C58.8985 31.9809 59.1357 32.0794 59.3107 32.2544C59.4856 32.4295 59.5841 32.6668 59.5845 32.9144Z" fill="#263238"/>
<path d="M44.1621 14.8115L42.6253 20.644L37.3203 21.2145V22.1557L44.7742 22.4178L46.1749 15.8743L44.1621 14.8115Z" fill="#FFBE9D"/>
<path d="M46.3967 22.5715C46.3967 22.5715 38.1079 22.1762 35.7477 24.0195C33.3875 25.8628 34.5307 28.8891 34.5307 28.8891L47.8698 28.8543L49.0477 22.0879L46.3967 22.5715Z" fill="#263238"/>
<path d="M47.8079 27.0365C47.7677 27.0375 47.7275 27.0346 47.6878 27.0278C47.6097 27.0191 47.4953 27.0075 47.3477 26.9887C47.0583 26.9525 46.6242 26.8917 46.1033 26.8033C44.7355 26.5706 43.3826 26.2578 42.0515 25.8665C41.2729 25.6363 40.5364 25.4046 39.8563 25.2352C39.2559 25.0797 38.6419 24.9827 38.0228 24.9456C37.6051 24.9222 37.1862 24.9465 36.774 25.018C36.6293 25.0354 36.5179 25.073 36.4397 25.086C36.4011 25.0956 36.362 25.1028 36.3225 25.1078C36.3593 25.0919 36.3976 25.0798 36.4368 25.0716C36.5456 25.0377 36.6562 25.0101 36.7682 24.989C37.1814 24.9055 37.6032 24.8729 38.0243 24.892C38.6522 24.9219 39.2756 25.0146 39.8852 25.1686C40.5697 25.3336 41.3077 25.5653 42.0833 25.7956C43.4072 26.1834 44.7505 26.502 46.1076 26.7498C46.63 26.8453 47.054 26.9134 47.3477 26.9597L47.6863 27.0133C47.7274 27.0176 47.7681 27.0254 47.8079 27.0365Z" fill="#455A64"/>
<path d="M40.1067 25.1899C39.8764 24.9999 39.631 24.8289 39.373 24.6788C39.1026 24.5522 38.8224 24.4476 38.5352 24.366C38.6243 24.3582 38.7141 24.3671 38.8 24.3921C39.0116 24.4377 39.216 24.5117 39.4077 24.6122C39.5992 24.7132 39.7763 24.8393 39.9345 24.9872C40.0039 25.0435 40.0623 25.1123 40.1067 25.1899Z" fill="#455A64"/>
<path d="M47.2764 40.6016L47.3879 44.0869L46.6875 46.8699C46.6761 46.9175 46.6747 46.967 46.6833 47.0153C46.6919 47.0635 46.7104 47.1095 46.7375 47.1502C46.7647 47.191 46.8 47.2257 46.8412 47.2522C46.8823 47.2787 46.9285 47.2965 46.9769 47.3043C47.0328 47.3145 47.0904 47.3111 47.1448 47.2945C47.1992 47.2779 47.2488 47.2485 47.2895 47.2087C47.8162 46.6932 49.7495 44.7877 49.7249 44.5343C49.6988 44.2447 49.8508 40.8477 49.8508 40.8477L47.2764 40.6016Z" fill="#FEE675"/>
<g opacity="0.6">
<path d="M46.9668 47.3087L49.7162 44.3027V44.4475C49.7179 44.5755 49.6737 44.6998 49.5918 44.7979C49.3733 45.06 48.7525 45.771 47.2924 47.2103C47.2506 47.2516 47.1993 47.282 47.143 47.2986C47.0867 47.3153 47.0272 47.3178 46.9697 47.3058L46.9668 47.3087Z" fill="white"/>
</g>
<g opacity="0.6">
<path d="M48.9835 43.1841C48.9394 43.2164 48.909 43.2641 48.8985 43.3178C48.8881 43.3715 48.8983 43.4272 48.927 43.4737C48.9575 43.517 49.0034 43.5472 49.0553 43.5579C49.1072 43.5687 49.1613 43.5593 49.2065 43.5316C49.2519 43.4979 49.283 43.4485 49.2938 43.393C49.3045 43.3375 49.294 43.28 49.2644 43.2319C49.2284 43.1894 49.1773 43.1627 49.1219 43.1573C49.0665 43.1519 49.0111 43.1682 48.9676 43.2029" fill="white"/>
</g>
<path d="M47.7496 45.7774C47.7293 45.7876 47.6483 45.6066 47.4413 45.5095C47.3133 45.4592 47.1766 45.4346 47.0391 45.4372C47.0391 45.4285 47.0796 45.401 47.1606 45.3879C47.268 45.3749 47.3769 45.3929 47.4743 45.4399C47.5718 45.4868 47.6537 45.5608 47.7105 45.6529C47.751 45.7239 47.7568 45.7745 47.7496 45.7774Z" fill="#263238"/>
<path d="M47.5008 46.2489C47.4007 46.1942 47.2973 46.1459 47.1911 46.1041C47.0781 46.0842 46.9641 46.0706 46.8496 46.0635C46.9028 46.0293 46.9634 46.0084 47.0264 46.0026C47.0894 45.9968 47.1528 46.0063 47.2114 46.0302C47.4169 46.0853 47.5182 46.2388 47.5008 46.2489Z" fill="#263238"/>
<path d="M48.2038 45.172C48.0559 45.0745 47.9012 44.9879 47.7407 44.9129C47.5712 44.861 47.3981 44.8223 47.2227 44.797C47.4049 44.7588 47.5943 44.7738 47.7683 44.8403C47.9422 44.9068 48.0934 45.022 48.2038 45.172Z" fill="#263238"/>
<path d="M48.2579 44.1127C48.2492 44.1344 48.0553 44.0548 47.8049 44.049C47.5546 44.0432 47.3563 44.104 47.3477 44.0823C47.488 44.0049 47.6467 43.9668 47.8069 43.9722C47.9672 43.9775 48.1229 44.0261 48.2579 44.1127Z" fill="#263238"/>
<path d="M48.2508 43.0889C48.0984 43.041 47.9401 43.0142 47.7805 43.0093C47.6222 43.0277 47.4674 43.0682 47.3203 43.1295C47.3203 43.1222 47.3522 43.0774 47.4317 43.031C47.5383 42.9708 47.6575 42.9367 47.7797 42.9314C47.902 42.9261 48.0237 42.9498 48.135 43.0006C48.2146 43.0397 48.2566 43.0803 48.2508 43.0889Z" fill="#263238"/>
<path d="M47.7846 42.8129C47.7756 42.7694 47.7756 42.7246 47.7846 42.6811C47.7954 42.5601 47.8303 42.4424 47.8873 42.3351C47.9212 42.2524 47.9818 42.1836 48.0595 42.1396C48.0864 42.1275 48.1163 42.124 48.1453 42.1294C48.1743 42.1349 48.2009 42.149 48.2216 42.17C48.2589 42.2135 48.2789 42.2691 48.278 42.3264C48.2712 42.4431 48.2242 42.5538 48.1451 42.6399C48.066 42.7259 47.9596 42.7819 47.8439 42.7984C47.7285 42.8113 47.6118 42.7895 47.5087 42.7359C47.4057 42.6822 47.3209 42.5992 47.2651 42.4972C47.251 42.4715 47.2427 42.4431 47.2407 42.4138C47.2387 42.3846 47.2431 42.3552 47.2535 42.3278C47.267 42.3019 47.2881 42.2807 47.314 42.267C47.3398 42.2533 47.3692 42.2477 47.3982 42.2511C47.4842 42.2695 47.564 42.3099 47.6297 42.3684C47.7247 42.4436 47.806 42.5347 47.87 42.6377C47.8955 42.674 47.9141 42.7148 47.9249 42.7579C47.833 42.627 47.7223 42.5104 47.5965 42.4118C47.5377 42.3636 47.4682 42.3303 47.3939 42.3148C47.3778 42.3121 47.3613 42.3145 47.3467 42.3218C47.3322 42.3291 47.3203 42.3408 47.3128 42.3553C47.3077 42.3739 47.3063 42.3934 47.3088 42.4125C47.3113 42.4317 47.3176 42.4502 47.3273 42.4668C47.378 42.5531 47.4525 42.623 47.5417 42.6681C47.631 42.7133 47.7314 42.7319 47.8309 42.7217C47.9296 42.7091 48.0209 42.6629 48.0897 42.591C48.1584 42.519 48.2004 42.4256 48.2086 42.3264C48.2105 42.2867 48.1981 42.2477 48.1738 42.2163C48.1629 42.2039 48.1483 42.1954 48.1321 42.192C48.1159 42.1886 48.0991 42.1906 48.0841 42.1975C48.0206 42.2363 47.9702 42.2933 47.9394 42.3611C47.8624 42.5018 47.8101 42.6546 47.7846 42.8129Z" fill="#263238"/>
<path d="M49.0402 22.0879C49.0402 22.0879 45.4558 28.8688 45.4066 30.0518C45.3574 31.2348 45.4066 42.1396 45.4066 42.1396H50.9547C51.0994 42.1396 51.9315 37.2266 51.7622 36.0957C51.5929 34.9648 50.9952 28.8862 50.9952 28.8862H54.1875C54.1875 28.8862 55.0629 27.9493 55.0311 26.7606C55.0123 26.1046 54.584 24.7638 54.1629 24.0528C53.8894 23.5967 52.137 21.209 52.137 21.209L49.0402 22.0879Z" fill="#263238"/>
<path d="M48.7997 22.547C48.7958 22.5606 48.7904 22.5737 48.7837 22.5861C48.7707 22.6151 48.7533 22.6513 48.7316 22.6962L48.5233 23.119C48.4292 23.3029 48.3178 23.5259 48.1875 23.7851L47.9792 24.2006L47.7607 24.6741L46.6855 27.0039C46.4814 27.4383 46.2673 27.9031 46.0444 28.3795L45.7073 29.1035C45.5983 29.3539 45.5159 29.615 45.4613 29.8825C45.4063 30.1508 45.3777 30.4238 45.3759 30.6977C45.3672 30.9685 45.3614 31.2364 45.3571 31.4985C45.3571 32.0255 45.3469 32.5323 45.3484 33.0159C45.3484 33.9832 45.36 34.8549 45.3701 35.5861C45.3802 36.3173 45.3889 36.9038 45.3961 37.3237C45.3961 37.5235 45.3961 37.6813 45.3961 37.7943C45.3961 37.845 45.3961 37.8855 45.3961 37.9174C45.3961 37.9492 45.3961 37.9594 45.3961 37.9594C45.3937 37.9455 45.3937 37.9313 45.3961 37.9174C45.3961 37.8855 45.3961 37.845 45.3961 37.7957C45.3961 37.6813 45.3846 37.525 45.3759 37.3237C45.3614 36.9154 45.3426 36.3231 45.3267 35.5861C45.3108 34.8491 45.2934 33.9846 45.2891 33.0159C45.2891 32.5323 45.2891 32.0241 45.2891 31.4985C45.2891 31.2349 45.2977 30.967 45.3079 30.6948C45.3093 30.4166 45.3379 30.1392 45.3933 29.8666C45.4493 29.594 45.5337 29.3281 45.645 29.0731L45.9837 28.3491L46.629 26.9764L47.7259 24.6524L47.9488 24.1804C48.0255 24.0356 48.0935 23.8908 48.1629 23.7677L48.5088 23.1074C48.6029 22.9293 48.6781 22.7903 48.7302 22.6904C48.7548 22.6469 48.7751 22.6122 48.7895 22.5832C48.804 22.5543 48.7982 22.5456 48.7997 22.547Z" fill="#455A64"/>
<path d="M47.6407 24.8576C47.5256 24.5819 47.4288 24.2989 47.3511 24.0105C47.2495 23.7296 47.1667 23.4423 47.1035 23.1504C47.2385 23.418 47.3453 23.699 47.4221 23.9888C47.5246 24.2701 47.5978 24.5612 47.6407 24.8576Z" fill="#455A64"/>
<path d="M51.7756 35.884C51.7664 35.8594 51.7605 35.8335 51.7582 35.8073C51.7515 35.7484 51.7414 35.6746 51.7279 35.5857C51.7018 35.3816 51.6685 35.1036 51.6266 34.7662C51.547 34.0654 51.4399 33.114 51.3212 32.0628C51.2026 31.0116 51.1056 30.0487 51.0463 29.3551C51.0188 29.0163 50.9956 28.7382 50.9783 28.5341C50.9783 28.4429 50.9667 28.369 50.9624 28.3096C50.9605 28.2836 50.9605 28.2575 50.9624 28.2314C50.9715 28.2561 50.9768 28.282 50.9783 28.3082C50.9855 28.3676 50.9956 28.4414 51.0072 28.5312C51.0304 28.7353 51.0622 29.0119 51.0998 29.3507C51.1765 30.0516 51.2807 31.0043 51.3892 32.0556C51.4978 33.1068 51.6005 34.0581 51.6787 34.7604C51.7105 35.0992 51.738 35.3772 51.7568 35.5814C51.764 35.6712 51.7698 35.7465 51.7742 35.8058C51.7769 35.8318 51.7774 35.858 51.7756 35.884Z" fill="#455A64"/>
<path d="M50.3651 3.92786C50.2797 3.34867 50.776 2.7912 51.3491 2.72314C51.9221 2.65509 52.4995 3.01274 52.7629 3.53546C52.8854 3.79834 52.9526 4.08368 52.96 4.37366C52.9675 4.66365 52.9152 4.95206 52.8063 5.22091C52.6616 5.58725 52.3939 5.95793 52.0046 5.98689C51.6153 6.01585 51.3172 5.71902 51.0597 5.44535" fill="#263238"/>
<path d="M46.2908 6.80105C45.1332 4.26274 47.8826 2.98707 49.3774 3.40988C50.784 3.80807 51.3845 4.5089 51.616 5.45009C51.8696 6.39435 51.819 7.39462 51.4713 8.3084C51.289 8.75149 50.9619 9.20036 50.4873 9.25538" fill="#263238"/>
<path d="M50.2769 4.8182C50.3959 4.83054 50.506 4.88732 50.5851 4.97721C50.6642 5.06711 50.7066 5.18352 50.7037 5.30327L50.4331 11.7642C50.423 12.5273 49.3102 12.9588 48.4926 12.9414C47.6692 12.924 47.6417 12.5186 47.6244 11.7931C47.6056 10.5812 47.6056 10.1251 47.6056 10.1323C47.6056 10.1395 46.5637 9.95854 46.3481 8.59888C46.2395 7.92267 46.2743 6.81352 46.3307 5.90708C46.3828 5.09187 46.9225 4.08986 47.7358 4.1695L50.2769 4.8182Z" fill="#FFBE9D"/>
<path d="M46.8633 6.68082C46.8625 6.72641 46.8797 6.77049 46.9111 6.80354C46.9425 6.83659 46.9857 6.85596 47.0313 6.85747C47.0535 6.85924 47.0759 6.85653 47.097 6.8495C47.1182 6.84247 47.1377 6.83127 47.1544 6.81655C47.1712 6.80183 47.1848 6.7839 47.1945 6.76381C47.2042 6.74373 47.2097 6.72191 47.2108 6.69964C47.2112 6.65415 47.1939 6.61028 47.1626 6.57732C47.1313 6.54435 47.0883 6.52487 47.0429 6.52299C47.0206 6.52122 46.9983 6.52392 46.9771 6.53095C46.956 6.53798 46.9364 6.54919 46.9197 6.56391C46.9029 6.57863 46.8893 6.59656 46.8796 6.61664C46.87 6.63673 46.8644 6.65855 46.8633 6.68082Z" fill="#263238"/>
<path d="M46.5748 6.4847C46.5965 6.50642 46.7296 6.4094 46.9163 6.4094C47.1029 6.4094 47.2419 6.50352 47.2621 6.48035C47.2824 6.45718 47.2505 6.42967 47.1898 6.38623C47.1086 6.3301 47.0121 6.30028 46.9134 6.3008C46.816 6.29986 46.7209 6.33088 46.6428 6.38913C46.5849 6.43257 46.5646 6.47456 46.5748 6.4847Z" fill="#263238"/>
<path d="M48.6934 6.68046C48.6929 6.725 48.7094 6.76806 48.7395 6.80088C48.7696 6.83369 48.8111 6.8538 48.8555 6.85711C48.8778 6.85888 48.9001 6.85617 48.9213 6.84914C48.9424 6.84211 48.962 6.83091 48.9787 6.81619C48.9955 6.80147 49.0091 6.78354 49.0188 6.76345C49.0284 6.74337 49.034 6.72155 49.0351 6.69928C49.0355 6.65379 49.0182 6.60992 48.9869 6.57696C48.9555 6.54399 48.9126 6.52451 48.8671 6.52263C48.8232 6.52066 48.7803 6.53615 48.7477 6.56572C48.7152 6.59529 48.6956 6.63654 48.6934 6.68046Z" fill="#263238"/>
<path d="M48.4237 6.51985C48.4454 6.54157 48.5771 6.44455 48.7637 6.44455C48.9504 6.44455 49.0893 6.53867 49.1096 6.51695C49.1298 6.49523 49.098 6.46482 49.0372 6.42138C48.9561 6.365 48.8596 6.33515 48.7608 6.33595C48.6636 6.33594 48.5688 6.36687 48.4902 6.42428C48.4237 6.46772 48.4078 6.51116 48.4237 6.51985Z" fill="#263238"/>
<path d="M47.7381 7.91195C47.6394 7.8815 47.5373 7.86303 47.4342 7.85693C47.3865 7.85693 47.3402 7.84245 47.3329 7.81059C47.3284 7.7602 47.3395 7.70964 47.3648 7.66579C47.4096 7.54995 47.4559 7.42832 47.5095 7.3009C47.6406 6.99175 47.7471 6.67268 47.8278 6.34668C47.6711 6.64428 47.539 6.95422 47.4328 7.27339L47.2967 7.64118C47.2668 7.69913 47.2581 7.76572 47.2721 7.82941C47.2793 7.84624 47.2902 7.86123 47.304 7.87327C47.3178 7.8853 47.3341 7.89407 47.3517 7.89892C47.3782 7.90592 47.4054 7.90981 47.4328 7.9105C47.5341 7.92361 47.6367 7.9241 47.7381 7.91195Z" fill="#263238"/>
<path d="M47.6094 10.1316C48.2518 10.1433 48.8848 9.97527 49.437 9.64648C49.437 9.64648 48.9942 10.5819 47.634 10.4545L47.6094 10.1316Z" fill="#EB996E"/>
<path d="M47.8198 8.36304C47.8556 8.31842 47.9021 8.28359 47.955 8.26182C48.0079 8.24004 48.0654 8.23203 48.1222 8.23851C48.1638 8.242 48.2043 8.25394 48.2411 8.27361C48.2779 8.29328 48.3103 8.32026 48.3364 8.3529C48.3613 8.38414 48.376 8.42226 48.3786 8.46212C48.3812 8.50199 48.3715 8.5417 48.3508 8.57589C48.3208 8.60974 48.2813 8.63378 48.2374 8.64488C48.1935 8.65599 48.1474 8.65364 48.1048 8.63816C48.0157 8.60677 47.934 8.5575 47.8646 8.49336C47.8436 8.47839 47.8255 8.45975 47.8111 8.43833C47.8044 8.42799 47.8008 8.41592 47.8008 8.40358C47.8008 8.39124 47.8044 8.37917 47.8111 8.36883" fill="#EB996E"/>
<path d="M48.291 8.04105C48.2606 8.04105 48.2592 8.24232 48.0855 8.38711C47.9119 8.53191 47.6948 8.50874 47.6934 8.53191C47.6919 8.55508 47.7411 8.57101 47.8381 8.5739C47.9576 8.57527 48.0738 8.53481 48.1666 8.45951C48.2547 8.38694 48.3117 8.28328 48.3258 8.16992C48.3272 8.09028 48.3041 8.0396 48.291 8.04105Z" fill="#263238"/>
<path d="M48.3368 6.19035C48.3556 6.24103 48.5437 6.21641 48.7636 6.24393C48.9836 6.27144 49.1616 6.32936 49.1905 6.28447C49.2036 6.26275 49.1717 6.21497 49.1008 6.16429C49.0054 6.10292 48.8968 6.0652 48.7839 6.05424C48.6714 6.04019 48.5572 6.0536 48.4511 6.09334C48.37 6.12519 48.3295 6.16573 48.3368 6.19035Z" fill="#263238"/>
<path d="M46.6473 5.94058C46.6806 5.98402 46.8093 5.94058 46.9656 5.94058C47.1219 5.94058 47.255 5.96954 47.2825 5.92465C47.2956 5.90293 47.2825 5.85949 47.2174 5.8204C47.1411 5.77024 47.051 5.74542 46.9598 5.74945C46.8687 5.75133 46.7803 5.78115 46.7066 5.83488C46.6516 5.87687 46.6328 5.92031 46.6473 5.94058Z" fill="#263238"/>
<path d="M48.4147 3.72377C47.9534 3.74731 47.5055 3.88675 47.1123 4.1292C46.8919 4.24353 46.6961 4.40021 46.5362 4.59027C46.3763 4.78034 46.2554 5.00007 46.1804 5.23691C46.1614 5.28617 46.1526 5.33881 46.1546 5.39159C46.1566 5.44437 46.1693 5.4962 46.192 5.54388C46.235 5.59842 46.2957 5.63622 46.3636 5.65076C46.4315 5.6653 46.5024 5.65566 46.5639 5.62352C46.6866 5.55678 46.791 5.4608 46.8678 5.34406C46.8984 5.47172 46.9714 5.58519 47.0749 5.66588C47.1784 5.74657 47.3062 5.78969 47.4373 5.78817C47.5685 5.78666 47.6953 5.7406 47.7969 5.65754C47.8985 5.57448 47.9689 5.45936 47.9965 5.33103C48.0069 5.46147 48.0671 5.5829 48.1647 5.67002C48.2623 5.75714 48.3897 5.80324 48.5203 5.79873C48.6508 5.78743 48.775 5.73824 48.8779 5.65721C48.9807 5.57617 49.0576 5.46682 49.0992 5.34261C49.1311 5.57806 49.2124 5.80408 49.3379 6.00579C49.4022 6.10591 49.4957 6.1838 49.6057 6.22888C49.7157 6.27395 49.837 6.28403 49.9529 6.25774C49.9043 6.45792 49.9073 6.66718 49.9616 6.86589C50.034 7.05702 50.322 10.328 50.5159 10.2614C50.7098 10.1948 50.7025 6.85865 50.7459 6.66462C50.8422 6.29243 50.8908 5.90951 50.8906 5.52506C50.9036 5.129 50.7753 4.74125 50.5288 4.43115C50.2822 4.12104 49.9335 3.9088 49.5449 3.83237C49.1569 3.74332 48.7588 3.7068 48.3612 3.72377" fill="#263238"/>
<path d="M51.1361 9.68104C51.1361 9.68104 51.1231 9.68973 51.0941 9.69987C51.0535 9.71477 51.0112 9.72497 50.9682 9.73028C50.767 9.75584 50.5626 9.72369 50.379 9.63756C50.1953 9.55143 50.0398 9.41486 49.9307 9.24375C49.7827 8.98598 49.7204 8.68784 49.7527 8.39234C49.7744 8.08102 49.8468 7.79722 49.88 7.53658C49.9128 7.3052 49.9331 7.07222 49.9408 6.83865C49.9408 6.63883 49.9408 6.47811 49.9408 6.36516C49.9346 6.30741 49.9346 6.24916 49.9408 6.19141C49.958 6.24836 49.9682 6.30719 49.9712 6.36661C49.987 6.52491 49.9948 6.68391 49.9944 6.843C49.9941 7.07876 49.9791 7.31427 49.9495 7.54817C49.9177 7.81459 49.8497 8.09985 49.8279 8.39958C49.797 8.68013 49.8536 8.96339 49.99 9.21045C50.1089 9.40715 50.2919 9.55694 50.5081 9.63471C50.6533 9.69015 50.8087 9.71385 50.9639 9.70421C51.0753 9.69697 51.1347 9.6738 51.1361 9.68104Z" fill="#263238"/>
<path d="M47.9342 3.54883C47.9868 3.64797 48.0113 3.75964 48.0051 3.87173C48.0101 4.14611 47.9064 4.41133 47.7166 4.6094C47.5268 4.80748 47.2663 4.92229 46.9921 4.92876C46.8808 4.93944 46.7687 4.9194 46.668 4.87084C46.668 4.8578 46.7924 4.89256 46.9892 4.87084C47.2464 4.85336 47.4879 4.74083 47.6668 4.55511C47.8458 4.3694 47.9493 4.12376 47.9573 3.86594C47.9616 3.67335 47.9211 3.55172 47.9342 3.54883Z" fill="#455A64"/>
<path d="M48.1351 5.15069C48.1424 5.15069 48.125 5.24336 48.0208 5.34472C47.9516 5.40696 47.8706 5.45456 47.7826 5.48467C47.6945 5.51478 47.6013 5.52677 47.5085 5.51992C47.3266 5.50368 47.1513 5.44356 46.9977 5.34472C46.8805 5.27087 46.8168 5.2144 46.8226 5.19992C46.8927 5.22199 46.9598 5.25263 47.0223 5.29114C47.175 5.37055 47.3416 5.41971 47.5129 5.43594C47.6829 5.44597 47.8508 5.39458 47.9861 5.29114C48.0917 5.22454 48.1264 5.1449 48.1351 5.15069Z" fill="#455A64"/>
<path d="M51.4113 4.73438C51.4209 4.85903 51.4121 4.98442 51.3852 5.10651C51.3443 5.40895 51.23 5.69678 51.0524 5.94489C50.9596 6.06793 50.8427 6.1707 50.7089 6.24689C50.575 6.32309 50.4269 6.3711 50.2739 6.38797C50.1808 6.39635 50.087 6.38702 49.9975 6.36046C49.9352 6.34163 49.9049 6.32281 49.9063 6.31847C50.0256 6.33983 50.1473 6.34519 50.2681 6.33439C50.5559 6.28764 50.8149 6.13216 50.9916 5.9C51.1611 5.6601 51.2771 5.38652 51.3317 5.09782C51.3507 4.97514 51.3773 4.85376 51.4113 4.73438Z" fill="#455A64"/>
<path d="M51.6618 5.39355C51.6751 5.43078 51.6824 5.46988 51.6835 5.50939C51.6933 5.6148 51.6957 5.72076 51.6908 5.8265C51.6832 6.1828 51.5557 6.52613 51.329 6.80099C51.201 6.95211 51.0345 7.0657 50.8471 7.12969C50.6935 7.17998 50.5296 7.18995 50.371 7.15865C50.2645 7.1383 50.1635 7.09588 50.0744 7.03412C50.0136 6.98923 49.9876 6.95593 49.9905 6.95303C50.1092 7.02862 50.2413 7.08072 50.3797 7.10652C50.529 7.12799 50.6813 7.11359 50.824 7.06453C50.9977 7.00034 51.1522 6.89266 51.2726 6.75176C51.4875 6.48708 51.6153 6.16239 51.6387 5.82216C51.6618 5.56007 51.6488 5.395 51.6618 5.39355Z" fill="#455A64"/>
<path d="M32.5874 22.8945L29.9609 28.905H33.5772L36.153 22.8467L32.5874 22.8945Z" fill="#455A64"/>
<path d="M30.679 16.5025L33.6411 22.3321H42.9834L42.6057 21.5704L39.8997 21.4894L37.6929 16.5749C37.6259 16.4252 37.517 16.2981 37.3794 16.2089C37.2417 16.1198 37.0813 16.0724 36.9173 16.0725H30.9424C30.8911 16.0706 30.8403 16.0824 30.7951 16.1067C30.7499 16.131 30.712 16.1668 30.6852 16.2105C30.6584 16.2543 30.6437 16.3044 30.6426 16.3557C30.6415 16.407 30.6541 16.4576 30.679 16.5025Z" fill="#E0E0E0"/>
<path d="M35.3555 19.1155C35.3555 19.1862 35.3345 19.2553 35.2952 19.3142C35.256 19.373 35.2001 19.4188 35.1348 19.4459C35.0695 19.473 34.9977 19.48 34.9283 19.4662C34.859 19.4524 34.7953 19.4184 34.7453 19.3684C34.6953 19.3183 34.6613 19.2546 34.6475 19.1852C34.6337 19.1159 34.6408 19.0439 34.6678 18.9786C34.6949 18.9132 34.7407 18.8574 34.7995 18.8181C34.8583 18.7788 34.9274 18.7578 34.9981 18.7578C35.0927 18.7582 35.1834 18.796 35.2504 18.863C35.3173 18.93 35.3551 19.0207 35.3555 19.1155Z" fill="#263238"/>
<path d="M43.9769 22.3438H32.5566V22.9012H43.9769V22.3438Z" fill="#455A64"/>
<path d="M40.4609 22.623L43.9354 28.9116H45.5966L45.9584 28.192L46.2912 27.4347L43.9788 22.9011L40.4609 22.623Z" fill="#455A64"/>
<path d="M46.4963 11.8408C46.4963 11.8408 44.479 12.5518 44.0449 14.8106L46.175 15.8735L46.4963 11.8408Z" fill="#FEE675"/>
<path d="M46.4975 11.8405C46.4975 11.8405 45.0866 15.0058 45.1402 16.7347C45.159 17.3356 45.5526 18.9067 45.5526 18.9067L46.2862 22.796C46.2862 22.796 51.9023 22.0358 52.0268 22.0358C52.1512 22.0358 51.8386 18.843 51.8386 18.843L52.7546 12.7079C52.7546 12.7079 52.335 11.8724 50.4393 11.5828C49.3034 11.4047 46.4975 11.8405 46.4975 11.8405Z" fill="#FEE675"/>
<path d="M45.9631 13.6797C45.9762 13.6869 45.8286 13.9229 45.6506 14.3313C45.5474 14.5704 45.4604 14.8161 45.3901 15.0669C45.3056 15.3741 45.2441 15.6873 45.2063 16.0037C45.173 16.3206 45.1629 16.6395 45.1759 16.9579C45.1891 17.2179 45.2195 17.4767 45.2671 17.7326C45.3481 18.167 45.4407 18.4334 45.4263 18.4378C45.3959 18.3801 45.3717 18.3194 45.3539 18.2568C45.3281 18.185 45.3059 18.1121 45.2874 18.0381C45.2642 17.9512 45.2338 17.8542 45.2136 17.7485C45.1593 17.4908 45.1235 17.2295 45.1065 16.9666C45.0891 16.644 45.0974 16.3206 45.1311 15.9994C45.1696 15.6785 45.2339 15.3614 45.3235 15.0509C45.3979 14.7986 45.4913 14.5522 45.6028 14.3139C45.6435 14.2214 45.6889 14.131 45.7388 14.0431C45.7734 13.975 45.8116 13.9088 45.8532 13.8448C45.8841 13.7861 45.921 13.7308 45.9631 13.6797Z" fill="#263238"/>
<path d="M47.1797 11.8122L47.2607 10.9434C47.2696 10.8531 47.3114 10.7693 47.3781 10.7078C47.4448 10.6464 47.5318 10.6117 47.6225 10.6104L50.3936 10.5684C50.4777 10.5674 50.559 10.5984 50.621 10.6551C50.6831 10.7118 50.7213 10.7901 50.7279 10.8739L50.7988 11.8108C50.5668 12.3028 50.1744 12.7011 49.686 12.9402C48.8713 13.3355 47.6051 13.3485 47.6051 13.3485L47.1797 11.8122Z" fill="#FEE675"/>
<path d="M47.9052 10.618C47.9139 10.618 47.8734 10.6745 47.856 10.7628C47.8403 10.8907 47.8403 11.0201 47.856 11.148C47.8803 11.3345 47.8803 11.5233 47.856 11.7098C47.8062 11.5282 47.7808 11.3407 47.7807 11.1523C47.7613 11.0182 47.7672 10.8817 47.7981 10.7498C47.8458 10.6499 47.9009 10.6108 47.9052 10.618Z" fill="#263238"/>
<path d="M48.5678 11.6925C48.5194 11.5151 48.496 11.3319 48.4983 11.148C48.4875 11.0179 48.4875 10.8872 48.4983 10.7571C48.5128 10.6528 48.5548 10.5992 48.5635 10.6123C48.5722 10.6253 48.5504 10.6731 48.5519 10.7687C48.5533 10.8642 48.5678 11.0003 48.5678 11.1451C48.5922 11.3268 48.5922 11.5108 48.5678 11.6925Z" fill="#263238"/>
<path d="M49.4015 11.6683C49.3416 11.4993 49.305 11.323 49.2929 11.1441C49.2571 10.9669 49.2459 10.7857 49.2595 10.6055C49.3201 10.7758 49.3566 10.9536 49.3681 11.134C49.4034 11.3098 49.4146 11.4895 49.4015 11.6683Z" fill="#263238"/>
<path d="M50.1201 11.7242C50.0539 11.5381 50.0187 11.3424 50.0158 11.145C49.988 10.9481 49.9929 10.748 50.0303 10.5527C50.0682 10.7435 50.0886 10.9374 50.0911 11.1319C50.1192 11.328 50.1289 11.5263 50.1201 11.7242Z" fill="#263238"/>
<g opacity="0.3">
<path d="M50.669 15.041C50.5576 16.0155 50.6314 17.6952 50.9758 18.6146L52.5936 15.9402L50.669 15.041Z" fill="black"/>
</g>
<path d="M52.6032 12.5078L52.6119 12.5165C53.0707 12.9984 53.4063 13.5841 53.5901 14.2237L53.8882 15.5833L50.7046 16.0756C50.5294 15.4989 50.4878 14.8898 50.5831 14.2946C50.7394 13.2695 52.6032 12.5078 52.6032 12.5078Z" fill="#FEE675"/>
<path d="M53.8865 15.5822C53.8658 15.5895 53.8445 15.5948 53.8228 15.5981L53.6405 15.6314L52.9589 15.7429L50.6523 16.0933H50.6117V16.0513C50.6045 15.8587 50.5987 15.6589 50.5944 15.4533C50.5871 14.919 50.5944 14.4079 50.6262 13.9431C50.6483 13.5265 50.7757 13.1225 50.9967 12.7687C51.1451 12.5308 51.3486 12.3322 51.59 12.1896C51.655 12.1508 51.7239 12.1188 51.7954 12.094C51.8193 12.083 51.8447 12.0757 51.8707 12.0723C51.8707 12.0723 51.7694 12.1114 51.6044 12.2171C51.3748 12.3643 51.1822 12.5625 51.0415 12.7963C50.8319 13.1477 50.7126 13.5457 50.6942 13.9546C50.6609 14.4151 50.6624 14.9248 50.6711 15.4591C50.6711 15.6618 50.6812 15.8631 50.6855 16.0542L50.6436 16.018L52.9589 15.6922L53.6433 15.6039L53.8286 15.5822C53.8478 15.5797 53.8672 15.5797 53.8865 15.5822Z" fill="#263238"/>
<path d="M47.1665 13.5866C47.0045 13.4921 46.8556 13.3768 46.7237 13.2434C46.575 13.1286 46.4426 12.9942 46.3301 12.8438C46.6408 13.0529 46.922 13.3027 47.1665 13.5866Z" fill="#FAFAFA"/>
<path d="M46.7335 15.2617C46.62 15.3784 46.4886 15.4761 46.3443 15.5513C46.2118 15.6474 46.0654 15.7226 45.9102 15.7743C46.1558 15.5631 46.4325 15.3912 46.7306 15.2646L46.7335 15.2617Z" fill="#FAFAFA"/>
<path d="M48.5095 15.6741C48.4838 15.4683 48.4838 15.2602 48.5095 15.0544C48.5106 14.8475 48.5358 14.6414 48.5848 14.4404C48.6101 14.6457 48.6101 14.8534 48.5848 15.0587C48.5843 15.2661 48.559 15.4727 48.5095 15.6741Z" fill="#FAFAFA"/>
<path d="M50.2338 17.3493C50.0898 17.214 49.9554 17.0688 49.8315 16.9149C49.6893 16.7792 49.5563 16.6341 49.4336 16.4805C49.6072 16.5813 49.7608 16.7133 49.8865 16.87C50.0297 17.0079 50.1473 17.1702 50.2338 17.3493Z" fill="#FAFAFA"/>
<path d="M50.4794 13.8467C50.3552 13.9759 50.2134 14.0871 50.0583 14.1768C49.9162 14.2863 49.7599 14.3759 49.5938 14.4432C49.7183 14.3138 49.8606 14.2026 50.0163 14.1131C50.1582 14.0042 50.3139 13.9146 50.4794 13.8467Z" fill="#FAFAFA"/>
<path d="M48.9198 12.5801C48.7825 12.7137 48.6277 12.8282 48.4597 12.9204C48.3056 13.0345 48.1373 13.128 47.959 13.1984C48.0965 13.0645 48.2512 12.9495 48.4192 12.8566C48.5739 12.7439 48.7421 12.651 48.9198 12.5801Z" fill="#FAFAFA"/>
<path d="M50.3258 13.0828C50.231 12.9427 50.1568 12.7895 50.1057 12.6282C50.0345 12.4747 49.9857 12.3119 49.9609 12.1445C50.057 12.2846 50.1312 12.4383 50.181 12.6006C50.2531 12.7532 50.302 12.9158 50.3258 13.0828Z" fill="#FAFAFA"/>
<path d="M52.2593 13.7192C52.0279 13.5586 51.827 13.3581 51.666 13.127C51.7886 13.1971 51.8978 13.2882 51.9887 13.3963C52.0977 13.4866 52.1894 13.596 52.2593 13.7192Z" fill="#FAFAFA"/>
<path d="M51.4624 15.1312C51.4164 14.9882 51.3954 14.8383 51.4002 14.6882C51.3786 14.5399 51.383 14.389 51.4132 14.2422C51.4798 14.5336 51.4964 14.8342 51.4624 15.1312Z" fill="#FAFAFA"/>
<path d="M53.0703 14.8386C52.9019 14.8654 52.73 14.8595 52.5638 14.8212C52.3943 14.8073 52.2288 14.7616 52.0762 14.6865C52.2443 14.6883 52.4118 14.7087 52.5754 14.7473C52.7432 14.76 52.9091 14.7906 53.0703 14.8386Z" fill="#FAFAFA"/>
<path d="M46.5888 17.7569C46.4707 17.5934 46.3734 17.4158 46.2992 17.2283C46.2021 17.0514 46.1273 16.8632 46.0762 16.668C46.1943 16.8314 46.2915 17.009 46.3658 17.1965C46.4631 17.3733 46.538 17.5615 46.5888 17.7569Z" fill="#FAFAFA"/>
<path d="M48.7153 20.0409C48.5793 19.9173 48.461 19.7755 48.3636 19.6196C48.2474 19.4773 48.1501 19.3206 48.0742 19.1533C48.2105 19.2771 48.3293 19.4188 48.4273 19.5747C48.5441 19.7162 48.641 19.8731 48.7153 20.0409Z" fill="#FAFAFA"/>
<path d="M50.4708 19.082C50.3218 19.1792 50.1602 19.2552 49.9903 19.3079C49.8294 19.3839 49.6583 19.4361 49.4824 19.4628C49.792 19.2892 50.1248 19.161 50.4708 19.082Z" fill="#FAFAFA"/>
<path d="M46.1406 20.9335C46.2102 20.6603 46.3273 20.4015 46.4867 20.1689C46.4622 20.3091 46.4132 20.4439 46.3419 20.5671C46.2968 20.7001 46.2287 20.8241 46.1406 20.9335Z" fill="#FAFAFA"/>
<path d="M44.7799 14.3895C44.6962 14.2835 44.6458 14.155 44.6351 14.0203C44.601 13.8898 44.607 13.752 44.6524 13.625C44.6822 13.7506 44.7016 13.8785 44.7104 14.0073C44.7438 14.1326 44.7671 14.2604 44.7799 14.3895Z" fill="#FAFAFA"/>
<path d="M47.2008 19.4678C47.0463 19.4271 46.8996 19.361 46.7667 19.2724C46.6225 19.2069 46.4896 19.1189 46.373 19.0117C46.5273 19.0531 46.6739 19.1191 46.8072 19.2072C46.9507 19.2738 47.0834 19.3616 47.2008 19.4678Z" fill="#FAFAFA"/>
<path d="M48.5964 17.0547C48.3591 17.3391 48.0834 17.5891 47.7773 17.7975C47.8872 17.6476 48.0166 17.5132 48.1623 17.3979C48.2907 17.2642 48.4367 17.1488 48.5964 17.0547Z" fill="#FAFAFA"/>
<g opacity="0.3">
<path d="M47.7441 17.0107C47.8143 17.5155 48.0393 17.986 48.3881 18.3574C48.7499 18.7107 49.3099 18.8888 49.7802 18.7049C49.8316 18.6907 49.8788 18.6644 49.9178 18.6281C49.9569 18.5918 49.9866 18.5466 50.0045 18.4964C50.0124 18.4346 49.9987 18.372 49.9658 18.3192C49.9328 18.2664 49.8825 18.2267 49.8236 18.2068C49.7063 18.1691 49.5835 18.1514 49.4604 18.1546C49.1095 18.1316 48.7703 18.0192 48.475 17.8281C48.1797 17.6371 47.9381 17.3736 47.7731 17.0629" fill="black"/>
</g>
<path d="M49.6208 18.1776C49.6208 18.1776 49.5875 18.1892 49.5238 18.195C49.4343 18.204 49.3442 18.204 49.2547 18.195C49.1218 18.1794 48.9911 18.1483 48.8654 18.1023C48.5552 17.9907 48.2797 17.7994 48.0666 17.5477C47.9801 17.4457 47.9058 17.334 47.8452 17.2147C47.8026 17.1352 47.7691 17.0512 47.7454 16.9642C47.7337 16.9331 47.7274 16.9004 47.7266 16.8672C47.741 16.8672 47.7801 16.9975 47.8915 17.1886C47.9567 17.3002 48.0328 17.4049 48.1187 17.5014C48.2251 17.6188 48.344 17.7241 48.4733 17.8156C48.6038 17.9042 48.7436 17.9784 48.89 18.0372C49.0101 18.0844 49.1347 18.1194 49.2619 18.1414C49.4804 18.1733 49.6208 18.1631 49.6208 18.1776Z" fill="#263238"/>
<path d="M41.655 20.5111L43.7504 20.2664L45.2278 21.2351L50.8714 19.8798L51.0045 16.0108L53.5123 15.6807V20.3649C53.4983 20.9336 53.2595 21.4735 52.8482 21.8662C52.437 22.259 51.8869 22.4726 51.3186 22.4601L43.0471 22.2299L42.6955 21.5262L40.9199 21.4726L41.655 20.5111Z" fill="#FFBE9D"/>
<path d="M50.8039 19.873C50.7692 19.8869 50.7333 19.898 50.6968 19.9063L50.3901 19.986L49.257 20.2669L45.512 21.1748L45.1633 21.2588H45.1488H45.1372L43.6612 20.2872H43.6815L41.5846 20.5304L41.5991 20.5217L41.0434 21.2269L40.8987 21.4123C40.8827 21.4345 40.8642 21.4548 40.8438 21.4731C40.8572 21.4494 40.8722 21.4267 40.8886 21.405L41.0333 21.2139L41.5716 20.4986H41.5803L43.6742 20.2365H43.6858H43.6945L45.1734 21.2037H45.1473L45.4961 21.1198L49.2454 20.2307L50.3843 19.9686L50.694 19.9006C50.7298 19.8885 50.7666 19.8793 50.8039 19.873Z" fill="#EB996E"/>
<path d="M42.7994 21.1117C42.529 21.1434 42.2566 21.154 41.9847 21.1436H41.84L41.8602 21.1363C41.6965 21.2869 41.5198 21.4226 41.332 21.5418C41.4812 21.377 41.6439 21.2249 41.8182 21.0871L41.8269 21.0784H41.9876C42.2586 21.0673 42.5301 21.0784 42.7994 21.1117Z" fill="#EB996E"/>
<path d="M51.8415 20.506C51.7336 20.3357 51.5935 20.1881 51.4291 20.0716C51.2546 19.973 51.0623 19.91 50.8633 19.8863C50.9218 19.866 50.9846 19.861 51.0456 19.8718C51.1934 19.8874 51.3356 19.9369 51.4611 20.0166C51.5866 20.0962 51.692 20.2037 51.7691 20.3308C51.8082 20.3818 51.8332 20.4423 51.8415 20.506Z" fill="#EB996E"/>
<path d="M15.6525 51.4385H6.20312V52.7373H15.6525V51.4385Z" fill="#263238"/>
<path d="M15.6667 52.754H6.18555V51.4219H15.6667V52.754ZM6.21738 52.7207H15.6349V51.4537H6.21738V52.7207Z" fill="#263238"/>
<path d="M7.07788 52.3066L8.43668 59.0209H13.4696L14.785 52.7396L7.07788 52.3066Z" fill="#263238"/>
<path d="M7.07812 58.3848L7.80311 59.3839H13.9199L14.7852 58.3848H7.07812Z" fill="#455A64"/>
<path d="M10.5759 52.5022C10.5571 52.5022 10.5339 49.3919 10.5223 45.5519C10.5107 41.7118 10.5223 38.6016 10.5368 38.6016C10.5513 38.6016 10.5788 41.7118 10.5904 45.5519C10.6019 49.3919 10.5947 52.5022 10.5759 52.5022Z" fill="#263238"/>
<path d="M12.681 44.7168C12.6747 44.7417 12.666 44.766 12.655 44.7892C12.6332 44.8428 12.6043 44.9094 12.571 44.9905C12.5522 45.0354 12.532 45.0831 12.5088 45.1353C12.4856 45.1874 12.4683 45.2497 12.4466 45.3119L12.3728 45.5146C12.3482 45.587 12.3279 45.6594 12.3033 45.7463C12.191 46.1265 12.1026 46.5134 12.0385 46.9047C11.9659 47.3846 11.9176 47.8679 11.8938 48.3527C11.8596 49.2347 11.8848 50.118 11.969 50.9967C11.9994 51.3355 12.0298 51.6077 12.053 51.796C12.0617 51.8843 12.0703 51.9567 12.0761 52.0132C12.0781 52.0387 12.0781 52.0644 12.0761 52.0899C12.067 52.0657 12.0612 52.0404 12.0588 52.0146C12.0486 51.9582 12.0371 51.8872 12.0226 51.8003C11.9922 51.6121 11.9531 51.3399 11.9169 51.0025C11.8185 50.1219 11.7871 49.2351 11.8229 48.3498C11.8444 47.8624 11.8927 47.3766 11.9676 46.8946C12.0345 46.5025 12.1283 46.1154 12.2483 45.7362C12.2744 45.6551 12.2961 45.5769 12.3221 45.5059L12.4003 45.3032L12.4697 45.128C12.4929 45.0744 12.516 45.0281 12.5363 44.9832L12.6332 44.7863C12.6454 44.7607 12.6615 44.7373 12.681 44.7168Z" fill="#263238"/>
<path d="M12.4385 42.2031C12.4305 42.238 12.4204 42.2723 12.4081 42.3059C12.3835 42.3769 12.3503 42.4739 12.3097 42.5955L12.2374 42.804C12.2142 42.8822 12.1882 42.9662 12.1607 43.056C12.1057 43.2355 12.042 43.4397 11.9856 43.6699L11.8901 44.0305C11.8612 44.1565 11.8322 44.2882 11.8018 44.4229C11.7353 44.6937 11.6875 44.9876 11.6267 45.2917C11.5225 45.9085 11.4314 46.5949 11.3677 47.3116C11.304 48.0284 11.2823 48.7219 11.2736 49.3489C11.265 49.9759 11.2736 50.5406 11.3055 51.0141C11.3127 51.2516 11.3286 51.4644 11.3402 51.6527C11.3518 51.8409 11.3634 52.0031 11.3749 52.1348C11.3865 52.2666 11.3923 52.3636 11.3981 52.4404C11.4 52.4756 11.4 52.5109 11.3981 52.5461C11.3888 52.512 11.383 52.4771 11.3807 52.4418C11.372 52.3651 11.3605 52.2652 11.3446 52.1377C11.3286 52.0103 11.3127 51.8481 11.2982 51.6556C11.2838 51.463 11.265 51.2545 11.2534 51.017C11.2216 50.5421 11.2085 49.9773 11.2071 49.3489C11.2056 48.7205 11.236 48.0298 11.2968 47.3073C11.3576 46.5847 11.4545 45.8998 11.5616 45.2801C11.6238 44.9717 11.6745 44.6777 11.7425 44.4113C11.7743 44.2752 11.8062 44.1434 11.8351 44.0174L11.935 43.6583C11.9943 43.4281 12.0623 43.224 12.1216 43.0444C12.1506 42.9546 12.1781 42.8721 12.2027 42.7939C12.2273 42.7157 12.2562 42.6491 12.2808 42.5868L12.3908 42.2972C12.4031 42.2642 12.4191 42.2326 12.4385 42.2031Z" fill="#263238"/>
<path d="M9.97638 53.0511C9.97487 53.039 9.97487 53.0269 9.97638 53.0149C9.97638 52.9873 9.97638 52.9526 9.9677 52.9077C9.96046 52.8092 9.95178 52.6717 9.9402 52.4965C9.91705 52.133 9.88521 51.6176 9.8447 50.9804C9.76366 49.7019 9.645 47.9397 9.42939 45.9921C9.31941 45.0191 9.19207 44.0967 9.05894 43.2598C8.98948 42.8428 8.92581 42.446 8.85201 42.0753C8.77821 41.7047 8.7073 41.3615 8.64942 41.0473C8.59153 40.7331 8.51773 40.4522 8.4613 40.2046C8.40486 39.9569 8.35421 39.7426 8.31659 39.5689C8.27897 39.3951 8.24279 39.2648 8.21819 39.1678C8.20951 39.1258 8.20082 39.0911 8.19504 39.0635C8.1928 39.0516 8.1928 39.0393 8.19504 39.0273C8.20099 39.0383 8.20538 39.05 8.20806 39.0621L8.237 39.1649C8.2645 39.2605 8.30067 39.3937 8.34843 39.5631C8.39618 39.7325 8.45261 39.9468 8.51194 40.1959C8.57127 40.4449 8.64363 40.7244 8.70875 41.0386C8.77386 41.3528 8.85345 41.6945 8.92002 42.0652C8.98658 42.4359 9.06472 42.8326 9.13418 43.2511C9.27021 44.088 9.399 45.0119 9.50897 45.9835C9.72459 47.9295 9.83601 49.6975 9.90547 50.9775C9.9402 51.619 9.9648 52.1359 9.97927 52.495C9.97927 52.6702 9.99085 52.8078 9.99374 52.9077C9.99374 52.9511 9.99374 52.9873 9.99374 53.0149C9.9898 53.0277 9.98394 53.0399 9.97638 53.0511Z" fill="#263238"/>
<path d="M10.4981 40.1047C10.4561 39.6703 10.0119 39.3315 9.56906 39.3271C9.34758 39.3369 9.13123 39.397 8.93642 39.5029C8.74161 39.6087 8.57344 39.7576 8.44469 39.9382C8.18998 40.3017 8.00589 40.7099 7.90204 41.1415C7.60394 42.1797 7.44187 43.27 7.56921 44.343C7.69655 45.4159 8.13067 46.4715 8.90051 47.2288C9.02496 47.3533 9.18993 47.4764 9.35923 47.4387C9.45085 47.412 9.53407 47.3621 9.60089 47.2939C10.3544 46.6036 10.9516 45.76 11.3524 44.8197C11.7532 43.8795 11.9484 42.8643 11.9249 41.8423C11.9133 41.4354 11.8598 41.0097 11.6355 40.6709C11.4112 40.332 10.883 39.9701 10.4995 40.1062" fill="#86C3BB"/>
<path d="M7.19308 36.5726L6.57084 37.702C6.55637 37.7281 6.53756 37.7585 6.50717 37.76C6.47678 37.7614 6.44929 37.7324 6.43192 37.7049L4.78516 35.1825L5.16429 34.9668L7.19308 36.5726Z" fill="#86C3BB"/>
<g opacity="0.2">
<path d="M7.19503 36.5726L6.57279 37.702C6.55832 37.7281 6.53951 37.7585 6.50912 37.76C6.47873 37.7614 6.45124 37.7324 6.43388 37.7049L4.78711 35.1825L5.16624 34.9668L7.19503 36.5726Z" fill="black"/>
</g>
<path d="M10.5342 38.6069L4.9167 35.2896C4.88473 35.2773 4.85549 35.2588 4.83066 35.2352C4.80583 35.2116 4.7859 35.1834 4.772 35.152C4.75029 35.0695 4.81252 34.9884 4.87185 34.9261C5.25838 34.5253 5.72662 34.2125 6.24473 34.0089C6.76285 33.8052 7.3187 33.7156 7.87452 33.746C8.4301 33.786 8.96761 33.9608 9.44059 34.2552C9.91357 34.5496 10.3078 34.9548 10.5892 35.4358C11.1304 36.4045 11.1492 37.6874 10.527 38.6069" fill="#86C3BB"/>
<path d="M5.73438 34.2311C5.75839 34.2245 5.78328 34.2216 5.80818 34.2224C5.85593 34.2224 5.92828 34.2109 6.0209 34.2123C6.28171 34.2088 6.54231 34.2291 6.79942 34.2731C7.18247 34.3388 7.55581 34.4522 7.91077 34.6105C8.5234 34.8863 9.06749 35.2943 9.50405 35.8052C9.9406 36.3162 10.2588 36.9174 10.4359 37.5658C10.5084 37.8174 10.5569 38.0754 10.5806 38.3362C10.5922 38.4274 10.5893 38.4998 10.5922 38.549C10.5947 38.5736 10.5947 38.5983 10.5922 38.6229C10.5922 38.6229 10.5792 38.5215 10.556 38.3333C10.524 38.076 10.4712 37.8218 10.3983 37.5731C10.1627 36.7477 9.70064 36.0049 9.06451 35.4291C8.42838 34.8532 7.64367 34.4673 6.79942 34.3151C6.54498 34.2667 6.28704 34.2391 6.02813 34.2326C5.82988 34.234 5.73438 34.2369 5.73438 34.2311Z" fill="#263238"/>
<path d="M9.77293 36.3174C9.68239 36.3726 9.58511 36.4159 9.48352 36.4463C9.30408 36.5172 9.0494 36.607 8.77445 36.6968C8.49951 36.7865 8.23904 36.856 8.05092 36.9024C7.9511 36.9329 7.84822 36.9523 7.74414 36.9603C7.8367 36.9155 7.93371 36.8806 8.03355 36.856L8.74841 36.6316L9.46181 36.4014C9.56248 36.3631 9.6667 36.335 9.77293 36.3174Z" fill="#263238"/>
<path d="M8.89132 33.9395C8.94163 34.1445 8.96404 34.3554 8.95793 34.5664C8.97446 34.777 8.96277 34.9888 8.92317 35.1963C8.89603 34.988 8.88538 34.7779 8.89132 34.5679C8.87477 34.3587 8.87477 34.1486 8.89132 33.9395Z" fill="#263238"/>
<path d="M4.86523 35.2273C4.99666 35.1669 5.13323 35.1185 5.27331 35.0825C5.52799 35.0029 5.88397 34.9029 6.28626 34.8074C6.68854 34.7118 7.04452 34.6394 7.29921 34.5931C7.44195 34.5612 7.58721 34.5418 7.73333 34.5352C7.59595 34.5793 7.45575 34.6142 7.31368 34.6394C7.0532 34.6973 6.69433 34.7842 6.30073 34.874C5.90712 34.9638 5.5497 35.0608 5.28778 35.1274C5.1493 35.17 5.00814 35.2034 4.86523 35.2273Z" fill="#263238"/>
<path d="M7.94413 39.06C7.46081 38.6937 6.95 38.6256 6.34367 38.6444C5.73726 38.6831 5.1434 38.8348 4.59272 39.0919C3.64489 39.506 2.75494 40.1185 2.18914 40.9844C1.62333 41.8503 1.42508 42.9971 1.84907 43.9412C1.88244 44.0399 1.95094 44.1229 2.04153 44.1743C2.14678 44.2036 2.25899 44.1949 2.35844 44.1497C3.43651 43.7978 4.52037 43.443 5.51161 42.8928C6.50285 42.3426 7.40438 41.5766 7.93545 40.576C8.07145 40.3425 8.15905 40.084 8.19303 39.8159C8.20752 39.6802 8.19295 39.543 8.15028 39.4134C8.10761 39.2838 8.03783 39.1648 7.94558 39.0643" fill="#86C3BB"/>
<path d="M7.9518 38.9473C7.92766 38.961 7.9019 38.9717 7.8751 38.9791L7.64936 39.0573L7.48584 39.1109C7.42651 39.1326 7.36284 39.1587 7.29483 39.1862C7.1588 39.2412 7.00541 39.2962 6.83321 39.3773L6.56985 39.4975C6.47723 39.5395 6.38607 39.5916 6.28911 39.6423C6.09376 39.7379 5.89696 39.8609 5.68569 39.9855C4.78331 40.5452 3.98031 41.2514 3.3096 42.0749C3.16489 42.2675 3.01295 42.4485 2.89284 42.6309C2.83062 42.7207 2.76839 42.8047 2.71341 42.8901L2.5687 43.1363C2.4674 43.2912 2.39216 43.4418 2.3198 43.5707C2.28507 43.6344 2.25034 43.6938 2.2214 43.7502C2.19246 43.8067 2.16931 43.8574 2.1476 43.9052L2.04052 44.1195C2.03043 44.1454 2.0168 44.1697 2 44.1919C2.00705 44.1649 2.01674 44.1387 2.02894 44.1137L2.123 43.8936C2.14471 43.8458 2.16786 43.7937 2.19246 43.7357C2.21706 43.6778 2.25324 43.6185 2.28652 43.5533C2.35598 43.4215 2.43123 43.2637 2.52673 43.1117C2.57593 43.032 2.62513 42.948 2.67144 42.8612C2.71775 42.7743 2.78721 42.6903 2.84798 42.5991C2.96664 42.4137 3.1128 42.2313 3.26184 42.0358C3.5991 41.621 3.96879 41.2336 4.36741 40.8774C4.77046 40.5271 5.20116 40.2099 5.6553 39.929C5.86802 39.8045 6.06771 39.6828 6.26451 39.5887C6.36292 39.5395 6.45553 39.4888 6.55393 39.4439L6.82164 39.3281C6.99094 39.2484 7.15012 39.1963 7.28904 39.1442C7.3585 39.1196 7.42217 39.095 7.48295 39.0747L7.64791 39.0255L7.878 38.9603C7.90224 38.9541 7.92691 38.9498 7.9518 38.9473Z" fill="#263238"/>
<path d="M4.18085 40.9912C3.79612 41.1379 3.4039 41.264 3.00583 41.3691C2.61375 41.4967 2.21466 41.6016 1.81055 41.6833C2.19527 41.5367 2.5875 41.4105 2.98557 41.3054C3.37789 41.1787 3.77693 41.0738 4.18085 40.9912Z" fill="#263238"/>
<path d="M4.12802 43.5807C4.10826 43.4597 4.09954 43.3371 4.10196 43.2144C4.10196 42.9885 4.10196 42.6743 4.10196 42.3297C4.10196 41.9851 4.13092 41.6709 4.14974 41.445C4.15268 41.3221 4.16821 41.1998 4.19607 41.0801C4.20582 41.2025 4.20582 41.3255 4.19607 41.4479C4.18739 41.6955 4.1787 41.9966 4.16856 42.3311C4.15843 42.6656 4.15264 42.9668 4.1454 43.2144C4.15081 43.3368 4.145 43.4594 4.12802 43.5807Z" fill="#263238"/>
<path d="M6.35486 42.4542C6.33604 42.4542 6.27667 41.8185 6.2231 41.0322C6.16952 40.246 6.13912 39.6074 6.15794 39.6074C6.17676 39.6074 6.23468 40.2416 6.28971 41.0279C6.34473 41.8141 6.37369 42.4527 6.35486 42.4542Z" fill="#263238"/>
<path d="M3.58594 39.545C3.7107 39.5292 3.83668 39.5253 3.96218 39.5334C4.19371 39.5334 4.51496 39.5421 4.86949 39.5537C5.22402 39.5652 5.54382 39.5797 5.77536 39.5928C5.90107 39.5944 6.02644 39.6065 6.15015 39.629C6.02538 39.6447 5.8994 39.6486 5.77391 39.6405C5.54238 39.6405 5.22113 39.6333 4.86659 39.6203C4.51206 39.6072 4.19226 39.5942 3.95928 39.5812C3.83403 39.5797 3.70913 39.5676 3.58594 39.545Z" fill="#263238"/>
<path d="M9.14111 47.5298C9.13468 47.5042 9.13175 47.4779 9.13243 47.4516C9.13243 47.3951 9.13243 47.3213 9.1223 47.2315C9.11362 47.0389 9.11217 46.7624 9.1223 46.4177C9.13243 46.0731 9.15124 45.6662 9.19176 45.2145C9.23228 44.7627 9.29884 44.266 9.39001 43.7491C9.48117 43.2322 9.59404 42.7471 9.70836 42.3011C9.82268 41.8551 9.94713 41.4714 10.06 41.1427C10.1729 40.814 10.2684 40.5635 10.3494 40.3811C10.3841 40.2971 10.4116 40.2363 10.4348 40.1769C10.4437 40.1528 10.4548 40.1295 10.4681 40.1074C10.4649 40.1331 10.4576 40.158 10.4464 40.1813L10.3639 40.3941C10.2973 40.5737 10.2062 40.8285 10.1005 41.1616C9.99488 41.4946 9.87912 41.8855 9.7648 42.3199C9.65048 42.7543 9.5434 43.2438 9.45078 43.7592C9.35817 44.2747 9.29595 44.7728 9.24964 45.2174C9.20334 45.6619 9.17729 46.0746 9.16571 46.4163C9.15414 46.758 9.1469 47.036 9.1469 47.2286C9.1469 47.3184 9.1469 47.3908 9.1469 47.4487C9.14687 47.4758 9.14494 47.5029 9.14111 47.5298Z" fill="#263238"/>
<path d="M9.43808 43.6953C9.37239 43.7852 9.29719 43.8677 9.21379 43.9415C9.06908 44.0863 8.86215 44.2803 8.62772 44.4874C8.3933 44.6944 8.1719 44.8725 8.00838 44.9985C7.92473 45.0713 7.83353 45.1349 7.73633 45.1882C7.80997 45.1049 7.89138 45.0287 7.97944 44.9608L8.58286 44.4367L9.18195 43.9067C9.26041 43.8283 9.34618 43.7575 9.43808 43.6953Z" fill="#263238"/>
<path d="M11.2144 45.1258C11.1264 45.0221 11.0466 44.9117 10.9756 44.7956L10.4214 43.9848L9.85414 43.1826C9.77001 43.0755 9.69407 42.9622 9.62695 42.8438C9.72488 42.9384 9.81356 43.0421 9.89177 43.1536C10.0481 43.352 10.2564 43.63 10.4706 43.9471C10.6848 44.2642 10.8787 44.5553 11.0104 44.7696C11.0893 44.8817 11.1577 45.0009 11.2144 45.1258Z" fill="#263238"/>
<path d="M10.2817 40.6195C10.2919 40.6355 9.70291 41.0337 8.96346 41.5086C8.224 41.9836 7.61768 42.3571 7.60755 42.3412C7.59742 42.3253 8.18638 41.9271 8.92728 41.4521C9.66818 40.9772 10.2731 40.6051 10.2817 40.6195Z" fill="#263238"/>
<path d="M11.9542 42.4221C11.6424 42.1623 11.3444 41.8864 11.0614 41.5954C10.7634 41.3216 10.4808 41.0316 10.2148 40.7266C10.5278 40.9856 10.8263 41.2616 11.1091 41.5534C11.4073 41.8265 11.6895 42.1165 11.9542 42.4221Z" fill="#263238"/>
<path d="M12.3672 42.3824L12.8737 42.3405C13.2338 42.3109 13.5833 42.2037 13.8982 42.0262C14.0523 41.9364 14.2118 41.8561 14.3757 41.7859C15.0023 41.5354 15.7027 41.5803 16.377 41.5455C17.4819 41.4898 18.5644 41.2131 19.5606 40.7317C19.6204 40.7053 19.6708 40.6614 19.7053 40.6058C19.8095 40.4161 19.6156 40.2467 19.4491 40.1439C18.5939 39.6168 17.7242 39.0839 16.7561 38.8219C15.7881 38.5598 14.6868 38.6047 13.862 39.1737C12.8925 39.8427 12.5379 41.2154 12.3744 42.3824" fill="#86C3BB"/>
<path d="M19.7117 40.5401C19.6825 40.5281 19.6541 40.5145 19.6263 40.4995L19.3861 40.3735C19.1777 40.2635 18.8782 40.1013 18.4976 39.9203C18.0568 39.7025 17.5972 39.5251 17.1244 39.3904C16.5461 39.224 15.9405 39.1748 15.343 39.2456C14.7447 39.3121 14.1796 39.555 13.7194 39.9435C13.36 40.2777 13.0724 40.6817 12.8743 41.1308C12.6963 41.5116 12.5849 41.836 12.5068 42.0561L12.4156 42.3124C12.4066 42.3428 12.395 42.3723 12.3809 42.4007C12.385 42.3692 12.3923 42.3381 12.4026 42.308C12.4228 42.2429 12.4489 42.156 12.4807 42.0489C12.5773 41.7325 12.6923 41.4221 12.8251 41.1192C13.0201 40.6596 13.3089 40.2458 13.6731 39.9044C14.1397 39.5022 14.7166 39.2499 15.3285 39.1804C15.9341 39.1071 16.5483 39.1564 17.1345 39.3252C17.61 39.4649 18.0716 39.6481 18.5135 39.8725C18.8912 40.0608 19.1879 40.2287 19.3934 40.346L19.6278 40.4836C19.658 40.4988 19.6862 40.5178 19.7117 40.5401Z" fill="#263238"/>
<path d="M18.4953 41.1981C18.4852 41.2126 17.821 40.784 17.0135 40.2395C16.2061 39.6951 15.5592 39.2404 15.5665 39.2259C15.5737 39.2115 16.2394 39.6401 17.0468 40.1845C17.8543 40.7289 18.5055 41.1822 18.4953 41.1981Z" fill="#263238"/>
<path d="M17.8548 39.1606C17.5169 39.2669 17.1603 39.3 16.8086 39.2576C16.9806 39.2218 17.1554 39.2015 17.331 39.1968C17.5042 39.1697 17.6795 39.1575 17.8548 39.1606Z" fill="#263238"/>
<path d="M14.8824 38.6289C14.7558 38.9286 14.5898 39.2101 14.3887 39.4658C14.4405 39.3116 14.5136 39.1654 14.6059 39.0314C14.6785 38.8848 14.7716 38.7493 14.8824 38.6289Z" fill="#263238"/>
<path d="M15.4758 41.5898C15.3639 41.5432 15.2572 41.4849 15.1574 41.4161C14.965 41.3002 14.7059 41.1265 14.4339 40.9281C14.1618 40.7297 13.9144 40.5371 13.7378 40.3981C13.639 40.3282 13.547 40.2492 13.4629 40.1621C13.5704 40.2181 13.6722 40.2846 13.7668 40.3605L14.4744 40.8745C14.7493 41.0743 15.0026 41.2495 15.1878 41.377C15.2898 41.4394 15.3862 41.5106 15.4758 41.5898Z" fill="#263238"/>
<path d="M13.1141 44.5401C12.6307 44.4112 12.0534 44.8818 11.9564 45.3727C11.8594 45.8636 12.0418 46.3646 12.2559 46.8207C12.7168 47.8334 13.4005 48.7289 14.2558 49.4401C15.1185 50.148 16.195 50.5435 17.3106 50.5623C17.1065 49.6124 17.3641 48.6191 17.2512 47.6533C17.1504 46.8026 16.7642 46.0113 16.1557 45.4087C15.5472 44.8062 14.7524 44.428 13.9013 44.3359C13.593 44.3026 13.2356 44.2549 13.1126 44.5401" fill="#86C3BB"/>
<path d="M17.3093 50.5617C17.2851 50.5536 17.2618 50.5429 17.2399 50.5298C17.1765 50.494 17.116 50.4534 17.059 50.4082C16.8563 50.2316 16.6936 50.014 16.5815 49.7696C16.5048 49.6248 16.418 49.4568 16.334 49.2758C16.2501 49.0949 16.1662 48.9037 16.0736 48.6967C15.9807 48.4846 15.8739 48.2791 15.7537 48.0813C15.6249 47.8704 15.4797 47.67 15.3196 47.4818C14.9897 47.0937 14.6337 46.7578 14.3255 46.4349C14.0468 46.1539 13.7931 45.8492 13.5672 45.5241C13.4159 45.3038 13.2915 45.0661 13.1968 44.8161C13.1664 44.7277 13.1432 44.6568 13.1317 44.609C13.1236 44.5851 13.1188 44.5603 13.1172 44.5352C13.1172 44.5352 13.1505 44.6336 13.2214 44.8074C13.3246 45.0507 13.4536 45.2823 13.6063 45.4981C13.8365 45.816 14.092 46.1148 14.3704 46.3915C14.68 46.71 15.0374 47.046 15.3717 47.4384C15.5355 47.6291 15.6841 47.8324 15.816 48.0465C15.9356 48.2476 16.0424 48.456 16.1358 48.6706L16.3905 49.2498C16.4715 49.4293 16.5554 49.5944 16.6307 49.7435C16.7363 49.9857 16.8899 50.2039 17.0822 50.385C17.2211 50.5095 17.3166 50.5559 17.3093 50.5617Z" fill="#263238"/>
<path d="M14.8105 49.7728C14.8135 49.6629 14.8285 49.5536 14.8554 49.447C14.893 49.2472 14.9553 48.9735 15.0392 48.6752C15.1231 48.3769 15.2128 48.112 15.2852 47.9223C15.3169 47.817 15.3611 47.7158 15.4169 47.6211C15.3973 47.7287 15.3683 47.8343 15.33 47.9368C15.2693 48.1308 15.1853 48.3972 15.1043 48.694C15.0233 48.9909 14.9596 49.2602 14.9017 49.4571C14.8818 49.5651 14.8512 49.6708 14.8105 49.7728Z" fill="#263238"/>
<path d="M17.2229 47.4407C17.1071 47.4237 16.9929 47.3971 16.8814 47.3611C16.6731 47.3075 16.3851 47.2322 16.0653 47.1598C15.7455 47.0874 15.4532 47.0324 15.2419 46.9918C15.126 46.977 15.0118 46.9518 14.9004 46.9165C15.0173 46.9136 15.1343 46.9233 15.2491 46.9455C15.4633 46.973 15.7585 47.0222 16.0798 47.0903C16.401 47.1584 16.689 47.2452 16.8945 47.3118C17.0081 47.3433 17.1182 47.3865 17.2229 47.4407Z" fill="#263238"/>
<path d="M13.0156 48.1163C13.0211 47.989 13.0385 47.8624 13.0677 47.7384C13.1111 47.5081 13.1777 47.1896 13.2689 46.8435C13.36 46.4975 13.4555 46.1861 13.5308 45.9632C13.5679 45.8407 13.6164 45.7219 13.6755 45.6084C13.6545 45.7337 13.6235 45.8572 13.5829 45.9776C13.5192 46.2035 13.4295 46.5148 13.3398 46.8595C13.2501 47.2041 13.1748 47.5212 13.1213 47.7485C13.0966 47.8739 13.0612 47.9969 13.0156 48.1163Z" fill="#263238"/>
<path d="M16.11 45.4063C16.11 45.4237 15.5037 45.3759 14.7614 45.2963C14.019 45.2167 13.417 45.1385 13.4199 45.1211C13.8711 45.1341 14.3212 45.1703 14.7686 45.2297C15.2185 45.2657 15.6662 45.3246 16.11 45.4063Z" fill="#263238"/>
<path d="M15.6667 52.7325C15.6667 52.7513 13.5439 52.7658 10.9261 52.7658C8.3084 52.7658 6.18555 52.7513 6.18555 52.7325C6.18555 52.7137 8.3084 52.6992 10.9261 52.6992C13.5439 52.6992 15.6667 52.7137 15.6667 52.7325Z" fill="#455A64"/>
<path d="M14.1935 55.4649C14.1935 55.4838 12.7623 55.4997 10.9984 55.4997C9.23439 55.4997 7.80469 55.4838 7.80469 55.4649C7.80469 55.4461 9.23439 55.4316 10.9984 55.4316C12.7623 55.4316 14.1935 55.4534 14.1935 55.4649Z" fill="#455A64"/>
<path d="M14.2467 55.8565C14.2467 55.8754 12.817 55.8899 11.0531 55.8899C9.28908 55.8899 7.85938 55.8754 7.85938 55.8565C7.85938 55.8377 9.28908 55.8232 11.0531 55.8232C12.817 55.8232 14.2467 55.8377 14.2467 55.8565Z" fill="#455A64"/>
<path d="M14.2479 55.1437C14.2479 55.1625 12.769 55.177 10.9443 55.177C9.11953 55.177 7.64062 55.1625 7.64062 55.1437C7.64062 55.1248 9.11953 55.1104 10.9443 55.1104C12.769 55.1104 14.2479 55.1248 14.2479 55.1437Z" fill="#455A64"/>
</svg>
