<svg width="73" height="70" viewBox="0 0 73 70" fill="none" xmlns="http://www.w3.org/2000/svg">
<path d="M33.1595 13.6509C32.3466 7.80114 30.5819 4.34249 26.1754 2.20562C21.7689 0.0687414 16.2937 0.731326 12.1581 3.34777C8.02256 5.96421 5.17406 10.3464 3.81078 15.0523C1.2705 23.7862 3.71086 33.5046 9.01666 40.888C14.3225 48.2713 22.2261 53.4838 30.6802 56.8357C36.2688 59.0488 42.2147 60.5265 48.2149 60.3418C54.215 60.1571 60.2761 58.2083 64.7707 54.2277C69.2653 50.2472 73.1113 41.6692 71.8632 37.0192C70.3068 31.2186 68.9672 28.2701 63.2093 26.5755C58.2303 25.1097 55.773 26.0671 52.6739 26.7873C49.5747 27.5075 47.424 28.5954 44.2469 28.4158C41.0699 28.2362 37.7726 26.8703 36.1316 24.1437C34.3788 21.2358 33.2848 17.1078 33.1595 13.6509Z" fill="#EBEBEB"/>
<path d="M69.4461 69.9552C69.4461 69.9789 53.8962 69.9992 34.729 69.9992C15.5617 69.9992 0 69.9789 0 69.9552C0 69.9315 15.5465 69.9111 34.729 69.9111C53.9115 69.9111 69.4461 69.9298 69.4461 69.9552Z" fill="#263238"/>
<path d="M49.7387 45.4178C46.8174 43.3843 46.1535 39.5851 46.2704 36.1772C46.289 35.6096 46.2263 35.0097 46.4973 34.5098C46.7683 34.0099 47.3983 33.6709 47.9063 33.9099C48.3297 34.1081 48.5126 34.5996 48.7531 35.0063C49.0685 35.5482 49.5305 35.99 50.0859 36.2806C50.4483 36.4687 50.8954 36.5839 51.2527 36.3857C51.7438 36.1162 51.8014 35.4384 51.798 34.8724L51.7777 31.7086C51.7777 31.1443 51.7777 30.5665 51.947 30.0293C52.1164 29.4921 52.511 28.9939 53.0478 28.8431C53.5847 28.6922 54.2519 29.0024 54.3654 29.5565C54.3866 29.7903 54.3917 30.0253 54.3806 30.2597C54.3976 30.4953 54.506 30.7546 54.7295 30.8207C54.953 30.8867 55.1817 30.7258 55.3493 30.5614C55.9336 29.9903 56.3299 29.2532 56.7041 28.5279C57.0784 27.8026 57.434 27.0468 57.9624 26.4232C58.4908 25.7996 59.2241 25.3065 60.0336 25.2607C60.8431 25.215 61.7068 25.7149 61.9117 26.5096C62.1166 27.3044 61.6458 28.1127 61.1378 28.7566C60.3869 29.7144 59.5017 30.5586 58.5094 31.2629C58.3169 31.3719 58.1639 31.5393 58.0725 31.7408C57.9489 32.1187 58.3062 32.4932 58.6788 32.6169C59.1005 32.7576 59.5577 32.7135 59.998 32.766C60.4383 32.8186 60.9159 33.0118 61.0836 33.4286C61.3139 34.0065 60.8312 34.6148 60.3554 35.0097C59.4029 35.805 58.3208 36.4304 57.1563 36.8585C56.7397 37.011 56.3095 37.1432 55.9708 37.4363C55.6321 37.7295 55.4323 38.2362 55.6321 38.6361C55.832 39.036 56.3553 39.1614 56.7905 39.0801C57.2257 38.9987 57.6169 38.7632 58.0319 38.6073C58.8075 38.3141 59.8117 38.3666 60.3096 39.0394C60.6365 39.48 60.6653 40.0951 60.4993 40.6221C60.3092 41.1404 60.0179 41.6157 59.6424 42.0202C58.4111 43.5001 56.8092 44.6264 55.0005 45.284C53.1986 45.9093 51.5287 46.0787 49.7387 45.4229" fill="#86C3BB"/>
<path d="M61.0852 25.7305C61.0685 25.7493 61.0504 25.7669 61.0311 25.783L60.8617 25.9338C60.7144 26.0643 60.4959 26.2575 60.2215 26.5134C59.4449 27.2359 58.7232 28.0153 58.0623 28.8451C57.6406 29.3704 57.2037 29.9635 56.7464 30.6092C56.2892 31.2548 55.8065 31.9513 55.3256 32.7003C54.8161 33.4793 54.3502 34.286 53.9301 35.1168C53.7117 35.5489 53.5186 36.0014 53.3188 36.464C53.1189 36.9266 52.9225 37.3926 52.7193 37.8654C51.9474 39.6414 51.2752 41.4592 50.7057 43.3101C50.2466 44.8243 49.9308 46.3783 49.7624 47.9516C49.6532 49.0129 49.6356 50.0816 49.7099 51.1459C49.7404 51.5221 49.7691 51.8152 49.7946 52.0118C49.8064 52.1067 49.8149 52.1813 49.8216 52.2372C49.8239 52.2631 49.8239 52.2892 49.8216 52.3152C49.8142 52.2902 49.8086 52.2647 49.8047 52.2389C49.7962 52.183 49.7844 52.1101 49.7692 52.0152C49.7353 51.8186 49.6997 51.5272 49.6642 51.1493C49.5744 50.0827 49.5812 49.0102 49.6845 47.9448C49.8431 46.3643 50.1527 44.8027 50.6091 43.2813C51.1742 41.4254 51.8454 39.6036 52.6193 37.8247L53.2205 36.4216C53.4187 35.9607 53.6151 35.5048 53.8336 35.0659C54.2576 34.2326 54.7268 33.423 55.2392 32.641C55.7236 31.892 56.2113 31.1989 56.6702 30.5533C57.1292 29.9076 57.5746 29.3162 57.9997 28.7943C58.6697 27.9685 59.4041 27.1973 60.1961 26.4879C60.4739 26.2372 60.7042 26.0474 60.8498 25.922L61.0192 25.7796C61.0396 25.7612 61.0617 25.7447 61.0852 25.7305Z" fill="#263238"/>
<path d="M53.8714 35.0656C53.8438 34.9877 53.825 34.907 53.8155 34.8249C53.7867 34.669 53.7511 34.4403 53.7105 34.159C53.6309 33.5963 53.5411 32.8151 53.4581 31.956C53.3752 31.0968 53.2735 30.3156 53.1855 29.753C53.1431 29.4734 53.1059 29.2446 53.0771 29.0904C53.0578 29.0099 53.047 28.9275 53.0449 28.8447C53.0782 28.9206 53.1021 29.0003 53.1161 29.082C53.1567 29.2362 53.2058 29.4599 53.2583 29.7395C53.365 30.3004 53.4717 31.0799 53.5614 31.9424C53.6512 32.805 53.7308 33.5642 53.7833 34.1454C53.8121 34.4097 53.8358 34.6334 53.8561 34.8131C53.8706 34.8964 53.8757 34.9811 53.8714 35.0656Z" fill="#263238"/>
<path d="M61.1382 33.7064C61.0425 33.7275 60.945 33.7395 60.847 33.742C60.6607 33.759 60.3914 33.781 60.0595 33.82C59.3922 33.8912 58.476 34.0233 57.4718 34.2114C56.4675 34.3995 55.5699 34.6215 54.923 34.791C54.5979 34.874 54.3371 34.9486 54.1559 34.9994C54.0642 35.0321 53.9694 35.0554 53.873 35.0689C53.9602 35.0252 54.0508 34.9889 54.144 34.9604C54.3218 34.8977 54.5792 34.8113 54.9027 34.7181C55.5479 34.5283 56.4489 34.3046 57.4565 34.1114C58.3157 33.9461 59.1828 33.825 60.0544 33.7488C60.3931 33.72 60.6607 33.7081 60.8487 33.7047C60.945 33.6968 61.0419 33.6974 61.1382 33.7064Z" fill="#263238"/>
<path d="M50.7068 43.1474C50.6862 43.1206 50.6696 43.0909 50.6577 43.0593L50.5341 42.7966C50.4257 42.5679 50.2801 42.2323 50.1056 41.8155C49.7551 40.9817 49.3063 39.8158 48.8287 38.5229C48.3511 37.2299 47.9159 36.0606 47.5823 35.2201C47.4129 34.8134 47.2842 34.4779 47.186 34.2271C47.142 34.1186 47.1081 34.0305 47.0793 33.9577C47.0644 33.9266 47.0541 33.8935 47.0488 33.8594C47.0696 33.8867 47.0862 33.9169 47.0979 33.9492C47.1318 34.0187 47.1725 34.1068 47.2216 34.2118C47.33 34.4406 47.4756 34.7761 47.65 35.193C48.0006 36.0251 48.4494 37.1909 48.9269 38.4856C49.4045 39.7803 49.8398 40.9478 50.1734 41.7867L50.5697 42.7797C50.6137 42.8881 50.6476 42.9779 50.6763 43.0508C50.6909 43.0814 50.7012 43.114 50.7068 43.1474Z" fill="#263238"/>
<path d="M60.3652 40.0322C60.3354 40.0498 60.3035 40.0634 60.2703 40.0729L59.9892 40.1661L58.9562 40.505C58.0823 40.788 56.8799 41.1947 55.5539 41.6438C54.2279 42.0928 53.0136 42.4911 52.1397 42.7537C51.6994 42.8859 51.3438 42.9893 51.0948 43.0571L50.8086 43.1316C50.7443 43.1486 50.7087 43.1553 50.707 43.1503C50.7374 43.1332 50.7699 43.1201 50.8036 43.1113L51.0847 43.0181L52.1177 42.6792C52.9916 42.3962 54.1923 41.9895 55.52 41.5404C56.8477 41.0913 58.0603 40.6931 58.9341 40.4305C59.3728 40.2983 59.7301 40.1932 59.9774 40.1271L60.2636 40.0526C60.2964 40.0413 60.3305 40.0344 60.3652 40.0322Z" fill="#263238"/>
<path d="M52.0649 44.716C52.3608 44.7157 52.6513 44.6372 52.9071 44.4884C53.1628 44.3397 53.3748 44.1258 53.5213 43.8687C53.6634 43.6093 53.7523 43.3242 53.7828 43.03C53.8133 42.7358 53.7849 42.4385 53.6992 42.1555C53.6246 41.8928 53.4892 41.62 53.2385 41.5115C53.1183 41.468 52.9886 41.4574 52.863 41.481C52.7373 41.5045 52.6202 41.5613 52.5239 41.6454C52.3331 41.8162 52.1906 42.0342 52.1106 42.2775C51.8007 43.0977 51.6534 43.9449 52.0649 44.7177" fill="#455A64"/>
<path d="M51.752 46.2905C52.3758 46.2685 52.9958 46.3954 53.5609 46.6606C54.126 46.9258 54.6199 47.3217 55.0019 47.8157C55.1932 48.0681 55.3558 48.4155 55.1949 48.6884C55.034 48.9612 54.6479 48.9883 54.3363 48.9341C53.6853 48.8122 53.085 48.4998 52.6114 48.0365C52.1378 47.5732 51.8122 46.9797 51.6758 46.3312" fill="#455A64"/>
<path d="M59.3332 44.0975C59.1745 43.8857 58.9746 43.7082 58.7456 43.5757C58.5165 43.4432 58.263 43.3584 58.0004 43.3265C57.4737 43.2658 56.9402 43.3267 56.4407 43.5044C55.4686 43.8179 54.5778 44.5872 53.9004 45.3583C54.8013 46.048 56.1155 45.9819 56.7794 45.9073C57.8294 45.7887 59.6584 44.9363 59.3197 44.0975" fill="#455A64"/>
<path d="M49.4531 46.3806C49.6197 46.3409 49.7837 46.2911 49.9442 46.2315C50.5379 45.9772 51.0944 45.6437 51.5988 45.2402C52.1067 44.8285 52.4935 44.2868 52.7182 43.6727C52.782 43.4857 52.823 43.2917 52.8402 43.0948C52.8513 43.023 52.8513 42.9498 52.8402 42.8779C52.7948 43.1373 52.7297 43.3928 52.6454 43.6422C52.4048 44.2306 52.0205 44.7491 51.5277 45.1504C51.0289 45.5455 50.4869 45.8826 49.9121 46.1553" fill="#263238"/>
<path d="M49.4312 46.3837L50.3711 46.1752C51.1654 45.9973 52.2628 45.755 53.4771 45.4974C54.6913 45.2398 55.7955 45.0331 56.5948 44.8806L57.5415 44.6975C57.6567 44.6808 57.77 44.6536 57.8802 44.6162C57.762 44.6199 57.6443 44.6323 57.528 44.6535C57.3027 44.684 56.9776 44.7348 56.5762 44.8009C55.7718 44.9331 54.6659 45.1398 53.45 45.3855C52.234 45.6313 51.1366 45.8939 50.3474 46.0905C49.9528 46.1888 49.6345 46.2718 49.4143 46.3328" fill="#263238"/>
<path d="M54.0242 47.8771C53.9951 47.8152 53.9568 47.7581 53.9107 47.7076C53.8648 47.6416 53.8138 47.5793 53.7583 47.5212C53.6883 47.4402 53.6136 47.3632 53.5347 47.2908C53.3323 47.0993 53.1111 46.929 52.8743 46.7824C52.5832 46.6047 52.2737 46.4593 51.9513 46.3486C51.6261 46.2431 51.2906 46.1727 50.9504 46.1384C50.6731 46.1128 50.3939 46.1156 50.1172 46.1469C50.0107 46.1564 49.9049 46.1728 49.8005 46.1961C49.7213 46.2088 49.6432 46.2275 49.5668 46.252C49.4398 46.2893 49.4144 46.3367 49.4161 46.3435C49.6498 46.2921 49.8861 46.2531 50.124 46.2266C50.396 46.2083 50.6692 46.214 50.9403 46.2435C51.6046 46.3161 52.2456 46.5305 52.8201 46.8722C53.0541 47.0119 53.2752 47.1724 53.4805 47.3518C53.8328 47.6551 54.0089 47.8906 54.0242 47.8771Z" fill="#263238"/>
<path d="M46.2777 55.7011L27.3899 55.613C26.8497 55.6106 26.3153 55.5017 25.8171 55.2926C25.319 55.0834 24.8669 54.7782 24.4866 54.3942C24.1064 54.0103 23.8054 53.5552 23.601 53.0548C23.3965 52.5545 23.2925 52.0188 23.295 51.4782L23.4948 4.09925C23.4972 3.55848 23.6061 3.0235 23.8152 2.52483C24.0242 2.02616 24.3294 1.57359 24.7133 1.19294C25.0972 0.812291 25.5522 0.511028 26.0524 0.30635C26.5526 0.101673 27.0883 -0.00241106 27.6287 4.23844e-05L46.5148 0.088161C47.6055 0.0930942 48.6496 0.531264 49.4175 1.30632C50.1854 2.08138 50.6142 3.12988 50.6097 4.22126L50.4099 51.6002C50.4079 52.141 50.2994 52.6762 50.0906 53.175C49.8818 53.6739 49.5769 54.1267 49.1931 54.5075C48.8093 54.8884 48.3543 55.1898 47.8541 55.3946C47.3539 55.5994 46.8182 55.7036 46.2777 55.7011Z" fill="#263238"/>
<path d="M46.4877 1.7235L42.8264 1.70655C42.707 1.70854 42.5892 1.73406 42.4797 1.78166C42.3702 1.82925 42.2712 1.89799 42.1883 1.98393C42.1054 2.06988 42.0403 2.17134 41.9966 2.28251C41.9529 2.39368 41.9316 2.51237 41.9339 2.6318V3.29608C41.9361 3.41558 41.9148 3.53436 41.8712 3.64563C41.8275 3.75689 41.7624 3.85847 41.6795 3.94455C41.5967 4.03063 41.4976 4.09952 41.3881 4.1473C41.2787 4.19508 41.1608 4.22081 41.0414 4.22301L33.9032 4.18912C33.6621 4.18247 33.4335 4.08045 33.2675 3.90542C33.1015 3.7304 33.0116 3.49665 33.0175 3.25541L33.0243 2.59452C33.0302 2.35327 32.9403 2.11952 32.7743 1.9445C32.6082 1.76947 32.3796 1.66745 32.1386 1.6608H30.8515L27.6457 1.64555C27.2663 1.64354 26.8903 1.71657 26.5392 1.86044C26.1882 2.00432 25.869 2.2162 25.6 2.4839C25.3311 2.75161 25.1177 3.06987 24.972 3.42038C24.8264 3.77089 24.7514 4.14675 24.7514 4.52635L24.5567 50.753C24.5549 51.1314 24.6276 51.5065 24.7708 51.8568C24.9139 52.2072 25.1247 52.5258 25.3909 52.7946C25.6572 53.0634 25.9738 53.277 26.3226 53.4234C26.6714 53.5697 27.0456 53.6458 27.4238 53.6473L46.2727 53.7355C46.652 53.7375 47.028 53.6644 47.3791 53.5206C47.7301 53.3767 48.0493 53.1648 48.3183 52.8971C48.5872 52.6294 48.8007 52.3111 48.9463 51.9606C49.0919 51.6101 49.1669 51.2343 49.1669 50.8547L49.3633 4.60938C49.364 4.23093 49.2901 3.85605 49.146 3.50617C49.0018 3.15629 48.7901 2.83826 48.5231 2.57026C48.2561 2.30226 47.9389 2.08954 47.5896 1.94424C47.2404 1.79895 46.866 1.72394 46.4877 1.7235Z" fill="#FAFAFA"/>
<path d="M39.7605 7.21094H34.8984V8.10399H39.7605V7.21094Z" fill="#455A64"/>
<path d="M29.1599 14.7324C29.1988 14.7334 29.2374 14.7385 29.2751 14.7477C29.31 14.7384 29.3458 14.7333 29.3819 14.7324H29.1599Z" fill="#455A64"/>
<path d="M30.4921 12.2832C30.4029 12.1597 30.2942 12.0515 30.1703 11.9629C29.9109 11.7713 29.5969 11.668 29.2745 11.668C28.952 11.668 28.6381 11.7713 28.3786 11.9629C28.2542 12.0515 28.145 12.1596 28.0551 12.2832C27.9665 12.3991 27.8967 12.5284 27.8485 12.6661C27.7602 12.9052 27.7331 13.1626 27.7698 13.4148C27.8065 13.667 27.9057 13.906 28.0585 14.1099C28.0772 14.1353 28.0975 14.1574 28.1161 14.1794C28.1789 13.977 28.2991 13.7973 28.462 13.6619C28.625 13.5266 28.8237 13.4414 29.034 13.4168C28.9025 13.3593 28.7908 13.2644 28.7128 13.1439C28.6348 13.0234 28.594 12.8826 28.5954 12.739C28.5887 12.6446 28.6016 12.5498 28.6332 12.4606C28.6647 12.3714 28.7143 12.2896 28.7788 12.2204C28.8433 12.1512 28.9213 12.096 29.008 12.0582C29.0948 12.0205 29.1884 12.001 29.2829 12.001C29.3775 12.001 29.4711 12.0205 29.5578 12.0582C29.6446 12.096 29.7226 12.1512 29.7871 12.2204C29.8516 12.2896 29.9012 12.3714 29.9327 12.4606C29.9643 12.5498 29.9771 12.6446 29.9705 12.739C29.9718 12.8823 29.9311 13.0229 29.8535 13.1434C29.7758 13.2638 29.6646 13.3589 29.5336 13.4168C29.7416 13.4419 29.9377 13.5273 30.0978 13.6625C30.2578 13.7977 30.3749 13.9768 30.4345 14.1777L30.4904 14.1099C30.6432 13.906 30.7425 13.667 30.7791 13.4148C30.8158 13.1626 30.7888 12.9052 30.7004 12.6661C30.6509 12.5286 30.5807 12.3994 30.4921 12.2832Z" fill="#FAFAFA"/>
<path d="M47.5706 16.1594C47.5706 16.1594 47.6198 16.1594 47.7112 16.1408C47.8469 16.1127 47.9719 16.0469 48.0719 15.951C48.1522 15.8733 48.2142 15.7787 48.2534 15.6741C48.2927 15.5694 48.3082 15.4574 48.2989 15.346C48.2989 15.0766 48.2989 14.7665 48.2989 14.4191C48.2989 13.7209 48.2989 12.8685 48.2904 11.8772C48.2904 11.6298 48.2904 11.3688 48.2904 11.1079C48.2973 10.9763 48.2679 10.8454 48.2055 10.7295C48.1431 10.6135 48.05 10.517 47.9364 10.4504C47.7027 10.3029 47.3979 10.3673 47.1049 10.3538H46.1938L26.7183 10.3673C26.6073 10.3678 26.498 10.3946 26.3994 10.4455C26.3008 10.4965 26.2156 10.5702 26.151 10.6605C26.0866 10.7508 26.0453 10.8555 26.0308 10.9655C26.0221 11.0783 26.0193 11.1914 26.0223 11.3044V15.4375C26.0272 15.5422 26.0557 15.6444 26.1055 15.7365C26.1553 15.8286 26.2253 15.9083 26.3102 15.9696C26.394 16.0309 26.4908 16.0721 26.593 16.0899C26.6998 16.1025 26.8074 16.1065 26.9148 16.1018H30.7523L39.5061 16.112L45.4063 16.1272L47.0118 16.1357H47.4284C47.5232 16.1357 47.5706 16.1357 47.5706 16.1357H47.4284H47.0118L45.4063 16.1459L39.5061 16.1611L30.7523 16.1713H26.9148C26.8017 16.1751 26.6885 16.1706 26.5761 16.1577C26.3997 16.126 26.2393 16.0354 26.1211 15.9005C26.003 15.7657 25.9341 15.5946 25.9258 15.4155C25.9258 14.5174 25.9258 13.6046 25.9258 12.6771V11.2773C25.9258 11.1587 25.9258 11.0452 25.9258 10.9181C25.9442 10.7959 25.9912 10.6797 26.063 10.5792C26.1361 10.4749 26.2332 10.3897 26.346 10.3307C26.4589 10.2717 26.5843 10.2407 26.7116 10.2402L46.187 10.2538H47.5419C47.6905 10.2482 47.8376 10.2859 47.9652 10.3622C48.0876 10.4348 48.1879 10.5394 48.255 10.6649C48.3222 10.7904 48.3538 10.9318 48.3463 11.074C48.3463 11.3383 48.3463 11.5959 48.3463 11.8433C48.3463 12.833 48.3463 13.6853 48.3378 14.3852C48.3378 14.7326 48.3378 15.0427 48.3378 15.3121C48.3455 15.4271 48.3276 15.5424 48.2855 15.6496C48.2433 15.7569 48.1779 15.8534 48.0939 15.9324C47.99 16.0284 47.8607 16.0925 47.7214 16.1171C47.6735 16.1385 47.6227 16.1528 47.5706 16.1594Z" fill="#455A64"/>
<path d="M35.3183 11.8027H28.4121V12.1032H35.3183V11.8027Z" fill="#455A64"/>
<path d="M40.7232 14.207H28.4121V14.5075H40.7232V14.207Z" fill="#455A64"/>
<path d="M46.128 13.0039H28.4121V13.3044H46.128V13.0039Z" fill="#455A64"/>
<path d="M29.1602 29.334C29.2347 29.3442 29.2754 29.3442 29.2754 29.3509C29.3103 29.3417 29.3461 29.3366 29.3821 29.3357L29.1602 29.334Z" fill="#455A64"/>
<path d="M30.4921 26.8847C30.4033 26.7609 30.2946 26.6526 30.1703 26.5644C29.9109 26.3729 29.5969 26.2695 29.2745 26.2695C28.952 26.2695 28.6381 26.3729 28.3786 26.5644C28.1361 26.741 27.9515 26.9858 27.8485 27.2677C27.7602 27.5067 27.7331 27.7641 27.7698 28.0164C27.8065 28.2686 27.9057 28.5076 28.0585 28.7115L28.1161 28.781C28.1784 28.5783 28.2984 28.3982 28.4614 28.2627C28.6244 28.1273 28.8234 28.0424 29.034 28.0184C28.9025 27.9609 28.7908 27.866 28.7128 27.7455C28.6348 27.625 28.594 27.4841 28.5954 27.3406C28.5887 27.2462 28.6016 27.1514 28.6332 27.0622C28.6647 26.973 28.7143 26.8912 28.7788 26.822C28.8433 26.7527 28.9213 26.6975 29.008 26.6598C29.0948 26.622 29.1884 26.6026 29.2829 26.6026C29.3775 26.6026 29.4711 26.622 29.5578 26.6598C29.6446 26.6975 29.7226 26.7527 29.7871 26.822C29.8516 26.8912 29.9012 26.973 29.9327 27.0622C29.9643 27.1514 29.9771 27.2462 29.9705 27.3406C29.9716 27.4839 29.9308 27.6244 29.8532 27.7448C29.7756 27.8652 29.6645 27.9603 29.5336 28.0184C29.7414 28.0431 29.9375 28.1282 30.0976 28.2631C30.2577 28.398 30.3748 28.5768 30.4345 28.7776L30.4904 28.7115C30.6432 28.5076 30.7425 28.2686 30.7791 28.0164C30.8158 27.7641 30.7888 27.5067 30.7004 27.2677C30.6509 27.1302 30.5807 27.001 30.4921 26.8847Z" fill="#FAFAFA"/>
<path d="M47.5709 30.7612C47.5709 30.7612 47.62 30.7612 47.7115 30.7425C47.8472 30.7145 47.9722 30.6487 48.0722 30.5527C48.1527 30.4748 48.2148 30.38 48.2541 30.275C48.2933 30.1701 48.3087 30.0577 48.2991 29.9461C48.2991 29.6783 48.2991 29.3682 48.2991 29.0191C48.2991 28.3227 48.2991 27.4686 48.2907 26.4772C48.2907 26.2298 48.2907 25.9689 48.2907 25.7096C48.2975 25.5778 48.2681 25.4467 48.2057 25.3305C48.1433 25.2143 48.0503 25.1174 47.9367 25.0504C47.703 24.903 47.3982 24.9674 47.1052 24.9538H46.1941L26.7186 24.9691C26.6075 24.9691 26.4981 24.9957 26.3994 25.0467C26.3007 25.0977 26.2156 25.1716 26.1513 25.2622C26.0867 25.3518 26.0454 25.456 26.031 25.5656C26.0224 25.6783 26.0196 25.7914 26.0226 25.9045V30.046C26.0277 30.1506 26.0563 30.2527 26.1061 30.3448C26.1559 30.4369 26.2258 30.5167 26.3105 30.5781C26.3943 30.6394 26.491 30.6806 26.5933 30.6985C26.7001 30.7102 26.8077 30.7142 26.9151 30.7103H30.7526L39.5064 30.7205L45.4066 30.7374H47.012H47.4287C47.5235 30.7374 47.5709 30.7374 47.5709 30.7374C47.5709 30.7374 47.5235 30.7374 47.4287 30.7374H47.012L45.4066 30.7459L39.5064 30.7629L30.7526 30.773H26.9151C26.802 30.7774 26.6888 30.7735 26.5763 30.7612C26.4045 30.7303 26.2477 30.6434 26.1304 30.5141C26.0131 30.3847 25.9418 30.2202 25.9277 30.046C25.9277 29.1479 25.9277 28.2351 25.9277 27.3076V25.9079C25.9277 25.7892 25.9277 25.6774 25.9277 25.5486C25.9448 25.4235 25.9919 25.3043 26.0649 25.2012C26.1383 25.0971 26.2354 25.0121 26.3482 24.9531C26.461 24.8942 26.5863 24.863 26.7135 24.8623L46.189 24.8759H47.5438C47.6519 24.8717 47.7596 24.8901 47.8601 24.9301C47.9607 24.97 48.0517 25.0305 48.1275 25.1078C48.2032 25.185 48.262 25.2772 48.3 25.3785C48.338 25.4799 48.3545 25.588 48.3482 25.696C48.3482 25.9604 48.3482 26.2163 48.3482 26.4637C48.3482 27.4533 48.3482 28.3074 48.3398 29.0056C48.3398 29.3547 48.3398 29.6648 48.3398 29.9325C48.3476 30.0475 48.3298 30.1628 48.2876 30.2701C48.2454 30.3773 48.1799 30.4739 48.0959 30.5527C47.992 30.6491 47.8627 30.7138 47.7233 30.7391C47.6739 30.7538 47.6225 30.7613 47.5709 30.7612Z" fill="#455A64"/>
<path d="M35.3183 26.5254H28.4121V26.8258H35.3183V26.5254Z" fill="#455A64"/>
<path d="M40.7232 28.6289H28.4121V29.2298H40.7232V28.6289Z" fill="#455A64"/>
<path d="M46.128 27.7266H28.4121V28.027H46.128V27.7266Z" fill="#455A64"/>
<path d="M26.0298 18.1016L26.0172 22.6075C26.0162 22.9753 26.3134 23.2743 26.6809 23.2753L47.6906 23.334C48.0582 23.335 48.357 23.0377 48.3581 22.6699L48.3706 18.164C48.3717 17.7962 48.0745 17.4972 47.7069 17.4962L26.6972 17.4375C26.3297 17.4364 26.0308 17.7338 26.0298 18.1016Z" fill="#FEE675"/>
<path d="M35.5058 18.9861L28.4824 18.9707L28.4809 19.3842L35.5043 19.3996L35.5058 18.9861Z" fill="#FAFAFA"/>
<path d="M40.7804 21.3297L28.4766 21.3027L28.4751 21.7162L40.7789 21.7431L40.7804 21.3297Z" fill="#FAFAFA"/>
<path d="M46.3113 20.1494L28.4805 20.1104L28.479 20.5238L46.3098 20.5628L46.3113 20.1494Z" fill="#FAFAFA"/>
<path d="M35.8201 49.3073C35.8063 49.4005 35.7594 49.4858 35.6881 49.5474C35.6167 49.609 35.5256 49.6428 35.4314 49.6428C35.3372 49.6428 35.2461 49.609 35.1747 49.5474C35.1034 49.4858 35.0565 49.4005 35.0427 49.3073C35.0565 49.214 35.1034 49.1288 35.1747 49.0672C35.2461 49.0056 35.3372 48.9717 35.4314 48.9717C35.5256 48.9717 35.6167 49.0056 35.6881 49.0672C35.7594 49.1288 35.8063 49.214 35.8201 49.3073Z" fill="#455A64"/>
<path d="M37.0262 49.3124C37.0372 49.3918 37.0238 49.4726 36.9876 49.5441C36.9515 49.6156 36.8943 49.6744 36.8239 49.7125C36.7535 49.7506 36.673 49.7662 36.5935 49.7573C36.5139 49.7485 36.4389 49.7154 36.3786 49.6627C36.3183 49.61 36.2755 49.5401 36.256 49.4624C36.2365 49.3847 36.2412 49.3029 36.2694 49.2279C36.2977 49.1529 36.3482 49.0884 36.4141 49.0429C36.48 48.9974 36.5583 48.9732 36.6384 48.9735C36.7347 48.967 36.8297 48.999 36.9024 49.0626C36.9751 49.1261 37.0197 49.216 37.0262 49.3124Z" fill="#455A64"/>
<path d="M38.2313 49.3182C38.2423 49.3976 38.2288 49.4785 38.1926 49.5501C38.1564 49.6216 38.0991 49.6803 38.0286 49.7184C37.958 49.7565 37.8775 49.772 37.7979 49.763C37.7183 49.754 37.6433 49.7208 37.583 49.6679C37.5228 49.615 37.4801 49.545 37.4608 49.4671C37.4415 49.3893 37.4464 49.3074 37.4749 49.2324C37.5035 49.1575 37.5542 49.0931 37.6204 49.0478C37.6866 49.0025 37.765 48.9786 37.8451 48.9792C37.9412 48.9732 38.0357 49.0054 38.1081 49.069C38.1804 49.1325 38.2247 49.2221 38.2313 49.3182Z" fill="#455A64"/>
<path d="M29.1599 36.9062C29.2345 36.9164 29.2751 36.9164 29.2751 36.9232C29.2751 36.93 29.3124 36.9232 29.3819 36.9079L29.1599 36.9062Z" fill="#455A64"/>
<path d="M30.4921 34.4524C30.4028 34.3294 30.2942 34.2218 30.1703 34.1338C29.9109 33.9422 29.5969 33.8389 29.2745 33.8389C28.952 33.8389 28.6381 33.9422 28.3786 34.1338C28.2543 34.2218 28.145 34.3294 28.0551 34.4524C27.9664 34.5689 27.8967 34.6987 27.8485 34.837C27.7602 35.0761 27.7331 35.3335 27.7698 35.5857C27.8065 35.8379 27.9057 36.0769 28.0585 36.2808C28.0772 36.3046 28.0975 36.3266 28.1161 36.3486C28.1788 36.1463 28.299 35.9667 28.462 35.8316C28.625 35.6965 28.8237 35.6118 29.034 35.5877C28.9012 35.5297 28.7886 35.4335 28.7105 35.3113C28.6324 35.1891 28.5923 35.0464 28.5954 34.9014C28.5887 34.807 28.6016 34.7123 28.6332 34.623C28.6647 34.5338 28.7143 34.452 28.7788 34.3828C28.8433 34.3136 28.9213 34.2584 29.008 34.2206C29.0948 34.1829 29.1884 34.1634 29.2829 34.1634C29.3775 34.1634 29.4711 34.1829 29.5578 34.2206C29.6446 34.2584 29.7226 34.3136 29.7871 34.3828C29.8516 34.452 29.9012 34.5338 29.9327 34.623C29.9643 34.7123 29.9771 34.807 29.9705 34.9014C29.9716 35.0447 29.9308 35.1852 29.8532 35.3056C29.7756 35.4261 29.6645 35.5212 29.5336 35.5793C29.7414 35.604 29.9375 35.689 30.0976 35.8239C30.2577 35.9589 30.3748 36.1377 30.4345 36.3384L30.4904 36.2724C30.6425 36.0681 30.7413 35.8291 30.778 35.577C30.8147 35.325 30.788 35.0677 30.7004 34.8286C30.6502 34.6935 30.5799 34.5666 30.4921 34.4524Z" fill="#FAFAFA"/>
<path d="M47.5706 38.3344C47.5706 38.3344 47.6198 38.3344 47.7112 38.3158C47.8469 38.2877 47.9719 38.2219 48.0719 38.126C48.1524 38.0481 48.2146 37.9532 48.2538 37.8483C48.2931 37.7433 48.3085 37.631 48.2989 37.5193C48.2989 37.2499 48.2989 36.9415 48.2989 36.5924C48.2989 35.8942 48.2989 35.0419 48.2904 34.0505C48.2904 33.8031 48.2904 33.5421 48.2904 33.2829C48.2972 33.1511 48.2678 33.02 48.2054 32.9038C48.143 32.7876 48.05 32.6907 47.9364 32.6237C47.7027 32.4762 47.3979 32.5406 47.1049 32.5271H46.1938L26.7183 32.5423C26.6072 32.5419 26.4976 32.5684 26.3988 32.6194C26.3 32.6704 26.215 32.7446 26.151 32.8355C26.0862 32.9249 26.0448 33.0292 26.0308 33.1388C26.0222 33.2516 26.0193 33.3647 26.0223 33.4777V37.621C26.0272 37.7259 26.0556 37.8283 26.1055 37.9207C26.1553 38.0131 26.2253 38.0931 26.3102 38.1548C26.394 38.2161 26.4908 38.2572 26.593 38.2751C26.6999 38.286 26.8074 38.29 26.9148 38.287H30.7523L39.5061 38.2972L45.4063 38.3141L47.0118 38.3226H47.4284C47.5232 38.3226 47.5706 38.3226 47.5706 38.3226H47.4284H47.0118H45.4063L39.5061 38.3378L30.7523 38.3497H26.9148C26.8017 38.3544 26.6884 38.3498 26.5761 38.3361C26.4591 38.3171 26.3482 38.2707 26.2526 38.2006C26.1557 38.1309 26.0759 38.0401 26.0192 37.935C25.9626 37.8299 25.9306 37.7132 25.9258 37.5939C25.9258 36.6901 25.9258 35.7773 25.9258 34.8554V33.4557C25.9258 33.3371 25.9258 33.2253 25.9258 33.0965C25.9429 32.9713 25.9899 32.8521 26.063 32.7491C26.1367 32.6454 26.2339 32.5606 26.3466 32.5017C26.4593 32.4428 26.5844 32.4114 26.7116 32.4102L46.187 32.4254H47.5419C47.6903 32.4214 47.837 32.459 47.9652 32.5339C48.0876 32.6068 48.1878 32.7118 48.255 32.8375C48.3221 32.9632 48.3537 33.1049 48.3463 33.2473C48.3463 33.5116 48.3463 33.7675 48.3463 34.0149C48.3463 35.0046 48.3463 35.8569 48.3378 36.5568C48.3378 36.9059 48.3378 37.2143 48.3378 37.4838C48.3456 37.5988 48.3278 37.7141 48.2856 37.8213C48.2435 37.9286 48.178 38.0251 48.0939 38.104C47.99 38.2004 47.8608 38.265 47.7214 38.2904C47.6736 38.3124 47.6228 38.3273 47.5706 38.3344Z" fill="#455A64"/>
<path d="M35.3183 34.0371H28.4121V34.3376H35.3183V34.0371Z" fill="#455A64"/>
<path d="M40.7232 36.4404H28.4121V36.7409H40.7232V36.4404Z" fill="#455A64"/>
<path d="M46.128 35.2383H28.4121V35.5387H46.128V35.2383Z" fill="#455A64"/>
<path d="M29.1602 44.3281C29.2347 44.3366 29.2754 44.3383 29.2754 44.3451C29.2754 44.3519 29.3127 44.3366 29.3821 44.3298L29.1602 44.3281Z" fill="#455A64"/>
<path d="M30.4921 41.8791C30.4024 41.756 30.2938 41.6479 30.1703 41.5588C29.9099 41.3695 29.5963 41.2676 29.2745 41.2676C28.9526 41.2676 28.639 41.3695 28.3786 41.5588C28.2546 41.6479 28.1455 41.756 28.0551 41.8791C27.9664 41.9956 27.8967 42.1255 27.8485 42.2638C27.7602 42.5028 27.7331 42.7602 27.7698 43.0124C27.8065 43.2647 27.9057 43.5036 28.0585 43.7076C28.0772 43.7313 28.0975 43.7533 28.1161 43.7754C28.1788 43.5731 28.299 43.3935 28.462 43.2584C28.625 43.1233 28.8237 43.0385 29.034 43.0145C28.9026 42.9568 28.7911 42.8619 28.7131 42.7414C28.6352 42.6209 28.5942 42.4802 28.5954 42.3367C28.5887 42.2422 28.6016 42.1475 28.6332 42.0583C28.6647 41.969 28.7143 41.8873 28.7788 41.818C28.8433 41.7488 28.9213 41.6936 29.008 41.6559C29.0948 41.6181 29.1884 41.5986 29.2829 41.5986C29.3775 41.5986 29.4711 41.6181 29.5578 41.6559C29.6446 41.6936 29.7226 41.7488 29.7871 41.818C29.8516 41.8873 29.9012 41.969 29.9327 42.0583C29.9643 42.1475 29.9771 42.2422 29.9705 42.3367C29.9716 42.4799 29.9308 42.6204 29.8532 42.7409C29.7756 42.8613 29.6645 42.9564 29.5336 43.0145C29.7415 43.039 29.9377 43.124 30.0978 43.2589C30.2579 43.3939 30.375 43.5728 30.4345 43.7737C30.4532 43.7516 30.4718 43.7313 30.4904 43.7059C30.6332 43.5164 30.729 43.2957 30.7698 43.0619C30.8182 42.7945 30.7942 42.5189 30.7004 42.2638C30.6509 42.1257 30.5807 41.996 30.4921 41.8791Z" fill="#FAFAFA"/>
<path d="M47.5706 45.7573C47.5706 45.7573 47.6198 45.7573 47.7112 45.7387C47.8894 45.7005 48.0475 45.5985 48.1557 45.4518C48.264 45.3051 48.3149 45.1239 48.2989 44.9422C48.2989 44.6728 48.2989 44.3644 48.2989 44.0153C48.2989 43.3171 48.2989 42.4648 48.2904 41.4734C48.2904 41.226 48.2904 40.965 48.2904 40.7058C48.2967 40.5727 48.2661 40.4405 48.2018 40.3238C48.1375 40.2071 48.0421 40.1106 47.9263 40.0449C47.6926 39.8975 47.3877 39.9619 47.0948 39.9483H46.1837L26.7082 39.9619C26.597 39.9622 26.4875 39.9891 26.3888 40.0404C26.2901 40.0917 26.2051 40.1659 26.1409 40.2567C26.076 40.3461 26.0347 40.4504 26.0206 40.56C26.012 40.6728 26.0092 40.7859 26.0122 40.899V45.0439C26.0171 45.1486 26.0455 45.2508 26.0953 45.3429C26.1452 45.435 26.2152 45.5147 26.3001 45.576C26.3837 45.6379 26.4805 45.6796 26.5829 45.698C26.6897 45.7092 26.7973 45.7126 26.9046 45.7082H30.7421L39.496 45.7184L45.3962 45.7336L47.0016 45.7438H47.4182H47.5605C47.5605 45.7438 47.5131 45.7438 47.4182 45.7438H47.0016L45.3962 45.754L39.496 45.7692L30.7421 45.7794H26.9148C26.8017 45.7832 26.6885 45.7787 26.5761 45.7658C26.459 45.7462 26.3481 45.6992 26.2526 45.6286C26.1557 45.5593 26.0759 45.4687 26.0193 45.3639C25.9626 45.2591 25.9307 45.1427 25.9258 45.0236C25.9258 44.1255 25.9258 43.2126 25.9258 42.2851V40.8854C25.9258 40.7668 25.9258 40.6549 25.9258 40.5261C25.9429 40.401 25.9899 40.2818 26.063 40.1788C26.1364 40.0748 26.2335 39.9898 26.3463 39.9309C26.4591 39.8719 26.5843 39.8407 26.7116 39.8398L46.187 39.8551H47.5419C47.6903 39.8511 47.837 39.8887 47.9652 39.9635C48.0878 40.0363 48.1881 40.1413 48.2552 40.2671C48.3224 40.3928 48.3539 40.5346 48.3463 40.677C48.3463 40.9413 48.3463 41.1972 48.3463 41.4446C48.3463 42.4343 48.3463 43.2866 48.3378 43.9865C48.3378 44.3356 48.3378 44.644 48.3378 44.9134C48.3455 45.0284 48.3276 45.1437 48.2855 45.2509C48.2433 45.3582 48.1779 45.4547 48.0939 45.5337C47.9904 45.6303 47.8609 45.6945 47.7214 45.7184C47.6734 45.739 47.6226 45.7522 47.5706 45.7573Z" fill="#455A64"/>
<path d="M35.3183 41.5488H28.4121V41.8493H35.3183V41.5488Z" fill="#455A64"/>
<path d="M40.7232 43.6523H28.4121V44.2533H40.7232V43.6523Z" fill="#455A64"/>
<path d="M46.128 42.4502H28.4121V43.0511H46.128V42.4502Z" fill="#455A64"/>
<path d="M47.6376 19.0482C48.2606 19.0482 48.7655 18.5429 48.7655 17.9196C48.7655 17.2963 48.2606 16.791 47.6376 16.791C47.0147 16.791 46.5098 17.2963 46.5098 17.9196C46.5098 18.5429 47.0147 19.0482 47.6376 19.0482Z" fill="#263238"/>
<path d="M47.084 17.8286L47.5582 18.2454L48.1899 17.5947" stroke="#FAFAFA" stroke-width="0.3" stroke-linecap="round" stroke-linejoin="round"/>
<path d="M16.3815 68.1699L16.1055 69.7747L18.578 69.956L18.5865 68.3784L16.3815 68.1699Z" fill="#3C8477"/>
<path d="M17.4965 68.1914C17.4898 68.6817 17.433 69.17 17.327 69.6488C17.3175 69.4033 17.3323 69.1575 17.3711 68.915C17.3887 68.6702 17.4307 68.4278 17.4965 68.1914Z" fill="#263238"/>
<path d="M18.5794 69.7808C18.4597 69.7827 18.3401 69.7737 18.2221 69.7537L17.3635 69.6588C17.0248 69.6198 16.7233 69.5792 16.5049 69.5419C16.3856 69.5282 16.2681 69.502 16.1543 69.4639C16.274 69.4597 16.3938 69.4683 16.5116 69.4894L17.3719 69.5859C17.7106 69.6232 18.0104 69.6656 18.2289 69.7029C18.3481 69.7166 18.4656 69.7427 18.5794 69.7808Z" fill="#263238"/>
<path d="M25.3074 69.0459V67.6055L22.6147 67.5801L22.5859 69.6865L22.7553 69.6983C23.4987 69.7458 26.5369 69.8915 27.0348 69.7458C27.592 69.5831 25.3074 69.0459 25.3074 69.0459Z" fill="#3C8477"/>
<g opacity="0.38">
<path d="M23.5627 69.6743C23.5248 69.4465 23.4042 69.2407 23.224 69.0965C23.0473 68.9526 22.8232 68.8801 22.5957 68.8931V69.6472L23.5627 69.6743Z" fill="black"/>
</g>
<g opacity="0.38">
<path d="M26.4181 69.3477C26.4181 69.3477 27.2175 69.5866 27.1158 69.7188C27.0142 69.8509 23.9388 69.8188 22.584 69.6866V69.6256L26.1709 69.6917C26.1709 69.6917 26.2623 69.3612 26.4181 69.3477Z" fill="black"/>
</g>
<path d="M22.5527 69.624H22.5985L22.7306 69.6342L23.22 69.6596C23.6349 69.6783 24.2056 69.6969 24.8373 69.7037C25.469 69.7104 26.0397 69.7037 26.4546 69.6952L26.944 69.6799H27.0778C27.093 69.6821 27.1084 69.6821 27.1235 69.6799H26.944H26.4546C26.0397 69.6799 25.469 69.6799 24.8373 69.6799C24.2056 69.6799 23.6349 69.6579 23.2217 69.6444L22.7322 69.6291H22.5985L22.5527 69.624Z" fill="#263238"/>
<path d="M26.1794 69.734C26.202 69.6532 26.2338 69.5753 26.2743 69.5018C26.3242 69.434 26.381 69.3715 26.4438 69.3154C26.3599 69.3463 26.2901 69.4065 26.2472 69.4849C26.195 69.5569 26.1709 69.6455 26.1794 69.734Z" fill="#263238"/>
<path d="M25.3858 69.3216C25.3858 69.3216 25.4316 69.2809 25.4722 69.2199C25.5012 69.185 25.5215 69.1438 25.5315 69.0996C25.5315 69.0996 25.4841 69.1403 25.4451 69.2013C25.4061 69.2623 25.379 69.3165 25.3858 69.3216Z" fill="#263238"/>
<path d="M25.1724 69.2048C25.1724 69.2048 25.2215 69.1828 25.269 69.1421C25.3164 69.1015 25.3486 69.0625 25.3419 69.0557C25.3351 69.0489 25.2944 69.0761 25.247 69.1184C25.1995 69.1608 25.1673 69.1913 25.1724 69.2048Z" fill="#263238"/>
<path d="M25.0371 68.9489C25.1298 68.9692 25.2257 68.9692 25.3184 68.9489C25.3184 68.9388 25.2557 68.9303 25.1795 68.9286C25.1311 68.9251 25.0826 68.9321 25.0371 68.9489Z" fill="#263238"/>
<path d="M24.9902 68.7696C25.037 68.8004 25.0918 68.8169 25.1478 68.8171C25.2051 68.8282 25.2643 68.8211 25.3173 68.7967C25.2648 68.7868 25.2114 68.7829 25.158 68.7849C25.1028 68.7739 25.0465 68.7688 24.9902 68.7696Z" fill="#263238"/>
<path d="M25.4844 69.0883C25.5405 69.0972 25.5977 69.0972 25.6538 69.0883C25.7164 69.0803 25.7781 69.0672 25.8385 69.0493C25.8751 69.0393 25.9103 69.0251 25.9436 69.0069C25.9542 69.0013 25.9636 68.9936 25.9711 68.9843C25.9787 68.9749 25.9843 68.9642 25.9877 68.9527C25.9902 68.9399 25.9892 68.9266 25.9847 68.9144C25.9802 68.9021 25.9724 68.8913 25.9622 68.8832C25.8966 68.8495 25.8212 68.8401 25.7493 68.8565C25.6774 68.8729 25.6136 68.9142 25.5691 68.973C25.5413 69.0058 25.5215 69.0447 25.5115 69.0866C25.5115 69.1171 25.5115 69.134 25.5115 69.134C25.5287 69.0804 25.5557 69.0304 25.5911 68.9866C25.6308 68.9414 25.6825 68.9084 25.7403 68.8917C25.8087 68.8701 25.883 68.8762 25.947 68.9086C25.9741 68.929 25.9622 68.9612 25.9317 68.9798C25.9006 68.9958 25.8684 69.0094 25.8352 69.0205C25.7766 69.04 25.7165 69.0547 25.6555 69.0645C25.5505 69.0832 25.4844 69.0832 25.4844 69.0883Z" fill="#263238"/>
<path d="M25.5299 69.0963C25.5299 69.0963 25.5587 69.0556 25.5519 68.9776C25.5462 68.9322 25.5299 68.8887 25.5045 68.8506C25.4906 68.8245 25.4702 68.8025 25.4452 68.7867C25.4203 68.771 25.3916 68.762 25.3621 68.7607C25.3533 68.7624 25.3449 68.7657 25.3374 68.7706C25.3299 68.7755 25.3234 68.7818 25.3184 68.7893C25.3134 68.7967 25.3098 68.805 25.308 68.8138C25.3062 68.8225 25.3062 68.8316 25.3079 68.8404C25.3115 68.8677 25.3214 68.8938 25.3367 68.9166C25.3591 68.9552 25.3858 68.991 25.4163 69.0234C25.4433 69.0543 25.4769 69.0786 25.5146 69.0946C25.5146 69.0946 25.4807 69.0624 25.4333 69.0082C25.407 68.9749 25.3832 68.9398 25.3621 68.9031C25.3384 68.8658 25.3231 68.7997 25.3621 68.7929C25.4011 68.7862 25.4485 68.8319 25.4757 68.8675C25.4997 68.9014 25.5159 68.9402 25.5231 68.981C25.529 69.0192 25.5313 69.0577 25.5299 69.0963Z" fill="#263238"/>
<path d="M22.6152 68.8867C22.6152 68.8867 22.6914 68.8867 22.8134 68.8952C22.9716 68.9158 23.121 68.9797 23.2452 69.0799C23.3686 69.1812 23.4613 69.3151 23.5128 69.4663C23.5325 69.5292 23.5489 69.5931 23.5619 69.6578C23.5648 69.6398 23.5648 69.6215 23.5619 69.6035C23.5572 69.5541 23.5476 69.5053 23.5331 69.4578C23.4854 69.2996 23.3916 69.1592 23.2639 69.0545C23.1355 68.9498 22.9784 68.8866 22.8134 68.8732C22.7644 68.8678 22.715 68.8678 22.666 68.8732C22.6484 68.8746 22.6312 68.8792 22.6152 68.8867Z" fill="#263238"/>
<path d="M22.9038 67.7676C22.8836 67.951 22.874 68.1355 22.8749 68.32C22.8646 68.5046 22.8646 68.6896 22.8749 68.8741C22.8951 68.6907 22.9047 68.5063 22.9038 68.3217C22.9141 68.1371 22.9141 67.9521 22.9038 67.7676Z" fill="#263238"/>
<path d="M23.9062 69.4145C24.0348 69.4456 24.1669 69.4599 24.2991 69.4569C24.4313 69.4652 24.564 69.4561 24.6937 69.4298C24.6937 69.4196 24.5244 69.4298 24.3008 69.4298C24.0773 69.4298 23.9079 69.4043 23.9062 69.4145Z" fill="#263238"/>
<path d="M23.373 69.4084C23.373 69.4084 23.3866 69.4456 23.4035 69.4863C23.4205 69.527 23.4307 69.5626 23.4408 69.5626C23.451 69.5626 23.4544 69.5202 23.4408 69.4728C23.4273 69.4253 23.3849 69.4016 23.373 69.4084Z" fill="#263238"/>
<path d="M23.1836 69.1597C23.1836 69.1597 23.1938 69.1936 23.2209 69.2224C23.248 69.2512 23.2768 69.2681 23.2836 69.2631C23.2904 69.258 23.2717 69.2275 23.2446 69.1987C23.2175 69.1699 23.1887 69.1529 23.1836 69.1597Z" fill="#263238"/>
<path d="M22.8985 69.0428C22.8985 69.0512 22.9358 69.0512 22.9764 69.0665C23.0171 69.0817 23.0442 69.1021 23.051 69.0953C23.0578 69.0885 23.0358 69.0529 22.9866 69.036C22.9375 69.019 22.8968 69.0343 22.8985 69.0428Z" fill="#263238"/>
<path d="M22.6973 68.986C22.6973 68.986 22.7091 69.0098 22.7312 69.0182C22.7532 69.0267 22.7735 69.0182 22.7769 69.0182C22.7803 69.0182 22.765 68.9962 22.743 68.9877C22.721 68.9793 22.6973 68.9776 22.6973 68.986Z" fill="#263238"/>
<path d="M21.224 25.3124C21.2443 24.8905 21.2901 24.4126 21.2901 24.4126C21.2901 24.4126 22.3333 24.2991 22.3959 23.2264C22.4586 22.1537 22.3959 19.6677 22.3959 19.6677L20.4958 18.6934L18.4043 20.3439L18.721 25.7378L20.6448 25.8598C20.719 25.8629 20.7931 25.8512 20.8627 25.8252C20.9323 25.7993 20.996 25.7596 21.05 25.7085C21.104 25.6575 21.1472 25.5962 21.1771 25.5281C21.207 25.4601 21.2229 25.3867 21.224 25.3124Z" fill="#FFBE9D"/>
<path d="M21.4099 22.3668C21.4099 22.3668 21.4099 22.3855 21.393 22.4126C21.3787 22.43 21.3605 22.4438 21.3399 22.453C21.3193 22.4621 21.2969 22.4662 21.2744 22.4651C21.1523 22.4651 21.0354 22.3262 20.9931 22.1618C20.9737 22.0833 20.9737 22.0013 20.9931 21.9228C20.9954 21.8871 21.0071 21.8526 21.027 21.8229C21.047 21.7931 21.0744 21.7691 21.1066 21.7534C21.1192 21.7479 21.1327 21.7451 21.1464 21.7451C21.1601 21.7451 21.1737 21.7479 21.1862 21.7534C21.2055 21.762 21.2207 21.7778 21.2286 21.7974C21.2439 21.828 21.2286 21.8483 21.2286 21.8466C21.2286 21.8449 21.2286 21.828 21.2083 21.8093C21.1986 21.7952 21.184 21.7853 21.1673 21.7816C21.1507 21.7778 21.1332 21.7804 21.1185 21.789C21.0958 21.8038 21.0771 21.8239 21.0639 21.8475C21.0506 21.8711 21.0432 21.8975 21.0422 21.9245C21.029 21.9955 21.0319 22.0684 21.0507 22.1381C21.0879 22.2855 21.1896 22.4041 21.2794 22.416C21.2975 22.4183 21.3158 22.417 21.3332 22.412C21.3507 22.4071 21.367 22.3986 21.3811 22.3872C21.3998 22.3804 21.4065 22.3651 21.4099 22.3668Z" fill="#EB996E"/>
<path d="M21.403 23.0326C21.4165 22.9936 21.425 22.9512 21.4369 22.9105C21.4487 22.8699 21.4521 22.8529 21.4623 22.8224C21.4804 22.7337 21.49 22.6435 21.4911 22.553C21.3983 22.589 21.297 22.5969 21.1998 22.5758C21.1025 22.5548 21.0136 22.5056 20.944 22.4344C20.874 22.3601 20.8251 22.2685 20.8025 22.1689C20.7798 22.0694 20.7843 21.9656 20.8153 21.8684C20.8598 21.7618 20.9263 21.6659 21.0103 21.5868C21.0943 21.5076 21.1941 21.4471 21.3031 21.4091C21.5131 21.321 21.7383 21.277 21.9449 21.1787C22.3818 20.9719 22.6833 20.5398 22.8899 20.0874C23.0338 19.7705 23.1422 19.4095 23.044 19.0706C22.8984 18.5741 22.3666 18.3284 21.8907 18.1911C21.1591 17.9844 20.3666 17.8929 19.6519 18.1555C18.9372 18.4182 18.0786 18.8825 18.0786 19.6722C17.6569 19.6366 17.4164 20.0111 17.2488 20.4653C17.1663 20.7497 17.104 21.0396 17.0625 21.3329" fill="#263238"/>
<path d="M18.654 24.6239C18.1268 24.2599 17.7029 23.7654 17.4236 23.1887C17.1443 22.6119 17.0192 21.9726 17.0604 21.333C17.1688 19.069 21.4026 23.0276 21.4026 23.0276C21.4026 23.0276 20.5914 25.6948 18.7404 24.6188" fill="#263238"/>
<path d="M18.0267 22.3662C18.0149 22.356 18.0996 22.2763 18.169 22.112C18.2164 22.0075 18.2414 21.8943 18.2422 21.7796C18.2431 21.6649 18.2199 21.5513 18.174 21.4462C18.1282 21.3411 18.0608 21.2467 17.9762 21.1693C17.8916 21.0919 17.7917 21.0332 17.6829 20.9969C17.5136 20.9359 17.3984 20.9444 17.3984 20.9291C17.4977 20.8986 17.6042 20.9015 17.7016 20.9376C17.8224 20.9717 17.9343 21.0316 18.0296 21.1132C18.1249 21.1949 18.2014 21.2963 18.2537 21.4104C18.3031 21.5261 18.3262 21.6514 18.3212 21.7771C18.3162 21.9029 18.2833 22.026 18.2249 22.1374C18.1351 22.3085 18.0318 22.3729 18.0267 22.3662Z" fill="#3C8477"/>
<path d="M17.1549 20.9804C17.1165 20.9853 17.0777 20.9769 17.0448 20.9567C16.9497 20.91 16.8715 20.8347 16.8212 20.7414C16.751 20.6017 16.7255 20.4437 16.7484 20.289C16.7681 20.1019 16.8257 19.9209 16.9178 19.7569C17.0118 19.5889 17.1598 19.4575 17.3378 19.3841C17.4854 19.3238 17.6508 19.3238 17.7984 19.3841C17.896 19.4249 17.9788 19.4947 18.0355 19.584C18.071 19.6484 18.0761 19.6908 18.071 19.6908C18.0021 19.578 17.898 19.491 17.7747 19.4434C17.6418 19.3974 17.4964 19.4041 17.3682 19.462C17.21 19.5314 17.0787 19.6503 16.994 19.8009C16.8128 20.1246 16.762 20.4957 16.872 20.7109C16.9325 20.8306 17.0324 20.9258 17.1549 20.9804Z" fill="#263238"/>
<path d="M36.3846 21.7437C36.3084 21.6658 36.1221 21.703 36.1221 21.703C36.14 21.5942 36.14 21.4832 36.1221 21.3743C36.0883 21.2675 35.8495 21.2879 35.8495 21.2879C35.8381 21.1984 35.8381 21.1079 35.8495 21.0184C35.8507 20.9988 35.846 20.9793 35.8361 20.9624C35.8261 20.9455 35.8113 20.932 35.7936 20.9235C35.6807 20.8778 35.5597 20.8559 35.438 20.8591C35.2906 20.7541 35.8817 19.9271 36.1018 19.6628C36.322 19.3984 36.2813 19.1934 36.0866 19.1934C35.9528 19.1934 35.2635 19.9881 35.0518 20.2542C34.8401 20.5202 34.2779 21.2625 34.2593 20.671C34.2406 20.0796 34.0019 19.6306 33.8528 19.5543C33.7038 19.4781 33.5446 19.6577 33.6276 19.8221C33.6982 20.0088 33.7427 20.2044 33.7597 20.4033C33.7787 20.5633 33.7712 20.7253 33.7377 20.8829C33.6759 21.1717 33.591 21.455 33.4836 21.7302L33.4684 21.7217C33.4684 21.7217 29.3413 25.6819 29.0432 25.9582C28.7757 26.2123 23.4123 25.6565 22.3386 25.543C21.9723 25.4908 21.6027 25.4659 21.2327 25.4684C20.767 25.4887 20.684 25.5548 20.2166 25.5599C19.1068 25.5637 17.999 25.6566 16.9041 25.8378C15.8321 26.0192 15.2427 26.8546 14.9125 27.8934C13.827 31.2825 10.8938 39.2471 10.4552 43.7547C10.1282 44.3489 9.83254 44.9597 9.56946 45.5849C9.26632 46.4135 9.34083 46.4423 9.44244 46.461C9.71679 46.5118 10.0318 45.0256 10.1503 45.3832C10.2689 45.7408 9.55421 47.1574 9.84381 47.1981C10.2198 47.2523 10.5212 45.6899 10.5568 45.5594C10.5923 45.429 10.782 45.4764 10.7431 45.5916C10.6889 45.7611 10.1571 47.5235 10.5263 47.5811C10.7312 47.6116 10.7532 47.2422 10.7532 47.2422C10.7532 47.2422 11.1292 45.5476 11.3036 45.5866C11.4781 45.6255 11.2935 46.6186 11.2054 46.9507C11.1173 47.2828 11.241 47.4591 11.4171 47.371C11.539 47.315 11.8286 46.3034 11.9082 45.9729C11.9878 45.6425 12.1842 44.7325 12.4518 45.2612C12.7194 45.7899 13.1292 46.0949 13.2986 46.1085C13.3376 46.1068 13.375 46.0927 13.4055 46.0683C13.436 46.044 13.458 46.0106 13.4684 45.9729C13.4787 45.9353 13.4769 45.8953 13.4631 45.8588C13.4493 45.8222 13.4243 45.791 13.3917 45.7696C13.2484 45.6297 13.1253 45.4706 13.0259 45.2968C12.9408 45.1599 12.879 45.0099 12.843 44.8528C12.768 44.5388 12.7243 44.218 12.7126 43.8954L12.6804 43.7005C13.1038 41.6026 14.5433 34.4514 16.2927 30.5166L16.8008 32.9975L17.1141 34.0973L15.1886 38.859L23.397 38.7506L22.1726 34.0329L23.6595 29.1186C25.2701 29.1541 29.4023 29.2151 30.0949 28.9033C30.9603 28.517 35.443 22.8638 35.443 22.8638C35.7382 22.6369 36.0208 22.3943 36.2898 22.1369C36.2898 22.1369 36.5489 21.9132 36.3846 21.7437Z" fill="#FFBE9D"/>
<path d="M14.8316 35.3582C15.0687 34.5448 16.2914 30.5219 16.2914 30.5219C16.2914 30.5219 16.8926 33.8009 16.7351 34.1958C16.5895 34.5345 16.4168 34.861 16.2186 35.1718C14.8316 37.2867 15.0128 38.3441 15.0128 38.3441L23.3974 38.0882C23.4177 36.9156 22.72 34.1907 22.5777 33.7518C22.4355 33.3129 22.9164 31.8877 22.9164 31.8877C22.9164 31.8877 23.8648 30.9252 23.8275 30.4304C23.8078 29.9859 23.7511 29.5437 23.6582 29.1086L29.8683 29.2272L29.174 25.8499L23.1857 25.411L21.1941 25.2246C20.1916 26.0719 18.6894 25.2246 18.6894 25.2246C16.7791 25.411 16.4997 25.7177 15.7156 26.5023C14.7841 27.431 12.2676 34.5364 12.2676 34.5364L14.8316 35.3582Z" fill="#FEE675"/>
<path d="M19.7896 34.539C19.6437 34.5644 19.4953 34.5718 19.3476 34.561C19.0732 34.561 18.6973 34.5424 18.2824 34.5017C17.8674 34.461 17.4949 34.4 17.2273 34.3475C17.0804 34.3292 16.9364 34.2922 16.7988 34.2373C16.9461 34.2367 17.093 34.2509 17.2375 34.2797C17.5084 34.3136 17.8793 34.361 18.2925 34.4034C18.7057 34.4458 19.0783 34.4729 19.3493 34.4915C19.4973 34.4922 19.6448 34.5081 19.7896 34.539Z" fill="#263238"/>
<path d="M20.3631 33.8252C20.2179 33.8962 20.0643 33.9486 19.9059 33.9811C19.5293 34.0809 19.1462 34.1539 18.7594 34.1997C18.3728 34.2462 17.9835 34.2649 17.5942 34.2556C17.4327 34.2604 17.2712 34.2457 17.1133 34.2116C17.2725 34.1889 17.4335 34.1804 17.5942 34.1861C17.8906 34.176 18.2987 34.1556 18.7492 34.1014C19.1997 34.0472 19.596 33.9743 19.8907 33.9133C20.0452 33.87 20.2033 33.8405 20.3631 33.8252Z" fill="#263238"/>
<path d="M23.1818 30.6436C23.18 30.7877 23.1607 30.9311 23.1243 31.0706C23.0752 31.3332 22.9989 31.6925 22.9024 32.0873C22.8059 32.4822 22.7077 32.8364 22.6298 33.0922C22.5972 33.2327 22.5478 33.3687 22.4824 33.4972C22.4927 33.3534 22.5194 33.2113 22.562 33.0736C22.6331 32.7787 22.7161 32.4398 22.8059 32.0653C22.8956 31.6908 22.9837 31.3519 23.0565 31.0486C23.083 30.9093 23.125 30.7734 23.1818 30.6436Z" fill="#263238"/>
<path d="M14.9564 38.4004L23.3393 38.1445L26.9872 52.3994L26.3098 68.7505H21.8728L22.4265 52.7536L19.1834 42.8233L19.6763 68.9199L15.1952 68.986L14.7363 44.484C14.7176 43.7909 14.489 42.2251 14.5669 41.5371L14.9564 38.4004Z" fill="#455A64"/>
<path d="M20.3018 43.0254C20.1642 43.0352 20.0259 43.0272 19.8903 43.0017C19.638 42.9712 19.2908 42.9186 18.9115 42.8424C18.5321 42.7661 18.19 42.6729 17.9462 42.6102C17.811 42.5813 17.6801 42.5351 17.5566 42.473C17.5566 42.4459 18.1731 42.5933 18.9301 42.7458C19.6871 42.8983 20.3052 42.9966 20.3018 43.0254Z" fill="#263238"/>
<path d="M26.276 67.8538C26.276 67.8809 25.2718 67.903 24.0321 67.903C22.7925 67.903 21.9102 67.864 21.9102 67.8369C21.9102 67.8098 22.7925 67.8047 24.0321 67.8047C25.2718 67.8047 26.276 67.8352 26.276 67.8538Z" fill="#263238"/>
<path d="M19.6138 67.9036C19.6138 67.9308 18.6383 67.9528 17.4359 67.9528C16.2335 67.9528 15.2598 67.9308 15.2598 67.9036C15.2598 67.8765 16.2335 67.8545 17.4359 67.8545C18.6383 67.8545 19.6138 67.8765 19.6138 67.9036Z" fill="#263238"/>
<path d="M19.0666 67.9038C19.0395 67.9038 18.9209 62.2625 18.8023 55.3028C18.6837 48.3432 18.6108 42.7019 18.6328 42.7002C18.6549 42.6985 18.7836 48.3483 18.9023 55.2961C19.0209 62.2439 19.0938 67.9021 19.0666 67.9038Z" fill="#263238"/>
<path d="M25.678 67.8552C25.6762 67.8292 25.6762 67.8032 25.678 67.7772C25.678 67.7213 25.678 67.6468 25.678 67.5502C25.678 67.3468 25.6916 67.0536 25.7034 66.6791C25.7288 65.9183 25.7678 64.8253 25.8135 63.4764C25.9168 60.765 26.0607 57.0369 26.2182 52.9089C26.2182 52.87 26.2182 52.8327 26.2182 52.7971V52.8106C25.2241 48.8301 24.3266 45.2308 23.678 42.6211L22.9243 39.5369C22.838 39.176 22.7702 38.8947 22.7245 38.6896C22.7031 38.5981 22.6861 38.5253 22.6737 38.471C22.6673 38.4466 22.6628 38.4216 22.6602 38.3965C22.6709 38.4198 22.6788 38.4442 22.6839 38.4694C22.6974 38.5219 22.7177 38.5931 22.7431 38.6846C22.7939 38.8811 22.8685 39.1624 22.9616 39.5217C23.1496 40.2521 23.4189 41.3027 23.7508 42.5991C24.4096 45.207 25.3173 48.8029 26.3232 52.7818V52.7971C26.3232 52.831 26.3232 52.87 26.3232 52.9072C26.1539 57.0319 26.0015 60.765 25.8897 63.473C25.8304 64.8287 25.7813 65.9149 25.7474 66.6758C25.7288 67.0503 25.7136 67.3417 25.7034 67.5468C25.7034 67.6417 25.6932 67.7162 25.6899 67.7722C25.6887 67.8002 25.6848 67.828 25.678 67.8552Z" fill="#263238"/>
<path d="M24.2306 52.4648C23.9116 52.5693 23.5832 52.6425 23.2501 52.6834C22.8436 52.7529 22.4914 52.8004 22.3373 52.8105V52.7716C22.3881 52.7851 22.4152 52.797 22.4135 52.8038C22.4118 52.8105 22.383 52.8038 22.3305 52.8038H22.217L22.3305 52.7699C22.4778 52.7258 22.8267 52.6546 23.2348 52.5835C23.5621 52.5115 23.8956 52.4717 24.2306 52.4648Z" fill="#263238"/>
<path d="M24.146 53.0093C23.8513 53.0211 23.5561 53.0075 23.2637 52.9686C22.9685 52.961 22.6745 52.9287 22.3848 52.872C22.6792 52.8317 22.9777 52.8317 23.2722 52.872C23.5683 52.8777 23.8624 52.9239 24.146 53.0093Z" fill="#263238"/>
<path d="M14.9199 38.7004C15.1215 38.9867 15.411 39.0867 15.7464 39.1409C16.0843 39.1812 16.4262 39.1749 16.7625 39.1223C18.9268 38.8817 21.2198 38.6597 23.3384 38.1445C20.5949 38.297 17.699 38.2462 14.9555 38.4004C14.9555 38.4004 14.9318 38.5885 14.9267 38.6343" fill="#263238"/>
<path d="M17.7461 42.5713L19.2906 48.5752L19.1822 42.8238L17.7461 42.5713Z" fill="#263238"/>
<path d="M17.4363 21.0502C16.8402 20.8909 16.217 21.5264 16.1967 22.1432C16.1967 22.3127 16.2153 22.5228 16.09 22.6516C15.9646 22.7804 15.7411 22.7448 15.5531 22.7601C15.3611 22.7792 15.1814 22.8634 15.0437 22.9987C14.9061 23.134 14.8187 23.3122 14.7961 23.504C14.769 23.7785 14.8791 24.0734 14.7639 24.3242C14.6488 24.575 14.3829 24.6766 14.1983 24.863C14.0863 24.9899 14.0021 25.1388 13.951 25.3002C13.9 25.4616 13.8833 25.6319 13.9019 25.8002C13.942 26.1365 14.0304 26.4652 14.1644 26.7762C14.2728 27.066 14.4151 27.388 14.7064 27.4913H17.2111L17.3991 26.5458L17.7056 27.4913H18.1137L17.8936 21.3519C17.8936 21.3519 17.8919 21.1705 17.4363 21.0502Z" fill="#263238"/>
<path d="M14.0113 23.981C14.0113 23.981 13.9842 23.981 13.9436 23.9946C13.9145 24.0105 13.8923 24.0366 13.8814 24.0679C13.8704 24.0992 13.8715 24.1335 13.8843 24.164C13.9158 24.2332 13.9724 24.2878 14.0427 24.3166C14.113 24.3454 14.1916 24.3463 14.2625 24.319C14.3334 24.2918 14.3913 24.2385 14.4242 24.17C14.4572 24.1015 14.4627 24.023 14.4398 23.9505C14.4041 23.8692 14.358 23.7929 14.3026 23.7235C14.1743 23.5523 14.1189 23.3372 14.1485 23.1253C14.1637 23.0078 14.2058 22.8954 14.2716 22.7969C14.3374 22.6984 14.4251 22.6165 14.5279 22.5576C14.6378 22.4932 14.7614 22.4558 14.8886 22.4484C15.0157 22.441 15.1428 22.4639 15.2595 22.5152C15.4898 22.6152 15.6896 22.7626 15.9115 22.7321C15.9615 22.7302 16.0102 22.7156 16.0531 22.6898C16.096 22.6641 16.1317 22.6279 16.157 22.5847C16.1927 22.4884 16.2043 22.3849 16.1909 22.2831C16.1775 22.0886 16.2058 21.8935 16.2739 21.7109C16.3419 21.5282 16.4482 21.3622 16.5855 21.2239C16.7788 21.0427 17.0353 20.9442 17.3001 20.9494C17.3704 20.9514 17.4399 20.9634 17.5068 20.985C17.5308 20.9908 17.5536 21.0006 17.5745 21.0138C17.484 20.9965 17.3922 20.9863 17.3001 20.9833C17.0462 20.9891 16.8039 21.0915 16.6227 21.2697C16.4947 21.4042 16.3966 21.5644 16.335 21.7397C16.2734 21.915 16.2497 22.1013 16.2654 22.2864C16.2805 22.401 16.2665 22.5176 16.2248 22.6254C16.1936 22.6816 16.1486 22.729 16.0941 22.7631C16.0396 22.7972 15.9773 22.8168 15.9132 22.8202C15.7876 22.8322 15.6612 22.81 15.5474 22.7558C15.4322 22.7067 15.3272 22.644 15.2188 22.5982C15.1147 22.5526 15.0013 22.532 14.8877 22.5382C14.7742 22.5444 14.6637 22.5771 14.5651 22.6338C14.4733 22.6867 14.395 22.7602 14.3363 22.8483C14.2775 22.9365 14.2399 23.0371 14.2264 23.1422C14.1973 23.3354 14.246 23.5323 14.3619 23.6896C14.4197 23.7647 14.467 23.8473 14.5025 23.9353C14.5184 23.9791 14.5254 24.0256 14.5231 24.0722C14.5208 24.1188 14.5091 24.1644 14.4889 24.2064C14.4538 24.2809 14.394 24.3408 14.3195 24.3759C14.2515 24.4062 14.1755 24.4139 14.1028 24.3979C14.0448 24.3869 13.991 24.3602 13.9472 24.3208C13.9033 24.2813 13.871 24.2307 13.8538 24.1742C13.8414 24.138 13.8433 24.0983 13.859 24.0634C13.8747 24.0285 13.9032 24.0008 13.9385 23.9861C13.9876 23.9624 14.013 23.981 14.0113 23.981Z" fill="#263238"/>
<path d="M23.7113 29.0539C23.6472 29.0628 23.5822 29.0628 23.5182 29.0539C23.342 29.0326 23.1704 28.9828 23.0101 28.9064C22.7711 28.7942 22.5578 28.6338 22.3835 28.4353C22.1623 28.1949 22.0132 27.897 21.9533 27.5757C21.8934 27.2545 21.9251 26.9228 22.0448 26.6187C22.1374 26.3711 22.2804 26.1455 22.4648 25.9562C22.5872 25.8278 22.7296 25.7202 22.8865 25.6376C22.9421 25.6042 23.0027 25.5802 23.066 25.5664C22.8613 25.6833 22.6742 25.8288 22.5106 25.9985C22.3394 26.1866 22.2071 26.4065 22.121 26.6459C22.0095 26.9363 21.9801 27.2519 22.036 27.558C22.0918 27.8641 22.2308 28.1488 22.4377 28.3811C22.6032 28.5744 22.8045 28.7338 23.0305 28.8505C23.2472 28.9487 23.4762 29.0171 23.7113 29.0539Z" fill="#263238"/>
</svg>
