<svg width="52" height="52" viewBox="0 0 52 52" fill="none" xmlns="http://www.w3.org/2000/svg">
<circle cx="26" cy="26" r="26" fill="#E7F3F2"/>
<path d="M19.2092 25.3205C18.8825 25.3205 18.6177 25.0556 18.6177 24.7289V22.9543C18.6177 22.7974 18.5553 22.6469 18.4444 22.536C18.3335 22.4251 18.183 22.3628 18.0261 22.3628H13.2937C12.967 22.3628 12.7022 22.6276 12.7022 22.9543V24.7289C12.7022 25.0556 12.4373 25.3205 12.1106 25.3205C11.784 25.3205 11.5191 25.0556 11.5191 24.7289V22.9543C11.5191 22.4837 11.706 22.0321 12.0388 21.6994C12.3715 21.3667 12.8232 21.1797 13.2937 21.1797H18.0261C18.4967 21.1797 18.9483 21.3667 19.281 21.6994C19.6137 22.0322 19.8007 22.4838 19.8007 22.9543V24.7289C19.8007 24.8858 19.7384 25.0363 19.6274 25.1473C19.5165 25.2582 19.366 25.3205 19.2091 25.3205H19.2092Z" fill="#269385"/>
<path d="M28.674 25.3205C28.3473 25.3205 28.0825 25.0556 28.0825 24.7289V22.9543C28.0825 22.7974 28.0201 22.6469 27.9092 22.536C27.7983 22.4251 27.6478 22.3628 27.4909 22.3628H22.7585C22.4319 22.3628 22.167 22.6276 22.167 22.9543V24.7289C22.167 25.0556 21.9021 25.3205 21.5754 25.3205C21.2488 25.3205 20.9839 25.0556 20.9839 24.7289V22.9543C20.9839 22.4837 21.1709 22.0321 21.5036 21.6994C21.8364 21.3667 22.288 21.1797 22.7585 21.1797H27.4909C27.9615 21.1797 28.4131 21.3667 28.7458 21.6994C29.0785 22.0322 29.2655 22.4838 29.2655 22.9543V24.7289C29.2655 24.8858 29.2032 25.0363 29.0923 25.1473C28.9813 25.2582 28.8308 25.3205 28.674 25.3205H28.674Z" fill="#269385"/>
<path d="M43.4627 37.743H36.3641C35.8935 37.743 35.4419 37.556 35.1092 37.2233C34.7766 36.8905 34.5895 36.4389 34.5895 35.9684V27.6867C34.5895 27.2161 34.7765 26.7645 35.1092 26.4318C35.442 26.0991 35.8936 25.9121 36.3641 25.9121H43.4627C43.9333 25.9121 44.3849 26.0991 44.7176 26.4318C45.0503 26.7646 45.2373 27.2162 45.2373 27.6867V35.9684C45.2373 36.439 45.0504 36.8906 44.7176 37.2233C44.3849 37.556 43.9333 37.743 43.4627 37.743ZM36.3641 27.0951C36.0375 27.0951 35.7726 27.36 35.7726 27.6867V35.9684C35.7726 36.1252 35.8349 36.2758 35.9458 36.3867C36.0567 36.4976 36.2073 36.5599 36.3641 36.5599H43.4627C43.6196 36.5599 43.7701 36.4976 43.881 36.3867C43.9919 36.2758 44.0543 36.1252 44.0543 35.9684V27.6867C44.0543 27.5298 43.9919 27.3793 43.881 27.2684C43.7701 27.1575 43.6196 27.0951 43.4627 27.0951H36.3641Z" fill="#269385"/>
<path d="M30.4486 25.9124H10.3359C10.1373 25.9121 9.93898 25.9319 9.74435 25.9715V18.8135C9.74435 18.4997 9.869 18.1987 10.0908 17.9768C10.3127 17.755 10.6137 17.6304 10.9275 17.6304H29.857C30.1707 17.6304 30.4718 17.755 30.6936 17.9768C30.9155 18.1987 31.0401 18.4997 31.0401 18.8135V24.1374C31.0401 24.4641 31.305 24.7289 31.6317 24.7289C31.9583 24.7289 32.2232 24.4641 32.2232 24.1374V18.8135C32.2232 18.186 31.9739 17.5841 31.5302 17.1402C31.0863 16.6966 30.4845 16.4473 29.857 16.4473H10.9275C10.3 16.4473 9.69811 16.6966 9.25421 17.1402C8.81055 17.5841 8.56126 18.186 8.56126 18.8135V26.5036V26.5165C7.81868 27.0711 7.38025 27.9429 7.37816 28.8698V35.9684C7.37816 36.439 7.56513 36.8906 7.89788 37.2233C8.23062 37.556 8.68224 37.743 9.15277 37.743H31.6316C32.1022 37.743 32.5538 37.556 32.8865 37.2233C33.2192 36.8905 33.4062 36.4389 33.4062 35.9684V28.8698C33.4052 28.0857 33.0933 27.3339 32.539 26.7793C31.9844 26.225 31.2326 25.9132 30.4485 25.9121L30.4486 25.9124ZM32.2232 35.9687C32.2232 36.1256 32.1609 36.2761 32.05 36.387C31.939 36.4979 31.7885 36.5603 31.6317 36.5603H9.1528C8.82613 36.5603 8.56126 36.2954 8.56126 35.9687V34.1941H31.0401C31.3668 34.1941 31.6317 33.9292 31.6317 33.6025C31.6317 33.2758 31.3668 33.011 31.0401 33.011H8.56126V28.8701C8.56126 28.3995 8.74823 27.9479 9.08097 27.6152C9.41372 27.2825 9.86533 27.0955 10.3359 27.0955H30.4485C30.9191 27.0955 31.3707 27.2825 31.7034 27.6152C32.0361 27.948 32.2231 28.3996 32.2231 28.8701L32.2232 35.9687Z" fill="#269385"/>
<path d="M42.871 32.4214H36.9555C36.6289 32.4214 36.364 32.1565 36.364 31.8298C36.364 31.5032 36.6289 31.2383 36.9555 31.2383H42.871C43.1977 31.2383 43.4626 31.5032 43.4626 31.8298C43.4626 32.1565 43.1977 32.4214 42.871 32.4214Z" fill="#269385"/>
<path d="M44.5801 19.7047L42.8409 14.4866H42.8411C42.7606 14.245 42.5345 14.082 42.2797 14.082H37.5473C37.2924 14.082 37.0664 14.245 36.9858 14.4866L35.2112 19.8105C35.1513 19.9909 35.1814 20.1892 35.2928 20.3435C35.404 20.4977 35.5825 20.5891 35.7726 20.5891H36.9557V22.9553C36.9557 23.2819 37.2206 23.5468 37.5473 23.5468C37.874 23.5468 38.1388 23.2819 38.1388 22.9553V20.5891H39.3219V24.7299C39.3219 25.0566 39.5868 25.3215 39.9135 25.3215C40.2402 25.3215 40.505 25.0566 40.505 24.7299V20.5891H44.0543C44.0583 20.5885 44.0622 20.5885 44.0662 20.5891C44.2777 20.5896 44.4737 20.4771 44.5799 20.2941C44.6858 20.1108 44.686 19.885 44.5801 19.7017L44.5801 19.7047ZM36.5946 19.4089L37.9752 15.2681H41.8546L43.2353 19.4089H36.5946Z" fill="#269385"/>
<path d="M40.505 28.8708C40.505 29.1975 40.2401 29.4624 39.9134 29.4624C39.5867 29.4624 39.3219 29.1975 39.3219 28.8708C39.3219 28.5442 39.5867 28.2793 39.9134 28.2793C40.2401 28.2793 40.505 28.5442 40.505 28.8708Z" fill="#269385"/>
<path d="M40.5049 34.1951C40.5049 34.5217 40.24 34.7866 39.9133 34.7866C39.5866 34.7866 39.3218 34.5217 39.3218 34.1951C39.3218 33.8684 39.5866 33.6035 39.9133 33.6035C40.24 33.6035 40.5049 33.8684 40.5049 34.1951Z" fill="#269385"/>
</svg>
