<svg width="96" height="96" viewBox="0 0 96 96" fill="none" xmlns="http://www.w3.org/2000/svg">
<circle cx="48.0561" cy="47.7221" r="47.3862" fill="#E7F3F2"/>
<path d="M75.129 71.3871V19H69.5161V40.5161H67.6452V25.5484H50.8065V40.5161H48.9355V21.8065H33.9677V40.5161H26.4839V19H20.871V71.3871H19V77H28.3548V71.3871H26.4839V67.6452H69.5161V71.3871H67.6452V77H77V71.3871H75.129ZM58.2903 27.4194H60.1613V31.1613H58.2903V27.4194ZM52.6774 27.4194H56.4194V33.0323H62.0323V27.4194H65.7742V40.5161H52.6774V27.4194ZM40.5161 23.6774H42.3871V27.4194H40.5161V23.6774ZM35.8387 23.6774H38.6452V29.2903H44.2581V23.6774H47.0645V40.5161H35.8387V23.6774ZM26.4839 75.129H20.871V73.2581H26.4839V75.129ZM22.7419 71.3871V20.871H24.6129V71.3871H22.7419ZM30.2258 65.7742V52.6774H33.9677V58.2903H39.5806V52.6774H43.3226V65.7742H30.2258ZM35.8387 52.6774H37.7097V56.4194H35.8387V52.6774ZM48.9355 65.7742V54.5484H52.6774V60.1613H58.2903V54.5484H62.0323V65.7742H48.9355ZM54.5484 54.5484H56.4194V58.2903H54.5484V54.5484ZM69.5161 63.9032V65.7742H63.9032V52.6774H47.0645V65.7742H45.1935V50.8065H28.3548V65.7742H26.4839V42.3871H69.5161V62.0323H71.3871V20.871H73.2581V71.3871H71.3871V63.9032H69.5161ZM75.129 75.129H69.5161V73.2581H75.129V75.129Z" fill="#0E8778"/>
</svg>
