<svg width="52" height="52" viewBox="0 0 52 52" fill="none" xmlns="http://www.w3.org/2000/svg">
<circle cx="26" cy="26" r="26" fill="#E7F3F2"/>
<path d="M39.0645 38.1935V12H36.2581V22.7581H35.3226V15.2742H26.9032V22.7581H25.9677V13.4032H18.4839V22.7581H14.7419V12H11.9355V38.1935H11V41H15.6774V38.1935H14.7419V36.3226H36.2581V38.1935H35.3226V41H40V38.1935H39.0645ZM30.6452 16.2097H31.5806V18.0806H30.6452V16.2097ZM27.8387 16.2097H29.7097V19.0161H32.5161V16.2097H34.3871V22.7581H27.8387V16.2097ZM21.7581 14.3387H22.6935V16.2097H21.7581V14.3387ZM19.4194 14.3387H20.8226V17.1452H23.629V14.3387H25.0323V22.7581H19.4194V14.3387ZM14.7419 40.0645H11.9355V39.129H14.7419V40.0645ZM12.871 38.1935V12.9355H13.8065V38.1935H12.871ZM16.6129 35.3871V28.8387H18.4839V31.6452H21.2903V28.8387H23.1613V35.3871H16.6129ZM19.4194 28.8387H20.3548V30.7097H19.4194V28.8387ZM25.9677 35.3871V29.7742H27.8387V32.5806H30.6452V29.7742H32.5161V35.3871H25.9677ZM28.7742 29.7742H29.7097V31.6452H28.7742V29.7742ZM36.2581 34.4516V35.3871H33.4516V28.8387H25.0323V35.3871H24.0968V27.9032H15.6774V35.3871H14.7419V23.6935H36.2581V33.5161H37.1935V12.9355H38.129V38.1935H37.1935V34.4516H36.2581ZM39.0645 40.0645H36.2581V39.129H39.0645V40.0645Z" fill="#0E8778"/>
</svg>
