<svg width="52" height="52" viewBox="0 0 52 52" fill="none" xmlns="http://www.w3.org/2000/svg">
<circle cx="26" cy="26" r="26" fill="#E7F3F2"/>
<path d="M34.0001 17.2811C34.0001 18.6995 32.719 19.7744 31.3219 19.5281C27.4145 18.8246 23.4744 18.825 19.6778 19.5281C18.2807 19.7744 16.9996 18.6994 16.9996 17.2811C16.9996 13.8121 19.8118 11 23.2807 11H27.7188C31.1878 11 33.9999 13.8121 33.9999 17.2811H34.0001Z" stroke="#0E8778" stroke-linecap="round" stroke-linejoin="round"/>
<path d="M31.3224 19.5275C32.6468 19.7615 33.8653 18.8064 33.9884 17.4979L31.3224 17.0274C27.4147 16.3239 23.4748 16.3245 19.6782 17.0274L17.0128 17.4979C17.1359 18.8064 18.3538 19.7615 19.6782 19.5275C23.4749 18.8244 27.4148 18.824 31.3224 19.5275Z" stroke="#0E8778" stroke-linecap="round" stroke-linejoin="round"/>
<path d="M31.3227 19.5295C27.415 18.8259 23.4751 18.8263 19.6785 19.5295C19.0635 19.6379 18.4711 19.4899 18.0007 19.1699V22.0015C18.0007 26.4195 21.3586 31.0016 25.5007 31.0016C29.6427 31.0016 33.0008 26.4195 33.0008 22.0015V19.1699C32.5302 19.4899 31.9378 19.6378 31.3227 19.5295H31.3227Z" stroke="#0E8778" stroke-linecap="round" stroke-linejoin="round"/>
<path d="M34.9999 40H15.9997V39C15.9997 37.8955 16.8952 37 17.9997 37H32.9998C34.1043 37 34.9998 37.8955 34.9998 39L34.9999 40Z" stroke="#0E8778" stroke-linecap="round" stroke-linejoin="round"/>
<path d="M38.7731 34.9758C38.6522 34.9122 38.5316 34.8499 38.4111 34.7883C35.6166 33.3622 32.596 32.4387 29.5 31.9367C29.4621 31.9247 29.4305 31.9136 29.3941 31.9023C28.9846 33.6763 27.3986 35.0003 25.5001 35.0003C23.605 35.0003 22.0215 33.6807 21.6086 31.9118C21.5701 31.9204 21.5396 31.9283 21.5 31.9367C18.404 32.4387 15.3835 33.3622 12.5889 34.7884C12.469 34.8499 12.3481 34.9123 12.2269 34.9759C11.4746 35.3714 11 36.1498 11 37.0003V40.0003H40.0003V37.0003C40.0003 36.1498 39.5259 35.3714 38.7734 34.9759L38.7731 34.9758Z" stroke="#0E8778" stroke-linecap="round" stroke-linejoin="round"/>
<path d="M25.5005 30.9997C24.0279 30.9997 22.6589 30.4132 21.5004 29.4688V30.9997C21.5004 33.2087 23.2915 34.9996 25.5005 34.9996C27.7095 34.9996 29.5006 33.2087 29.5006 30.9997V29.4688C28.3421 30.4132 26.9731 30.9997 25.5005 30.9997V30.9997Z" stroke="#0E8778" stroke-linecap="round" stroke-linejoin="round"/>
<path d="M22.9993 14.5021H27.9993V12.502H22.9993V14.5021Z" stroke="#0E8778" stroke-linecap="round" stroke-linejoin="round"/>
<path d="M19.9995 38.5001L19.9994 38.5001L19.9995 38.5001L19.9994 38.5L19.9995 38.5001Z" fill="white" stroke="#0E8778"/>
<path d="M31 38.5001L31 38.5001L30.9999 38.5001L31 38.5L31 38.5001Z" fill="white" stroke="#0E8778"/>
<path d="M31.9965 32.4434L29.4999 37.0014H32.5L35.5754 33.5385C34.4074 33.0984 33.2109 32.737 31.9965 32.4434L31.9965 32.4434Z" stroke="#0E8778" stroke-linecap="round" stroke-linejoin="round"/>
<path d="M19.0034 32.4395L21.4999 37.0004H18.4999L15.4235 33.5385C16.591 33.0984 17.789 32.7329 19.0033 32.4395H19.0034Z" stroke="#0E8778" stroke-linecap="round" stroke-linejoin="round"/>
</svg>
