<svg width="52" height="52" viewBox="0 0 52 52" fill="none" xmlns="http://www.w3.org/2000/svg">
<circle cx="26" cy="26" r="26" fill="#E7F3F2"/>
<path d="M38.2972 26.5371V24.5252C38.2961 23.6124 37.9329 22.7373 37.2875 22.0917C36.6419 21.4463 35.7668 21.0831 34.8539 21.082H25.9997C25.0868 21.0831 24.2117 21.4463 23.5661 22.0917C22.9207 22.7373 22.5575 23.6124 22.5564 24.5252V26.5371C21.6908 26.6829 20.9351 27.2069 20.4948 27.9663C20.0545 28.7256 19.9752 29.6416 20.2787 30.4652C20.5822 31.2889 21.2368 31.9346 22.0645 32.2268V36.3306C22.0654 36.8974 22.2615 37.4464 22.6199 37.8853C22.9783 38.3243 23.477 38.6263 24.0321 38.7404V40.2657C24.0321 40.3962 24.0839 40.5214 24.1762 40.6136C24.2684 40.7058 24.3936 40.7576 24.524 40.7576H25.9997C26.1859 40.7576 26.3563 40.6525 26.4398 40.4858L27.2876 38.7901H33.566L34.4138 40.4858C34.4973 40.6525 34.6677 40.7576 34.8539 40.7576H36.3296C36.4601 40.7576 36.5852 40.7058 36.6775 40.6136C36.7697 40.5214 36.8215 40.3962 36.8215 40.2657V38.7404C37.3767 38.6262 37.8754 38.3243 38.2337 37.8853C38.5921 37.4464 38.7882 36.8974 38.7891 36.3306V32.2268C39.6168 31.9346 40.2714 31.2889 40.5749 30.4652C40.8784 29.6416 40.7991 28.7256 40.3588 27.9663C39.9185 27.2069 39.1629 26.683 38.2972 26.5371H38.2972ZM25.9997 22.0658H34.8539C35.5059 22.0664 36.1311 22.326 36.5922 22.7869C37.0532 23.248 37.3127 23.8732 37.3134 24.5252V26.5371C36.6265 26.6537 36.0029 27.0095 35.5527 27.5413C35.1025 28.0734 34.855 28.7473 34.8539 29.4441V31.4242C34.4305 31.099 33.912 30.9218 33.3782 30.9198H27.4754C26.9416 30.9218 26.4231 31.099 25.9997 31.4242V29.4441C25.9986 28.7473 25.7511 28.0734 25.3009 27.5413C24.8507 27.0095 24.2271 26.6537 23.5402 26.5371V24.5252C23.5409 23.8732 23.8004 23.248 24.2614 22.7869C24.7225 22.326 25.3477 22.0664 25.9997 22.0658V22.0658ZM25.9997 33.3793C26.0001 32.9879 26.1558 32.6129 26.4323 32.3362C26.709 32.0597 27.0841 31.904 27.4754 31.9036H33.3782C33.7695 31.904 34.1446 32.0597 34.4213 32.3362C34.6978 32.6129 34.8535 32.9879 34.8539 33.3793V33.8712H25.9997L25.9997 33.3793ZM25.6956 39.7739H25.0159V38.7901H26.1875L25.6956 39.7739ZM35.158 39.7739L34.6661 38.7901H35.8379V39.7739H35.158ZM38.1993 31.3723H38.1995C37.9702 31.4187 37.8053 31.6203 37.8055 31.8541V36.3306C37.8051 36.7219 37.6494 37.097 37.3729 37.3737C37.0962 37.6501 36.7211 37.8058 36.3298 37.8063H24.5242C24.1329 37.8058 23.7578 37.6501 23.4811 37.3737C23.2046 37.097 23.0489 36.7219 23.0485 36.3306V31.8541C23.0487 31.6203 22.8838 31.4187 22.6545 31.3723C22.1657 31.2724 21.7328 30.9905 21.4439 30.5838C21.1549 30.1769 21.0315 29.6753 21.0982 29.1808C21.165 28.6863 21.4171 28.2357 21.8038 27.9201C22.1903 27.6046 22.6822 27.4475 23.1802 27.4809C23.6781 27.5143 24.1447 27.7359 24.4856 28.1002C24.8264 28.4647 25.0161 28.9452 25.0161 29.4441V34.363C25.0161 34.4935 25.0679 34.6186 25.1602 34.7109C25.2524 34.8031 25.3776 34.8549 25.508 34.8549H35.346C35.4764 34.8549 35.6016 34.8031 35.6938 34.7109C35.7861 34.6186 35.8379 34.4935 35.8379 34.363V29.4441C35.8381 28.9452 36.0276 28.4649 36.3685 28.1004C36.7093 27.7361 37.1759 27.5148 37.6738 27.4814C38.1716 27.448 38.6635 27.605 39.05 27.9206C39.4364 28.2361 39.6885 28.6867 39.7553 29.181C39.8223 29.6756 39.6987 30.1769 39.4097 30.5838C39.1209 30.9905 38.6883 31.2724 38.1995 31.3723H38.1993ZM29.9353 25.0171C29.9353 24.8182 30.0552 24.6387 30.239 24.5628C30.4228 24.4866 30.6343 24.5285 30.7751 24.6693C30.9159 24.81 30.9578 25.0215 30.8816 25.2053C30.8056 25.3891 30.6262 25.509 30.4272 25.509C30.1556 25.509 29.9353 25.2887 29.9353 25.0171ZM26.0001 25.0171C26.0001 24.8182 26.12 24.6387 26.3038 24.5628C26.4876 24.4866 26.6991 24.5285 26.8399 24.6693C26.9807 24.81 27.0226 25.0215 26.9464 25.2053C26.8704 25.3891 26.691 25.509 26.492 25.509C26.2204 25.509 26.0001 25.2887 26.0001 25.0171ZM31.9029 27.9685C31.9029 27.7695 32.0228 27.5901 32.2066 27.5141C32.3904 27.4379 32.6019 27.4799 32.7427 27.6206C32.8835 27.7614 32.9254 27.9728 32.8492 28.1566C32.7732 28.3404 32.5938 28.4603 32.3948 28.4603C32.1232 28.4603 31.9029 28.2401 31.9029 27.9685ZM27.9677 27.9685C27.9677 27.7695 28.0876 27.5901 28.2714 27.5141C28.4552 27.4379 28.6667 27.4799 28.8075 27.6206C28.9483 27.7614 28.9902 27.9728 28.914 28.1566C28.838 28.3404 28.6586 28.4603 28.4596 28.4603C28.188 28.4603 27.9677 28.2401 27.9677 27.9685ZM33.8705 25.0171C33.8705 24.8182 33.9904 24.6387 34.1742 24.5628C34.358 24.4866 34.5695 24.5285 34.7103 24.6693C34.8511 24.81 34.893 25.0215 34.8168 25.2053C34.7408 25.3891 34.5614 25.509 34.3624 25.509C34.0908 25.509 33.8705 25.2887 33.8705 25.0171ZM18.1297 37.8063H16.654V23.0495H18.1297V26.4928C18.1297 26.7644 18.35 26.9847 18.6216 26.9847C18.8933 26.9847 19.1135 26.7644 19.1135 26.4928V23.0495H20.5892C20.7596 23.0495 20.918 22.9613 21.0076 22.8161C21.0972 22.6712 21.1053 22.4902 21.0293 22.3376C20.2478 20.7339 19.6507 19.0466 19.2499 17.3082C19.1775 16.9817 18.9952 16.6899 18.7337 16.4815C18.4719 16.2731 18.1467 16.1606 17.8122 16.1631H14.5121C14.1776 16.1606 13.8524 16.2731 13.5906 16.4815C13.3291 16.6899 13.1468 16.9817 13.0744 17.3082C12.6736 19.0466 12.0765 20.7339 11.295 22.3376C11.219 22.4902 11.2271 22.6712 11.3167 22.8161C11.4063 22.9613 11.5646 23.0495 11.735 23.0495H15.6702V37.8063H14.1945C13.8032 37.8067 13.4281 37.9624 13.1514 38.2389C12.875 38.5156 12.7193 38.8907 12.7188 39.282V40.2658C12.7188 40.3962 12.7706 40.5214 12.8629 40.6136C12.9551 40.7058 13.0803 40.7577 13.2107 40.7577H19.1135C19.244 40.7577 19.3691 40.7058 19.4614 40.6136C19.5536 40.5214 19.6054 40.3962 19.6054 40.2658V39.282C19.605 38.8907 19.4493 38.5156 19.1728 38.2389C18.8961 37.9624 18.521 37.8067 18.1297 37.8063H18.1297ZM14.034 17.5235C14.0848 17.301 14.2839 17.144 14.5121 17.1469H17.8122C18.0404 17.144 18.2396 17.301 18.2903 17.5235C18.6478 19.0835 19.157 20.6048 19.8106 22.0658H12.5136C13.1671 20.6049 13.6764 19.0835 14.0339 17.5235H14.034ZM18.6216 39.7739H13.7026V39.282C13.7029 39.0103 13.9229 38.7903 14.1945 38.7901H18.1297C18.4014 38.7903 18.6214 39.0103 18.6216 39.282V39.7739ZM25.5082 19.1144H35.3462C35.4767 19.1144 35.6019 19.0626 35.6941 18.9704C35.7863 18.8781 35.8381 18.753 35.8381 18.6225V11.736C35.8381 11.6056 35.7863 11.4804 35.6941 11.3882C35.6019 11.296 35.4767 11.2441 35.3462 11.2441H25.5082C25.3778 11.2441 25.2526 11.296 25.1604 11.3882C25.0682 11.4804 25.0163 11.6056 25.0163 11.736V18.6225C25.0163 18.753 25.0682 18.8781 25.1604 18.9704C25.2526 19.0626 25.3778 19.1144 25.5082 19.1144ZM26.0001 16.3666L27.9677 14.399L31.6994 18.1306H26.0001L26.0001 16.3666ZM33.0902 18.1306L31.6145 16.6549L32.8867 15.3828L34.8543 17.3504V18.1306H33.0902ZM34.8543 12.2279V15.9595L33.2346 14.3396C33.1423 14.2473 33.0172 14.1955 32.8867 14.1955C32.7563 14.1955 32.6311 14.2473 32.5389 14.3396L30.9191 15.9595L28.3156 13.3558C28.2234 13.2636 28.0982 13.2117 27.9678 13.2117C27.8373 13.2117 27.7122 13.2636 27.6199 13.3558L26.0002 14.9757V12.2279H34.8543ZM30.4272 13.7036C30.4272 13.5046 30.5471 13.3252 30.7309 13.2493C30.9147 13.1731 31.1262 13.215 31.2669 13.3558C31.4077 13.4965 31.4496 13.708 31.3734 13.8918C31.2974 14.0756 31.118 14.1955 30.9191 14.1955C30.6474 14.1955 30.4272 13.9752 30.4272 13.7036Z" fill="#269385"/>
</svg>
