<svg width="96" height="96" viewBox="0 0 96 96" fill="none" xmlns="http://www.w3.org/2000/svg">
<circle cx="48.0561" cy="47.7221" r="47.3862" fill="#E7F3F2"/>
<path d="M63.241 33.2625C63.241 35.8058 60.9439 37.7333 58.4389 37.2916C51.4326 36.0301 44.3675 36.0309 37.56 37.2916C35.055 37.7333 32.7578 35.8057 32.7578 33.2625C32.7578 27.0423 37.8002 22 44.0203 22H51.9781C58.1983 22 63.2406 27.0424 63.2406 33.2625H63.241Z" stroke="#0E8778" stroke-width="2" stroke-linecap="round" stroke-linejoin="round"/>
<path d="M58.4394 37.2919C60.8143 37.7114 62.9992 35.9989 63.2198 33.6525L58.4394 32.809C51.4327 31.5475 44.3681 31.5486 37.5606 32.809L32.7812 33.6525C33.0019 35.9988 35.1857 37.7114 37.5606 37.2919C44.3684 36.0312 51.4329 36.0303 58.4394 37.2919Z" stroke="#0E8778" stroke-width="2" stroke-linecap="round" stroke-linejoin="round"/>
<path d="M58.4401 37.2935C51.4334 36.032 44.3688 36.0328 37.5613 37.2935C36.4585 37.4879 35.3962 37.2226 34.5527 36.6489V41.7261C34.5527 49.6479 40.5737 57.864 48.001 57.864C55.4279 57.864 61.4492 49.6479 61.4492 41.7261V36.6489C60.6053 37.2226 59.5431 37.4879 58.4402 37.2935H58.4401Z" stroke="#0E8778" stroke-width="2" stroke-linecap="round" stroke-linejoin="round"/>
<path d="M65.0337 74.0004H30.9648V72.2072C30.9648 70.2267 32.5705 68.6211 34.551 68.6211H61.4474C63.4279 68.6211 65.0336 70.2267 65.0336 72.2072L65.0337 74.0004Z" stroke="#0E8778" stroke-width="2" stroke-linecap="round" stroke-linejoin="round"/>
<path d="M71.7995 64.9915C71.5826 64.8774 71.3665 64.7656 71.1503 64.6553C66.1395 62.0981 60.7235 60.4422 55.172 59.542C55.1041 59.5206 55.0475 59.5007 54.9822 59.4805C54.2478 62.6613 51.4039 65.0354 47.9999 65.0354C44.6018 65.0354 41.7624 62.6692 41.0222 59.4974C40.9531 59.5128 40.8983 59.5271 40.8274 59.5421C35.2759 60.4422 29.8599 62.0981 24.8491 64.6554C24.6341 64.7657 24.4172 64.8775 24.2 64.9916C22.851 65.7008 22 67.0966 22 68.6215V74.0008H73.9999V68.6215C73.9999 67.0966 73.1492 65.7007 71.7999 64.9916L71.7995 64.9915Z" stroke="#0E8778" stroke-width="2" stroke-linecap="round" stroke-linejoin="round"/>
<path d="M48.0006 57.8623C45.3601 57.8623 42.9053 56.8106 40.8281 55.1172V57.8623C40.8281 61.8233 44.0397 65.0345 48.0006 65.0345C51.9616 65.0345 55.1731 61.8232 55.1731 57.8623V55.1172C53.0958 56.8106 50.641 57.8623 48.0006 57.8623V57.8623Z" stroke="#0E8778" stroke-width="2" stroke-linecap="round" stroke-linejoin="round"/>
<path d="M43.5156 28.2779H52.4811V24.6914H43.5156V28.2779Z" stroke="#0E8778" stroke-width="2" stroke-linecap="round" stroke-linejoin="round"/>
<path d="M38.0335 71.3109C38.0335 71.253 38.0798 71.2073 38.1367 71.2073C38.194 71.2073 38.2402 71.2535 38.2402 71.3109C38.2402 71.3677 38.1946 71.4141 38.1367 71.4141C38.0793 71.4141 38.0335 71.3682 38.0335 71.3109Z" fill="white" stroke="#0E8778" stroke-width="2"/>
<path d="M57.7581 71.3109C57.7581 71.2535 57.8043 71.2073 57.8616 71.2073C57.9185 71.2073 57.9648 71.253 57.9648 71.3109C57.9648 71.3682 57.919 71.4141 57.8616 71.4141C57.8037 71.4141 57.7581 71.3677 57.7581 71.3109Z" fill="white" stroke="#0E8778" stroke-width="2"/>
<path d="M59.6483 60.4493L55.1719 68.6222H60.5512L66.0656 62.4128C63.9714 61.6237 61.8259 60.9757 59.6484 60.4492L59.6483 60.4493Z" stroke="#0E8778" stroke-width="2" stroke-linecap="round" stroke-linejoin="round"/>
<path d="M36.3508 60.4414L40.8272 68.6196H35.4479L29.9316 62.4121C32.0251 61.623 34.1732 60.9675 36.3507 60.4414H36.3508Z" stroke="#0E8778" stroke-width="2" stroke-linecap="round" stroke-linejoin="round"/>
</svg>
