<svg width="52" height="52" viewBox="0 0 52 52" fill="none" xmlns="http://www.w3.org/2000/svg">
<circle cx="26" cy="26" r="26" fill="#E7F3F2"/>
<path d="M29.4356 30.9992C29.0511 30.9976 28.7382 30.6887 28.7319 30.3041C28.7241 29.429 28.2499 28.6244 27.4881 28.1938C26.7261 27.7628 25.7922 27.7712 25.0383 28.2157C24.284 28.6599 23.8244 29.4728 23.8323 30.3479C23.8323 30.9906 24.0849 31.6071 24.5357 32.065C24.9862 32.5228 25.5988 32.785 26.2412 32.795C26.6132 32.819 26.9023 33.1274 26.9023 33.5001C26.9023 33.8727 26.6132 34.1814 26.2412 34.2053C25.2242 34.1949 24.2523 33.7838 23.5367 33.0609C22.821 32.3382 22.4199 31.3621 22.4199 30.3449C22.4201 29.3279 22.8216 28.3518 23.5372 27.6291C24.2531 26.9065 25.225 26.4956 26.2423 26.4854C27.2593 26.4755 28.2393 26.8674 28.9689 27.576C29.6987 28.2845 30.1191 29.2523 30.1392 30.2692C30.1455 30.4583 30.0759 30.6418 29.9458 30.7789C29.8157 30.9161 29.6363 30.9953 29.4473 30.9992L29.4356 30.9992ZM27.8093 32.5759C27.8093 32.8606 27.9806 33.1171 28.2437 33.2261C28.5065 33.3351 28.8091 33.2749 29.0104 33.0736C29.2116 32.8723 29.2719 32.5697 29.1631 32.3066C29.0542 32.0436 28.7976 31.8723 28.513 31.8723C28.13 31.872 27.8171 32.1784 27.8093 32.5613L27.8093 32.5759ZM15.9576 33.2418L15.8028 30.2108C15.7827 29.8221 15.4513 29.5233 15.0626 29.5437C14.6739 29.5638 14.3751 29.8951 14.3955 30.2838L14.5532 33.3148C14.5986 34.2142 14.9875 35.0618 15.6393 35.6832C16.291 36.3045 17.1563 36.6523 18.057 36.6549H34.4958C35.396 36.6518 36.261 36.3037 36.9125 35.6825C37.5643 35.0612 37.9533 34.214 37.9997 33.3148L38.1574 30.2838H38.1571C38.1775 29.8951 37.8787 29.5638 37.49 29.5437C37.1013 29.5233 36.7699 29.8221 36.7499 30.2108L36.595 33.2418C36.5666 33.7825 36.3319 34.2916 35.9391 34.6641C35.5462 35.0369 35.0255 35.2447 34.4841 35.2447H18.0653C17.5241 35.2447 17.0037 35.0367 16.6114 34.6641C16.219 34.2913 15.9849 33.7822 15.9573 33.2418H15.9576ZM11.3908 23.5858L12.0098 23.9244L11.3908 23.5829C11.4289 23.5128 11.4667 23.4427 11.5105 23.3668C13.099 20.5288 18.5182 16.0087 26.2854 16C34.0527 15.9911 39.4686 20.5287 41.0631 23.3755C41.104 23.4427 41.1449 23.5157 41.1827 23.5856V23.6031C42.0587 25.3286 41.3725 27.4573 39.533 28.6602L39.5332 28.6607C39.4177 28.7337 39.2843 28.7733 39.1477 28.7746C39.101 28.7788 39.0541 28.7788 39.0077 28.7746L30.1079 26.9875C29.9277 26.9513 29.7687 26.8467 29.6641 26.6955C28.7387 25.3435 28.5809 23.6531 29.2642 22.3916H29.264C29.2958 22.3272 29.2958 22.2516 29.264 22.1872C29.2379 22.1288 29.186 22.0858 29.124 22.0704C28.1937 21.8418 27.2406 21.7203 26.2828 21.7085C25.3203 21.7187 24.3622 21.8394 23.4271 22.0675C23.3656 22.0826 23.3147 22.1259 23.29 22.1843C23.2581 22.2487 23.2581 22.3243 23.29 22.3887C23.9732 23.65 23.8155 25.3378 22.8929 26.6927C22.7876 26.8431 22.6288 26.9476 22.4489 26.9846L13.5491 28.7601C13.369 28.7976 13.1813 28.7632 13.0264 28.6636C11.1869 27.4547 10.4918 25.3292 11.3913 23.6034L11.3908 23.5858ZM13.5719 27.3204L21.9024 25.6649C22.4017 24.7889 22.4864 23.7962 22.0776 23.0605V23.0602C21.8289 22.6102 21.806 22.0695 22.0163 21.6003C22.2171 21.1425 22.6196 20.8046 23.1053 20.6865C24.146 20.4352 25.2117 20.3051 26.2822 20.2981C27.3571 20.3083 28.4271 20.4436 29.4706 20.7011C29.9584 20.8182 30.363 21.1576 30.5627 21.6177C30.7749 22.087 30.7509 22.629 30.4986 23.0777C30.1015 23.8105 30.1774 24.8061 30.6766 25.6792L38.9925 27.3347C39.9151 26.6165 40.5079 25.393 39.9386 24.266C39.9065 24.2076 39.8744 24.1492 39.8364 24.0879C38.3939 21.5096 33.4419 17.4306 26.2821 17.4249C19.1229 17.4191 14.1701 21.5127 12.7312 24.0793L12.6261 24.2662C12.0565 25.3758 12.6462 26.6022 13.5717 27.3204L13.5719 27.3204Z" fill="#0E8778"/>
</svg>
