<svg width="96" height="96" viewBox="0 0 96 96" fill="none" xmlns="http://www.w3.org/2000/svg">
<circle cx="48.0561" cy="47.7221" r="47.3862" fill="#E7F3F2"/>
<path d="M53.5015 57.0704C52.7819 57.0675 52.1964 56.4893 52.1847 55.7697C52.1701 54.1319 51.2826 52.6262 49.8569 51.8202C48.4308 51.0137 46.6831 51.0293 45.2721 51.8612C43.8606 52.6925 43.0004 54.2138 43.0152 55.8516C43.0152 57.0543 43.4879 58.2082 44.3315 59.065C45.1746 59.9217 46.3212 60.4126 47.5234 60.4312C48.2196 60.4761 48.7607 61.0532 48.7607 61.7509C48.7607 62.4481 48.2196 63.0258 47.5234 63.0706C45.6201 63.0511 43.8012 62.2817 42.462 60.9288C41.1226 59.5763 40.3719 57.7496 40.3719 55.8459C40.3723 53.9426 41.1237 52.116 42.463 50.7635C43.8028 49.4111 45.6216 48.6422 47.5254 48.6231C49.4286 48.6045 51.2627 49.3379 52.6282 50.664C53.9939 51.9901 54.7808 53.8011 54.8184 55.7044C54.8301 56.0581 54.6998 56.4016 54.4564 56.6582C54.2129 56.9149 53.8772 57.0632 53.5235 57.0705L53.5015 57.0704ZM50.458 60.0212C50.458 60.554 50.7786 61.0341 51.2709 61.238C51.7627 61.442 52.3291 61.3293 52.7058 60.9526C53.0824 60.576 53.1951 60.0095 52.9917 59.5172C52.7877 59.025 52.3076 58.7044 51.7749 58.7044C51.0581 58.7039 50.4726 59.2772 50.458 59.9939L50.458 60.0212ZM28.278 61.2673L27.9882 55.595C27.9506 54.8676 27.3305 54.3084 26.603 54.3465C25.8756 54.3841 25.3164 55.0042 25.3545 55.7317L25.6497 61.4039C25.7346 63.0872 26.4625 64.6734 27.6822 65.8365C28.9019 66.9991 30.5212 67.65 32.207 67.6549H62.9716C64.6562 67.6491 66.2751 66.9977 67.4944 65.8351C68.7141 64.6724 69.4421 63.0868 69.5289 61.4039L69.8241 55.7317H69.8236C69.8617 55.0042 69.3025 54.3841 68.5751 54.3465C67.8476 54.3084 67.2275 54.8676 67.1899 55.595L66.9001 61.2673C66.8469 62.2792 66.4078 63.232 65.6726 63.9292C64.9373 64.6269 63.9629 65.0158 62.9496 65.0158H32.2225C31.2096 65.0158 30.2358 64.6264 29.5015 63.9292C28.7672 63.2315 28.3291 62.2786 28.2774 61.2673H28.278ZM19.7315 43.1965L20.8897 43.8303L19.7315 43.1912C19.8027 43.0599 19.8734 42.9287 19.9554 42.7867C22.9282 37.4755 33.0701 29.0163 47.6062 29C62.1422 28.9834 72.278 37.4752 75.2619 42.8029C75.3385 42.9288 75.4151 43.0654 75.4859 43.1962V43.2289C77.1252 46.4582 75.8411 50.4419 72.3984 52.693L72.3989 52.694C72.1828 52.8306 71.933 52.9048 71.6773 52.9072C71.59 52.915 71.5022 52.915 71.4153 52.9072L54.7597 49.5627C54.4225 49.4949 54.1249 49.2993 53.9293 49.0163C52.1972 46.486 51.9021 43.3225 53.1808 40.9616H53.1803C53.2399 40.8411 53.2399 40.6996 53.1803 40.5791C53.1315 40.4698 53.0344 40.3893 52.9183 40.3605C51.1774 39.9326 49.3937 39.7053 47.6013 39.6833C45.7999 39.7023 44.007 39.9282 42.2568 40.3552C42.1417 40.3834 42.0465 40.4644 42.0002 40.5737C41.9407 40.6942 41.9407 40.8357 42.0002 40.9562C43.2789 43.3166 42.9838 46.4754 41.2571 49.0109C41.06 49.2924 40.7629 49.4881 40.4262 49.5574L23.7706 52.88C23.4335 52.9502 23.0822 52.8858 22.7924 52.6995C19.3498 50.4371 18.049 46.4593 19.7323 43.2294L19.7315 43.1965ZM23.8132 50.1857L39.4035 47.0875C40.3378 45.4481 40.4964 43.5902 39.7314 42.2134V42.2129C39.2659 41.3708 39.223 40.3589 39.6167 39.4807C39.9924 38.624 40.7457 37.9916 41.6546 37.7707C43.6023 37.3003 45.5968 37.0569 47.6002 37.0437C49.6117 37.0627 51.6141 37.316 53.5671 37.798C54.48 38.0171 55.2372 38.6523 55.6109 39.5134C56.008 40.3916 55.9631 41.4059 55.4909 42.2456C54.7478 43.6171 54.8898 45.4803 55.8241 47.1143L71.3869 50.2125C73.1135 48.8683 74.223 46.5786 73.1575 44.4695C73.0975 44.3602 73.0374 44.2509 72.9662 44.1363C70.2667 39.3109 60.9991 31.6773 47.5999 31.6666C34.2017 31.6558 24.9327 39.3168 22.2398 44.1202L22.0432 44.47C20.9772 46.5465 22.0808 48.8416 23.8128 50.1857L23.8132 50.1857Z" fill="#0E8778"/>
</svg>
