<svg width="52" height="52" viewBox="0 0 52 52" fill="none" xmlns="http://www.w3.org/2000/svg">
<circle cx="26" cy="26" r="26" fill="#E7F3F2"/>
<path d="M42.1756 15.5433C42.5363 16.1011 43.0728 16.4267 43.6577 16.4267C44.7545 16.4267 45.6133 15.309 45.6133 13.8823C45.6133 12.4556 44.7545 11.3379 43.6577 11.3379C43.0699 11.3379 42.5306 11.6662 42.174 12.2213H10.3948C10.0341 11.6635 9.49755 11.3379 8.9127 11.3379C7.81591 11.3379 6.95711 12.4556 6.95711 13.8823C6.95711 15.309 7.81592 16.4267 8.9127 16.4267C9.50053 16.4267 10.0398 16.0984 10.3964 15.5433H24.6241V27.8564L19.8515 25.8916C19.6543 25.8097 19.4352 25.7662 19.2182 25.7662L10.385 25.7666C9.46926 25.7666 8.72401 26.5118 8.72401 27.4276C8.72401 28.3434 9.46924 29.0886 10.385 29.0886H11.1185C11.1097 29.2295 11.1033 29.3697 11.1033 29.5066V32.0389C11.1033 34.314 12.2519 36.3994 14.1341 37.6259L13.4003 38.3634C13.0869 38.6769 12.914 39.0931 12.914 39.5357C12.914 39.9783 13.0872 40.3945 13.398 40.7056C13.7104 41.0221 14.1257 41.1967 14.5679 41.1984H14.573C15.0162 41.1984 15.4338 41.0242 15.75 40.708L17.709 38.7494C20.275 38.985 23.2876 39.104 26.3342 39.104C29.3226 39.104 32.3348 38.9894 34.9758 38.7625L36.925 40.706C37.2385 41.0238 37.6554 41.1987 38.0989 41.1987C38.5415 41.1987 38.9578 41.0245 39.2712 40.7083C39.5874 40.3949 39.7616 39.9789 39.7616 39.5364C39.7616 39.0928 39.5867 38.6759 39.2722 38.3651L38.7127 37.8026C40.4172 36.8248 41.6198 35.1388 41.9674 33.2116L42.7746 33.2109C43.6904 33.2109 44.4356 32.4657 44.4356 31.5499C44.4356 30.6341 43.6904 29.8889 42.7746 29.8889H42.0799V15.5438L42.1756 15.5433ZM42.8916 12.9149C43.0766 12.5324 43.3628 12.3045 43.6577 12.3045C44.1939 12.3045 44.6469 13.0272 44.6469 13.8823C44.6469 14.7377 44.1939 15.4604 43.658 15.4604C43.3631 15.4604 43.0766 15.2322 42.8855 14.8378C42.746 14.5679 42.6688 14.2288 42.6688 13.8823C42.6688 13.5361 42.7456 13.1967 42.8916 12.9149H42.8916ZM9.67909 14.85C9.49405 15.2322 9.20789 15.4604 8.91296 15.4604C8.37671 15.4604 7.92369 14.7378 7.92369 13.8823C7.92369 13.0272 8.37669 12.3042 8.91261 12.3042C9.20754 12.3042 9.49404 12.5324 9.68514 12.9268C9.82469 13.1967 9.90187 13.5358 9.90187 13.8823C9.90187 14.2288 9.82502 14.5679 9.67908 14.85H9.67909ZM10.7948 14.577C10.8096 14.5089 10.818 14.4381 10.8285 14.3683C10.8345 14.3272 10.8436 14.2875 10.848 14.2457C10.8612 14.1263 10.8682 14.005 10.8682 13.8823C10.8682 13.76 10.8612 13.639 10.848 13.52C10.8426 13.4698 10.8318 13.4216 10.8241 13.372C10.8143 13.3103 10.8076 13.248 10.7944 13.1876H41.7755C41.7607 13.2557 41.7523 13.3265 41.7418 13.3963C41.7358 13.4374 41.7267 13.4772 41.7223 13.519C41.7091 13.6383 41.7021 13.7596 41.7021 13.8823C41.7021 14.0047 41.7091 14.1257 41.7223 14.245C41.7277 14.2945 41.7381 14.3417 41.7455 14.3906C41.7553 14.453 41.7624 14.516 41.7755 14.577L10.7948 14.577ZM41.1141 15.5433V29.8884H29.5612L25.5906 28.252V15.5429L41.1141 15.5433ZM15.0668 40.0236C14.9327 40.1571 14.7577 40.2309 14.5733 40.2309H14.5713C14.3883 40.2305 14.2161 40.1574 14.0839 40.0233C13.9528 39.8925 13.8807 39.7189 13.8807 39.5345C13.8807 39.3505 13.9528 39.1769 14.085 39.0448L15.0112 38.1138C15.0479 38.131 15.087 38.1418 15.1241 38.1583C15.272 38.2234 15.4224 38.2814 15.5744 38.3356C15.6502 38.3626 15.7247 38.3922 15.8016 38.4165C16.0095 38.4822 16.2209 38.5378 16.4359 38.583C16.4551 38.5871 16.4733 38.5938 16.4925 38.5978L15.0668 40.0236ZM38.7955 39.5345C38.7955 39.7175 38.7224 39.8905 38.5903 40.0209C38.5889 40.0222 38.5876 40.0236 38.5866 40.0253C38.3243 40.2899 37.8774 40.2926 37.6101 40.0226L36.2276 38.6437C36.2623 38.639 36.295 38.6292 36.3294 38.6242C36.5394 38.5935 36.7456 38.5544 36.9479 38.5055C36.985 38.4968 37.0227 38.49 37.0594 38.4806C37.2883 38.4213 37.5101 38.3488 37.7268 38.2666C37.7484 38.2585 37.7713 38.2537 37.7929 38.2453L38.5904 39.0475C38.7225 39.1786 38.7956 39.3512 38.7956 39.5346L38.7955 39.5345ZM37.7044 37.2341C37.1631 37.4805 36.5682 37.6396 35.9407 37.705L35.702 37.7283C35.5318 37.7451 35.3596 37.7626 35.1708 37.7751C29.8194 38.2557 22.5472 38.2483 17.4752 37.7569L17.3687 37.7468C17.3219 37.7417 17.2754 37.7367 17.2423 37.7347C17.0404 37.7144 16.8419 37.6814 16.6454 37.6406C16.1213 37.5314 15.6164 37.3514 15.1388 37.0983C13.2462 36.107 12.0705 34.1683 12.0705 32.0378V29.5054C12.0705 29.3689 12.0756 29.2294 12.086 29.0875H18.8881L28.5971 33.0846C28.7943 33.1665 29.0133 33.21 29.2304 33.21H40.9826C40.6068 34.9748 39.3893 36.4865 37.7037 37.2341L37.7044 37.2341ZM42.7755 30.8543C43.1587 30.8543 43.4702 31.1661 43.4702 31.549C43.4702 31.9319 43.1587 32.2436 42.7755 32.2436H29.2303C29.1396 32.2436 29.0489 32.2258 28.967 32.1917L19.1675 28.1575C19.1088 28.1336 19.0468 28.1211 18.9835 28.1211L11.6515 28.1214H10.3855C10.0022 28.1214 9.69079 27.8097 9.69079 27.4268C9.69079 27.0439 10.0022 26.7321 10.3855 26.7321H19.2195C19.3101 26.7321 19.4008 26.75 19.4834 26.784L29.282 30.8179C29.3407 30.8421 29.4027 30.8546 29.4661 30.8546L41.5971 30.8543L42.7755 30.8543Z" fill="#269385"/>
<path d="M29.2293 27.6151C29.4962 27.6151 29.7126 27.3987 29.7126 27.1318V18.2978C29.7126 18.0308 29.4966 17.8145 29.2293 17.8145C28.9623 17.8145 28.7459 18.0308 28.7459 18.2978V27.1318C28.7459 27.3987 28.9623 27.6151 29.2293 27.6151Z" fill="#269385"/>
<path d="M33.3518 27.6151C33.6188 27.6151 33.8352 27.3987 33.8352 27.1318V18.2978C33.8352 18.0308 33.6191 17.8145 33.3518 17.8145C33.0849 17.8145 32.8685 18.0308 32.8685 18.2978V27.1318C32.8688 27.3987 33.0849 27.6151 33.3518 27.6151Z" fill="#269385"/>
<path d="M37.4744 27.6151C37.7413 27.6151 37.9577 27.3987 37.9577 27.1318V18.2978C37.9577 18.0308 37.7417 17.8145 37.4744 17.8145C37.2074 17.8145 36.991 18.0308 36.991 18.2978V27.1318C36.991 27.3987 37.2071 27.6151 37.4744 27.6151Z" fill="#269385"/>
<path d="M13.0346 16.9316C12.2809 16.9316 11.6681 17.5447 11.6681 18.2981C11.6681 19.0517 12.2812 19.6645 13.0346 19.6645C13.7882 19.6645 14.401 19.0514 14.401 18.2981C14.401 17.5444 13.7882 16.9316 13.0346 16.9316ZM13.0346 18.6982C12.8138 18.6982 12.6345 18.5185 12.6345 18.2981C12.6345 18.0773 12.8138 17.898 13.0346 17.898C13.2553 17.898 13.4347 18.0777 13.4347 18.2981C13.4347 18.5189 13.2553 18.6982 13.0346 18.6982Z" fill="#269385"/>
<path d="M15.6852 24.9645C16.9259 24.9645 17.935 23.955 17.935 22.7147C17.935 21.474 16.9256 20.4648 15.6852 20.4648C14.4445 20.4648 13.4354 21.4743 13.4354 22.7147C13.4354 23.9554 14.4448 24.9645 15.6852 24.9645ZM15.6852 21.4312C16.393 21.4312 16.9687 22.0069 16.9687 22.7147C16.9687 23.4225 16.393 23.9982 15.6852 23.9982C14.9774 23.9982 14.4017 23.4225 14.4017 22.7147C14.4017 22.0069 14.9774 21.4312 15.6852 21.4312Z" fill="#269385"/>
<path d="M23.8246 19.1824C23.8246 17.6171 22.5508 16.3438 20.9859 16.3438C19.4206 16.3438 18.1473 17.6175 18.1473 19.1824C18.1473 20.7477 19.4211 22.021 20.9859 22.021C22.5508 22.021 23.8246 20.7476 23.8246 19.1824ZM19.1132 19.1824C19.1132 18.15 19.9531 17.3101 20.9855 17.3101C22.0179 17.3101 22.8578 18.15 22.8578 19.1824C22.8578 20.2148 22.0179 21.0547 20.9855 21.0547C19.9531 21.0547 19.1132 20.2148 19.1132 19.1824Z" fill="#269385"/>
</svg>
