<svg width="64" height="64" viewBox="0 0 64 64" fill="none" xmlns="http://www.w3.org/2000/svg">
<path fill-rule="evenodd" clip-rule="evenodd" d="M38.8974 6.63214C44.2301 5.19571 49.7063 8.35736 51.1288 13.6939L57.4362 37.3574C58.8586 42.694 55.6887 48.1845 50.3559 49.621L26.9038 55.938C21.571 57.3744 16.0948 54.2128 14.6724 48.8763L8.36497 25.2127C6.94254 19.8762 10.1125 14.3856 15.4453 12.9492L38.8974 6.63214Z" fill="#B7DBD7"/>
<path fill-rule="evenodd" clip-rule="evenodd" d="M25.0569 7.69898C28.9519 3.78351 35.2669 3.7835 39.1619 7.69897L56.3621 24.9898C60.2571 28.9052 60.2571 35.2535 56.3622 39.169L39.1619 56.4598C35.2669 60.3753 28.9519 60.3753 25.0569 56.4598L7.8566 39.169C3.96162 35.2535 3.96161 28.9053 7.85659 24.9898L25.0569 7.69898Z" fill="#3E9F93"/>
<path d="M41.932 39.7285H41.9621V37.495C41.9621 37.447 41.9576 36.3045 41.5598 35.1149L40.3462 32.2837H38.3667L37.1419 35.1439C36.7552 36.3045 36.7508 37.447 36.7508 37.495V38.2395H35.634C35.0183 38.2395 34.5173 37.7385 34.5173 37.1228V35.5724C36.2944 34.5405 37.4952 32.6212 37.4952 30.4227V30.3698C38.1355 30.2035 38.612 29.6257 38.612 28.9337C38.612 28.2648 38.36 27.8423 38.2189 27.6577C38.2316 27.5889 38.2397 27.5186 38.2397 27.4448V26.7003C38.2397 23.0058 35.2339 20 31.5394 20C27.8449 20 24.8391 23.0058 24.8391 26.7003V27.4448C24.8391 27.5186 24.8473 27.5889 24.8599 27.6577C24.7188 27.8423 24.4669 28.2648 24.4669 28.9337C24.4669 29.6257 24.9433 30.2035 25.5836 30.3698V30.4227C25.5836 32.6216 26.7844 34.5408 28.5615 35.5724V37.1228C28.5615 37.7385 28.0605 38.2395 27.4448 38.2395H25.5836V37.715C26.3154 37.2713 26.7003 36.5566 26.7003 35.6338C26.7003 34.7278 26.0891 33.6729 24.921 33.4094L24.4669 33.307V35.2616H23.7224V33.3062L23.2676 33.4092C22.0999 33.6751 21.489 34.7293 21.489 35.6338C21.489 36.5566 21.8738 37.271 22.6057 37.715V38.6513C21.0705 39.3584 20 40.9082 20 42.7064V43.0786H20.7445V42.7064C20.7445 40.7797 22.2163 39.1902 24.0946 39.0029V43.0786H24.8391V38.984H25.9558V43.0786H26.7003V38.984H27.4448C27.5967 38.984 27.7419 38.9605 27.8833 38.9263C28.2067 40.6512 29.7218 41.9619 31.5394 41.9619C33.357 41.9619 34.8721 40.6512 35.1955 38.9263C35.3369 38.9605 35.4821 38.984 35.634 38.984H36.3785V43.0786H37.123V38.984H38.2397V43.0786H38.9842V39.0029C40.8625 39.1905 42.3343 40.7797 42.3343 42.7064V43.0786H43.0788V42.7064C43.0788 41.5617 42.6426 40.5198 41.932 39.7285ZM23.1435 37.1615C22.5311 36.8574 22.2333 36.3578 22.2333 35.6338C22.2333 35.1556 22.4876 34.615 22.9778 34.318V36.0061H25.2112V34.3172C25.7014 34.6135 25.9557 35.1548 25.9557 35.6338C25.9557 36.3579 25.6579 36.8574 25.0455 37.1615L24.839 37.2642V38.2395H24.4667C24.0807 38.2395 23.7078 38.2938 23.35 38.3866V37.2642L23.1435 37.1615ZM37.4953 29.5746V28.6143C37.5989 28.5465 37.6941 28.475 37.7787 28.3988C37.8274 28.5339 37.8676 28.711 37.8676 28.9337C37.8676 29.208 37.7168 29.4455 37.4953 29.5746ZM31.5395 28.9337C27.8135 28.9337 25.5858 28.1773 25.5841 27.4459C25.6571 27.0662 27.8224 26.328 31.5395 26.328C35.2589 26.328 37.4251 27.0668 37.4953 27.4447C37.4953 28.1766 35.2676 28.9337 31.5395 28.9337ZM31.1673 20.7636V23.3503H31.9117V20.7636C34.957 20.9534 37.3847 23.4362 37.4855 26.5046C36.1606 25.7983 33.3801 25.5836 31.5395 25.5836C29.6989 25.5836 26.9186 25.7983 25.5935 26.5043C25.694 23.4361 28.1219 20.953 31.1673 20.7633V20.7636ZM25.2114 28.9337C25.2114 28.7107 25.2517 28.5335 25.3003 28.3984C25.3848 28.475 25.4802 28.5467 25.5837 28.614V29.5743C25.3622 29.4455 25.2114 29.2081 25.2114 28.9337ZM26.3282 30.4227V28.9839C27.9693 29.6094 30.5129 29.6782 31.5395 29.6782C32.5662 29.6782 35.1097 29.6094 36.7509 28.9839V30.4227C36.7509 33.2964 34.4132 35.634 31.5395 35.634C28.6658 35.634 26.3282 33.2964 26.3282 30.4227ZM31.5395 41.2176C30.0145 41.2176 28.7549 40.0643 28.5832 38.5843C29.0198 38.2438 29.3061 37.7185 29.3061 37.123V35.9399C29.9965 36.2206 30.7497 36.3785 31.5395 36.3785C32.3293 36.3785 33.0825 36.2206 33.7729 35.9399V37.123C33.7729 37.7185 34.0593 38.2438 34.4958 38.5843C34.3241 40.0643 33.0645 41.2176 31.5395 41.2176ZM40.8646 35.3796C41.2123 36.4219 41.2179 37.4849 41.2179 37.4957V39.0859C40.833 38.8082 40.405 38.5867 39.9424 38.4419C40.2598 38.245 40.4734 37.8958 40.4734 37.4954C40.4734 37.0108 40.1612 36.6013 39.729 36.4471V33.0285H39.8559L40.8646 35.3796ZM39.3567 37.1231C39.5618 37.1231 39.729 37.29 39.729 37.4954C39.729 37.7008 39.5618 37.8676 39.3567 37.8676C39.1517 37.8676 38.9845 37.7008 38.9845 37.4954C38.9845 37.29 39.1517 37.1231 39.3567 37.1231ZM37.4955 37.4954C37.4955 37.4849 37.4997 36.427 37.8377 35.4087L38.8576 33.0285H38.9845V36.4471C38.5523 36.6011 38.24 37.0106 38.24 37.4954C38.24 37.7824 38.352 38.0418 38.5303 38.2398H37.4956L37.4955 37.4954Z" fill="white"/>
<path d="M31.9115 30.7953H35.2616V30.0508H31.167V33.7732H31.9115V30.7953Z" fill="white"/>
<path d="M26.7007 24.8398H27.4452V25.5843H26.7007V24.8398Z" fill="white"/>
<path d="M28.1899 24.4648H28.9344V25.2093H28.1899V24.4648Z" fill="white"/>
</svg>
