<svg width="136" height="136" viewBox="0 0 136 136" fill="none" xmlns="http://www.w3.org/2000/svg">
<path fill-rule="evenodd" clip-rule="evenodd" d="M93.7001 10.596C99.0348 9.16659 104.518 12.3324 105.948 17.6671L125.411 90.3047C126.84 95.6393 123.674 101.123 118.34 102.552L45.7021 122.015C40.3674 123.445 34.884 120.279 33.4546 114.944L13.9914 42.3067C12.562 36.972 15.7278 31.4886 21.0625 30.0592L93.7001 10.596Z" fill="#C5ECDC"/>
<path fill-rule="evenodd" clip-rule="evenodd" d="M60.9289 7.75857C64.8342 3.85333 71.1658 3.85333 75.0711 7.75857L128.245 60.933C132.151 64.8382 132.151 71.1699 128.245 75.0751L75.0711 128.25C71.1658 132.155 64.8342 132.155 60.9289 128.25L7.75451 75.0751C3.84927 71.1699 3.84926 64.8382 7.75451 60.933L60.9289 7.75857Z" fill="white"/>
<path d="M93.2925 87.9381H93.3655V82.5111C93.3655 82.3944 93.3546 79.6183 92.388 76.7275L89.4391 69.8481H84.6291L81.6531 76.7981C80.7135 79.6182 80.7026 82.3944 80.7026 82.5111V84.3201H77.9891C76.493 84.3201 75.2756 83.1027 75.2756 81.6066V77.8392C79.5937 75.332 82.5116 70.6682 82.5116 65.3261V65.1977C84.0674 64.7935 85.2251 63.3895 85.2251 61.708C85.2251 60.0827 84.6129 59.0559 84.2701 58.6073C84.3008 58.4401 84.3206 58.2693 84.3206 58.09V56.281C84.3206 47.3038 77.0168 40 68.0396 40C59.0624 40 51.7585 47.3038 51.7585 56.281V58.09C51.7585 58.2693 51.7783 58.4401 51.809 58.6073C51.4662 59.0559 50.854 60.0827 50.854 61.708C50.854 63.3895 52.0117 64.7935 53.5675 65.1977V65.3261C53.5675 70.6691 56.4854 75.3325 60.8035 77.8392V81.6066C60.8035 83.1027 59.5861 84.3201 58.09 84.3201H53.5675V83.0457C55.3458 81.9676 56.281 80.2309 56.281 77.9886C56.281 75.7871 54.7959 73.2238 51.9576 72.5834L50.854 72.3346V77.084H49.045V72.3326L47.9399 72.5829C45.1024 73.229 43.618 75.7907 43.618 77.9885C43.618 80.2308 44.5532 81.9667 46.3315 83.0457V85.3207C42.6012 87.0388 40 90.8047 40 95.1741V96.0786H41.809V95.1741C41.809 90.4925 45.3855 86.6302 49.9495 86.1751V96.0786H51.7585V86.1291H54.472V96.0786H56.281V86.1291H58.09C58.4591 86.1291 58.812 86.0721 59.1557 85.9889C59.9415 90.1804 63.6229 93.365 68.0396 93.365C72.4562 93.365 76.1377 90.1802 76.9234 85.9889C77.2671 86.0721 77.62 86.1291 77.9891 86.1291H79.7981V96.0786H81.6071V86.1291H84.3206V96.0786H86.1296V86.1751C90.6937 86.631 94.2701 90.4925 94.2701 95.1741V96.0786H96.0791V95.1741C96.0791 92.3928 95.0191 89.861 93.2925 87.9381ZM47.6384 81.7006C46.1503 80.9617 45.4267 79.7479 45.4267 77.9886C45.4267 76.8265 46.0445 75.5129 47.2357 74.7913V78.8931H52.6627V74.7893C53.8539 75.5093 54.4718 76.8245 54.4718 77.9886C54.4718 79.748 53.7482 80.9618 52.2601 81.7006L51.7582 81.9502V84.3201H50.8537C49.9157 84.3201 49.0095 84.4521 48.1402 84.6775V81.9502L47.6384 81.7006ZM82.5118 63.2654V60.9318C82.7634 60.7671 82.9948 60.5935 83.2003 60.4081C83.3186 60.7364 83.4163 61.1668 83.4163 61.7079C83.4163 62.3746 83.0501 62.9516 82.5118 63.2654ZM68.0398 61.708C58.9859 61.708 53.5729 59.8699 53.5688 58.0927C53.7461 57.1701 59.0075 55.3764 68.0398 55.3764C77.0776 55.3764 82.3413 57.1717 82.5118 58.0899C82.5118 59.8682 77.0986 61.708 68.0398 61.708ZM67.1353 41.8554V48.1409H68.9443V41.8554C76.3439 42.3166 82.2431 48.3496 82.4881 55.8054C79.2685 54.0893 72.5123 53.5676 68.0398 53.5676C63.5673 53.5676 56.8116 54.0893 53.5915 55.8047C53.8358 48.3494 59.7353 42.3157 67.1353 41.8547V41.8554ZM52.6633 61.708C52.6633 61.1661 52.761 60.7356 52.8793 60.4073C53.0844 60.5935 53.3162 60.7675 53.5678 60.9311V63.2646C53.0295 62.9516 52.6633 62.3747 52.6633 61.708ZM55.3768 65.326V61.8299C59.3646 63.3498 65.5451 63.517 68.0398 63.517C70.5345 63.517 76.715 63.3498 80.7028 61.8299V65.326C80.7028 72.3088 75.0227 77.989 68.0398 77.989C61.0569 77.989 55.3768 72.3088 55.3768 65.326ZM68.0398 91.5565C64.3341 91.5565 61.2734 88.7542 60.8563 85.158C61.9171 84.3306 62.6128 83.0542 62.6128 81.607V78.7323C64.2905 79.4143 66.1206 79.798 68.0398 79.798C69.959 79.798 71.7891 79.4144 73.4668 78.7323V81.607C73.4668 83.0542 74.1626 84.3306 75.2233 85.158C74.8062 88.7542 71.7454 91.5565 68.0398 91.5565ZM90.6989 77.3708C91.5436 79.9034 91.5573 82.4865 91.5573 82.5127V86.3767C90.6221 85.7019 89.582 85.1637 88.4578 84.8119C89.2291 84.3334 89.7483 83.4851 89.7483 82.5119C89.7483 81.3344 88.9896 80.3395 87.9393 79.9647V71.6579H88.2478L90.6989 77.3708ZM87.0349 81.6074C87.5331 81.6074 87.9394 82.0128 87.9394 82.5119C87.9394 83.011 87.5331 83.4164 87.0349 83.4164C86.5366 83.4164 86.1304 83.011 86.1304 82.5119C86.1304 82.0128 86.5366 81.6074 87.0349 81.6074ZM82.5123 82.5119C82.5123 82.4865 82.5224 79.9159 83.3438 77.4414L85.8219 71.6579H86.1304V79.9647C85.0801 80.3391 84.3214 81.334 84.3214 82.5119C84.3214 83.2093 84.5935 83.8396 85.0268 84.3209H82.5124L82.5123 82.5119Z" fill="#0E8778"/>
<path d="M68.9438 66.2309H77.0843V64.4219H67.1348V73.4669H68.9438V66.2309Z" fill="#0E8778"/>
<path d="M56.2812 51.7578H58.0903V53.5668H56.2812V51.7578Z" fill="#0E8778"/>
<path d="M59.9004 50.8516H61.7094V52.6606H59.9004V50.8516Z" fill="#0E8778"/>
</svg>
