<svg width="54" height="42" viewBox="0 0 54 42" fill="none" xmlns="http://www.w3.org/2000/svg">
<path d="M46.5395 0C50.6605 0 54 3.29 54 7.35V34.65C54 38.71 50.6605 42 46.5395 42H7.46053C5.48187 42 3.58426 41.2256 2.18514 39.8472C0.786017 38.4688 0 36.5993 0 34.65V7.35C0 3.29 3.33947 0 7.46053 0H46.5395ZM50.4474 13.0914L27.8555 25.333C27.623 25.4589 27.3649 25.5319 27.1001 25.5467C26.8352 25.5615 26.5704 25.5177 26.325 25.4184L26.1445 25.3344L3.55263 13.09V34.65C3.55263 35.6711 3.96435 36.6503 4.69723 37.3724C5.4301 38.0944 6.42409 38.5 7.46053 38.5H46.5395C47.5759 38.5 48.5699 38.0944 49.3028 37.3724C50.0356 36.6503 50.4474 35.6711 50.4474 34.65V13.0914ZM46.5395 3.5H7.46053C6.42409 3.5 5.4301 3.90562 4.69723 4.62764C3.96435 5.34965 3.55263 6.32892 3.55263 7.35V9.0986L27 21.8022L50.4474 9.0972V7.35C50.4474 6.32892 50.0356 5.34965 49.3028 4.62764C48.5699 3.90562 47.5759 3.5 46.5395 3.5Z" fill="url(#paint0_linear_36_983)"/>
<defs>
<linearGradient id="paint0_linear_36_983" x1="0" y1="42" x2="53.379" y2="-0.774991" gradientUnits="userSpaceOnUse">
<stop stop-color="#3C8477"/>
<stop offset="1" stop-color="#5BB7A6"/>
</linearGradient>
</defs>
</svg>
