<svg width="21" height="17" viewBox="0 0 21 17" fill="none" xmlns="http://www.w3.org/2000/svg">
<path d="M18.0987 0C19.7013 0 21 1.33167 21 2.975V14.025C21 15.6683 19.7013 17 18.0987 17H2.90132C2.13184 17 1.39388 16.6866 0.849776 16.1286C0.305673 15.5707 0 14.814 0 14.025V2.975C0 1.33167 1.29868 0 2.90132 0H18.0987ZM19.6184 5.2989L10.8327 10.2538C10.7423 10.3048 10.6419 10.3344 10.5389 10.3403C10.4359 10.3463 10.3329 10.3286 10.2375 10.2884L10.1673 10.2544L1.38158 5.29833V14.025C1.38158 14.4383 1.54169 14.8347 1.8267 15.1269C2.11171 15.4192 2.49826 15.5833 2.90132 15.5833H18.0987C18.5017 15.5833 18.8883 15.4192 19.1733 15.1269C19.4583 14.8347 19.6184 14.4383 19.6184 14.025V5.2989ZM18.0987 1.41667H2.90132C2.49826 1.41667 2.11171 1.58085 1.8267 1.87309C1.54169 2.16534 1.38158 2.5617 1.38158 2.975V3.68277L10.5 8.8247L19.6184 3.6822V2.975C19.6184 2.5617 19.4583 2.16534 19.1733 1.87309C18.8883 1.58085 18.5017 1.41667 18.0987 1.41667Z" fill="url(#paint0_linear_118_4135)"/>
<defs>
<linearGradient id="paint0_linear_118_4135" x1="0" y1="17" x2="21.402" y2="0.522155" gradientUnits="userSpaceOnUse">
<stop stop-color="#3C8477"/>
<stop offset="1" stop-color="#5BB7A6"/>
</linearGradient>
</defs>
</svg>
