<svg width="52" height="52" viewBox="0 0 52 52" fill="none" xmlns="http://www.w3.org/2000/svg">
<path fill-rule="evenodd" clip-rule="evenodd" d="M31.8443 36.6349L36.6914 41.4823C37.3689 42.1598 37.742 43.0606 37.7419 44.0185C37.7419 44.9766 37.3689 45.8774 36.6913 46.5549L32.8137 50.4327C31.7696 51.4768 30.3148 51.9997 28.54 51.9997C26.8707 51.9997 24.9181 51.5373 22.7568 50.611C18.7371 48.8882 14.3102 45.7262 10.2917 41.7076C6.27324 37.6889 3.11135 33.2618 1.38862 29.2419C-0.522427 24.7826 -0.459079 21.2107 1.56703 19.1846L5.44472 15.3067C6.84317 13.9082 9.11869 13.9082 10.5171 15.3067L15.3642 20.154C16.7626 21.5525 16.7626 23.8281 15.3642 25.2266L13.2346 27.3564C15.7815 32.2204 19.7785 36.2175 24.6423 38.7646L26.7718 36.6349C28.1701 35.2365 30.4458 35.2364 31.8443 36.6349ZM30.6482 48.2715L34.5259 44.3937C34.66 44.2596 34.6802 44.1031 34.68 44.0215C34.68 43.9401 34.6599 43.7835 34.5258 43.6495L29.6787 38.8022C29.5447 38.6682 29.3881 38.6482 29.3068 38.6482C29.2255 38.6482 29.0688 38.6683 28.9348 38.8023L25.264 42.4733L24.2894 42.0117C18.032 39.0476 12.9536 33.9688 9.98959 27.7113L9.52789 26.7366L13.1987 23.0656C13.4038 22.8605 13.4038 22.5266 13.1987 22.3215L8.35162 17.4742C8.14648 17.269 7.8127 17.269 7.60746 17.4742L3.72978 21.352C2.67979 22.402 2.85586 24.9019 4.20035 28.0393C5.77343 31.7099 8.70488 35.7965 12.4545 39.5464C16.2043 43.2963 20.2908 46.2278 23.9612 47.801C27.0987 49.1456 29.5984 49.3214 30.6482 48.2715Z" fill="url(#paint0_linear_11_420)"/>
<path fill-rule="evenodd" clip-rule="evenodd" d="M36.0643 0C40.2768 0 44.2477 1.39798 47.2455 3.93639C50.3114 6.53248 51.9999 10.0038 51.9999 13.711C51.9999 17.4183 50.3114 20.8898 47.2455 23.4857C44.2477 26.0241 40.2768 27.4221 36.0643 27.4221C34.599 27.4221 33.1631 27.2524 31.787 26.925C28.9957 28.2447 25.9312 29.0908 22.6992 29.3548C24.1809 27.9834 25.4983 26.4417 26.6252 24.7644C26.0148 24.3774 25.4326 23.9508 24.8831 23.4857C21.8174 20.8896 20.1289 17.4183 20.1289 13.711C20.1289 10.0038 21.8174 6.53238 24.8831 3.93639C27.881 1.39798 31.852 0 36.0643 0ZM23.2129 13.711C23.2129 19.5912 28.9779 24.3752 36.0641 24.3752C43.1502 24.3752 48.9153 19.5912 48.9152 13.711C48.9152 7.83082 43.1502 3.04688 36.0641 3.04688C28.9779 3.04688 23.2129 7.83082 23.2129 13.711Z" fill="url(#paint1_linear_11_420)"/>
<circle cx="36.4835" cy="13.839" r="2.09677" fill="url(#paint2_linear_11_420)"/>
<circle cx="29.7745" cy="13.839" r="2.09677" fill="url(#paint3_linear_11_420)"/>
<circle cx="44.0323" cy="13.839" r="2.09677" fill="url(#paint4_linear_11_420)"/>
<defs>
<linearGradient id="paint0_linear_11_420" x1="49.3394" y1="26.1103" x2="13.0742" y2="2.91539" gradientUnits="userSpaceOnUse">
<stop stop-color="#3C8477"/>
<stop offset="1" stop-color="#5BB7A6"/>
</linearGradient>
<linearGradient id="paint1_linear_11_420" x1="61.7933" y1="9.21858" x2="32.6803" y2="-10.9978" gradientUnits="userSpaceOnUse">
<stop stop-color="#3C8477"/>
<stop offset="1" stop-color="#5BB7A6"/>
</linearGradient>
<linearGradient id="paint2_linear_11_420" x1="39.8689" y1="13.0591" x2="35.8394" y2="10.4819" gradientUnits="userSpaceOnUse">
<stop stop-color="#3C8477"/>
<stop offset="1" stop-color="#5BB7A6"/>
</linearGradient>
<linearGradient id="paint3_linear_11_420" x1="33.1599" y1="13.0591" x2="29.1304" y2="10.4819" gradientUnits="userSpaceOnUse">
<stop stop-color="#3C8477"/>
<stop offset="1" stop-color="#5BB7A6"/>
</linearGradient>
<linearGradient id="paint4_linear_11_420" x1="47.4177" y1="13.0591" x2="43.3882" y2="10.4819" gradientUnits="userSpaceOnUse">
<stop stop-color="#3C8477"/>
<stop offset="1" stop-color="#5BB7A6"/>
</linearGradient>
</defs>
</svg>
