<svg width="21" height="21" viewBox="0 0 21 21" fill="none" xmlns="http://www.w3.org/2000/svg">
<path fill-rule="evenodd" clip-rule="evenodd" d="M12.7902 14.8276L14.737 16.7745C15.0091 17.0466 15.159 17.4084 15.1589 17.7931C15.1589 18.178 15.0091 18.5398 14.737 18.8119L13.1795 20.3694C12.7602 20.7888 12.1759 20.9988 11.463 20.9988C10.7925 20.9988 10.0083 20.8131 9.14022 20.441C7.52569 19.7491 5.74763 18.479 4.13363 16.865C2.51963 15.2509 1.24967 13.4728 0.557735 11.8582C-0.209831 10.0671 -0.184388 8.63247 0.629394 7.81869L2.18686 6.26112C2.74854 5.69942 3.6625 5.69942 4.22418 6.26112L6.171 8.20802C6.73264 8.76973 6.73264 9.68373 6.171 10.2454L5.31563 11.1008C6.33861 13.0545 7.94397 14.6599 9.89751 15.6829L10.7528 14.8276C11.3144 14.2659 12.2285 14.2658 12.7902 14.8276ZM12.31 19.4998L13.8675 17.9423C13.9213 17.8885 13.9294 17.8256 13.9294 17.7928C13.9294 17.7601 13.9213 17.6972 13.8674 17.6434L11.9206 15.6965C11.8668 15.6427 11.8039 15.6346 11.7712 15.6346C11.7386 15.6346 11.6757 15.6427 11.6218 15.6965L10.1475 17.171L9.75601 16.9856C7.24276 15.795 5.20301 13.7552 4.01254 11.2419L3.8271 10.8504L5.30147 9.37592C5.38386 9.29356 5.38386 9.15946 5.30147 9.07706L3.35465 7.13016C3.27226 7.04776 3.1382 7.04776 3.05576 7.13016L1.4983 8.68769C1.07658 9.10939 1.1473 10.1135 1.68731 11.3736C2.31913 12.8479 3.49654 14.4893 5.00258 15.9954C6.50866 17.5016 8.14999 18.679 9.6242 19.3108C10.8844 19.8509 11.8883 19.9215 12.31 19.4998Z" fill="url(#paint0_linear_118_4121)"/>
<path fill-rule="evenodd" clip-rule="evenodd" d="M14.4844 0.113281C16.1763 0.113281 17.7712 0.674774 18.9753 1.69432C20.2067 2.73703 20.8849 4.13126 20.8849 5.62028C20.8849 7.1093 20.2067 8.50361 18.9753 9.54625C17.7712 10.5658 16.1763 11.1273 14.4844 11.1273C13.8959 11.1273 13.3191 11.0591 12.7664 10.9276C11.6453 11.4577 10.4144 11.7975 9.11633 11.9036C9.71146 11.3527 10.2406 10.7335 10.6932 10.0598C10.4481 9.90441 10.2142 9.73306 9.99351 9.54625C8.76215 8.50353 8.08398 7.1093 8.08398 5.62028C8.08398 4.13126 8.76215 2.73699 9.99351 1.69432C11.1976 0.674774 12.7925 0.113281 14.4844 0.113281ZM9.32324 5.61917C9.32324 7.98094 11.6388 9.90239 14.4849 9.90239C17.331 9.90239 19.6466 7.98094 19.6465 5.61917C19.6465 3.2574 17.331 1.33594 14.4849 1.33594C11.6388 1.33594 9.32324 3.2574 9.32324 5.61917Z" fill="url(#paint1_linear_118_4121)"/>
<circle cx="14.6537" cy="5.67029" r="0.842163" fill="url(#paint2_linear_118_4121)"/>
<circle cx="11.9584" cy="5.67224" r="0.842163" fill="url(#paint3_linear_118_4121)"/>
<circle cx="17.6849" cy="5.67224" r="0.842163" fill="url(#paint4_linear_118_4121)"/>
<defs>
<linearGradient id="paint0_linear_118_4121" x1="19.817" y1="10.6004" x2="5.25121" y2="1.28419" gradientUnits="userSpaceOnUse">
<stop stop-color="#3C8477"/>
<stop offset="1" stop-color="#5BB7A6"/>
</linearGradient>
<linearGradient id="paint1_linear_118_4121" x1="24.8184" y1="3.8159" x2="13.1252" y2="-4.30396" gradientUnits="userSpaceOnUse">
<stop stop-color="#3C8477"/>
<stop offset="1" stop-color="#5BB7A6"/>
</linearGradient>
<linearGradient id="paint2_linear_118_4121" x1="16.0134" y1="5.35707" x2="14.395" y2="4.32194" gradientUnits="userSpaceOnUse">
<stop stop-color="#3C8477"/>
<stop offset="1" stop-color="#5BB7A6"/>
</linearGradient>
<linearGradient id="paint3_linear_118_4121" x1="13.3181" y1="5.35902" x2="11.6997" y2="4.32389" gradientUnits="userSpaceOnUse">
<stop stop-color="#3C8477"/>
<stop offset="1" stop-color="#5BB7A6"/>
</linearGradient>
<linearGradient id="paint4_linear_118_4121" x1="19.0447" y1="5.35902" x2="17.4262" y2="4.32389" gradientUnits="userSpaceOnUse">
<stop stop-color="#3C8477"/>
<stop offset="1" stop-color="#5BB7A6"/>
</linearGradient>
</defs>
</svg>
