<svg width="54" height="44" viewBox="0 0 54 44" fill="none" xmlns="http://www.w3.org/2000/svg">
<path d="M26.7936 43.9997C41.5913 43.9997 53.5872 43.2993 53.5872 42.4354C53.5872 41.5715 41.5913 40.8711 26.7936 40.8711C11.9959 40.8711 0 41.5715 0 42.4354C0 43.2993 11.9959 43.9997 26.7936 43.9997Z" fill="#F5F5F5"/>
<path d="M44.4194 0.000115726H28.5152C27.9697 0.00908354 27.4471 0.221052 27.0495 0.59463C26.6519 0.968207 26.4079 1.47657 26.365 2.02045L23.8914 40.1C23.8712 40.3592 23.9053 40.6199 23.9913 40.8653C24.0774 41.1107 24.2136 41.3355 24.3913 41.5254C24.569 41.7153 24.7843 41.8662 25.0234 41.9684C25.2626 42.0705 25.5204 42.1218 25.7804 42.1189H41.6902C42.2356 42.1103 42.7581 41.8986 43.1558 41.5253C43.5534 41.1519 43.7975 40.6437 43.8404 40.1L45.6148 12.7301C45.6902 12.7038 45.7563 12.6563 45.8054 12.5933C45.8544 12.5303 45.8842 12.4545 45.8912 12.375L46.209 7.47755C46.2145 7.40147 46.1952 7.32565 46.1538 7.26157C46.1124 7.19748 46.0512 7.14863 45.9796 7.12241L46.3099 2.02045C46.33 1.76098 46.2959 1.50015 46.2098 1.25457C46.1237 1.00899 45.9874 0.784025 45.8095 0.593993C45.6317 0.40396 45.4163 0.25302 45.177 0.150777C44.9377 0.048533 44.6797 -0.00277539 44.4194 0.000115726Z" fill="#86C3BB"/>
<path d="M25.0768 9.8587H25.3891C25.4858 9.85697 25.5783 9.81938 25.6488 9.75324C25.7193 9.6871 25.7626 9.59713 25.7705 9.50079L25.9087 7.45559C25.9122 7.40957 25.906 7.36334 25.8906 7.31983C25.8753 7.27632 25.851 7.23647 25.8195 7.20282C25.7879 7.16917 25.7497 7.14245 25.7072 7.12435C25.6648 7.10625 25.619 7.09716 25.5729 7.09768H25.262C25.1652 7.0991 25.0725 7.13659 25.002 7.20279C24.9314 7.26899 24.8881 7.35914 24.8806 7.45559L24.7424 9.50079C24.7389 9.54669 24.7451 9.5928 24.7603 9.63622C24.7756 9.67964 24.7997 9.71942 24.8311 9.75305C24.8626 9.78668 24.9006 9.81343 24.9429 9.83161C24.9852 9.8498 25.0308 9.85902 25.0768 9.8587Z" fill="#86C3BB"/>
<path d="M24.8406 13.511H25.1515C25.2486 13.5093 25.3414 13.4716 25.4122 13.4052C25.4829 13.3388 25.5265 13.2485 25.5343 13.1518L25.6725 11.1079C25.676 11.0619 25.6698 11.0157 25.6545 10.9722C25.6391 10.9287 25.6149 10.8888 25.5833 10.8552C25.5517 10.8215 25.5135 10.7948 25.4711 10.7767C25.4286 10.7586 25.3829 10.7495 25.3367 10.75H25.0258C24.9289 10.7514 24.836 10.7889 24.7653 10.855C24.6945 10.9212 24.6509 11.0114 24.643 11.1079L24.5048 13.1518C24.501 13.1979 24.5068 13.2444 24.522 13.2882C24.5372 13.3319 24.5614 13.372 24.593 13.4059C24.6247 13.4397 24.663 13.4666 24.7057 13.4847C24.7483 13.5028 24.7943 13.5118 24.8406 13.511Z" fill="#86C3BB"/>
<path d="M40.8443 42.1189H24.9401C24.68 42.1218 24.4222 42.0705 24.1831 41.9683C23.9439 41.8662 23.7286 41.7153 23.551 41.5254C23.3733 41.3355 23.2371 41.1107 23.151 40.8653C23.0649 40.6199 23.0309 40.3592 23.051 40.1L25.5191 2.02043C25.5623 1.47643 25.8067 0.968059 26.2045 0.594509C26.6024 0.22096 27.1251 0.00903925 27.6707 0.00010087H43.5736C43.8337 -0.00259708 44.0915 0.0488533 44.3307 0.151182C44.5699 0.253512 44.7851 0.404481 44.9628 0.594493C45.1404 0.784504 45.2766 1.0094 45.3627 1.25489C45.4487 1.50037 45.4828 1.76108 45.4626 2.02043L42.9946 40.1C42.9516 40.6437 42.7075 41.1519 42.3099 41.5253C41.9123 41.8986 41.3897 42.1103 40.8443 42.1189Z" fill="#263238"/>
<path opacity="0.2" d="M33.9733 40.4998C34.5305 39.9605 34.5724 39.1001 34.0671 38.5781C33.5617 38.056 32.7004 38.0701 32.1433 38.6094C31.5862 39.1487 31.5442 40.0091 32.0495 40.5312C32.5549 41.0532 33.4162 41.0392 33.9733 40.4998Z" fill="white"/>
<path d="M42.2813 37.1761H24.202C24.1404 37.176 24.0795 37.1633 24.0231 37.1388C23.9666 37.1143 23.9157 37.0784 23.8736 37.0335C23.8316 36.9886 23.7991 36.9355 23.7784 36.8775C23.7576 36.8196 23.7489 36.758 23.7529 36.6965L25.8686 4.03957C25.8779 3.92678 25.9292 3.8216 26.0124 3.74483C26.0956 3.66807 26.2045 3.62531 26.3177 3.625H44.3984C44.46 3.62506 44.5209 3.63774 44.5774 3.66226C44.6338 3.68677 44.6847 3.7226 44.7268 3.76754C44.7689 3.81248 44.8013 3.86556 44.8221 3.92352C44.8428 3.98148 44.8515 4.04308 44.8475 4.10452L42.7305 36.7546C42.7231 36.8687 42.6726 36.9758 42.5892 37.0541C42.5058 37.1323 42.3957 37.1759 42.2813 37.1761Z" fill="white"/>
<path opacity="0.2" d="M37.2369 24.3044C39.2592 22.3466 39.4114 19.2233 37.5769 17.3282C35.7423 15.4331 32.6157 15.4839 30.5934 17.4416C28.5711 19.3993 28.4188 22.5226 30.2534 24.4177C32.088 26.3128 35.2146 26.2621 37.2369 24.3044Z" fill="#FEE675"/>
<path opacity="0.2" d="M33.4261 28.4827C29.2293 28.4827 26.0357 25.0681 26.3079 20.8712C26.5802 16.6744 30.2146 13.2598 34.4128 13.2598C38.611 13.2598 41.8031 16.6744 41.5309 20.8712C41.2587 25.0681 37.6188 28.4827 33.4261 28.4827ZM34.3934 13.398C30.2726 13.398 26.7032 16.7504 26.4365 20.8712C26.1697 24.9921 29.3039 28.3445 33.4247 28.3445C37.5455 28.3445 41.1149 24.9921 41.383 20.8712C41.6511 16.7504 38.5197 13.398 34.3934 13.398Z" fill="#86C3BB"/>
<path d="M32.7353 23.2635L32.3208 22.4634C31.4225 20.7209 29.3538 19.1635 28.6311 18.7102L29.3138 17.689C30.1692 18.2251 31.8786 19.5532 32.9509 21.1313C34.9339 18.7821 37.7364 16.3624 41.4883 13.752L42.1281 14.7193C38.1206 17.5079 35.2366 20.0575 33.3185 22.5146L32.7353 23.2635Z" fill="#86C3BB"/>
<path opacity="0.2" d="M32.5392 2.17225C32.7646 1.95408 32.7812 1.60562 32.5763 1.39396C32.3714 1.1823 32.0226 1.18757 31.7972 1.40575C31.5719 1.62392 31.5553 1.97237 31.7602 2.18403C31.9651 2.3957 32.3139 2.39042 32.5392 2.17225Z" fill="white"/>
<path opacity="0.2" d="M34.1048 1.23832H38.6775C38.7486 1.23749 38.8191 1.25152 38.8844 1.27953C38.9497 1.30754 39.0085 1.34889 39.0569 1.40094C39.1053 1.45299 39.1423 1.51458 39.1655 1.58177C39.1887 1.64895 39.1976 1.72025 39.1916 1.79107C39.1803 1.93961 39.1139 2.07858 39.0056 2.18081C38.8972 2.28304 38.7546 2.34117 38.6057 2.34383H34.0343C33.9633 2.34443 33.8929 2.33025 33.8276 2.30219C33.7623 2.27412 33.7035 2.23279 33.6551 2.18081C33.6066 2.12884 33.5695 2.06735 33.546 2.00025C33.5226 1.93316 33.5133 1.86193 33.5189 1.79107C33.5302 1.64254 33.5966 1.50356 33.7049 1.40134C33.8133 1.29911 33.9559 1.24098 34.1048 1.23832Z" fill="white"/>
<path d="M17.0841 11.4495C16.8506 11.6885 16.6004 11.9525 16.3697 12.215C16.1389 12.4776 15.9081 12.7471 15.6912 13.0234C15.4742 13.2998 15.2766 13.5762 15.0721 13.8678L14.9339 14.0847L14.7957 14.3045C14.7501 14.3777 14.7086 14.4523 14.6685 14.5283L14.558 14.7315C14.5129 14.8476 14.4872 14.9704 14.482 15.0949C14.4709 15.255 14.4709 15.4157 14.482 15.5758C14.5091 15.9213 14.5552 16.2649 14.6202 16.6053C14.681 16.9535 14.7584 17.3032 14.8399 17.6514C14.9214 17.9996 15.0113 18.352 15.1025 18.6947L14.5912 18.8868C14.277 18.2109 14.0137 17.5125 13.8035 16.7974C13.6967 16.4288 13.615 16.0535 13.5589 15.6739C13.5309 15.4715 13.5166 15.2674 13.516 15.0631C13.5128 14.8224 13.5535 14.5831 13.6363 14.357C13.6681 14.2796 13.6846 14.2492 13.7068 14.2022L13.7703 14.0709C13.8118 13.9839 13.8546 13.8968 13.9085 13.8125L14.0467 13.5582L14.1932 13.3109C14.3884 12.985 14.601 12.6699 14.8302 12.367C15.0569 12.0644 15.2918 11.7701 15.5391 11.4854C15.7865 11.2007 16.0366 10.9326 16.3241 10.6562L17.0841 11.4495Z" fill="#B55B52"/>
<path d="M17.1435 9.79112C16.3945 9.82429 15.6829 11.068 15.6829 11.068L16.6723 13.0869C16.6723 13.0869 18.0127 11.9704 18.0293 10.8759C18.0404 10.1587 17.8801 9.75657 17.1435 9.79112Z" fill="#FDE261"/>
<path opacity="0.7" d="M17.1435 9.79112C16.3945 9.82429 15.6829 11.068 15.6829 11.068L16.6723 13.0869C16.6723 13.0869 18.0127 11.9704 18.0293 10.8759C18.0404 10.1587 17.8801 9.75657 17.1435 9.79112Z" fill="white"/>
<path opacity="0.2" d="M17.3216 11.2419C17.1033 11.5722 16.9983 12.4289 16.9651 12.8104C17.2948 12.4897 17.5743 12.1212 17.7942 11.7173C17.6464 11.3483 17.4653 11.0249 17.3216 11.2419Z" fill="black"/>
<path d="M14.9546 18.4844L15.8652 18.7608L15.2586 19.3743C15.2586 19.3743 14.6022 19.1712 14.511 18.7248L14.9546 18.4844Z" fill="#B55B52"/>
<path d="M16.4168 19.4565L16.2634 20.0438L15.2588 19.3694L15.8654 18.7559L16.4168 19.4565Z" fill="#B55B52"/>
<path d="M22.4086 7.39157C22.3796 7.4731 22.4004 7.55602 22.4543 7.57536C22.5081 7.59471 22.5745 7.54634 22.6021 7.46481C22.6298 7.38328 22.6104 7.29899 22.5565 7.27964C22.5026 7.26029 22.4377 7.30866 22.4086 7.39157Z" fill="#263238"/>
<path d="M22.5315 7.27539L22.7485 7.29336C22.7485 7.29336 22.5937 7.40805 22.5315 7.27539Z" fill="#263238"/>
<path d="M22.4499 7.49805C22.4581 7.71303 22.4952 7.92593 22.5604 8.13096C22.5077 8.14476 22.4526 8.14696 22.3989 8.13742C22.3452 8.12787 22.2943 8.10681 22.2495 8.07568L22.4499 7.49805Z" fill="#A02724"/>
<path d="M22.6766 7.07437C22.6667 7.07301 22.6575 7.06872 22.6501 7.06207C22.6427 7.05542 22.6375 7.04671 22.6351 7.03706C22.62 6.9746 22.5908 6.91639 22.5499 6.86683C22.5089 6.81728 22.4573 6.77767 22.3988 6.75101C22.3862 6.74634 22.376 6.73691 22.3703 6.72476C22.3646 6.71261 22.3639 6.69871 22.3684 6.68606C22.3706 6.67972 22.374 6.67388 22.3784 6.6689C22.3829 6.66391 22.3883 6.65987 22.3944 6.65703C22.4005 6.6542 22.407 6.65261 22.4137 6.65237C22.4204 6.65214 22.4271 6.65325 22.4333 6.65566C22.5086 6.68834 22.575 6.73827 22.6274 6.80141C22.6797 6.86455 22.7164 6.93912 22.7346 7.0191C22.7363 7.02563 22.7366 7.03243 22.7356 7.0391C22.7346 7.04576 22.7323 7.05217 22.7289 7.05795C22.7254 7.06373 22.7208 7.06877 22.7154 7.07277C22.71 7.07677 22.7038 7.07967 22.6973 7.08128L22.6766 7.07437Z" fill="#263238"/>
<path d="M19.5701 7.73828C19.5894 8.39192 19.5231 9.56791 19.0173 9.90095C19.0173 9.90095 19.085 10.5726 20.261 10.8006C21.5531 11.0507 20.9838 10.2824 20.9838 10.2824C20.3066 9.97833 20.4103 9.46151 20.6134 8.99719L19.5701 7.73828Z" fill="#B55B52"/>
<path d="M23.4104 12.2129C23.5265 12.5293 23.6592 12.8721 23.8001 13.1968C23.9411 13.5215 24.0765 13.8504 24.241 14.1641C24.4054 14.4778 24.5657 14.7929 24.7398 15.0983C24.8296 15.2489 24.9195 15.3995 25.0162 15.5433C25.0632 15.6179 25.1115 15.6897 25.1627 15.7575L25.2373 15.8625L25.2746 15.9164L25.294 15.9426L25.3064 15.9564C25.3963 16.0587 25.4994 16.1484 25.6132 16.2232C25.7501 16.3167 25.8922 16.4025 26.0388 16.4802C26.3414 16.6432 26.6662 16.7911 26.9965 16.9307C27.3267 17.0703 27.6639 17.2071 28.0052 17.3273C28.3466 17.4475 28.6962 17.5746 29.032 17.6921L28.9035 18.2241C28.1629 18.1003 27.4312 17.9282 26.7132 17.7087C26.3455 17.5966 25.9847 17.4632 25.6325 17.3093C25.4478 17.2274 25.2679 17.1351 25.0936 17.0329C24.8913 16.9176 24.7081 16.7717 24.5505 16.6004L24.5173 16.5631L24.4938 16.5341L24.4482 16.4774L24.357 16.3613C24.2948 16.2853 24.2354 16.208 24.1801 16.1292C24.0627 15.973 23.9549 15.8127 23.8485 15.651C23.6388 15.3303 23.4456 14.9992 23.2695 14.6588C23.094 14.3203 22.9281 13.979 22.7761 13.6307C22.6241 13.2825 22.4873 12.9398 22.3616 12.5584L23.4104 12.2129Z" fill="#B55B52"/>
<path d="M28.8496 17.6881L29.6649 17.373L29.6248 18.3141C29.6248 18.3141 28.9643 18.4896 28.6575 18.1566L28.8496 17.6881Z" fill="#B55B52"/>
<path d="M30.2798 17.6984L30.5589 18.2995L29.6248 18.3161L29.6648 17.375L30.2798 17.6984Z" fill="#B55B52"/>
<path d="M16.7578 41.2805L17.8371 41.3606L18.1577 38.8829L17.0784 38.8027L16.7578 41.2805Z" fill="#B55B52"/>
<path d="M8.20972 35.6766L8.91448 36.514L11.0067 35.1695L10.3019 34.332L8.20972 35.6766Z" fill="#B55B52"/>
<path d="M9.24321 36.4061L8.67525 35.3144C8.66621 35.2955 8.65052 35.2805 8.63116 35.2723C8.6118 35.2642 8.59011 35.2634 8.57023 35.2702L7.66785 35.5825C7.64521 35.5916 7.62475 35.6054 7.60783 35.623C7.5909 35.6406 7.5779 35.6616 7.56968 35.6846C7.56145 35.7076 7.55819 35.732 7.5601 35.7563C7.56202 35.7807 7.56907 35.8043 7.58079 35.8257C7.78531 36.203 7.90277 36.3785 8.15151 36.8553C8.30629 37.1496 8.50113 37.5973 8.71257 38.005C8.924 38.4126 9.32751 38.2316 9.275 38.0423C9.03731 37.198 9.19485 36.9644 9.275 36.5982C9.28639 36.5324 9.27518 36.4647 9.24321 36.4061Z" fill="#263238"/>
<path d="M17.9053 41.209H16.692C16.6711 41.2087 16.6508 41.216 16.6348 41.2294C16.6188 41.2429 16.6082 41.2616 16.6049 41.2822L16.4418 42.2413C16.4385 42.2652 16.4403 42.2895 16.4471 42.3127C16.454 42.3358 16.4658 42.3572 16.4816 42.3755C16.4975 42.3937 16.5171 42.4083 16.539 42.4183C16.561 42.4282 16.5849 42.4334 16.609 42.4334C17.0333 42.4264 17.2364 42.4016 17.7698 42.4016C18.0987 42.4016 18.7759 42.4361 19.2291 42.4361C19.6824 42.4361 19.7183 41.9884 19.5304 41.9469C18.6888 41.7659 18.3627 41.5144 18.0835 41.2753C18.0343 41.2321 17.9708 41.2084 17.9053 41.209Z" fill="#263238"/>
<path opacity="0.2" d="M18.1579 38.8854L17.9797 40.2632L16.9045 40.1554L17.0787 38.8066L18.1579 38.8854Z" fill="black"/>
<path opacity="0.2" d="M10.3016 34.332L11.0064 35.1695L10.14 35.7264L9.40894 34.9055L10.3016 34.332Z" fill="black"/>
<path d="M16.8438 16.3606L21.1718 17.1994C23.2171 11.1785 22.7279 10.9809 22.7279 10.9809C22.4099 10.8091 22.0818 10.6568 21.7453 10.5248L21.6859 10.5027C21.4095 10.4019 21.3515 10.3867 20.9811 10.2789C20.3427 10.1282 19.7499 10.0025 19.0161 9.89885L18.8779 9.8795C18.7397 9.86292 18.6126 9.8491 18.4854 9.83666C18.3998 9.82699 18.3141 9.82146 18.2326 9.81593L17.9562 9.80073C17.4836 9.77724 17.145 9.78415 17.145 9.78415C17.3827 13.5443 17.2017 14.6263 16.8438 16.3606Z" fill="#FEE675"/>
<path opacity="0.7" d="M16.8438 16.3606L21.1718 17.1994C23.2171 11.1785 22.7279 10.9809 22.7279 10.9809C22.4099 10.8091 22.0818 10.6568 21.7453 10.5248L21.6859 10.5027C21.4095 10.4019 21.3515 10.3867 20.9811 10.2789C20.3427 10.1282 19.7499 10.0025 19.0161 9.89885L18.8779 9.8795C18.7397 9.86292 18.6126 9.8491 18.4854 9.83666C18.3998 9.82699 18.3141 9.82146 18.2326 9.81593L17.9562 9.80073C17.4836 9.77724 17.145 9.78415 17.145 9.78415C17.3827 13.5443 17.2017 14.6263 16.8438 16.3606Z" fill="white"/>
<path opacity="0.2" d="M22.1059 12.3878L21.7148 12.3242C21.7148 12.8397 21.9111 13.7241 22.1018 14.2865C22.2635 13.7338 22.3892 13.2791 22.4846 12.8963L22.1059 12.3878Z" fill="black"/>
<path d="M22.577 10.9079C23.2168 11.1124 23.6825 12.3782 23.8566 12.924L22.6129 14.3847C22.6129 14.3847 21.3388 12.5537 21.542 11.9857C21.741 11.3943 22.2675 10.807 22.577 10.9079Z" fill="#FEE675"/>
<path opacity="0.7" d="M22.577 10.9079C23.2168 11.1124 23.6825 12.3782 23.8566 12.924L22.6129 14.3847C22.6129 14.3847 21.3388 12.5537 21.542 11.9857C21.741 11.3943 22.2675 10.807 22.577 10.9079Z" fill="white"/>
<path d="M22.9916 6.23574C22.8631 6.61299 22.3007 6.76362 21.741 6.5743C21.1813 6.38498 20.8276 5.92204 20.9561 5.54479C21.0846 5.16753 21.647 5.0169 22.1998 5.2076C22.7525 5.39831 23.1187 5.85848 22.9916 6.23574Z" fill="#263238"/>
<path d="M19.7455 6.13277C19.4581 7.1609 19.3143 7.58929 19.6432 8.29682C20.138 9.36226 21.4618 9.52947 22.0505 8.61604C22.5798 7.79519 22.9612 6.25161 22.1154 5.47913C21.937 5.30664 21.7166 5.18368 21.4761 5.12236C21.2355 5.06105 20.9832 5.06351 20.7439 5.1295C20.5046 5.1955 20.2867 5.32274 20.1116 5.49868C19.9365 5.67462 19.8103 5.89317 19.7455 6.13277Z" fill="#B55B52"/>
<path d="M21.3515 4.93047C20.9369 5.16816 20.0567 3.67986 18.9636 4.93047C18.1814 5.82732 18.6803 7.1415 18.6803 7.1415C18.6803 7.1415 18.0571 6.04566 17.5596 6.58046C16.9101 7.2714 17.5817 9.74361 19.7236 9.57364C21.8656 9.40367 21.6583 7.66524 21.6583 7.66524C21.6583 7.66524 22.6615 6.6454 22.6118 5.73059C22.5745 5.04517 22.0424 4.5394 21.3515 4.93047Z" fill="#263238"/>
<path d="M21.6111 7.0127C21.5577 7.20401 21.5644 7.40714 21.6304 7.59448C21.7189 7.85842 21.922 7.8598 22.0298 7.67739C22.1376 7.49498 22.197 7.17853 22.0436 6.96572C21.8902 6.7529 21.6802 6.80127 21.6111 7.0127Z" fill="#B55B52"/>
<path d="M20.022 16.9763C20.022 16.9763 19.5604 18.5765 18.9676 20.688C18.5738 22.0948 18.1205 23.7282 17.7073 25.2663C17.471 26.1465 17.2485 26.995 17.0565 27.7537C15.9703 32.0445 10.5533 35.7327 10.5533 35.7327L9.50439 34.5789C9.50439 34.5789 13.1443 31.5138 14.2028 27.5105C16.3406 19.3835 15.1384 18.0127 16.8423 16.3613L20.022 16.9763Z" fill="#263238"/>
<path opacity="0.2" d="M19.5551 18.4105C19.3948 19.0309 19.1931 19.8145 18.9706 20.6906C18.5767 22.0974 18.1235 23.7308 17.7103 25.2688C17.5334 23.3065 17.4339 19.6984 18.878 18.5763C19.1627 18.358 19.3879 18.3124 19.5551 18.4105Z" fill="black"/>
<path d="M10.6433 35.8959L9.33325 34.4546L9.72986 34.0566L11.337 35.5712L10.6433 35.8959Z" fill="#FEE675"/>
<path opacity="0.7" d="M10.6433 35.8959L9.33325 34.4546L9.72986 34.0566L11.337 35.5712L10.6433 35.8959Z" fill="white"/>
<path d="M9.44084 36.9944C9.42767 36.9942 9.41461 36.9918 9.40215 36.9875C9.27363 36.9405 9.1921 36.6946 9.15479 36.5522C9.15358 36.5474 9.15386 36.5423 9.15559 36.5376C9.15731 36.5329 9.1604 36.5289 9.16446 36.526C9.16848 36.5231 9.17332 36.5215 9.17828 36.5215C9.18325 36.5215 9.18809 36.5231 9.1921 36.526C9.2308 36.5481 9.57074 36.7471 9.57765 36.8867C9.5788 36.9018 9.5758 36.9171 9.56899 36.9307C9.56218 36.9443 9.5518 36.9558 9.53896 36.964C9.51072 36.9851 9.47607 36.9959 9.44084 36.9944ZM9.22112 36.6006C9.27778 36.7872 9.34964 36.9129 9.42012 36.9378C9.43518 36.9425 9.45118 36.9432 9.46663 36.9401C9.48209 36.937 9.49651 36.93 9.50856 36.9198C9.52652 36.9074 9.5279 36.8949 9.52652 36.8867C9.51961 36.8148 9.35517 36.6849 9.22112 36.6006Z" fill="#86C3BB"/>
<path d="M21.1028 17.2011C21.1028 17.2011 21.3792 25.744 20.7684 28.9624C20.141 32.3163 18.2257 39.9167 18.2257 39.9167L16.6697 39.7163C16.6697 39.7163 17.6536 32.0247 18.0723 28.6999C18.5269 25.0738 17.9341 16.582 17.9341 16.582L21.1028 17.2011Z" fill="#263238"/>
<path d="M18.56 40.0112L16.342 39.7252L16.3683 39.1973L18.7825 39.3023L18.56 40.0112Z" fill="#FEE675"/>
<path opacity="0.7" d="M18.56 40.0112L16.342 39.7252L16.3683 39.1973L18.7825 39.3023L18.56 40.0112Z" fill="white"/>
<path d="M9.49327 36.6583C9.37847 36.6528 9.26645 36.6211 9.16576 36.5657C9.16199 36.5634 9.15887 36.5601 9.15669 36.5563C9.15452 36.5524 9.15336 36.548 9.15332 36.5436C9.15393 36.5391 9.15548 36.5349 9.15786 36.5311C9.16024 36.5273 9.1634 36.524 9.16714 36.5215C9.17958 36.5215 9.44352 36.3764 9.59553 36.433C9.61458 36.4399 9.63189 36.4509 9.64621 36.4653C9.66054 36.4796 9.67155 36.4969 9.67844 36.516C9.68752 36.5343 9.69014 36.5553 9.68588 36.5753C9.68162 36.5954 9.67072 36.6134 9.65495 36.6265C9.60586 36.6542 9.54917 36.6653 9.49327 36.6583ZM9.23485 36.5464C9.35508 36.6016 9.56513 36.632 9.62317 36.5864C9.63284 36.5781 9.64251 36.5657 9.62317 36.5339C9.6191 36.5217 9.61223 36.5106 9.60312 36.5015C9.594 36.4923 9.58289 36.4855 9.57065 36.4814C9.45472 36.4684 9.33757 36.4911 9.23485 36.5464Z" fill="#86C3BB"/>
<path d="M18.3056 41.3983C18.1918 41.3959 18.0785 41.3829 17.9671 41.3596C17.9618 41.359 17.9568 41.3566 17.9531 41.3529C17.9493 41.3491 17.9469 41.3442 17.9463 41.3389C17.9455 41.3336 17.9464 41.3282 17.9489 41.3235C17.9514 41.3187 17.9553 41.3149 17.9602 41.3126C18.0099 41.2864 18.4466 41.0666 18.5765 41.1399C18.5889 41.1467 18.5992 41.1567 18.6065 41.1688C18.6138 41.181 18.6177 41.1948 18.6179 41.209C18.6206 41.232 18.6175 41.2553 18.6088 41.2768C18.6001 41.2983 18.5861 41.3173 18.5682 41.332C18.4906 41.3828 18.3981 41.4062 18.3056 41.3983ZM18.0527 41.3237C18.2904 41.3637 18.4673 41.3527 18.535 41.2946C18.5467 41.2844 18.5556 41.2716 18.5612 41.2571C18.5667 41.2427 18.5686 41.2271 18.5668 41.2117C18.5672 41.2061 18.566 41.2006 18.5633 41.1957C18.5606 41.1908 18.5565 41.1867 18.5516 41.1841C18.4811 41.1454 18.2324 41.238 18.0527 41.3237Z" fill="#86C3BB"/>
<path d="M17.9726 41.3604C17.9676 41.3618 17.9624 41.3618 17.9574 41.3604C17.9537 41.3578 17.9507 41.3542 17.9488 41.3501C17.9469 41.346 17.946 41.3415 17.9464 41.3369C17.9464 41.3176 18.0003 40.8505 18.2614 40.8781C18.3305 40.885 18.3513 40.9196 18.3554 40.9486C18.3748 41.0702 18.1136 41.3051 17.9823 41.3632L17.9726 41.3604ZM18.2407 40.9224C18.0859 40.9224 18.0238 41.178 18.0044 41.2886C18.1426 41.2084 18.3167 41.0246 18.3057 40.9514C18.3057 40.9514 18.3057 40.9279 18.2559 40.9237L18.2407 40.9224Z" fill="#86C3BB"/>
<path d="M16.8158 16.0983L16.5574 16.4451C16.5381 16.4727 16.5685 16.5101 16.6182 16.5197L21.1577 17.3986C21.1964 17.3986 21.2324 17.3986 21.2379 17.3696L21.3415 16.991C21.3415 16.9661 21.318 16.9357 21.2752 16.9274L16.8918 16.0789C16.8786 16.0753 16.8646 16.0753 16.8513 16.0786C16.838 16.082 16.8258 16.0888 16.8158 16.0983Z" fill="#FEE675"/>
<path d="M17.3246 16.6991L17.2071 16.6756C17.1836 16.6756 17.1684 16.6562 17.1726 16.6424L17.3107 16.1518C17.3107 16.138 17.3384 16.1297 17.3605 16.1339L17.478 16.1574C17.5014 16.1574 17.518 16.1767 17.5139 16.1905L17.3757 16.6811C17.3702 16.6991 17.3481 16.6991 17.3246 16.6991Z" fill="#263238"/>
<path d="M20.2887 17.2784L20.1712 17.2563C20.1477 17.2563 20.1325 17.2356 20.1367 17.2218L20.2749 16.7326C20.2749 16.7174 20.3011 16.7091 20.3246 16.7146L20.4421 16.7367C20.4642 16.7367 20.4808 16.7574 20.4766 16.7713L20.3384 17.2605C20.3343 17.2757 20.3122 17.284 20.2887 17.2784Z" fill="#263238"/>
</svg>
