<svg width="161" height="147" viewBox="0 0 161 147" fill="none" xmlns="http://www.w3.org/2000/svg">
<path d="M80.0652 146.56C124.284 146.56 160.13 144.467 160.13 141.885C160.13 139.304 124.284 137.211 80.0652 137.211C35.8464 137.211 0 139.304 0 141.885C0 144.467 35.8464 146.56 80.0652 146.56Z" fill="#F5F5F5"/>
<path d="M132.735 15.0785H85.2098C83.5798 15.1053 82.0182 15.7387 80.8301 16.855C79.642 17.9713 78.9127 19.4904 78.7845 21.1157L71.3928 134.906C71.3326 135.681 71.4343 136.459 71.6915 137.193C71.9487 137.926 72.3557 138.598 72.8867 139.165C73.4176 139.733 74.0609 140.184 74.7756 140.489C75.4902 140.794 76.2606 140.947 77.0377 140.939H124.58C126.209 140.913 127.771 140.281 128.959 139.165C130.147 138.049 130.877 136.531 131.005 134.906L136.307 53.1186C136.532 53.04 136.73 52.8981 136.877 52.7098C137.023 52.5215 137.112 52.295 137.133 52.0574L138.083 37.4227C138.099 37.1954 138.041 36.9688 137.918 36.7773C137.794 36.5858 137.611 36.4398 137.397 36.3615L138.384 21.1157C138.445 20.3403 138.343 19.5609 138.085 18.8271C137.828 18.0932 137.421 17.421 136.889 16.8531C136.358 16.2852 135.714 15.8342 134.999 15.5287C134.284 15.2232 133.513 15.0698 132.735 15.0785Z" fill="#86C3BB"/>
<path d="M74.9357 44.5397H75.8689C76.1577 44.5345 76.4343 44.4222 76.6449 44.2245C76.8555 44.0269 76.9851 43.758 77.0087 43.4702L77.4216 37.3586C77.4319 37.2211 77.4135 37.083 77.3676 36.953C77.3217 36.8229 77.2493 36.7039 77.155 36.6033C77.0606 36.5028 76.9464 36.4229 76.8196 36.3688C76.6927 36.3147 76.556 36.2876 76.4182 36.2891H75.489C75.2 36.2934 74.9229 36.4054 74.7121 36.6032C74.5013 36.801 74.3719 37.0704 74.3493 37.3586L73.9364 43.4702C73.9261 43.6073 73.9444 43.7451 73.99 43.8749C74.0357 44.0046 74.1077 44.1235 74.2016 44.224C74.2955 44.3245 74.4092 44.4044 74.5356 44.4587C74.6619 44.5131 74.7982 44.5406 74.9357 44.5397Z" fill="#86C3BB"/>
<path d="M74.2296 55.4538H75.1587C75.4485 55.4486 75.7261 55.3358 75.9375 55.1374C76.1489 54.939 76.279 54.6691 76.3025 54.3801L76.7155 48.2727C76.7258 48.1352 76.7074 47.9971 76.6615 47.867C76.6156 47.737 76.5432 47.6179 76.4488 47.5174C76.3545 47.4168 76.2403 47.337 76.1134 47.2829C75.9866 47.2288 75.8499 47.2017 75.712 47.2032H74.7829C74.4934 47.2074 74.2158 47.3192 74.0044 47.517C73.7929 47.7147 73.6626 47.9841 73.6391 48.2727L73.2261 54.3801C73.2146 54.5181 73.232 54.6569 73.2774 54.7877C73.3228 54.9185 73.3951 55.0384 73.4897 55.1395C73.5842 55.2407 73.6989 55.3209 73.8263 55.375C73.9538 55.4291 74.0911 55.456 74.2296 55.4538Z" fill="#86C3BB"/>
<path d="M122.052 140.939H74.527C73.7499 140.947 72.9795 140.794 72.2648 140.489C71.5502 140.184 70.9069 139.733 70.3759 139.165C69.845 138.598 69.4379 137.926 69.1808 137.193C68.9236 136.459 68.8218 135.681 68.8821 134.906L76.2572 21.1156C76.3864 19.49 77.1166 17.9709 78.3054 16.8547C79.4942 15.7384 81.0562 15.1051 82.6867 15.0784H130.208C130.985 15.0704 131.756 15.2241 132.47 15.5299C133.185 15.8357 133.828 16.2868 134.359 16.8546C134.89 17.4224 135.297 18.0944 135.554 18.828C135.811 19.5616 135.913 20.3406 135.853 21.1156L128.478 134.906C128.35 136.531 127.62 138.049 126.432 139.165C125.244 140.281 123.682 140.913 122.052 140.939Z" fill="#263238"/>
<path opacity="0.2" d="M101.52 136.098C103.185 134.487 103.31 131.915 101.8 130.355C100.29 128.796 97.7163 128.837 96.0515 130.449C94.3867 132.061 94.2613 134.632 95.7714 136.192C97.2815 137.752 99.8553 137.71 101.52 136.098Z" fill="white"/>
<path d="M126.347 126.164H72.3214C72.1374 126.164 71.9555 126.126 71.7867 126.053C71.6179 125.98 71.466 125.873 71.3402 125.738C71.2145 125.604 71.1175 125.445 71.0555 125.272C70.9934 125.099 70.9675 124.915 70.9794 124.731L77.3015 27.1451C77.3294 26.808 77.4828 26.4937 77.7313 26.2643C77.9798 26.0349 78.3054 25.9072 78.6435 25.9062H132.673C132.857 25.9064 133.039 25.9443 133.208 26.0176C133.376 26.0908 133.528 26.1979 133.654 26.3322C133.78 26.4665 133.877 26.6251 133.939 26.7983C134.001 26.9715 134.027 27.1556 134.015 27.3392L127.689 124.905C127.667 125.246 127.516 125.566 127.266 125.8C127.017 126.034 126.688 126.164 126.347 126.164Z" fill="white"/>
<path opacity="0.2" d="M111.273 87.7041C117.316 81.854 117.771 72.5208 112.289 66.8578C106.807 61.1948 97.4638 61.3465 91.4206 67.1965C85.3775 73.0466 84.9226 82.3798 90.4047 88.0428C95.8868 93.7058 105.23 93.5541 111.273 87.7041Z" fill="#FEE675"/>
<path opacity="0.2" d="M99.8854 100.193C87.3444 100.193 77.8013 89.9889 78.6148 77.4479C79.4283 64.9069 90.2886 54.7031 102.834 54.7031C115.379 54.7031 124.918 64.9069 124.104 77.4479C123.291 89.9889 112.414 100.193 99.8854 100.193ZM102.776 55.1161C90.4621 55.1161 79.7958 65.134 78.9988 77.4479C78.2018 89.7618 87.5673 99.7798 99.8813 99.7798C112.195 99.7798 122.861 89.7618 123.663 77.4479C124.464 65.134 115.106 55.1161 102.776 55.1161Z" fill="#86C3BB"/>
<path d="M97.821 84.5946L96.5822 82.2037C93.8981 76.9965 87.7163 72.3426 85.5566 70.9882L87.5966 67.9366C90.1527 69.5388 95.2608 73.5071 98.4652 78.2229C104.391 71.2029 112.765 63.9723 123.977 56.1719L125.889 59.0625C113.913 67.3956 105.295 75.0144 99.5636 82.3565L97.821 84.5946Z" fill="#86C3BB"/>
<path opacity="0.2" d="M97.2346 21.571C97.908 20.919 97.9576 19.8778 97.3453 19.2453C96.733 18.6128 95.6907 18.6285 95.0173 19.2805C94.3438 19.9324 94.2942 20.9737 94.9065 21.6062C95.5188 22.2387 96.5611 22.2229 97.2346 21.571Z" fill="white"/>
<path opacity="0.2" d="M101.913 18.7814H115.577C115.789 18.7789 116 18.8208 116.195 18.9045C116.39 18.9882 116.566 19.1118 116.711 19.2673C116.855 19.4228 116.966 19.6069 117.035 19.8077C117.104 20.0084 117.131 20.2215 117.113 20.4331C117.079 20.877 116.881 21.2923 116.557 21.5977C116.233 21.9032 115.807 22.0769 115.362 22.0849H101.702C101.49 22.0867 101.279 22.0443 101.084 21.9604C100.889 21.8766 100.714 21.7531 100.569 21.5977C100.424 21.4424 100.313 21.2587 100.243 21.0582C100.173 20.8577 100.145 20.6448 100.162 20.4331C100.196 19.9893 100.394 19.574 100.718 19.2685C101.042 18.963 101.468 18.7893 101.913 18.7814Z" fill="white"/>
<path d="M51.0514 49.2922C50.3535 50.0065 49.6061 50.7953 48.9164 51.5799C48.2268 52.3644 47.5372 53.1697 46.8889 53.9956C46.2406 54.8214 45.6501 55.6473 45.0389 56.5186L44.626 57.167L44.213 57.8235C44.0768 58.0424 43.9529 58.2654 43.8331 58.4925L43.5028 59.0995C43.3681 59.4466 43.2914 59.8135 43.2757 60.1856C43.2426 60.664 43.2426 61.1441 43.2757 61.6226C43.3566 62.6549 43.4945 63.6819 43.6886 64.699C43.8703 65.7396 44.1016 66.7844 44.3452 67.825C44.5888 68.8656 44.8572 69.9186 45.1298 70.9427L43.6019 71.5167C42.663 69.4969 41.8763 67.4099 41.2481 65.273C40.9292 64.1717 40.685 63.05 40.5172 61.9158C40.4337 61.3109 40.3909 60.7012 40.3892 60.0906C40.3795 59.3712 40.5013 58.6561 40.7485 57.9804C40.8434 57.7492 40.893 57.6583 40.9591 57.518L41.149 57.1257C41.2729 56.8655 41.4009 56.6054 41.562 56.3535L41.9749 55.5936L42.4126 54.8545C42.9959 53.8807 43.6314 52.9392 44.3163 52.0341C44.9935 51.1297 45.6955 50.2502 46.4347 49.3995C47.1738 48.5489 47.9213 47.7478 48.7802 46.9219L51.0514 49.2922Z" fill="#B55B52"/>
<path d="M51.229 44.3343C48.9909 44.4334 46.8643 48.1499 46.8643 48.1499L49.8209 54.1829C49.8209 54.1829 53.8264 50.8464 53.876 47.5759C53.909 45.4327 53.43 44.231 51.229 44.3343Z" fill="#FDE261"/>
<path opacity="0.7" d="M51.229 44.3343C48.9909 44.4334 46.8643 48.1499 46.8643 48.1499L49.8209 54.1829C49.8209 54.1829 53.8264 50.8464 53.876 47.5759C53.909 45.4327 53.43 44.231 51.229 44.3343Z" fill="white"/>
<path opacity="0.2" d="M51.7607 48.6702C51.1083 49.6571 50.7944 52.2173 50.6953 53.3571C51.6806 52.3989 52.5158 51.2978 53.173 50.0907C52.7311 48.9881 52.1902 48.0219 51.7607 48.6702Z" fill="black"/>
<path d="M44.6878 70.3125L47.4091 71.1384L45.5963 72.9718C45.5963 72.9718 43.6348 72.3648 43.3623 71.031L44.6878 70.3125Z" fill="#B55B52"/>
<path d="M49.0571 73.2186L48.5988 74.9736L45.5967 72.9585L47.4095 71.125L49.0571 73.2186Z" fill="#B55B52"/>
<path d="M66.9621 37.1675C66.8754 37.4111 66.9373 37.6589 67.0984 37.7167C67.2594 37.7745 67.4576 37.63 67.5402 37.3863C67.6228 37.1427 67.565 36.8908 67.404 36.833C67.2429 36.7752 67.0488 36.9197 66.9621 37.1675Z" fill="#263238"/>
<path d="M67.3291 36.8203L67.9774 36.874C67.9774 36.874 67.5149 37.2167 67.3291 36.8203Z" fill="#263238"/>
<path d="M67.0851 37.4844C67.1095 38.1268 67.2206 38.763 67.4154 39.3756C67.2578 39.4169 67.0932 39.4235 66.9328 39.395C66.7724 39.3664 66.6201 39.3035 66.4863 39.2105L67.0851 37.4844Z" fill="#A02724"/>
<path d="M67.7626 36.2142C67.7332 36.2102 67.7056 36.1974 67.6835 36.1775C67.6615 36.1576 67.6458 36.1316 67.6387 36.1028C67.5934 35.9161 67.5064 35.7421 67.384 35.5941C67.2617 35.446 67.1073 35.3276 66.9326 35.248C66.895 35.234 66.8644 35.2058 66.8474 35.1695C66.8304 35.1332 66.8284 35.0917 66.8417 35.0539C66.8482 35.0349 66.8584 35.0175 66.8717 35.0026C66.8851 34.9877 66.9013 34.9756 66.9194 34.9671C66.9376 34.9587 66.9572 34.9539 66.9772 34.9532C66.9972 34.9525 67.0171 34.9558 67.0358 34.963C67.2606 35.0607 67.4592 35.2099 67.6156 35.3986C67.772 35.5872 67.8818 35.8101 67.936 36.0491C67.941 36.0686 67.942 36.0889 67.9391 36.1088C67.9361 36.1287 67.9293 36.1479 67.9189 36.1652C67.9086 36.1824 67.8949 36.1975 67.8787 36.2095C67.8625 36.2214 67.8441 36.2301 67.8245 36.2349L67.7626 36.2142Z" fill="#263238"/>
<path d="M58.4799 38.2031C58.5377 40.1563 58.3395 43.6705 56.8281 44.6657C56.8281 44.6657 57.0305 46.6726 60.5446 47.3539C64.4056 48.1013 62.7043 45.8054 62.7043 45.8054C60.6809 44.8969 60.9906 43.3525 61.5976 41.965L58.4799 38.2031Z" fill="#B55B52"/>
<path d="M69.9555 51.5703C70.3024 52.5159 70.6988 53.54 71.12 54.5105C71.5412 55.4809 71.9459 56.4637 72.4373 57.401C72.9287 58.3384 73.4077 59.2799 73.928 60.1925C74.1964 60.6426 74.4648 61.0927 74.7539 61.5222C74.8943 61.7452 75.0388 61.9599 75.1916 62.1623L75.4146 62.4761L75.5261 62.6371L75.5839 62.7156L75.6211 62.7569C75.8896 63.0624 76.1979 63.3305 76.5378 63.5539C76.9471 63.8334 77.3717 64.0898 77.8097 64.3219C78.714 64.8092 79.6844 65.2511 80.6713 65.6681C81.6583 66.0852 82.6658 66.494 83.6858 66.8533C84.7058 67.2125 85.7505 67.5924 86.754 67.9434L86.3699 69.5333C84.1569 69.1633 81.9705 68.6488 79.8248 67.993C78.7262 67.658 77.648 67.2595 76.5956 66.7996C76.0438 66.5546 75.5061 66.2789 74.9851 65.9737C74.3808 65.6292 73.8333 65.1932 73.3623 64.6812L73.2632 64.5697L73.193 64.483L73.0567 64.3137L72.7842 63.9668C72.5983 63.7397 72.4208 63.5084 72.2556 63.2731C71.9046 62.8064 71.5825 62.3274 71.2645 61.8443C70.638 60.8859 70.0605 59.8963 69.5343 58.8794C69.0099 57.8677 68.5143 56.8477 68.0601 55.8071C67.6059 54.7665 67.1971 53.7424 66.8213 52.6027L69.9555 51.5703Z" fill="#B55B52"/>
<path d="M86.2088 67.9337L88.6451 66.9922L88.5254 69.8043C88.5254 69.8043 86.5515 70.3288 85.6348 69.3336L86.2088 67.9337Z" fill="#B55B52"/>
<path d="M90.4827 67.9663L91.3169 69.7626L88.5254 69.8121L88.6451 67L90.4827 67.9663Z" fill="#B55B52"/>
<path d="M50.0762 138.435L53.3012 138.675L54.2593 131.271L51.0342 131.031L50.0762 138.435Z" fill="#B55B52"/>
<path d="M24.5322 121.69L26.6382 124.192L32.8902 120.174L30.7842 117.672L24.5322 121.69Z" fill="#B55B52"/>
<path d="M27.6209 123.869L25.9238 120.607C25.8967 120.55 25.8499 120.505 25.792 120.481C25.7341 120.457 25.6693 120.454 25.6099 120.475L22.9134 121.408C22.8457 121.435 22.7846 121.476 22.734 121.529C22.6835 121.582 22.6446 121.644 22.62 121.713C22.5955 121.782 22.5857 121.855 22.5914 121.927C22.5972 122 22.6182 122.071 22.6533 122.135C23.2644 123.262 23.6154 123.786 24.3587 125.211C24.8212 126.091 25.4034 127.429 26.0352 128.647C26.667 129.865 27.8728 129.324 27.7159 128.758C27.0057 126.235 27.4764 125.537 27.7159 124.443C27.75 124.246 27.7165 124.044 27.6209 123.869Z" fill="#263238"/>
<path d="M53.5049 138.219H49.8793C49.8169 138.218 49.7563 138.24 49.7085 138.28C49.6608 138.32 49.629 138.376 49.6191 138.438L49.1319 141.303C49.1218 141.375 49.1272 141.448 49.1477 141.517C49.1683 141.586 49.2034 141.65 49.2508 141.704C49.2981 141.759 49.3566 141.802 49.4223 141.832C49.488 141.862 49.5594 141.878 49.6315 141.877C50.8993 141.857 51.5063 141.782 53.1002 141.782C54.083 141.782 56.1064 141.886 57.4609 141.886C58.8153 141.886 58.9227 140.548 58.3611 140.424C55.8463 139.883 54.8718 139.131 54.0376 138.417C53.8904 138.288 53.7008 138.217 53.5049 138.219Z" fill="#263238"/>
<path opacity="0.2" d="M54.26 131.274L53.7273 135.391L50.5146 135.069L51.035 131.039L54.26 131.274Z" fill="black"/>
<path opacity="0.2" d="M30.7838 117.672L32.8898 120.174L30.3007 121.838L28.1162 119.386L30.7838 117.672Z" fill="black"/>
<path d="M50.333 63.9672L63.2663 66.4738C69.3779 48.4819 67.916 47.8914 67.916 47.8914C66.9659 47.378 65.9854 46.9229 64.98 46.5287L64.8025 46.4626C63.9766 46.1612 63.8032 46.1158 62.6965 45.7937C60.7887 45.3436 59.0172 44.9678 56.8244 44.6581L56.4115 44.6003C55.9986 44.5507 55.6187 44.5094 55.2388 44.4722C54.9827 44.4433 54.7267 44.4268 54.4831 44.4103L53.6572 44.3649C52.2449 44.2947 51.2332 44.3153 51.2332 44.3153C51.9435 55.5515 51.4025 58.7848 50.333 63.9672Z" fill="#FEE675"/>
<path opacity="0.7" d="M50.333 63.9672L63.2663 66.4738C69.3779 48.4819 67.916 47.8914 67.916 47.8914C66.9659 47.378 65.9854 46.9229 64.98 46.5287L64.8025 46.4626C63.9766 46.1612 63.8032 46.1158 62.6965 45.7937C60.7887 45.3436 59.0172 44.9678 56.8244 44.6581L56.4115 44.6003C55.9986 44.5507 55.6187 44.5094 55.2388 44.4722C54.9827 44.4433 54.7267 44.4268 54.4831 44.4103L53.6572 44.3649C52.2449 44.2947 51.2332 44.3153 51.2332 44.3153C51.9435 55.5515 51.4025 58.7848 50.333 63.9672Z" fill="white"/>
<path opacity="0.2" d="M66.0573 52.0962L64.8887 51.9062C64.8887 53.4465 65.475 56.0893 66.0449 57.77C66.528 56.1182 66.9038 54.7597 67.1888 53.6158L66.0573 52.0962Z" fill="black"/>
<path d="M67.4651 47.6746C69.3771 48.2858 70.7687 52.0683 71.289 53.6994L67.5725 58.0642C67.5725 58.0642 63.7652 52.5927 64.3722 50.8956C64.9668 49.1282 66.5402 47.3732 67.4651 47.6746Z" fill="#FEE675"/>
<path opacity="0.7" d="M67.4651 47.6746C69.3771 48.2858 70.7687 52.0683 71.289 53.6994L67.5725 58.0642C67.5725 58.0642 63.7652 52.5927 64.3722 50.8956C64.9668 49.1282 66.5402 47.3732 67.4651 47.6746Z" fill="white"/>
<path d="M68.7044 33.7097C68.3204 34.8371 66.6397 35.2872 64.9673 34.7215C63.2949 34.1557 62.2378 32.7724 62.6218 31.645C63.0058 30.5177 64.6865 30.0676 66.3383 30.6375C67.99 31.2073 69.0843 32.5824 68.7044 33.7097Z" fill="#263238"/>
<path d="M59.0038 33.4015C58.1449 36.4738 57.7154 37.7539 58.6982 39.8682C60.1766 43.052 64.1325 43.5516 65.8917 40.8221C67.4732 38.3692 68.613 33.7566 66.0858 31.4483C65.5524 30.9329 64.8939 30.5654 64.1751 30.3822C63.4564 30.199 62.7023 30.2063 61.9873 30.4035C61.2723 30.6007 60.621 30.981 60.0978 31.5067C59.5746 32.0325 59.1976 32.6855 59.0038 33.4015Z" fill="#B55B52"/>
<path d="M63.8029 29.8108C62.5641 30.5211 59.9337 26.0737 56.6673 29.8108C54.3301 32.4908 55.8208 36.4179 55.8208 36.4179C55.8208 36.4179 53.9584 33.1433 52.4718 34.7414C50.531 36.8061 52.5379 44.1936 58.9385 43.6857C65.3391 43.1777 64.7197 37.9829 64.7197 37.9829C64.7197 37.9829 67.7176 34.9354 67.569 32.2018C67.4575 30.1536 65.8676 28.6422 63.8029 29.8108Z" fill="#263238"/>
<path d="M64.5792 36.0359C64.4195 36.6076 64.4397 37.2146 64.637 37.7744C64.9013 38.5631 65.5083 38.5673 65.8304 38.0222C66.1525 37.4771 66.3301 36.5315 65.8717 35.8955C65.4134 35.2596 64.7857 35.4041 64.5792 36.0359Z" fill="#B55B52"/>
<path d="M59.8303 65.8063C59.8303 65.8063 58.4511 70.5882 56.6796 76.8979C55.5027 81.1017 54.1483 85.9826 52.9136 90.5787C52.2074 93.2091 51.5426 95.7446 50.9686 98.0116C47.7229 110.833 31.5356 121.855 31.5356 121.855L28.4014 118.407C28.4014 118.407 39.2782 109.248 42.4414 97.2849C48.8296 72.9998 45.237 68.9034 50.3286 63.9688L59.8303 65.8063Z" fill="#263238"/>
<path opacity="0.2" d="M58.4347 70.0921C57.9557 71.9463 57.3528 74.2876 56.688 76.9057C55.5111 81.1094 54.1566 85.9904 52.9219 90.5864C52.3934 84.7227 52.0961 73.9408 56.4113 70.5877C57.262 69.9352 57.935 69.799 58.4347 70.0921Z" fill="black"/>
<path d="M31.8043 122.348L27.8896 118.041L29.0748 116.852L33.8773 121.377L31.8043 122.348Z" fill="#FEE675"/>
<path opacity="0.7" d="M31.8043 122.348L27.8896 118.041L29.0748 116.852L33.8773 121.377L31.8043 122.348Z" fill="white"/>
<path d="M28.2115 125.624C28.1721 125.623 28.1331 125.616 28.0959 125.604C27.7118 125.463 27.4682 124.728 27.3567 124.303C27.3531 124.288 27.3539 124.273 27.3591 124.259C27.3642 124.245 27.3735 124.233 27.3856 124.224C27.3976 124.216 27.4121 124.211 27.4269 124.211C27.4417 124.211 27.4562 124.216 27.4682 124.224C27.5838 124.29 28.5997 124.885 28.6203 125.302C28.6237 125.348 28.6148 125.393 28.5944 125.434C28.5741 125.474 28.543 125.509 28.5047 125.533C28.4203 125.596 28.3168 125.629 28.2115 125.624ZM27.5549 124.447C27.7242 125.005 27.9389 125.381 28.1495 125.455C28.1946 125.469 28.2424 125.471 28.2886 125.462C28.3347 125.453 28.3778 125.432 28.4138 125.401C28.4675 125.364 28.4716 125.327 28.4675 125.302C28.4469 125.087 27.9555 124.699 27.5549 124.447Z" fill="#86C3BB"/>
<path d="M63.0597 66.475C63.0597 66.475 63.8855 92.003 62.0603 101.62C60.1856 111.642 54.4622 134.354 54.4622 134.354L49.8125 133.755C49.8125 133.755 52.7526 110.771 54.0039 100.836C55.3624 90.0002 53.5909 64.625 53.5909 64.625L63.0597 66.475Z" fill="#263238"/>
<path d="M55.4617 134.643L48.834 133.788L48.9124 132.211L56.1265 132.525L55.4617 134.643Z" fill="#FEE675"/>
<path opacity="0.7" d="M55.4617 134.643L48.834 133.788L48.9124 132.211L56.1265 132.525L55.4617 134.643Z" fill="white"/>
<path d="M28.3684 124.619C28.0253 124.602 27.6906 124.507 27.3897 124.342C27.3784 124.335 27.3691 124.325 27.3626 124.314C27.3561 124.302 27.3526 124.289 27.3525 124.276C27.3544 124.263 27.359 124.25 27.3661 124.238C27.3732 124.227 27.3827 124.217 27.3938 124.21C27.431 124.21 28.2197 123.776 28.674 123.945C28.7309 123.966 28.7826 123.999 28.8254 124.042C28.8682 124.085 28.9011 124.136 28.9217 124.193C28.9489 124.248 28.9567 124.311 28.944 124.371C28.9312 124.431 28.8987 124.484 28.8515 124.524C28.7048 124.606 28.5354 124.64 28.3684 124.619ZM27.5962 124.284C27.9554 124.449 28.5831 124.54 28.7565 124.404C28.7854 124.379 28.8144 124.342 28.7565 124.247C28.7444 124.21 28.7239 124.177 28.6966 124.15C28.6694 124.123 28.6362 124.102 28.5996 124.09C28.2532 124.051 27.9031 124.119 27.5962 124.284Z" fill="#86C3BB"/>
<path d="M54.7015 138.785C54.3614 138.778 54.0227 138.739 53.6898 138.67C53.674 138.668 53.6592 138.661 53.648 138.65C53.6367 138.638 53.6296 138.624 53.6278 138.608C53.6254 138.592 53.6281 138.576 53.6355 138.562C53.6429 138.548 53.6547 138.536 53.6691 138.529C53.8178 138.451 55.1227 137.794 55.5109 138.013C55.5479 138.034 55.5789 138.063 55.6006 138.1C55.6224 138.136 55.6342 138.177 55.6347 138.22C55.6428 138.288 55.6334 138.358 55.6074 138.422C55.5814 138.487 55.5397 138.543 55.4861 138.587C55.2541 138.739 54.9778 138.809 54.7015 138.785ZM53.9458 138.562C54.6561 138.682 55.1846 138.649 55.387 138.476C55.4217 138.445 55.4485 138.407 55.4651 138.364C55.4816 138.32 55.4874 138.274 55.4819 138.228C55.4831 138.211 55.4795 138.195 55.4714 138.18C55.4634 138.165 55.4513 138.153 55.4365 138.145C55.2259 138.03 54.4826 138.306 53.9458 138.562Z" fill="#86C3BB"/>
<path d="M53.7066 138.671C53.6918 138.675 53.6761 138.675 53.6612 138.671C53.6501 138.663 53.6412 138.653 53.6354 138.641C53.6296 138.628 53.6271 138.615 53.6282 138.601C53.6282 138.543 53.7892 137.147 54.5697 137.23C54.7761 137.251 54.8381 137.354 54.8505 137.441C54.9083 137.804 54.1278 138.506 53.7355 138.68L53.7066 138.671ZM54.5077 137.362C54.0452 137.362 53.8594 138.126 53.8016 138.457C54.2145 138.217 54.7348 137.668 54.7018 137.449C54.7018 137.449 54.7018 137.379 54.5532 137.366L54.5077 137.362Z" fill="#86C3BB"/>
<path d="M50.2498 63.1832L49.4776 64.2197C49.4197 64.3022 49.5106 64.4137 49.6593 64.4426L63.2244 67.0689C63.34 67.0689 63.4474 67.0689 63.4639 66.9822L63.7736 65.8508C63.7736 65.7764 63.7034 65.6856 63.5754 65.6608L50.4769 63.1254C50.4372 63.1147 50.3955 63.1145 50.3558 63.1246C50.316 63.1347 50.2795 63.1549 50.2498 63.1832Z" fill="#FEE675"/>
<path d="M51.7697 64.9812L51.4187 64.911C51.3485 64.911 51.3031 64.8532 51.3155 64.8119L51.7285 63.3459C51.7285 63.3046 51.811 63.2799 51.8771 63.2923L52.2281 63.3625C52.2983 63.3625 52.3479 63.4203 52.3355 63.4616L51.9225 64.9275C51.906 64.9812 51.8399 64.9812 51.7697 64.9812Z" fill="#263238"/>
<path d="M60.6272 66.7134L60.2762 66.6473C60.206 66.6473 60.1605 66.5854 60.1729 66.5441L60.5859 65.0823C60.5859 65.0368 60.6643 65.0121 60.7345 65.0286L61.0855 65.0946C61.1516 65.0946 61.2012 65.1566 61.1888 65.1979L60.7758 66.6597C60.7634 66.7051 60.6974 66.7299 60.6272 66.7134Z" fill="#263238"/>
</svg>
