<svg width="174" height="152" viewBox="0 0 174 152" fill="none" xmlns="http://www.w3.org/2000/svg">
<path d="M86.5355 152.003C134.328 152.003 173.071 149.741 173.071 146.951C173.071 144.16 134.328 141.898 86.5355 141.898C38.7433 141.898 0 144.16 0 146.951C0 149.741 38.7433 152.003 86.5355 152.003Z" fill="#F5F5F5"/>
<path d="M119.696 1.5625H64.2108C60.3187 1.5625 57.1636 4.71767 57.1636 8.60977V139.714C57.1636 143.606 60.3187 146.761 64.2108 146.761H119.696C123.588 146.761 126.744 143.606 126.744 139.714V8.60977C126.744 4.71767 123.588 1.5625 119.696 1.5625Z" fill="#86C3BB"/>
<path d="M126.146 26.3281H125.512C124.697 26.3281 124.035 26.9895 124.035 27.8054V49.4159C124.035 50.2317 124.697 50.8932 125.512 50.8932H126.146C126.962 50.8932 127.624 50.2317 127.624 49.4159V27.8054C127.624 26.9895 126.962 26.3281 126.146 26.3281Z" fill="#86C3BB"/>
<path d="M57.3064 31.1406H56.2174C55.5273 31.1406 54.9678 31.7001 54.9678 32.3903V39.5224C54.9678 40.2125 55.5273 40.772 56.2174 40.772H57.3064C57.9966 40.772 58.5561 40.2125 58.5561 39.5224V32.3903C58.5561 31.7001 57.9966 31.1406 57.3064 31.1406Z" fill="#86C3BB"/>
<path d="M98.8853 0H87.4775V0.446312H98.8853V0Z" fill="#86C3BB"/>
<path d="M103.598 0H101.116V0.446312H103.598V0Z" fill="#86C3BB"/>
<path d="M118.523 1.5625H63.037C59.1449 1.5625 55.9897 4.71767 55.9897 8.60977V139.714C55.9897 143.606 59.1449 146.761 63.037 146.761H118.523C122.415 146.761 125.57 143.606 125.57 139.714V8.60977C125.57 4.71767 122.415 1.5625 118.523 1.5625Z" fill="#86C3BB"/>
<path d="M123.539 9.82812H58.0162C57.2594 9.82812 56.646 10.4416 56.646 11.1983V137.362C56.646 138.119 57.2594 138.732 58.0162 138.732H123.539C124.296 138.732 124.909 138.119 124.909 137.362V11.1983C124.909 10.4416 124.296 9.82812 123.539 9.82812Z" fill="white"/>
<path opacity="0.05" d="M109.61 16.1719H68.1874C64.49 16.1719 61.4927 19.1692 61.4927 22.8666V83.0071C61.4927 86.7045 64.49 89.7018 68.1874 89.7018H109.61C113.307 89.7018 116.304 86.7045 116.304 83.0071V22.8666C116.304 19.1692 113.307 16.1719 109.61 16.1719Z" fill="#86C3BB"/>
<path opacity="0.05" d="M97.0643 54.0078C96.4735 54.0078 95.8884 54.1242 95.3426 54.3503C94.7968 54.5763 94.3009 54.9077 93.8831 55.3255C93.4654 55.7432 93.134 56.2392 92.9079 56.785C92.6818 57.3308 92.5654 57.9158 92.5654 58.5066V98.9381C92.5648 99.5292 92.6808 100.115 92.9066 100.661C93.1324 101.207 93.4637 101.704 93.8815 102.122C94.2993 102.54 94.7955 102.872 95.3416 103.098C95.8877 103.325 96.4731 103.441 97.0643 103.441H124.919V54.0078H97.0643Z" fill="#86C3BB"/>
<path d="M81.9787 5.83594H39.7843C39.3616 5.83535 38.9429 5.91819 38.5522 6.07969C38.1615 6.2412 37.8065 6.47821 37.5076 6.77714C37.2087 7.07606 36.9717 7.43104 36.8102 7.82172C36.6487 8.2124 36.5658 8.6311 36.5664 9.05385V30.7134C36.5664 31.136 36.6496 31.5544 36.8114 31.9448C36.9731 32.3352 37.2101 32.69 37.5089 32.9888C37.8077 33.2876 38.1625 33.5246 38.5529 33.6863C38.9433 33.8481 39.3617 33.9313 39.7843 33.9313H69.5757L76.0338 37.2251V33.9268H81.9876C82.8387 33.9245 83.6543 33.585 84.2557 32.9828C84.8571 32.3805 85.1954 31.5645 85.1966 30.7134V9.05385C85.1966 8.20041 84.8576 7.38192 84.2541 6.77845C83.6506 6.17497 82.8321 5.83594 81.9787 5.83594Z" fill="#263238"/>
<path d="M79.5681 14.0225H47.1436C46.6547 14.0225 46.1859 13.8283 45.8402 13.4826C45.4945 13.1369 45.3003 12.6681 45.3003 12.1792C45.3003 11.6903 45.4945 11.2215 45.8402 10.8758C46.1859 10.5301 46.6547 10.3359 47.1436 10.3359H79.5681C80.057 10.3359 80.5259 10.5301 80.8715 10.8758C81.2172 11.2215 81.4114 11.6903 81.4114 12.1792C81.4114 12.6681 81.2172 13.1369 80.8715 13.4826C80.5259 13.8283 80.057 14.0225 79.5681 14.0225V14.0225ZM47.1436 10.7689C46.7827 10.7892 46.4432 10.9468 46.1949 11.2095C45.9465 11.4722 45.8082 11.82 45.8082 12.1814C45.8082 12.5429 45.9465 12.8907 46.1949 13.1534C46.4432 13.4161 46.7827 13.5737 47.1436 13.594H79.5681C79.9291 13.5737 80.2685 13.4161 80.5168 13.1534C80.7652 12.8907 80.9035 12.5429 80.9035 12.1814C80.9035 11.82 80.7652 11.4722 80.5168 11.2095C80.2685 10.9468 79.9291 10.7892 79.5681 10.7689H47.1436Z" fill="white"/>
<path d="M79.568 20.2837H57.2524C56.788 20.2606 56.3502 20.0598 56.0296 19.723C55.709 19.3861 55.5303 18.9389 55.5303 18.4739C55.5303 18.0088 55.709 17.5616 56.0296 17.2248C56.3502 16.8879 56.788 16.6871 57.2524 16.6641H79.568C80.0325 16.6871 80.4703 16.8879 80.7908 17.2248C81.1114 17.5616 81.2901 18.0088 81.2901 18.4739C81.2901 18.9389 81.1114 19.3861 80.7908 19.723C80.4703 20.0598 80.0325 20.2606 79.568 20.2837ZM57.2524 17.03C57.056 17.0191 56.8595 17.0484 56.6749 17.116C56.4902 17.1836 56.3212 17.2882 56.1784 17.4233C56.0355 17.5585 55.9217 17.7213 55.8439 17.902C55.7662 18.0826 55.726 18.2772 55.726 18.4739C55.726 18.6705 55.7662 18.8651 55.8439 19.0457C55.9217 19.2264 56.0355 19.3892 56.1784 19.5244C56.3212 19.6595 56.4902 19.7641 56.6749 19.8317C56.8595 19.8994 57.056 19.9286 57.2524 19.9177H79.568C79.7644 19.9286 79.9609 19.8994 80.1456 19.8317C80.3302 19.7641 80.4992 19.6595 80.642 19.5244C80.7849 19.3892 80.8987 19.2264 80.9765 19.0457C81.0543 18.8651 81.0944 18.6705 81.0944 18.4739C81.0944 18.2772 81.0543 18.0826 80.9765 17.902C80.8987 17.7213 80.7849 17.5585 80.642 17.4233C80.4992 17.2882 80.3302 17.1836 80.1456 17.116C79.9609 17.0484 79.7644 17.0191 79.568 17.03H57.2524Z" fill="white"/>
<path d="M79.5683 26.5303H52.1692C51.7001 26.5071 51.2579 26.3044 50.9341 25.9642C50.6103 25.624 50.4297 25.1723 50.4297 24.7026C50.4297 24.233 50.6103 23.7813 50.9341 23.4411C51.2579 23.1009 51.7001 22.8982 52.1692 22.875H79.5773C80.0464 22.8982 80.4886 23.1009 80.8124 23.4411C81.1362 23.7813 81.3168 24.233 81.3168 24.7026C81.3168 25.1723 81.1362 25.624 80.8124 25.9642C80.4886 26.3044 80.0464 26.5071 79.5773 26.5303H79.5683ZM52.1692 23.2767C51.9753 23.2658 51.7811 23.2947 51.5987 23.3614C51.4162 23.4282 51.2493 23.5314 51.1082 23.6649C50.967 23.7984 50.8545 23.9593 50.7777 24.1377C50.7009 24.3161 50.6612 24.5084 50.6612 24.7026C50.6612 24.8969 50.7009 25.0892 50.7777 25.2676C50.8545 25.446 50.967 25.6069 51.1082 25.7404C51.2493 25.8739 51.4162 25.9771 51.5987 26.0439C51.7811 26.1106 51.9753 26.1395 52.1692 26.1286H79.5773C79.7712 26.1395 79.9654 26.1106 80.1478 26.0439C80.3303 25.9771 80.4972 25.8739 80.6383 25.7404C80.7795 25.6069 80.8919 25.446 80.9688 25.2676C81.0456 25.0892 81.0853 24.8969 81.0853 24.7026C81.0853 24.5084 81.0456 24.3161 80.9688 24.1377C80.8919 23.9593 80.7795 23.7984 80.6383 23.6649C80.4972 23.5314 80.3303 23.4282 80.1478 23.3614C79.9654 23.2947 79.7712 23.2658 79.5773 23.2767H52.1692Z" fill="white"/>
<path d="M141.726 26.0703H93.3546C92.5012 26.0703 91.6827 26.4093 91.0792 27.0128C90.4757 27.6163 90.1367 28.4348 90.1367 29.2882V41.7091C90.1367 42.1317 90.22 42.5501 90.3817 42.9405C90.5434 43.331 90.7804 43.6857 91.0792 43.9845C91.378 44.2833 91.7328 44.5203 92.1232 44.6821C92.5136 44.8438 92.932 44.927 93.3546 44.927H99.3084V48.2074L105.762 44.9136H141.726C142.579 44.9136 143.398 44.5746 144.001 43.9711C144.605 43.3676 144.944 42.5492 144.944 41.6957V29.2882C144.944 28.4348 144.605 27.6163 144.001 27.0128C143.398 26.4093 142.579 26.0703 141.726 26.0703V26.0703Z" fill="#FEE675"/>
<path d="M128.257 34.1943H95.8325C95.3437 34.1943 94.8748 34.0001 94.5291 33.6545C94.1834 33.3088 93.9893 32.8399 93.9893 32.3511C93.9893 31.8622 94.1834 31.3934 94.5291 31.0477C94.8748 30.702 95.3437 30.5078 95.8325 30.5078H128.257C128.746 30.5078 129.215 30.702 129.561 31.0477C129.906 31.3934 130.1 31.8622 130.1 32.3511C130.1 32.8399 129.906 33.3088 129.561 33.6545C129.215 34.0001 128.746 34.1943 128.257 34.1943ZM95.8325 30.9407C95.4585 30.9407 95.0998 31.0893 94.8353 31.3538C94.5708 31.6183 94.4222 31.977 94.4222 32.3511C94.4222 32.7251 94.5708 33.0839 94.8353 33.3483C95.0998 33.6128 95.4585 33.7614 95.8325 33.7614H128.257C128.631 33.7614 128.99 33.6128 129.254 33.3483C129.519 33.0839 129.667 32.7251 129.667 32.3511C129.667 31.977 129.519 31.6183 129.254 31.3538C128.99 31.0893 128.631 30.9407 128.257 30.9407H95.8325Z" fill="white"/>
<path d="M118.165 40.4511H95.8496C95.3702 40.4511 94.9104 40.2606 94.5714 39.9216C94.2324 39.5827 94.042 39.1229 94.042 38.6435C94.042 38.1641 94.2324 37.7043 94.5714 37.3654C94.9104 37.0264 95.3702 36.8359 95.8496 36.8359H118.165C118.645 36.8359 119.104 37.0264 119.443 37.3654C119.782 37.7043 119.973 38.1641 119.973 38.6435C119.973 39.1229 119.782 39.5827 119.443 39.9216C119.104 40.2606 118.645 40.4511 118.165 40.4511V40.4511ZM95.8496 37.1974C95.466 37.1974 95.0982 37.3498 94.827 37.621C94.5559 37.8922 94.4035 38.26 94.4035 38.6435C94.4035 39.027 94.5559 39.3948 94.827 39.666C95.0982 39.9372 95.466 40.0896 95.8496 40.0896H118.165C118.549 40.0896 118.916 39.9372 119.188 39.666C119.459 39.3948 119.611 39.027 119.611 38.6435C119.611 38.26 119.459 37.8922 119.188 37.621C118.916 37.3498 118.549 37.1974 118.165 37.1974H95.8496Z" fill="white"/>
<path d="M49.0229 112.516H124.918V120.442H49.0452C48.3492 120.442 47.6817 120.166 47.1895 119.673C46.6974 119.181 46.4209 118.514 46.4209 117.818V115.14C46.4209 114.448 46.6943 113.784 47.1816 113.292C47.669 112.801 48.3308 112.522 49.0229 112.516V112.516Z" fill="#FEE675"/>
<path opacity="0.2" d="M49.0229 112.516H124.918V120.442H49.0452C48.3492 120.442 47.6817 120.166 47.1895 119.673C46.6974 119.181 46.4209 118.514 46.4209 117.818V115.14C46.4209 114.448 46.6943 113.784 47.1816 113.292C47.669 112.801 48.3308 112.522 49.0229 112.516V112.516Z" fill="#263238"/>
<path opacity="0.3" d="M107.757 112.516H124.918V120.442H107.757C107.061 120.442 106.394 120.166 105.901 119.673C105.409 119.181 105.133 118.514 105.133 117.818V115.14C105.133 114.444 105.409 113.776 105.901 113.284C106.394 112.792 107.061 112.516 107.757 112.516V112.516Z" fill="#263238"/>
<path opacity="0.3" d="M111.458 120.453L121.687 131.526C122.875 132.816 124.91 131.901 124.91 130.08V120.453H111.458Z" fill="#86C3BB"/>
<path opacity="0.3" d="M62.519 120.453L72.7485 131.526C73.9402 132.816 75.9754 131.901 75.9754 130.08V120.453H62.519Z" fill="#86C3BB"/>
<path d="M82.3535 81.1852C82.2866 82.0153 82.1884 82.783 82.0813 83.5729C81.9742 84.3629 81.8581 85.144 81.7198 85.925C81.452 87.4916 81.1306 89.0492 80.7379 90.6024C80.546 91.3745 80.3406 92.1511 80.1041 92.9232C79.9881 93.3115 79.8676 93.6953 79.7337 94.0791C79.6121 94.4918 79.463 94.8959 79.2874 95.2886C79.1802 95.5073 79.0687 95.7349 78.9214 95.9715C78.7515 96.2705 78.5478 96.5491 78.3144 96.8016C78.1158 97.0125 77.8872 97.193 77.636 97.3372C77.2106 97.5769 76.7175 97.668 76.2346 97.5961C75.8323 97.5309 75.4573 97.3512 75.1545 97.0784C74.9833 96.9198 74.8333 96.7397 74.7082 96.5428C74.4365 96.0692 74.2578 95.5481 74.1815 95.0075C74.1181 94.5641 74.0897 94.1164 74.0967 93.6685L76.2123 93.2222C76.3997 93.5078 76.5738 93.8426 76.7746 94.1148C76.9755 94.3871 77.1763 94.6504 77.27 94.6549C77.27 94.6549 77.2923 94.6236 77.2299 94.5478C77.0777 94.3966 76.8801 94.2994 76.6675 94.271C76.3797 94.2239 76.0844 94.2692 75.824 94.4005C75.6588 94.4853 75.6008 94.5388 75.574 94.5478C75.5473 94.5567 75.574 94.4942 75.574 94.3916L75.6588 94.0033C75.7124 93.7265 75.8017 93.3472 75.8998 92.9946C75.998 92.642 76.0739 92.276 76.1587 91.9145C76.3238 91.187 76.4845 90.4595 76.605 89.7231C76.8907 88.2503 77.1406 86.7596 77.3682 85.26C77.5958 83.7604 77.8145 82.2474 77.9841 80.7969L82.3535 81.1852Z" fill="#B55B52"/>
<path d="M78.5024 76.7703C77.4893 78.2788 76.4717 84.1255 76.4717 84.1255L83.5859 87.2497C83.5859 87.2497 85.5854 77.7298 83.992 75.9848C82.3496 74.1593 79.6405 75.0788 78.5024 76.7703Z" fill="#FEE675"/>
<path opacity="0.2" d="M79.9038 80.6096C78.9353 81.7254 78.4845 83.4973 78.3506 84.9299L83.6037 87.2507C84.0393 85.1085 84.3537 82.9435 84.5454 80.7658C83.3805 79.5251 81.5596 78.6949 79.9038 80.6096Z" fill="black"/>
<path d="M45.6896 142.774L42.1504 140.382L47.1 131.781L50.6393 134.173L45.6896 142.774Z" fill="#B55B52"/>
<path d="M69.0898 146.379L64.9927 144.919L66.4253 135.109L70.5225 136.569L69.0898 146.379Z" fill="#B55B52"/>
<path d="M64.7646 144.352L69.5625 144.553C69.6451 144.555 69.7242 144.587 69.785 144.642C69.8458 144.698 69.8841 144.774 69.8928 144.857L70.2811 148.507C70.2874 148.604 70.2734 148.7 70.24 148.791C70.2066 148.881 70.1546 148.963 70.0872 149.033C70.0198 149.102 69.9387 149.156 69.8491 149.191C69.7594 149.227 69.6633 149.243 69.567 149.239C67.8933 149.141 67.0899 149.177 64.9833 149.092C63.6846 149.034 61.0469 149.36 59.2571 149.284C57.4674 149.208 57.4407 147.436 58.1949 147.307C61.569 146.722 62.8767 145.486 64.0416 144.589C64.2473 144.427 64.5033 144.344 64.7646 144.352V144.352Z" fill="#263238"/>
<path d="M42.632 139.104L46.5863 141.826C46.6576 141.873 46.7087 141.945 46.7293 142.028C46.75 142.11 46.7388 142.198 46.6979 142.273L44.9974 145.709C44.9518 145.795 44.8887 145.869 44.8121 145.928C44.7355 145.987 44.6472 146.029 44.5531 146.052C44.459 146.074 44.3612 146.076 44.2662 146.058C44.1713 146.04 44.0813 146.001 44.0022 145.946C42.6632 144.973 42.1723 144.607 40.4317 143.411C39.365 142.674 36.8612 141.157 35.3794 140.139C33.8977 139.122 34.9063 137.542 35.6115 137.832C38.7758 139.14 40.4272 139.068 41.8911 138.925C42.1511 138.899 42.4123 138.962 42.632 139.104Z" fill="#263238"/>
<g opacity="0.2">
<path d="M47.0955 131.781L44.1855 136.847L47.9435 138.86L50.6392 134.178L47.0955 131.781Z" fill="black"/>
<path d="M70.5221 136.573L66.4205 135.109L65.5591 141.059L69.7455 141.907L70.5221 136.573Z" fill="black"/>
</g>
<path d="M78.6364 78.7111C78.6855 81.9245 79.3282 88.3648 81.7606 101.254L99.1088 100.808C98.6357 93.7563 98.5152 89.4002 101.519 74.8237C99.0758 74.385 96.6042 74.124 94.1235 74.0426C91.4947 73.9218 88.8607 73.9889 86.2416 74.2435C84.6616 74.4309 82.979 74.721 81.6401 74.9799C80.7812 75.1505 80.0096 75.6177 79.4605 76.2999C78.9114 76.982 78.6197 77.8355 78.6364 78.7111Z" fill="#FEE675"/>
<path opacity="0.2" d="M101.068 77.0703C99.5449 77.7344 98.3144 78.9285 97.6047 80.431C96.7657 82.3457 98.8678 86.2822 99.3677 87.1659C99.7069 84.4434 100.251 81.2032 101.068 77.0703Z" fill="black"/>
<path d="M88.6639 55.888C86.9367 57.8205 85.3746 66.0059 90.7348 69.7237C90.5027 73.1379 98.6836 70.8885 99.661 66.7155C100.58 62.8594 93.85 50.0814 88.6639 55.888Z" fill="#263238"/>
<path d="M95.5649 70.3951C95.5337 70.3951 95.5037 70.383 95.4813 70.3614C95.4588 70.3397 95.4456 70.3102 95.4444 70.279C95.4432 70.2466 95.4546 70.215 95.4763 70.1908C95.4979 70.1667 95.5281 70.1519 95.5605 70.1496C98.7114 70.0068 99.7469 68.284 100.059 66.8647C100.787 63.562 98.4392 59.1882 96.0068 57.9385C95.9926 57.931 95.98 57.9208 95.9699 57.9084C95.9597 57.8959 95.9521 57.8816 95.9475 57.8663C95.9429 57.8509 95.9415 57.8347 95.9432 57.8188C95.945 57.8028 95.9499 57.7874 95.9577 57.7734C95.9728 57.7459 95.9981 57.7254 96.0281 57.7162C96.0581 57.707 96.0905 57.7099 96.1184 57.7243C98.6266 59.0275 101.028 63.5263 100.296 66.9317C99.9656 68.4313 98.8766 70.2567 95.5694 70.404L95.5649 70.3951Z" fill="#263238"/>
<path d="M96.3542 70.9737C95.8701 70.971 95.3869 70.9338 94.9081 70.8621C94.8911 70.8616 94.8743 70.8575 94.859 70.8501C94.8436 70.8426 94.83 70.832 94.8191 70.8189C94.8081 70.8058 94.8001 70.7906 94.7955 70.7741C94.7909 70.7577 94.7898 70.7405 94.7924 70.7236C94.7949 70.7068 94.801 70.6906 94.8103 70.6763C94.8195 70.662 94.8317 70.6497 94.846 70.6405C94.8603 70.6312 94.8765 70.6251 94.8933 70.6225C94.9102 70.6199 94.9274 70.621 94.9438 70.6255C98.1394 71.0718 100.224 70.023 100.817 67.6531C101.67 64.2209 99.1213 59.0393 96.0328 57.919C96.0154 57.9161 95.9989 57.9094 95.9844 57.8994C95.9699 57.8893 95.9577 57.8762 95.9488 57.861C95.9399 57.8458 95.9345 57.8288 95.9329 57.8112C95.9313 57.7937 95.9335 57.776 95.9395 57.7594C95.9455 57.7428 95.955 57.7277 95.9675 57.7152C95.9799 57.7027 95.9949 57.6931 96.0115 57.687C96.028 57.681 96.0457 57.6786 96.0633 57.6801C96.0809 57.6817 96.0979 57.687 96.1132 57.6959C99.3623 58.8697 101.946 64.1138 101.049 67.7111C100.719 69.0054 99.6837 70.9737 96.3542 70.9737Z" fill="#263238"/>
<path d="M93.1465 66.1406C92.7001 68.6891 92.3163 72.389 94.1328 74.0404C94.1328 74.0404 90.6025 75.9774 86.8892 82.1186C83.6534 77.0708 86.2509 74.2412 86.2509 74.2412C89.0627 73.4959 88.9601 72.3488 88.4156 70.394L93.1465 66.1406Z" fill="#B55B52"/>
<path d="M88.6958 77.3347C88.6245 77.6174 88.4698 77.8721 88.2516 78.0656C88.0335 78.2591 87.7621 78.3823 87.4729 78.4192C86.9551 78.4192 86.6606 77.9729 86.8212 77.3659C86.8908 77.0823 87.045 76.8266 87.2635 76.6329C87.482 76.4391 87.7543 76.3165 88.0441 76.2814C88.5619 76.2724 88.852 76.7411 88.6958 77.3347Z" fill="white"/>
<path d="M88.3221 76.7734C88.3076 76.7734 88.2933 76.7705 88.28 76.7649C88.2667 76.7592 88.2547 76.7509 88.2447 76.7405C88.2347 76.7301 88.2269 76.7177 88.2218 76.7042C88.2167 76.6907 88.2143 76.6763 88.2149 76.6619C88.2149 76.6323 88.2267 76.6039 88.2476 76.5829C88.2685 76.562 88.2969 76.5503 88.3265 76.5503C88.4247 76.5503 91.0669 76.519 94.075 73.9572C94.0862 73.9475 94.0991 73.9401 94.1131 73.9355C94.1271 73.9308 94.1418 73.9289 94.1566 73.93C94.1713 73.931 94.1856 73.9349 94.1988 73.9415C94.212 73.9481 94.2238 73.9572 94.2335 73.9684C94.2431 73.9795 94.2505 73.9924 94.2552 74.0064C94.2599 74.0204 94.2617 74.0352 94.2607 74.0499C94.2597 74.0646 94.2557 74.079 94.2491 74.0922C94.2426 74.1054 94.2334 74.1171 94.2223 74.1268C91.174 76.7109 88.5631 76.7734 88.3221 76.7734Z" fill="white"/>
<path d="M87.7595 76.7303C87.7595 76.7303 86.1572 76.4536 86.1572 74.2444C86.1572 74.2148 86.169 74.1864 86.1899 74.1655C86.2108 74.1446 86.2392 74.1328 86.2688 74.1328C86.2984 74.1328 86.3268 74.1446 86.3477 74.1655C86.3686 74.1864 86.3804 74.2148 86.3804 74.2444C86.3804 76.2573 87.7193 76.4759 87.7952 76.5072C87.8241 76.5126 87.8498 76.5293 87.8665 76.5535C87.8832 76.5778 87.8897 76.6076 87.8845 76.6366C87.88 76.6655 87.8645 76.6915 87.8411 76.709C87.8177 76.7265 87.7884 76.7342 87.7595 76.7303Z" fill="white"/>
<path opacity="0.2" d="M91.2183 67.875L88.4199 70.3877C88.5519 70.8431 88.6445 71.309 88.6966 71.7802C89.7722 71.5972 91.4504 70.6332 91.6512 69.4549C91.7449 68.8971 91.3165 68.1339 91.2183 67.875Z" fill="black"/>
<path d="M81.7206 54.6338C79.98 56.5797 77.7886 63.3279 83.1845 67.0502C82.9524 70.4868 90.8968 67.7643 92.3205 63.685C93.7442 59.6057 86.9425 48.7871 81.7206 54.6338Z" fill="#263238"/>
<path d="M93.6008 59.5521C94.297 63.7341 94.6853 65.4881 93.0875 68.0856C90.6864 71.9953 85.3976 71.9328 83.465 68.0455C81.7244 64.5419 80.8764 58.2891 84.5362 55.7183C85.3417 55.1525 86.2779 54.801 87.2567 54.6967C88.2355 54.5924 89.2247 54.7389 90.1313 55.1224C91.0379 55.5058 91.832 56.1136 92.439 56.8885C93.0459 57.6635 93.4457 58.5801 93.6008 59.5521V59.5521Z" fill="#B55B52"/>
<path d="M83.6076 55.2066C83.862 57.4381 88.2582 63.1777 93.7478 61.8432C95.8232 63.9632 98.626 57.2953 96.8229 54.0417C95.0198 50.7881 82.8444 48.494 83.6076 55.2066Z" fill="#263238"/>
<path d="M81.7649 101.252C73.3296 100.69 55.9859 102.828 53.3081 111.071C49.2913 123.487 44.605 134.087 44.605 134.087L50.0232 136.68C50.0232 136.68 60.4446 124.032 63.6491 115.789C69.8975 116.485 78.181 114.539 80.6759 114.231C89.8343 113.111 93.5877 107.184 94.467 100.922L81.7649 101.252Z" fill="#263238"/>
<path opacity="0.2" d="M74.7716 105.424C67.9965 105.321 59.7799 109.615 60.7038 121.634C61.8363 119.766 62.8211 117.813 63.6495 115.791C65.7665 115.986 67.8968 115.986 70.0139 115.791C72.1517 111.056 76.4006 105.45 74.7716 105.424Z" fill="black"/>
<path d="M49.6172 138.031L43.6099 134.889L44.1678 132.742L51.0186 136.027L49.6172 138.031Z" fill="#FEE675"/>
<path opacity="0.4" d="M49.6172 138.031L43.6099 134.889L44.1678 132.742L51.0186 136.027L49.6172 138.031Z" fill="black"/>
<path d="M86.3442 101.135C86.3442 101.135 65.18 105.933 65.247 112.253C65.3943 125.767 65.1265 138.83 65.1265 138.83L70.9151 139.978C70.9151 139.978 75.7398 124.678 75.7799 116.488C84.8222 113.105 102.559 120.773 99.1265 100.805L86.3442 101.135Z" fill="#263238"/>
<path d="M71.491 140.921L64.3813 139.609L64.0376 137.234L72.4684 138.404L71.491 140.921Z" fill="#FEE675"/>
<path opacity="0.4" d="M71.491 140.921L64.3813 139.609L64.0376 137.234L72.4684 138.404L71.491 140.921Z" fill="black"/>
<path d="M87.2776 62.1572C87.3535 62.4919 87.2375 62.8043 87.0188 62.8534C86.8001 62.9025 86.5725 62.6749 86.4832 62.3402C86.3939 62.0054 86.5189 61.6886 86.7376 61.6395C86.9563 61.5904 87.2018 61.818 87.2776 62.1572Z" fill="#263238"/>
<path d="M83.4791 63.0322C83.5594 63.3669 83.4434 63.6793 83.2247 63.7284C83.006 63.7775 82.7784 63.5499 82.6846 63.2152C82.5909 62.8804 82.7248 62.5636 82.9435 62.5145C83.1622 62.4654 83.4121 62.693 83.4791 63.0322Z" fill="#263238"/>
<path d="M83.0415 62.5134L82.1846 62.4688C82.1846 62.4688 82.7425 62.9999 83.0415 62.5134Z" fill="#263238"/>
<path d="M84.7911 63.3828C84.6685 64.2178 84.4312 65.0318 84.0859 65.8018C84.2855 65.8849 84.5008 65.9231 84.7167 65.9138C84.9326 65.9046 85.1439 65.8481 85.3356 65.7483L84.7911 63.3828Z" fill="#A02724"/>
<path d="M87.4684 66.6333C87.3103 66.6948 87.1477 66.7441 86.9819 66.7805C86.969 66.7838 86.9556 66.7845 86.9424 66.7824C86.9293 66.7803 86.9167 66.7756 86.9054 66.7685C86.8941 66.7614 86.8844 66.7521 86.8769 66.7411C86.8693 66.7301 86.864 66.7177 86.8614 66.7047C86.8581 66.6918 86.8575 66.6783 86.8596 66.6652C86.8617 66.652 86.8664 66.6394 86.8735 66.6281C86.8806 66.6168 86.8899 66.6071 86.9009 66.5996C86.9119 66.592 86.9242 66.5868 86.9373 66.5842C87.3572 66.4975 87.7507 66.3128 88.0858 66.0452C88.4208 65.7777 88.688 65.4347 88.8654 65.0444C88.8762 65.0208 88.8955 65.0021 88.9194 64.9922C88.9434 64.9823 88.9702 64.9818 88.9946 64.9908C89.0189 64.9999 89.0389 65.0178 89.0505 65.041C89.0621 65.0642 89.0646 65.0909 89.0573 65.1158C88.9064 65.4615 88.6882 65.7737 88.4154 66.0342C88.1426 66.2947 87.8207 66.4984 87.4684 66.6333V66.6333Z" fill="#263238"/>
<path d="M95.2389 62.777C95.1116 63.5874 94.6708 64.3152 94.0115 64.8033C93.1189 65.4415 92.3155 64.7453 92.2486 63.7187C92.1816 62.7949 92.5655 61.3488 93.5875 61.1167C93.8154 61.068 94.0518 61.0772 94.2752 61.1436C94.4986 61.2099 94.7017 61.3312 94.8661 61.4964C95.0304 61.6617 95.1506 61.8655 95.2158 62.0892C95.2809 62.3129 95.2889 62.5494 95.2389 62.777V62.777Z" fill="#B55B52"/>
<path d="M87.848 60.7051C87.8066 60.7141 87.7634 60.7109 87.7238 60.6958C87.6842 60.6807 87.6498 60.6545 87.6248 60.6203C87.116 59.8348 85.911 59.7812 85.8976 59.7812C85.8439 59.7789 85.7933 59.7556 85.7566 59.7164C85.7199 59.6772 85.7 59.6251 85.7012 59.5714C85.7035 59.5178 85.7268 59.4671 85.766 59.4304C85.8052 59.3937 85.8573 59.3738 85.911 59.3751C85.969 59.3751 87.3392 59.4375 87.964 60.3971C87.979 60.4193 87.9893 60.4442 87.9945 60.4705C87.9997 60.4967 87.9995 60.5237 87.9941 60.5499C87.9887 60.5761 87.9782 60.6009 87.963 60.623C87.9479 60.645 87.9285 60.6638 87.906 60.6783L87.848 60.7051Z" fill="#263238"/>
<path d="M81.4753 61.5246C81.4338 61.5434 81.3871 61.5476 81.3429 61.5364C81.2987 61.5252 81.2596 61.4993 81.2321 61.463C81.2046 61.4266 81.1903 61.382 81.1915 61.3364C81.1927 61.2908 81.2094 61.247 81.2388 61.2122C81.4279 60.9528 81.6767 60.7427 81.9641 60.5998C82.2516 60.4568 82.5692 60.3852 82.8901 60.3909C82.9165 60.3926 82.9423 60.3995 82.9661 60.4112C82.9898 60.4229 83.011 60.4392 83.0284 60.4591C83.0458 60.479 83.0591 60.5022 83.0676 60.5272C83.076 60.5523 83.0794 60.5788 83.0776 60.6052C83.0759 60.6316 83.069 60.6574 83.0573 60.6811C83.0456 60.7048 83.0293 60.726 83.0094 60.7434C82.9895 60.7608 82.9664 60.7741 82.9413 60.7826C82.9162 60.791 82.8898 60.7944 82.8634 60.7926C82.609 60.7924 82.3582 60.8526 82.1317 60.9682C81.9051 61.0838 81.7092 61.2515 81.5601 61.4576C81.5385 61.4873 81.5092 61.5104 81.4753 61.5246V61.5246Z" fill="#263238"/>
<path d="M62.5063 144.813C62.4922 144.803 62.4801 144.791 62.4706 144.777C62.4018 144.707 62.3521 144.621 62.3263 144.526C62.3005 144.432 62.2995 144.332 62.3233 144.237C62.331 144.176 62.3549 144.118 62.3926 144.069C62.4303 144.021 62.4803 143.983 62.5375 143.96C63.0419 143.755 64.3228 144.648 64.4478 144.746C64.4643 144.758 64.477 144.774 64.4842 144.793C64.4913 144.812 64.4926 144.833 64.4879 144.853C64.4832 144.872 64.4731 144.889 64.4588 144.903C64.4446 144.916 64.4268 144.925 64.4076 144.929C63.8676 145.058 62.9169 145.152 62.5063 144.813ZM64.1264 144.773C63.6132 144.433 62.8812 144.041 62.6134 144.148C62.5879 144.157 62.5657 144.174 62.5499 144.197C62.534 144.219 62.525 144.245 62.5242 144.273C62.5053 144.335 62.5037 144.402 62.5194 144.466C62.5351 144.529 62.5675 144.587 62.6134 144.634C62.8187 144.848 63.3766 144.889 64.1264 144.773Z" fill="#263238"/>
<path d="M64.2204 144.825C63.8142 144.486 63.2251 143.669 63.3277 143.241C63.3471 143.162 63.3926 143.093 63.4567 143.045C63.5209 142.996 63.5998 142.971 63.6803 142.973C63.7613 142.963 63.8436 142.971 63.9209 142.997C63.9982 143.024 64.0685 143.067 64.1266 143.125C64.5729 143.571 64.5283 144.785 64.5238 144.838C64.5234 144.856 64.5181 144.873 64.5087 144.888C64.4993 144.903 64.486 144.915 64.4703 144.923C64.4554 144.932 64.4384 144.936 64.4212 144.936C64.404 144.936 64.387 144.932 64.3721 144.923C64.3187 144.895 64.268 144.862 64.2204 144.825V144.825ZM63.9392 143.25C63.8718 143.194 63.7853 143.167 63.6982 143.174C63.5687 143.174 63.5375 143.241 63.5241 143.29C63.4572 143.58 63.9124 144.29 64.3052 144.629C64.3052 144.218 64.2293 143.522 63.9615 143.267L63.9392 143.25Z" fill="#263238"/>
<path d="M40.8868 138.811C40.5657 138.631 40.3166 138.345 40.1816 138.003C40.1598 137.914 40.1602 137.821 40.1827 137.732C40.2053 137.643 40.2494 137.562 40.311 137.494C40.3455 137.45 40.3907 137.415 40.4422 137.393C40.4937 137.372 40.55 137.363 40.6056 137.369C41.1992 137.431 42.1052 139.114 42.2079 139.306C42.2196 139.323 42.2258 139.343 42.2258 139.364C42.2258 139.385 42.2196 139.405 42.2079 139.422C42.1932 139.437 42.1742 139.448 42.1534 139.452C42.1326 139.456 42.1111 139.453 42.0918 139.444C41.6716 139.27 41.2683 139.058 40.8868 138.811V138.811ZM40.7574 137.65C40.7073 137.609 40.6473 137.581 40.5833 137.57C40.5609 137.567 40.5381 137.57 40.5176 137.58C40.4971 137.589 40.4796 137.604 40.4673 137.623C40.4259 137.667 40.3961 137.721 40.3805 137.78C40.3649 137.838 40.3641 137.899 40.378 137.958C40.4583 138.297 41.0162 138.726 41.8821 139.136C41.5965 138.581 41.2158 138.079 40.7574 137.655V137.65Z" fill="#263238"/>
<path d="M42.0608 139.441C42.0608 139.441 42.0608 139.441 42.034 139.41C41.7439 138.932 41.436 137.625 41.7752 137.245C41.8555 137.165 42.0028 137.094 42.2527 137.245C42.3398 137.292 42.4167 137.355 42.4788 137.432C42.5409 137.508 42.5869 137.597 42.6142 137.692C42.8017 138.361 42.2304 139.365 42.2081 139.41C42.1988 139.425 42.1856 139.438 42.17 139.446C42.1543 139.455 42.1367 139.459 42.1188 139.459C42.0981 139.459 42.0778 139.453 42.0608 139.441ZM42.2081 137.437L42.1545 137.406C41.9894 137.317 41.9403 137.37 41.9224 137.406C41.7171 137.616 41.8689 138.602 42.1188 139.155C42.3628 138.734 42.4675 138.247 42.4178 137.763C42.3919 137.632 42.3169 137.515 42.2081 137.437V137.437Z" fill="#263238"/>
<path d="M86.8399 61.6384L85.9785 61.5938C85.9785 61.5938 86.5364 62.1249 86.8399 61.6384Z" fill="#263238"/>
<path d="M99.3452 99.779L99.8316 101.323C99.8941 101.439 99.7558 101.569 99.5549 101.573L81.7024 102.02C81.5462 102.02 81.4168 101.948 81.4034 101.85L81.207 100.301C81.207 100.194 81.3275 100.1 81.4971 100.096L99.064 99.6496C99.1181 99.6449 99.1724 99.6544 99.2217 99.6771C99.271 99.6998 99.3136 99.7349 99.3452 99.779V99.779Z" fill="white"/>
<path d="M96.9796 101.813H97.4527C97.5464 101.813 97.6133 101.76 97.6044 101.702L97.3322 99.6889C97.3322 99.6309 97.2429 99.5818 97.1492 99.5862H96.7029C96.6091 99.5862 96.5377 99.6398 96.5467 99.6978L96.8189 101.706C96.8011 101.769 96.8859 101.813 96.9796 101.813Z" fill="#263238"/>
<path d="M83.0245 102.165H83.4976C83.5913 102.165 83.6627 102.111 83.6538 102.053L83.3815 100.04C83.3815 99.9821 83.2878 99.9375 83.1941 99.9375H82.7478C82.6541 99.9375 82.5826 99.9911 82.5916 100.049L82.8638 102.062C82.8504 102.12 82.9308 102.165 83.0245 102.165Z" fill="#263238"/>
<path d="M89.9716 101.993H90.4447C90.5384 101.993 90.6054 101.939 90.6009 101.881L90.3287 99.8683C90.3287 99.8102 90.2349 99.7656 90.1412 99.7656H89.6726C89.5789 99.7656 89.5075 99.8192 89.5164 99.8772L89.7886 101.89C89.7976 101.948 89.8779 101.993 89.9716 101.993Z" fill="#263238"/>
<path d="M88.124 91.6491L83.8037 90.0156L85.2542 94.1128C85.2542 94.1128 87.9589 94.5591 89.0434 93.1532L88.124 91.6491Z" fill="#B55B52"/>
<path d="M103.303 80.7031C103.486 81.3235 103.607 81.8502 103.723 82.4259C103.839 83.0016 103.941 83.5595 104.022 84.1308C104.193 85.2937 104.277 86.4678 104.272 87.6433C104.281 88.8965 104.131 90.1458 103.825 91.3611C103.736 91.6896 103.629 92.013 103.504 92.3296C103.353 92.7503 103.147 93.1495 102.892 93.5168C102.36 94.2307 101.643 94.7849 100.817 95.119C100.168 95.3835 99.4866 95.5606 98.7909 95.6457C98.1743 95.7305 97.5521 95.7678 96.9297 95.7572C95.7686 95.7352 94.6108 95.6248 93.4664 95.427C91.2559 95.0488 89.0851 94.4677 86.9814 93.6908L87.5617 91.6065C89.6304 91.9472 91.7164 92.1736 93.81 92.2849C94.8111 92.3367 95.8144 92.3233 96.8137 92.2448C97.6528 92.2023 98.4771 92.0072 99.2461 91.669C99.4293 91.5897 99.5847 91.4577 99.6924 91.2897C99.7793 91.0084 99.8493 90.7223 99.9022 90.4327C100.043 89.5355 100.084 88.6253 100.023 87.7192C99.9693 86.7366 99.8621 85.7577 99.7013 84.7869C99.621 84.2915 99.5362 83.7961 99.438 83.3051C99.3398 82.8142 99.2193 82.2965 99.1211 81.8725L103.303 80.7031Z" fill="#B55B52"/>
<path d="M101.523 74.8225C103.273 75.3045 104.621 82.4098 104.621 82.4098L97.9928 85.6991C97.9928 85.6991 96.3102 81.3029 96.9797 79.0357C97.6938 76.6747 99.5237 74.269 101.523 74.8225Z" fill="#FEE675"/>
<path d="M82.6341 96.2245H78.7378C78.5938 96.2172 78.4557 96.1645 78.3435 96.0739C78.2312 95.9833 78.1505 95.8595 78.113 95.7202L76.0867 87.4813C76.0662 87.4227 76.0604 87.3601 76.0698 87.2988C76.0791 87.2375 76.1033 87.1794 76.1403 87.1296C76.1773 87.0798 76.226 87.0399 76.282 87.0133C76.338 86.9867 76.3997 86.9742 76.4616 86.9769H80.3624C80.5065 86.9842 80.6445 87.037 80.7568 87.1276C80.869 87.2182 80.9497 87.342 80.9872 87.4813L83.0135 95.7157C83.0339 95.7749 83.0396 95.8381 83.03 95.9C83.0204 95.9618 82.9958 96.0203 82.9584 96.0705C82.921 96.1207 82.8719 96.1609 82.8154 96.1878C82.7589 96.2146 82.6966 96.2272 82.6341 96.2245V96.2245Z" fill="#263238"/>
<path d="M74.4582 91.4651L76.8326 90.4609L76.3104 95.0713C76.0856 95.1544 75.8542 95.2186 75.6187 95.2632C75.272 95.327 74.9147 95.2978 74.583 95.1786C74.2513 95.0594 73.9571 94.8545 73.7304 94.5846C73.5036 94.3148 73.3524 93.9897 73.2921 93.6425C73.2318 93.2952 73.2646 92.9382 73.3871 92.6077V92.6077C73.4796 92.355 73.6221 92.1235 73.8062 91.9272C73.9902 91.7308 74.212 91.5737 74.4582 91.4651Z" fill="#B55B52"/>
<path d="M78.9349 91.0634L78.4975 94.5759L76.3105 95.0669L76.8327 90.4609L78.9349 91.0634Z" fill="#B55B52"/>
<path d="M80.376 91.0868L81.7729 94.452L85.2542 94.1128L83.8037 90.0156L80.376 91.0868Z" fill="#B55B52"/>
</svg>
