<svg width="57" height="50" viewBox="0 0 57 50" fill="none" xmlns="http://www.w3.org/2000/svg">
<path d="M28.4651 49.9996C44.186 49.9996 56.9304 49.2555 56.9304 48.3377C56.9304 47.4198 44.186 46.6758 28.4651 46.6758C12.7441 46.6758 -0.000244141 47.4198 -0.000244141 48.3377C-0.000244141 49.2555 12.7441 49.9996 28.4651 49.9996Z" fill="#F5F5F5"/>
<path d="M39.3735 0.513672H21.1219C19.8416 0.513672 18.8037 1.55155 18.8037 2.83183V45.9577C18.8037 47.238 19.8416 48.2759 21.1219 48.2759H39.3735C40.6538 48.2759 41.6916 47.238 41.6916 45.9577V2.83183C41.6916 1.55155 40.6538 0.513672 39.3735 0.513672Z" fill="#86C3BB"/>
<path d="M41.495 8.66016H41.2865C41.0181 8.66016 40.8005 8.87772 40.8005 9.1461V16.2547C40.8005 16.5231 41.0181 16.7407 41.2865 16.7407H41.495C41.7633 16.7407 41.9809 16.5231 41.9809 16.2547V9.1461C41.9809 8.87772 41.7633 8.66016 41.495 8.66016Z" fill="#86C3BB"/>
<path d="M18.8506 10.2441H18.4924C18.2653 10.2441 18.0813 10.4282 18.0813 10.6552V13.0013C18.0813 13.2283 18.2653 13.4123 18.4924 13.4123H18.8506C19.0776 13.4123 19.2617 13.2283 19.2617 13.0013V10.6552C19.2617 10.4282 19.0776 10.2441 18.8506 10.2441Z" fill="#86C3BB"/>
<path d="M32.5279 0H28.7754V0.146812H32.5279V0Z" fill="#86C3BB"/>
<path d="M34.078 0H33.2617V0.146812H34.078V0Z" fill="#86C3BB"/>
<path d="M38.9873 0.513672H20.7356C19.4554 0.513672 18.4175 1.55155 18.4175 2.83183V45.9577C18.4175 47.238 19.4554 48.2759 20.7356 48.2759H38.9873C40.2675 48.2759 41.3054 47.238 41.3054 45.9577V2.83183C41.3054 1.55155 40.2675 0.513672 38.9873 0.513672Z" fill="#86C3BB"/>
<path d="M40.6374 3.23242H19.084C18.8351 3.23242 18.6333 3.43421 18.6333 3.68313V45.1838C18.6333 45.4328 18.8351 45.6346 19.084 45.6346H40.6374C40.8864 45.6346 41.0881 45.4328 41.0881 45.1838V3.68313C41.0881 3.43421 40.8864 3.23242 40.6374 3.23242Z" fill="white"/>
<path opacity="0.05" d="M36.0555 5.31836H22.43C21.2137 5.31836 20.2278 6.30431 20.2278 7.52053V27.3034C20.2278 28.5196 21.2137 29.5056 22.43 29.5056H36.0555C37.2718 29.5056 38.2577 28.5196 38.2577 27.3034V7.52053C38.2577 6.30431 37.2718 5.31836 36.0555 5.31836Z" fill="#86C3BB"/>
<path opacity="0.05" d="M31.9288 17.7637C31.7345 17.7637 31.5421 17.8019 31.3625 17.8763C31.183 17.9507 31.0198 18.0597 30.8824 18.1971C30.745 18.3345 30.636 18.4977 30.5616 18.6772C30.4872 18.8568 30.449 19.0492 30.449 19.2435V32.5432C30.4488 32.7377 30.4869 32.9303 30.5612 33.11C30.6355 33.2897 30.7445 33.453 30.8819 33.5906C31.0193 33.7281 31.1825 33.8373 31.3622 33.9117C31.5418 33.9862 31.7344 34.0245 31.9288 34.0245H41.0914V17.7637H31.9288Z" fill="#86C3BB"/>
<path d="M26.9664 1.91992H13.0868C12.9478 1.91973 12.81 1.94698 12.6815 2.0001C12.553 2.05323 12.4363 2.13119 12.3379 2.22952C12.2396 2.32785 12.1616 2.44462 12.1085 2.57313C12.0554 2.70164 12.0281 2.83937 12.0283 2.97843V10.1032C12.0283 10.2422 12.0557 10.3799 12.1089 10.5083C12.1621 10.6367 12.2401 10.7534 12.3384 10.8517C12.4366 10.95 12.5533 11.0279 12.6818 11.0811C12.8102 11.1343 12.9478 11.1617 13.0868 11.1617H22.8865L25.0109 12.2452V11.1602H26.9693C27.2493 11.1595 27.5176 11.0478 27.7154 10.8497C27.9132 10.6516 28.0245 10.3832 28.0249 10.1032V2.97843C28.0249 2.6977 27.9134 2.42846 27.7149 2.22995C27.5164 2.03144 27.2471 1.91992 26.9664 1.91992Z" fill="#263238"/>
<path d="M26.1736 4.61306H15.5077C15.3469 4.61306 15.1927 4.54917 15.079 4.43546C14.9652 4.32175 14.9014 4.16753 14.9014 4.00672C14.9014 3.84591 14.9652 3.69169 15.079 3.57798C15.1927 3.46427 15.3469 3.40039 15.5077 3.40039H26.1736C26.3344 3.40039 26.4886 3.46427 26.6023 3.57798C26.716 3.69169 26.7799 3.84591 26.7799 4.00672C26.7799 4.16753 26.716 4.32175 26.6023 4.43546C26.4886 4.54917 26.3344 4.61306 26.1736 4.61306ZM15.5077 3.5428C15.389 3.54947 15.2773 3.60134 15.1956 3.68775C15.1139 3.77415 15.0684 3.88855 15.0684 4.00746C15.0684 4.12636 15.1139 4.24076 15.1956 4.32717C15.2773 4.41357 15.389 4.46544 15.5077 4.47212H26.1736C26.2923 4.46544 26.4039 4.41357 26.4856 4.32717C26.5673 4.24076 26.6128 4.12636 26.6128 4.00746C26.6128 3.88855 26.5673 3.77415 26.4856 3.68775C26.4039 3.60134 26.2923 3.54947 26.1736 3.5428H15.5077Z" fill="white"/>
<path d="M26.1734 6.67306H18.8328C18.6801 6.66547 18.5361 6.59944 18.4306 6.48863C18.3252 6.37782 18.2664 6.23071 18.2664 6.07774C18.2664 5.92478 18.3252 5.77767 18.4306 5.66686C18.5361 5.55604 18.6801 5.49001 18.8328 5.48242H26.1734C26.3262 5.49001 26.4702 5.55604 26.5757 5.66686C26.6811 5.77767 26.7399 5.92478 26.7399 6.07774C26.7399 6.23071 26.6811 6.37782 26.5757 6.48863C26.4702 6.59944 26.3262 6.66547 26.1734 6.67306ZM18.8328 5.60281C18.7682 5.59921 18.7036 5.60883 18.6429 5.63108C18.5821 5.65332 18.5265 5.68773 18.4795 5.73218C18.4326 5.77664 18.3951 5.83021 18.3695 5.88963C18.3439 5.94904 18.3308 6.01305 18.3308 6.07774C18.3308 6.14243 18.3439 6.20644 18.3695 6.26586C18.3951 6.32528 18.4326 6.37885 18.4795 6.4233C18.5265 6.46776 18.5821 6.50216 18.6429 6.52441C18.7036 6.54665 18.7682 6.55627 18.8328 6.55268H26.1734C26.238 6.55627 26.3027 6.54665 26.3634 6.52441C26.4242 6.50216 26.4797 6.46776 26.5267 6.4233C26.5737 6.37885 26.6111 6.32528 26.6367 6.26586C26.6623 6.20644 26.6755 6.14243 26.6755 6.07774C26.6755 6.01305 26.6623 5.94904 26.6367 5.88963C26.6111 5.83021 26.5737 5.77664 26.5267 5.73218C26.4797 5.68773 26.4242 5.65332 26.3634 5.63108C26.3027 5.60883 26.238 5.59921 26.1734 5.60281H18.8328Z" fill="white"/>
<path d="M26.1736 8.72778H17.1608C17.0065 8.72015 16.8611 8.65348 16.7545 8.54157C16.648 8.42966 16.5886 8.28108 16.5886 8.12658C16.5886 7.97209 16.648 7.82351 16.7545 7.7116C16.8611 7.59969 17.0065 7.53302 17.1608 7.52539H26.1765C26.3308 7.53302 26.4763 7.59969 26.5828 7.7116C26.6893 7.82351 26.7487 7.97209 26.7487 8.12658C26.7487 8.28108 26.6893 8.42966 26.5828 8.54157C26.4763 8.65348 26.3308 8.72015 26.1765 8.72778H26.1736ZM17.1608 7.65752C17.097 7.65395 17.0332 7.66343 16.9732 7.68539C16.9131 7.70735 16.8582 7.74132 16.8118 7.78523C16.7654 7.82914 16.7284 7.88206 16.7031 7.94075C16.6778 7.99944 16.6648 8.06268 16.6648 8.12658C16.6648 8.19049 16.6778 8.25372 16.7031 8.31242C16.7284 8.37111 16.7654 8.42403 16.8118 8.46794C16.8582 8.51184 16.9131 8.54582 16.9732 8.56777C17.0332 8.58973 17.097 8.59922 17.1608 8.59565H26.1765C26.2403 8.59922 26.3042 8.58973 26.3642 8.56777C26.4242 8.54582 26.4791 8.51184 26.5256 8.46794C26.572 8.42403 26.609 8.37111 26.6343 8.31242C26.6595 8.25372 26.6726 8.19049 26.6726 8.12658C26.6726 8.06268 26.6595 7.99944 26.6343 7.94075C26.609 7.88206 26.572 7.82914 26.5256 7.78523C26.4791 7.74132 26.4242 7.70735 26.3642 7.68539C26.3042 7.66343 26.2403 7.65395 26.1765 7.65752H17.1608Z" fill="white"/>
<path d="M46.6199 8.57617H30.7084C30.4277 8.57617 30.1584 8.68769 29.9599 8.8862C29.7614 9.08471 29.6499 9.35395 29.6499 9.63468V13.7205C29.6499 13.8595 29.6773 13.9971 29.7305 14.1255C29.7837 14.254 29.8616 14.3706 29.9599 14.4689C30.0582 14.5672 30.1749 14.6452 30.3033 14.6984C30.4318 14.7516 30.5694 14.779 30.7084 14.779H32.6669V15.858L34.7898 14.7746H46.6199C46.9006 14.7746 47.1698 14.663 47.3683 14.4645C47.5668 14.266 47.6784 13.9968 47.6784 13.716V9.63468C47.6784 9.35395 47.5668 9.08471 47.3683 8.8862C47.1698 8.68769 46.9006 8.57617 46.6199 8.57617Z" fill="#FEE675"/>
<path d="M42.1894 11.2478H31.5236C31.3628 11.2478 31.2085 11.1839 31.0948 11.0702C30.9811 10.9565 30.9172 10.8023 30.9172 10.6415C30.9172 10.4807 30.9811 10.3265 31.0948 10.2127C31.2085 10.099 31.3628 10.0352 31.5236 10.0352H42.1894C42.3502 10.0352 42.5045 10.099 42.6182 10.2127C42.7319 10.3265 42.7958 10.4807 42.7958 10.6415C42.7958 10.8023 42.7319 10.9565 42.6182 11.0702C42.5045 11.1839 42.3502 11.2478 42.1894 11.2478ZM31.5236 10.1776C31.4005 10.1776 31.2825 10.2264 31.1955 10.3134C31.1085 10.4004 31.0596 10.5184 31.0596 10.6415C31.0596 10.7645 31.1085 10.8825 31.1955 10.9695C31.2825 11.0565 31.4005 11.1054 31.5236 11.1054H42.1894C42.3125 11.1054 42.4305 11.0565 42.5175 10.9695C42.6045 10.8825 42.6534 10.7645 42.6534 10.6415C42.6534 10.5184 42.6045 10.4004 42.5175 10.3134C42.4305 10.2264 42.3125 10.1776 42.1894 10.1776H31.5236Z" fill="white"/>
<path d="M38.8697 13.3064H31.5292C31.3715 13.3064 31.2202 13.2437 31.1087 13.1322C30.9972 13.0207 30.9346 12.8695 30.9346 12.7118C30.9346 12.5541 30.9972 12.4028 31.1087 12.2913C31.2202 12.1798 31.3715 12.1172 31.5292 12.1172H38.8697C39.0274 12.1172 39.1787 12.1798 39.2902 12.2913C39.4017 12.4028 39.4643 12.5541 39.4643 12.7118C39.4643 12.8695 39.4017 13.0207 39.2902 13.1322C39.1787 13.2437 39.0274 13.3064 38.8697 13.3064ZM31.5292 12.2361C31.403 12.2361 31.282 12.2862 31.1928 12.3754C31.1036 12.4646 31.0535 12.5856 31.0535 12.7118C31.0535 12.8379 31.1036 12.9589 31.1928 13.0481C31.282 13.1373 31.403 13.1874 31.5292 13.1874H38.8697C38.9959 13.1874 39.1169 13.1373 39.2061 13.0481C39.2953 12.9589 39.3454 12.8379 39.3454 12.7118C39.3454 12.5856 39.2953 12.4646 39.2061 12.3754C39.1169 12.2862 38.9959 12.2361 38.8697 12.2361H31.5292Z" fill="white"/>
<path d="M16.1259 37.0117H41.0913V39.6191H16.1333C15.9043 39.6191 15.6848 39.5281 15.5229 39.3663C15.361 39.2044 15.27 38.9848 15.27 38.7558V37.875C15.27 37.6473 15.36 37.4288 15.5203 37.2671C15.6806 37.1055 15.8983 37.0137 16.1259 37.0117Z" fill="#FEE675"/>
<path opacity="0.2" d="M16.1259 37.0117H41.0913V39.6191H16.1333C15.9043 39.6191 15.6848 39.5281 15.5229 39.3663C15.361 39.2044 15.27 38.9848 15.27 38.7558V37.875C15.27 37.6473 15.36 37.4288 15.5203 37.2671C15.6806 37.1055 15.8983 37.0137 16.1259 37.0117Z" fill="#263238"/>
<path opacity="0.3" d="M35.4463 37.0117H41.0912V39.6191H35.4463C35.2173 39.6191 34.9977 39.5281 34.8358 39.3663C34.674 39.2044 34.583 38.9848 34.583 38.7558V37.875C34.583 37.646 34.674 37.4264 34.8358 37.2646C34.9977 37.1027 35.2173 37.0117 35.4463 37.0117Z" fill="#263238"/>
<path opacity="0.3" d="M36.6633 39.623L40.0283 43.2654C40.4188 43.6897 41.0882 43.3888 41.0882 42.7898V39.623H36.6633Z" fill="#86C3BB"/>
<path opacity="0.3" d="M20.5652 39.623L23.9301 43.2654C24.3221 43.6897 24.9916 43.3888 24.9916 42.7898V39.623H20.5652Z" fill="#86C3BB"/>
<path d="M27.0896 26.7059C27.0676 26.9789 27.0353 27.2314 27.0001 27.4913C26.9649 27.7512 26.9267 28.0081 26.8812 28.265C26.7931 28.7803 26.6874 29.2927 26.5582 29.8036C26.4951 30.0576 26.4275 30.313 26.3497 30.567C26.3115 30.6947 26.2719 30.821 26.2279 30.9472C26.1879 31.083 26.1388 31.2159 26.0811 31.3451C26.0458 31.417 26.0091 31.4919 25.9607 31.5697C25.9048 31.6681 25.8378 31.7597 25.761 31.8428C25.6957 31.9122 25.6205 31.9715 25.5378 32.019C25.3979 32.0978 25.2357 32.1278 25.0769 32.1041C24.9445 32.0827 24.8212 32.0236 24.7216 31.9338C24.6653 31.8816 24.6159 31.8224 24.5748 31.7576C24.4854 31.6019 24.4266 31.4304 24.4015 31.2526C24.3807 31.1068 24.3713 30.9595 24.3736 30.8122L25.0695 30.6654C25.1312 30.7593 25.1884 30.8694 25.2545 30.959C25.3206 31.0485 25.3866 31.1352 25.4175 31.1366C25.4175 31.1366 25.4248 31.1263 25.4042 31.1014C25.3542 31.0517 25.2892 31.0197 25.2193 31.0104C25.1246 30.9949 25.0275 31.0098 24.9418 31.0529C24.8875 31.0808 24.8684 31.0985 24.8596 31.1014C24.8508 31.1043 24.8596 31.0838 24.8596 31.05L24.8875 30.9223C24.9051 30.8313 24.9345 30.7065 24.9668 30.5905C24.9991 30.4745 25.024 30.3541 25.0519 30.2352C25.1062 29.9959 25.1591 29.7566 25.1987 29.5144C25.2927 29.0299 25.3749 28.5395 25.4498 28.0462C25.5246 27.553 25.5966 27.0553 25.6524 26.5781L27.0896 26.7059Z" fill="#B55B52"/>
<path d="M25.823 25.2535C25.4898 25.7497 25.155 27.6729 25.155 27.6729L27.4952 28.7006C27.4952 28.7006 28.1529 25.5691 27.6288 24.9951C27.0885 24.3946 26.1974 24.6971 25.823 25.2535Z" fill="#FEE675"/>
<path opacity="0.2" d="M26.2839 26.5153C25.9653 26.8823 25.817 27.4652 25.7729 27.9364L27.5009 28.6998C27.6442 27.9952 27.7476 27.283 27.8107 26.5667C27.4275 26.1585 26.8285 25.8855 26.2839 26.5153Z" fill="black"/>
<path d="M15.0294 46.9656L13.8652 46.1787L15.4934 43.3496L16.6576 44.1365L15.0294 46.9656Z" fill="#B55B52"/>
<path d="M22.7266 48.1504L21.3789 47.6703L21.8502 44.4434L23.1979 44.9234L22.7266 48.1504Z" fill="#B55B52"/>
<path d="M21.304 47.4846L22.8822 47.5506C22.9094 47.5512 22.9354 47.5617 22.9554 47.58C22.9754 47.5984 22.988 47.6235 22.9909 47.6505L23.1186 48.8514C23.1207 48.883 23.1161 48.9148 23.1051 48.9446C23.0941 48.9743 23.077 49.0014 23.0548 49.0241C23.0327 49.0469 23.006 49.0646 22.9765 49.0764C22.947 49.0881 22.9154 49.0935 22.8837 49.0922C22.3331 49.0599 22.0689 49.0716 21.3759 49.0437C20.9487 49.0246 20.081 49.1318 19.4923 49.1068C18.9036 49.0819 18.8948 48.499 19.1429 48.4565C20.2528 48.2641 20.683 47.8575 21.0661 47.5624C21.1338 47.5093 21.218 47.4817 21.304 47.4846Z" fill="#263238"/>
<path d="M14.0236 45.7561L15.3244 46.6516C15.3478 46.667 15.3646 46.6907 15.3714 46.7179C15.3782 46.7451 15.3745 46.7739 15.3611 46.7985L14.8017 47.9289C14.7867 47.957 14.7659 47.9815 14.7407 48.0009C14.7155 48.0204 14.6865 48.0342 14.6556 48.0416C14.6246 48.0489 14.5924 48.0496 14.5612 48.0436C14.53 48.0376 14.5003 48.025 14.4743 48.0067C14.0339 47.6867 13.8724 47.5663 13.2998 47.1728C12.949 46.9306 12.1253 46.4314 11.6379 46.0967C11.1505 45.762 11.4823 45.2423 11.7143 45.3377C12.7552 45.7678 13.2984 45.7443 13.7799 45.6974C13.8654 45.6888 13.9514 45.7095 14.0236 45.7561Z" fill="#263238"/>
<g opacity="0.2">
<path d="M15.4919 43.3477L14.5347 45.014L15.7708 45.6761L16.6576 44.136L15.4919 43.3477Z" fill="black"/>
<path d="M23.198 44.9229L21.8488 44.4414L21.5654 46.3984L22.9425 46.6773L23.198 44.9229Z" fill="black"/>
</g>
<path d="M25.8672 25.8888C25.8833 26.9458 26.0947 29.0643 26.8949 33.3043L32.6014 33.1574C32.4458 30.8378 32.4062 29.4049 33.3942 24.6101C32.5906 24.4658 31.7776 24.3799 30.9615 24.3532C30.0968 24.3134 29.2304 24.3355 28.3688 24.4192C27.8491 24.4809 27.2956 24.5763 26.8552 24.6615C26.5727 24.7176 26.3189 24.8713 26.1382 25.0956C25.9576 25.32 25.8617 25.6008 25.8672 25.8888Z" fill="#FEE675"/>
<path opacity="0.2" d="M33.2458 25.3516C32.7448 25.57 32.34 25.9628 32.1066 26.4571C31.8306 27.0869 32.522 28.3818 32.6865 28.6724C32.798 27.7769 32.9772 26.711 33.2458 25.3516Z" fill="black"/>
<path d="M29.1654 18.3826C28.5973 19.0182 28.0834 21.7108 29.8466 22.9337C29.7703 24.0568 32.4613 23.3169 32.7829 21.9442C33.0853 20.6758 30.8714 16.4725 29.1654 18.3826Z" fill="#263238"/>
<path d="M31.4354 23.1567C31.4252 23.1567 31.4153 23.1528 31.4079 23.1457C31.4005 23.1385 31.3962 23.1288 31.3958 23.1186C31.3954 23.1079 31.3991 23.0975 31.4063 23.0896C31.4134 23.0816 31.4233 23.0767 31.434 23.076C32.4704 23.029 32.811 22.4623 32.9138 21.9955C33.1531 20.9091 32.3809 19.4703 31.5808 19.0592C31.5761 19.0568 31.572 19.0534 31.5686 19.0493C31.5653 19.0452 31.5628 19.0405 31.5613 19.0355C31.5598 19.0304 31.5593 19.0251 31.5599 19.0198C31.5604 19.0146 31.562 19.0095 31.5646 19.0049C31.5696 18.9959 31.5779 18.9891 31.5878 18.9861C31.5976 18.9831 31.6083 18.984 31.6175 18.9888C32.4426 19.4174 33.2324 20.8973 32.9916 22.0175C32.883 22.5108 32.5248 23.1112 31.4369 23.1597L31.4354 23.1567Z" fill="#263238"/>
<path d="M31.6951 23.3456C31.5359 23.3448 31.3769 23.3325 31.2194 23.3089C31.2138 23.3088 31.2083 23.3074 31.2033 23.305C31.1982 23.3025 31.1937 23.299 31.1901 23.2947C31.1865 23.2904 31.1839 23.2854 31.1824 23.28C31.1809 23.2746 31.1805 23.2689 31.1814 23.2634C31.1822 23.2578 31.1842 23.2525 31.1872 23.2478C31.1903 23.2431 31.1943 23.2391 31.199 23.236C31.2037 23.233 31.209 23.231 31.2146 23.2301C31.2201 23.2293 31.2258 23.2296 31.2312 23.2311C32.2823 23.3779 32.968 23.0329 33.1632 22.2533C33.4436 21.1244 32.6053 19.4199 31.5894 19.0514C31.5837 19.0504 31.5782 19.0482 31.5735 19.0449C31.5687 19.0416 31.5647 19.0373 31.5618 19.0323C31.5588 19.0273 31.557 19.0217 31.5565 19.0159C31.556 19.0102 31.5567 19.0043 31.5587 18.9989C31.5607 18.9934 31.5638 18.9885 31.5679 18.9843C31.572 18.9802 31.5769 18.9771 31.5824 18.9751C31.5878 18.9731 31.5936 18.9723 31.5994 18.9728C31.6052 18.9733 31.6108 18.9751 31.6158 18.978C32.6846 19.3641 33.5347 21.0891 33.2396 22.2724C33.1309 22.6982 32.7903 23.3456 31.6951 23.3456Z" fill="#263238"/>
<path d="M30.64 21.7559C30.4932 22.5942 30.367 23.8112 30.9645 24.3544C30.9645 24.3544 29.8032 24.9916 28.5817 27.0117C27.5174 25.3513 28.3718 24.4205 28.3718 24.4205C29.2967 24.1753 29.2629 23.798 29.0838 23.155L30.64 21.7559Z" fill="#B55B52"/>
<path d="M29.176 25.4383C29.1525 25.5313 29.1016 25.6151 29.0299 25.6787C28.9581 25.7424 28.8688 25.7829 28.7737 25.7951C28.6034 25.7951 28.5065 25.6483 28.5594 25.4486C28.5822 25.3553 28.633 25.2712 28.7048 25.2075C28.7767 25.1437 28.8663 25.1034 28.9616 25.0918C29.1319 25.0889 29.2274 25.2431 29.176 25.4383Z" fill="white"/>
<path d="M29.0531 25.2538C29.0483 25.2538 29.0436 25.2528 29.0393 25.251C29.0349 25.2491 29.0309 25.2464 29.0276 25.243C29.0243 25.2395 29.0218 25.2355 29.0201 25.231C29.0184 25.2266 29.0177 25.2218 29.0179 25.2171C29.0179 25.2074 29.0217 25.198 29.0286 25.1911C29.0355 25.1842 29.0448 25.1804 29.0546 25.1804C29.0869 25.1804 29.956 25.1701 30.9455 24.3274C30.9492 24.3242 30.9534 24.3218 30.958 24.3203C30.9626 24.3187 30.9675 24.3181 30.9723 24.3185C30.9772 24.3188 30.9819 24.3201 30.9862 24.3222C30.9906 24.3244 30.9944 24.3274 30.9976 24.3311C31.0008 24.3347 31.0032 24.339 31.0048 24.3436C31.0063 24.3482 31.0069 24.3531 31.0066 24.3579C31.0062 24.3627 31.0049 24.3675 31.0028 24.3718C31.0006 24.3761 30.9976 24.38 30.9939 24.3832C29.9912 25.2332 29.1324 25.2538 29.0531 25.2538Z" fill="white"/>
<path d="M28.8681 25.2392C28.8681 25.2392 28.3411 25.1482 28.3411 24.4215C28.3411 24.4117 28.3449 24.4024 28.3518 24.3955C28.3587 24.3886 28.368 24.3848 28.3778 24.3848C28.3875 24.3848 28.3968 24.3886 28.4037 24.3955C28.4106 24.4024 28.4145 24.4117 28.4145 24.4215C28.4145 25.0836 28.8549 25.1555 28.8799 25.1658C28.8894 25.1676 28.8978 25.1731 28.9033 25.181C28.9088 25.189 28.9109 25.1988 28.9092 25.2084C28.9078 25.2179 28.9027 25.2264 28.895 25.2322C28.8873 25.238 28.8776 25.2405 28.8681 25.2392Z" fill="white"/>
<path opacity="0.2" d="M30.0057 22.3262L29.0852 23.1527C29.1286 23.3025 29.1591 23.4558 29.1762 23.6108C29.53 23.5506 30.0821 23.2335 30.1481 22.8459C30.179 22.6624 30.038 22.4113 30.0057 22.3262Z" fill="black"/>
<path d="M26.8815 17.972C26.309 18.6121 25.5881 20.8319 27.3631 22.0563C27.2867 23.1868 29.9 22.2912 30.3683 20.9494C30.8366 19.6075 28.5992 16.0488 26.8815 17.972Z" fill="#263238"/>
<path d="M30.7894 19.5884C31.0185 20.964 31.1462 21.541 30.6206 22.3954C29.8308 23.6815 28.0911 23.6609 27.4554 22.3822C26.8828 21.2297 26.6039 19.1729 27.8077 18.3273C28.0727 18.1411 28.3806 18.0255 28.7026 17.9912C29.0246 17.9569 29.35 18.0051 29.6482 18.1312C29.9464 18.2574 30.2076 18.4573 30.4073 18.7122C30.6069 18.9671 30.7384 19.2686 30.7894 19.5884Z" fill="#B55B52"/>
<path d="M27.5023 18.1592C27.586 18.8933 29.0321 20.7813 30.8378 20.3423C31.5205 21.0397 32.4425 18.8463 31.8494 17.776C31.2563 16.7058 27.2512 15.9512 27.5023 18.1592Z" fill="#263238"/>
<path d="M26.8961 33.3059C24.1214 33.1209 18.4163 33.8242 17.5354 36.5358C16.2141 40.6201 14.6726 44.1068 14.6726 44.1068L16.4549 44.9598C16.4549 44.9598 19.883 40.7992 20.9371 38.0876C22.9924 38.3166 25.7172 37.6765 26.5379 37.5752C29.5505 37.2067 30.7852 35.257 31.0744 33.1973L26.8961 33.3059Z" fill="#263238"/>
<path opacity="0.2" d="M24.5956 34.6783C22.367 34.6446 19.6642 36.0569 19.9681 40.0105C20.3406 39.3961 20.6646 38.7536 20.937 38.0888C21.6334 38.1527 22.3342 38.1527 23.0306 38.0888C23.7338 36.5311 25.1315 34.6871 24.5956 34.6783Z" fill="black"/>
<path d="M16.3213 45.4038L14.3452 44.3702L14.5287 43.6641L16.7823 44.7446L16.3213 45.4038Z" fill="#FEE675"/>
<path opacity="0.4" d="M16.3213 45.4038L14.3452 44.3702L14.5287 43.6641L16.7823 44.7446L16.3213 45.4038Z" fill="black"/>
<path d="M28.4025 33.2668C28.4025 33.2668 21.4407 34.8451 21.4627 36.9239C21.5112 41.3694 21.4231 45.6666 21.4231 45.6666L23.3272 46.0439C23.3272 46.0439 24.9143 41.0112 24.9275 38.3172C27.9019 37.2043 33.7362 39.7266 32.6072 33.1582L28.4025 33.2668Z" fill="#263238"/>
<path d="M23.5167 46.3552L21.178 45.9236L21.0649 45.1426L23.8382 45.5272L23.5167 46.3552Z" fill="#FEE675"/>
<path opacity="0.4" d="M23.5167 46.3552L21.178 45.9236L21.0649 45.1426L23.8382 45.5272L23.5167 46.3552Z" fill="black"/>
<path d="M28.7096 20.4479C28.7346 20.558 28.6964 20.6608 28.6245 20.6769C28.5525 20.6931 28.4777 20.6182 28.4483 20.5081C28.4189 20.398 28.46 20.2937 28.532 20.2776C28.6039 20.2614 28.6847 20.3363 28.7096 20.4479Z" fill="#263238"/>
<path d="M27.46 20.733C27.4864 20.8431 27.4483 20.9459 27.3763 20.9621C27.3044 20.9782 27.2295 20.9033 27.1987 20.7932C27.1679 20.6831 27.2119 20.5789 27.2838 20.5627C27.3558 20.5466 27.438 20.6215 27.46 20.733Z" fill="#263238"/>
<path d="M27.3161 20.5616L27.0342 20.5469C27.0342 20.5469 27.2177 20.7216 27.3161 20.5616Z" fill="#263238"/>
<path d="M27.8916 20.8477C27.8513 21.1223 27.7732 21.3901 27.6597 21.6434C27.7253 21.6707 27.7961 21.6833 27.8672 21.6802C27.9382 21.6772 28.0077 21.6586 28.0707 21.6258L27.8916 20.8477Z" fill="#A02724"/>
<path d="M28.7722 21.9193C28.7202 21.9396 28.6667 21.9558 28.6122 21.9678C28.6079 21.9689 28.6035 21.9691 28.5992 21.9684C28.5948 21.9677 28.5907 21.9662 28.587 21.9638C28.5833 21.9615 28.5801 21.9584 28.5776 21.9548C28.5751 21.9512 28.5734 21.9471 28.5725 21.9428C28.5715 21.9386 28.5712 21.9342 28.5719 21.9298C28.5726 21.9255 28.5742 21.9214 28.5765 21.9177C28.5788 21.9139 28.5819 21.9108 28.5855 21.9083C28.5891 21.9058 28.5932 21.9041 28.5975 21.9032C28.7356 21.8747 28.8651 21.8139 28.9753 21.7259C29.0855 21.6379 29.1734 21.5251 29.2317 21.3967C29.2353 21.3889 29.2416 21.3828 29.2495 21.3795C29.2574 21.3763 29.2662 21.3761 29.2742 21.3791C29.2822 21.382 29.2888 21.3879 29.2926 21.3956C29.2964 21.4032 29.2972 21.412 29.2948 21.4202C29.2452 21.5339 29.1734 21.6366 29.0837 21.7223C28.994 21.808 28.8881 21.875 28.7722 21.9193Z" fill="#263238"/>
<path d="M31.3281 20.65C31.2863 20.9166 31.1412 21.156 30.9244 21.3165C30.6308 21.5265 30.3665 21.2975 30.3445 20.9598C30.3224 20.6559 30.4487 20.1802 30.7849 20.1039C30.8599 20.0878 30.9376 20.0909 31.0111 20.1127C31.0846 20.1345 31.1514 20.1744 31.2055 20.2288C31.2595 20.2831 31.2991 20.3502 31.3205 20.4238C31.3419 20.4974 31.3445 20.5752 31.3281 20.65Z" fill="#B55B52"/>
<path d="M28.8971 19.9688C28.8835 19.9717 28.8693 19.9707 28.8563 19.9657C28.8432 19.9608 28.8319 19.9521 28.8237 19.9409C28.6563 19.6825 28.2599 19.6649 28.2555 19.6649C28.2379 19.6641 28.2212 19.6564 28.2092 19.6435C28.1971 19.6306 28.1905 19.6135 28.1909 19.5959C28.1917 19.5782 28.1994 19.5616 28.2123 19.5495C28.2252 19.5374 28.2423 19.5309 28.2599 19.5313C28.279 19.5313 28.7297 19.5518 28.9353 19.8675C28.9402 19.8748 28.9436 19.883 28.9453 19.8916C28.947 19.9002 28.947 19.9091 28.9452 19.9177C28.9434 19.9263 28.9399 19.9345 28.9349 19.9418C28.93 19.949 28.9236 19.9552 28.9162 19.96L28.8971 19.9688Z" fill="#263238"/>
<path d="M26.8009 20.2382C26.7873 20.2444 26.7719 20.2458 26.7574 20.2421C26.7428 20.2385 26.73 20.2299 26.7209 20.218C26.7119 20.206 26.7071 20.1913 26.7075 20.1763C26.7079 20.1613 26.7134 20.1469 26.7231 20.1355C26.7853 20.0501 26.8672 19.9811 26.9617 19.934C27.0563 19.887 27.1607 19.8635 27.2663 19.8653C27.275 19.8659 27.2835 19.8682 27.2913 19.872C27.2991 19.8759 27.3061 19.8812 27.3118 19.8878C27.3175 19.8943 27.3219 19.9019 27.3247 19.9102C27.3274 19.9184 27.3286 19.9271 27.328 19.9358C27.3274 19.9445 27.3251 19.953 27.3213 19.9608C27.3174 19.9686 27.3121 19.9755 27.3055 19.9813C27.299 19.987 27.2914 19.9914 27.2831 19.9942C27.2749 19.9969 27.2662 19.9981 27.2575 19.9975C27.1738 19.9974 27.0913 20.0172 27.0168 20.0552C26.9423 20.0932 26.8779 20.1484 26.8288 20.2162C26.8217 20.226 26.8121 20.2336 26.8009 20.2382Z" fill="#263238"/>
<path d="M20.5612 47.6362C20.5566 47.633 20.5526 47.629 20.5495 47.6244C20.5268 47.6015 20.5105 47.5731 20.502 47.5419C20.4935 47.5108 20.4932 47.4781 20.501 47.4468C20.5035 47.4267 20.5114 47.4076 20.5238 47.3916C20.5362 47.3756 20.5527 47.3632 20.5715 47.3558C20.7374 47.2882 21.1587 47.5818 21.1998 47.6141C21.2053 47.618 21.2094 47.6235 21.2118 47.6298C21.2142 47.636 21.2146 47.6429 21.213 47.6494C21.2115 47.6556 21.2082 47.6613 21.2035 47.6657C21.1988 47.6701 21.1929 47.6731 21.1866 47.6743C21.009 47.7169 20.6963 47.7477 20.5612 47.6362ZM21.0941 47.623C20.9253 47.5114 20.6845 47.3822 20.5964 47.4174C20.588 47.4206 20.5808 47.4262 20.5755 47.4335C20.5703 47.4408 20.5674 47.4495 20.5671 47.4585C20.5609 47.4792 20.5603 47.5011 20.5655 47.522C20.5707 47.5429 20.5813 47.5621 20.5964 47.5774C20.664 47.6479 20.8475 47.6611 21.0941 47.623Z" fill="#263238"/>
<path d="M21.1249 47.638C20.9913 47.5264 20.7975 47.2577 20.8313 47.1168C20.8376 47.0911 20.8526 47.0683 20.8737 47.0523C20.8948 47.0362 20.9208 47.0279 20.9473 47.0287C20.9739 47.0254 21.001 47.0282 21.0264 47.0368C21.0518 47.0454 21.075 47.0597 21.0941 47.0786C21.2409 47.2254 21.2262 47.6248 21.2247 47.6424C21.2246 47.6482 21.2229 47.6538 21.2198 47.6587C21.2167 47.6637 21.2123 47.6676 21.2071 47.6703C21.2022 47.6731 21.1966 47.6746 21.191 47.6746C21.1853 47.6746 21.1797 47.6731 21.1748 47.6703C21.1573 47.661 21.1406 47.6502 21.1249 47.638ZM21.0324 47.1197C21.0103 47.1014 20.9818 47.0924 20.9531 47.0948C20.9106 47.0948 20.9003 47.1168 20.8959 47.1329C20.8739 47.2284 21.0236 47.4618 21.1528 47.5734C21.1528 47.4383 21.1278 47.2093 21.0397 47.1256L21.0324 47.1197Z" fill="#263238"/>
<path d="M13.4497 45.6603C13.344 45.6011 13.2621 45.5073 13.2177 45.3946C13.2105 45.3654 13.2106 45.3348 13.2181 45.3056C13.2255 45.2764 13.24 45.2495 13.2603 45.2272C13.2716 45.2127 13.2865 45.2014 13.3034 45.1942C13.3204 45.187 13.3389 45.1842 13.3572 45.1861C13.5524 45.2067 13.8505 45.7602 13.8842 45.8233C13.8881 45.8289 13.8901 45.8356 13.8901 45.8424C13.8901 45.8492 13.8881 45.8559 13.8842 45.8615C13.8794 45.8665 13.8731 45.8699 13.8663 45.8712C13.8595 45.8725 13.8524 45.8717 13.8461 45.8688C13.7078 45.8116 13.5751 45.7418 13.4497 45.6603ZM13.4071 45.2786C13.3906 45.265 13.3709 45.2559 13.3498 45.2522C13.3425 45.2513 13.335 45.2524 13.3282 45.2555C13.3215 45.2587 13.3157 45.2636 13.3117 45.2698C13.298 45.2843 13.2882 45.302 13.2831 45.3212C13.278 45.3404 13.2777 45.3606 13.2823 45.3799C13.3087 45.4915 13.4922 45.6324 13.777 45.7675C13.6831 45.5847 13.5579 45.4197 13.4071 45.2801V45.2786Z" fill="#263238"/>
<path d="M13.8357 45.8668C13.8357 45.8668 13.8357 45.8668 13.8269 45.8565C13.7315 45.6995 13.6302 45.2693 13.7418 45.1445C13.7682 45.1181 13.8167 45.0946 13.8989 45.1445C13.9275 45.1598 13.9528 45.1806 13.9732 45.2058C13.9937 45.2311 14.0088 45.2601 14.0178 45.2913C14.0794 45.5115 13.8915 45.8419 13.8842 45.8565C13.8811 45.8616 13.8768 45.8657 13.8717 45.8685C13.8665 45.8714 13.8607 45.8728 13.8548 45.8727C13.848 45.8728 13.8413 45.8708 13.8357 45.8668ZM13.8842 45.2076L13.8666 45.1974C13.8123 45.168 13.7961 45.1856 13.7902 45.1974C13.7227 45.2664 13.7726 45.5908 13.8548 45.7729C13.9351 45.6344 13.9695 45.474 13.9532 45.3148C13.9446 45.2716 13.92 45.2333 13.8842 45.2076Z" fill="#263238"/>
<path d="M28.5656 20.2744L28.2822 20.2598C28.2822 20.2598 28.4657 20.4345 28.5656 20.2744Z" fill="#263238"/>
<path d="M32.6791 32.8223L32.8391 33.3302C32.8597 33.3684 32.8141 33.411 32.7481 33.4124L26.8756 33.5593C26.8242 33.5593 26.7816 33.5358 26.7772 33.5035L26.7126 32.994C26.7126 32.9588 26.7523 32.928 26.8081 32.9265L32.5866 32.7797C32.6044 32.7781 32.6222 32.7812 32.6385 32.7887C32.6547 32.7962 32.6687 32.8077 32.6791 32.8223Z" fill="white"/>
<path d="M31.9007 33.4905H32.0563C32.0872 33.4905 32.1092 33.4729 32.1062 33.4538L32.0167 32.7917C32.0167 32.7726 31.9873 32.7564 31.9565 32.7579H31.8097C31.7789 32.7579 31.7554 32.7755 31.7583 32.7946L31.8479 33.4553C31.842 33.4758 31.8699 33.4905 31.9007 33.4905Z" fill="#263238"/>
<path d="M27.3104 33.6056H27.466C27.4968 33.6056 27.5203 33.588 27.5174 33.5689L27.4278 32.9068C27.4278 32.8877 27.397 32.873 27.3662 32.873H27.2194C27.1885 32.873 27.165 32.8907 27.168 32.9097L27.2575 33.5719C27.2531 33.591 27.2795 33.6056 27.3104 33.6056Z" fill="#263238"/>
<path d="M29.5958 33.549H29.7514C29.7822 33.549 29.8043 33.5314 29.8028 33.5123L29.7132 32.8502C29.7132 32.8311 29.6824 32.8164 29.6516 32.8164H29.4974C29.4666 32.8164 29.4431 32.834 29.446 32.8531L29.5356 33.5152C29.5385 33.5343 29.565 33.549 29.5958 33.549Z" fill="#263238"/>
<path d="M28.9878 30.1467L27.5667 29.6094L28.0438 30.9571C28.0438 30.9571 28.9335 31.1039 29.2902 30.6415L28.9878 30.1467Z" fill="#B55B52"/>
<path d="M33.981 26.5469C34.0412 26.7509 34.0808 26.9242 34.119 27.1136C34.1571 27.303 34.1909 27.4865 34.2173 27.6744C34.2738 28.0569 34.3013 28.4431 34.2995 28.8298C34.3027 29.242 34.2534 29.653 34.1527 30.0527C34.1235 30.1608 34.0882 30.2672 34.047 30.3713C33.9974 30.5097 33.9297 30.641 33.8459 30.7618C33.6709 30.9967 33.4347 31.179 33.1632 31.2889C32.9497 31.3759 32.7256 31.4342 32.4967 31.4621C32.2939 31.49 32.0892 31.5023 31.8845 31.4988C31.5025 31.4916 31.1217 31.4553 30.7452 31.3902C30.0181 31.2658 29.304 31.0746 28.6121 30.8191L28.8029 30.1335C29.4834 30.2455 30.1696 30.32 30.8583 30.3566C31.1876 30.3737 31.5176 30.3693 31.8463 30.3434C32.1223 30.3295 32.3935 30.2653 32.6464 30.154C32.7067 30.128 32.7578 30.0845 32.7933 30.0292C32.8218 29.9367 32.8449 29.8426 32.8623 29.7474C32.9087 29.4522 32.922 29.1528 32.9019 28.8548C32.8843 28.5315 32.8491 28.2095 32.7962 27.8902C32.7698 27.7272 32.7419 27.5643 32.7096 27.4028C32.6773 27.2413 32.6376 27.071 32.6053 26.9315L33.981 26.5469Z" fill="#B55B52"/>
<path d="M33.3954 24.6123C33.9709 24.7709 34.4143 27.1081 34.4143 27.1081L32.2342 28.1901C32.2342 28.1901 31.6807 26.7441 31.9009 25.9982C32.1358 25.2216 32.7377 24.4303 33.3954 24.6123Z" fill="#FEE675"/>
<path d="M27.182 31.6514H25.9003C25.8529 31.649 25.8075 31.6317 25.7706 31.6019C25.7337 31.5721 25.7071 31.5314 25.6948 31.4855L25.0282 28.7754C25.0215 28.7561 25.0196 28.7355 25.0227 28.7154C25.0257 28.6952 25.0337 28.6761 25.0459 28.6597C25.0581 28.6433 25.074 28.6302 25.0925 28.6215C25.1109 28.6127 25.1312 28.6086 25.1516 28.6095H26.4347C26.4821 28.6119 26.5275 28.6292 26.5644 28.659C26.6014 28.6888 26.6279 28.7296 26.6402 28.7754L27.3068 31.4841C27.3135 31.5035 27.3153 31.5243 27.3122 31.5447C27.309 31.565 27.301 31.5843 27.2886 31.6008C27.2763 31.6173 27.2602 31.6305 27.2416 31.6393C27.223 31.6482 27.2025 31.6523 27.182 31.6514Z" fill="#263238"/>
<path d="M24.4926 30.0862L25.2737 29.7559L25.1019 31.2724C25.0279 31.2998 24.9518 31.3209 24.8743 31.3355C24.7603 31.3565 24.6428 31.3469 24.5337 31.3077C24.4246 31.2685 24.3278 31.2011 24.2532 31.1123C24.1786 31.0236 24.1289 30.9166 24.109 30.8024C24.0892 30.6882 24.1 30.5707 24.1403 30.462C24.1707 30.3789 24.2176 30.3027 24.2781 30.2382C24.3387 30.1736 24.4116 30.1219 24.4926 30.0862Z" fill="#B55B52"/>
<path d="M25.9651 29.9541L25.8212 31.1095L25.1018 31.271L25.2736 29.7559L25.9651 29.9541Z" fill="#B55B52"/>
<path d="M26.4392 29.9617L26.8987 31.0687L28.0439 30.9571L27.5667 29.6094L26.4392 29.9617Z" fill="#B55B52"/>
</svg>
