<svg width="60" height="50" viewBox="0 0 60 50" fill="none" xmlns="http://www.w3.org/2000/svg">
<path d="M29.9979 49.9991C46.5652 49.9991 59.9957 49.2145 59.9957 48.2466C59.9957 47.2788 46.5652 46.4941 29.9979 46.4941C13.4305 46.4941 0 47.2788 0 48.2466C0 49.2145 13.4305 49.9991 29.9979 49.9991Z" fill="#F5F5F5"/>
<path d="M31.6089 40.3896H11.8718C11.5544 40.3851 11.2504 40.2607 11.0209 40.0413C10.7913 39.8219 10.6532 39.5238 10.6341 39.2068L8.86411 4.90787C8.85429 4.7553 8.87608 4.60236 8.92811 4.45861C8.98013 4.31487 9.06127 4.18343 9.16643 4.07253C9.27159 3.96163 9.39852 3.87366 9.53925 3.81414C9.67998 3.75462 9.83148 3.72483 9.98425 3.72664H29.7214C30.0386 3.73075 30.3425 3.85483 30.5721 4.07394C30.8017 4.29305 30.94 4.59097 30.9591 4.90787L32.7259 39.2068C32.7357 39.3592 32.714 39.5119 32.6622 39.6555C32.6104 39.7992 32.5295 39.9305 32.4247 40.0415C32.3199 40.1525 32.1934 40.2407 32.053 40.3005C31.9127 40.3604 31.7615 40.3907 31.6089 40.3896Z" fill="#56ABA1"/>
<path opacity="0.8" d="M31.6089 40.3896H11.8718C11.5544 40.3851 11.2504 40.2607 11.0209 40.0413C10.7913 39.8219 10.6532 39.5238 10.6341 39.2068L8.86411 4.90787C8.85429 4.7553 8.87608 4.60236 8.92811 4.45861C8.98013 4.31487 9.06127 4.18343 9.16643 4.07253C9.27159 3.96163 9.39852 3.87366 9.53925 3.81414C9.67998 3.75462 9.83148 3.72483 9.98425 3.72664H29.7214C30.0386 3.73075 30.3425 3.85483 30.5721 4.07394C30.8017 4.29305 30.94 4.59097 30.9591 4.90787L32.7259 39.2068C32.7357 39.3592 32.714 39.5119 32.6622 39.6555C32.6104 39.7992 32.5295 39.9305 32.4247 40.0415C32.3199 40.1525 32.1934 40.2407 32.053 40.3005C31.9127 40.3604 31.7615 40.3907 31.6089 40.3896Z" fill="white"/>
<path d="M27.7729 2.60938H25.5898V2.76419H27.7729V2.60938Z" fill="#FEE675"/>
<path d="M24.8341 2.60938H24.0342V2.76419H24.8341V2.60938Z" fill="#FEE675"/>
<path d="M32.4584 38.2142H13.583C13.2791 38.2112 12.9875 38.0932 12.767 37.8838C12.5466 37.6744 12.4136 37.3892 12.3948 37.0856L10.7053 4.28061C10.6959 4.1346 10.7168 3.98823 10.7666 3.85067C10.8164 3.71311 10.8941 3.58733 10.9947 3.48122C11.0954 3.37511 11.2169 3.29096 11.3516 3.23405C11.4863 3.17713 11.6313 3.14868 11.7775 3.15047H30.6528C30.9568 3.15383 31.2482 3.27227 31.4683 3.48196C31.6885 3.69165 31.8211 3.97701 31.8395 4.28061L33.529 37.0856C33.5384 37.2314 33.5176 37.3776 33.4678 37.5149C33.4181 37.6523 33.3406 37.7779 33.24 37.8839C33.1395 37.9898 33.0182 38.0739 32.8837 38.1307C32.7492 38.1876 32.6044 38.216 32.4584 38.2142Z" fill="#B7DBD7"/>
<path d="M32.4579 37.4607H13.5825C13.4719 37.4569 13.3664 37.4126 13.2863 37.3361C13.2061 37.2596 13.1568 37.1563 13.1478 37.0458L11.4568 4.24239C11.4529 4.19876 11.4584 4.1548 11.4728 4.11344C11.4872 4.07208 11.5102 4.03424 11.5403 4.00243C11.5705 3.97069 11.607 3.94573 11.6476 3.92918C11.6881 3.91264 11.7317 3.90489 11.7755 3.90645H30.6508C30.7612 3.91062 30.8663 3.95515 30.9461 4.03161C31.0259 4.10806 31.075 4.21114 31.084 4.32135L32.7828 37.1248C32.7865 37.1683 32.781 37.212 32.7666 37.2532C32.7523 37.2944 32.7294 37.3321 32.6994 37.3638C32.6695 37.3956 32.6332 37.4206 32.5929 37.4373C32.5526 37.454 32.5092 37.462 32.4656 37.4607H32.4579ZM11.7755 3.94515C11.737 3.94391 11.6987 3.9507 11.663 3.96509C11.6273 3.97948 11.595 4.00116 11.5681 4.02875C11.5423 4.05734 11.5226 4.09088 11.5101 4.12733C11.4976 4.16379 11.4926 4.20241 11.4954 4.24084L13.1849 37.0443C13.1935 37.1447 13.2386 37.2386 13.3115 37.3082C13.3844 37.3777 13.4803 37.4182 13.581 37.422H32.4563C32.4946 37.4235 32.5328 37.4169 32.5682 37.4024C32.6037 37.388 32.6357 37.3662 32.6621 37.3384C32.6886 37.3102 32.7087 37.2768 32.7213 37.2402C32.7338 37.2036 32.7384 37.1648 32.7348 37.1263L31.0469 4.32289C31.0386 4.22256 30.9939 4.12872 30.9212 4.05912C30.8485 3.98952 30.7529 3.94897 30.6524 3.94515H11.7755Z" fill="white"/>
<path opacity="0.3" d="M25.8558 15.8606C28.0026 13.6561 27.8628 10.0357 25.5435 7.77413C23.2242 5.51254 19.6037 5.4662 17.4568 7.67063C15.31 9.87506 15.4498 13.4955 17.7691 15.7571C20.0884 18.0187 23.7089 18.065 25.8558 15.8606Z" fill="white"/>
<path d="M26.2854 11.7667C26.3287 12.5275 26.1758 13.2866 25.8414 13.9713C25.4794 14.7056 24.9174 15.3226 24.2202 15.7512C23.523 16.1799 22.719 16.4027 21.9008 16.3941C21.0528 16.3864 20.2213 16.1593 19.4871 15.7347C18.7529 15.3101 18.141 14.7026 17.7111 13.9713C17.3104 13.3025 17.0798 12.5455 17.0396 11.7667C17.0015 11.1695 17.0869 10.5708 17.2906 10.0081C17.4943 9.44547 17.8119 8.93093 18.2235 8.49672C18.6351 8.06251 19.1318 7.71797 19.6825 7.48468C20.2333 7.25138 20.8262 7.13434 21.4243 7.14089C22.669 7.15387 23.8625 7.63831 24.7645 8.49665C25.6665 9.35499 26.21 10.5235 26.2854 11.7667Z" fill="white"/>
<path d="M25.8369 13.9729C25.4748 14.7073 24.9129 15.3243 24.2157 15.7529C23.5185 16.1816 22.7145 16.4044 21.8962 16.3958C21.0483 16.3881 20.2168 16.161 19.4826 15.7364C18.7484 15.3118 18.1365 14.7043 17.7065 13.9729C18.8823 13.1605 20.2787 12.7282 21.7075 12.7344C23.1745 12.74 24.6087 13.1701 25.8369 13.9729Z" fill="#FEE675"/>
<path d="M23.0898 11.6583C23.8632 10.8641 23.8126 9.5595 22.9767 8.74437C22.1407 7.92924 20.8361 7.91228 20.0626 8.70649C19.2891 9.5007 19.3398 10.8053 20.1757 11.6204C21.0116 12.4356 22.3163 12.4525 23.0898 11.6583Z" fill="#FEE675"/>
<path d="M29.7528 25.4507H14.9728C14.844 25.4494 14.7206 25.3993 14.6273 25.3106C14.534 25.2218 14.4777 25.101 14.4699 24.9724L14.3585 22.805C14.3547 22.7433 14.3636 22.6815 14.3847 22.6235C14.4059 22.5655 14.4387 22.5124 14.4813 22.4676C14.5238 22.4229 14.5751 22.3874 14.632 22.3634C14.6889 22.3394 14.7501 22.3274 14.8118 22.3282H29.5919C29.7203 22.3295 29.8436 22.3793 29.9368 22.4678C30.0301 22.5562 30.0865 22.6767 30.0947 22.805L30.2061 24.9724C30.2101 25.0342 30.2014 25.0961 30.1804 25.1543C30.1594 25.2126 30.1265 25.2658 30.084 25.3107C30.0414 25.3557 29.99 25.3913 29.933 25.4154C29.876 25.4395 29.8146 25.4515 29.7528 25.4507Z" fill="white"/>
<path d="M25.2261 21.1298H19.053C18.9237 21.1288 18.7997 21.0787 18.706 20.9896C18.6123 20.9005 18.556 20.779 18.5486 20.6499L18.5254 20.1854C18.5213 20.1237 18.5301 20.0617 18.5511 20.0035C18.5721 19.9453 18.6049 19.892 18.6475 19.8471C18.6901 19.8021 18.7415 19.7665 18.7985 19.7424C18.8555 19.7183 18.9168 19.7063 18.9787 19.7071H25.1503C25.279 19.7084 25.4025 19.7585 25.4958 19.8472C25.5891 19.936 25.6453 20.0569 25.6531 20.1854L25.6779 20.6499C25.6817 20.7115 25.6728 20.7733 25.6518 20.8314C25.6308 20.8895 25.5982 20.9427 25.5558 20.9877C25.5135 21.0327 25.4624 21.0685 25.4057 21.0929C25.349 21.1174 25.2879 21.1299 25.2261 21.1298Z" fill="#FEE675"/>
<path d="M27.5226 35.8707H18.2753C18.0563 35.868 17.8464 35.7826 17.6878 35.6315C17.5291 35.4805 17.4333 35.2751 17.4197 35.0564L17.3655 33.9881C17.3601 33.8832 17.3761 33.7782 17.4125 33.6795C17.4489 33.5809 17.505 33.4908 17.5774 33.4146C17.6498 33.3384 17.7369 33.2777 17.8335 33.2364C17.9301 33.195 18.0341 33.1737 18.1391 33.1738H27.3834C27.6024 33.1765 27.8122 33.2619 27.9709 33.413C28.1296 33.564 28.2253 33.7694 28.239 33.9881L28.2931 35.0564C28.2986 35.1611 28.2827 35.2658 28.2465 35.3642C28.2102 35.4626 28.1544 35.5526 28.0823 35.6288C28.0103 35.7049 27.9235 35.7657 27.8273 35.8072C27.7311 35.8488 27.6274 35.8704 27.5226 35.8707Z" fill="#56ABA1"/>
<path d="M30.0234 30.6925H15.2418C15.1132 30.6908 14.9899 30.6406 14.8967 30.5519C14.8035 30.4632 14.7471 30.3426 14.739 30.2141L14.6276 28.0467C14.6237 27.985 14.6327 27.9232 14.6538 27.865C14.6749 27.8069 14.7077 27.7538 14.7502 27.7089C14.7928 27.664 14.8441 27.6284 14.9009 27.6042C14.9578 27.58 15.0191 27.5678 15.0809 27.5684H29.8609C29.9896 27.5697 30.1131 27.6198 30.2064 27.7086C30.2997 27.7973 30.3559 27.9182 30.3637 28.0467L30.4767 30.2141C30.4803 30.2758 30.4712 30.3376 30.45 30.3956C30.4288 30.4536 30.396 30.5067 30.3535 30.5515C30.311 30.5963 30.2598 30.632 30.203 30.6562C30.1462 30.6805 30.0851 30.6928 30.0234 30.6925Z" fill="white"/>
<path d="M16.8472 23.8889C16.8514 23.9573 16.8415 24.0258 16.8181 24.0903C16.7947 24.1547 16.7583 24.2136 16.7111 24.2633C16.6639 24.3129 16.607 24.3524 16.5439 24.379C16.4808 24.4057 16.4128 24.4191 16.3443 24.4183C16.202 24.4166 16.0656 24.3611 15.9626 24.2629C15.8596 24.1646 15.7975 24.031 15.7889 23.8889C15.7844 23.8205 15.7941 23.752 15.8173 23.6876C15.8406 23.6232 15.8769 23.5643 15.9239 23.5145C15.971 23.4648 16.0278 23.4254 16.0909 23.3987C16.1539 23.372 16.2218 23.3586 16.2902 23.3594C16.4327 23.3611 16.5692 23.4166 16.6725 23.5148C16.7758 23.613 16.8382 23.7466 16.8472 23.8889Z" fill="#263238"/>
<path d="M18.4767 23.8889C18.4812 23.9572 18.4715 24.0257 18.4483 24.0901C18.425 24.1546 18.3888 24.2135 18.3417 24.2632C18.2946 24.3129 18.2378 24.3523 18.1748 24.379C18.1117 24.4057 18.0439 24.4191 17.9754 24.4183C17.833 24.417 17.6964 24.3616 17.5933 24.2633C17.4902 24.165 17.4282 24.0311 17.42 23.8889C17.4155 23.8205 17.4252 23.752 17.4484 23.6876C17.4717 23.6232 17.508 23.5643 17.555 23.5145C17.6021 23.4648 17.6589 23.4254 17.722 23.3987C17.785 23.372 17.8529 23.3586 17.9213 23.3594C18.0637 23.3607 18.2003 23.4162 18.3034 23.5145C18.4065 23.6128 18.4685 23.7466 18.4767 23.8889Z" fill="#263238"/>
<path d="M20.0963 23.8889C20.1008 23.9572 20.0911 24.0257 20.0679 24.0901C20.0447 24.1546 20.0084 24.2135 19.9613 24.2632C19.9142 24.3129 19.8574 24.3523 19.7944 24.379C19.7313 24.4057 19.6635 24.4191 19.595 24.4183C19.4526 24.4167 19.316 24.3612 19.2127 24.263C19.1094 24.1648 19.047 24.0312 19.0381 23.8889C19.0338 23.8205 19.0437 23.7519 19.0671 23.6875C19.0905 23.6231 19.127 23.5642 19.1742 23.5145C19.2214 23.4648 19.2783 23.4254 19.3414 23.3987C19.4045 23.372 19.4724 23.3586 19.5409 23.3594C19.6832 23.3611 19.8196 23.4166 19.9226 23.5149C20.0257 23.6131 20.0877 23.7467 20.0963 23.8889Z" fill="#263238"/>
<path d="M21.7287 23.8889C21.7329 23.9571 21.7231 24.0256 21.6997 24.0899C21.6764 24.1542 21.6401 24.213 21.5931 24.2627C21.5461 24.3123 21.4893 24.3518 21.4264 24.3786C21.3635 24.4053 21.2957 24.4189 21.2274 24.4183C21.0849 24.4166 20.9483 24.3612 20.845 24.263C20.7417 24.1648 20.6794 24.0311 20.6704 23.8889C20.6661 23.8206 20.676 23.7521 20.6993 23.6878C20.7226 23.6235 20.7589 23.5647 20.806 23.515C20.853 23.4654 20.9097 23.4259 20.9726 23.3991C21.0356 23.3724 21.1033 23.3588 21.1717 23.3594C21.3141 23.3611 21.4507 23.4166 21.554 23.5147C21.6573 23.6129 21.7197 23.7466 21.7287 23.8889Z" fill="#263238"/>
<path d="M17.121 29.1272C17.1255 29.1955 17.1158 29.264 17.0926 29.3284C17.0693 29.3928 17.033 29.4518 16.986 29.5015C16.9389 29.5512 16.8821 29.5906 16.819 29.6173C16.756 29.644 16.6881 29.6574 16.6197 29.6566C16.4772 29.6549 16.3407 29.5995 16.2374 29.5013C16.1341 29.4031 16.0717 29.2694 16.0627 29.1272C16.0585 29.0587 16.0684 28.9902 16.0918 28.9258C16.1152 28.8613 16.1516 28.8025 16.1988 28.7528C16.246 28.7031 16.3029 28.6637 16.366 28.637C16.4291 28.6103 16.4971 28.5969 16.5656 28.5977C16.7079 28.5994 16.8443 28.6549 16.9473 28.7532C17.0503 28.8514 17.1124 28.985 17.121 29.1272Z" fill="#263238"/>
<path d="M18.7468 29.1272C18.7511 29.1954 18.7412 29.2639 18.7179 29.3282C18.6946 29.3925 18.6583 29.4513 18.6113 29.501C18.5642 29.5506 18.5075 29.5901 18.4446 29.6169C18.3817 29.6436 18.3139 29.6572 18.2455 29.6566C18.1031 29.6549 17.9665 29.5995 17.8632 29.5013C17.7599 29.4031 17.6975 29.2694 17.6886 29.1272C17.6841 29.0588 17.6938 28.9903 17.717 28.9259C17.7402 28.8615 17.7765 28.8025 17.8236 28.7528C17.8707 28.7031 17.9275 28.6637 17.9905 28.637C18.0536 28.6103 18.1214 28.5969 18.1898 28.5977C18.3323 28.5994 18.4689 28.6549 18.5722 28.753C18.6755 28.8512 18.7379 28.9849 18.7468 29.1272Z" fill="#263238"/>
<path d="M20.3735 29.1272C20.3778 29.1956 20.3679 29.2641 20.3445 29.3285C20.3211 29.393 20.2846 29.4519 20.2374 29.5015C20.1903 29.5512 20.1333 29.5907 20.0702 29.6173C20.0071 29.644 19.9392 29.6574 19.8707 29.6566C19.7283 29.6553 19.5917 29.5999 19.4886 29.5016C19.3855 29.4033 19.3235 29.2694 19.3153 29.1272C19.3108 29.0588 19.3205 28.9903 19.3437 28.9259C19.367 28.8615 19.4032 28.8025 19.4503 28.7528C19.4974 28.7031 19.5542 28.6637 19.6172 28.637C19.6803 28.6103 19.7481 28.5969 19.8166 28.5977C19.959 28.5994 20.0956 28.6549 20.1989 28.753C20.3022 28.8512 20.3646 28.9849 20.3735 29.1272Z" fill="#263238"/>
<path d="M21.9977 29.1272C22.0022 29.1955 21.9925 29.264 21.9693 29.3284C21.946 29.3928 21.9097 29.4518 21.8627 29.5015C21.8156 29.5512 21.7588 29.5906 21.6957 29.6173C21.6327 29.644 21.5649 29.6574 21.4964 29.6566C21.354 29.6549 21.2174 29.5995 21.1141 29.5013C21.0108 29.4031 20.9484 29.2694 20.9394 29.1272C20.9352 29.0587 20.9451 28.9902 20.9685 28.9258C20.9919 28.8613 21.0283 28.8025 21.0755 28.7528C21.1227 28.7031 21.1796 28.6637 21.2427 28.637C21.3058 28.6103 21.3738 28.5969 21.4423 28.5977C21.5847 28.599 21.7213 28.6544 21.8244 28.7527C21.9275 28.851 21.9895 28.9849 21.9977 29.1272Z" fill="#263238"/>
<path d="M23.6239 29.1271C23.6284 29.1955 23.6187 29.264 23.5955 29.3284C23.5722 29.3928 23.5359 29.4517 23.4889 29.5015C23.4418 29.5512 23.385 29.5906 23.322 29.6173C23.2589 29.644 23.1911 29.6574 23.1226 29.6566C22.9802 29.6549 22.8436 29.5994 22.7403 29.5012C22.637 29.4031 22.5746 29.2694 22.5657 29.1271C22.5614 29.0589 22.5713 28.9904 22.5946 28.9261C22.6179 28.8618 22.6542 28.803 22.7012 28.7533C22.7482 28.7037 22.805 28.6642 22.8679 28.6374C22.9308 28.6106 22.9986 28.5971 23.0669 28.5977C23.2094 28.5993 23.346 28.6548 23.4493 28.753C23.5526 28.8512 23.6149 28.9849 23.6239 29.1271Z" fill="#263238"/>
<path d="M25.2502 29.1272C25.2545 29.1956 25.2446 29.2641 25.2212 29.3285C25.1978 29.393 25.1613 29.4519 25.1142 29.5015C25.067 29.5512 25.01 29.5907 24.9469 29.6173C24.8838 29.644 24.8159 29.6574 24.7474 29.6566C24.6051 29.6549 24.4687 29.5994 24.3657 29.5011C24.2626 29.4029 24.2006 29.2693 24.192 29.1272C24.1875 29.0588 24.1972 28.9903 24.2204 28.9259C24.2437 28.8615 24.28 28.8025 24.327 28.7528C24.3741 28.7031 24.4309 28.6637 24.4939 28.637C24.557 28.6103 24.6248 28.5969 24.6933 28.5977C24.8357 28.5994 24.9723 28.6549 25.0756 28.753C25.1789 28.8512 25.2413 28.9849 25.2502 29.1272Z" fill="#263238"/>
<path d="M42.8382 11.1523C42.8769 11.2112 42.897 11.2421 42.9218 11.2839L42.9914 11.3985C43.0363 11.4759 43.0765 11.5533 43.1152 11.6292C43.1925 11.784 43.2699 11.9388 43.3318 12.0936C43.4615 12.4011 43.5731 12.7159 43.666 13.0364C43.8533 13.6696 43.9766 14.32 44.0342 14.9778L44.045 15.1001C44.0463 15.1248 44.0463 15.1496 44.045 15.1744V15.2565C44.0476 15.3641 44.0414 15.4718 44.0264 15.5785C43.9968 15.7762 43.9449 15.9699 43.8717 16.1559C43.7358 16.4882 43.5558 16.8006 43.3364 17.0848C42.9273 17.6091 42.4417 18.0688 41.896 18.4487L41.469 17.9487C41.8576 17.5095 42.2017 17.033 42.4963 16.5259C42.6289 16.2959 42.7328 16.0505 42.8057 15.7952C42.8353 15.6871 42.8524 15.5759 42.8568 15.4639C42.8616 15.416 42.8616 15.3678 42.8568 15.3199V15.2874C42.8584 15.273 42.8584 15.2585 42.8568 15.2441L42.8382 15.1357C42.7387 14.5587 42.5981 13.9896 42.4174 13.4327C42.3277 13.1556 42.2178 12.8878 42.108 12.6262C42.0538 12.4946 41.9919 12.3661 41.93 12.2422L41.8341 12.0596L41.7862 11.9744L41.7459 11.9063L42.8382 11.1523Z" fill="#803E3C"/>
<path d="M41.3999 18.4469L41.96 19.6313L42.404 18.6296C42.404 18.6296 42.0095 17.7627 41.4757 17.8432L41.3999 18.4469Z" fill="#7F3E3B"/>
<path d="M42.3607 19.6933L42.8063 18.9626L42.404 18.6328L41.96 19.6345L42.3607 19.6933Z" fill="#7F3E3B"/>
<path d="M39.8415 47.0067C39.9573 47.0038 40.0725 46.9882 40.1849 46.9602C40.1906 46.9585 40.1958 46.9553 40.1998 46.9509C40.2039 46.9466 40.2068 46.9412 40.2081 46.9354C40.2091 46.9295 40.2083 46.9234 40.2058 46.9179C40.2033 46.9124 40.1993 46.9077 40.1942 46.9045C40.1493 46.8751 39.7564 46.6212 39.6047 46.6893C39.5879 46.6971 39.5735 46.7093 39.5629 46.7245C39.5523 46.7397 39.5459 46.7575 39.5444 46.776C39.5397 46.804 39.5419 46.8327 39.5508 46.8597C39.5597 46.8867 39.575 46.9111 39.5955 46.9308C39.6656 46.985 39.753 47.012 39.8415 47.0067ZM40.0967 46.9153C39.8724 46.9618 39.7022 46.954 39.6326 46.8936C39.6184 46.8795 39.6079 46.8621 39.6023 46.8429C39.5966 46.8236 39.5958 46.8033 39.6001 46.7837C39.6001 46.7574 39.6156 46.7497 39.6264 46.745C39.7099 46.7079 39.9374 46.8178 40.0967 46.9153Z" fill="#86C3BB"/>
<path d="M40.1778 46.9585H40.1933C40.198 46.9555 40.2018 46.9514 40.2045 46.9465C40.2072 46.9416 40.2087 46.9362 40.2088 46.9306C40.2088 46.9152 40.2088 46.5421 40.0664 46.4167C40.0489 46.401 40.0282 46.3892 40.0058 46.3823C39.9833 46.3753 39.9596 46.3733 39.9363 46.3764C39.9119 46.3766 39.8883 46.3852 39.8694 46.4007C39.8505 46.4162 39.8376 46.4376 39.8326 46.4616C39.8032 46.6086 40.0385 46.8873 40.1624 46.9585H40.1778ZM39.9564 46.4337C39.969 46.4333 39.9815 46.4355 39.9932 46.44C40.0048 46.4445 40.0155 46.4513 40.0246 46.46C40.1062 46.5804 40.1484 46.7233 40.1453 46.8687C40.0215 46.7696 39.8744 46.5591 39.893 46.4708C39.893 46.4569 39.9038 46.4383 39.9425 46.4337H39.9564Z" fill="#86C3BB"/>
<path d="M38.3811 46.373C38.3848 46.3685 38.3871 46.3631 38.388 46.3573C38.3888 46.3516 38.3881 46.3457 38.3858 46.3403C38.3836 46.335 38.38 46.3303 38.3754 46.3268C38.3707 46.3233 38.3653 46.3211 38.3595 46.3204C38.2961 46.3204 37.7406 46.2941 37.6138 46.4303V46.4396C37.6033 46.453 37.5965 46.4689 37.594 46.4857C37.5916 46.5026 37.5936 46.5198 37.5998 46.5356C37.6081 46.5622 37.6227 46.5864 37.6424 46.606C37.6621 46.6257 37.6862 46.6403 37.7128 46.6486C37.8922 46.7043 38.2094 46.5015 38.3827 46.3761L38.3811 46.373ZM37.6602 46.4706C37.7298 46.3963 38.0361 46.3761 38.2651 46.3792C38.0253 46.5433 37.8257 46.6207 37.7252 46.5898C37.7076 46.5845 37.6917 46.5749 37.6787 46.5619C37.6658 46.549 37.6562 46.533 37.6509 46.5155C37.6478 46.5095 37.6461 46.5029 37.6461 46.4961C37.6461 46.4894 37.6478 46.4827 37.6509 46.4768L37.6602 46.4706Z" fill="#86C3BB"/>
<path d="M38.3813 46.3745C38.3837 46.3696 38.3849 46.3643 38.3849 46.359C38.3849 46.3536 38.3837 46.3483 38.3813 46.3435C38.3736 46.3311 38.2003 46.0339 37.9961 45.9719C37.9668 45.9634 37.936 45.9608 37.9057 45.9646C37.8753 45.9683 37.8461 45.9782 37.8197 45.9936C37.7455 46.037 37.7408 46.0881 37.7501 46.1206C37.7903 46.2645 38.1849 46.3915 38.355 46.3899C38.3604 46.3899 38.3656 46.3884 38.3702 46.3857C38.3748 46.383 38.3787 46.3791 38.3813 46.3745ZM37.8259 46.0648C37.8346 46.0563 37.8445 46.049 37.8553 46.0432C37.8744 46.031 37.8959 46.0231 37.9184 46.0202C37.9409 46.0173 37.9637 46.0193 37.9853 46.0261C38.1199 46.0617 38.2452 46.2351 38.3024 46.3203C38.1183 46.3002 37.8383 46.1871 37.8151 46.1004C37.8131 46.0939 37.8131 46.0869 37.815 46.0803C37.8169 46.0737 37.8207 46.0678 37.8259 46.0633V46.0648Z" fill="#86C3BB"/>
<path d="M40.0842 6.61523C39.9295 7.3893 39.5953 9.06284 40.1322 9.57682C40.1322 9.57682 39.9218 10.3509 38.4938 10.3509C36.9218 10.3509 37.7434 9.57682 37.7434 9.57682C38.6005 9.37246 38.5789 8.73463 38.4288 8.13705L40.0842 6.61523Z" fill="#7F3E3B"/>
<path d="M37.4672 4.80332C37.4759 4.80473 37.4848 4.80473 37.4935 4.80332C37.5008 4.7997 37.5074 4.79465 37.5128 4.78848C37.5182 4.7823 37.5223 4.77512 37.5249 4.76734C37.5275 4.75956 37.5285 4.75135 37.5279 4.74317C37.5273 4.735 37.525 4.72703 37.5213 4.71972C37.4797 4.63141 37.4175 4.55438 37.34 4.49511C37.2625 4.43585 37.1718 4.39607 37.0758 4.37913C37.0596 4.37778 37.0436 4.38264 37.031 4.39271C37.0183 4.40278 37.01 4.4173 37.0077 4.43331C37.0059 4.44951 37.0106 4.46575 37.0208 4.4785C37.0309 4.49125 37.0457 4.49949 37.0618 4.50143C37.1377 4.516 37.209 4.54846 37.2698 4.59612C37.3306 4.64377 37.3792 4.70525 37.4115 4.77545C37.4175 4.78461 37.4258 4.79201 37.4356 4.7969C37.4454 4.8018 37.4563 4.80401 37.4672 4.80332Z" fill="#263238"/>
<path d="M36.9987 5.48242C36.8768 5.70841 36.7247 5.91674 36.5466 6.10168C36.5948 6.14579 36.6521 6.17889 36.7144 6.19867C36.7767 6.21846 36.8425 6.22445 36.9073 6.21624L36.9987 5.48242Z" fill="#630F0F"/>
<path d="M37.1139 5.30685C37.1015 5.41058 37.0349 5.48799 36.9684 5.48025C36.9018 5.47251 36.8553 5.38116 36.8677 5.27744C36.8801 5.17371 36.9467 5.09631 37.0225 5.10405C37.0984 5.11179 37.1247 5.20313 37.1139 5.30685Z" fill="#263238"/>
<path d="M37.0433 5.11161L36.8049 5.01562C36.8049 5.01562 36.9056 5.21998 37.0433 5.11161Z" fill="#263238"/>
<path d="M39.7472 46.0801L38.4847 46.3742L37.7173 43.4699L38.9798 43.1758L39.7472 46.0801Z" fill="#7F3E3B"/>
<path d="M41.6841 46.9276H40.3892L40.4897 43.9258H41.7862L41.6841 46.9276Z" fill="#7F3E3B"/>
<path d="M40.2856 46.7754H41.7415C41.7667 46.7752 41.7912 46.7842 41.8102 46.8007C41.8293 46.8172 41.8417 46.8402 41.8451 46.8652L42.0107 48.017C42.0139 48.0461 42.011 48.0756 42.0021 48.1035C41.9931 48.1314 41.9784 48.1571 41.9588 48.1789C41.9392 48.2007 41.9152 48.2181 41.8884 48.23C41.8616 48.2418 41.8326 48.2479 41.8033 48.2477C41.2959 48.2399 41.0514 48.209 40.4109 48.209C40.0164 48.209 39.4408 48.2508 38.8978 48.2508C38.3547 48.2508 38.3238 47.712 38.5512 47.664C39.5661 47.4442 39.7271 47.1438 40.069 46.8559C40.1294 46.8043 40.2061 46.7757 40.2856 46.7754Z" fill="#263238"/>
<path d="M38.3729 46.1789L39.6958 45.5705C39.7182 45.5598 39.7438 45.5576 39.7678 45.5645C39.7917 45.5713 39.8123 45.5867 39.8257 45.6077L40.4585 46.5861C40.4733 46.6113 40.4826 46.6393 40.4859 46.6683C40.4892 46.6973 40.4864 46.7267 40.4777 46.7545C40.4689 46.7824 40.4544 46.8081 40.4351 46.83C40.4159 46.8519 40.3922 46.8696 40.3657 46.8818C39.9015 47.0861 39.6664 47.162 39.0846 47.4298C38.7272 47.5939 38.0016 47.9717 37.5096 48.2039C37.0176 48.4361 36.7639 47.9546 36.9496 47.8153C37.7804 47.196 38.0186 46.7517 38.2089 46.3477C38.2411 46.2732 38.2995 46.2132 38.3729 46.1789Z" fill="#263238"/>
<path opacity="0.2" d="M37.7173 43.4699L38.1288 45.0273L39.3758 44.6728L38.9813 43.1758L37.7173 43.4699Z" fill="black"/>
<path opacity="0.2" d="M41.7868 43.9258H40.4903L40.4392 45.4739H41.7357L41.7868 43.9258Z" fill="black"/>
<path d="M42.3742 9.87108C42.9126 9.99029 43.4882 11.927 43.4882 11.927L41.9658 13.5479C41.9658 13.5479 40.7017 11.7273 40.9601 11.0585C41.2216 10.3603 41.7322 9.73175 42.3742 9.87108Z" fill="#263238"/>
<path opacity="0.4" d="M41.5139 11.1073C41.2416 10.8581 41.0575 10.9324 40.9322 11.1306C40.8084 11.7065 41.5417 12.9125 41.8372 13.3692C41.9734 12.8242 42.1297 11.6755 41.5139 11.1073Z" fill="black"/>
<path d="M35.5529 9.91101C35.5529 9.91101 34.934 10.1278 36.1718 17.7368H41.4321C41.3439 15.5942 41.3408 14.2721 42.3604 9.87231C41.6233 9.72013 40.8761 9.62183 40.1248 9.57817C39.3295 9.52082 38.5312 9.52082 37.7359 9.57817C36.7164 9.6726 35.5529 9.91101 35.5529 9.91101Z" fill="#263238"/>
<path opacity="0.4" d="M35.5054 12.8301C35.5394 13.2001 35.5843 13.6166 35.6431 14.0872C36.0747 13.6986 36.4275 12.5932 36.2975 11.9492C35.9891 12.1997 35.7218 12.4969 35.5054 12.8301Z" fill="black"/>
<path d="M36.0675 11.6758C35.7837 12.3907 35.464 13.0908 35.1098 13.7736C34.7597 14.4809 34.3454 15.1546 33.8721 15.7861L33.7731 15.9084L33.7236 15.9688C33.7065 15.9889 33.6926 16.0075 33.6663 16.0354C33.5732 16.137 33.4695 16.2284 33.3569 16.3078C33.1579 16.4457 32.9401 16.5541 32.7102 16.6299C32.3092 16.758 31.893 16.8319 31.4724 16.8497C30.6849 16.881 29.8966 16.8108 29.127 16.6407L29.212 15.9905C29.5679 15.9905 29.9408 15.9905 30.2951 15.9611C30.6509 15.9435 31.0054 15.9043 31.3564 15.8434C31.6825 15.7925 32.0013 15.7031 32.3064 15.5771C32.4296 15.5245 32.5447 15.4546 32.6483 15.3697C32.6878 15.3365 32.7236 15.2992 32.755 15.2582C32.755 15.2582 32.7736 15.2334 32.786 15.2164L32.8216 15.1653L32.8943 15.0631C33.2825 14.4631 33.6284 13.8366 33.9293 13.1884C34.2388 12.5304 34.5482 11.8477 34.8313 11.1758L36.0675 11.6758Z" fill="#803E3C"/>
<path d="M35.5533 9.91013C34.9081 10.0649 34.116 11.836 34.116 11.836L35.4527 13.8021C35.4527 13.8021 37.2335 11.5589 37.0215 10.8746C36.8049 10.1609 36.3408 9.71816 35.5533 9.91013Z" fill="#263238"/>
<path d="M29.5843 16.0878L28.4688 15.5723L28.3574 16.6823C28.3574 16.6823 29.2857 16.9563 29.7499 16.6823L29.5843 16.0878Z" fill="#7F3E3B"/>
<path d="M27.8018 15.4609L27.6951 16.3062L28.3573 16.6824L28.4686 15.5724L27.8018 15.4609Z" fill="#7F3E3B"/>
<path d="M40.6456 5.38177C40.4089 6.64659 40.3362 7.18844 39.6121 7.7628C38.5291 8.62666 37.0206 8.06004 36.8752 6.75032C36.7422 5.57064 37.1506 3.70049 38.461 3.34442C38.7497 3.26473 39.054 3.26036 39.3448 3.33174C39.6356 3.40311 39.9033 3.54785 40.1224 3.75214C40.3414 3.95644 40.5046 4.21348 40.5962 4.49875C40.6877 4.78403 40.7048 5.08803 40.6456 5.38177Z" fill="#7F3E3B"/>
<path d="M37.8675 5.64944C37.7948 6.29501 37.7669 7.97164 39.1841 8.02428C40.9185 8.08775 41.4383 6.60464 41.2836 6.0117C42.1872 5.27634 42.3171 4.01151 41.3022 3.04393C40.2872 2.07635 38.0531 2.61665 37.4343 3.55946C36.6499 4.7283 37.8675 5.64944 37.8675 5.64944Z" fill="#263238"/>
<path d="M39.6048 3.4198C39.5212 2.73862 39.5862 2.26953 40.2236 2.26953C40.8611 2.26953 41.7306 2.5002 42.0493 3.15197C42.368 3.80373 42.3943 4.82395 41.5047 4.72023C40.6151 4.6165 39.7053 4.23411 39.6048 3.4198Z" fill="#86C3BB"/>
<path d="M40.5921 3.25501C40.4373 2.44378 41.163 0.158737 42.9252 0.00392318C43.7421 -0.0657429 44.1196 0.813597 43.6988 0.959122C44.4723 0.949833 44.9674 1.97315 44.2465 2.12642C44.8158 2.49178 44.675 3.24107 43.8628 3.60953C43.2578 3.88819 40.8009 4.37895 40.5921 3.25501Z" fill="#263238"/>
<path d="M42.4747 4.12427C41.9069 4.12427 41.3144 4.04067 40.9461 3.79451C40.8432 3.73241 40.7565 3.64665 40.6933 3.54435C40.63 3.44204 40.5921 3.32613 40.5826 3.20622C40.5821 3.19604 40.5855 3.18607 40.5921 3.17831C40.5987 3.17055 40.608 3.16559 40.6181 3.16442C40.6233 3.16377 40.6285 3.1642 40.6334 3.16568C40.6384 3.16715 40.643 3.16965 40.6469 3.173C40.6508 3.17635 40.654 3.18048 40.6562 3.18514C40.6585 3.18979 40.6597 3.19486 40.6599 3.20003C40.6692 3.30824 40.7039 3.41272 40.7612 3.50499C40.8185 3.59725 40.8967 3.6747 40.9895 3.73104C41.6903 4.19548 43.3102 4.04067 43.8146 3.88585C44.2509 3.74343 44.5464 3.46631 44.6052 3.14739C44.6235 3.03036 44.6091 2.91054 44.5634 2.80122C44.5178 2.69191 44.4428 2.59738 44.3468 2.52814C44.3431 2.52466 44.3401 2.52047 44.3381 2.51581C44.3361 2.51115 44.3351 2.50612 44.3351 2.50105C44.3351 2.49597 44.3361 2.49095 44.3381 2.48629C44.3401 2.48163 44.3431 2.47743 44.3468 2.47395C44.354 2.46686 44.3637 2.46289 44.3739 2.46289C44.384 2.46289 44.3937 2.46686 44.4009 2.47395C44.5089 2.5528 44.5929 2.66015 44.6435 2.78399C44.694 2.90783 44.7091 3.0433 44.6872 3.17526C44.6237 3.52359 44.3097 3.82083 43.8455 3.97255C43.3977 4.08551 42.9364 4.13656 42.4747 4.12427Z" fill="#263238"/>
<path d="M37.4734 5.48107C37.3293 5.68329 37.2699 5.93384 37.3078 6.17927C37.3589 6.50438 37.6745 6.52606 37.9035 6.31861C38.1325 6.11116 38.332 5.73651 38.1634 5.46713C38.1259 5.40895 38.0742 5.36132 38.0131 5.3288C37.952 5.29628 37.8837 5.27994 37.8145 5.28133C37.7453 5.28273 37.6777 5.30182 37.6179 5.33678C37.5582 5.37174 37.5085 5.42141 37.4734 5.48107Z" fill="#7F3E3B"/>
<path d="M37.5613 17.7344C37.5613 17.7344 38.3132 26.6346 39.0945 31.6506C39.7242 35.702 40.2224 45.172 40.2224 45.172H41.9892C41.9892 45.172 42.6174 35.9853 42.2987 31.9788C41.4895 21.8385 43.295 21.0118 41.4369 17.7359L37.5613 17.7344Z" fill="#9FCFC9"/>
<path opacity="0.4" d="M39.7858 21.0996C39.0856 21.835 38.5205 22.6882 38.1165 23.62C38.3222 25.6202 38.5667 27.8402 38.8266 29.7846C39.8931 27.0217 40.2237 24.0289 39.7858 21.0996Z" fill="black"/>
<path d="M36.3254 17.6797C36.3254 17.6797 34.6931 27.4004 34.4363 31.7816C35.0768 35.8331 37.6977 44.3974 37.6977 44.3974L39.3052 43.8137C39.3052 43.8137 38.4156 34.4754 37.4486 31.9194C39.6255 24.5859 41.2252 22.7313 40.7595 17.7354C39.644 17.7354 36.3254 17.6797 36.3254 17.6797Z" fill="#9FCFC9"/>
<path d="M37.4828 44.824L39.655 44.2341L39.5312 43.3672L37.2058 43.9973L37.4828 44.824Z" fill="#263238"/>
<path d="M39.9797 45.2099H42.2308L42.3484 44.4203L39.9673 44.3398L39.9797 45.2099Z" fill="#263238"/>
<path d="M41.5144 17.426L41.7511 17.8982C41.7697 17.9353 41.7264 17.9725 41.666 17.9725H36.1458C36.0993 17.9725 36.0591 17.9493 36.056 17.9183L36.0081 17.4539C36.0081 17.4213 36.0467 17.3935 36.0978 17.3935H41.4278C41.4438 17.3913 41.4601 17.3931 41.4752 17.3988C41.4903 17.4045 41.5038 17.4138 41.5144 17.426Z" fill="#86C3BB"/>
<path opacity="0.5" d="M41.5144 17.426L41.7511 17.8982C41.7697 17.9353 41.7264 17.9725 41.666 17.9725H36.1458C36.0993 17.9725 36.0591 17.9493 36.056 17.9183L36.0081 17.4539C36.0081 17.4213 36.0467 17.3935 36.0978 17.3935H41.4278C41.4438 17.3913 41.4601 17.3931 41.4752 17.3988C41.4903 17.4045 41.5038 17.4138 41.5144 17.426Z" fill="black"/>
<path d="M40.7982 18.0202H40.9406C40.97 18.0202 40.9917 18.0047 40.9901 17.9877L40.922 17.3684C40.922 17.3499 40.8957 17.3359 40.8678 17.3359H40.7239C40.696 17.3359 40.6743 17.3499 40.6759 17.3684L40.7424 17.9877C40.7455 18.0078 40.7703 18.0202 40.7982 18.0202Z" fill="#86C3BB"/>
<path d="M38.8824 13.5134C38.8653 13.5132 38.8487 13.5075 38.8351 13.4972C38.8215 13.4869 38.8115 13.4725 38.8066 13.4562C38.3022 11.5891 37.2594 10.0503 36.7535 9.81805C36.7142 9.79389 36.667 9.78611 36.622 9.79638C36.6126 9.8013 36.6024 9.80426 36.5918 9.80507C36.5813 9.80589 36.5707 9.80453 36.5607 9.8011C36.5508 9.79766 36.5416 9.79221 36.5338 9.78509C36.526 9.77797 36.5197 9.76933 36.5154 9.75969C36.511 9.75006 36.5087 9.73964 36.5086 9.72907C36.5084 9.71851 36.5104 9.70802 36.5144 9.69826C36.5185 9.6885 36.5245 9.67967 36.5321 9.67231C36.5397 9.66496 36.5487 9.65924 36.5585 9.6555C36.6008 9.63996 36.646 9.63385 36.6909 9.63759C36.7358 9.64134 36.7793 9.65484 36.8185 9.67717C37.3538 9.93107 38.412 11.4482 38.9412 13.3571C39.3202 13.3571 39.905 13.306 40.0474 13.2936C40.2238 13.0831 41.5203 11.4606 41.036 9.68491C41.0332 9.67515 41.0324 9.66493 41.0336 9.65485C41.0348 9.64477 41.0381 9.63504 41.0431 9.62623C41.0482 9.61742 41.0549 9.60972 41.063 9.60358C41.0711 9.59744 41.0803 9.59298 41.0902 9.59047C41.1099 9.58525 41.1308 9.58801 41.1485 9.59816C41.1662 9.6083 41.1791 9.62501 41.1845 9.64466C41.7245 11.6201 40.1588 13.402 40.1418 13.419C40.1357 13.4265 40.1282 13.4327 40.1197 13.4373C40.1112 13.4418 40.1019 13.4445 40.0922 13.4453C40.0845 13.4453 39.3125 13.5134 38.8824 13.5134Z" fill="#FEE989"/>
<path d="M41.4459 14.6069C40.6027 13.0263 40.2577 12.9148 40.1076 12.407C40.2213 12.1231 40.3836 11.8611 40.5872 11.633C40.4851 11.6036 40.2654 11.5602 40.1231 11.5339C40.1385 11.4642 40.1556 11.3961 40.171 11.3295C40.0161 11.3122 39.8595 11.3195 39.7069 11.3512V11.1964C39.5104 11.1536 39.3085 11.1406 39.1081 11.1577C39.1257 11.231 39.1427 11.3053 39.1592 11.3806C39.0045 11.41 38.7693 11.458 38.6564 11.4905C38.8758 11.7393 39.037 12.0339 39.1282 12.3529C38.6734 13.1347 36.9065 18.1599 39.7811 18.5454C42.6558 18.9309 42.2875 16.1891 41.4459 14.6069Z" fill="#FEED9C"/>
<path opacity="0.4" d="M41.4459 14.6069C40.6027 13.0263 40.2577 12.9148 40.1076 12.407C40.2213 12.1231 40.3836 11.8611 40.5872 11.633C40.4851 11.6036 40.2654 11.5602 40.1231 11.5339C40.1385 11.4642 40.1556 11.3961 40.171 11.3295C40.0161 11.3122 39.8595 11.3195 39.7069 11.3512V11.1964C39.5104 11.1536 39.3085 11.1406 39.1081 11.1577C39.1257 11.231 39.1427 11.3053 39.1592 11.3806C39.0045 11.41 38.7693 11.458 38.6564 11.4905C38.8758 11.7393 39.037 12.0339 39.1282 12.3529C38.6734 13.1347 36.9065 18.1599 39.7811 18.5454C42.6558 18.9309 42.2875 16.1891 41.4459 14.6069Z" fill="white"/>
<path d="M39.0112 12.2006C38.9933 12.2803 38.9855 12.362 38.988 12.4437C38.988 12.5009 39.1427 12.5397 39.3145 12.5567C39.4862 12.5737 40.2072 12.6016 40.184 12.5211C40.1607 12.4406 40.2195 12.3307 40.2226 12.2625C40.2257 12.1944 39.9364 12.1913 39.6935 12.2006C39.4506 12.2099 39.0592 12.1139 39.0112 12.2006Z" fill="#86C3BB"/>
<path d="M37.3389 18.0202H37.4814C37.5092 18.0202 37.5309 18.0047 37.5293 17.9877L37.4628 17.3684C37.4628 17.3499 37.4365 17.3359 37.407 17.3359H37.2693C37.2414 17.3359 37.2197 17.3499 37.2213 17.3684L37.2878 17.9877C37.2847 18.0078 37.3095 18.0202 37.3389 18.0202Z" fill="#86C3BB"/>
</svg>
