<svg width="185" height="154" viewBox="0 0 185 154" fill="none" xmlns="http://www.w3.org/2000/svg">
<path d="M92.3425 153.914C143.342 153.914 184.685 151.499 184.685 148.52C184.685 145.54 143.342 143.125 92.3425 143.125C41.3431 143.125 0 145.54 0 148.52C0 151.499 41.3431 153.914 92.3425 153.914Z" fill="#F5F5F5"/>
<path d="M97.3016 124.329H36.5449C35.5679 124.315 34.6322 123.932 33.9256 123.256C33.2189 122.581 32.7936 121.664 32.7348 120.688L27.2863 15.1052C27.2561 14.6355 27.3232 14.1647 27.4834 13.7222C27.6435 13.2797 27.8933 12.8751 28.217 12.5337C28.5407 12.1924 28.9314 11.9216 29.3646 11.7383C29.7978 11.5551 30.2642 11.4634 30.7345 11.469H91.4912C92.4678 11.4817 93.4034 11.8636 94.1102 12.5381C94.8169 13.2126 95.2425 14.1297 95.3013 15.1052L100.74 120.688C100.77 121.157 100.704 121.627 100.544 122.069C100.385 122.511 100.136 122.915 99.8131 123.257C99.4904 123.599 99.1009 123.87 98.6688 124.054C98.2368 124.239 97.7714 124.332 97.3016 124.329Z" fill="#56ABA1"/>
<path opacity="0.8" d="M97.3016 124.329H36.5449C35.5679 124.315 34.6322 123.932 33.9256 123.256C33.2189 122.581 32.7936 121.664 32.7348 120.688L27.2863 15.1052C27.2561 14.6355 27.3232 14.1647 27.4834 13.7222C27.6435 13.2797 27.8933 12.8751 28.217 12.5337C28.5407 12.1924 28.9314 11.9216 29.3646 11.7383C29.7978 11.5551 30.2642 11.4634 30.7345 11.469H91.4912C92.4678 11.4817 93.4034 11.8636 94.1102 12.5381C94.8169 13.2126 95.2425 14.1297 95.3013 15.1052L100.74 120.688C100.77 121.157 100.704 121.627 100.544 122.069C100.385 122.511 100.136 122.915 99.8131 123.257C99.4904 123.599 99.1009 123.87 98.6688 124.054C98.2368 124.239 97.7714 124.332 97.3016 124.329Z" fill="white"/>
<path d="M85.4935 8.03125H78.7734V8.50781H85.4935V8.03125Z" fill="#FEE675"/>
<path d="M76.4466 8.03125H73.9844V8.50781H76.4466V8.03125Z" fill="#FEE675"/>
<path d="M99.9165 117.632H41.8125C40.8768 117.623 39.9793 117.26 39.3006 116.615C38.622 115.971 38.2126 115.093 38.1548 114.158L32.954 13.1745C32.9251 12.725 32.9893 12.2744 33.1426 11.851C33.2959 11.4275 33.535 11.0404 33.8449 10.7137C34.1548 10.3871 34.5288 10.128 34.9434 9.95283C35.3581 9.77762 35.8044 9.69003 36.2545 9.69556H94.3585C95.2941 9.7059 96.1911 10.0705 96.8689 10.716C97.5466 11.3615 97.9549 12.2399 98.0114 13.1745L103.212 114.158C103.241 114.607 103.177 115.057 103.024 115.48C102.871 115.903 102.632 116.289 102.323 116.615C102.013 116.942 101.64 117.2 101.226 117.375C100.812 117.55 100.366 117.638 99.9165 117.632Z" fill="#B7DBD7"/>
<path d="M99.9151 115.314H41.8112C41.4704 115.302 41.1458 115.166 40.8991 114.93C40.6524 114.695 40.5007 114.377 40.4729 114.037L35.2673 13.0582C35.2555 12.9239 35.2724 12.7886 35.3167 12.6612C35.361 12.5339 35.4319 12.4174 35.5245 12.3195C35.6174 12.2218 35.73 12.145 35.8548 12.094C35.9796 12.0431 36.1137 12.0192 36.2484 12.024H94.3524C94.6923 12.0369 95.0157 12.174 95.2615 12.4093C95.5072 12.6447 95.6582 12.962 95.6859 13.3012L100.915 114.28C100.927 114.414 100.91 114.549 100.866 114.675C100.821 114.802 100.751 114.918 100.659 115.016C100.566 115.114 100.455 115.191 100.331 115.242C100.207 115.293 100.073 115.318 99.9389 115.314H99.9151ZM36.2484 12.1432C36.13 12.1394 36.0121 12.1603 35.9022 12.2046C35.7923 12.2489 35.6929 12.3156 35.6102 12.4005C35.5307 12.4885 35.4699 12.5918 35.4314 12.704C35.3929 12.8162 35.3776 12.9351 35.3864 13.0534L40.5872 114.032C40.6137 114.342 40.7522 114.63 40.9768 114.845C41.2014 115.059 41.4964 115.183 41.8064 115.195H99.9104C100.028 115.2 100.146 115.179 100.255 115.135C100.364 115.09 100.463 115.023 100.544 114.938C100.625 114.851 100.687 114.748 100.726 114.635C100.765 114.523 100.779 114.403 100.768 114.285L95.5716 13.306C95.5462 12.9971 95.4086 12.7083 95.1849 12.494C94.9611 12.2798 94.6666 12.155 94.3571 12.1432H36.2484Z" fill="white"/>
<path opacity="0.3" d="M79.5921 48.8226C86.2008 42.0367 85.7704 30.8919 78.6309 23.9301C71.4914 16.9682 60.3462 16.8256 53.7375 23.6115C47.1289 30.3974 47.5592 41.5421 54.6988 48.504C61.8383 55.4658 72.9834 55.6085 79.5921 48.8226Z" fill="white"/>
<path d="M80.9144 36.2171C81.0477 38.559 80.577 40.8959 79.5476 43.0033C78.4332 45.2637 76.7033 47.1631 74.5571 48.4826C72.411 49.8022 69.9359 50.4881 67.4172 50.4615C64.8069 50.438 62.2472 49.7387 59.9871 48.4317C57.727 47.1248 55.8436 45.2546 54.52 43.0033C53.2865 40.9445 52.5767 38.6143 52.453 36.2171C52.3356 34.3786 52.5986 32.5357 53.2257 30.8036C53.8528 29.0716 54.8304 27.4876 56.0973 26.151C57.3643 24.8144 58.8933 23.7538 60.5887 23.0357C62.2841 22.3175 64.1094 21.9572 65.9503 21.9774C69.7818 22.0173 73.4559 23.5086 76.2326 26.1508C79.0092 28.793 80.6822 32.3899 80.9144 36.2171Z" fill="white"/>
<path d="M79.5334 43.008C78.419 45.2684 76.6891 47.1678 74.543 48.4873C72.3968 49.8069 69.9218 50.4928 67.403 50.4662C64.7928 50.4427 62.2331 49.7434 59.973 48.4365C57.7129 47.1295 55.8294 45.2594 54.5059 43.008C58.1251 40.5069 62.4236 39.1763 66.822 39.1955C71.338 39.2125 75.7526 40.5366 79.5334 43.008Z" fill="#FEE675"/>
<path d="M71.0769 35.8865C73.4579 33.4417 73.302 29.4256 70.7288 26.9164C68.1555 24.4072 64.1393 24.355 61.7584 26.7998C59.3774 29.2447 59.5333 33.2607 62.1065 35.7699C64.6798 38.2791 68.696 38.3313 71.0769 35.8865Z" fill="#FEE675"/>
<path d="M91.588 78.3467H46.0907C45.6944 78.3427 45.3144 78.1885 45.0272 77.9152C44.74 77.642 44.5669 77.27 44.5428 76.8742L44.1999 70.2023C44.1881 70.0125 44.2156 69.8223 44.2806 69.6436C44.3456 69.465 44.4468 69.3016 44.5777 69.1638C44.7087 69.0261 44.8667 68.9168 45.0418 68.843C45.2169 68.7691 45.4054 68.7321 45.5954 68.7345H91.0927C91.4882 68.7385 91.8676 68.892 92.1547 69.1643C92.4418 69.4365 92.6153 69.8073 92.6405 70.2023L92.9835 76.8742C92.996 77.0643 92.969 77.255 92.9043 77.4343C92.8396 77.6135 92.7386 77.7775 92.6075 77.9158C92.4765 78.0541 92.3182 78.1637 92.1428 78.2379C91.9673 78.3121 91.7785 78.3491 91.588 78.3467Z" fill="white"/>
<path d="M77.6533 65.0438H58.6505C58.2526 65.0408 57.8707 64.8865 57.5824 64.6121C57.294 64.3378 57.1208 63.9639 57.0978 63.5664L57.0264 62.1367C57.0139 61.9466 57.0409 61.7559 57.1056 61.5766C57.1703 61.3974 57.2713 61.2335 57.4024 61.0952C57.5334 60.9569 57.6916 60.8472 57.8671 60.773C58.0425 60.6988 58.2314 60.6618 58.4219 60.6642H77.4199C77.8162 60.6683 78.1962 60.8224 78.4835 61.0957C78.7707 61.3689 78.9437 61.7409 78.9678 62.1367L79.044 63.5664C79.0557 63.7563 79.0284 63.9465 78.9638 64.1253C78.8992 64.3042 78.7986 64.4679 78.6683 64.6064C78.538 64.7448 78.3807 64.855 78.2061 64.9303C78.0315 65.0055 77.8434 65.0441 77.6533 65.0438Z" fill="#FEE675"/>
<path d="M84.7229 110.419H56.2568C55.5827 110.411 54.9367 110.148 54.4483 109.683C53.9598 109.218 53.665 108.585 53.623 107.912L53.4563 104.624C53.4395 104.301 53.4887 103.977 53.6008 103.674C53.7129 103.37 53.8857 103.093 54.1085 102.858C54.3313 102.624 54.5995 102.437 54.8968 102.31C55.1941 102.182 55.5142 102.117 55.8377 102.117H84.2943C84.9684 102.125 85.6144 102.388 86.1028 102.853C86.5913 103.318 86.886 103.951 86.928 104.624L87.0947 107.912C87.1115 108.235 87.0626 108.557 86.9511 108.86C86.8396 109.163 86.6677 109.44 86.4459 109.674C86.2241 109.909 85.957 110.096 85.6608 110.224C85.3646 110.352 85.0456 110.418 84.7229 110.419Z" fill="#56ABA1"/>
<path d="M92.4209 94.4765H46.9188C46.5229 94.4713 46.1435 94.3167 45.8565 94.0437C45.5695 93.7707 45.3961 93.3993 45.371 93.0039L45.028 86.332C45.0163 86.142 45.0437 85.9516 45.1087 85.7727C45.1736 85.5937 45.2747 85.4301 45.4056 85.292C45.5365 85.1538 45.6945 85.0441 45.8696 84.9697C46.0447 84.8953 46.2333 84.8578 46.4235 84.8594H91.9208C92.3171 84.8635 92.6971 85.0177 92.9843 85.2909C93.2715 85.5642 93.4446 85.9362 93.4687 86.332L93.8163 93.0039C93.8274 93.1937 93.7995 93.3838 93.7342 93.5625C93.669 93.7411 93.5679 93.9044 93.4372 94.0424C93.3064 94.1804 93.1487 94.2901 92.9739 94.3648C92.7992 94.4394 92.6109 94.4774 92.4209 94.4765Z" fill="white"/>
<path d="M51.8605 73.5362C51.8736 73.7468 51.8432 73.9578 51.7711 74.1561C51.699 74.3544 51.5869 74.5357 51.4416 74.6887C51.2963 74.8416 51.1211 74.963 50.9269 75.0451C50.7326 75.1272 50.5235 75.1684 50.3127 75.166C49.8746 75.1608 49.4548 74.9898 49.1376 74.6875C48.8204 74.3851 48.6293 73.9738 48.6029 73.5362C48.5891 73.3258 48.6189 73.1149 48.6904 72.9166C48.762 72.7183 48.8737 72.537 49.0186 72.3839C49.1635 72.2309 49.3384 72.1095 49.5324 72.0273C49.7264 71.9451 49.9353 71.9039 50.146 71.9064C50.5845 71.9115 51.0049 72.0823 51.3229 72.3846C51.6409 72.6868 51.8329 73.0982 51.8605 73.5362Z" fill="#263238"/>
<path d="M56.8772 73.5362C56.891 73.7466 56.8612 73.9575 56.7897 74.1558C56.7182 74.3541 56.6065 74.5354 56.4616 74.6885C56.3167 74.8415 56.1417 74.9629 55.9477 75.0451C55.7537 75.1273 55.5448 75.1685 55.3342 75.166C54.8958 75.1619 54.4753 74.9913 54.1578 74.6887C53.8404 74.3861 53.6497 73.9742 53.6244 73.5362C53.6106 73.3258 53.6404 73.1149 53.7119 72.9166C53.7834 72.7183 53.8952 72.537 54.0401 72.3839C54.185 72.2309 54.3599 72.1095 54.5539 72.0273C54.7479 71.9451 54.9568 71.9039 55.1675 71.9064C55.6059 71.9105 56.0263 72.0811 56.3438 72.3837C56.6612 72.6863 56.8519 73.0982 56.8772 73.5362Z" fill="#263238"/>
<path d="M61.8622 73.5362C61.876 73.7465 61.8462 73.9575 61.7746 74.1558C61.7031 74.3541 61.5914 74.5354 61.4465 74.6885C61.3016 74.8415 61.1266 74.9629 60.9326 75.0451C60.7386 75.1273 60.5297 75.1684 60.3191 75.166C59.8805 75.1609 59.4601 74.9901 59.1421 74.6878C58.8242 74.3855 58.6321 73.9742 58.6045 73.5362C58.5914 73.3256 58.6219 73.1145 58.6939 72.9162C58.766 72.7179 58.8782 72.5367 59.0235 72.3837C59.1687 72.2307 59.3439 72.1094 59.5382 72.0273C59.7324 71.9451 59.9415 71.904 60.1524 71.9063C60.5904 71.9116 61.0103 72.0826 61.3275 72.3849C61.6447 72.6873 61.8357 73.0986 61.8622 73.5362Z" fill="#263238"/>
<path d="M66.8875 73.5361C66.9006 73.7463 66.8703 73.957 66.7985 74.1549C66.7267 74.3529 66.615 74.534 66.4702 74.6869C66.3255 74.8398 66.1508 74.9612 65.9572 75.0436C65.7635 75.1261 65.5549 75.1677 65.3445 75.166C64.9059 75.1608 64.4855 74.99 64.1675 74.6878C63.8496 74.3855 63.6575 73.9741 63.6299 73.5361C63.6168 73.3259 63.6471 73.1153 63.7189 72.9173C63.7907 72.7194 63.9025 72.5383 64.0472 72.3854C64.192 72.2325 64.3666 72.1111 64.5603 72.0287C64.754 71.9462 64.9625 71.9046 65.173 71.9063C65.6116 71.9114 66.032 72.0823 66.3499 72.3845C66.6679 72.6868 66.8599 73.0982 66.8875 73.5361Z" fill="#263238"/>
<path d="M52.704 89.6612C52.7178 89.8716 52.688 90.0825 52.6164 90.2808C52.5449 90.4791 52.4332 90.6604 52.2883 90.8135C52.1434 90.9665 51.9685 91.0879 51.7744 91.1701C51.5804 91.2523 51.3715 91.2935 51.1609 91.291C50.7223 91.2859 50.3019 91.1151 49.9839 90.8128C49.666 90.5105 49.4739 90.0992 49.4463 89.6612C49.4332 89.4506 49.4637 89.2396 49.5357 89.0413C49.6078 88.843 49.72 88.6617 49.8653 88.5087C50.0105 88.3558 50.1857 88.2344 50.38 88.1523C50.5742 88.0701 50.7833 88.029 50.9942 88.0313C51.4322 88.0366 51.8521 88.2076 52.1693 88.5099C52.4865 88.8123 52.6775 89.2236 52.704 89.6612Z" fill="#263238"/>
<path d="M57.7082 89.6612C57.7213 89.8714 57.691 90.082 57.6192 90.28C57.5474 90.478 57.4356 90.659 57.2909 90.8119C57.1461 90.9648 56.9715 91.0863 56.7778 91.1687C56.5841 91.2511 56.3755 91.2928 56.1651 91.2911C55.7265 91.2859 55.3061 91.1151 54.9882 90.8128C54.6702 90.5106 54.4782 90.0992 54.4505 89.6612C54.4368 89.4508 54.4666 89.2399 54.5381 89.0416C54.6096 88.8433 54.7213 88.662 54.8662 88.5089C55.0111 88.3559 55.1861 88.2345 55.3801 88.1523C55.5741 88.0701 55.783 88.0289 55.9936 88.0314C56.4322 88.0365 56.8526 88.2073 57.1706 88.5096C57.4885 88.8118 57.6806 89.2232 57.7082 89.6612Z" fill="#263238"/>
<path d="M62.716 89.6612C62.7291 89.8718 62.6987 90.0828 62.6266 90.2811C62.5545 90.4794 62.4423 90.6607 62.2971 90.8137C62.1518 90.9666 61.9766 91.088 61.7823 91.1701C61.5881 91.2523 61.379 91.2934 61.1681 91.2911C60.7297 91.287 60.3093 91.1163 59.9918 90.8137C59.6744 90.5111 59.4837 90.0992 59.4584 89.6612C59.4446 89.4508 59.4744 89.2399 59.5459 89.0416C59.6174 88.8433 59.7291 88.662 59.874 88.5089C60.0189 88.3559 60.1939 88.2345 60.3879 88.1523C60.5819 88.0701 60.7908 88.0289 61.0015 88.0314C61.44 88.0365 61.8604 88.2073 62.1784 88.5096C62.4964 88.8118 62.6884 89.2232 62.716 89.6612Z" fill="#263238"/>
<path d="M67.7157 89.6612C67.7295 89.8716 67.6997 90.0825 67.6281 90.2808C67.5566 90.4791 67.4449 90.6604 67.3 90.8135C67.1551 90.9665 66.9802 91.0879 66.7862 91.1701C66.5921 91.2523 66.3833 91.2935 66.1726 91.291C65.734 91.2859 65.3136 91.1151 64.9957 90.8128C64.6777 90.5105 64.4857 90.0992 64.458 89.6612C64.4449 89.4506 64.4754 89.2396 64.5475 89.0413C64.6195 88.843 64.7317 88.6617 64.877 88.5087C65.0222 88.3558 65.1975 88.2344 65.3917 88.1523C65.586 88.0701 65.795 88.029 66.0059 88.0313C66.4443 88.0354 66.8648 88.2061 67.1822 88.5087C67.4997 88.8113 67.6903 89.2232 67.7157 89.6612Z" fill="#263238"/>
<path d="M72.7215 89.6612C72.7353 89.8715 72.7055 90.0824 72.634 90.2807C72.5625 90.479 72.4507 90.6604 72.3059 90.8134C72.161 90.9665 71.986 91.0879 71.792 91.1701C71.598 91.2522 71.3891 91.2934 71.1784 91.291C70.7399 91.2859 70.3195 91.115 70.0015 90.8128C69.6835 90.5105 69.4915 90.0991 69.4639 89.6612C69.4508 89.451 69.4811 89.2403 69.5529 89.0423C69.6247 88.8444 69.7365 88.6633 69.8812 88.5104C70.026 88.3575 70.2006 88.2361 70.3943 88.1537C70.588 88.0712 70.7965 88.0296 71.007 88.0313C71.4455 88.0364 71.8659 88.2073 72.1839 88.5095C72.5019 88.8118 72.6939 89.2232 72.7215 89.6612Z" fill="#263238"/>
<path d="M77.7277 89.6612C77.7408 89.8718 77.7104 90.0828 77.6383 90.2811C77.5662 90.4794 77.454 90.6607 77.3088 90.8137C77.1635 90.9666 76.9883 91.088 76.7941 91.1701C76.5998 91.2523 76.3907 91.2934 76.1799 91.2911C75.7418 91.2858 75.322 91.1148 75.0048 90.8125C74.6876 90.5101 74.4965 90.0988 74.4701 89.6612C74.4563 89.4508 74.4861 89.2399 74.5576 89.0416C74.6292 88.8433 74.7409 88.662 74.8858 88.5089C75.0307 88.3559 75.2056 88.2345 75.3996 88.1523C75.5936 88.0701 75.8025 88.0289 76.0132 88.0314C76.4517 88.0365 76.8721 88.2073 77.1901 88.5096C77.5081 88.8118 77.7001 89.2232 77.7277 89.6612Z" fill="#263238"/>
<path d="M131.869 34.3281C131.988 34.5092 132.05 34.6045 132.126 34.7332L132.341 35.0859C132.479 35.3241 132.603 35.5624 132.722 35.7959C132.96 36.2725 133.198 36.7491 133.388 37.2256C133.788 38.1721 134.131 39.1412 134.417 40.1279C134.994 42.077 135.374 44.079 135.551 46.104L135.584 46.4805C135.588 46.5567 135.588 46.633 135.584 46.7092V46.9618C135.592 47.2932 135.573 47.6247 135.527 47.9531C135.436 48.5616 135.276 49.1579 135.051 49.7306C134.632 50.7535 134.078 51.7153 133.403 52.59C132.143 54.2038 130.649 55.6192 128.969 56.7885L127.654 55.2492C128.85 53.8975 129.91 52.4304 130.817 50.8696C131.225 50.1616 131.545 49.4061 131.769 48.6202C131.86 48.2874 131.913 47.9452 131.926 47.6004C131.941 47.453 131.941 47.3046 131.926 47.1572V47.0571C131.931 47.0128 131.931 46.968 131.926 46.9237L131.869 46.5901C131.563 44.814 131.13 43.0621 130.574 41.3479C130.298 40.4948 129.959 39.6704 129.621 38.865C129.455 38.4599 129.264 38.0644 129.074 37.6831L128.778 37.1208L128.631 36.8587L128.507 36.649L131.869 34.3281Z" fill="#803E3C"/>
<path d="M127.441 56.7889L129.165 60.4346L130.532 57.3512C130.532 57.3512 129.318 54.6825 127.675 54.9303L127.441 56.7889Z" fill="#7F3E3B"/>
<path d="M130.4 60.6238L131.771 58.3745L130.533 57.3594L129.166 60.4427L130.4 60.6238Z" fill="#7F3E3B"/>
<path d="M122.644 144.7C123.001 144.691 123.356 144.643 123.702 144.557C123.719 144.552 123.735 144.542 123.748 144.528C123.76 144.515 123.769 144.499 123.773 144.481C123.776 144.462 123.774 144.444 123.766 144.427C123.758 144.41 123.746 144.395 123.73 144.386C123.592 144.295 122.383 143.513 121.916 143.723C121.864 143.747 121.82 143.785 121.787 143.832C121.754 143.878 121.735 143.933 121.73 143.99C121.716 144.076 121.722 144.165 121.75 144.248C121.777 144.331 121.824 144.406 121.887 144.467C122.103 144.633 122.372 144.716 122.644 144.7ZM123.43 144.419C122.74 144.562 122.216 144.538 122.002 144.352C121.958 144.309 121.926 144.255 121.908 144.196C121.891 144.137 121.888 144.074 121.902 144.014C121.902 143.933 121.949 143.909 121.982 143.895C122.24 143.78 122.94 144.119 123.43 144.419Z" fill="#86C3BB"/>
<path d="M123.68 144.554H123.728C123.742 144.545 123.754 144.532 123.762 144.517C123.77 144.502 123.775 144.485 123.775 144.468C123.775 144.421 123.775 143.272 123.337 142.886C123.283 142.838 123.219 142.802 123.15 142.78C123.081 142.759 123.008 142.753 122.936 142.762C122.861 142.763 122.789 142.789 122.73 142.837C122.672 142.885 122.632 142.951 122.617 143.024C122.527 143.477 123.251 144.335 123.632 144.554H123.68ZM122.998 142.938C123.037 142.937 123.075 142.944 123.111 142.958C123.147 142.972 123.18 142.993 123.208 143.02C123.459 143.39 123.589 143.83 123.58 144.278C123.199 143.973 122.746 143.324 122.803 143.053C122.803 143.01 122.836 142.953 122.955 142.938H122.998Z" fill="#86C3BB"/>
<path d="M118.149 142.754C118.16 142.74 118.167 142.724 118.17 142.706C118.172 142.688 118.17 142.67 118.163 142.654C118.156 142.637 118.145 142.623 118.131 142.612C118.117 142.601 118.1 142.594 118.082 142.592C117.887 142.592 116.177 142.511 115.787 142.931V142.959C115.754 143 115.733 143.049 115.726 143.101C115.718 143.153 115.724 143.206 115.744 143.255C115.769 143.336 115.814 143.411 115.875 143.472C115.935 143.532 116.01 143.577 116.091 143.603C116.644 143.774 117.62 143.15 118.154 142.764L118.149 142.754ZM115.929 143.054C116.144 142.826 117.087 142.764 117.792 142.773C117.053 143.278 116.439 143.517 116.129 143.421C116.075 143.405 116.026 143.376 115.986 143.336C115.947 143.296 115.917 143.247 115.901 143.193C115.891 143.174 115.886 143.154 115.886 143.133C115.886 143.112 115.891 143.092 115.901 143.074L115.929 143.054Z" fill="#86C3BB"/>
<path d="M118.149 142.751C118.156 142.736 118.16 142.72 118.16 142.704C118.16 142.687 118.156 142.671 118.149 142.656C118.125 142.618 117.592 141.703 116.963 141.512C116.873 141.486 116.778 141.478 116.685 141.49C116.592 141.501 116.502 141.531 116.42 141.579C116.192 141.712 116.178 141.87 116.206 141.97C116.33 142.413 117.544 142.804 118.068 142.799C118.085 142.799 118.101 142.794 118.115 142.786C118.129 142.777 118.141 142.766 118.149 142.751ZM116.44 141.798C116.466 141.772 116.497 141.749 116.53 141.731C116.589 141.694 116.655 141.67 116.724 141.661C116.793 141.652 116.864 141.658 116.93 141.679C117.344 141.789 117.73 142.322 117.906 142.585C117.34 142.523 116.478 142.175 116.406 141.908C116.4 141.888 116.4 141.866 116.406 141.846C116.412 141.825 116.424 141.807 116.44 141.793V141.798Z" fill="#86C3BB"/>
<path d="M123.392 20.3672C122.916 22.75 121.887 27.9016 123.539 29.4838C123.539 29.4838 122.892 31.8666 118.496 31.8666C113.657 31.8666 116.186 29.4838 116.186 29.4838C118.824 28.8548 118.758 26.8913 118.296 25.0518L123.392 20.3672Z" fill="#7F3E3B"/>
<path d="M115.336 14.783C115.362 14.7874 115.39 14.7874 115.416 14.783C115.439 14.7719 115.459 14.7564 115.476 14.7373C115.492 14.7183 115.505 14.6962 115.513 14.6723C115.521 14.6483 115.524 14.6231 115.522 14.5979C115.52 14.5727 115.514 14.5482 115.502 14.5257C115.374 14.2538 115.183 14.0167 114.944 13.8343C114.705 13.6518 114.426 13.5294 114.131 13.4772C114.081 13.4731 114.032 13.488 113.993 13.519C113.954 13.55 113.928 13.5948 113.921 13.644C113.916 13.6939 113.93 13.7439 113.961 13.7831C113.993 13.8224 114.038 13.8478 114.088 13.8537C114.321 13.8986 114.541 13.9985 114.728 14.1452C114.915 14.2919 115.065 14.4811 115.164 14.6972C115.183 14.7254 115.208 14.7482 115.238 14.7633C115.268 14.7784 115.302 14.7852 115.336 14.783Z" fill="#263238"/>
<path d="M113.894 16.875C113.518 17.5707 113.05 18.212 112.502 18.7812C112.65 18.9171 112.827 19.0189 113.018 19.0798C113.21 19.1407 113.413 19.1592 113.612 19.1339L113.894 16.875Z" fill="#630F0F"/>
<path d="M114.248 16.3369C114.21 16.6562 114.005 16.8945 113.8 16.8706C113.595 16.8468 113.452 16.5656 113.491 16.2463C113.529 15.927 113.734 15.6888 113.967 15.7126C114.201 15.7364 114.282 16.0176 114.248 16.3369Z" fill="#263238"/>
<path d="M114.031 15.733L113.297 15.4375C113.297 15.4375 113.607 16.0666 114.031 15.733Z" fill="#263238"/>
<path d="M122.354 141.847L118.468 142.752L116.105 133.812L119.992 132.906L122.354 141.847Z" fill="#7F3E3B"/>
<path d="M128.316 144.459H124.33L124.64 135.219H128.631L128.316 144.459Z" fill="#7F3E3B"/>
<path d="M124.012 143.992H128.493C128.571 143.991 128.646 144.019 128.705 144.07C128.764 144.121 128.802 144.192 128.812 144.269L129.322 147.814C129.332 147.904 129.323 147.995 129.295 148.081C129.268 148.167 129.222 148.246 129.162 148.313C129.102 148.38 129.028 148.433 128.946 148.47C128.863 148.506 128.774 148.525 128.684 148.524C127.122 148.5 126.369 148.405 124.397 148.405C123.183 148.405 121.411 148.534 119.739 148.534C118.068 148.534 117.973 146.875 118.673 146.728C121.797 146.051 122.292 145.126 123.345 144.24C123.531 144.081 123.767 143.993 124.012 143.992Z" fill="#263238"/>
<path d="M118.124 142.154L122.196 140.281C122.265 140.248 122.344 140.241 122.417 140.262C122.491 140.283 122.555 140.33 122.596 140.395L124.544 143.407C124.589 143.484 124.618 143.571 124.628 143.66C124.638 143.749 124.63 143.84 124.603 143.925C124.576 144.011 124.531 144.09 124.472 144.158C124.412 144.225 124.34 144.28 124.258 144.317C122.829 144.946 122.105 145.18 120.315 146.004C119.214 146.509 116.981 147.672 115.466 148.387C113.952 149.102 113.171 147.62 113.742 147.191C116.3 145.285 117.033 143.917 117.619 142.673C117.718 142.444 117.898 142.259 118.124 142.154Z" fill="#263238"/>
<path opacity="0.2" d="M116.105 133.812L117.372 138.606L121.211 137.515L119.997 132.906L116.105 133.812Z" fill="black"/>
<path opacity="0.2" d="M128.633 135.219H124.642L124.484 139.984H128.475L128.633 135.219Z" fill="black"/>
<path d="M130.441 30.3882C132.098 30.7552 133.87 36.717 133.87 36.717L129.183 41.7066C129.183 41.7066 125.292 36.1022 126.088 34.0434C126.893 31.8941 128.464 29.9593 130.441 30.3882Z" fill="#263238"/>
<path opacity="0.4" d="M127.793 34.1899C126.954 33.4226 126.388 33.6514 126.002 34.2614C125.621 36.0342 127.878 39.7466 128.788 41.1525C129.207 39.475 129.688 35.9389 127.793 34.1899Z" fill="black"/>
<path d="M109.443 30.5086C109.443 30.5086 107.538 31.1758 111.348 54.5988H127.541C127.27 48.0032 127.26 43.9333 130.399 30.3894C128.13 29.921 125.83 29.6184 123.517 29.484C121.069 29.3074 118.611 29.3074 116.163 29.484C113.025 29.7747 109.443 30.5086 109.443 30.5086Z" fill="#263238"/>
<path opacity="0.4" d="M109.297 39.4929C109.402 40.6319 109.54 41.9138 109.721 43.3626C111.05 42.1664 112.135 38.7637 111.735 36.7812C110.786 37.5522 109.963 38.4672 109.297 39.4929Z" fill="black"/>
<path d="M111.027 35.9377C110.153 38.1383 109.17 40.2935 108.079 42.3952C107.001 44.5726 105.726 46.6465 104.269 48.5905L103.964 48.9669L103.812 49.1528C103.759 49.2148 103.717 49.272 103.636 49.3577C103.349 49.6706 103.03 49.9518 102.683 50.1965C102.07 50.6208 101.4 50.9546 100.692 51.1877C99.4581 51.5822 98.1767 51.8097 96.8822 51.8644C94.4579 51.9609 92.0313 51.7447 89.6621 51.2211L89.924 49.2195C91.0195 49.2195 92.1672 49.2195 93.2579 49.129C94.3533 49.0751 95.4444 48.9541 96.525 48.7668C97.5287 48.6101 98.5103 48.335 99.4493 47.9471C99.8285 47.785 100.183 47.57 100.502 47.3085C100.624 47.2065 100.734 47.0914 100.83 46.9654C100.83 46.9654 100.888 46.8891 100.926 46.8367L101.035 46.6794L101.259 46.3649C102.454 44.5178 103.519 42.5894 104.445 40.5937C105.398 38.5684 106.35 36.4667 107.222 34.3984L111.027 35.9377Z" fill="#803E3C"/>
<path d="M109.444 30.5054C107.458 30.9819 105.02 36.4338 105.02 36.4338L109.134 42.4862C109.134 42.4862 114.616 35.5808 113.964 33.4744C113.297 31.2774 111.868 29.9144 109.444 30.5054Z" fill="#263238"/>
<path d="M91.0697 49.5245L87.6359 47.9375L87.293 51.3545C87.293 51.3545 90.1505 52.198 91.5793 51.3545L91.0697 49.5245Z" fill="#7F3E3B"/>
<path d="M85.5825 47.5938L85.2539 50.1958L87.2923 51.3538L87.6352 47.9369L85.5825 47.5938Z" fill="#7F3E3B"/>
<path d="M125.119 16.5676C124.391 20.4611 124.167 22.1291 121.938 23.8971C118.604 26.5563 113.961 24.8121 113.513 20.7804C113.103 17.149 114.361 11.3921 118.395 10.296C119.283 10.0507 120.22 10.0373 121.115 10.257C122.01 10.4767 122.834 10.9222 123.509 11.5511C124.183 12.18 124.685 12.9712 124.967 13.8494C125.249 14.7276 125.302 15.6634 125.119 16.5676Z" fill="#7F3E3B"/>
<path d="M116.568 17.3896C116.344 19.3769 116.259 24.538 120.621 24.7001C125.96 24.8955 127.56 20.33 127.084 18.5047C129.865 16.2411 130.265 12.3476 127.141 9.36905C124.017 6.39053 117.14 8.05374 115.235 10.956C112.82 14.554 116.568 17.3896 116.568 17.3896Z" fill="#263238"/>
<path d="M121.916 10.5252C121.658 8.42836 121.859 6.98438 123.821 6.98438C125.783 6.98438 128.46 7.69445 129.441 9.70078C130.422 11.7071 130.503 14.8477 127.764 14.5284C125.026 14.2091 122.225 13.032 121.916 10.5252Z" fill="#86C3BB"/>
<path d="M124.955 10.0199C124.479 7.5227 126.712 0.488639 132.137 0.0120767C134.652 -0.202376 135.814 2.5045 134.518 2.95247C136.9 2.92387 138.424 6.07395 136.204 6.54575C137.957 7.67044 137.524 9.977 135.023 11.1112C133.161 11.969 125.598 13.4797 124.955 10.0199Z" fill="#263238"/>
<path d="M130.751 12.7001C129.003 12.7001 127.179 12.4428 126.045 11.6851C125.728 11.4939 125.461 11.2299 125.267 10.915C125.072 10.6001 124.955 10.2433 124.926 9.87413C124.924 9.84279 124.935 9.81209 124.955 9.78821C124.976 9.76433 125.004 9.74905 125.035 9.74546C125.051 9.74347 125.067 9.74478 125.082 9.74933C125.098 9.75387 125.112 9.76155 125.124 9.77186C125.136 9.78218 125.146 9.79491 125.153 9.80923C125.16 9.82356 125.164 9.83917 125.164 9.85507C125.193 10.1882 125.3 10.5098 125.476 10.7938C125.652 11.0778 125.893 11.3163 126.178 11.4897C128.336 12.9194 133.322 12.4428 134.875 11.9662C136.218 11.5278 137.128 10.6748 137.309 9.69304C137.365 9.33279 137.321 8.96393 137.18 8.62743C137.04 8.29093 136.809 7.99995 136.513 7.78679C136.502 7.77609 136.493 7.76317 136.487 7.74883C136.48 7.73448 136.477 7.71902 136.477 7.70339C136.477 7.68776 136.48 7.6723 136.487 7.65795C136.493 7.64361 136.502 7.63069 136.513 7.61999C136.536 7.59816 136.566 7.58594 136.597 7.58594C136.628 7.58594 136.658 7.59816 136.68 7.61999C137.013 7.86271 137.271 8.19315 137.427 8.57438C137.582 8.95561 137.629 9.37262 137.561 9.77882C137.366 10.8511 136.399 11.7661 134.97 12.2331C133.592 12.5809 132.172 12.738 130.751 12.7001Z" fill="#263238"/>
<path d="M115.355 16.8729C114.911 17.4954 114.728 18.2667 114.845 19.0222C115.002 20.023 115.974 20.0897 116.679 19.4511C117.383 18.8125 117.998 17.6592 117.479 16.83C117.363 16.6509 117.204 16.5043 117.016 16.4042C116.828 16.3041 116.618 16.2538 116.405 16.2581C116.192 16.2624 115.983 16.3211 115.8 16.4287C115.616 16.5364 115.463 16.6893 115.355 16.8729Z" fill="#7F3E3B"/>
<path d="M115.625 54.5938C115.625 54.5938 117.94 81.9913 120.345 97.4319C122.283 109.904 123.817 139.055 123.817 139.055H129.256C129.256 139.055 131.189 110.776 130.208 98.4423C127.717 67.2274 133.275 64.6826 127.555 54.5985L115.625 54.5938Z" fill="#9FCFC9"/>
<path opacity="0.4" d="M122.473 64.9531C120.317 67.2169 118.578 69.8432 117.334 72.7116C117.967 78.8688 118.72 85.7026 119.52 91.6883C122.803 83.1832 123.821 73.9703 122.473 64.9531Z" fill="black"/>
<path d="M111.821 54.4219C111.821 54.4219 106.796 84.3452 106.006 97.832C107.978 110.304 116.045 136.667 116.045 136.667L120.994 134.87C120.994 134.87 118.255 106.124 115.279 98.2561C121.98 75.6813 126.904 69.9721 125.471 54.5934C122.037 54.5934 111.821 54.4219 111.821 54.4219Z" fill="#9FCFC9"/>
<path d="M115.384 137.984L122.07 136.169L121.689 133.5L114.531 135.44L115.384 137.984Z" fill="#263238"/>
<path d="M123.069 139.17H129.999L130.361 136.74L123.031 136.492L123.069 139.17Z" fill="#263238"/>
<path d="M127.794 53.6419L128.523 55.0954C128.58 55.2098 128.446 55.3242 128.261 55.3242H111.268C111.125 55.3242 111.001 55.2527 110.991 55.1574L110.844 53.7277C110.844 53.6276 110.963 53.5418 111.12 53.5418H127.527C127.576 53.5351 127.627 53.5407 127.673 53.5582C127.72 53.5756 127.761 53.6044 127.794 53.6419Z" fill="#86C3BB"/>
<path opacity="0.5" d="M127.794 53.6419L128.523 55.0954C128.58 55.2098 128.446 55.3242 128.261 55.3242H111.268C111.125 55.3242 111.001 55.2527 110.991 55.1574L110.844 53.7277C110.844 53.6276 110.963 53.5418 111.12 53.5418H127.527C127.576 53.5351 127.627 53.5407 127.673 53.5582C127.72 53.5756 127.761 53.6044 127.794 53.6419Z" fill="black"/>
<path d="M125.59 55.4736H126.028C126.119 55.4736 126.185 55.4259 126.181 55.3735L125.971 53.4673C125.971 53.4101 125.89 53.3672 125.804 53.3672H125.361C125.275 53.3672 125.208 53.4101 125.213 53.4673L125.418 55.3735C125.428 55.4355 125.504 55.4736 125.59 55.4736Z" fill="#86C3BB"/>
<path d="M119.692 41.5997C119.64 41.5989 119.589 41.5814 119.547 41.5497C119.505 41.518 119.474 41.4737 119.459 41.4233C117.906 35.676 114.696 30.939 113.139 30.2241C113.018 30.1498 112.872 30.1258 112.734 30.1574C112.705 30.1726 112.674 30.1817 112.641 30.1842C112.609 30.1867 112.576 30.1825 112.545 30.1719C112.515 30.1614 112.486 30.1446 112.462 30.1227C112.438 30.1008 112.419 30.0741 112.406 30.0445C112.392 30.0148 112.385 29.9828 112.385 29.9502C112.384 29.9177 112.39 29.8854 112.403 29.8554C112.415 29.8253 112.434 29.7981 112.457 29.7755C112.481 29.7529 112.508 29.7352 112.539 29.7237C112.669 29.6759 112.808 29.6571 112.946 29.6686C113.084 29.6801 113.218 29.7217 113.339 29.7905C114.987 30.572 118.244 35.2423 119.873 41.1183C121.04 41.1183 122.84 40.9611 123.278 40.923C123.821 40.2748 127.812 35.2805 126.322 29.8143C126.313 29.7842 126.311 29.7528 126.314 29.7217C126.318 29.6907 126.328 29.6608 126.344 29.6337C126.359 29.6065 126.38 29.5828 126.405 29.5639C126.43 29.545 126.458 29.5313 126.488 29.5236C126.549 29.5075 126.613 29.516 126.668 29.5472C126.722 29.5785 126.762 29.6299 126.779 29.6904C128.441 35.7713 123.621 41.2566 123.569 41.309C123.55 41.3321 123.527 41.3512 123.501 41.3651C123.475 41.3791 123.446 41.3875 123.416 41.39C123.393 41.39 121.016 41.5997 119.692 41.5997Z" fill="#FEE989"/>
<path d="M127.583 44.9606C124.988 40.0949 123.926 39.7518 123.464 38.1886C123.814 37.3146 124.313 36.5082 124.94 35.8058C124.626 35.7153 123.949 35.5818 123.511 35.5008C123.559 35.2864 123.611 35.0767 123.659 34.8718C123.182 34.8184 122.7 34.8409 122.23 34.9385V34.4619C121.625 34.3302 121.004 34.2901 120.387 34.3428C120.441 34.5684 120.493 34.7971 120.544 35.029C120.068 35.1196 119.344 35.2673 118.996 35.3674C119.672 36.133 120.168 37.0399 120.449 38.0219C119.049 40.4285 113.61 55.8977 122.459 57.0843C131.308 58.271 130.174 49.8311 127.583 44.9606Z" fill="#FEED9C"/>
<path opacity="0.4" d="M127.583 44.9606C124.988 40.0949 123.926 39.7518 123.464 38.1886C123.814 37.3146 124.313 36.5082 124.94 35.8058C124.626 35.7153 123.949 35.5818 123.511 35.5008C123.559 35.2864 123.611 35.0767 123.659 34.8718C123.182 34.8184 122.7 34.8409 122.23 34.9385V34.4619C121.625 34.3302 121.004 34.2901 120.387 34.3428C120.441 34.5684 120.493 34.7971 120.544 35.029C120.068 35.1196 119.344 35.2673 118.996 35.3674C119.672 36.133 120.168 37.0399 120.449 38.0219C119.049 40.4285 113.61 55.8977 122.459 57.0843C131.308 58.271 130.174 49.8311 127.583 44.9606Z" fill="white"/>
<path d="M120.088 37.5578C120.033 37.8032 120.009 38.0546 120.017 38.306C120.017 38.4823 120.493 38.6015 121.022 38.6539C121.551 38.7063 123.77 38.7921 123.699 38.5443C123.627 38.2965 123.808 37.9581 123.818 37.7484C123.827 37.5388 122.937 37.5292 122.189 37.5578C121.441 37.5864 120.236 37.2909 120.088 37.5578Z" fill="#86C3BB"/>
<path d="M114.941 55.4736H115.379C115.465 55.4736 115.531 55.4259 115.527 55.3735L115.322 53.4673C115.322 53.4101 115.241 53.3672 115.15 53.3672H114.726C114.64 53.3672 114.574 53.4101 114.578 53.4673L114.783 55.3735C114.774 55.4355 114.85 55.4736 114.941 55.4736Z" fill="#86C3BB"/>
</svg>
