<svg width="104" height="104" viewBox="0 0 104 104" fill="none" xmlns="http://www.w3.org/2000/svg">
<path fill-rule="evenodd" clip-rule="evenodd" d="M69.6552 8.242C74.9898 6.81258 80.4732 9.97841 81.9026 15.3131L95.7596 67.0279C97.189 72.3625 94.0232 77.8459 88.6885 79.2753L36.9737 93.1323C31.6391 94.5617 26.1557 91.3959 24.7263 86.0612L10.8693 34.3464C9.4399 29.0117 12.6057 23.5284 17.9404 22.0989L69.6552 8.242Z" fill="#B7DBD7"/>
<path fill-rule="evenodd" clip-rule="evenodd" d="M44.9289 7.07107C48.8342 3.16583 55.1658 3.16582 59.0711 7.07107L96.9289 44.9289C100.834 48.8342 100.834 55.1658 96.9289 59.0711L59.0711 96.9289C55.1658 100.834 48.8342 100.834 44.9289 96.9289L7.07107 59.0711C3.16583 55.1658 3.16582 48.8342 7.07107 44.9289L44.9289 7.07107Z" fill="#3E9F93"/>
<path d="M70.2615 58.8004H33.7998C31.1551 58.8004 29.002 56.6686 29.002 54.0501V40.75C29.002 38.1319 31.1551 36 33.7995 36H70.2611C72.9058 36 75.059 38.1319 75.059 40.75V54.0501C75.059 56.6686 72.9058 58.8004 70.2615 58.8004ZM33.799 37.8996C32.2119 37.8996 30.9204 39.1783 30.9204 40.7497V54.0498C30.9204 55.6211 32.2119 56.8998 33.799 56.8998H70.2606C71.8477 56.8998 73.1392 55.6211 73.1392 54.0498V40.7497C73.1395 39.1783 71.848 37.8996 70.261 37.8996H33.799Z" fill="white"/>
<path d="M74.0977 51.2002H29.9593C29.4299 51.2002 29 50.7746 29 50.2504C29 49.7259 29.4299 49.3003 29.9596 49.3003H74.098C74.6275 49.3003 75.0573 49.7259 75.0573 50.2504C75.0573 50.7746 74.6275 51.2002 74.0977 51.2002Z" fill="white"/>
<path d="M44.3997 74C44.1539 74 43.9085 73.9068 43.7202 73.7227C43.3459 73.3521 43.3459 72.75 43.7202 72.3794C44.8947 71.2165 44.4129 69.8067 43.5284 67.6007C42.7069 65.5487 41.6843 62.9951 43.7202 60.9791C44.0945 60.6085 44.7026 60.6085 45.0769 60.9791C45.4512 61.3497 45.4512 61.9518 45.0769 62.3224C43.9888 63.3997 44.4572 64.764 45.313 66.8997C46.1535 69.0013 47.2015 71.6176 45.0769 73.7227C44.8909 73.9072 44.6454 74 44.3997 74Z" fill="white"/>
<path d="M52.0442 74C51.7984 74 51.553 73.9068 51.3647 73.7227C50.9904 73.3521 50.9904 72.75 51.3647 72.3794C52.5393 71.2165 52.0574 69.8067 51.1729 67.6007C50.3514 65.5487 49.3288 62.9951 51.3647 60.9791C51.739 60.6085 52.3471 60.6085 52.7214 60.9791C53.0957 61.3497 53.0957 61.9518 52.7214 62.3224C51.6333 63.3997 52.1017 64.764 52.9576 66.8997C53.798 69.0013 54.846 71.6176 52.7214 73.7227C52.5354 73.9072 52.2897 74 52.0442 74Z" fill="white"/>
<path d="M59.6926 74C59.4469 74 59.2014 73.9068 59.0132 73.7227C58.6389 73.3521 58.6389 72.75 59.0132 72.3794C60.1877 71.2165 59.7058 69.8067 58.8214 67.6007C57.9999 65.5487 56.9773 62.9951 59.0132 60.9791C59.3874 60.6085 59.9956 60.6085 60.3699 60.9791C60.7442 61.3497 60.7442 61.9518 60.3699 62.3224C59.2818 63.3997 59.7501 64.764 60.606 66.8997C61.4465 69.0013 62.4944 71.6176 60.3699 73.7227C60.1839 73.9072 59.9381 74 59.6926 74Z" fill="white"/>
<path d="M70.2592 55H33.7975C33.2678 55 32.8379 54.5744 32.8379 54.0499C32.8379 53.5257 33.2678 53.1001 33.7972 53.1001H70.2589C70.7886 53.1001 71.2185 53.5257 71.2185 54.0502C71.2185 54.5744 70.7886 55 70.2592 55Z" fill="white"/>
<path d="M35.7174 47.4002C35.1877 47.4002 34.7578 46.9746 34.7578 46.4501V40.7499C34.7578 40.2254 35.1877 39.7998 35.7174 39.7998C36.2469 39.7998 36.6768 40.2254 36.6768 40.7499V46.4501C36.6768 46.9746 36.2469 47.4002 35.7174 47.4002Z" fill="white"/>
<path d="M41.4753 47.4002C40.9455 47.4002 40.5156 46.9746 40.5156 46.4501V40.7499C40.5156 40.2254 40.9455 39.7998 41.4753 39.7998C42.0047 39.7998 42.4346 40.2254 42.4346 40.7499V46.4501C42.4346 46.9746 42.0047 47.4002 41.4753 47.4002Z" fill="white"/>
<path d="M47.2311 47.4002C46.7013 47.4002 46.2715 46.9746 46.2715 46.4501V40.7499C46.2715 40.2254 46.7013 39.7998 47.2311 39.7998C47.7606 39.7998 48.1904 40.2254 48.1904 40.7499V46.4501C48.1904 46.9746 47.7606 47.4002 47.2311 47.4002Z" fill="white"/>
<path d="M52.9889 47.4002C52.4592 47.4002 52.0293 46.9746 52.0293 46.4501V40.7499C52.0293 40.2254 52.4592 39.7998 52.9889 39.7998C53.5184 39.7998 53.9482 40.2254 53.9482 40.7499V46.4501C53.9482 46.9746 53.5184 47.4002 52.9889 47.4002Z" fill="white"/>
<path d="M58.7467 47.4002C58.217 47.4002 57.7871 46.9746 57.7871 46.4501V40.7499C57.7871 40.2254 58.217 39.7998 58.7467 39.7998C59.2762 39.7998 59.706 40.2254 59.706 40.7499V46.4501C59.706 46.9746 59.2762 47.4002 58.7467 47.4002Z" fill="white"/>
<path d="M64.5026 47.4002C63.9728 47.4002 63.543 46.9746 63.543 46.4501V40.7499C63.543 40.2254 63.9728 39.7998 64.5026 39.7998C65.0321 39.7998 65.4619 40.2254 65.4619 40.7499V46.4501C65.4619 46.9746 65.032 47.4002 64.5026 47.4002Z" fill="white"/>
<path d="M71.2197 46.4496C71.2197 46.9742 70.7902 47.3998 70.2604 47.3998C69.7303 47.3998 69.3008 46.9742 69.3008 46.4496C69.3008 45.9251 69.7303 45.4995 70.2604 45.4995C70.7902 45.4995 71.2197 45.9251 71.2197 46.4496Z" fill="white"/>
</svg>
