<svg width="48" height="48" viewBox="0 0 48 48" fill="none" xmlns="http://www.w3.org/2000/svg">
<path fill-rule="evenodd" clip-rule="evenodd" d="M31.7771 3.90298C34.4444 3.18827 37.1861 4.77119 37.9008 7.43852L44.0972 30.5639C44.8119 33.2312 43.229 35.9729 40.5617 36.6876L17.4363 42.884C14.769 43.5987 12.0273 42.0158 11.3126 39.3485L5.11617 16.2231C4.40146 13.5558 5.98438 10.8141 8.65171 10.0994L31.7771 3.90298Z" fill="#B7DBD7"/>
<path fill-rule="evenodd" clip-rule="evenodd" d="M20.4645 3.53554C22.4171 1.58291 25.5829 1.58291 27.5355 3.53553L44.4645 20.4645C46.4171 22.4171 46.4171 25.5829 44.4645 27.5355L27.5355 44.4645C25.5829 46.4171 22.4171 46.4171 20.4645 44.4645L3.53553 27.5355C1.58291 25.5829 1.58291 22.4171 3.53553 20.4645L20.4645 3.53554Z" fill="white"/>
<path d="M33.328 27.84H14.9053C13.569 27.84 12.4811 26.7629 12.4811 25.4399V18.7198C12.4811 17.397 13.569 16.3198 14.9051 16.3198H33.3278C34.6641 16.3198 35.752 17.397 35.752 18.7198V25.4399C35.752 26.7629 34.6641 27.84 33.328 27.84ZM14.9048 17.2796C14.1029 17.2796 13.4504 17.9257 13.4504 18.7197V25.4397C13.4504 26.2337 14.1029 26.8797 14.9048 26.8797H33.3276C34.1295 26.8797 34.782 26.2337 34.782 25.4397V18.7197C34.7822 17.9257 34.1296 17.2796 33.3277 17.2796H14.9048Z" fill="#0E8778"/>
<path d="M35.2663 24H12.9647C12.6972 24 12.48 23.785 12.48 23.5201C12.48 23.2551 12.6972 23.04 12.9649 23.04H35.2664C35.5339 23.04 35.7511 23.2551 35.7511 23.5201C35.7511 23.785 35.5339 24 35.2663 24Z" fill="#0E8778"/>
<path d="M20.2609 35.5202C20.1368 35.5202 20.0127 35.4731 19.9176 35.3801C19.7285 35.1928 19.7285 34.8886 19.9176 34.7014C20.5111 34.1138 20.2676 33.4015 19.8207 32.2869C19.4056 31.2501 18.889 29.9598 19.9176 28.9412C20.1067 28.754 20.414 28.754 20.6031 28.9412C20.7922 29.1284 20.7922 29.4327 20.6031 29.6199C20.0533 30.1643 20.29 30.8536 20.7224 31.9327C21.1471 32.9945 21.6766 34.3165 20.6031 35.3801C20.5091 35.4733 20.3851 35.5202 20.2609 35.5202Z" fill="#0E8778"/>
<path d="M24.1234 35.5202C23.9992 35.5202 23.8752 35.4731 23.7801 35.3801C23.591 35.1928 23.591 34.8886 23.7801 34.7014C24.3736 34.1138 24.1301 33.4015 23.6832 32.2869C23.2681 31.2501 22.7515 29.9598 23.7801 28.9412C23.9692 28.754 24.2765 28.754 24.4656 28.9412C24.6547 29.1284 24.6547 29.4327 24.4656 29.6199C23.9158 30.1643 24.1525 30.8536 24.5849 31.9327C25.0096 32.9945 25.5391 34.3165 24.4656 35.3801C24.3716 35.4733 24.2474 35.5202 24.1234 35.5202Z" fill="#0E8778"/>
<path d="M27.9878 35.5202C27.8636 35.5202 27.7396 35.4731 27.6445 35.3801C27.4554 35.1928 27.4554 34.8886 27.6445 34.7014C28.2379 34.1138 27.9945 33.4015 27.5476 32.2869C27.1325 31.2501 26.6158 29.9598 27.6445 28.9412C27.8336 28.754 28.1409 28.754 28.33 28.9412C28.5191 29.1284 28.5191 29.4327 28.33 29.6199C27.7802 30.1643 28.0169 30.8536 28.4493 31.9327C28.874 32.9945 29.4035 34.3165 28.33 35.3801C28.236 35.4733 28.1118 35.5202 27.9878 35.5202Z" fill="#0E8778"/>
<path d="M33.3266 25.9199H14.9039C14.6362 25.9199 14.419 25.7049 14.419 25.4399C14.419 25.175 14.6362 24.96 14.9037 24.96H33.3265C33.5941 24.96 33.8113 25.175 33.8113 25.44C33.8113 25.7049 33.5941 25.9199 33.3266 25.9199Z" fill="#0E8778"/>
<path d="M15.874 22.08C15.6063 22.08 15.3891 21.8649 15.3891 21.5999V18.7198C15.3891 18.4548 15.6063 18.2397 15.874 18.2397C16.1415 18.2397 16.3587 18.4548 16.3587 18.7198V21.5999C16.3587 21.8649 16.1415 22.08 15.874 22.08Z" fill="#0E8778"/>
<path d="M18.7834 22.08C18.5157 22.08 18.2985 21.8649 18.2985 21.5999V18.7198C18.2985 18.4548 18.5157 18.2397 18.7834 18.2397C19.0509 18.2397 19.2681 18.4548 19.2681 18.7198V21.5999C19.2681 21.8649 19.0509 22.08 18.7834 22.08Z" fill="#0E8778"/>
<path d="M21.6915 22.08C21.4239 22.08 21.2067 21.8649 21.2067 21.5999V18.7198C21.2067 18.4548 21.4239 18.2397 21.6915 18.2397C21.959 18.2397 22.1762 18.4548 22.1762 18.7198V21.5999C22.1762 21.8649 21.959 22.08 21.6915 22.08Z" fill="#0E8778"/>
<path d="M24.6008 22.08C24.3332 22.08 24.116 21.8649 24.116 21.5999V18.7198C24.116 18.4548 24.3332 18.2397 24.6008 18.2397C24.8683 18.2397 25.0855 18.4548 25.0855 18.7198V21.5999C25.0855 21.8649 24.8683 22.08 24.6008 22.08Z" fill="#0E8778"/>
<path d="M27.51 22.08C27.2423 22.08 27.0251 21.8649 27.0251 21.5999V18.7198C27.0251 18.4548 27.2423 18.2397 27.51 18.2397C27.7775 18.2397 27.9947 18.4548 27.9947 18.7198V21.5999C27.9947 21.8649 27.7775 22.08 27.51 22.08Z" fill="#0E8778"/>
<path d="M30.4182 22.08C30.1505 22.08 29.9333 21.8649 29.9333 21.5999V18.7198C29.9333 18.4548 30.1505 18.2397 30.4182 18.2397C30.6857 18.2397 30.9029 18.4548 30.9029 18.7198V21.5999C30.9029 21.8649 30.6857 22.08 30.4182 22.08Z" fill="#0E8778"/>
<path d="M33.8121 21.5997C33.8121 21.8647 33.5951 22.0798 33.3274 22.0798C33.0596 22.0798 32.8425 21.8647 32.8425 21.5997C32.8425 21.3347 33.0596 21.1196 33.3274 21.1196C33.5951 21.1196 33.8121 21.3347 33.8121 21.5997Z" fill="#0E8778"/>
</svg>
