<svg width="13" height="7" viewBox="0 0 13 7" fill="none" xmlns="http://www.w3.org/2000/svg">
<path d="M0.241957 5.6129L5.66131 0.177419C5.72583 0.112903 5.79572 0.0673115 5.87099 0.0406449C5.94626 0.0135481 6.0269 -2.70964e-07 6.11293 -2.67204e-07C6.19895 -2.63443e-07 6.27959 0.0135481 6.35486 0.0406449C6.43013 0.0673116 6.50002 0.112903 6.56454 0.177419L12 5.6129C12.1506 5.76344 12.2258 5.95161 12.2258 6.17742C12.2258 6.40323 12.1452 6.59677 11.9839 6.75806C11.8226 6.91935 11.6344 7 11.4194 7C11.2043 7 11.0162 6.91935 10.8549 6.75806L6.11293 2.01613L1.37099 6.75806C1.22045 6.9086 1.03508 6.98387 0.814861 6.98387C0.594216 6.98387 0.403248 6.90323 0.241957 6.74194C0.0806672 6.58065 2.16551e-05 6.39247 2.16645e-05 6.17742C2.16739e-05 5.96237 0.0806672 5.77419 0.241957 5.6129Z" fill="white"/>
</svg>
