<svg width="19" height="11" viewBox="0 0 19 11" fill="none" xmlns="http://www.w3.org/2000/svg">
<path d="M18.575 2.3L10.175 10.725C10.075 10.825 9.96667 10.8957 9.85 10.937C9.73333 10.979 9.60833 11 9.475 11C9.34167 11 9.21667 10.979 9.1 10.937C8.98333 10.8957 8.875 10.825 8.775 10.725L0.35 2.3C0.116666 2.06667 -4.03238e-07 1.775 -4.18537e-07 1.425C-4.33836e-07 1.075 0.125 0.775001 0.375 0.525001C0.625 0.275001 0.916666 0.150001 1.25 0.150001C1.58333 0.150001 1.875 0.275 2.125 0.525L9.475 7.875L16.825 0.525C17.0583 0.291666 17.3457 0.174999 17.687 0.174999C18.029 0.174999 18.325 0.299999 18.575 0.549999C18.825 0.799999 18.95 1.09167 18.95 1.425C18.95 1.75833 18.825 2.05 18.575 2.3Z" fill="#3E9F93"/>
</svg>
