<svg width="104" height="104" viewBox="0 0 104 104" fill="none" xmlns="http://www.w3.org/2000/svg">
<path fill-rule="evenodd" clip-rule="evenodd" d="M69.6552 8.24151C74.9898 6.81209 80.4732 9.97792 81.9026 15.3126L95.7596 67.0274C97.189 72.362 94.0232 77.8454 88.6885 79.2748L36.9737 93.1318C31.6391 94.5612 26.1557 91.3954 24.7263 86.0607L10.8693 34.3459C9.4399 29.0112 12.6057 23.5279 17.9404 22.0985L69.6552 8.24151Z" fill="#B7DBD7"/>
<path fill-rule="evenodd" clip-rule="evenodd" d="M44.9289 7.07107C48.8342 3.16583 55.1658 3.16582 59.0711 7.07107L96.9289 44.9289C100.834 48.8342 100.834 55.1658 96.9289 59.0711L59.0711 96.9289C55.1658 100.834 48.8342 100.834 44.9289 96.9289L7.07107 59.0711C3.16583 55.1658 3.16582 48.8342 7.07107 44.9289L44.9289 7.07107Z" fill="white"/>
<path d="M32.4966 68.6094H40.7072C41.4159 71.4255 43.9625 73.5197 46.9953 73.5197C50.5741 73.5197 53.4864 70.6075 53.4864 67.0283C53.4864 65.4163 52.892 63.943 51.9158 62.8067V43.3001C51.9158 40.94 50.0413 39.0147 47.7033 38.9219C49.1514 36.7376 51.5716 35.413 54.2271 35.413C58.5551 35.413 62.0757 38.9339 62.0757 43.2619V64.6081H59.7953C57.0499 64.6081 54.8165 66.8418 54.8165 69.5872C54.8165 70.4111 55.0245 71.2287 55.4175 71.9524C55.5187 72.1393 55.715 72.2555 55.9274 72.2555H73.3538C73.5661 72.2555 73.7625 72.1389 73.8637 71.9524C74.2571 71.2288 74.4647 70.4107 74.4647 69.5872C74.4647 66.8418 72.2313 64.6081 69.4859 64.6081H67.1181L67.1184 43.2619C67.1184 36.1535 61.3354 30.3706 54.2272 30.3706C48.7577 30.3706 43.9457 33.7888 42.106 38.9129H36.303C33.8839 38.9129 31.916 40.8807 31.916 43.2999V68.0298C31.916 68.3503 32.1753 68.61 32.4962 68.61L32.4966 68.6094ZM51.0634 63.5912C51.8497 64.5203 52.3261 65.7189 52.3261 67.0283C52.3261 69.9679 49.9347 72.3593 46.9954 72.3593C44.0562 72.3593 41.6647 69.9679 41.6647 67.0283C41.6647 64.0891 44.0561 61.6976 46.9954 61.6976C48.484 61.6976 49.8305 62.3124 50.7986 63.2998C50.8485 63.427 50.9442 63.5264 51.0633 63.5912H51.0634ZM69.4865 65.7678C71.5917 65.7678 73.3049 67.4811 73.3049 69.5866C73.3049 70.1049 73.1971 70.6199 72.9921 71.0948H56.2901C56.0851 70.6199 55.9773 70.1049 55.9773 69.5866C55.9773 67.4811 57.6905 65.7678 59.7957 65.7678H69.4865ZM54.2279 31.5303C60.6964 31.5303 65.9583 36.7928 65.9583 43.2617L65.958 54.7255H64.6406C64.3201 54.7255 64.0604 54.9851 64.0604 55.3057C64.0604 55.6262 64.3197 55.8859 64.6406 55.8859H65.958V57.0794H64.6406C64.3201 57.0794 64.0604 57.3391 64.0604 57.6596C64.0604 57.9801 64.3197 58.2398 64.6406 58.2398H65.958V59.3809H64.6406C64.3201 59.3809 64.0604 59.6406 64.0604 59.9611C64.0604 60.2816 64.3197 60.5413 64.6406 60.5413H65.958V61.8944H64.6406C64.3201 61.8944 64.0604 62.1541 64.0604 62.4746C64.0604 62.7951 64.3197 63.0548 64.6406 63.0548H65.958V64.6081L63.2365 64.6074V43.2612C63.2365 38.2937 59.1951 34.252 54.2276 34.252C50.93 34.252 47.9485 36.0304 46.3551 38.9121H43.3426C45.1156 34.4664 49.3907 31.5301 54.2273 31.5301L54.2279 31.5303ZM33.0775 47.4397H44.1208C45.3864 47.4397 46.416 48.4694 46.416 49.735C46.416 51.0006 45.3868 52.0303 44.1208 52.0303H33.0775V47.4397ZM33.0775 53.1907H44.1208C46.026 53.1907 47.5761 51.6406 47.5761 49.7351C47.5761 47.8299 46.026 46.2797 44.1208 46.2797L33.0775 46.2794V43.2994C33.0775 41.5202 34.5248 40.0724 36.304 40.0724H47.5291C49.3087 40.0724 50.756 41.5198 50.756 43.2994V61.7477C49.6936 60.989 48.3977 60.5377 46.9959 60.5377C43.4171 60.5377 40.5048 63.4496 40.5048 67.0288C40.5048 67.1708 40.5172 67.3096 40.5263 67.4494H33.0773L33.0775 53.1907Z" fill="#0E8778"/>
<path d="M43.1309 67.0279C43.1309 69.1586 44.8646 70.8922 46.9952 70.8922C49.1259 70.8922 50.8595 69.1585 50.8595 67.0279C50.8595 64.8972 49.1258 63.1636 46.9952 63.1636C44.8645 63.1636 43.1309 64.8969 43.1309 67.0279ZM49.6995 67.0279C49.6995 68.519 48.4866 69.7322 46.9952 69.7322C45.5041 69.7322 44.2908 68.5193 44.2908 67.0279C44.2908 65.5372 45.5037 64.3239 46.9952 64.3239C48.4862 64.3239 49.6995 65.5368 49.6995 67.0279Z" fill="#0E8778"/>
<path d="M46.416 65.7824C46.416 66.1029 46.6753 66.3626 46.9962 66.3626C47.3786 66.3626 47.6897 66.6736 47.6897 67.0557C47.6897 67.4381 47.3786 67.7491 46.9962 67.7491C46.6757 67.7491 46.416 68.0088 46.416 68.3293C46.416 68.6498 46.6753 68.9095 46.9962 68.9095C48.0182 68.9095 48.8501 68.0777 48.8501 67.0557C48.8501 66.0337 48.0182 65.2021 46.9962 65.2021C46.6757 65.2021 46.416 65.4618 46.416 65.7824V65.7824Z" fill="#0E8778"/>
<path d="M44.6043 50.6311V48.8395C44.6043 48.519 44.345 48.2593 44.0241 48.2593H42.2325C41.912 48.2593 41.6523 48.519 41.6523 48.8395V50.6311C41.6523 50.9516 41.9117 51.2113 42.2325 51.2113H44.0241C44.345 51.2113 44.6043 50.9516 44.6043 50.6311ZM43.4443 50.0509H42.8132V49.4197H43.4443V50.0509Z" fill="#0E8778"/>
<path d="M36.9265 48.2588H35.1349C34.8144 48.2588 34.5547 48.5185 34.5547 48.839V50.6306C34.5547 50.9511 34.814 51.2108 35.1349 51.2108H36.9265C37.247 51.2108 37.5067 50.9511 37.5067 50.6306V48.839C37.5067 48.5188 37.2474 48.2588 36.9265 48.2588ZM36.3463 50.0504H35.7151V49.4192H36.3463V50.0504Z" fill="#0E8778"/>
<path d="M39.7466 48.2656C38.9366 48.2656 38.2773 48.9245 38.2773 49.7349C38.2773 50.5449 38.9362 51.2042 39.7466 51.2042C40.5566 51.2042 41.2159 50.5449 41.2159 49.7349C41.2159 48.9245 40.557 48.2656 39.7466 48.2656ZM39.7466 50.0437C39.5762 50.0437 39.4378 49.9053 39.4378 49.7345C39.4378 49.5644 39.5762 49.4256 39.7466 49.4256C39.9171 49.4256 40.0555 49.564 40.0555 49.7345C40.0555 49.9053 39.9171 50.0437 39.7466 50.0437Z" fill="#0E8778"/>
</svg>
