<svg width="104" height="104" viewBox="0 0 104 104" fill="none" xmlns="http://www.w3.org/2000/svg">
<path fill-rule="evenodd" clip-rule="evenodd" d="M69.6552 8.242C74.9898 6.81258 80.4732 9.97841 81.9026 15.3131L95.7596 67.0279C97.189 72.3625 94.0232 77.8459 88.6885 79.2753L36.9737 93.1323C31.6391 94.5617 26.1557 91.3959 24.7263 86.0612L10.8693 34.3464C9.4399 29.0117 12.6057 23.5284 17.9404 22.0989L69.6552 8.242Z" fill="#B7DBD7"/>
<path fill-rule="evenodd" clip-rule="evenodd" d="M44.9289 7.07107C48.8342 3.16583 55.1658 3.16582 59.0711 7.07107L96.9289 44.9289C100.834 48.8342 100.834 55.1658 96.9289 59.0711L59.0711 96.9289C55.1658 100.834 48.8342 100.834 44.9289 96.9289L7.07107 59.0711C3.16583 55.1658 3.16582 48.8342 7.07107 44.9289L44.9289 7.07107Z" fill="#3E9F93"/>
<path d="M66.5822 63.5319V63.95C66.5822 64.3809 66.244 64.7306 65.8262 64.7306C65.4085 64.7306 65.0702 64.3809 65.0702 63.95V63.5319C65.0702 63.101 65.4085 62.7513 65.8262 62.7513C66.244 62.7513 66.5822 63.101 66.5822 63.5319ZM45.1394 47.6108L44.8488 47.7968C44.4935 48.0234 44.3838 48.5048 44.6036 48.8712C44.7466 49.1099 44.9941 49.2412 45.2472 49.2412C45.383 49.2412 45.52 49.2037 45.6441 49.1244L45.9347 48.9384C46.29 48.7118 46.3998 48.2305 46.1799 47.864C45.9608 47.4971 45.4947 47.3838 45.1394 47.6108H45.1394ZM52.3845 50.8185C52.971 50.8185 53.4478 51.3108 53.4478 51.9164C53.4478 52.3473 53.7861 52.697 54.2038 52.697C54.6215 52.697 54.9598 52.3473 54.9598 51.9164C54.9598 50.4501 53.8046 49.2577 52.385 49.2577C50.9649 49.2577 49.8097 50.4505 49.8097 51.9164C49.8097 53.3827 50.9649 54.5755 52.385 54.5755C52.8027 54.5755 53.141 54.2258 53.141 53.7949C53.141 53.3639 52.8027 53.0143 52.385 53.0143C51.7985 53.0143 51.3217 52.522 51.3217 51.9163C51.3213 51.3108 51.7981 50.8184 52.3846 50.8184L52.3845 50.8185ZM74.6924 60.0167L66.5822 56.7309V53.8913L67.1366 54.2456C67.4748 54.4613 67.8627 54.575 68.2577 54.575C69.0031 54.575 69.6823 54.1847 70.0743 53.531C70.3743 53.0301 70.4678 52.439 70.3372 51.8662C70.2071 51.2926 69.868 50.8062 69.383 50.4968L59.5619 44.219C59.7204 43.5903 59.801 42.9421 59.801 42.2846C59.801 38.0619 56.4743 34.6269 52.3845 34.6269C48.7328 34.6269 45.6544 37.324 45.0659 41.0395C44.9986 41.4649 45.2778 41.8662 45.6899 41.9361C46.1023 42.0057 46.4905 41.7169 46.5575 41.2919C47.0263 38.3347 49.4771 36.1882 52.3845 36.1882C55.64 36.1882 58.289 38.9231 58.289 42.2847C58.289 42.6437 58.258 42.9985 58.1986 43.3474L53.5082 40.3491C52.8154 39.906 51.9542 39.906 51.2614 40.3491L42.4176 46.0022C42.239 45.4919 42.0934 44.9688 41.9908 44.4371C41.9204 44.0722 41.6102 43.8092 41.2496 43.8092H38.6176V40.7609H41.2496C41.6102 40.7609 41.9205 40.498 41.9908 40.1327C42.2617 38.7304 42.7903 37.4134 43.5626 36.2182C43.7628 35.9088 43.7231 35.4962 43.4681 35.2333L41.606 33.3106L43.6936 31.1551L45.5556 33.0778C45.8098 33.3407 46.2087 33.3817 46.5098 33.175C47.6662 32.378 48.9413 31.8322 50.3004 31.5524C50.6538 31.4798 50.9089 31.159 50.9089 30.787V28.0693H53.861V30.787C53.861 31.1594 54.1156 31.4798 54.4694 31.5524C55.8281 31.8322 57.1036 32.378 58.26 33.175C58.5608 33.3821 58.96 33.3407 59.2143 33.0778L61.0763 31.1551L63.1638 33.3106L61.3018 35.2333C61.0472 35.4962 61.0074 35.9088 61.2072 36.2182C61.9795 37.4134 62.5081 38.73 62.779 40.1327C62.8494 40.498 63.1597 40.7609 63.5203 40.7609H66.1523V43.8092H63.5203C63.1025 43.8092 62.7643 44.1589 62.7643 44.5898C62.7643 45.0208 63.1025 45.3705 63.5203 45.3705H66.9083C67.326 45.3705 67.6643 45.0208 67.6643 44.5898V39.9803C67.6643 39.5494 67.326 39.1997 66.9083 39.1997H64.1246C63.8393 38.0366 63.3947 36.9302 62.798 35.8964L64.7679 33.8628C64.9098 33.7163 64.9892 33.5182 64.9892 33.3107C64.9892 33.1037 64.9094 32.9052 64.7679 32.7587L61.6115 29.4995C61.3163 29.1947 60.8377 29.1947 60.5426 29.4995L58.5727 31.5326C57.5723 30.9169 56.5003 30.4578 55.3736 30.1633L55.3728 27.2889C55.3728 26.858 55.0346 26.5083 54.6168 26.5083H50.1527C49.735 26.5083 49.3967 26.858 49.3967 27.2889V30.1637C48.2699 30.4583 47.198 30.9169 46.1976 31.533L44.2278 29.4999C43.9326 29.1951 43.454 29.1951 43.1589 29.4999L40.0024 32.7591C39.8606 32.9056 39.7811 33.1041 39.7811 33.3111C39.7811 33.5182 39.8609 33.7167 40.0024 33.8632L41.9723 35.8968C41.3752 36.9306 40.9306 38.037 40.6457 39.2001H37.862C37.4443 39.2001 37.106 39.5498 37.106 39.9807V44.5902C37.106 45.0212 37.4443 45.3709 37.862 45.3709H40.6465C40.7695 45.8698 40.9329 46.3566 41.1145 46.8363L35.3871 50.4973C34.902 50.8071 34.563 51.2935 34.4328 51.867C34.3019 52.4402 34.3957 53.0313 34.6958 53.5318C34.9962 54.0323 35.4669 54.3824 36.0216 54.5172C36.1858 54.557 36.3508 54.5766 36.5147 54.5766C36.907 54.5766 37.2926 54.4641 37.6343 54.2457L38.1879 53.8917V72.0072L31.1096 72.0064V61.2753L35.8768 59.3438C36.2654 59.1863 36.4568 58.7335 36.304 58.3323C36.1511 57.9302 35.7122 57.7337 35.324 57.8908L30.0774 60.0166C29.788 60.1338 29.5977 60.4221 29.5977 60.7433V72.7866C29.5977 73.2175 29.9359 73.5672 30.3537 73.5672L65.8264 73.629C66.2441 73.629 66.5824 73.2793 66.5824 72.8483V66.9507C66.5824 66.5197 66.2441 66.1701 65.8264 66.1701C65.4086 66.1701 65.0704 66.5197 65.0704 66.9507V72.0677L58.3546 72.0673V62.081C58.3546 61.65 58.0163 61.3003 57.5986 61.3003H47.1711C46.7534 61.3003 46.4151 61.65 46.4151 62.081V69.7383C46.4151 70.1693 46.7534 70.519 47.1711 70.519C47.5888 70.519 47.9271 70.1693 47.9271 69.7383L47.9275 62.8616H56.8432V72.0673H39.7001V52.9236L43.1774 50.7005C43.5327 50.4735 43.6424 49.9925 43.4225 49.6256C43.2027 49.2588 42.7369 49.1459 42.3816 49.3729L36.8384 52.9162C36.6976 53.0064 36.5308 53.0349 36.3684 52.9955C36.2065 52.956 36.0687 52.854 35.9817 52.7079C35.8939 52.5618 35.8667 52.3891 35.9049 52.2223C35.9428 52.055 36.0415 51.9132 36.183 51.823L52.0581 41.676C52.2572 41.5486 52.5144 41.5486 52.7139 41.676L68.589 51.823C68.7305 51.9132 68.8288 52.055 68.8671 52.2223C68.9053 52.3895 68.878 52.5622 68.7902 52.7083C68.6147 53.0005 68.22 53.0994 67.9328 52.9165L52.7842 43.2335C52.5406 43.0776 52.2326 43.0776 51.9885 43.2335L47.5308 46.0828C47.1755 46.3094 47.0658 46.7908 47.2856 47.1572C47.5055 47.5241 47.9712 47.6374 48.3265 47.41L52.3861 44.8146L65.0715 52.9232V60.5187C65.0715 60.9497 65.4097 61.2994 65.8275 61.2994C66.2452 61.2994 66.5835 60.9497 66.5835 60.5187V58.4062L73.6613 61.274V72.0051H68.8015C68.3837 72.0051 68.0455 72.3547 68.0455 72.7857C68.0455 73.2166 68.3837 73.5663 68.8015 73.5663H74.4174C74.8351 73.5663 75.1734 73.2166 75.1734 72.7857V60.7424C75.1734 60.422 74.9831 60.1336 74.6936 60.0164L74.6924 60.0167Z" fill="white"/>
</svg>
