<svg width="104" height="104" viewBox="0 0 104 104" fill="none" xmlns="http://www.w3.org/2000/svg">
<path fill-rule="evenodd" clip-rule="evenodd" d="M69.6552 8.242C74.9898 6.81258 80.4732 9.97841 81.9026 15.3131L95.7596 67.0279C97.189 72.3625 94.0232 77.8459 88.6885 79.2753L36.9737 93.1323C31.6391 94.5617 26.1557 91.3959 24.7263 86.0612L10.8693 34.3464C9.4399 29.0117 12.6057 23.5284 17.9404 22.0989L69.6552 8.242Z" fill="#B7DBD7"/>
<path fill-rule="evenodd" clip-rule="evenodd" d="M44.9289 7.07107C48.8342 3.16583 55.1658 3.16582 59.0711 7.07107L96.9289 44.9289C100.834 48.8342 100.834 55.1658 96.9289 59.0711L59.0711 96.9289C55.1658 100.834 48.8342 100.834 44.9289 96.9289L7.07107 59.0711C3.16583 55.1658 3.16582 48.8342 7.07107 44.9289L44.9289 7.07107Z" fill="white"/>
<path d="M68.0786 41.5746V33.1001C68.0786 32.7236 67.7728 32.4178 67.3963 32.4178H61.9379C61.5614 32.4178 61.2556 32.7236 61.2556 33.1001V36.6337L52.7857 30.5006C52.5469 30.3279 52.224 30.3279 51.9852 30.5006L32.1985 44.8289C31.9591 45.0022 31.8579 45.3105 31.9493 45.5916C32.041 45.8734 32.303 46.0638 32.599 46.0638H35.3282V70.6266C35.3282 71.0031 35.634 71.3089 36.0105 71.3089H68.7609C69.1374 71.3089 69.4432 71.0031 69.4432 70.6266V46.0638H72.1724C72.4685 46.0638 72.7305 45.8734 72.8212 45.5916C72.9126 45.3105 72.8118 45.0022 72.5721 44.8289L68.0786 41.5746ZM62.6202 33.7827H66.714V40.5865L62.6202 37.6218V33.7827ZM68.7609 44.6995H64.6671V46.0641H68.0786V69.9446H48.3558C49.1691 69.9413 49.9784 69.7548 50.7295 69.3866C52.039 68.7445 53.0192 67.6318 53.4916 66.252L54.8166 62.3787L55.0377 61.7333C55.392 60.6983 55.3216 59.5879 54.8398 58.6062C54.4605 57.8325 53.8559 57.2197 53.113 56.8185L58.6554 40.6156L59.0968 39.3247C59.4626 38.2577 58.8909 37.0908 57.8229 36.7253C56.7544 36.361 55.5891 36.9312 55.2235 37.9997L54.7821 39.2906L49.2411 55.4873C48.4075 55.3496 47.5531 55.4696 46.7794 55.8488C45.7977 56.3304 45.0615 57.165 44.7079 58.1995L44.4867 58.8449L43.1617 62.7182C43.0984 62.9037 43.0213 63.0858 42.9333 63.2591L44.1483 63.8787C44.2656 63.6487 44.3689 63.4066 44.4526 63.1595L45.5574 59.9317L48.1392 60.8153L47.4767 62.7523L48.7681 63.1936L49.4306 61.2567L50.7215 61.698L49.3965 65.5713C48.7879 67.3501 46.8468 68.3026 45.0667 67.6953L41.3746 66.4324C42.0493 66.1546 42.6731 65.7407 43.1986 65.2022L42.2215 64.2497C41.1231 65.3761 39.4499 65.7739 37.9632 65.2655C37.6056 65.144 37.2188 65.3337 37.0966 65.6907C36.9745 66.0468 37.1649 66.4352 37.5219 66.5573L44.6232 68.9861C44.6239 68.9861 44.6254 68.9867 44.626 68.9867L46.5602 69.6486C47.1341 69.8451 47.7262 69.9419 48.3159 69.9441L36.6927 69.9444V46.0639H40.1042V44.6993H34.7046L52.3859 31.8954L70.0672 44.6993L68.7609 44.6995ZM46.0009 58.641C46.4873 57.2176 48.0423 56.4537 49.4663 56.942L52.0487 57.8256C52.7386 58.0617 53.295 58.5515 53.6158 59.2067C53.9366 59.8609 53.9835 60.6015 53.7474 61.291L46.0009 58.641ZM50.5531 55.8716L55.8532 40.3775L57.1441 40.8189L51.844 56.313L51.1986 56.0918L50.5531 55.8716ZM57.8068 38.8827L57.5863 39.5281L56.2948 39.0868L56.5153 38.4413C56.6375 38.0853 57.0259 37.8955 57.3819 38.0155C57.7386 38.1383 57.929 38.5266 57.8068 38.8827L57.8068 38.8827ZM53.3057 62.5815L52.2019 65.8088C51.8476 66.8438 51.1123 67.6784 50.1303 68.1599C49.6378 68.4015 49.1123 68.5392 48.5809 68.5721C49.5333 68.014 50.3049 67.1371 50.6899 66.0135L52.0149 62.1402L53.3057 62.5815Z" fill="#0E8778"/>
<path d="M46.5957 65.3337L47.0374 64.0425L48.3286 64.4842L47.8869 65.7754L46.5957 65.3337Z" fill="#0E8778"/>
<path d="M60.5723 50.8398H61.9369V52.2044H60.5723V50.8398Z" fill="#0E8778"/>
<path d="M61.9375 52.2046H63.3021V53.5692H61.9375V52.2046Z" fill="#0E8778"/>
<path d="M60.5723 53.5693H61.9369V54.9339H60.5723V53.5693Z" fill="#0E8778"/>
<path d="M59.209 52.2046H60.5736V53.5692H59.209V52.2046Z" fill="#0E8778"/>
<path d="M45.5625 43.335H46.9271V44.6996H45.5625V43.335Z" fill="#0E8778"/>
<path d="M46.9277 44.6992H48.2923V46.0638H46.9277V44.6992Z" fill="#0E8778"/>
<path d="M45.5625 46.064H46.9271V47.4286H45.5625V46.064Z" fill="#0E8778"/>
<path d="M44.1992 44.6992H45.5638V46.0638H44.1992V44.6992Z" fill="#0E8778"/>
</svg>
