<svg width="48" height="48" viewBox="0 0 48 48" fill="none" xmlns="http://www.w3.org/2000/svg">
<path fill-rule="evenodd" clip-rule="evenodd" d="M31.7771 3.90298C34.4444 3.18827 37.1861 4.77119 37.9008 7.43852L44.0972 30.5639C44.8119 33.2312 43.229 35.9729 40.5617 36.6876L17.4363 42.884C14.769 43.5987 12.0273 42.0158 11.3126 39.3485L5.11618 16.2231C4.40147 13.5558 5.98438 10.8141 8.65171 10.0994L31.7771 3.90298Z" fill="#B7DBD7"/>
<path fill-rule="evenodd" clip-rule="evenodd" d="M20.4645 3.53553C22.4171 1.58291 25.5829 1.58291 27.5355 3.53553L44.4645 20.4645C46.4171 22.4171 46.4171 25.5829 44.4645 27.5355L27.5355 44.4645C25.5829 46.4171 22.4171 46.4171 20.4645 44.4645L3.53554 27.5355C1.58291 25.5829 1.58291 22.4171 3.53554 20.4645L20.4645 3.53553Z" fill="white"/>
<path d="M34.8579 31.4183C34.7911 31.3859 33.2573 30.3191 34.7579 28.1533C34.8246 28.0563 34.8246 27.9269 34.7579 27.83C34.6912 27.7331 34.5578 27.6684 34.4579 27.6684C34.3911 27.6684 33.3242 27.7008 32.6574 28.6059C31.9905 27.7007 30.9235 27.6684 30.8569 27.6684C30.7235 27.6684 30.6234 27.7331 30.5568 27.83C30.4901 27.9269 30.4901 28.0563 30.5568 28.1533C31.8572 30.0606 30.8236 31.1274 30.5234 31.3859H29.3229C29.8563 31.0303 30.1897 30.4807 30.1897 29.8019C30.1897 29.3816 30.0564 29.026 29.823 28.7028C29.8563 28.6059 29.8563 28.4765 29.8563 28.3796C29.8563 27.5391 29.2895 26.7956 28.4558 26.5369L27.2888 26.149C27.3221 25.9874 27.3555 25.8258 27.3555 25.6641C27.3555 25.1469 27.1888 24.6943 26.922 24.2741V22.2699C26.922 22.0759 26.7887 21.9466 26.5886 21.9466H23.5543C23.3542 21.9466 23.2209 22.0759 23.2209 22.2699V23.5306C22.8541 23.7569 22.5541 24.1125 22.354 24.5005L20.9203 24.0156L21.087 21.882C21.1204 21.6557 21.0536 21.4294 20.9203 21.2678L17.1523 15.9335C17.019 15.7396 16.7855 15.578 16.5521 15.5456L14.1847 15.0284C13.6512 14.8991 13.1178 15.2224 13.0177 15.7719C12.9177 16.2891 13.2511 16.8063 13.7846 16.9034L15.7519 17.3237L19.1197 22.108L18.9863 23.8213C18.1527 24.08 17.5858 24.8235 17.5526 25.6963C16.8858 26.0519 16.4523 26.0196 16.4523 26.0196C15.8521 26.0196 15.3186 25.6963 14.7184 24.9528C14.585 24.7912 14.3516 24.6619 14.1182 24.6619C13.6846 24.694 13.3177 25.0174 13.3177 25.4375V29.1551C13.3177 29.7694 13.8178 30.2543 14.4514 30.2543H15.9852C16.1186 30.7069 16.3854 31.0947 16.7855 31.3534H13.5512C13.3511 31.3534 13.2177 31.4826 13.2177 31.6766C13.2177 31.8706 13.3511 31.9998 13.5512 31.9998L34.6581 32C34.9915 32 35.1248 31.5797 34.858 31.4181L34.8579 31.4183ZM31.5235 28.4441C31.8235 28.6057 32.1571 28.8644 32.3238 29.3493C32.3572 29.4462 32.4905 29.5756 32.6238 29.5756C32.7905 29.5756 32.8907 29.4787 32.9239 29.3493C33.0906 28.8644 33.424 28.5734 33.7242 28.4441C33.0906 29.8019 33.4574 30.7716 33.8575 31.3535H31.3567C31.8237 30.7716 32.1905 29.8019 31.5235 28.4441ZM28.2558 31.0303C27.5556 31.0303 26.9554 30.4807 26.9554 29.7696C26.9554 29.0908 27.5222 28.5089 28.2558 28.5089C28.9559 28.5089 29.5561 29.0584 29.5561 29.7696C29.5229 30.4484 28.9561 31.0303 28.2558 31.0303ZM23.8878 22.593H26.2551V23.5952C25.8216 23.3043 25.2881 23.1104 24.7213 23.1104C24.4213 23.1104 24.1544 23.1427 23.8876 23.2396L23.8878 22.593ZM24.7213 23.7245C25.8216 23.7245 26.6887 24.5649 26.6887 25.6318C26.6887 25.7288 26.6887 25.8258 26.6553 25.8905L22.9874 24.6945C23.3542 24.1124 23.9878 23.7245 24.7213 23.7245ZM19.7197 21.8171L16.2185 16.8389C16.1851 16.7742 16.0851 16.7096 16.0184 16.7096L13.9177 16.2894C13.7176 16.2572 13.6177 16.0632 13.651 15.9014C13.6844 15.7398 13.8843 15.6105 14.0512 15.6752L16.4185 16.1601C16.5185 16.1925 16.5852 16.2248 16.6186 16.2894L20.3865 21.6558C20.4199 21.7205 20.4532 21.7851 20.4532 21.8498L20.2865 23.8217L20.1866 23.7893C19.9865 23.7246 19.8198 23.7246 19.6197 23.6924L19.7531 22.0114C19.7863 21.9467 19.7529 21.8821 19.7197 21.8174L19.7197 21.8171ZM18.1858 25.6964C18.1858 24.7912 19.1195 24.1446 19.9863 24.4033L28.2554 27.1187C28.7555 27.248 29.0891 27.636 29.1891 28.1209C28.9223 27.9593 28.5889 27.8946 28.2554 27.8946C27.2217 27.8946 26.3882 28.6705 26.3214 29.608H19.8193C19.7525 28.7676 19.0857 28.0886 18.2187 27.927H18.1853C18.1855 24.9205 18.1855 26.4722 18.1855 25.6964L18.1858 25.6964ZM13.9843 29.1553V25.4377C13.9843 25.3408 14.0842 25.3084 14.1176 25.3084C14.151 25.3084 14.1843 25.3084 14.2176 25.3408C15.1512 26.4399 16.2181 26.9895 17.5519 26.3752V27.8623C16.6851 27.9915 16.0181 28.7027 15.9513 29.5433H14.451C14.1844 29.608 13.9843 29.414 13.9843 29.1553ZM17.8521 28.5411C18.619 28.5411 19.2192 29.1876 19.1191 29.8989C19.0524 30.5454 18.5189 31.0303 17.8521 31.0303C17.1853 31.0303 16.6517 30.5455 16.585 29.8989C16.5185 29.1877 17.0853 28.5411 17.8521 28.5411ZM19.7527 30.2544H26.3548C26.4882 30.7071 26.755 31.0949 27.1551 31.3536H18.9524C19.3526 31.095 19.6193 30.7071 19.7526 30.2544H19.7527Z" fill="#0E8778"/>
</svg>
