<svg width="104" height="104" viewBox="0 0 104 104" fill="none" xmlns="http://www.w3.org/2000/svg">
<path fill-rule="evenodd" clip-rule="evenodd" d="M69.6552 8.242C74.9898 6.81258 80.4732 9.97841 81.9026 15.3131L95.7596 67.0279C97.189 72.3625 94.0232 77.8459 88.6885 79.2753L36.9737 93.1323C31.6391 94.5617 26.1557 91.3959 24.7263 86.0612L10.8693 34.3464C9.4399 29.0117 12.6057 23.5284 17.9404 22.0989L69.6552 8.242Z" fill="#B7DBD7"/>
<path fill-rule="evenodd" clip-rule="evenodd" d="M44.9289 7.07107C48.8342 3.16583 55.1658 3.16582 59.0711 7.07107L96.9289 44.9289C100.834 48.8342 100.834 55.1658 96.9289 59.0711L59.0711 96.9289C55.1658 100.834 48.8342 100.834 44.9289 96.9289L7.07107 59.0711C3.16583 55.1658 3.16582 48.8342 7.07107 44.9289L44.9289 7.07107Z" fill="#3E9F93"/>
<path d="M77.6705 68.6654C77.5158 68.5912 73.9601 66.1439 77.4388 61.1751C77.5935 60.9528 77.5935 60.6559 77.4388 60.4336C77.2841 60.2112 76.975 60.0628 76.7432 60.0628C76.5885 60.0628 74.1151 60.137 72.5693 62.2136C71.0235 60.137 68.5498 60.0628 68.3954 60.0628C68.0863 60.0628 67.8543 60.2112 67.6999 60.4336C67.5452 60.6559 67.5452 60.9528 67.6999 61.1751C70.7144 65.5508 68.3184 67.9981 67.6225 68.5912H64.8394C66.0761 67.7755 66.8489 66.5147 66.8489 64.9574C66.8489 63.9932 66.5398 63.1774 65.9987 62.4359C66.076 62.2135 66.076 61.9166 66.076 61.6943C66.076 59.7663 64.762 58.0605 62.8294 57.4671L60.1239 56.5771C60.2013 56.2064 60.2787 55.8356 60.2787 55.4648C60.2787 54.2782 59.8922 53.2398 59.2737 52.276V47.6779C59.2737 47.233 58.9646 46.9364 58.5008 46.9364H51.4668C51.0029 46.9364 50.6939 47.233 50.6939 47.6779V50.5702C49.8436 51.0894 49.1481 51.9052 48.6843 52.7952L45.3607 51.6828L45.7471 46.7882C45.8245 46.269 45.6698 45.7498 45.3607 45.3791L36.6258 33.1417C36.3167 32.6967 35.7755 32.3259 35.2344 32.2517L29.7464 31.0651C28.5097 30.7686 27.273 31.5101 27.041 32.7708C26.8092 33.9574 27.5821 35.1439 28.8188 35.3665L33.3795 36.3308L41.1865 47.3065L40.8774 51.2372C38.9448 51.8306 37.6307 53.5363 37.5538 55.5387C36.008 56.3544 35.003 56.2802 35.003 56.2802C33.6116 56.2802 32.3749 55.5387 30.9835 53.8329C30.6744 53.4621 30.1332 53.1656 29.5921 53.1656C28.5871 53.2391 27.7365 53.981 27.7365 54.9449V63.4736C27.7365 64.8827 28.8958 65.9951 30.3646 65.9951H33.9203C34.2294 67.0335 34.8479 67.9231 35.7756 68.5166H28.2777C27.8139 68.5166 27.5048 68.8131 27.5048 69.2581C27.5048 69.7031 27.8139 69.9996 28.2777 69.9996L77.2075 70C77.9804 70 78.2894 69.0358 77.6709 68.665L77.6705 68.6654ZM69.9408 61.8424C70.6364 62.2132 71.4096 62.8066 71.7961 63.919C71.8735 64.1413 72.1826 64.4382 72.4916 64.4382C72.8781 64.4382 73.1102 64.2158 73.1872 63.919C73.5736 62.8066 74.3465 62.139 75.0424 61.8424C73.5737 64.9574 74.4239 67.182 75.3515 68.5169H69.5541C70.6368 67.182 71.487 64.9574 69.9408 61.8424ZM62.3656 67.7754C60.7425 67.7754 59.3511 66.5147 59.3511 64.8832C59.3511 63.3259 60.6651 61.9909 62.3656 61.9909C63.9887 61.9909 65.3801 63.2517 65.3801 64.8832C65.3031 66.4405 63.9891 67.7754 62.3656 67.7754ZM52.2399 48.4193H57.7278V50.7184C56.7229 50.0511 55.4861 49.6061 54.1721 49.6061C53.4766 49.6061 52.858 49.6803 52.2395 49.9026L52.2399 48.4193ZM54.1721 51.015C56.7229 51.015 58.7328 52.943 58.7328 55.3907C58.7328 55.613 58.7328 55.8357 58.6554 55.9841L50.1526 53.2403C51.0028 51.905 52.4716 51.015 54.1721 51.015ZM42.5774 46.6393L34.461 35.2187C34.3836 35.0702 34.1519 34.9221 33.9972 34.9221L29.1274 33.9579C28.6636 33.8841 28.4318 33.4391 28.5092 33.0679C28.5866 32.6972 29.05 32.4006 29.4368 32.5491L34.9248 33.6614C35.1565 33.7357 35.3112 33.8099 35.3886 33.958L44.1232 46.2692C44.2006 46.4177 44.2779 46.5658 44.2779 46.7142L43.8915 51.238L43.6598 51.1637C43.196 51.0153 42.8095 51.0153 42.3457 50.9414L42.6548 47.0849C42.7318 46.9365 42.6544 46.7884 42.5774 46.64L42.5774 46.6393ZM39.0217 55.5387C39.0217 53.4622 41.186 51.9788 43.1956 52.5723L62.3649 58.8018C63.5242 59.0984 64.2975 59.9884 64.5292 61.101C63.9107 60.7302 63.1378 60.5818 62.3649 60.5818C59.9685 60.5818 58.0363 62.3618 57.8815 64.5124H42.8083C42.6536 62.5844 41.1078 61.0267 39.0979 60.656H39.0205C39.0209 53.7588 39.0209 57.3187 39.0209 55.5388L39.0217 55.5387ZM29.2817 63.474V54.9453C29.2817 54.723 29.5134 54.6487 29.5908 54.6487C29.6682 54.6487 29.7455 54.6487 29.8225 54.723C31.9869 57.2445 34.4602 58.5052 37.5522 57.0961V60.5076C35.5426 60.8041 33.9964 62.4356 33.8418 64.364H30.3637C29.7456 64.5125 29.2817 64.0674 29.2817 63.474ZM38.248 62.0648C40.0258 62.0648 41.4173 63.5479 41.1852 65.1798C41.0305 66.6629 39.7938 67.7755 38.248 67.7755C36.7022 67.7755 35.4652 66.6632 35.3108 65.1798C35.1564 63.5483 36.4705 62.0648 38.248 62.0648ZM42.6539 65.9955H57.9589C58.268 67.0339 58.8865 67.9236 59.8142 68.517H40.7989C41.7265 67.9239 42.3447 67.0339 42.6537 65.9955H42.6539Z" fill="white"/>
</svg>
