<svg width="104" height="104" viewBox="0 0 104 104" fill="none" xmlns="http://www.w3.org/2000/svg">
<path fill-rule="evenodd" clip-rule="evenodd" d="M69.6552 8.242C74.9898 6.81258 80.4732 9.97841 81.9026 15.3131L95.7596 67.0279C97.189 72.3625 94.0232 77.8459 88.6885 79.2753L36.9737 93.1323C31.6391 94.5617 26.1557 91.3959 24.7263 86.0612L10.8693 34.3464C9.4399 29.0117 12.6057 23.5284 17.9404 22.0989L69.6552 8.242Z" fill="#B7DBD7"/>
<path fill-rule="evenodd" clip-rule="evenodd" d="M44.9289 7.07107C48.8342 3.16583 55.1658 3.16582 59.0711 7.07107L96.9289 44.9289C100.834 48.8342 100.834 55.1658 96.9289 59.0711L59.0711 96.9289C55.1658 100.834 48.8342 100.834 44.9289 96.9289L7.07107 59.0711C3.16583 55.1658 3.16582 48.8342 7.07107 44.9289L44.9289 7.07107Z" fill="white"/>
<path d="M31.0606 51.3705V68.2958C31.0606 68.7335 31.3525 69.0253 31.7902 69.0253C32.2279 69.0253 32.5197 68.7335 32.5197 68.2958V51.5164H33.687C34.1247 51.5164 34.4165 51.2246 34.4165 50.7869C34.4165 50.3491 34.1247 50.0573 33.687 50.0573H31.7902C31.3525 50.0573 31.0606 49.7655 31.0606 49.3278C31.0606 48.8901 31.3525 48.5982 31.7902 48.5982H33.687C34.1247 48.5982 34.4165 48.3064 34.4165 47.8687C34.4165 47.431 34.1247 47.1392 33.687 47.1392H31.7902C30.55 47.1392 29.6016 48.0876 29.6016 49.3278C29.6016 50.2762 30.1852 51.0787 31.0606 51.3705Z" fill="#0E8778"/>
<path d="M74.1023 73.4028H73.3727V51.3707C74.2482 51.0789 74.8318 50.2764 74.8318 49.328C74.8318 48.0878 73.8834 47.1394 72.6432 47.1394H71.8407C71.5489 45.7533 70.4546 44.586 69.0685 44.2942C69.1414 42.9081 69.5062 41.449 70.1628 40.2088C70.3087 39.844 70.1628 39.4063 69.8709 39.2604C69.5062 39.1145 69.0685 39.2604 68.9225 39.5522C68.193 41.0113 67.7553 42.6162 67.6823 44.2942C66.2233 44.586 65.1289 45.6803 64.7642 47.1394H52.7998C52.362 47.1394 52.0702 47.4312 52.0702 47.8689C52.0702 48.3066 52.362 48.5985 52.7998 48.5985H72.6432C73.0809 48.5985 73.3727 48.8903 73.3727 49.328C73.3727 49.7657 73.0809 50.0575 72.6432 50.0575H69.725C69.2873 50.0575 68.9955 50.3493 68.9955 50.7871C68.9955 51.2248 69.2873 51.5166 69.725 51.5166H71.9137V55.8938H55.8638V51.5166H66.8069C67.2446 51.5166 67.5364 51.2248 67.5364 50.7871C67.5364 50.3493 67.2446 50.0575 66.8069 50.0575H52.4346C51.9968 50.0575 51.705 50.3493 51.705 50.7871C51.705 51.2248 51.9968 51.5166 52.4346 51.5166H54.4043V62.4597C54.4043 62.8974 54.6961 63.1892 55.1339 63.1892C55.5716 63.1892 55.8634 62.8974 55.8634 62.4597V57.3529H63.1588V67.5664H55.8634V65.3778C55.8634 64.9401 55.5716 64.6483 55.1339 64.6483C54.6961 64.6483 54.4043 64.9401 54.4043 65.3778V73.4028H49.4435C47.8385 70.3387 43.899 70.4846 43.899 70.4846V67.5664H44.6285C45.0662 67.5664 45.358 67.2746 45.358 66.8369V64.6483H47.5467C48.7869 64.6483 49.7353 63.6999 49.7353 62.4597C49.7353 61.2195 48.7869 60.2711 47.5467 60.2711H45.358V58.812H47.1819C48.568 58.812 49.7353 57.7906 49.9541 56.4045C50.0271 56.0397 49.7353 55.675 49.2976 55.602C48.9328 55.5291 48.568 55.8209 48.4951 56.2586C48.4221 56.9152 47.8385 57.4259 47.1819 57.4259H39.157C38.5004 57.4259 37.9168 56.9152 37.8438 56.2586L36.8954 45.6073C36.8225 45.2426 36.9684 44.8778 37.1872 44.586C37.4061 44.2942 37.7709 44.1483 38.1356 44.1483H48.2032C48.568 44.1483 48.9328 44.2942 49.1516 44.586C49.3705 44.8778 49.5164 45.2426 49.4435 45.6073L48.7139 53.6323C48.641 53.997 49.0057 54.3618 49.3705 54.4348C49.8082 54.5077 50.1 54.1429 50.173 53.7782L50.9025 45.7533C50.9755 44.9508 50.7566 44.2212 50.246 43.6376C49.7353 43.054 49.0057 42.6892 48.2032 42.6892H38.2082C37.4057 42.6892 36.6761 43.054 36.1655 43.6376C35.6548 44.2212 35.363 44.9508 35.4359 45.7533L36.4573 56.4045C36.6032 57.7906 37.7704 58.8849 39.1566 58.8849H40.9804V60.344H38.7918C37.5516 60.344 36.6032 61.2924 36.6032 62.5326C36.6032 63.7728 37.5516 64.7212 38.7918 64.7212H40.9804V66.9099C40.9804 67.3476 41.2722 67.6394 41.7099 67.6394H42.4395V70.5576C42.4395 70.5576 38.5729 70.3387 36.895 73.4757H32.5178V71.2871C32.5178 70.8494 32.2259 70.5576 31.7882 70.5576C31.3505 70.5576 31.0587 70.8494 31.0587 71.2871V73.4757H30.3291C29.8914 73.4757 29.5996 73.7675 29.5996 74.2052C29.5996 74.643 29.8914 74.9348 30.3291 74.9348H66.8061C67.2438 74.9348 67.5356 74.643 67.5356 74.2052C67.5356 73.7675 67.2438 73.4757 66.8061 73.4757H55.863V69.0985H71.9128V73.4757H69.7242C69.2865 73.4757 68.9947 73.7675 68.9947 74.2052C68.9947 74.643 69.2865 74.9348 69.7242 74.9348H74.1014C74.5392 74.9348 74.831 74.643 74.831 74.2052C74.831 73.7675 74.5392 73.4028 74.1014 73.4028H74.1023ZM66.2233 47.1394C66.5151 46.2639 67.3176 45.6803 68.266 45.6803C69.2144 45.6803 70.0169 46.2639 70.3087 47.1394H66.2233ZM42.5129 73.4028H38.7922C40.0324 71.5789 42.5129 71.9437 42.5129 71.9437V73.4028ZM42.5129 58.812H43.9719V60.2711H42.5129V58.812ZM38.8652 63.1892C38.4274 63.1892 38.1356 62.8974 38.1356 62.4597C38.1356 62.022 38.4274 61.7301 38.8652 61.7301H47.6196C48.0573 61.7301 48.3492 62.022 48.3492 62.4597C48.3492 62.8974 48.0573 63.1892 47.6196 63.1892H38.8652ZM42.5129 64.6483H43.9719V66.1074H42.5129V64.6483ZM43.9719 73.4028V71.9437C43.9719 71.9437 46.5983 71.7978 47.6926 73.4028H43.9719ZM71.9128 67.5664H64.6174V57.3529H71.9128V67.5664Z" fill="#0E8778"/>
<path d="M34.1975 45.0238C34.4893 44.732 34.4893 44.2943 34.1975 44.0025C34.0516 43.8566 33.9786 43.6377 33.9786 43.4189V41.3032H40.5445C40.9822 41.3032 41.274 41.0114 41.274 40.5737C41.274 40.1359 40.9822 39.8441 40.5445 39.8441H33.9786V34.7374C33.9786 34.2996 33.6868 34.0078 33.2491 34.0078C32.8113 34.0078 32.5195 34.2996 32.5195 34.7374V43.4184C32.5195 44.0021 32.7384 44.5857 33.1761 45.0234C33.322 45.1693 33.9057 45.3882 34.1975 45.0234V45.0238Z" fill="#0E8778"/>
<path d="M33.2491 32.5486C33.6868 32.5486 33.9786 32.2568 33.9786 31.8191C33.9786 31.3813 34.3434 31.0895 34.7081 31.0895H52.2171C52.4359 31.0895 52.5818 31.1625 52.7277 31.3084C52.8736 31.4543 52.9466 31.6731 52.9466 31.8191V39.844H46.3808C45.943 39.844 45.6512 40.1358 45.6512 40.5735C45.6512 41.0112 45.943 41.3031 46.3808 41.3031H52.9466V43.4917C52.9466 43.8564 52.7277 44.1483 52.4359 44.2212C52.0712 44.3671 51.8523 44.7319 51.9982 45.1696C52.2171 45.8262 52.8736 45.6803 52.9466 45.6073C53.895 45.3155 54.4786 44.4401 54.4786 43.4917V31.8924C54.4786 31.3088 54.2598 30.7252 53.822 30.2874C53.3114 29.8497 52.8007 29.6309 52.2171 29.6309H34.7081C33.5409 29.6309 32.5195 30.6522 32.5195 31.8195C32.5195 32.2572 32.8113 32.549 33.2491 32.549V32.5486Z" fill="#0E8778"/>
<path d="M50.7589 35.4665C51.1966 35.4665 51.4885 35.1747 51.4885 34.737V33.2779C51.4885 32.8402 51.1966 32.5483 50.7589 32.5483H49.2999C48.8621 32.5483 48.5703 32.8402 48.5703 33.2779C48.5703 33.7156 48.8621 34.0074 49.2999 34.0074H50.0294V34.737C50.0294 35.1747 50.3212 35.4665 50.7589 35.4665Z" fill="#0E8778"/>
<path d="M47.1096 33.2779C47.1096 32.8402 46.8177 32.5483 46.38 32.5483H44.9209C44.4832 32.5483 44.1914 32.8402 44.1914 33.2779C44.1914 33.7156 44.4832 34.0074 44.9209 34.0074H46.38C46.8177 34.0074 47.1096 33.7156 47.1096 33.2779Z" fill="#0E8778"/>
<path d="M62.2825 38.4571C62.7203 38.8219 63.158 38.603 63.3039 38.4571C65.1277 36.6333 65.2736 33.861 63.8146 31.8183C65.0548 30.9429 66.7327 30.8699 68.1188 31.6724C70.1615 32.9126 70.8911 35.466 69.8697 37.5817C69.7238 37.9464 69.8697 38.3841 70.2345 38.5301C70.6722 38.7489 71.1099 38.4571 71.1829 38.1653C72.569 35.393 71.5477 31.9642 68.9213 30.3592C67.0245 29.192 64.617 29.4108 62.8662 30.724C60.8964 29.192 57.9783 29.3379 56.1544 31.1617C55.8626 31.4535 55.8626 31.8913 56.1544 32.1831L62.2825 38.4571ZM62.2825 32.256C63.5227 33.4962 63.6686 35.466 62.7203 36.8521L57.6864 31.8183C59.0726 30.8699 61.0423 31.0158 62.2825 32.256Z" fill="#0E8778"/>
<path d="M58.1254 36.3414C57.6877 35.9036 57.4688 35.32 57.4688 34.7364C57.4688 34.2987 57.177 34.0068 56.7393 34.0068C56.3745 34.0068 56.0098 34.2987 56.0098 34.7364C56.0098 35.7577 56.3745 36.7061 57.1041 37.4357C57.7607 38.0922 58.6361 38.457 59.5115 38.53C59.5115 38.53 60.1681 38.6029 60.2411 37.8004C60.314 37.4357 59.9493 37.0709 59.5115 37.0709C59.0738 36.9979 58.4902 36.7791 58.1254 36.3414Z" fill="#0E8778"/>
<path d="M67.5372 62.4595C67.5372 62.8624 67.2105 63.1891 66.8077 63.1891C66.4048 63.1891 66.0781 62.8624 66.0781 62.4595C66.0781 62.0566 66.4048 61.73 66.8077 61.73C67.2105 61.73 67.5372 62.0566 67.5372 62.4595Z" fill="#0E8778"/>
<path d="M61.7716 62.4595C61.7716 62.8624 61.4449 63.1891 61.042 63.1891C60.6392 63.1891 60.3125 62.8624 60.3125 62.4595C60.3125 62.0566 60.6392 61.73 61.042 61.73C61.4449 61.73 61.7716 62.0566 61.7716 62.4595Z" fill="#0E8778"/>
<path d="M64.547 53.7051C64.547 54.108 64.2203 54.4347 63.8174 54.4347C63.4146 54.4347 63.0879 54.108 63.0879 53.7051C63.0879 53.3023 63.4146 52.9756 63.8174 52.9756C64.2203 52.9756 64.547 53.3023 64.547 53.7051Z" fill="#0E8778"/>
<path d="M44.1895 40.5728C44.1895 40.9757 43.8629 41.3023 43.46 41.3023C43.0571 41.3023 42.7305 40.9757 42.7305 40.5728C42.7305 40.1699 43.0571 39.8433 43.46 39.8433C43.8629 39.8433 44.1895 40.1699 44.1895 40.5728Z" fill="#0E8778"/>
</svg>
