<svg width="48" height="48" viewBox="0 0 48 48" fill="none" xmlns="http://www.w3.org/2000/svg">
<path fill-rule="evenodd" clip-rule="evenodd" d="M31.7761 3.90249C34.4434 3.18778 37.1851 4.7707 37.8998 7.43803L44.0962 30.5634C44.8109 33.2307 43.228 35.9724 40.5607 36.6871L17.4353 42.8835C14.768 43.5982 12.0263 42.0153 11.3116 39.348L5.1152 16.2226C4.40049 13.5553 5.9834 10.8136 8.65073 10.0989L31.7761 3.90249Z" fill="#B7DBD7"/>
<path fill-rule="evenodd" clip-rule="evenodd" d="M20.4645 3.53553C22.4171 1.58291 25.5829 1.58291 27.5355 3.53553L44.4645 20.4645C46.4171 22.4171 46.4171 25.5829 44.4645 27.5355L27.5355 44.4645C25.5829 46.4171 22.4171 46.4171 20.4645 44.4645L3.53554 27.5355C1.58291 25.5829 1.58291 22.4171 3.53553 20.4645L20.4645 3.53553Z" fill="white"/>
<path d="M20.3678 23.5003C20.894 23.7621 21.5126 23.7621 22.0388 23.5003C22.2077 23.416 22.2762 23.2109 22.1919 23.0421C22.1076 22.8734 21.9024 22.8048 21.7337 22.8891C21.3997 23.0554 21.007 23.0554 20.673 22.8891C20.5043 22.8048 20.2991 22.8734 20.2148 23.0421C20.1305 23.2109 20.1989 23.416 20.3678 23.5003H20.3678Z" fill="#0E8778"/>
<path d="M20.5202 21.1427C20.6787 21.143 20.8167 21.0342 20.8531 20.8798C20.8897 20.7255 20.8151 20.5664 20.6732 20.4956C20.1467 20.2345 19.5284 20.2345 19.0021 20.4956C18.8333 20.5799 18.7647 20.7851 18.849 20.9539C18.9333 21.1228 19.1385 21.1912 19.3074 21.1069C19.6412 20.9406 20.0339 20.9406 20.3679 21.1069C20.4152 21.1304 20.4673 21.1427 20.5202 21.1427L20.5202 21.1427Z" fill="#0E8778"/>
<path d="M23.0992 21.1098C23.268 21.1941 23.4732 21.1257 23.5575 20.9568C23.6418 20.788 23.5733 20.5829 23.4044 20.4986C22.8781 20.2375 22.2598 20.2375 21.7334 20.4986C21.5645 20.5829 21.4961 20.788 21.5804 20.9568C21.6647 21.1257 21.8699 21.1941 22.0386 21.1098C22.3726 20.9435 22.7653 20.9435 23.0993 21.1098H23.0992Z" fill="#0E8778"/>
<path d="M23.5941 31.3867H18.8137C18.6252 31.3867 18.4723 31.5396 18.4723 31.7282V33.094C18.4723 33.2825 18.6252 33.4354 18.8137 33.4354C19.0023 33.4354 19.1552 33.2825 19.1552 33.094V32.0696H23.2526V33.094C23.2526 33.2825 23.4055 33.4354 23.5941 33.4354C23.7827 33.4354 23.9355 33.2825 23.9355 33.094V31.7282C23.9355 31.6376 23.8996 31.5507 23.8355 31.4867C23.7715 31.4227 23.6846 31.3867 23.5941 31.3867Z" fill="#0E8778"/>
<path d="M34.6278 22.8678L33.6035 22.5264C33.5687 22.5148 33.5323 22.5088 33.4955 22.5087H31.4468C30.9942 22.5093 30.5603 22.6893 30.2401 23.0093C29.9202 23.3294 29.7402 23.7634 29.7396 24.2159C29.7396 24.3065 29.7755 24.3934 29.8396 24.4574C29.9036 24.5214 29.9905 24.5574 30.081 24.5574H30.4225V26.1622L29.6713 27.289H28.0323C28.0254 27.289 28.0193 27.291 28.0125 27.291C27.9282 26.54 27.5704 25.8461 27.0072 25.342C26.4441 24.8377 25.7151 24.5585 24.9592 24.5574H23.3561C23.776 24.2617 24.1312 23.8835 24.4002 23.446C24.7548 23.7235 25.192 23.8743 25.6421 23.8745C26.2927 23.8756 26.905 23.5671 27.2913 23.0434C27.6774 22.52 27.7916 21.8438 27.5985 21.2226C27.4053 20.6013 26.9281 20.1089 26.3131 19.8966C26.3159 19.8567 26.325 19.8181 26.325 19.7771C26.3232 19.2916 26.063 18.8437 25.6421 18.6018V18.4113C25.643 17.617 25.4115 16.8397 24.976 16.1754C24.8722 16.0176 24.6601 15.9737 24.5024 16.0775C24.3444 16.1812 24.3007 16.3932 24.4043 16.551C24.7668 17.1037 24.9597 17.7503 24.9592 18.4113V18.7528C24.9577 18.9017 24.9066 19.0457 24.8141 19.1625C24.7575 19.1194 24.6888 19.0954 24.6178 19.0942H24.5533C23.7786 19.093 23.0096 18.9634 22.2775 18.7107C22.099 18.6499 21.9049 18.7451 21.8439 18.9236C21.7831 19.1021 21.8784 19.2962 22.0569 19.3571C22.7724 19.6033 23.5203 19.7431 24.2763 19.7719V21.4844C24.2763 22.5822 23.6907 23.5968 22.7398 24.1457C21.7889 24.6946 20.6176 24.6946 19.6667 24.1457C18.7158 23.5968 18.1302 22.5822 18.1302 21.4844V19.7529C18.9687 19.6296 19.6829 19.0789 20.0154 18.2993C20.2519 18.4709 20.498 18.6291 20.7522 18.7732C20.9164 18.8662 21.1248 18.8086 21.2178 18.6444C21.3108 18.4802 21.2531 18.2717 21.089 18.1788C20.7239 17.9728 20.3782 17.7341 20.0561 17.4658C19.9635 17.3889 19.8375 17.3662 19.7241 17.4063C19.6107 17.4463 19.5267 17.5429 19.5029 17.6607L19.496 17.6949C19.4161 18.0891 19.2026 18.4437 18.8915 18.6985C18.5805 18.9535 18.1909 19.0933 17.7887 19.0943C17.7177 19.0955 17.649 19.1194 17.5924 19.1625C17.4999 19.0458 17.4488 18.9017 17.4473 18.7528V18.4113C17.4455 17.4758 17.8313 16.5815 18.513 15.941C18.6636 16.0959 18.8488 16.2129 19.0535 16.2824C18.8514 16.4465 18.6746 16.6397 18.529 16.8557C18.4244 17.0126 18.4668 17.2246 18.6237 17.3292C18.7805 17.4339 18.9926 17.3915 19.0973 17.2347C19.4601 16.6893 20.072 16.3619 20.727 16.3626H21.6814C22.3366 16.3618 22.9484 16.6894 23.3112 17.235C23.4158 17.3918 23.6278 17.4342 23.7847 17.3296C23.9417 17.2249 23.9839 17.0129 23.8794 16.856C23.7336 16.64 23.5568 16.4467 23.3545 16.2827C23.766 16.1429 24.0861 15.8152 24.2161 15.4006C24.3461 14.986 24.2705 14.5341 24.0126 14.1845C23.7545 13.8348 23.3452 13.6292 22.9107 13.631C22.7459 13.631 22.5825 13.6613 22.4285 13.7204C22.2804 13.4105 22.0203 13.1683 21.7007 13.0426C21.3812 12.9168 21.0257 12.9168 20.7062 13.0426C20.3865 13.1683 20.1265 13.4105 19.9783 13.7204C19.8244 13.6613 19.661 13.631 19.4962 13.631C19.134 13.631 18.7866 13.7749 18.5304 14.0309C18.2743 14.2872 18.1304 14.6346 18.1304 14.9968C18.1318 15.1096 18.1472 15.2218 18.1764 15.3308C17.2792 16.1027 16.7635 17.2276 16.7646 18.4113V18.6018C16.3437 18.8437 16.0835 19.2916 16.0817 19.7771C16.0821 20.1705 16.2182 20.5518 16.467 20.8565C16.7158 21.1614 17.0621 21.371 17.4475 21.4502V21.4844C17.4488 22.7092 18.0479 23.8564 19.0523 24.5574H17.4475C16.6327 24.5584 15.8516 24.8824 15.2754 25.4585C14.6994 26.0347 14.3753 26.8158 14.3744 27.6305V33.0938C14.3744 33.2823 14.5273 33.4352 14.7158 33.4352C14.9044 33.4352 15.0573 33.2823 15.0573 33.0938V29.6793H16.7646V33.0938C16.7646 33.2823 16.9175 33.4352 17.106 33.4352C17.2946 33.4352 17.4475 33.2823 17.4475 33.0938V27.972C17.4475 27.7834 17.2946 27.6305 17.106 27.6305C16.9175 27.6305 16.7646 27.7834 16.7646 27.972V28.9963H15.0573V27.6305C15.0585 27.1164 15.2251 26.6164 15.5326 26.2043C15.8401 25.7923 16.2721 25.4902 16.7646 25.3428V26.6062C16.7646 26.7947 16.9175 26.9476 17.106 26.9476C17.2946 26.9476 17.4475 26.7947 17.4475 26.6062V25.2404H18.1304V27.972C18.1304 28.3342 18.2743 28.6816 18.5304 28.9378C18.7866 29.1939 19.134 29.3378 19.4962 29.3378H22.9107C23.2729 29.3378 23.6203 29.1939 23.8766 28.9378C24.1326 28.6816 24.2765 28.3342 24.2765 27.972V25.2404H24.9594V33.0938C24.9594 33.2823 25.1123 33.4352 25.3009 33.4352C25.4895 33.4352 25.6424 33.2823 25.6424 33.0938V29.6793H26.4701C26.5907 29.9506 26.7798 30.1859 27.0187 30.3622C26.6308 30.6477 26.3818 31.0842 26.334 31.5636C26.2859 32.043 26.4434 32.5203 26.7672 32.877C27.091 33.2337 27.5509 33.4366 28.0326 33.4352H29.3984C29.5869 33.4352 29.7398 33.2823 29.7398 33.0938C29.7398 32.9052 29.5869 32.7523 29.3984 32.7523H28.0326C27.6666 32.7523 27.3285 32.5571 27.1454 32.2402C26.9625 31.9232 26.9625 31.5327 27.1454 31.2158C27.3285 30.8989 27.6666 30.7036 28.0326 30.7036H31.4471C31.6357 30.7036 31.7886 30.8565 31.7886 31.0451C31.7886 31.2336 31.6357 31.3865 31.4471 31.3865H28.0326C27.844 31.3865 27.6911 31.5394 27.6911 31.728C27.6911 31.9165 27.844 32.0694 28.0326 32.0694H31.4471C31.6357 32.0694 31.7886 32.2223 31.7886 32.4109C31.7886 32.5994 31.6357 32.7523 31.4471 32.7523H30.7642C30.5756 32.7523 30.4227 32.9052 30.4227 33.0938C30.4227 33.2823 30.5756 33.4352 30.7642 33.4352H31.4471C31.7122 33.4351 31.9667 33.3322 32.1574 33.1482C32.3483 32.9642 32.4603 32.7134 32.4701 32.4487C32.4798 32.1837 32.3866 31.9255 32.2099 31.728C32.3791 31.5405 32.4724 31.2967 32.4715 31.0441C32.4705 30.7916 32.3756 30.5484 32.2052 30.3621C32.3756 30.1759 32.4705 29.9327 32.4715 29.6801C32.4724 29.4275 32.3791 29.1838 32.2099 28.9963C32.3866 28.7988 32.4798 28.5405 32.4701 28.2756C32.4603 28.0108 32.3483 27.7601 32.1574 27.5761C31.9667 27.3921 31.7122 27.2892 31.4471 27.289H30.491L31.0476 26.4541C31.0852 26.398 31.1054 26.3322 31.1057 26.2647V25.9232H31.7886V26.2647C31.7887 26.332 31.8087 26.398 31.8459 26.4541L33.0393 28.2451C33.1143 28.357 33.1544 28.4887 33.1544 28.6234V32.0694C33.1544 32.258 33.3073 32.4109 33.4958 32.4109C33.6844 32.4109 33.8373 32.258 33.8373 32.0694V28.6234C33.8374 28.3538 33.7576 28.0901 33.6079 27.8657L32.4715 26.1623V24.5574H32.8174C32.8279 24.9336 32.9536 25.2975 33.1779 25.5996C33.4021 25.9019 33.7138 26.1278 34.0708 26.247C34.2499 26.3065 34.4435 26.2097 34.5031 26.0304C34.5627 25.8513 34.4658 25.6577 34.2867 25.5983C34.0658 25.5243 33.8725 25.3855 33.7323 25.1996C33.5919 25.0138 33.5109 24.79 33.5003 24.5574C33.5352 24.5571 33.5696 24.5513 33.6027 24.5404L34.6271 24.1989C34.7671 24.1527 34.8617 24.0219 34.8617 23.8745V23.1916C34.8615 23.0447 34.7675 22.9143 34.6281 22.8678L34.6278 22.8678ZM26.1286 20.5555C26.5298 20.7074 26.836 21.0392 26.9551 21.4512C27.0743 21.8633 26.9924 22.3073 26.734 22.6498C26.4757 22.9922 26.0713 23.193 25.6423 23.1916C25.2949 23.1884 24.9621 23.0506 24.7143 22.8071C24.8756 22.3848 24.9586 21.9365 24.9594 21.4843V21.4502C25.4643 21.3439 25.894 21.0152 26.1286 20.5555L26.1286 20.5555ZM25.4955 19.364C25.5894 19.4812 25.6411 19.6268 25.6423 19.7771C25.6414 19.9882 25.5754 20.1938 25.4531 20.3659C25.3309 20.538 25.1585 20.6682 24.9594 20.7386V19.9283C25.189 19.796 25.3751 19.5999 25.4955 19.3639V19.364ZM19.4961 14.314C19.6665 14.3149 19.8303 14.3797 19.9554 14.4957C20.052 14.5844 20.191 14.6098 20.3128 14.5612C20.4348 14.5126 20.518 14.3984 20.527 14.2675C20.5416 14.0361 20.6736 13.8281 20.877 13.7166C21.0802 13.6048 21.3265 13.6048 21.5297 13.7166C21.7331 13.8282 21.8651 14.0361 21.8797 14.2675C21.8887 14.3984 21.9719 14.5126 22.0939 14.5612C22.2157 14.6098 22.3547 14.5844 22.4513 14.4957C22.6173 14.342 22.8486 14.2806 23.0689 14.3315C23.2893 14.3824 23.4701 14.5391 23.5519 14.7499C23.6336 14.9607 23.6057 15.1984 23.4774 15.3845C23.349 15.5708 23.1367 15.6813 22.9106 15.6798H19.4961C19.2521 15.6798 19.0266 15.5496 18.9047 15.3383C18.7827 15.1271 18.7827 14.8667 18.9047 14.6554C19.0266 14.4442 19.2521 14.314 19.4961 14.314L19.4961 14.314ZM16.7644 19.7772C16.7656 19.6269 16.8173 19.4813 16.9112 19.3641C17.0316 19.6001 17.2178 19.7961 17.4473 19.9284V20.7388C17.2482 20.6684 17.0758 20.5382 16.9536 20.3661C16.8313 20.194 16.7653 19.9883 16.7644 19.7772V19.7772ZM23.5935 25.5011L22.7456 27.1965L21.7664 26.8052L23.0708 25.2403H23.5935V25.5011ZM21.2033 25.2403C21.5832 25.2405 21.9611 25.183 22.3236 25.0696L21.2033 26.4139L20.0831 25.0696C20.4456 25.183 20.8235 25.2405 21.2033 25.2403ZM19.3359 25.2403L20.6403 26.8052L19.661 27.1965L18.8131 25.5012V25.2403L19.3359 25.2403ZM22.9106 28.6549H19.4961C19.315 28.6549 19.1412 28.5829 19.0131 28.4549C18.8851 28.3268 18.8131 28.153 18.8131 27.972V27.0282L19.1904 27.7832V27.7831C19.2698 27.9421 19.4578 28.0137 19.6227 27.9477L21.2033 27.3153L22.7839 27.9476V27.9477C22.8242 27.9639 22.8672 27.9721 22.9106 27.972C23.04 27.972 23.1583 27.8989 23.2162 27.7831L23.5935 27.0282V27.972C23.5935 28.1531 23.5216 28.3268 23.3935 28.4549C23.2655 28.5829 23.0917 28.6549 22.9106 28.6549L22.9106 28.6549ZM26.3251 28.9963H25.6422V25.3428C26.1033 25.4812 26.512 25.7554 26.8149 26.1296C27.1178 26.5039 27.3007 26.9609 27.3399 27.4407C27.0387 27.5744 26.7826 27.7924 26.6024 28.0685C26.4224 28.3445 26.3261 28.6668 26.3251 28.9963H26.3251ZM31.7884 28.3134C31.7884 28.404 31.7524 28.4908 31.6884 28.5549C31.6244 28.6189 31.5375 28.6549 31.4469 28.6549H28.0324C27.8438 28.6549 27.6909 28.8078 27.6909 28.9963C27.6909 29.1849 27.8438 29.3378 28.0324 29.3378H31.4469C31.6355 29.3378 31.7884 29.4907 31.7884 29.6792C31.7884 29.8678 31.6355 30.0207 31.4469 30.0207H28.0324C27.6664 30.0207 27.3283 29.8254 27.1452 29.5085C26.9623 29.1916 26.9623 28.801 27.1452 28.4841C27.3283 28.1672 27.6664 27.972 28.0324 27.972H31.4469C31.5375 27.972 31.6244 28.0079 31.6884 28.072C31.7524 28.136 31.7884 28.2229 31.7884 28.3134ZM31.4469 23.1916H33.1542V23.8745H30.4809C30.5518 23.675 30.6828 23.5021 30.8556 23.3799C31.0286 23.2576 31.2352 23.1919 31.4469 23.1916L31.4469 23.1916ZM31.7884 25.2403H31.1055V24.5574H31.7884V25.2403ZM34.1786 23.6283L33.8371 23.7423V23.3237L34.1786 23.4378V23.6283Z" fill="#0E8778"/>
</svg>
