<svg width="104" height="104" viewBox="0 0 104 104" fill="none" xmlns="http://www.w3.org/2000/svg">
<path fill-rule="evenodd" clip-rule="evenodd" d="M69.6532 8.242C74.9879 6.81258 80.4713 9.97841 81.9007 15.3131L95.7576 67.0279C97.187 72.3625 94.0212 77.8459 88.6866 79.2753L36.9718 93.1323C31.6371 94.5617 26.1537 91.3959 24.7243 86.0612L10.8674 34.3464C9.43795 29.0117 12.6038 23.5284 17.9384 22.0989L69.6532 8.242Z" fill="#B7DBD7"/>
<path fill-rule="evenodd" clip-rule="evenodd" d="M44.9289 7.07107C48.8342 3.16583 55.1658 3.16582 59.0711 7.07107L96.9289 44.9289C100.834 48.8342 100.834 55.1658 96.9289 59.0711L59.0711 96.9289C55.1658 100.834 48.8342 100.834 44.9289 96.9289L7.07107 59.0711C3.16583 55.1658 3.16582 48.8342 7.07107 44.9289L44.9289 7.07107Z" fill="#3E9F93"/>
<path d="M44.1305 50.9137C45.2706 51.4808 46.6109 51.4808 47.7509 50.9137C48.1169 50.7311 48.2652 50.2865 48.0825 49.9209C47.8999 49.5553 47.4553 49.4067 47.0897 49.5893C46.3661 49.9497 45.5153 49.9497 44.7917 49.5893C44.426 49.4067 43.9815 49.5553 43.7989 49.9209C43.6162 50.2866 43.7645 50.7311 44.1305 50.9137H44.1305Z" fill="white"/>
<path d="M44.4606 45.8083C44.8041 45.8089 45.103 45.5731 45.1819 45.2386C45.2612 44.9043 45.0997 44.5595 44.7922 44.4063C43.6515 43.8405 42.3118 43.8405 41.1714 44.4063C40.8058 44.5889 40.6572 45.0334 40.8398 45.399C41.0225 45.765 41.467 45.9133 41.833 45.7306C42.5563 45.3703 43.407 45.3703 44.1307 45.7306C44.2331 45.7815 44.346 45.8083 44.4606 45.8083L44.4606 45.8083Z" fill="white"/>
<path d="M50.0487 45.734C50.4143 45.9167 50.8589 45.7684 51.0415 45.4024C51.2242 45.0368 51.0759 44.5923 50.7099 44.4097C49.5695 43.8439 48.2299 43.8439 47.0895 44.4097C46.7235 44.5923 46.5752 45.0369 46.7579 45.4024C46.9405 45.7684 47.3851 45.9167 47.7507 45.734C48.4743 45.3737 49.3251 45.3737 50.0488 45.734H50.0487Z" fill="white"/>
<path d="M51.1207 68.0029H40.7633C40.3547 68.0029 40.0234 68.3342 40.0234 68.7427V71.702C40.0234 72.1106 40.3547 72.4418 40.7633 72.4418C41.1718 72.4418 41.5031 72.1106 41.5031 71.702V69.4826H50.3809V71.702C50.3809 72.1106 50.7121 72.4418 51.1207 72.4418C51.5292 72.4418 51.8605 72.1106 51.8605 71.702V68.7427C51.8605 68.5466 51.7825 68.3583 51.6438 68.2196C51.5051 68.0809 51.3169 68.0029 51.1207 68.0029Z" fill="white"/>
<path d="M75.027 49.5451L72.8075 48.8053C72.7322 48.7802 72.6533 48.7673 72.5737 48.767H68.1348C67.1542 48.7683 66.2139 49.1584 65.5203 49.8516C64.8271 50.5452 64.4371 51.4855 64.4357 52.4661C64.4357 52.6623 64.5137 52.8505 64.6524 52.9893C64.7911 53.128 64.9794 53.2059 65.1755 53.2059H65.9154V56.683L64.2878 59.1244H60.7367C60.7218 59.1244 60.7086 59.1287 60.6937 59.1287C60.5111 57.5015 59.7359 55.9981 58.5155 54.9059C57.2955 53.8133 55.7162 53.2083 54.0783 53.206H50.6048C51.5148 52.5652 52.2843 51.7458 52.8672 50.798C53.6354 51.3991 54.5827 51.7258 55.558 51.7263C56.9676 51.7287 58.2943 51.0602 59.1312 49.9257C59.9678 48.7915 60.2152 47.3264 59.7967 45.9806C59.3783 44.6343 58.3442 43.5676 57.0118 43.1075C57.0178 43.021 57.0376 42.9374 57.0376 42.8486C57.0336 41.7967 56.4698 40.8263 55.5579 40.3022V39.8893C55.5599 38.1683 55.0582 36.4842 54.1147 35.0449C53.8897 34.703 53.4303 34.6079 53.0885 34.8328C52.7463 35.0574 52.6515 35.5168 52.8761 35.8587C53.6615 37.0562 54.0793 38.4572 54.0783 39.8894V40.6292C54.075 40.9519 53.9644 41.264 53.7639 41.517C53.6414 41.4235 53.4924 41.3716 53.3385 41.369H53.1988C51.5203 41.3664 49.8541 41.0856 48.2678 40.538C47.8811 40.4062 47.4606 40.6127 47.3286 40.9994C47.1968 41.3862 47.4032 41.8066 47.79 41.9387C49.3403 42.4721 50.9606 42.7749 52.5988 42.8374V46.5477C52.5988 48.9264 51.3298 51.1247 49.2696 52.314C47.2093 53.5032 44.6715 53.5032 42.6112 52.314C40.551 51.1247 39.2821 48.9264 39.2821 46.5477V42.7961C41.0989 42.5289 42.6462 41.3359 43.3666 39.6466C43.8792 40.0185 44.4123 40.3613 44.9632 40.6735C45.3189 40.8749 45.7704 40.7501 45.9719 40.3944C46.1733 40.0387 46.0485 39.5869 45.6928 39.3857C44.9018 38.9392 44.1527 38.422 43.4548 37.8407C43.2543 37.6743 42.9812 37.625 42.7355 37.7119C42.4898 37.7984 42.3078 38.0078 42.2563 38.2631L42.2414 38.3371C42.0683 39.1912 41.6056 39.9595 40.9315 40.5117C40.2578 41.0642 39.4136 41.3671 38.5423 41.3691C38.3884 41.3717 38.2395 41.4236 38.1169 41.5171C37.9164 41.2641 37.8058 40.952 37.8025 40.6293V39.8895C37.7985 37.8625 38.6345 35.9248 40.1115 34.537C40.4378 34.8726 40.8391 35.1262 41.2827 35.2768C40.8447 35.6322 40.4616 36.051 40.1462 36.5189C39.9197 36.8588 40.0115 37.3182 40.3513 37.5448C40.6912 37.7717 41.1506 37.6799 41.3775 37.34C42.1636 36.1583 43.4893 35.4489 44.9085 35.4505H46.9764C48.3959 35.4488 49.7216 36.1586 50.5077 37.3406C50.7343 37.6805 51.1937 37.7723 51.5335 37.5457C51.8737 37.3188 51.9652 36.8594 51.7386 36.5195C51.4229 36.0515 51.0398 35.6328 50.6015 35.2774C51.4929 34.9745 52.1865 34.2645 52.4682 33.3661C52.75 32.4678 52.5861 31.4889 52.0273 30.7312C51.4682 29.9736 50.5813 29.5281 49.6398 29.5319C49.2828 29.5319 48.9287 29.5977 48.5952 29.7258C48.2741 29.0544 47.7107 28.5296 47.0181 28.2571C46.3259 27.9846 45.5557 27.9846 44.8635 28.2571C44.1709 28.5296 43.6075 29.0544 43.2864 29.7258C42.9528 29.5977 42.5988 29.5319 42.2418 29.5319C41.4571 29.5319 40.7043 29.8437 40.1492 30.3986C39.5943 30.9538 39.2825 31.7065 39.2825 32.4912C39.2855 32.7356 39.3189 32.9787 39.3823 33.2148C37.4383 34.8873 36.321 37.3248 36.3232 39.8893V40.3022C35.4114 40.8263 34.8476 41.7967 34.8436 42.8486C34.8446 43.701 35.1395 44.5271 35.6785 45.1872C36.2176 45.8478 36.9679 46.302 37.8029 46.4737V46.5477C37.8058 49.2014 39.1039 51.6871 41.28 53.206H37.8029C36.0375 53.208 34.3452 53.9102 33.0968 55.1583C31.8487 56.4068 31.1466 58.099 31.1445 59.8644V71.7014C31.1445 72.11 31.4758 72.4412 31.8843 72.4412C32.2929 72.4412 32.6242 72.11 32.6242 71.7014V64.3033H36.3232V71.7014C36.3232 72.11 36.6545 72.4412 37.0631 72.4412C37.4716 72.4412 37.8029 72.11 37.8029 71.7014V60.6042C37.8029 60.1956 37.4716 59.8644 37.0631 59.8644C36.6545 59.8644 36.3232 60.1956 36.3232 60.6042V62.8236H32.6242V59.8644C32.6268 58.7503 32.9878 57.6671 33.654 56.7743C34.3202 55.8815 35.2561 55.2269 36.3232 54.9076V57.6449C36.3232 58.0535 36.6545 58.3847 37.0631 58.3847C37.4716 58.3847 37.8029 58.0535 37.8029 57.6449V54.6856H39.2825V60.6042C39.2825 61.3889 39.5943 62.1416 40.1491 62.6968C40.7043 63.2517 41.4571 63.5634 42.2418 63.5634H49.6399C50.4247 63.5634 51.1774 63.2517 51.7326 62.6968C52.2874 62.1416 52.5992 61.3889 52.5992 60.6042V54.6856H54.0788V71.7014C54.0788 72.11 54.4101 72.4412 54.8186 72.4412C55.2272 72.4412 55.5585 72.11 55.5585 71.7014V64.3033H57.3519C57.6131 64.8911 58.023 65.4011 58.5405 65.7829C57.7 66.4015 57.1607 67.3474 57.0569 68.3861C56.9529 69.4248 57.2941 70.4589 57.9956 71.2317C58.6971 72.0046 59.6936 72.4442 60.7373 72.4412H63.6965C64.1051 72.4412 64.4363 72.11 64.4363 71.7014C64.4363 71.2929 64.1051 70.9616 63.6965 70.9616H60.7373C59.9443 70.9616 59.2117 70.5385 58.8151 69.8519C58.4188 69.1652 58.4188 68.3191 58.8151 67.6324C59.2117 66.9458 59.9443 66.5227 60.7373 66.5227H68.1354C68.544 66.5227 68.8752 66.854 68.8752 67.2625C68.8752 67.6711 68.544 68.0023 68.1354 68.0023H60.7373C60.3287 68.0023 59.9974 68.3336 59.9974 68.7421C59.9974 69.1507 60.3287 69.482 60.7373 69.482H68.1354C68.544 69.482 68.8752 69.8132 68.8752 70.2218C68.8752 70.6303 68.544 70.9616 68.1354 70.9616H66.6558C66.2472 70.9616 65.916 71.2929 65.916 71.7014C65.916 72.11 66.2472 72.4412 66.6558 72.4412H68.1354C68.7098 72.4409 69.2613 72.218 69.6745 71.8193C70.088 71.4207 70.3307 70.8773 70.3519 70.3037C70.373 69.7296 70.1709 69.1702 69.7881 68.7421C70.1547 68.3359 70.3568 67.8077 70.3548 67.2605C70.3529 66.7133 70.1471 66.1865 69.7779 65.7828C70.1471 65.3792 70.3529 64.8524 70.3548 64.3052C70.3568 63.7579 70.1547 63.2298 69.7881 62.8236C70.1709 62.3955 70.373 61.836 70.3519 61.262C70.3307 60.6883 70.088 60.145 69.6745 59.7464C69.2613 59.3477 68.7098 59.1248 68.1354 59.1245H66.0639L67.2698 57.3155C67.3514 57.194 67.395 57.0513 67.3956 56.905V56.1651H68.8753V56.905C68.8756 57.0509 68.9189 57.194 68.9994 57.3155L71.5852 61.1959C71.7477 61.4384 71.8345 61.7237 71.8345 62.0157V69.4819C71.8345 69.8905 72.1658 70.2217 72.5743 70.2217C72.9829 70.2217 73.3141 69.8905 73.3141 69.4819V62.0157C73.3145 61.4314 73.1414 60.86 72.8171 60.3739L70.3549 56.6831V53.206H71.1043C71.1271 54.0211 71.3996 54.8095 71.8854 55.464C72.3712 56.119 73.0466 56.6084 73.8202 56.8667C74.2082 56.9955 74.6277 56.7858 74.7568 56.3974C74.8859 56.0093 74.6759 55.5899 74.2878 55.4611C73.8092 55.3009 73.3905 55 73.0866 54.5974C72.7824 54.1948 72.607 53.71 72.5839 53.206C72.6596 53.2053 72.7342 53.1928 72.8059 53.169L75.0253 52.4292C75.3288 52.3291 75.5336 52.0457 75.5336 51.7263V50.2467C75.5333 49.9283 75.3295 49.6459 75.0276 49.5452L75.027 49.5451ZM56.6119 44.5352C57.4812 44.8641 58.1447 45.5832 58.4027 46.4759C58.661 47.3686 58.4836 48.3307 57.9238 49.0728C57.364 49.8146 56.4878 50.2496 55.5583 50.2467C54.8056 50.2397 54.0846 49.9411 53.5476 49.4137C53.8971 48.4985 54.0771 47.5272 54.0787 46.5476V46.4736C55.1726 46.2434 56.1036 45.5311 56.6119 44.5352L56.6119 44.5352ZM55.2403 41.9534C55.4437 42.2074 55.5557 42.5228 55.5583 42.8485C55.5563 43.3059 55.4133 43.7515 55.1484 44.1244C54.8836 44.4972 54.51 44.7793 54.0787 44.9319V43.1761C54.5761 42.8894 54.9793 42.4647 55.2403 41.9534V41.9534ZM42.2415 31.0118C42.6107 31.0138 42.9658 31.1541 43.2366 31.4055C43.446 31.5977 43.7472 31.6528 44.0111 31.5475C44.2754 31.4421 44.4557 31.1947 44.4752 30.911C44.5069 30.4097 44.7929 29.9592 45.2335 29.7174C45.6737 29.4754 46.2075 29.4754 46.6478 29.7174C47.0883 29.9592 47.3744 30.4097 47.4061 30.911C47.4256 31.1948 47.6059 31.4421 47.8701 31.5475C48.134 31.6528 48.4352 31.5977 48.6446 31.4055C49.0043 31.0725 49.5053 30.9394 49.9825 31.0498C50.4601 31.1601 50.8518 31.4996 51.0292 31.9564C51.2062 32.4132 51.1458 32.928 50.8677 33.3313C50.5896 33.7349 50.1295 33.9744 49.6398 33.9711H42.2416C41.7128 33.9711 41.2244 33.689 40.9601 33.2313C40.6959 32.7735 40.6959 32.2094 40.9601 31.7516C41.2244 31.2939 41.7128 31.0118 42.2416 31.0118L42.2415 31.0118ZM36.3229 42.8488C36.3256 42.5232 36.4376 42.2078 36.641 41.9538C36.9019 42.4651 37.3052 42.8898 37.8026 43.1765V44.9322C37.3712 44.7797 36.9977 44.4976 36.7328 44.1247C36.4679 43.7518 36.3249 43.3063 36.3229 42.8489V42.8488ZM51.1193 55.2507L49.2822 58.924L47.1605 58.0762L49.9867 54.6856H51.1193V55.2507ZM45.9406 54.6856C46.7636 54.6859 47.5824 54.5614 48.3677 54.3157L45.9406 57.2284L43.5134 54.3157C44.2988 54.5614 45.1175 54.6859 45.9406 54.6856ZM41.8944 54.6856L44.7206 58.0762L42.5989 58.924L40.7618 55.2507V54.6856L41.8944 54.6856ZM49.6396 62.0837H42.2415C41.8491 62.0837 41.4726 61.9279 41.1952 61.6504C40.9177 61.373 40.7618 60.9965 40.7618 60.6041V58.5593L41.5793 60.1952V60.1949C41.7514 60.5394 42.1586 60.6946 42.5159 60.5516L45.9406 59.1813L49.3652 60.5513V60.5516C49.4524 60.5866 49.5455 60.6044 49.6396 60.6041C49.92 60.6041 50.1763 60.4459 50.3018 60.1949L51.1193 58.5594V60.6041C51.1193 60.9965 50.9634 61.373 50.686 61.6504C50.4085 61.9279 50.032 62.0838 49.6396 62.0838L49.6396 62.0837ZM57.0378 62.8236H55.5582V54.9075C56.5572 55.2074 57.4427 55.8016 58.099 56.6124C58.7552 57.4232 59.1516 58.4134 59.2364 59.4531C58.5838 59.7428 58.029 60.2151 57.6386 60.8132C57.2486 61.4113 57.0398 62.1095 57.0378 62.8236H57.0378ZM68.8749 61.3439C68.8749 61.5401 68.7969 61.7284 68.6582 61.8671C68.5195 62.0058 68.3312 62.0837 68.135 62.0837H60.7369C60.3283 62.0837 59.9971 62.415 59.9971 62.8236C59.9971 63.2321 60.3283 63.5634 60.7369 63.5634H68.135C68.5436 63.5634 68.8749 63.8946 68.8749 64.3032C68.8749 64.7117 68.5436 65.043 68.135 65.043H60.7369C59.9439 65.043 59.2113 64.6199 58.8147 63.9333C58.4184 63.2466 58.4184 62.4005 58.8147 61.7138C59.2114 61.0272 59.9439 60.6041 60.7369 60.6041H68.135C68.3312 60.6041 68.5195 60.6821 68.6582 60.8208C68.7969 60.9595 68.8749 61.1477 68.8749 61.3439ZM68.135 50.2467H71.8341V51.7263H66.0421C66.1956 51.294 66.4794 50.9195 66.8539 50.6546C67.2288 50.3897 67.6763 50.2473 68.135 50.2467L68.135 50.2467ZM68.8749 54.6856H67.3952V53.206H68.8749V54.6856ZM74.0536 51.1929L73.3137 51.4399V50.533L74.0536 50.78V51.1929Z" fill="white"/>
</svg>
