<svg width="71" height="71" viewBox="0 0 71 71" fill="none" xmlns="http://www.w3.org/2000/svg">
<rect width="71" height="71" rx="10" fill="#0E8778"/>
<path fill-rule="evenodd" clip-rule="evenodd" d="M57.9981 45.0281V44.9763C57.9928 44.8597 57.9511 44.7458 57.8766 44.6496C57.765 44.5016 57.5902 44.4113 57.3995 44.4084C55.0388 44.3792 53.3068 44.9203 52.2236 46.0276V42.6923C52.5395 42.7344 52.8461 42.7567 53.1388 42.7567C55.5262 42.7567 57.1822 41.3463 57.9759 38.6002C57.9891 38.5552 57.9971 38.5098 57.9991 38.4639V38.4121C57.9938 38.2955 57.9521 38.1815 57.8775 38.0853C57.766 37.9374 57.5911 37.847 57.4004 37.8435C55.0398 37.8143 53.3077 38.3554 52.2245 39.4627V36.1274C52.5404 36.1695 52.847 36.1951 53.1398 36.1951C55.5272 36.1951 57.1831 34.7817 57.9768 32.0353C57.9901 31.9903 57.998 31.9449 58 31.899V31.8472C57.9947 31.7306 57.953 31.6166 57.8785 31.5205C57.7669 31.3725 57.5921 31.2854 57.4013 31.2821C55.0407 31.253 53.3086 31.7941 52.2254 32.8985V32.3092C53.2595 31.3369 53.8321 30.1972 53.8784 28.9932C53.9314 27.6184 53.299 26.2274 52.0542 24.9779C51.8237 24.7464 51.4125 24.7464 51.1813 24.9779C49.9366 26.2274 49.3048 27.6182 49.3571 28.9932C49.4031 30.1971 49.9763 31.3368 51.0101 32.3092V32.8953C49.9303 31.7944 48.1978 31.2533 45.8342 31.2821C45.6435 31.2854 45.4687 31.3725 45.3571 31.5204C45.2418 31.6684 45.2057 31.8585 45.2581 32.0353C46.0518 34.7817 47.7077 36.1951 50.0951 36.1951C50.3878 36.1951 50.6945 36.1695 51.0104 36.1274V39.4598C49.9306 38.3554 48.1981 37.8143 45.8345 37.8435C45.6438 37.8467 45.4689 37.9367 45.3573 38.0853C45.2421 38.2333 45.206 38.4234 45.2583 38.6002C46.052 41.3466 47.708 42.7567 50.0954 42.7567C50.3881 42.7567 50.6947 42.7344 51.0106 42.6923L51.0113 46.0241C49.9315 44.9196 48.199 44.3756 45.8354 44.4077C45.6447 44.4109 45.4698 44.501 45.3583 44.6489C45.243 44.7969 45.2069 44.987 45.2592 45.1644C46.053 47.9108 47.7089 49.321 50.0963 49.321C50.389 49.321 50.6956 49.2983 51.0116 49.2565V52.9947C49.3718 53.2104 47.9824 54.2925 47.3993 55.8117H39.7172C39.1377 54.2918 37.7453 53.2103 36.1086 52.9947V49.2565C36.4215 49.298 36.7278 49.321 37.0208 49.321C39.4076 49.321 41.0675 47.9105 41.861 45.1644C41.9103 44.9873 41.8742 44.7976 41.7619 44.6489C41.6467 44.501 41.4722 44.4106 41.2848 44.4077C38.9142 44.3786 37.1855 44.9196 36.1087 46.0208V42.6916C36.4216 42.7337 36.7279 42.7561 37.0209 42.7561C39.4077 42.7561 41.0676 41.3456 41.861 38.5995C41.9104 38.4224 41.8743 38.2326 41.762 38.0847C41.6468 37.9367 41.4723 37.8464 41.2849 37.8428C38.9143 37.8137 37.1856 38.3547 36.1087 39.4559V38.8699C37.1392 37.9008 37.7124 36.7613 37.7584 35.5568C37.8114 34.182 37.179 32.791 35.9342 31.5421C35.8226 31.4262 35.6643 31.3617 35.4994 31.3617C35.3349 31.3617 35.1766 31.4262 35.0614 31.5421C33.8166 32.7909 33.1878 34.1823 33.2371 35.5568C33.2832 36.7606 33.8593 37.9004 34.8901 38.8699V39.4592C33.8103 38.3547 32.0778 37.8136 29.714 37.8428C29.5262 37.846 29.3484 37.9361 29.2368 38.0847C29.1252 38.2327 29.0885 38.4227 29.1378 38.5995C29.9315 41.3459 31.5875 42.7561 33.9743 42.7561C34.2677 42.7561 34.5736 42.7337 34.8895 42.6916L34.8899 46.0241C33.8101 44.9196 32.0776 44.3756 29.7137 44.4077C29.526 44.4109 29.3482 44.501 29.2366 44.6489C29.125 44.7969 29.0882 44.987 29.1376 45.1644C29.9313 47.9108 31.5872 49.321 33.974 49.321C34.2674 49.321 34.5734 49.2983 34.8893 49.2565V52.9947C33.2495 53.2104 31.8602 54.2925 31.277 55.8117H23.6038C23.0207 54.2918 21.6312 53.2103 19.9915 52.9947V49.2565C20.3074 49.298 20.6141 49.321 20.9068 49.321C23.2942 49.321 24.9502 47.9105 25.7439 45.1644C25.7932 44.9873 25.7568 44.7976 25.6448 44.6489C25.5333 44.501 25.3551 44.4106 25.1677 44.4077C22.8001 44.3786 21.072 44.9196 19.9915 46.0241V45.4348C21.022 44.4657 21.5982 43.3262 21.6445 42.1217C21.6975 40.7469 21.0651 39.3559 19.8203 38.107C19.7051 37.9911 19.5475 37.9266 19.3822 37.9266C19.2177 37.9266 19.0627 37.9911 18.9475 38.1038C17.6998 39.3561 17.0709 40.7472 17.1232 42.122C17.1693 43.3265 17.7425 44.4663 18.7762 45.4351V46.0212C17.6964 44.9167 15.9639 44.3763 13.597 44.408C13.4093 44.4113 13.2315 44.5013 13.1192 44.6493C13.0076 44.7972 12.9709 44.9873 13.0239 45.1647C13.8139 47.9112 15.4735 49.3213 17.8574 49.3213C18.1537 49.3213 18.46 49.2986 18.7763 49.2569V52.9951C17.1332 53.2107 15.7435 54.2928 15.164 55.812H13.6064C13.2706 55.812 13.0008 56.0759 13.0008 56.4042C13.0008 56.7358 13.2706 57 13.6064 57H57.3885C57.7243 57 57.9978 56.7361 57.9978 56.4042C57.9978 56.0759 57.7243 55.812 57.3885 55.812H55.8342C55.2511 54.2921 53.8616 53.2107 52.222 52.9951V49.2569C52.5379 49.2983 52.8445 49.3213 53.1372 49.3213C55.5246 49.3213 57.1806 47.9108 57.9743 45.1647C57.9888 45.1194 57.9962 45.0734 57.9981 45.0281ZM55.7064 13H55.6412L50.8435 13.2542C50.5077 13.2736 50.2504 13.5534 50.2673 13.8788C50.2872 14.2071 50.5769 14.4613 50.909 14.4422L54.0104 14.2777C41.3578 25.4281 27.2523 30.8177 14.9744 35.0003C14.6585 35.1069 14.4903 35.4481 14.5993 35.757C14.6883 36.0018 14.9221 36.1563 15.1754 36.1563C15.2413 36.1563 15.3105 36.1466 15.3761 36.1239C27.7659 31.9029 42.0061 26.4589 54.824 15.1609L54.3793 18.1553C54.33 18.4807 54.5604 18.7834 54.8932 18.8314C54.923 18.8346 54.9525 18.8375 54.9823 18.8375C55.2786 18.8375 55.5386 18.6251 55.5816 18.3288L56.273 13.6798C56.2992 13.5027 56.2432 13.3253 56.1217 13.1935C56.0144 13.0779 55.8641 13.0093 55.7064 13.0005L55.7064 13ZM19.3828 54.1384C20.6076 54.1384 21.7044 54.7983 22.2705 55.8127H16.4957C17.0619 54.7983 18.1579 54.1384 19.3828 54.1384ZM18.3394 42.0778C18.3063 41.1987 18.6652 40.2878 19.3831 39.4149C20.1046 40.2875 20.4629 41.1987 20.4267 42.0778C20.4105 42.5803 20.2622 43.0725 19.992 43.543L19.9926 41.8527C19.9926 41.5244 19.7191 41.257 19.3834 41.257C19.0476 41.257 18.7777 41.5244 18.7777 41.8527V43.5433C18.5072 43.0725 18.3593 42.5804 18.3394 42.0778ZM35.5008 54.1384C36.7256 54.1384 37.822 54.7983 38.3885 55.8127H32.6097C33.1792 54.7983 34.2763 54.1384 35.5008 54.1384ZM34.4537 35.5128C34.4206 34.6338 34.7796 33.7229 35.5011 32.85C36.2186 33.7222 36.5775 34.6338 36.5447 35.5128C36.5249 36.0154 36.3765 36.5075 36.11 36.978V35.2875C36.11 34.9591 35.8364 34.6917 35.5007 34.6917C35.1646 34.6917 34.8914 34.9585 34.8914 35.2875V36.978C34.6215 36.5076 34.4733 36.0154 34.4537 35.5128ZM51.6151 54.1384C52.84 54.1384 53.9397 54.7983 54.5059 55.8127H48.7278C49.294 54.7983 50.3936 54.1384 51.6151 54.1384ZM50.5717 28.9479C50.5386 28.0689 50.8976 27.158 51.6154 26.285C52.3363 27.1573 52.6952 28.0689 52.6621 28.9479C52.6423 29.4504 52.4939 29.9426 52.2244 30.4131V28.7225C52.2244 28.3942 51.9509 28.1303 51.6151 28.1303C51.2793 28.1303 51.0095 28.3942 51.0095 28.7225V30.4131C50.7393 29.9426 50.5916 29.4501 50.5717 28.9479ZM14.4578 45.6131C16.7293 45.7387 18.1061 46.5502 18.6326 48.0794C16.5949 48.3692 15.2415 47.574 14.4578 45.6131ZM24.3096 45.6131C23.5258 47.5736 22.1794 48.3692 20.1347 48.0794C20.6612 46.5502 22.0373 45.7387 24.3096 45.6131ZM30.5722 45.6131C32.8474 45.7387 34.2235 46.5502 34.7507 48.0794C32.709 48.3692 31.3589 47.574 30.5722 45.6131ZM30.5722 39.0482C32.8474 39.1738 34.2235 39.9853 34.7507 41.5145C32.709 41.8072 31.3589 41.0091 30.5722 39.0482ZM40.4265 39.0482C39.6428 41.0087 38.2964 41.8043 36.248 41.5145C36.7782 39.9853 38.1547 39.1739 40.4265 39.0482ZM40.4265 45.6131C39.6428 47.5736 38.2964 48.3692 36.248 48.0794C36.7782 46.5502 38.1547 45.7387 40.4265 45.6131ZM46.6892 45.6131C48.9643 45.7387 50.3375 46.5502 50.8677 48.0794C48.8193 48.3692 47.4759 47.574 46.6892 45.6131ZM46.6892 39.0482C48.9643 39.1738 50.3375 39.9853 50.8677 41.5145C48.8193 41.8043 47.4759 41.0091 46.6892 39.0482ZM46.6892 32.4869C48.9643 32.6093 50.3375 33.4208 50.8677 34.95C48.8193 35.2395 47.4759 34.4443 46.6892 32.4869ZM56.5435 32.4869C55.7568 34.4475 54.4067 35.2398 52.365 34.95C52.8958 33.4204 54.2683 32.609 56.5435 32.4869ZM56.5435 39.0482C55.7568 41.0087 54.4067 41.8043 52.365 41.5145C52.8958 39.9853 54.2683 39.1739 56.5435 39.0482ZM56.5435 45.6131C55.7568 47.5736 54.4067 48.3692 52.365 48.0794C52.8958 46.5502 54.2683 45.7387 56.5435 45.6131Z" fill="white"/>
</svg>
