<svg width="71" height="71" viewBox="0 0 71 71" fill="none" xmlns="http://www.w3.org/2000/svg">
<rect width="71" height="71" rx="10" fill="#0E8778"/>
<path d="M35.5002 32.1289C30 32.1289 25.5264 36.6027 25.5264 42.1027C25.5264 47.6029 30.0002 52.0765 35.5002 52.0765C41.0002 52.0765 45.474 47.6027 45.474 42.1027C45.474 36.6022 41.0002 32.1289 35.5002 32.1289ZM35.5002 50.2616C30.9994 50.2616 27.3413 46.6038 27.3413 42.1027C27.3413 37.602 30.9991 33.9439 35.5002 33.9439C40.0013 33.9439 43.659 37.6016 43.659 42.1027C43.659 46.6035 40.0013 50.2616 35.5002 50.2616Z" fill="white"/>
<path d="M56.3524 55.6979H53.633V39.3801C54.5983 39.3801 55.5095 39.0061 56.1962 38.3194C56.8826 37.6329 57.2566 36.7217 57.2566 35.7565C57.2566 34.7912 56.8826 33.88 56.1959 33.1933L38.0632 15.0606C36.649 13.6465 34.3509 13.6465 32.9367 15.0606L14.804 33.1933C14.1173 33.8731 13.7432 34.7843 13.7432 35.7565C13.7432 36.7218 14.1173 37.633 14.804 38.3197C15.4907 39.0064 16.4016 39.3805 17.3672 39.3805V55.6982H14.6478C14.151 55.6979 13.7432 56.106 13.7432 56.6021C13.7432 57.0986 14.151 57.5133 14.6474 57.5133H56.3456C56.8489 57.5133 57.2568 57.1054 57.2568 56.6021C57.2568 56.0991 56.8489 55.6979 56.3525 55.6979H56.3524ZM16.0894 37.0347C15.7494 36.6948 15.5591 36.2394 15.5591 35.7498C15.5591 35.2603 15.7494 34.8114 16.0894 34.465L34.2221 16.3459C34.9291 15.6388 36.0782 15.6388 36.7853 16.3459L54.9179 34.4786C55.2579 34.8185 55.4482 35.2739 55.4482 35.7635C55.4482 36.253 55.2579 36.7019 54.9179 37.0483C54.2312 37.7351 53.0415 37.7351 52.3547 37.0483L36.1396 20.8332C35.9627 20.6563 35.7317 20.5681 35.5004 20.5681C35.2691 20.5681 35.0381 20.6563 34.8612 20.8332L18.6525 37.0355C17.9657 37.722 16.776 37.722 16.0893 37.0355L16.0894 37.0347ZM19.1828 38.8771C19.4479 38.7206 19.7065 38.544 19.9306 38.3196L35.4999 22.7503L51.0692 38.3196C51.2936 38.544 51.5519 38.7209 51.817 38.8771V55.6972H19.1823L19.1828 38.8771Z" fill="white"/>
<path d="M39.6947 36.8594C39.3003 36.5467 38.7359 36.6078 38.4164 37.0022L31.169 46.0721C30.8563 46.4596 30.9173 47.0309 31.3117 47.3435C31.4817 47.4794 31.6789 47.5407 31.8761 47.5407C32.1412 47.5407 32.4063 47.4252 32.5832 47.2008L39.8375 38.1373C40.1501 37.7432 40.0822 37.1719 39.6947 36.8593L39.6947 36.8594Z" fill="white"/>
<path d="M35.5004 38.4773C35.5004 36.9748 34.2834 35.7578 32.781 35.7578C31.2785 35.7578 30.0615 36.9748 30.0615 38.4773C30.0615 39.9797 31.2785 41.1967 32.781 41.1967C34.2834 41.197 35.5004 39.9731 35.5004 38.4773ZM31.8767 38.4773C31.8767 37.9743 32.2846 37.573 32.781 37.573C33.284 37.573 33.6853 37.9808 33.6853 38.4773C33.6853 38.9803 33.2774 39.3815 32.781 39.3815C32.2777 39.3815 31.8767 38.9737 31.8767 38.4773Z" fill="white"/>
<path d="M38.2195 43.0078C36.717 43.0078 35.5 44.2248 35.5 45.7273C35.5 47.2297 36.717 48.4467 38.2195 48.4467C39.7219 48.4467 40.9389 47.2297 40.9389 45.7273C40.9392 44.2248 39.7222 43.0078 38.2195 43.0078ZM38.2195 46.6384C37.7165 46.6384 37.3152 46.2306 37.3152 45.7342C37.3152 45.2377 37.723 44.8299 38.2195 44.8299C38.7225 44.8299 39.1237 45.2377 39.1237 45.7342C39.1237 46.2306 38.7228 46.6384 38.2195 46.6384Z" fill="white"/>
</svg>
