<svg width="71" height="71" viewBox="0 0 71 71" fill="none" xmlns="http://www.w3.org/2000/svg">
<rect width="71" height="71" rx="10" fill="#0E8778"/>
<path fill-rule="evenodd" clip-rule="evenodd" d="M36.9089 13.5997C36.6409 13.2233 36.207 13 35.7444 13C35.2818 13 34.848 13.2233 34.5799 13.5997C34.5799 13.5997 27.4881 23.5328 23.2303 32.4713C21.3182 36.4875 20 40.3261 20 43.0571C20 51.7462 27.0539 58.8012 35.7441 58.8012C44.434 58.8012 51.4882 51.7464 51.4882 43.0571C51.4882 40.3261 50.1697 36.4876 48.2579 32.4713C44.0002 23.5328 36.9083 13.5997 36.9083 13.5997H36.9089ZM35.7444 16.9402C37.8974 20.0907 42.5618 27.1669 45.6726 33.7026C47.3675 37.262 48.6256 40.6357 48.6256 43.0574C48.6256 50.1666 42.8538 55.939 35.744 55.939C28.6342 55.939 22.8625 50.1666 22.8625 43.0574C22.8625 40.6358 24.1206 37.262 25.8154 33.7026C28.9265 27.1672 33.591 20.089 35.7436 16.9402H35.7444Z" fill="white"/>
<path fill-rule="evenodd" clip-rule="evenodd" d="M36.5164 42.9865C36.8896 42.7386 37.1257 42.3296 37.1538 41.8827C37.2912 39.6699 36.1982 37.4633 34.15 36.2809C32.1014 35.0982 29.644 35.255 27.7964 36.4802C27.4232 36.7282 27.1871 37.1371 27.159 37.584C27.0216 39.7968 28.1146 42.0034 30.1631 43.1862C32.2113 44.3686 34.6687 44.2117 36.5163 42.9865L36.5164 42.9865ZM34.2516 40.9431C33.4044 41.2476 32.4341 41.1913 31.5945 40.7067C30.755 40.222 30.2214 39.4099 30.0613 38.5237C30.9086 38.2192 31.8789 38.2755 32.7184 38.7601C33.558 39.2448 34.0919 40.0569 34.2516 40.9431Z" fill="white"/>
<path fill-rule="evenodd" clip-rule="evenodd" d="M34.326 41.8827C34.3538 42.3296 34.5899 42.7386 34.963 42.9865C36.8106 44.2116 39.2684 44.3685 41.3166 43.1861C43.3648 42.0034 44.4578 39.7968 44.3204 37.584C44.2926 37.1371 44.0565 36.7281 43.6831 36.4802C41.8358 35.255 39.378 35.0982 37.3298 36.2809C35.2816 37.4633 34.1887 39.67 34.326 41.8827ZM37.2278 40.9431C37.3879 40.0568 37.9217 39.2447 38.7613 38.7601C39.6009 38.2755 40.5709 38.2192 41.4184 38.5237C41.2584 39.4099 40.7245 40.2221 39.8849 40.7067C39.0453 41.1913 38.0754 41.2476 37.2278 40.9431Z" fill="white"/>
<path fill-rule="evenodd" clip-rule="evenodd" d="M34.3125 40.9078V50.2112C34.3125 51.0013 34.9537 51.6425 35.7438 51.6425C36.5339 51.6425 37.1751 51.0013 37.1751 50.2112V40.9078C37.1751 40.1178 36.5339 39.4766 35.7438 39.4766C34.9537 39.4766 34.3125 40.1178 34.3125 40.9078Z" fill="white"/>
<path fill-rule="evenodd" clip-rule="evenodd" d="M32.8815 51.6438H38.6066C39.3967 51.6438 40.0379 51.0026 40.0379 50.2125C40.0379 49.4224 39.3967 48.7812 38.6066 48.7812H32.8815C32.0914 48.7812 31.4502 49.4224 31.4502 50.2125C31.4502 51.0026 32.0914 51.6438 32.8815 51.6438Z" fill="white"/>
</svg>
