<svg width="71" height="71" viewBox="0 0 71 71" fill="none" xmlns="http://www.w3.org/2000/svg">
<rect width="71" height="71" rx="10" fill="#0E8778"/>
<path d="M54.0113 40.9377C53.2376 40.4517 52.2847 40.4004 51.4727 40.7905L44.9695 43.796C44.963 42.3252 43.761 41.1358 42.2902 41.1358H37.8201C35.5627 39.1663 32.7492 37.964 30.2489 37.9001C27.7295 37.8427 25.4594 37.868 24.3978 37.8875V36.7237C24.3978 35.7261 23.5856 34.9141 22.5946 34.9141H15.8097C14.812 34.9141 14 35.7263 14 36.7237V50.2224C14 51.2201 14.8122 52.0321 15.8097 52.0321H22.5879C23.5856 52.0321 24.3911 51.2199 24.3911 50.2224V49.5126C26.8145 50.9066 33.2284 54.4173 36.2656 54.4173C36.3295 54.4173 36.3999 54.4173 36.4638 54.4108C41.7906 54.1102 53.1278 46.0271 53.9274 45.4521C54.7396 44.9852 55.2384 44.1156 55.2384 43.1755C55.2452 42.255 54.7847 41.4236 54.0111 40.9376L54.0113 40.9377ZM23.1507 50.2159C23.1507 50.523 22.9014 50.7785 22.5943 50.7785L15.8097 50.7788C15.5026 50.7788 15.2471 50.5295 15.2471 50.2162V36.7168C15.2471 36.4097 15.4965 36.1542 15.8097 36.1542H22.5879C22.8949 36.1542 23.1443 36.4036 23.1443 36.7168V50.2155L23.1507 50.2159ZM53.2953 44.3713C53.2762 44.3839 53.2506 44.3969 53.2314 44.4096C53.1163 44.4926 41.4458 52.8693 36.4009 53.1572C33.8558 53.2915 27.1475 49.6848 24.3982 48.0671V39.1341C25.4406 39.1149 27.7042 39.0893 30.2172 39.1467C32.4938 39.2041 35.09 40.3552 37.1618 42.2225C37.2769 42.325 37.4241 42.3824 37.5774 42.3824H42.2774C43.0641 42.3824 43.71 43.0218 43.71 43.8085C43.71 43.9362 43.6909 44.0643 43.6588 44.1859C43.6523 44.205 43.6461 44.2241 43.6396 44.2433C43.6014 44.3584 43.5501 44.4735 43.4862 44.5759C43.4798 44.5886 43.4736 44.6016 43.4671 44.608C43.2113 44.9854 42.7765 45.2348 42.2842 45.2348L33.1974 45.2345C32.8521 45.2345 32.5707 45.5159 32.5707 45.8613C32.5707 46.2066 32.8521 46.488 33.1974 46.488H42.2842C43.1539 46.488 43.9149 46.0659 44.4071 45.4264L52.004 41.9223C52.4323 41.7112 52.9375 41.7433 53.3405 41.9991C53.7497 42.2549 53.9929 42.6962 53.9929 43.1758C53.9991 43.6742 53.7241 44.1346 53.2957 44.371L53.2953 44.3713Z" fill="white"/>
<path d="M20.1518 45.6016C19.1159 45.6016 18.2783 46.4456 18.2783 47.4751C18.2783 48.511 19.1223 49.3486 20.1518 49.3486C21.1813 49.3486 22.0253 48.5046 22.0253 47.4751C22.0318 46.4456 21.1878 45.6016 20.1518 45.6016ZM20.1518 48.1019C19.8065 48.1019 19.5251 47.8204 19.5251 47.4751C19.5251 47.1298 19.8065 46.8483 20.1518 46.8483C20.4972 46.8483 20.7786 47.1298 20.7786 47.4751C20.7786 47.8204 20.4972 48.1019 20.1518 48.1019Z" fill="white"/>
<path d="M41.1187 39.5734C47.3408 39.5734 52.4055 34.5089 52.4055 28.2867C52.4055 22.0649 47.3407 17 41.1187 17C34.8967 17 29.832 22.0648 29.832 28.2867C29.832 34.5088 34.8965 39.5734 41.1187 39.5734ZM41.1187 18.2541C46.6502 18.2541 51.1521 22.756 51.1521 28.2875C51.1521 33.819 46.6503 38.3209 41.1187 38.3209C35.5873 38.3206 31.0854 33.8187 31.0854 28.2875C31.0854 22.7563 35.5872 18.2548 41.1187 18.2548V18.2541Z" fill="white"/>
<path d="M41.1202 21.52C41.4656 21.52 41.747 21.2385 41.747 20.8932L41.7467 20.0174C41.7467 19.6721 41.4653 19.3906 41.1199 19.3906C40.7746 19.3906 40.4932 19.6721 40.4932 20.0174V20.9C40.4999 21.245 40.7749 21.52 41.1202 21.52Z" fill="white"/>
<path d="M41.1199 35.0469C40.7746 35.0469 40.4932 35.3283 40.4932 35.6736V36.5562C40.4932 36.9016 40.7746 37.183 41.1199 37.183C41.4653 37.183 41.7467 36.9016 41.7467 36.5562V35.6736C41.7464 35.328 41.4653 35.0469 41.1199 35.0469Z" fill="white"/>
<path d="M35.4538 23.5054C35.5754 23.627 35.7353 23.6908 35.8951 23.6908C36.055 23.6908 36.2148 23.627 36.3364 23.5054C36.5793 23.2625 36.5793 22.8659 36.3364 22.6228L35.7161 22.0025C35.4733 21.7596 35.0767 21.7596 34.8335 22.0025C34.5906 22.2454 34.5906 22.6419 34.8335 22.8851L35.4538 23.5054Z" fill="white"/>
<path d="M46.529 34.5835C46.6506 34.7051 46.8105 34.769 46.9703 34.769C47.1302 34.769 47.29 34.7051 47.4116 34.5835C47.6545 34.3406 47.6545 33.9441 47.4116 33.7009L46.7913 33.0806C46.5484 32.8377 46.1519 32.8377 45.9087 33.0806C45.6658 33.3235 45.6658 33.72 45.9087 33.9632L46.529 34.5835Z" fill="white"/>
<path d="M34.3588 28.2869C34.3588 27.9416 34.0774 27.6602 33.732 27.6602H32.8494C32.5041 27.6602 32.2227 27.9416 32.2227 28.2869C32.2227 28.6322 32.5041 28.9137 32.8494 28.9137H33.732C34.0776 28.9137 34.3588 28.6322 34.3588 28.2869Z" fill="white"/>
<path d="M48.5135 28.9137H49.3961C49.7414 28.9137 50.0229 28.6322 50.0229 28.2869C50.0229 27.9416 49.7414 27.6602 49.3961 27.6602H48.5135C48.1682 27.6602 47.8867 27.9416 47.8867 28.2869C47.887 28.6322 48.1685 28.9137 48.5135 28.9137Z" fill="white"/>
<path d="M35.4603 33.0691L34.8335 33.6959C34.5906 33.9387 34.5906 34.3353 34.8335 34.5785C34.9551 34.7001 35.115 34.7639 35.2748 34.7639C35.4347 34.7639 35.5945 34.7001 35.7161 34.5785L36.3364 33.9517C36.5793 33.7088 36.5793 33.3123 36.3364 33.0691C36.1 32.8259 35.7035 32.8259 35.4603 33.0691Z" fill="white"/>
<path d="M46.35 23.683C46.5099 23.683 46.6697 23.6191 46.7913 23.4976L47.4181 22.8773C47.661 22.6344 47.661 22.2378 47.4181 21.9947C47.1752 21.7518 46.7787 21.7518 46.5355 21.9947L45.9087 22.6214C45.6658 22.8643 45.6658 23.2609 45.9087 23.504C46.0303 23.6256 46.1902 23.683 46.35 23.683Z" fill="white"/>
<path d="M41.1193 30.3219C41.4069 30.3219 41.6757 30.2516 41.925 30.1365L42.9545 31.166C43.0761 31.2876 43.236 31.3514 43.3958 31.3514C43.5557 31.3514 43.7155 31.2875 43.8371 31.166C44.08 30.9231 44.08 30.5265 43.8371 30.2834L42.8073 29.2477C42.9224 29.0048 42.9928 28.7298 42.9928 28.442C42.9928 27.6297 42.4685 26.9393 41.7457 26.6835V23.0643C41.7457 22.7189 41.4643 22.4375 41.119 22.4375C40.7736 22.4375 40.4922 22.7189 40.4922 23.0643V26.6835C39.7633 26.9394 39.2451 27.6301 39.2451 28.442C39.2454 29.4779 40.0833 30.3219 41.1193 30.3219ZM41.1193 27.8216C41.4646 27.8216 41.7461 28.1031 41.7461 28.4484C41.7461 28.7937 41.4646 29.0752 41.1193 29.0752C40.774 29.0752 40.4925 28.7937 40.4925 28.4484C40.4925 28.0966 40.774 27.8216 41.1193 27.8216Z" fill="white"/>
</svg>
