<svg width="71" height="71" viewBox="0 0 71 71" fill="none" xmlns="http://www.w3.org/2000/svg">
<rect width="71" height="71" rx="10" fill="#0E8778"/>
<path d="M58.8698 49.3912C58.5413 47.9668 57.2637 46.902 55.7416 46.902C55.1759 46.902 54.6238 47.0546 54.1366 47.3401C53.8855 47.1925 53.6143 47.0858 53.3341 47.0145V45.2723C56.3467 45.0975 57.3465 43.844 57.3465 40.4822C57.3465 40.0383 56.9869 39.6797 56.5441 39.6797C54.5131 39.6797 53.2514 40.0447 52.5316 40.9981C51.8119 40.0447 50.5502 39.6797 48.5192 39.6797C48.0764 39.6797 47.7167 40.0383 47.7167 40.4822C47.7167 43.843 48.7166 45.0971 51.7292 45.2723V47.0145C51.449 47.0858 51.1778 47.1936 50.9267 47.3401C50.4394 47.0546 49.8874 46.902 49.3217 46.902C47.7995 46.902 46.522 47.9667 46.1935 49.3912C45.2964 49.5982 44.5412 50.1815 44.1056 50.9664C43.6699 50.1815 42.9154 49.5982 42.0176 49.3912C41.6891 47.9668 40.4116 46.902 38.8894 46.902C38.3237 46.902 37.7716 47.0546 37.2844 47.3401C37.0333 47.1925 36.7621 47.0858 36.482 47.0145V45.2723C39.4945 45.0975 40.4944 43.844 40.4944 40.4822C40.4944 40.0383 40.1347 39.6797 39.6919 39.6797C37.6609 39.6797 36.3992 40.0447 35.6795 40.9981C34.9597 40.0447 33.698 39.6797 31.6671 39.6797C31.2243 39.6797 30.8646 40.0383 30.8646 40.4822C30.8646 43.843 31.8644 45.0971 34.877 45.2723V47.0145C34.5968 47.0858 34.3256 47.1936 34.0745 47.3401C33.5873 47.0546 33.0352 46.902 32.4695 46.902C30.9473 46.902 29.6698 47.9667 29.3413 49.3912C28.4443 49.5982 27.689 50.1815 27.2534 50.9664C26.8178 50.1815 26.0632 49.5982 25.1655 49.3912C24.837 47.9668 23.5594 46.902 22.0373 46.902C21.4716 46.902 20.9195 47.0546 20.4323 47.3401C20.1804 47.1925 19.91 47.0858 19.6298 47.0145V45.2723C22.6424 45.0975 23.6422 43.844 23.6422 40.4822C23.6422 40.0383 23.2825 39.6797 22.8397 39.6797C20.8088 39.6797 19.5471 40.0447 18.8273 40.9981C18.1076 40.0447 16.8459 39.6797 14.8149 39.6797C14.3721 39.6797 14.0124 40.0383 14.0124 40.4822C14.0124 43.843 15.0123 45.0971 18.0248 45.2723V47.0145C17.7447 47.0858 17.4742 47.1936 17.2224 47.3401C16.7351 47.0546 16.1831 46.902 15.6174 46.902C14.0951 46.902 12.8177 47.9667 12.4892 49.3912C11.0648 49.7197 10 50.998 10 52.5194V56.5318C10 56.9757 10.3597 57.3343 10.8025 57.3343H60.5565C60.9993 57.3343 61.359 56.9757 61.359 56.5318V52.5194C61.359 50.9979 60.2943 49.7197 58.8698 49.3912ZM55.723 41.3032C55.6291 43.0873 55.1365 43.5806 53.3524 43.6745C53.4466 41.8904 53.9392 41.397 55.723 41.3032ZM49.3403 41.3032C51.1244 41.3971 51.6177 41.8908 51.7109 43.6745C49.9268 43.5795 49.4342 43.0862 49.3403 41.3032ZM38.8704 41.3032C38.7766 43.0873 38.284 43.5806 36.4998 43.6745C36.5941 41.8904 37.0867 41.397 38.8704 41.3032ZM32.4878 41.3032C34.2719 41.3971 34.7645 41.8908 34.8584 43.6745C33.0743 43.5795 32.5817 43.0862 32.4878 41.3032ZM22.0179 41.3032C21.924 43.0873 21.4304 43.5806 19.6473 43.6745C19.7415 41.8904 20.2341 41.397 22.0179 41.3032ZM15.6353 41.3032C17.4194 41.3971 17.9127 41.8908 18.0059 43.6745C16.2218 43.5795 15.7292 43.0862 15.6353 41.3032ZM59.7535 55.7296H11.6045V52.5197C11.6045 51.6355 12.3242 50.9147 13.2095 50.9147C13.6523 50.9147 14.012 50.5561 14.012 50.1122C14.012 49.228 14.7317 48.5072 15.6169 48.5072C16.1153 48.5072 16.4724 48.7351 16.6842 48.9253C16.9898 49.2015 17.4537 49.2015 17.7597 48.9253C17.9714 48.7351 18.3286 48.5072 18.827 48.5072C19.3253 48.5072 19.6825 48.7351 19.8942 48.9253C20.1998 49.2015 20.6637 49.2015 20.9697 48.9253C21.1815 48.7351 21.5386 48.5072 22.037 48.5072C22.9222 48.5072 23.6419 49.228 23.6419 50.1122C23.6419 50.5561 24.0016 50.9147 24.4444 50.9147C25.3297 50.9147 26.0494 51.6355 26.0494 52.5197C26.0494 52.9635 26.4091 53.3221 26.8519 53.3221H27.6544C28.0972 53.3221 28.4569 52.9635 28.4569 52.5197C28.4569 51.6355 29.1766 50.9147 30.0618 50.9147C30.5046 50.9147 30.8643 50.5561 30.8643 50.1122C30.8643 49.228 31.584 48.5072 32.4693 48.5072C32.9676 48.5072 33.3248 48.7351 33.5365 48.9253C33.8421 49.2015 34.306 49.2015 34.612 48.9253C34.8238 48.7351 35.1809 48.5072 35.6793 48.5072C36.1777 48.5072 36.5348 48.7351 36.7466 48.9253C37.0521 49.2015 37.5161 49.2015 37.8221 48.9253C38.0338 48.7351 38.391 48.5072 38.8893 48.5072C39.7746 48.5072 40.4943 49.228 40.4943 50.1122C40.4943 50.5561 40.854 50.9147 41.2968 50.9147C42.182 50.9147 42.9017 51.6355 42.9017 52.5197C42.9017 52.9635 43.2614 53.3221 43.7042 53.3221H44.5067C44.9495 53.3221 45.3092 52.9635 45.3092 52.5197C45.3092 51.6355 46.0289 50.9147 46.9142 50.9147C47.357 50.9147 47.7166 50.5561 47.7166 50.1122C47.7166 49.228 48.4364 48.5072 49.3216 48.5072C49.8199 48.5072 50.1771 48.7351 50.3889 48.9253C50.6945 49.2015 51.1584 49.2015 51.4644 48.9253C51.6761 48.7351 52.0333 48.5072 52.5316 48.5072C53.03 48.5072 53.3871 48.7351 53.5989 48.9253C53.9045 49.2015 54.3684 49.2015 54.6744 48.9253C54.8861 48.7351 55.2433 48.5072 55.7417 48.5072C56.6269 48.5072 57.3466 49.228 57.3466 50.1122C57.3466 50.5561 57.7063 50.9147 58.1491 50.9147C59.0344 50.9147 59.7541 51.6355 59.7541 52.5197L59.7535 55.7296Z" fill="white"/>
<path d="M18.8269 34.8657C19.2697 34.8657 19.6294 34.5071 19.6294 34.0632C19.6294 32.8931 20.8668 31.6557 22.0368 31.6557C22.4796 31.6557 22.8393 31.2971 22.8393 30.8533C22.8393 30.4094 22.4796 30.0508 22.0368 30.0508C19.9744 30.0508 18.0244 32.0008 18.0244 34.0632C18.0244 34.5071 18.3841 34.8657 18.8269 34.8657Z" fill="white"/>
<path d="M16.4197 37.2707C16.8625 37.2707 17.2222 36.9121 17.2222 36.4682V35.6658C17.2222 35.2219 16.8625 34.8633 16.4197 34.8633C15.9769 34.8633 15.6172 35.2219 15.6172 35.6658V36.4682C15.6172 36.9121 15.9769 37.2707 16.4197 37.2707Z" fill="white"/>
<path d="M18.8269 38.8762C19.2697 38.8762 19.6294 38.5176 19.6294 38.0737V37.2712C19.6294 36.8274 19.2697 36.4688 18.8269 36.4688C18.3841 36.4688 18.0244 36.8274 18.0244 37.2712V38.0737C18.0244 38.5176 18.3841 38.8762 18.8269 38.8762Z" fill="white"/>
<path d="M20.4326 35.6658V36.4682C20.4326 36.9121 20.7923 37.2707 21.2351 37.2707C21.6779 37.2707 22.0376 36.9121 22.0376 36.4682V35.6658C22.0376 35.2219 21.6779 34.8633 21.2351 34.8633C20.7923 34.8633 20.4326 35.2219 20.4326 35.6658Z" fill="white"/>
<path d="M25.2469 32.4571H44.3121L45.2116 33.3566C45.6659 33.8116 46.2703 34.062 46.9137 34.062C47.5572 34.062 48.1615 33.8116 48.6158 33.3566L55.0357 26.9368C55.9746 25.9978 55.9746 24.4716 55.0357 23.5327L54.3994 22.8964L56.3085 20.9873C56.6224 20.6735 56.6224 20.1662 56.3085 19.8528L50.6911 14.2354C50.3773 13.9215 49.87 13.9215 49.5566 14.2354L47.6475 16.1445L47.0119 15.5082C46.1027 14.599 44.5152 14.599 43.6071 15.5082L37.1872 21.9281C36.2483 22.867 36.2483 24.3932 37.1872 25.3322L39.5883 27.7332L25.2078 28.4458C24.7797 28.4662 24.4443 28.8194 24.4443 29.2472V31.6546C24.4443 32.0985 24.8041 32.4571 25.2469 32.4571ZM50.1239 15.9369L54.6067 20.4197L53.265 21.7614L48.7822 17.2786L50.1239 15.9369ZM26.0494 30.0102L41.4736 29.2464C41.7906 29.231 42.069 29.0289 42.1829 28.7326C42.2968 28.4364 42.2263 28.1011 42.0016 27.8771L38.3213 24.1968C38.0082 23.8837 38.0082 23.375 38.3213 23.0622L44.7412 16.6424C45.0435 16.3382 45.5727 16.3382 45.8757 16.6424L53.9006 24.6672C54.2137 24.9803 54.2137 25.489 53.9006 25.8018L47.4807 32.2217C47.1784 32.5258 46.6492 32.5258 46.3461 32.2217L45.2116 31.0871C45.0607 30.937 44.8569 30.8521 44.6441 30.8521H26.0494L26.0494 30.0102Z" fill="white"/>
</svg>
