<svg width="71" height="71" viewBox="0 0 71 71" fill="none" xmlns="http://www.w3.org/2000/svg">
<rect width="71" height="71" rx="10" fill="#0E8778"/>
<path d="M43.8025 47.0006C43.4205 47.0006 43.1107 46.6927 43.1107 46.3131V43.563C43.1107 43.1834 43.4205 42.8755 43.8025 42.8755H45.878C46.0966 42.8755 46.3026 42.7727 46.4333 42.5984C46.5639 42.4237 46.6037 42.1981 46.5407 41.99L43.2278 37.071C43.0147 36.7555 43.0996 36.3282 43.4171 36.1167C43.7346 35.905 44.1645 35.9894 44.3774 36.3049L47.7376 41.2942C47.7651 41.3344 47.7882 41.3771 47.8067 41.4222C48.0625 42.0579 47.9843 42.7782 47.598 43.3451C47.2113 43.912 46.5671 44.2512 45.878 44.2505H44.4944V46.3131C44.4944 46.4954 44.4215 46.6703 44.2918 46.7992C44.1621 46.9281 43.986 47.0006 43.8025 47.0006Z" fill="white"/>
<path d="M29.2745 26.3752C29.2001 26.3752 29.1263 26.3633 29.0559 26.3396C28.7736 26.246 28.583 25.9836 28.5827 25.6877V21.9874L26.1982 20.8064C26.0135 20.7155 25.8791 20.5473 25.8319 20.3478C25.7846 20.1483 25.8294 19.9384 25.9539 19.7751L30.1047 14.275C30.2832 14.0384 30.5946 13.9417 30.8768 14.0353C31.1594 14.1289 31.35 14.3917 31.35 14.6875V18.3878L33.7345 19.5726V19.5723C33.9183 19.6634 34.0517 19.831 34.099 20.0293C34.1459 20.2278 34.1021 20.4372 33.9788 20.6001L29.828 26.1002C29.6974 26.2733 29.4923 26.3752 29.2745 26.3752ZM27.5583 19.9415L29.584 20.9473H29.5837C29.8184 21.0639 29.9663 21.3021 29.9663 21.5626V23.6252L32.3744 20.4338L30.349 19.4314C30.1134 19.3144 29.9648 19.0744 29.9664 18.8126V16.7501L27.5583 19.9415Z" fill="white"/>
<path d="M26.507 47.0002C26.4325 47.0002 26.3587 46.9883 26.2883 46.9646C26.006 46.871 25.8155 46.6086 25.8152 46.3127V42.6124L23.4306 41.4314C23.2459 41.3405 23.1116 41.1723 23.0643 40.9728C23.0171 40.7733 23.0618 40.5634 23.1863 40.4001L27.3371 34.9C27.5157 34.6634 27.827 34.5667 28.1093 34.6603C28.3918 34.7539 28.5824 35.0167 28.5824 35.3125V39.0128L30.967 40.1939C31.1516 40.2847 31.286 40.4529 31.3333 40.6524C31.3805 40.8519 31.3357 41.0618 31.2113 41.2251L27.0604 46.7252C26.9298 46.8983 26.7247 47.0002 26.507 47.0002ZM24.7907 40.5665L26.8161 41.5689C27.0518 41.6858 27.2003 41.9258 27.1988 42.1876V44.2502L29.6068 41.0588L27.5814 40.0564C27.3458 39.9394 27.1972 39.6994 27.1988 39.4376V37.3751L24.7907 40.5665Z" fill="white"/>
<path d="M19.5886 31.8753C19.4388 31.8753 19.2933 31.8271 19.1735 31.7378L13.6391 27.6127C13.4009 27.4353 13.3037 27.126 13.3979 26.8454C13.492 26.5646 13.7564 26.3752 14.0541 26.3752H17.7776L18.9697 24.0055H18.9694C19.0611 23.8228 19.2297 23.6903 19.4292 23.6433C19.6291 23.5966 19.8397 23.6402 20.0037 23.7627L25.5382 27.8877C25.7763 28.0651 25.8736 28.3745 25.7794 28.6551C25.6852 28.9359 25.4208 29.1253 25.1231 29.1253H21.3996L20.2072 31.496C20.1155 31.6783 19.9472 31.8112 19.7476 31.8581C19.6955 31.8698 19.642 31.8753 19.5886 31.8753ZM16.1296 27.7502L19.3415 30.1433L20.3536 28.1302V28.1305C20.471 27.8976 20.7103 27.7502 20.9722 27.7502H23.0477L19.8363 25.3572L18.8236 27.37C18.7062 27.6029 18.4669 27.7502 18.205 27.7502L16.1296 27.7502Z" fill="white"/>
<path d="M43.802 35.3134C43.4199 35.3134 43.1102 35.0056 43.1102 34.6259V32.5634C43.1102 27.682 40.006 23.0757 35.2014 20.8348C35.0319 20.7593 34.9 20.6194 34.8354 20.4466C34.7706 20.2735 34.7786 20.0819 34.8577 19.9147C34.9364 19.7477 35.0797 19.6191 35.2552 19.5583C35.4303 19.4972 35.623 19.5086 35.7895 19.5902C41.0772 22.0598 44.4936 27.1522 44.4936 32.5634V34.6259C44.4936 34.8082 44.4207 34.9832 44.291 35.1121C44.1613 35.241 43.9852 35.3134 43.8018 35.3134L43.802 35.3134Z" fill="white"/>
<path d="M34.8085 58.0005H20.2806C19.8985 58.0005 19.5888 57.6927 19.5888 57.313C19.6187 56.1053 19.8429 54.9101 20.2537 53.7729C20.7145 52.4805 20.9572 51.1214 20.9724 49.7504C20.9724 48.0466 20.1996 46.8389 19.2206 45.3083L18.9606 44.8998C16.1248 40.4374 14.7461 36.4014 14.7461 32.5623C14.7504 31.9325 14.7967 31.3036 14.8845 30.6799C14.9073 30.4983 15.0021 30.3334 15.1479 30.2217C15.2937 30.1097 15.4784 30.0603 15.6609 30.0839C15.8434 30.1078 16.0089 30.203 16.1204 30.3482C16.2322 30.4937 16.2814 30.6775 16.2563 30.8586C16.1767 31.4233 16.1343 31.9924 16.1297 32.5624C16.1297 36.1374 17.4386 39.9298 20.1305 44.166L20.3887 44.5708C21.4443 46.2208 22.356 47.6462 22.356 49.7498C22.3415 51.258 22.0781 52.754 21.5756 54.1776C21.2973 54.9707 21.1058 55.791 21.0042 56.6249H34.1169V54.5624C34.1169 54.1827 34.4267 53.8749 34.8087 53.8749H40.3432C40.7101 53.8749 41.0622 53.73 41.3216 53.4722C41.581 53.2144 41.7268 52.8645 41.7268 52.4999V50.4373C41.6295 49.4978 41.9575 48.5642 42.6212 47.8886C42.8927 47.628 43.3241 47.632 43.591 47.8972C43.8579 48.1624 43.8618 48.5911 43.5996 48.861C43.2009 49.2836 43.0205 49.8649 43.1104 50.4373V52.4998C43.1104 53.2291 42.8189 53.9286 42.3 54.4445C41.7809 54.9601 41.077 55.2499 40.3432 55.2499H35.5005V57.3124C35.5005 57.4947 35.4277 57.6697 35.2979 57.7986C35.1682 57.9275 34.9922 57.9999 34.8087 57.9999L34.8085 58.0005Z" fill="white"/>
<path d="M20.0737 23.0021C19.7868 23.0021 19.5295 22.8262 19.4273 22.5598C19.325 22.2934 19.3989 21.9917 19.6129 21.8017C20.9743 20.5912 22.5543 19.6486 24.2696 19.0234C24.6263 18.8988 25.0179 19.0821 25.1485 19.435C25.2789 19.7877 25.1001 20.1793 24.7467 20.3141C23.1954 20.8798 21.7661 21.7327 20.5345 22.8275C20.4075 22.9401 20.2435 23.0021 20.0737 23.0021Z" fill="white"/>
<path d="M29.2741 33.2501C28.5403 33.2501 27.8364 32.9603 27.3172 32.4447C26.7984 31.9288 26.5068 31.2293 26.5068 30.5C26.5068 29.7708 26.7984 29.0713 27.3172 28.5554C27.8364 28.0397 28.5403 27.75 29.2741 27.75C30.0079 27.75 30.7118 28.0397 31.2309 28.5554C31.7497 29.0713 32.0413 29.7708 32.0413 30.5C32.0413 31.2293 31.7497 31.9288 31.2309 32.4447C30.7117 32.9603 30.0079 33.2501 29.2741 33.2501ZM29.2741 29.125C28.9072 29.125 28.5551 29.2699 28.2957 29.5277C28.0362 29.7855 27.8905 30.1354 27.8905 30.5C27.8905 30.8647 28.0362 31.2146 28.2957 31.4724C28.5551 31.7302 28.9072 31.8751 29.2741 31.8751C29.641 31.8751 29.9931 31.7302 30.2525 31.4724C30.5119 31.2146 30.6577 30.8647 30.6577 30.5C30.6577 30.1354 30.5119 29.7855 30.2525 29.5277C29.9931 29.2699 29.641 29.125 29.2741 29.125Z" fill="white"/>
<path d="M46.5694 27.0626C46.0187 27.0641 45.4903 26.8465 45.102 26.4583L43.0266 24.3957C42.5223 23.8952 42.3119 23.1721 42.4691 22.4812C42.6267 21.7903 43.1301 21.228 43.8021 20.992V18.125C43.8021 17.7454 44.1118 17.4375 44.4939 17.4375C44.8759 17.4375 45.1857 17.7454 45.1857 18.125V21.5626C45.1857 21.7449 45.1128 21.9198 44.9831 22.0487C44.8534 22.1777 44.6773 22.2501 44.4939 22.2501C44.2141 22.2501 43.9621 22.4177 43.8549 22.6746C43.7477 22.9315 43.807 23.227 44.0047 23.4238L46.0801 25.4863C46.354 25.7453 46.7846 25.7453 47.0585 25.4863L49.1339 23.4238C49.3316 23.227 49.3909 22.9315 49.2837 22.6746C49.1765 22.4177 48.9245 22.2501 48.6447 22.2501C48.2627 22.2501 47.9529 21.9422 47.9529 21.5626V16.0625C47.9529 15.8802 47.88 15.7052 47.7503 15.5763C47.6206 15.4474 47.4446 15.375 47.2611 15.375H45.8775C45.4955 15.375 45.1857 15.6828 45.1857 16.0625C45.1857 16.4422 44.8759 16.75 44.4939 16.75C44.1118 16.75 43.8021 16.4422 43.8021 16.0625C43.8021 15.5156 44.0207 14.9907 44.4099 14.604C44.799 14.2174 45.3272 14 45.8775 14H47.2611C47.8114 14 48.3396 14.2173 48.7287 14.604C49.1177 14.9908 49.3365 15.5156 49.3365 16.0625V20.992C50.0085 21.228 50.5119 21.7903 50.6694 22.4812C50.8266 23.1721 50.6163 23.8952 50.1119 24.3957L48.0365 26.4583C47.6483 26.8465 47.1198 27.0641 46.5692 27.0626H46.5694Z" fill="white"/>
<path d="M53.4873 34.6252C52.9367 34.6267 52.4083 34.4091 52.02 34.0208L49.9446 31.9583C49.4402 31.4577 49.2299 30.7346 49.3871 30.0437C49.5446 29.3528 50.048 28.7906 50.72 28.5545V25.0001C50.72 24.6204 51.0298 24.3125 51.4119 24.3125C51.7939 24.3125 52.1037 24.6204 52.1037 25.0001V29.1251C52.1037 29.3074 52.0308 29.4824 51.9011 29.6113C51.7713 29.7402 51.5953 29.8126 51.4119 29.8126C51.132 29.8126 50.88 29.9802 50.7729 30.2371C50.6657 30.494 50.725 30.7896 50.9226 30.9863L52.9981 33.0488C53.272 33.3079 53.7025 33.3079 53.9765 33.0488L56.0519 30.9863C56.2496 30.7896 56.3089 30.494 56.2017 30.2371C56.0945 29.9802 55.8425 29.8126 55.5627 29.8126C55.1807 29.8126 54.8709 29.5048 54.8709 29.1251V20.875C54.8709 20.6927 54.798 20.5177 54.6683 20.3888C54.5386 20.2599 54.3625 20.1875 54.1791 20.1875H52.7955C52.4134 20.1875 52.1037 20.4953 52.1037 20.875C52.1037 21.2547 51.7939 21.5625 51.4119 21.5625C51.0298 21.5625 50.72 21.2547 50.72 20.875C50.72 20.3281 50.9387 19.8032 51.3278 19.4165C51.717 19.0299 52.2451 18.8125 52.7954 18.8125H54.179C54.7294 18.8125 55.2576 19.0298 55.6466 19.4165C56.0357 19.8033 56.2544 20.3281 56.2544 20.875V28.5545C56.9265 28.7905 57.4299 29.3528 57.5874 30.0437C57.7446 30.7346 57.5342 31.4577 57.0299 31.9583L54.9545 34.0208C54.5663 34.4091 54.0378 34.6267 53.4871 34.6252H53.4873Z" fill="white"/>
</svg>
