<svg width="96" height="96" viewBox="0 0 96 96" fill="none" xmlns="http://www.w3.org/2000/svg">
<circle cx="47.9389" cy="47.7221" r="47.3862" fill="#E7F3F2"/>
<path d="M27.8155 20.0015C27.4694 20.0174 27.1434 20.1714 26.9102 20.428C26.6766 20.6851 26.5546 21.0249 26.571 21.372C26.5869 21.7196 26.7404 22.0461 26.9967 22.2804C27.2531 22.5143 27.5914 22.6367 27.938 22.6202H29.2435V51.4285H23.3685C23.3275 51.4262 23.287 51.4262 23.246 51.4285C22.8994 51.4445 22.5739 51.5979 22.3407 51.8551C22.1071 52.1122 21.9851 52.452 22.0015 52.7991C22.0174 53.1466 22.1709 53.4732 22.4272 53.707C22.6836 53.9413 23.0219 54.0637 23.3685 54.0472H24.6739V72.3798H23.3685C23.3275 72.378 23.2869 72.378 23.246 72.3798C22.8994 72.3958 22.5739 72.5497 22.3407 72.8064C22.1071 73.0635 21.9851 73.4033 22.0015 73.7504C22.0174 74.0979 22.1709 74.4245 22.4272 74.6587C22.6836 74.8926 23.0219 75.015 23.3684 74.9985H71.6758C72.0255 75.0036 72.362 74.8679 72.6111 74.6217C72.8602 74.3756 73 74.0399 73 73.6891C73 73.3384 72.8602 73.0027 72.6111 72.7565C72.362 72.5104 72.0255 72.3747 71.6758 72.3798H69.7173V54.0472H71.6758C72.0255 54.0522 72.362 53.9166 72.6111 53.6704C72.8602 53.4243 73 53.0881 73 52.7378C73 52.3871 72.8602 52.0514 72.6111 51.8052C72.362 51.5591 72.0255 51.4234 71.6758 51.4284H65.8008V22.6201H67.1063C67.4556 22.6252 67.7925 22.4895 68.0416 22.2434C68.2902 21.9972 68.4305 21.6615 68.4305 21.3108C68.4305 20.96 68.2902 20.6243 68.0416 20.3782C67.7925 20.132 67.4556 19.9964 67.1063 20.0014H27.9382C27.8972 19.9995 27.8567 19.9995 27.8157 20.0014L27.8155 20.0015ZM31.8549 22.6202H46.2166V35.7148H31.8549V22.6202ZM48.8278 22.6202H63.1895V35.7148H48.8278V22.6202ZM38.3423 23.9094C37.9566 23.9263 37.5982 24.1136 37.3633 24.4209L34.7518 27.6946C34.3015 28.2595 34.3925 29.0839 34.9558 29.536C35.5191 29.9877 36.3415 29.8964 36.7918 29.3314L39.4033 26.0578C39.7352 25.659 39.8013 25.1014 39.5713 24.6365C39.3418 24.1711 38.8596 23.8857 38.3423 23.9094V23.9094ZM42.1773 26.5281C41.8344 26.5628 41.5193 26.7318 41.3002 26.9985L37.3832 31.582C37.1587 31.8478 37.049 32.1922 37.0776 32.5393C37.1063 32.8868 37.2712 33.2083 37.5362 33.4335C38.0885 33.9025 38.915 33.8336 39.3827 33.28L43.2993 28.697C43.6567 28.2914 43.7287 27.7069 43.4801 27.2264C43.2314 26.7464 42.7137 26.4688 42.1772 26.5281L42.1773 26.5281ZM31.8552 38.3344H46.2168V51.429H31.8552V38.3344ZM48.828 38.3344H63.1897V51.429H48.828V38.3344ZM55.3155 39.6231C54.9293 39.64 54.571 39.8273 54.336 40.1347L51.725 43.4083C51.2742 43.9733 51.3658 44.7976 51.929 45.2498C52.4923 45.7019 53.3143 45.6101 53.765 45.0452L56.376 41.7715C56.7084 41.3732 56.7745 40.8156 56.5445 40.3502C56.3145 39.8849 55.8323 39.5999 55.3155 39.6232V39.6231ZM59.1505 42.2418C58.8076 42.2766 58.4925 42.446 58.2735 42.7127L54.3564 47.2957C54.1319 47.5615 54.0217 47.9059 54.0504 48.2534C54.0791 48.6005 54.2444 48.9221 54.5094 49.1472C55.0613 49.6162 55.8882 49.5477 56.3554 48.9937L60.2725 44.4107C60.6299 44.0052 60.7014 43.4211 60.4528 42.9406C60.2046 42.4602 59.6869 42.1825 59.1505 42.2419V42.2418ZM27.2855 54.0481H33.161V72.3806H27.2855V54.0481ZM35.7721 54.0481H41.6476V72.3806H35.7721V54.0481ZM44.2586 54.0481H50.1336V72.3806H44.2586V54.0481ZM52.7452 54.0481H58.6202V72.3806H52.7452V54.0481ZM61.2317 54.0481H67.1067V72.3806H61.2317V54.0481Z" fill="#3C8477"/>
</svg>
