<svg width="136" height="136" viewBox="0 0 136 136" fill="none" xmlns="http://www.w3.org/2000/svg">
<path fill-rule="evenodd" clip-rule="evenodd" d="M93.7001 10.5921C99.0348 9.16268 104.518 12.3285 105.948 17.6632L125.411 90.3008C126.84 95.6354 123.674 101.119 118.34 102.548L45.7021 122.011C40.3674 123.441 34.884 120.275 33.4546 114.94L13.9914 42.3027C12.562 36.9681 15.7278 31.4847 21.0625 30.0553L93.7001 10.5921Z" fill="#B7DBD7"/>
<path fill-rule="evenodd" clip-rule="evenodd" d="M60.9289 7.75467C64.8342 3.84942 71.1658 3.84942 75.0711 7.75466L128.245 60.9291C132.151 64.8343 132.151 71.166 128.245 75.0712L75.0711 128.246C71.1658 132.151 64.8342 132.151 60.9289 128.246L7.75451 75.0712C3.84927 71.166 3.84926 64.8343 7.75451 60.9291L60.9289 7.75467Z" fill="white"/>
<path d="M89.3748 72.7314H46.627C43.5263 72.7314 41.002 70.232 41.002 67.162V51.5689C41.002 48.4994 43.5263 46 46.6266 46H89.3745C92.4751 46 94.9995 48.4994 94.9995 51.5689V67.162C94.9995 70.232 92.4751 72.7314 89.3748 72.7314ZM46.626 48.2271C44.7653 48.2271 43.2512 49.7263 43.2512 51.5686V67.1616C43.2512 69.0039 44.7653 70.5031 46.626 70.5031H89.3739C91.2346 70.5031 92.7487 69.0039 92.7487 67.1616V51.5686C92.7491 49.7263 91.235 48.2271 89.3743 48.2271H46.626Z" fill="#0E8778"/>
<path d="M93.8728 63.8213H42.1247C41.504 63.8213 41 63.3223 41 62.7077C41 62.0927 41.504 61.5938 42.1251 61.5938H93.8732C94.494 61.5938 94.9979 62.0927 94.9979 62.7077C94.9979 63.3223 94.4939 63.8213 93.8728 63.8213Z" fill="#0E8778"/>
<path d="M59.0538 90.5507C58.7657 90.5507 58.4779 90.4414 58.2572 90.2255C57.8184 89.791 57.8184 89.0851 58.2572 88.6506C59.6342 87.2872 59.0693 85.6343 58.0323 83.0481C57.0692 80.6423 55.8703 77.6484 58.2572 75.2848C58.696 74.8504 59.409 74.8504 59.8478 75.2848C60.2866 75.7193 60.2866 76.4252 59.8478 76.8597C58.5721 78.1228 59.1212 79.7223 60.1247 82.2262C61.11 84.6901 62.3387 87.7575 59.8478 90.2255C59.6297 90.4418 59.342 90.5507 59.0538 90.5507Z" fill="#0E8778"/>
<path d="M68.0167 90.5507C67.7286 90.5507 67.4408 90.4414 67.2201 90.2255C66.7813 89.791 66.7813 89.0851 67.2201 88.6506C68.5971 87.2872 68.0322 85.6343 66.9952 83.0481C66.0321 80.6423 64.8332 77.6484 67.2201 75.2848C67.6589 74.8504 68.3719 74.8504 68.8107 75.2848C69.2495 75.7193 69.2495 76.4252 68.8107 76.8597C67.535 78.1228 68.0841 79.7223 69.0876 82.2262C70.0729 84.6901 71.3016 87.7575 68.8107 90.2255C68.5926 90.4418 68.3045 90.5507 68.0167 90.5507Z" fill="#0E8778"/>
<path d="M76.9835 90.5507C76.6954 90.5507 76.4076 90.4414 76.1869 90.2255C75.7481 89.791 75.7481 89.0851 76.1869 88.6506C77.5639 87.2872 76.999 85.6343 75.962 83.0481C74.9989 80.6423 73.8 77.6484 76.1869 75.2848C76.6257 74.8504 77.3387 74.8504 77.7775 75.2848C78.2163 75.7193 78.2163 76.4252 77.7775 76.8597C76.5018 78.1228 77.0509 79.7223 78.0544 82.2262C79.0397 84.6901 80.2684 87.7575 77.7775 90.2255C77.5594 90.4418 77.2713 90.5507 76.9835 90.5507Z" fill="#0E8778"/>
<path d="M89.373 68.2744H46.6251C46.004 68.2744 45.5 67.7754 45.5 67.1604C45.5 66.5458 46.004 66.0469 46.6247 66.0469H89.3726C89.9937 66.0469 90.4977 66.5459 90.4977 67.1608C90.4977 67.7754 89.9937 68.2744 89.373 68.2744Z" fill="#0E8778"/>
<path d="M48.8751 59.3678C48.254 59.3678 47.75 58.8688 47.75 58.2539V51.571C47.75 50.956 48.254 50.457 48.8751 50.457C49.4958 50.457 49.9998 50.956 49.9998 51.571V58.2539C49.9998 58.8688 49.4958 59.3678 48.8751 59.3678Z" fill="#0E8778"/>
<path d="M55.627 59.3678C55.0059 59.3678 54.502 58.8688 54.502 58.2539V51.571C54.502 50.956 55.0059 50.457 55.627 50.457C56.2478 50.457 56.7517 50.956 56.7517 51.571V58.2539C56.7517 58.8688 56.2478 59.3678 55.627 59.3678Z" fill="#0E8778"/>
<path d="M62.3751 59.3678C61.754 59.3678 61.25 58.8688 61.25 58.2539V51.571C61.25 50.956 61.754 50.457 62.3751 50.457C62.9958 50.457 63.4998 50.956 63.4998 51.571V58.2539C63.4998 58.8688 62.9958 59.3678 62.3751 59.3678Z" fill="#0E8778"/>
<path d="M69.1251 59.3678C68.504 59.3678 68 58.8688 68 58.2539V51.571C68 50.956 68.504 50.457 69.1251 50.457C69.7458 50.457 70.2498 50.956 70.2498 51.571V58.2539C70.2498 58.8688 69.7458 59.3678 69.1251 59.3678Z" fill="#0E8778"/>
<path d="M75.8751 59.3678C75.254 59.3678 74.75 58.8688 74.75 58.2539V51.571C74.75 50.956 75.254 50.457 75.8751 50.457C76.4958 50.457 76.9998 50.956 76.9998 51.571V58.2539C76.9998 58.8688 76.4958 59.3678 75.8751 59.3678Z" fill="#0E8778"/>
<path d="M82.6231 59.3678C82.002 59.3678 81.498 58.8688 81.498 58.2539V51.571C81.498 50.956 82.002 50.457 82.6231 50.457C83.2439 50.457 83.7478 50.956 83.7478 51.571V58.2539C83.7478 58.8688 83.2439 59.3678 82.6231 59.3678Z" fill="#0E8778"/>
<path d="M90.4978 58.2526C90.4978 58.8676 89.9942 59.3666 89.3731 59.3666C88.7516 59.3666 88.248 58.8676 88.248 58.2526C88.248 57.6377 88.7516 57.1387 89.3731 57.1387C89.9942 57.1387 90.4978 57.6377 90.4978 58.2526Z" fill="#0E8778"/>
</svg>
