<svg width="64" height="64" viewBox="0 0 64 64" fill="none" xmlns="http://www.w3.org/2000/svg">
<path fill-rule="evenodd" clip-rule="evenodd" d="M38.8974 6.63361C44.2301 5.19717 49.7063 8.35883 51.1288 13.6954L57.4362 37.3589C58.8586 42.6954 55.6887 48.186 50.3559 49.6224L26.9038 55.9395C21.571 57.3759 16.0948 54.2143 14.6724 48.8777L8.36497 25.2142C6.94254 19.8776 10.1125 14.3871 15.4453 12.9506L38.8974 6.63361Z" fill="#B7DBD7"/>
<path fill-rule="evenodd" clip-rule="evenodd" d="M25.0569 7.69996C28.9519 3.78448 35.2669 3.78447 39.1619 7.69995L56.3621 24.9907C60.2571 28.9062 60.2571 35.2545 56.3622 39.17L39.1619 56.4608C35.2669 60.3762 28.9519 60.3762 25.0569 56.4608L7.8566 39.17C3.96162 35.2545 3.96161 28.9062 7.85659 24.9908L25.0569 7.69996Z" fill="#3E9F93"/>
<path d="M41.7168 36.0002H22.5264C21.1345 36.0002 20.0012 34.8782 20.0012 33.5V26.5C20.0012 25.122 21.1345 24 22.5262 24H41.7166C43.1085 24 44.2418 25.122 44.2418 26.5V33.5C44.2418 34.8782 43.1085 36.0002 41.7168 36.0002ZM22.526 24.9998C21.6907 24.9998 21.0109 25.6728 21.0109 26.4998V33.4999C21.0109 34.3269 21.6907 34.9999 22.526 34.9999H41.7163C42.5516 34.9999 43.2314 34.3269 43.2314 33.4999V26.4998C43.2315 25.6728 42.5518 24.9998 41.7165 24.9998H22.526Z" fill="white"/>
<path d="M43.7356 32H20.5049C20.2262 32 20 31.776 20 31.5001C20 31.224 20.2262 31 20.5051 31H43.7358C44.0145 31 44.2407 31.224 44.2407 31.5001C44.2407 31.776 44.0145 32 43.7356 32Z" fill="white"/>
<path d="M28.1052 43.9999C27.9759 43.9999 27.8467 43.9508 27.7476 43.8539C27.5506 43.6589 27.5506 43.342 27.7476 43.1469C28.3658 42.5349 28.1121 41.7929 27.6466 40.6318C27.2143 39.5518 26.6761 38.2078 27.7476 37.1468C27.9446 36.9517 28.2646 36.9517 28.4616 37.1468C28.6586 37.3418 28.6586 37.6587 28.4616 37.8538C27.889 38.4208 28.1355 39.1388 28.5859 40.2629C29.0283 41.369 29.5798 42.746 28.4616 43.8539C28.3637 43.951 28.2346 43.9999 28.1052 43.9999Z" fill="white"/>
<path d="M32.1286 43.9999C31.9993 43.9999 31.8701 43.9508 31.771 43.8539C31.574 43.6589 31.574 43.342 31.771 43.1469C32.3892 42.5349 32.1356 41.7929 31.6701 40.6318C31.2377 39.5518 30.6995 38.2078 31.771 37.1468C31.968 36.9517 32.2881 36.9517 32.4851 37.1468C32.6821 37.3418 32.6821 37.6587 32.4851 37.8538C31.9124 38.4208 32.1589 39.1388 32.6094 40.2629C33.0517 41.369 33.6033 42.746 32.4851 43.8539C32.3872 43.951 32.2578 43.9999 32.1286 43.9999Z" fill="white"/>
<path d="M36.1538 43.9999C36.0244 43.9999 35.8953 43.9508 35.7962 43.8539C35.5992 43.6589 35.5992 43.342 35.7962 43.1469C36.4143 42.5349 36.1607 41.7929 35.6952 40.6318C35.2629 39.5518 34.7246 38.2078 35.7962 37.1468C35.9932 36.9517 36.3132 36.9517 36.5102 37.1468C36.7072 37.3418 36.7072 37.6587 36.5102 37.8538C35.9375 38.4208 36.1841 39.1388 36.6345 40.2629C37.0769 41.369 37.6284 42.746 36.5102 43.8539C36.4123 43.951 36.283 43.9999 36.1538 43.9999Z" fill="white"/>
<path d="M41.7152 34H22.5248C22.246 34 22.0198 33.776 22.0198 33.4999C22.0198 33.224 22.246 33 22.5247 33H41.715C41.9939 33 42.2201 33.224 42.2201 33.5001C42.2201 33.776 41.9939 34 41.7152 34Z" fill="white"/>
<path d="M23.5353 30.0002C23.2565 30.0002 23.0303 29.7762 23.0303 29.5001V26.5001C23.0303 26.224 23.2565 26 23.5353 26C23.814 26 24.0402 26.224 24.0402 26.5001V29.5001C24.0402 29.7762 23.814 30.0002 23.5353 30.0002Z" fill="white"/>
<path d="M26.5659 30.0002C26.287 30.0002 26.0608 29.7762 26.0608 29.5001V26.5001C26.0608 26.224 26.287 26 26.5659 26C26.8445 26 27.0708 26.224 27.0708 26.5001V29.5001C27.0708 29.7762 26.8445 30.0002 26.5659 30.0002Z" fill="white"/>
<path d="M29.5954 30.0002C29.3166 30.0002 29.0903 29.7762 29.0903 29.5001V26.5001C29.0903 26.224 29.3166 26 29.5954 26C29.8741 26 30.1003 26.224 30.1003 26.5001V29.5001C30.1003 29.7762 29.8741 30.0002 29.5954 30.0002Z" fill="white"/>
<path d="M32.6257 30.0002C32.3468 30.0002 32.1206 29.7762 32.1206 29.5001V26.5001C32.1206 26.224 32.3468 26 32.6257 26C32.9043 26 33.1306 26.224 33.1306 26.5001V29.5001C33.1306 29.7762 32.9043 30.0002 32.6257 30.0002Z" fill="white"/>
<path d="M35.6562 30.0002C35.3774 30.0002 35.1511 29.7762 35.1511 29.5001V26.5001C35.1511 26.224 35.3774 26 35.6562 26C35.9349 26 36.1611 26.224 36.1611 26.5001V29.5001C36.1611 29.7762 35.9348 30.0002 35.6562 30.0002Z" fill="white"/>
<path d="M38.6855 30.0002C38.4067 30.0002 38.1804 29.7762 38.1804 29.5001V26.5001C38.1804 26.224 38.4067 26 38.6855 26C38.9641 26 39.1904 26.224 39.1904 26.5001V29.5001C39.1904 29.7762 38.9641 30.0002 38.6855 30.0002Z" fill="white"/>
<path d="M42.2209 29.4996C42.2209 29.7756 41.9948 29.9997 41.716 29.9997C41.437 29.9997 41.2109 29.7756 41.2109 29.4996C41.2109 29.2235 41.437 28.9995 41.716 28.9995C41.9948 28.9995 42.2209 29.2235 42.2209 29.4996Z" fill="white"/>
</svg>
