<svg width="96" height="96" viewBox="0 0 96 96" fill="none" xmlns="http://www.w3.org/2000/svg">
<circle cx="47.9389" cy="47.7221" r="47.3862" fill="#E7F3F2"/>
<path d="M35.5625 46.4843C34.9671 46.4843 34.4844 46.0016 34.4844 45.4062V42.1718C34.4844 41.8859 34.3708 41.6116 34.1686 41.4094C33.9665 41.2073 33.6921 41.0937 33.4063 41.0937H24.7813C24.1859 41.0937 23.7031 41.5764 23.7031 42.1718V45.4062C23.7031 46.0016 23.2204 46.4843 22.625 46.4843C22.0296 46.4843 21.5469 46.0016 21.5469 45.4062V42.1718C21.5469 41.3141 21.8876 40.491 22.4941 39.8847C23.1005 39.2784 23.9236 38.9375 24.7812 38.9375H33.4062C34.2639 38.9375 35.087 39.2783 35.6933 39.8847C36.2996 40.4912 36.6405 41.3142 36.6405 42.1718V45.4062C36.6405 45.6921 36.5269 45.9664 36.3248 46.1686C36.1226 46.3707 35.8483 46.4843 35.5624 46.4843H35.5625Z" fill="#269385"/>
<path d="M52.8125 46.4843C52.2171 46.4843 51.7344 46.0016 51.7344 45.4062V42.1718C51.7344 41.8859 51.6208 41.6116 51.4186 41.4094C51.2165 41.2073 50.9421 41.0937 50.6563 41.0937H42.0313C41.4359 41.0937 40.9531 41.5764 40.9531 42.1718V45.4062C40.9531 46.0016 40.4704 46.4843 39.875 46.4843C39.2796 46.4843 38.7969 46.0016 38.7969 45.4062V42.1718C38.7969 41.3141 39.1376 40.491 39.7441 39.8847C40.3505 39.2784 41.1736 38.9375 42.0312 38.9375H50.6562C51.5139 38.9375 52.337 39.2783 52.9433 39.8847C53.5496 40.4912 53.8905 41.3142 53.8905 42.1718V45.4062C53.8905 45.6921 53.7769 45.9664 53.5748 46.1686C53.3726 46.3707 53.0983 46.4843 52.8124 46.4843H52.8125Z" fill="#269385"/>
<path d="M79.7656 69.1249H66.8281C65.9704 69.1249 65.1473 68.7841 64.541 68.1777C63.9346 67.5712 63.5938 66.7481 63.5938 65.8906V50.7968C63.5938 49.9391 63.9345 49.116 64.541 48.5097C65.1474 47.9034 65.9705 47.5625 66.8281 47.5625H79.7656C80.6232 47.5625 81.4463 47.9033 82.0527 48.5097C82.659 49.1162 82.9999 49.9392 82.9999 50.7968V65.8906C82.9999 66.7482 82.6591 67.5713 82.0527 68.1777C81.4462 68.784 80.6231 69.1249 79.7656 69.1249ZM66.8281 49.7186C66.2327 49.7186 65.7499 50.2014 65.7499 50.7968V65.8905C65.7499 66.1764 65.8635 66.4507 66.0657 66.6529C66.2678 66.855 66.5422 66.9686 66.8281 66.9686H79.7656C80.0515 66.9686 80.3258 66.855 80.528 66.6529C80.7301 66.4507 80.8437 66.1764 80.8437 65.8905V50.7968C80.8437 50.5109 80.7301 50.2365 80.528 50.0344C80.3258 49.8322 80.0515 49.7186 79.7656 49.7186H66.8281Z" fill="#269385"/>
<path d="M56.0469 47.5621H19.3906C19.0287 47.5617 18.6672 47.5978 18.3125 47.67V34.624C18.3125 34.0522 18.5397 33.5035 18.944 33.0992C19.3483 32.695 19.897 32.4678 20.4688 32.4678H54.9688C55.5405 32.4678 56.0892 32.695 56.4935 33.0992C56.8978 33.5035 57.125 34.0522 57.125 34.624V44.3271C57.125 44.9225 57.6078 45.4053 58.2031 45.4053C58.7985 45.4053 59.2812 44.9225 59.2812 44.3271V34.624C59.2812 33.4804 58.8269 32.3835 58.0183 31.5745C57.2092 30.7659 56.1123 30.3115 54.9688 30.3115H20.4688C19.3252 30.3115 18.2282 30.7659 17.4192 31.5745C16.6106 32.3835 16.1562 33.4805 16.1562 34.624V48.6396V48.6632C14.8029 49.674 14.0038 51.2628 14 52.9522V65.8897C14 66.7474 14.3408 67.5705 14.9472 68.1768C15.5537 68.7831 16.3767 69.124 17.2343 69.124H58.2031C59.0607 69.124 59.8838 68.7832 60.4902 68.1768C61.0965 67.5704 61.4374 66.7473 61.4374 65.8897V52.9522C61.4355 51.5232 60.867 50.1529 59.8568 49.1422C58.846 48.1319 57.4758 47.5635 56.0468 47.5616L56.0469 47.5621ZM59.2812 65.8903C59.2812 66.1762 59.1677 66.4505 58.9655 66.6527C58.7634 66.8548 58.489 66.9684 58.2031 66.9684H17.2344C16.639 66.9684 16.1562 66.4856 16.1562 65.8903V62.6559H57.125C57.7204 62.6559 58.2031 62.1731 58.2031 61.5778C58.2031 60.9824 57.7204 60.4996 57.125 60.4996H16.1562V52.9528C16.1562 52.0951 16.497 51.272 17.1035 50.6657C17.7099 50.0593 18.533 49.7185 19.3906 49.7185H56.0468C56.9045 49.7185 57.7276 50.0592 58.3339 50.6657C58.9403 51.2721 59.2811 52.0952 59.2811 52.9528L59.2812 65.8903Z" fill="#269385"/>
<path d="M78.6875 59.4219H67.9062C67.3109 59.4219 66.8281 58.9391 66.8281 58.3438C66.8281 57.7484 67.3109 57.2656 67.9062 57.2656H78.6875C79.2829 57.2656 79.7656 57.7484 79.7656 58.3438C79.7656 58.9391 79.2829 59.4219 78.6875 59.4219Z" fill="#269385"/>
<path d="M81.8024 36.2475L78.6324 26.7374H78.6329C78.4861 26.297 78.0741 26 77.6097 26H68.9847C68.5202 26 68.1082 26.297 67.9614 26.7374L64.727 36.4405C64.6178 36.7692 64.6726 37.1307 64.8757 37.4118C65.0784 37.6928 65.4037 37.8594 65.7503 37.8594H67.9065V42.1719C67.9065 42.7672 68.3893 43.25 68.9847 43.25C69.58 43.25 70.0628 42.7672 70.0628 42.1719V37.8594H72.219V45.4062C72.219 46.0016 72.7018 46.4844 73.2972 46.4844C73.8925 46.4844 74.3753 46.0016 74.3753 45.4062V37.8594H80.844C80.8512 37.8584 80.8585 37.8584 80.8657 37.8594C81.2512 37.8603 81.6083 37.6553 81.8018 37.3218C81.9948 36.9877 81.9953 36.5762 81.8023 36.2422L81.8024 36.2475ZM67.2483 35.7085L69.7646 28.1616H76.835L79.3513 35.7085H67.2483Z" fill="#269385"/>
<path d="M74.375 52.9531C74.375 53.5485 73.8922 54.0312 73.2969 54.0312C72.7015 54.0312 72.2188 53.5485 72.2188 52.9531C72.2188 52.3578 72.7015 51.875 73.2969 51.875C73.8922 51.875 74.375 52.3578 74.375 52.9531Z" fill="#269385"/>
<path d="M74.375 62.6562C74.375 63.2516 73.8922 63.7344 73.2969 63.7344C72.7015 63.7344 72.2188 63.2516 72.2188 62.6562C72.2188 62.0609 72.7015 61.5781 73.2969 61.5781C73.8922 61.5781 74.375 62.0609 74.375 62.6562Z" fill="#269385"/>
</svg>
