<svg width="64" height="64" viewBox="0 0 64 64" fill="none" xmlns="http://www.w3.org/2000/svg">
<path fill-rule="evenodd" clip-rule="evenodd" d="M38.8974 6.63373C44.2301 5.1973 49.7063 8.35895 51.1288 13.6955L57.4362 37.359C58.8586 42.6956 55.6887 48.1861 50.3559 49.6226L26.9038 55.9396C21.571 57.376 16.0948 54.2144 14.6724 48.8778L8.36497 25.2143C6.94254 19.8778 10.1125 14.3872 15.4453 12.9508L38.8974 6.63373Z" fill="#B7DBD7"/>
<path fill-rule="evenodd" clip-rule="evenodd" d="M25.0569 7.70021C28.9519 3.78473 35.2669 3.78472 39.1619 7.7002L56.3621 24.991C60.2571 28.9065 60.2571 35.2547 56.3622 39.1702L39.1619 56.461C35.2669 60.3765 28.9519 60.3765 25.0569 56.461L7.8566 39.1702C3.96162 35.2547 3.96161 28.9065 7.85659 24.991L25.0569 7.70021Z" fill="#3E9F93"/>
<path d="M20.3422 40.4531H24.9265C25.3222 42.0337 26.744 43.2091 28.4374 43.2091C30.4355 43.2091 32.0615 41.5746 32.0615 39.5657C32.0615 38.6609 31.7297 37.834 31.1847 37.1962V26.2477C31.1847 24.923 30.138 23.8424 28.8326 23.7903C29.6412 22.5644 30.9925 21.8209 32.4751 21.8209C34.8916 21.8209 36.8572 23.7971 36.8572 26.2262V38.2073H35.584C34.0512 38.2073 32.8042 39.461 32.8042 41.002C32.8042 41.4644 32.9203 41.9233 33.1397 42.3295C33.1963 42.4343 33.3059 42.4996 33.4244 42.4996H43.1542C43.2728 42.4996 43.3824 42.4341 43.4389 42.3295C43.6585 41.9233 43.7744 41.4642 43.7744 41.002C43.7744 39.461 42.5275 38.2073 40.9946 38.2073H39.6726L39.6728 26.2262C39.6728 22.2365 36.444 18.9907 32.4751 18.9907C29.4214 18.9907 26.7346 20.9092 25.7075 23.7853H22.4675C21.1168 23.7853 20.0181 24.8898 20.0181 26.2476V40.1278C20.0181 40.3077 20.1629 40.4534 20.342 40.4534L20.3422 40.4531ZM30.7087 37.6365C31.1477 38.158 31.4137 38.8308 31.4137 39.5657C31.4137 41.2156 30.0785 42.5579 28.4374 42.5579C26.7964 42.5579 25.4611 41.2156 25.4611 39.5657C25.4611 37.916 26.7963 36.5737 28.4374 36.5737C29.2685 36.5737 30.0203 36.9188 30.5608 37.473C30.5887 37.5443 30.6422 37.6002 30.7087 37.6365H30.7087ZM40.995 38.8582C42.1704 38.8582 43.1269 39.8198 43.1269 41.0016C43.1269 41.2925 43.0667 41.5815 42.9522 41.8481H33.627C33.5125 41.5815 33.4523 41.2925 33.4523 41.0016C33.4523 39.8198 34.4089 38.8582 35.5842 38.8582H40.995ZM32.4756 19.6416C36.0871 19.6416 39.0251 22.5953 39.0251 26.2261L39.0249 32.6604H38.2893C38.1104 32.6604 37.9654 32.8062 37.9654 32.9861C37.9654 33.166 38.1102 33.3117 38.2893 33.3117H39.0249V33.9816H38.2893C38.1104 33.9816 37.9654 34.1274 37.9654 34.3073C37.9654 34.4872 38.1102 34.6329 38.2893 34.6329H39.0249V35.2734H38.2893C38.1104 35.2734 37.9654 35.4192 37.9654 35.599C37.9654 35.7789 38.1102 35.9247 38.2893 35.9247H39.0249V36.6842H38.2893C38.1104 36.6842 37.9654 36.8299 37.9654 37.0098C37.9654 37.1897 38.1102 37.3354 38.2893 37.3354H39.0249V38.2073L37.5054 38.2069V26.2259C37.5054 23.4377 35.2489 21.1692 32.4754 21.1692C30.6342 21.1692 28.9696 22.1674 28.0799 23.7848H26.3979C27.3879 21.2896 29.7748 19.6415 32.4753 19.6415L32.4756 19.6416ZM20.6666 28.5712H26.8324C27.539 28.5712 28.1139 29.1491 28.1139 29.8594C28.1139 30.5698 27.5392 31.1477 26.8324 31.1477H20.6666V28.5712ZM20.6666 31.799H26.8324C27.8962 31.799 28.7616 30.929 28.7616 29.8595C28.7616 28.7901 27.8962 27.9201 26.8324 27.9201L20.6666 27.9199V26.2473C20.6666 25.2487 21.4747 24.4361 22.468 24.4361H28.7354C29.729 24.4361 30.5371 25.2485 30.5371 26.2473V36.6018C29.9439 36.176 29.2204 35.9227 28.4377 35.9227C26.4395 35.9227 24.8135 37.5571 24.8135 39.5659C24.8135 39.6457 24.8204 39.7236 24.8255 39.8021H20.6665L20.6666 31.799Z" fill="white"/>
<path d="M26.2798 39.5654C26.2798 40.7613 27.2478 41.7343 28.4374 41.7343C29.627 41.7343 30.5949 40.7613 30.5949 39.5654C30.5949 38.3695 29.627 37.3965 28.4374 37.3965C27.2477 37.3965 26.2798 38.3693 26.2798 39.5654ZM29.9473 39.5654C29.9473 40.4023 29.2701 41.0833 28.4374 41.0833C27.6048 41.0833 26.9274 40.4025 26.9274 39.5654C26.9274 38.7287 27.6046 38.0478 28.4374 38.0478C29.2699 38.0478 29.9473 38.7285 29.9473 39.5654Z" fill="white"/>
<path d="M28.114 38.8665C28.114 39.0464 28.2588 39.1922 28.438 39.1922C28.6515 39.1922 28.8251 39.3668 28.8251 39.5812C28.8251 39.7959 28.6515 39.9704 28.438 39.9704C28.259 39.9704 28.114 40.1162 28.114 40.2961C28.114 40.476 28.2588 40.6217 28.438 40.6217C29.0086 40.6217 29.473 40.1548 29.473 39.5812C29.473 39.0076 29.0086 38.5409 28.438 38.5409C28.259 38.5409 28.114 38.6867 28.114 38.8665V38.8665Z" fill="white"/>
<path d="M27.1023 30.3624V29.3568C27.1023 29.1769 26.9575 29.0311 26.7784 29.0311H25.778C25.5991 29.0311 25.4541 29.1769 25.4541 29.3568V30.3624C25.4541 30.5422 25.5989 30.688 25.778 30.688H26.7784C26.9575 30.688 27.1023 30.5422 27.1023 30.3624ZM26.4546 30.0367H26.1022V29.6824H26.4546V30.0367Z" fill="white"/>
<path d="M22.8155 29.0311H21.8152C21.6362 29.0311 21.4912 29.1769 21.4912 29.3568V30.3624C21.4912 30.5422 21.636 30.688 21.8152 30.688H22.8155C22.9944 30.688 23.1394 30.5422 23.1394 30.3624V29.3568C23.1394 29.1771 22.9946 29.0311 22.8155 29.0311ZM22.4915 30.0367H22.1391V29.6824H22.4915V30.0367Z" fill="white"/>
<path d="M24.3902 29.0344C23.9379 29.0344 23.5698 29.4042 23.5698 29.8591C23.5698 30.3137 23.9377 30.6837 24.3902 30.6837C24.8424 30.6837 25.2105 30.3137 25.2105 29.8591C25.2105 29.4042 24.8426 29.0344 24.3902 29.0344ZM24.3902 30.0324C24.295 30.0324 24.2177 29.9547 24.2177 29.8589C24.2177 29.7634 24.295 29.6855 24.3902 29.6855C24.4853 29.6855 24.5626 29.7632 24.5626 29.8589C24.5626 29.9547 24.4853 30.0324 24.3902 30.0324Z" fill="white"/>
</svg>
