<svg width="136" height="136" viewBox="0 0 136 136" fill="none" xmlns="http://www.w3.org/2000/svg">
<path fill-rule="evenodd" clip-rule="evenodd" d="M93.7001 10.5921C99.0348 9.16268 104.518 12.3285 105.948 17.6632L125.411 90.3008C126.84 95.6354 123.674 101.119 118.34 102.548L45.7021 122.011C40.3674 123.441 34.884 120.275 33.4546 114.94L13.9914 42.3027C12.562 36.9681 15.7278 31.4847 21.0625 30.0553L93.7001 10.5921Z" fill="#B7DBD7"/>
<path fill-rule="evenodd" clip-rule="evenodd" d="M60.9289 7.75467C64.8342 3.84942 71.1658 3.84942 75.0711 7.75466L128.245 60.9291C132.151 64.8343 132.151 71.166 128.245 75.0712L75.0711 128.246C71.1658 132.151 64.8342 132.151 60.9289 128.246L7.75451 75.0712C3.84927 71.166 3.84926 64.8343 7.75451 60.9291L60.9289 7.75467Z" fill="white"/>
<path d="M42.6971 85.9095H52.5547C53.4056 89.2905 56.4631 91.8049 60.1042 91.8049C64.401 91.8049 67.8974 88.3085 67.8974 84.0113C67.8974 82.0759 67.1838 80.3071 66.0118 78.9428V55.5232C66.0118 52.6897 63.7612 50.3781 60.9542 50.2667C62.6928 47.6443 65.5985 46.0539 68.7868 46.0539C73.983 46.0539 78.2097 50.2811 78.2097 55.4773V81.1056H75.4719C72.1758 81.1056 69.4944 83.7874 69.4944 87.0836C69.4944 88.0727 69.7441 89.0543 70.2159 89.9232C70.3374 90.1476 70.5731 90.287 70.8281 90.287H91.7503C92.0052 90.287 92.2409 90.1471 92.3625 89.9232C92.8347 89.0544 93.084 88.0723 93.084 87.0836C93.084 83.7874 90.4026 81.1056 87.1064 81.1056H84.2636L84.2641 55.4773C84.2641 46.9429 77.321 40 68.7868 40C62.2202 40 56.4428 44.1038 54.2342 50.2559H47.267C44.3627 50.2559 42 52.6185 42 55.523V85.2137C42 85.5985 42.3113 85.9103 42.6966 85.9103L42.6971 85.9095ZM64.9883 79.8847C65.9324 81.0002 66.5044 82.4393 66.5044 84.0113C66.5044 87.5405 63.6333 90.4118 60.1044 90.4118C56.5756 90.4118 53.7043 87.5406 53.7043 84.0113C53.7043 80.4825 56.5755 77.6113 60.1044 77.6113C61.8915 77.6113 63.5081 78.3494 64.6704 79.5349C64.7303 79.6875 64.8453 79.8069 64.9883 79.8847H64.9883ZM87.1072 82.4979C89.6347 82.4979 91.6916 84.5549 91.6916 87.0828C91.6916 87.705 91.5622 88.3233 91.316 88.8936H71.2636C71.0174 88.3234 70.888 87.7051 70.888 87.0828C70.888 84.5549 72.9449 82.4979 75.4724 82.4979H87.1072ZM68.7877 41.3924C76.5537 41.3924 82.8713 47.7105 82.8713 55.4771L82.8708 69.2405H81.2892C80.9044 69.2405 80.5926 69.5523 80.5926 69.9371C80.5926 70.3219 80.9039 70.6337 81.2892 70.6337H82.8708V72.0666H81.2892C80.9044 72.0666 80.5926 72.3784 80.5926 72.7632C80.5926 73.148 80.9039 73.4598 81.2892 73.4598H82.8708V74.8298H81.2892C80.9044 74.8298 80.5926 75.1416 80.5926 75.5264C80.5926 75.9112 80.9039 76.223 81.2892 76.223H82.8708V77.8475H81.2892C80.9044 77.8475 80.5926 78.1593 80.5926 78.5441C80.5926 78.9289 80.9039 79.2407 81.2892 79.2407H82.8708V81.1056L79.6034 81.1048V55.4765C79.6034 49.5125 74.7514 44.66 68.7874 44.66C64.8283 44.66 61.2486 46.7952 59.3355 50.2549H55.7188C57.8475 44.9174 62.9802 41.3921 68.787 41.3921L68.7877 41.3924ZM43.3945 60.4932H56.653C58.1725 60.4932 59.4087 61.7294 59.4087 63.2489C59.4087 64.7685 58.173 66.0046 56.653 66.0046H43.3945V60.4932ZM43.3945 67.3979H56.653C58.9405 67.3979 60.8015 65.5368 60.8015 63.2491C60.8015 60.9616 58.9405 59.1005 56.653 59.1005L43.3945 59.1001V55.5223C43.3945 53.3862 45.1322 51.648 47.2683 51.648H60.7451C62.8817 51.648 64.6194 53.3857 64.6194 55.5223V77.6714C63.3438 76.7605 61.788 76.2187 60.1049 76.2187C55.8082 76.2187 52.3118 79.7147 52.3118 84.0119C52.3118 84.1824 52.3266 84.349 52.3376 84.5169H43.3943L43.3945 67.3979Z" fill="#0E8778"/>
<path d="M55.4648 84.0106C55.4648 86.5687 57.5463 88.6501 60.1043 88.6501C62.6625 88.6501 64.7438 86.5686 64.7438 84.0106C64.7438 81.4525 62.6623 79.3711 60.1043 79.3711C57.5462 79.3711 55.4648 81.4521 55.4648 84.0106ZM63.3511 84.0106C63.3511 85.8008 61.895 87.2574 60.1043 87.2574C58.3141 87.2574 56.8575 85.8012 56.8575 84.0106C56.8575 82.2208 58.3137 80.7642 60.1043 80.7642C61.8945 80.7642 63.3511 82.2204 63.3511 84.0106Z" fill="#0E8778"/>
<path d="M59.4082 82.5169C59.4082 82.9017 59.7195 83.2135 60.1048 83.2135C60.5639 83.2135 60.9374 83.5869 60.9374 84.0456C60.9374 84.5048 60.5639 84.8782 60.1048 84.8782C59.72 84.8782 59.4082 85.19 59.4082 85.5748C59.4082 85.9596 59.7195 86.2714 60.1048 86.2714C61.3318 86.2714 62.3306 85.2727 62.3306 84.0456C62.3306 82.8186 61.3318 81.8203 60.1048 81.8203C59.72 81.8203 59.4082 82.1321 59.4082 82.5169V82.5169Z" fill="#0E8778"/>
<path d="M57.2336 64.3241V62.1732C57.2336 61.7883 56.9223 61.4766 56.537 61.4766H54.386C54.0012 61.4766 53.6895 61.7883 53.6895 62.1732V64.3241C53.6895 64.7089 54.0008 65.0207 54.386 65.0207H56.537C56.9223 65.0207 57.2336 64.7089 57.2336 64.3241ZM55.8409 63.6276H55.0831V62.8698H55.8409V63.6276Z" fill="#0E8778"/>
<path d="M48.0155 61.4766H45.8646C45.4798 61.4766 45.168 61.7883 45.168 62.1732V64.3241C45.168 64.7089 45.4793 65.0207 45.8646 65.0207H48.0155C48.4004 65.0207 48.7121 64.7089 48.7121 64.3241V62.1732C48.7121 61.7888 48.4008 61.4766 48.0155 61.4766ZM47.319 63.6276H46.5612V62.8698H47.319V63.6276Z" fill="#0E8778"/>
<path d="M51.4007 61.4844C50.4282 61.4844 49.6367 62.2754 49.6367 63.2484C49.6367 64.2209 50.4278 65.0124 51.4007 65.0124C52.3732 65.0124 53.1647 64.2209 53.1647 63.2484C53.1647 62.2754 52.3737 61.4844 51.4007 61.4844ZM51.4007 63.6191C51.1961 63.6191 51.0299 63.453 51.0299 63.2479C51.0299 63.0437 51.1961 62.8771 51.4007 62.8771C51.6054 62.8771 51.7715 63.0432 51.7715 63.2479C51.7715 63.453 51.6054 63.6191 51.4007 63.6191Z" fill="#0E8778"/>
</svg>
