<svg width="95" height="96" viewBox="0 0 95 96" fill="none" xmlns="http://www.w3.org/2000/svg">
<circle cx="47.3862" cy="47.7221" r="47.3862" fill="#E7F3F2"/>
<path d="M73.8333 29.1402H72.384C71.5887 29.1402 70.8287 29.3687 70.1777 29.7956C69.5271 29.3687 68.7667 29.1402 67.9718 29.1402H66.9007C66.1055 29.1402 65.3455 29.3687 64.6945 29.7956C64.0439 29.3687 63.2835 29.1402 62.4882 29.1402H61.4171C60.6219 29.1402 59.8618 29.3687 59.2108 29.7956C58.5602 29.3687 57.7998 29.1402 57.005 29.1402H55.5552C55.1102 29.1402 54.7082 29.3066 54.39 29.5715L43.6749 22.5654L20.3707 37.8024C19.5126 38.3628 19 39.3095 19 40.3359V40.7351C19 42.4042 20.3581 43.7622 22.028 43.7622C22.6165 43.7622 23.1888 43.5915 23.6821 43.2705L26.3112 41.5552V60.2121H19V73.0065H50.7164C52.6065 74.2037 54.7815 74.8345 57.0233 74.8345H61.208C61.5863 75.8957 62.5918 76.6624 63.7815 76.6624H65.6094C67.1209 76.6624 68.3513 75.4325 68.3513 73.9206V73.0068H69.2651C70.7765 73.0068 72.0069 71.7768 72.0069 70.265C72.0069 69.5603 71.7318 68.9235 71.2939 68.437C71.7326 67.9509 72.0069 67.3137 72.0069 66.6091C72.0069 65.9044 71.7318 65.2676 71.2939 64.7811C71.7326 64.295 72.0069 63.6578 72.0069 62.9532C72.0069 61.573 70.9789 60.439 69.6501 60.2509C69.9777 59.7027 70.1785 59.0687 70.1785 58.3842C70.1785 57.3764 69.3588 56.5563 68.3506 56.5563V54.7283C69.3584 54.7283 70.1785 53.9086 70.1785 52.9004V51.0724C70.1785 50.8072 70.1192 50.557 70.0176 50.3302C73.4863 48.2875 75.6621 44.5568 75.6621 40.4575V30.9673C75.6621 29.9595 74.8423 29.1398 73.8341 29.1398L73.8333 29.1402ZM22.6819 41.7394C22.4855 41.8674 22.259 41.935 22.027 41.935C21.3649 41.935 20.8271 41.3967 20.8271 40.7362V40.337C20.8271 39.9303 21.0298 39.5556 21.3697 39.3327L43.6742 24.7484L53.7271 31.3213V34.6057L43.6742 28.0495L22.6819 41.7394ZM43.6741 30.232L53.727 36.7883V40.4584C53.727 40.9572 53.7653 41.4501 53.8274 41.9355H48.2433V36.4519C48.2433 35.4441 47.4236 34.624 46.4154 34.624H40.9319C39.924 34.624 39.1039 35.4437 39.1039 36.4519V41.9355H28.1378V40.3644L43.6741 30.232ZM46.4159 41.9357H40.9323V36.4521H46.4159V41.9357ZM28.1384 43.7636H54.2129C55.0362 46.5034 56.8678 48.8567 59.372 50.333C59.2704 50.5594 59.2107 50.8096 59.2107 51.0748V52.9028C59.2107 53.9106 60.0305 54.7307 61.0387 54.7307V56.5587H58.3032C55.9528 56.5587 53.6872 57.4057 51.8996 58.8784V48.3332C51.8996 47.3253 51.0798 46.5053 50.0716 46.5053H37.2772C36.2693 46.5053 35.4492 47.325 35.4492 48.3332V60.214H28.138L28.1384 43.7636ZM37.2772 60.2138V48.333H42.7607V60.2138H37.2772ZM44.5883 48.333H50.0719V60.2138H44.5883V48.333ZM51.4928 71.3336L51.2628 71.1799H20.8273V62.0411H51.4429L51.7172 61.6763C53.2637 59.6156 55.7269 58.3856 58.3031 58.3856H68.3497C68.3497 59.3935 67.53 60.2136 66.5218 60.2136H63.2151L62.963 60.7191C62.4831 61.6795 61.6571 62.3952 60.6389 62.7352L59.8358 63.0028L60.4144 64.7355L61.0385 64.5268V68.6484C60.0726 67.7611 58.9247 67.0745 57.6719 66.6571L57.0933 68.3899C58.6699 68.9163 60.0453 69.9673 60.9662 71.3482L61.0385 71.4569V73.0078H57.0221C55.0479 73.0078 53.1361 72.4284 51.4927 71.3336L51.4928 71.3336ZM70.177 66.6105C70.177 67.1148 69.7675 67.5243 69.2632 67.5243H67.4352C66.9309 67.5243 66.5215 67.1148 66.5215 66.6105C66.5215 66.1061 66.9309 65.6967 67.4352 65.6967H69.2632C69.7679 65.6967 70.177 66.1061 70.177 66.6105ZM65.6076 74.8354H63.7797C63.2753 74.8354 62.8659 74.4259 62.8659 73.9216V63.596C63.4354 63.1712 63.9287 62.651 64.3125 62.0408H64.8619C64.7595 62.3277 64.6939 62.6328 64.6939 62.9546C64.6939 63.6593 64.969 64.296 65.4069 64.7825C64.9682 65.2687 64.6939 65.9058 64.6939 66.6105C64.6939 67.3152 64.969 67.9519 65.4069 68.4384C64.9682 68.9246 64.6939 69.5617 64.6939 70.2664C64.6939 71.4565 65.4607 72.4615 66.5218 72.8398L66.5214 73.9212C66.5214 74.426 66.1124 74.835 65.6076 74.835L65.6076 74.8354ZM69.2632 71.1798H67.4353C66.9309 71.1798 66.5215 70.7704 66.5215 70.266C66.5215 69.7617 66.931 69.3522 67.4353 69.3522H69.2632C69.7676 69.3522 70.177 69.7617 70.177 70.266C70.177 70.7708 69.7679 71.1798 69.2632 71.1798ZM70.177 62.9549C70.177 63.4592 69.7675 63.8687 69.2632 63.8687H67.4353C66.9309 63.8687 66.5215 63.4592 66.5215 62.9549C66.5215 62.4506 66.931 62.0411 67.4353 62.0411H69.2632C69.7679 62.0411 70.177 62.4506 70.177 62.9549ZM66.5214 56.5575H62.8658V54.7295H66.5214V56.5575ZM61.0383 52.9019V51.0739H68.3495L68.3514 52.9019H61.0383ZM73.8327 40.4585C73.8327 44.2624 71.6047 47.6903 68.1464 49.2467L65.6077 49.2463V41.9351H63.7798V49.2463H61.2411C57.7832 47.6898 55.5548 44.2619 55.5548 40.4584V30.9683H57.0042C57.4757 30.9683 57.9219 31.1217 58.2966 31.3944V43.7628H60.1245V31.3944C60.4992 31.1221 60.945 30.9683 61.4166 30.9683H62.4877C62.9592 30.9683 63.4055 31.1217 63.7801 31.3944V40.1074H65.6081V31.3944C65.9823 31.1221 66.4286 30.9683 66.9001 30.9683H67.9713C68.4428 30.9683 68.889 31.1217 69.2636 31.3944L69.2633 43.7628H71.0912V31.3944C71.4659 31.1221 71.9117 30.9683 72.3833 30.9683H73.8326L73.8327 40.4585Z" fill="#0E8778"/>
<path d="M20.8281 47.417H22.6561V49.2449H20.8281V47.417Z" fill="#0E8778"/>
<path d="M19 49.2441H20.8279V51.0721H19V49.2441Z" fill="#0E8778"/>
<path d="M20.8281 51.0732H22.6561V52.9012H20.8281V51.0732Z" fill="#0E8778"/>
<path d="M22.6562 49.2441H24.4842V51.0721H22.6562V49.2441Z" fill="#0E8778"/>
<path d="M60.127 21.8281H61.9549V23.6561H60.127V21.8281Z" fill="#0E8778"/>
<path d="M58.2969 23.6562H60.1248V25.4842H58.2969V23.6562Z" fill="#0E8778"/>
<path d="M60.127 25.4824H61.9549V27.3104H60.127V25.4824Z" fill="#0E8778"/>
<path d="M61.9551 23.6562H63.783V25.4842H61.9551V23.6562Z" fill="#0E8778"/>
<path d="M67.4375 25.4824H69.2654V27.3104H67.4375V25.4824Z" fill="#0E8778"/>
<path d="M52.8145 21.8281H54.6424V23.6561H52.8145V21.8281Z" fill="#0E8778"/>
<path d="M20.8281 30.9668H22.6561V32.7947H20.8281V30.9668Z" fill="#0E8778"/>
<path d="M26.3125 20H28.1404V23.6556H26.3125V20Z" fill="#0E8778"/>
<path d="M22.6562 23.6562H26.3118V25.4842H22.6562V23.6562Z" fill="#0E8778"/>
<path d="M26.3125 25.4824H28.1404V29.138H26.3125V25.4824Z" fill="#0E8778"/>
<path d="M28.1406 23.6562H31.7962V25.4842H28.1406V23.6562Z" fill="#0E8778"/>
<path d="M34.5352 23.6562H36.3631V25.4842H34.5352V23.6562Z" fill="#0E8778"/>
</svg>
