<svg width="64" height="64" viewBox="0 0 64 64" fill="none" xmlns="http://www.w3.org/2000/svg">
<path fill-rule="evenodd" clip-rule="evenodd" d="M38.8974 6.63361C44.2301 5.19717 49.7063 8.35883 51.1288 13.6954L57.4362 37.3589C58.8586 42.6954 55.6887 48.186 50.3559 49.6224L26.9038 55.9395C21.571 57.3759 16.0948 54.2143 14.6724 48.8777L8.36497 25.2142C6.94254 19.8776 10.1125 14.3871 15.4453 12.9506L38.8974 6.63361Z" fill="#B7DBD7"/>
<path fill-rule="evenodd" clip-rule="evenodd" d="M25.0569 7.70021C28.9519 3.78473 35.2669 3.78472 39.1619 7.7002L56.3621 24.991C60.2571 28.9065 60.2571 35.2547 56.3622 39.1702L39.1619 56.461C35.2669 60.3765 28.9519 60.3765 25.0569 56.461L7.8566 39.1702C3.96162 35.2547 3.96161 28.9065 7.85659 24.991L25.0569 7.70021Z" fill="#3E9F93"/>
<path d="M40.2874 38.4287V38.6594C40.2874 38.8972 40.1019 39.0901 39.8727 39.0901C39.6436 39.0901 39.4581 38.8972 39.4581 38.6594V38.4287C39.4581 38.1909 39.6436 37.998 39.8727 37.998C40.1019 37.998 40.2874 38.1909 40.2874 38.4287ZM28.5252 29.6439L28.3658 29.7465C28.1709 29.8715 28.1107 30.1371 28.2313 30.3393C28.3098 30.471 28.4455 30.5435 28.5844 30.5435C28.6589 30.5435 28.734 30.5228 28.8021 30.479L28.9615 30.3764C29.1564 30.2513 29.2166 29.9858 29.096 29.7836C28.9758 29.5811 28.7201 29.5186 28.5252 29.6439H28.5252ZM32.4995 31.4137C32.8212 31.4137 33.0827 31.6854 33.0827 32.0195C33.0827 32.2573 33.2683 32.4503 33.4974 32.4503C33.7265 32.4503 33.9121 32.2573 33.9121 32.0195C33.9121 31.2105 33.2784 30.5525 32.4997 30.5525C31.7208 30.5525 31.0871 31.2107 31.0871 32.0195C31.0871 32.8286 31.7208 33.4868 32.4997 33.4868C32.7288 33.4868 32.9144 33.2938 32.9144 33.056C32.9144 32.8183 32.7288 32.6253 32.4997 32.6253C32.178 32.6253 31.9165 32.3537 31.9165 32.0195C31.9162 31.6854 32.1778 31.4137 32.4995 31.4137L32.4995 31.4137ZM44.7362 36.4891L40.2874 34.6761V33.1092L40.5915 33.3048C40.7771 33.4238 40.9898 33.4865 41.2065 33.4865C41.6154 33.4865 41.9879 33.2711 42.203 32.9104C42.3675 32.6341 42.4188 32.3079 42.3472 31.9918C42.2758 31.6754 42.0898 31.407 41.8237 31.2363L36.4365 27.7723C36.5235 27.4254 36.5677 27.0678 36.5677 26.705C36.5677 24.375 34.7429 22.4797 32.4995 22.4797C30.4964 22.4797 28.8077 23.9678 28.4849 26.0179C28.448 26.2527 28.6012 26.4741 28.8272 26.5127C29.0534 26.5511 29.2664 26.3918 29.3031 26.1572C29.5603 24.5255 30.9046 23.3411 32.4994 23.3411C34.2852 23.3411 35.7383 24.8502 35.7383 26.705C35.7383 26.9031 35.7213 27.0989 35.6887 27.2914L33.1158 25.637C32.7358 25.3925 32.2634 25.3925 31.8834 25.637L27.0322 28.7562C26.9343 28.4747 26.8544 28.186 26.7981 27.8926C26.7595 27.6913 26.5893 27.5462 26.3915 27.5462H24.9478V25.8642H26.3915C26.5893 25.8642 26.7595 25.7192 26.7981 25.5176C26.9467 24.7439 27.2367 24.0171 27.6603 23.3577C27.7701 23.187 27.7483 22.9593 27.6084 22.8142L26.587 21.7533L27.7321 20.564L28.7535 21.6249C28.893 21.7699 29.1118 21.7926 29.277 21.6785C29.9113 21.2388 30.6107 20.9376 31.3563 20.7832C31.5501 20.7431 31.69 20.5661 31.69 20.3609V18.8613H33.3094V20.3609C33.3094 20.5664 33.449 20.7431 33.6431 20.7832C34.3884 20.9376 35.0881 21.2387 35.7224 21.6785C35.8874 21.7928 36.1064 21.7699 36.2458 21.6249L37.2672 20.564L38.4123 21.7533L37.3909 22.8142C37.2512 22.9593 37.2294 23.187 37.339 23.3577C37.7627 24.0171 38.0526 24.7436 38.2012 25.5176C38.2398 25.7192 38.41 25.8642 38.6078 25.8642H40.0516V27.5462H38.6078C38.3787 27.5462 38.1931 27.7392 38.1931 27.9769C38.1931 28.2147 38.3787 28.4077 38.6078 28.4077H40.4663C40.6954 28.4077 40.881 28.2147 40.881 27.9769V25.4335C40.881 25.1958 40.6954 25.0028 40.4663 25.0028H38.9393C38.7828 24.361 38.539 23.7505 38.2117 23.1801L39.2922 22.058C39.37 21.9772 39.4136 21.8679 39.4136 21.7534C39.4136 21.6392 39.3698 21.5296 39.2922 21.4488L37.5608 19.6504C37.3989 19.4823 37.1363 19.4823 36.9744 19.6504L35.8939 20.7723C35.3452 20.4326 34.7571 20.1793 34.1391 20.0167L34.1387 18.4307C34.1387 18.1929 33.9531 18 33.724 18H31.2752C31.0461 18 30.8605 18.1929 30.8605 18.4307V20.0169C30.2424 20.1795 29.6545 20.4326 29.1057 20.7725L28.0252 19.6507C27.8633 19.4825 27.6007 19.4825 27.4388 19.6507L25.7074 21.449C25.6296 21.5299 25.586 21.6394 25.586 21.7536C25.586 21.8679 25.6298 21.9774 25.7074 22.0582L26.788 23.1803C26.4604 23.7508 26.2166 24.3613 26.0603 25.003H24.5333C24.3042 25.003 24.1186 25.196 24.1186 25.4338V27.9772C24.1186 28.2149 24.3042 28.4079 24.5333 28.4079H26.0607C26.1282 28.6832 26.2178 28.9518 26.3175 29.2165L23.1757 31.2365C22.9096 31.4075 22.7237 31.6759 22.6523 31.9923C22.5804 32.3086 22.6319 32.6348 22.7965 32.9109C22.9613 33.1871 23.2195 33.3802 23.5238 33.4546C23.6139 33.4766 23.7044 33.4874 23.7942 33.4874C24.0095 33.4874 24.221 33.4253 24.4084 33.3048L24.7121 33.1095V43.1051L20.8294 43.1047V37.1836L23.4443 36.1178C23.6575 36.0309 23.7625 35.781 23.6787 35.5597C23.5948 35.3378 23.3541 35.2294 23.1411 35.3161L20.2632 36.489C20.1044 36.5537 20 36.7128 20 36.89V43.5352C20 43.773 20.1856 43.9659 20.4147 43.9659L39.8728 44C40.102 44 40.2875 43.8071 40.2875 43.5693V40.3151C40.2875 40.0773 40.102 39.8844 39.8728 39.8844C39.6437 39.8844 39.4581 40.0773 39.4581 40.3151V43.1385L35.7742 43.1383V37.6281C35.7742 37.3903 35.5887 37.1974 35.3596 37.1974H29.6397C29.4106 37.1974 29.225 37.3903 29.225 37.6281V41.8533C29.225 42.091 29.4106 42.284 29.6397 42.284C29.8688 42.284 30.0544 42.091 30.0544 41.8533L30.0546 38.0588H34.9452V43.1383H25.5416V32.5753L27.449 31.3486C27.6439 31.2234 27.7041 30.958 27.5835 30.7556C27.4629 30.5532 27.2074 30.4908 27.0125 30.6161L23.9718 32.5712C23.8946 32.621 23.8031 32.6367 23.714 32.615C23.6252 32.5932 23.5496 32.5369 23.5019 32.4563C23.4538 32.3757 23.4388 32.2804 23.4598 32.1883C23.4805 32.0961 23.5347 32.0178 23.6123 31.968L32.3204 26.3692C32.4296 26.2989 32.5707 26.2989 32.6801 26.3692L41.3882 31.968C41.4658 32.0178 41.5198 32.0961 41.5408 32.1883C41.5617 32.2806 41.5468 32.3759 41.4986 32.4565C41.4023 32.6178 41.1858 32.6723 41.0283 32.5714L32.7187 27.2285C32.585 27.1425 32.4161 27.1425 32.2822 27.2285L29.837 28.8007C29.6421 28.9258 29.5819 29.1914 29.7025 29.3936C29.8231 29.596 30.0786 29.6585 30.2735 29.533L32.5003 28.101L39.4587 32.5751V36.7661C39.4587 37.0039 39.6443 37.1968 39.8734 37.1968C40.1026 37.1968 40.2881 37.0039 40.2881 36.7661V35.6005L44.1706 37.1828V43.104H41.5048C41.2756 43.104 41.0901 43.2969 41.0901 43.5347C41.0901 43.7725 41.2756 43.9654 41.5048 43.9654H44.5853C44.8144 43.9654 45 43.7725 45 43.5347V36.8895C45 36.7127 44.8956 36.5536 44.7368 36.489L44.7362 36.4891Z" fill="white"/>
</svg>
