<svg width="136" height="136" viewBox="0 0 136 136" fill="none" xmlns="http://www.w3.org/2000/svg">
<path fill-rule="evenodd" clip-rule="evenodd" d="M93.7001 10.5921C99.0348 9.16268 104.518 12.3285 105.948 17.6632L125.411 90.3008C126.84 95.6354 123.674 101.119 118.34 102.548L45.7021 122.011C40.3674 123.441 34.884 120.275 33.4546 114.94L13.9914 42.3027C12.562 36.9681 15.7278 31.4847 21.0625 30.0553L93.7001 10.5921Z" fill="#B7DBD7"/>
<path fill-rule="evenodd" clip-rule="evenodd" d="M60.9289 7.75467C64.8342 3.84942 71.1658 3.84942 75.0711 7.75466L128.245 60.9291C132.151 64.8343 132.151 71.166 128.245 75.0712L75.0711 128.246C71.1658 132.151 64.8342 132.151 60.9289 128.246L7.75451 75.0712C3.84927 71.166 3.84926 64.8343 7.75451 60.9291L60.9289 7.75467Z" fill="#3E9F93"/>
<path d="M85.6324 81.786V82.2917C85.6324 82.813 85.2242 83.236 84.72 83.236C84.2159 83.236 83.8077 82.813 83.8077 82.2917V81.786C83.8077 81.2647 84.2159 80.8417 84.72 80.8417C85.2242 80.8417 85.6324 81.2647 85.6324 81.786ZM59.7555 62.5269L59.4048 62.7519C58.976 63.026 58.8436 63.6083 59.1089 64.0516C59.2815 64.3403 59.5801 64.4991 59.8856 64.4991C60.0495 64.4991 60.2148 64.4538 60.3646 64.3578L60.7153 64.1328C61.1441 63.8587 61.2765 63.2765 61.0112 62.8332C60.7468 62.3894 60.1842 62.2523 59.7555 62.5269H59.7555ZM68.4988 66.4071C69.2066 66.4071 69.782 67.0026 69.782 67.7352C69.782 68.2565 70.1902 68.6794 70.6943 68.6794C71.1984 68.6794 71.6066 68.2565 71.6066 67.7352C71.6066 65.9614 70.2125 64.519 68.4993 64.519C66.7857 64.519 65.3916 65.9619 65.3916 67.7352C65.3916 69.5089 66.7857 70.9518 68.4993 70.9518C69.0034 70.9518 69.4117 70.5288 69.4117 70.0075C69.4117 69.4862 69.0034 69.0632 68.4993 69.0632C67.7916 69.0632 67.2162 68.4677 67.2162 67.7351C67.2157 67.0026 67.7911 66.407 68.4989 66.407L68.4988 66.4071ZM95.4196 77.5338L85.6324 73.5591V70.1241L86.3013 70.5528C86.7095 70.8136 87.1776 70.9512 87.6543 70.9512C88.5538 70.9512 89.3734 70.479 89.8465 69.6883C90.2086 69.0824 90.3214 68.3673 90.1638 67.6744C90.0068 66.9806 89.5976 66.3922 89.0122 66.0179L77.1603 58.4239C77.3517 57.6635 77.4489 56.8794 77.4489 56.084C77.4489 50.9759 73.4343 46.8208 68.4988 46.8208C64.092 46.8208 60.377 50.0833 59.6668 54.5778C59.5856 55.0925 59.9225 55.5778 60.4198 55.6624C60.9175 55.7466 61.386 55.3973 61.4668 54.8831C62.0326 51.3059 64.9901 48.7094 68.4987 48.7094C72.4274 48.7094 75.6242 52.0177 75.6242 56.084C75.6242 56.5184 75.5868 56.9475 75.5151 57.3695L69.8549 53.7426C69.0188 53.2067 67.9795 53.2067 67.1435 53.7426L56.4709 60.581C56.2554 59.9637 56.0796 59.3309 55.9559 58.6877C55.8709 58.2463 55.4965 57.9282 55.0614 57.9282H51.8851V54.2408H55.0614C55.4965 54.2408 55.8709 53.9228 55.9559 53.4809C56.2828 51.7846 56.9207 50.1914 57.8527 48.7457C58.0943 48.3714 58.0463 47.8723 57.7386 47.5543L55.4915 45.2285L58.0107 42.621L60.2577 44.9468C60.5646 45.2649 61.0459 45.3145 61.4093 45.0645C62.8048 44.1003 64.3436 43.4401 65.9838 43.1017C66.4102 43.0138 66.718 42.6258 66.718 42.1758V38.8883H70.2806V42.1758C70.2806 42.6262 70.5879 43.0138 71.0148 43.1017C72.6545 43.4401 74.1938 44.1003 75.5893 45.0645C75.9523 45.315 76.434 45.2649 76.7408 44.9468L78.9879 42.621L81.5071 45.2285L79.26 47.5543C78.9527 47.8723 78.9048 48.3714 79.1459 48.7457C80.0779 50.1914 80.7158 51.7841 81.0427 53.4809C81.1277 53.9228 81.5021 54.2408 81.9372 54.2408H85.1135V57.9282H81.9372C81.4331 57.9282 81.0249 58.3512 81.0249 58.8725C81.0249 59.3938 81.4331 59.8168 81.9372 59.8168H86.0259C86.53 59.8168 86.9382 59.3938 86.9382 58.8725V53.2966C86.9382 52.7753 86.53 52.3523 86.0259 52.3523H82.6665C82.3223 50.9453 81.7857 49.6069 81.0657 48.3564L83.4428 45.8964C83.6141 45.7192 83.71 45.4796 83.71 45.2286C83.71 44.9782 83.6136 44.7381 83.4428 44.5608L79.6337 40.6183C79.2776 40.2496 78.6999 40.2496 78.3438 40.6183L75.9666 43.0777C74.7593 42.3329 73.4657 41.7776 72.106 41.4213L72.105 37.9443C72.105 37.423 71.6968 37 71.1927 37H65.8055C65.3014 37 64.8932 37.423 64.8932 37.9443V41.4218C63.5334 41.7781 62.2398 42.333 61.0325 43.0782L58.6554 40.6188C58.2992 40.2501 57.7216 40.2501 57.3654 40.6188L53.5563 44.5613C53.3851 44.7385 53.2892 44.9786 53.2892 45.2291C53.2892 45.4796 53.3855 45.7197 53.5563 45.8969L55.9335 48.3569C55.2129 49.6074 54.6764 50.9458 54.3326 52.3528H50.9733C50.4692 52.3528 50.061 52.7758 50.061 53.2971V58.873C50.061 59.3943 50.4692 59.8173 50.9733 59.8173H54.3336C54.482 60.4208 54.6792 61.0097 54.8984 61.59L47.9866 66.0185C47.4012 66.3933 46.992 66.9817 46.835 67.6754C46.677 68.3688 46.7902 69.0839 47.1523 69.6893C47.5149 70.2947 48.0829 70.7182 48.7523 70.8813C48.9505 70.9295 49.1496 70.9531 49.3473 70.9531C49.8208 70.9531 50.2861 70.817 50.6985 70.5528L51.3665 70.1246V92.0382L42.8246 92.0373V79.0563L48.5775 76.7198C49.0465 76.5293 49.2775 75.9815 49.0931 75.4962C48.9086 75.0099 48.3789 74.7721 47.9105 74.9621L41.579 77.5336C41.2297 77.6754 41 78.0242 41 78.4127V92.981C41 93.5023 41.4082 93.9253 41.9123 93.9253L84.7202 94C85.2243 94 85.6325 93.577 85.6325 93.0557V85.9216C85.6325 85.4003 85.2243 84.9773 84.7202 84.9773C84.2161 84.9773 83.8079 85.4003 83.8079 85.9216V92.1114L75.7033 92.1109V80.0308C75.7033 79.5095 75.2951 79.0866 74.791 79.0866H62.2073C61.7032 79.0866 61.295 79.5095 61.295 80.0308V89.2937C61.295 89.815 61.7032 90.238 62.2073 90.238C62.7115 90.238 63.1197 89.815 63.1197 89.2937L63.1201 80.9752H73.8794V92.1109H53.1915V68.9535L57.3878 66.2643C57.8165 65.9897 57.9489 65.4079 57.6836 64.9641C57.4183 64.5204 56.8562 64.3838 56.4275 64.6584L49.738 68.9445C49.5681 69.0537 49.3667 69.0882 49.1709 69.0405C48.9754 68.9928 48.8092 68.8694 48.7042 68.6926C48.5983 68.5159 48.5654 68.307 48.6115 68.1052C48.6572 67.9029 48.7763 67.7313 48.9471 67.6222L68.1049 55.3478C68.3451 55.1937 68.6556 55.1937 68.8962 55.3478L88.054 67.6222C88.2248 67.7313 88.3435 67.9029 88.3897 68.1052C88.4358 68.3075 88.4029 68.5163 88.297 68.6931C88.0851 69.0466 87.6088 69.1662 87.2623 68.945L68.9812 57.2318C68.6871 57.0432 68.3154 57.0432 68.0209 57.2318L62.6414 60.6785C62.2127 60.9526 62.0802 61.5349 62.3455 61.9782C62.6108 62.422 63.1729 62.559 63.6017 62.284L68.5007 59.1444L83.8092 68.953V78.1411C83.8092 78.6624 84.2174 79.0854 84.7215 79.0854C85.2256 79.0854 85.6339 78.6624 85.6339 78.1411V75.5857L94.1753 79.0547V92.0356H88.3105C87.8064 92.0356 87.3982 92.4586 87.3982 92.9799C87.3982 93.5012 87.8064 93.9242 88.3105 93.9242H95.0877C95.5918 93.9242 96 93.5012 96 92.9799V78.4116C96 78.024 95.7703 77.6753 95.421 77.5335L95.4196 77.5338Z" fill="white"/>
</svg>
