<svg width="64" height="64" viewBox="0 0 64 64" fill="none" xmlns="http://www.w3.org/2000/svg">
<path fill-rule="evenodd" clip-rule="evenodd" d="M38.8974 6.63373C44.2301 5.1973 49.7063 8.35895 51.1288 13.6955L57.4362 37.359C58.8586 42.6956 55.6887 48.1861 50.3559 49.6226L26.9038 55.9396C21.571 57.376 16.0948 54.2144 14.6724 48.8778L8.36497 25.2143C6.94254 19.8778 10.1125 14.3872 15.4453 12.9508L38.8974 6.63373Z" fill="#B7DBD7"/>
<path fill-rule="evenodd" clip-rule="evenodd" d="M25.0569 7.70021C28.9519 3.78473 35.2669 3.78472 39.1619 7.7002L56.3621 24.991C60.2571 28.9065 60.2571 35.2547 56.3622 39.1702L39.1619 56.461C35.2669 60.3765 28.9519 60.3765 25.0569 56.461L7.8566 39.1702C3.96162 35.2547 3.96161 28.9065 7.85659 24.991L25.0569 7.70021Z" fill="#3E9F93"/>
<path d="M41.2005 25.5681V20.5999C41.2005 20.3792 41.0212 20.1999 40.8005 20.1999H37.6005C37.3798 20.1999 37.2005 20.3792 37.2005 20.5999V22.6715L32.235 19.0759C32.095 18.9747 31.9057 18.9747 31.7657 19.0759L20.1656 27.476C20.0252 27.5776 19.9659 27.7583 20.0195 27.9231C20.0733 28.0883 20.2268 28.1999 20.4004 28.1999H22.0004V42.6C22.0004 42.8207 22.1797 43 22.4004 43H41.6005C41.8212 43 42.0005 42.8207 42.0005 42.6V28.1999H43.6005C43.7741 28.1999 43.9277 28.0883 43.9809 27.9231C44.0345 27.7583 43.9754 27.5776 43.8348 27.476L41.2005 25.5681ZM38.0005 21.0001H40.4005V24.9888L38.0005 23.2508V21.0001ZM41.6005 27.4001H39.2005V28.2001H41.2005V42.2002H29.6379C30.1147 42.1982 30.5892 42.0889 31.0295 41.873C31.7972 41.4966 32.3718 40.8443 32.6488 40.0354L33.4256 37.7646L33.5552 37.3862C33.7629 36.7795 33.7217 36.1285 33.4392 35.553C33.2168 35.0994 32.8624 34.7401 32.4268 34.5049L35.6761 25.0059L35.9349 24.2491C36.1493 23.6236 35.8142 22.9395 35.1881 22.7252C34.5617 22.5116 33.8784 22.8459 33.6641 23.4723L33.4054 24.2291L30.157 33.7245C29.6682 33.6438 29.1673 33.7141 28.7137 33.9365C28.1382 34.2188 27.7066 34.7081 27.4993 35.3145L27.3697 35.6929L26.5929 37.9637C26.5557 38.0724 26.5105 38.1792 26.4589 38.2808L27.1713 38.644C27.24 38.5092 27.3005 38.3672 27.3497 38.2224L27.9973 36.3301L29.5109 36.8481L29.1225 37.9836L29.8796 38.2424L30.268 37.1068L31.0248 37.3656L30.2481 39.6363C29.8913 40.6792 28.7532 41.2376 27.7097 40.8815L25.5452 40.1412C25.9407 39.9783 26.3064 39.7356 26.6145 39.4199L26.0416 38.8615C25.3977 39.5219 24.4168 39.7551 23.5452 39.457C23.3356 39.3858 23.1088 39.497 23.0372 39.7063C22.9656 39.9151 23.0772 40.1428 23.2865 40.2143L27.4497 41.6383C27.45 41.6383 27.4509 41.6386 27.4513 41.6386L28.5852 42.0267C28.9217 42.1418 29.2688 42.1986 29.6145 42.1999L22.8003 42.2001V28.2H24.8004V27.4H21.6348L32.0006 19.8936L42.3663 27.4L41.6005 27.4001ZM28.2573 35.5734C28.5425 34.7389 29.4541 34.2911 30.2889 34.5773L31.8029 35.0954C32.2073 35.2338 32.5336 35.5209 32.7216 35.905C32.9097 36.2886 32.9372 36.7227 32.7988 37.127L28.2573 35.5734ZM30.9261 33.9498L34.0333 24.8663L34.7901 25.1251L31.6829 34.2086L31.3045 34.0789L30.9261 33.9498ZM35.1786 23.99L35.0493 24.3684L34.2922 24.1096L34.4215 23.7312C34.4931 23.5225 34.7208 23.4112 34.9295 23.4816C35.1386 23.5535 35.2502 23.7812 35.1786 23.99L35.1786 23.99ZM32.5398 37.8835L31.8927 39.7755C31.685 40.3823 31.2539 40.8716 30.6782 41.1539C30.3895 41.2955 30.0814 41.3762 29.7699 41.3955C30.3283 41.0684 30.7806 40.5543 31.0063 39.8955L31.7831 37.6248L32.5398 37.8835Z" fill="white"/>
<path d="M28.6057 39.4976L28.8646 38.7406L29.6216 38.9995L29.3627 39.7565L28.6057 39.4976Z" fill="white"/>
<path d="M36.7998 31H37.5998V31.8H36.7998V31Z" fill="white"/>
<path d="M37.5999 31.8002H38.3999V32.6002H37.5999V31.8002Z" fill="white"/>
<path d="M36.7998 32.6003H37.5998V33.4003H36.7998V32.6003Z" fill="white"/>
<path d="M36.0005 31.8002H36.8005V32.6002H36.0005V31.8002Z" fill="white"/>
<path d="M28.0005 26.5997H28.8005V27.3997H28.0005V26.5997Z" fill="white"/>
<path d="M28.8005 27.3999H29.6005V28.1999H28.8005V27.3999Z" fill="white"/>
<path d="M28.0005 28.2001H28.8005V29.0001H28.0005V28.2001Z" fill="white"/>
<path d="M27.2012 27.3999H28.0012V28.1999H27.2012V27.3999Z" fill="white"/>
</svg>
