<svg width="136" height="136" viewBox="0 0 136 136" fill="none" xmlns="http://www.w3.org/2000/svg">
<path fill-rule="evenodd" clip-rule="evenodd" d="M93.7001 10.5921C99.0348 9.16268 104.518 12.3285 105.948 17.6632L125.411 90.3008C126.84 95.6354 123.674 101.119 118.34 102.548L45.7021 122.011C40.3674 123.441 34.884 120.275 33.4546 114.94L13.9914 42.3027C12.562 36.9681 15.7278 31.4847 21.0625 30.0553L93.7001 10.5921Z" fill="#B7DBD7"/>
<path fill-rule="evenodd" clip-rule="evenodd" d="M60.9289 7.75467C64.8342 3.84942 71.1658 3.84942 75.0711 7.75466L128.245 60.9291C132.151 64.8343 132.151 71.166 128.245 75.0712L75.0711 128.246C71.1658 132.151 64.8342 132.151 60.9289 128.246L7.75451 75.0712C3.84927 71.166 3.84926 64.8343 7.75451 60.9291L60.9289 7.75467Z" fill="#3E9F93"/>
<path d="M87.9344 54.231V43.4664C87.9344 42.9882 87.546 42.5997 87.0678 42.5997H80.1344C79.6562 42.5997 79.2677 42.9882 79.2677 43.4664V47.9549L68.5091 40.1645C68.2058 39.9452 67.7956 39.9452 67.4923 40.1645L42.3588 58.3646C42.0547 58.5848 41.9262 58.9763 42.0423 59.3334C42.1588 59.6913 42.4915 59.9332 42.8676 59.9332H46.3343V91.1333C46.3343 91.6115 46.7227 92 47.2009 92H88.8012C89.2794 92 89.6678 91.6115 89.6678 91.1333V59.9332H93.1345C93.5106 59.9332 93.8433 59.6913 93.9586 59.3334C94.0747 58.9763 93.9466 58.5848 93.6421 58.3646L87.9344 54.231ZM81.001 44.3335H86.2011V52.9758L81.001 49.21V44.3335ZM88.8011 58.2002H83.6011V59.9336H87.9344V90.2671H62.8822C63.9152 90.2628 64.9433 90.026 65.8973 89.5583C67.5606 88.7427 68.8056 87.3293 69.4058 85.5766L71.0888 80.6567L71.3697 79.8368C71.8197 78.5222 71.7303 77.1118 71.1182 75.8648C70.6365 74.8821 69.8685 74.1036 68.9248 73.594L75.9649 53.0128L76.5256 51.3731C76.9902 50.0177 76.264 48.5355 74.9075 48.0712C73.5502 47.6085 72.07 48.3327 71.6056 49.69L71.045 51.3298L64.0067 71.9031C62.9478 71.7282 61.8625 71.8806 60.8798 72.3623C59.6328 72.974 58.6977 74.0342 58.2485 75.3482L57.9676 76.168L56.2846 81.0879C56.2041 81.3236 56.1062 81.5549 55.9944 81.7751L57.5377 82.562C57.6867 82.2699 57.8179 81.9623 57.9243 81.6485L59.3276 77.5485L62.607 78.6709L61.7654 81.1312L63.4059 81.6919L64.2474 79.2315L65.8871 79.7921L64.2041 84.7121C63.4311 86.9715 60.9653 88.1814 58.7043 87.4099L54.0145 85.8058C54.8715 85.453 55.6639 84.9272 56.3314 84.2432L55.0902 83.0333C53.695 84.464 51.5697 84.9694 49.6813 84.3236C49.227 84.1692 48.7357 84.4103 48.5805 84.8637C48.4254 85.316 48.6672 85.8093 49.1207 85.9644L58.141 89.0496C58.1418 89.0496 58.1437 89.0504 58.1445 89.0504L60.6014 89.8911C61.3303 90.1407 62.0824 90.2637 62.8315 90.2664L48.0674 90.2668V59.9333H52.4008V58.1999H45.5421L68.0012 41.9362L90.4604 58.1999L88.8011 58.2002ZM59.8909 75.909C60.5088 74.101 62.484 73.1306 64.2927 73.7509L67.5729 74.8733C68.4492 75.1731 69.1561 75.7953 69.5636 76.6275C69.971 77.4586 70.0306 78.3992 69.7307 79.2751L59.8909 75.909ZM65.6732 72.3912L72.4054 52.7104L74.0452 53.271L67.313 72.9519L66.4931 72.671L65.6732 72.3912ZM74.887 50.8116L74.6069 51.6315L72.9664 51.0708L73.2466 50.251C73.4017 49.7987 73.895 49.5576 74.3473 49.7101C74.8004 49.866 75.0422 50.3593 74.887 50.8116L74.887 50.8116ZM69.1696 80.9143L67.7675 85.0137C67.3175 86.3283 66.3835 87.3885 65.1362 88.0002C64.5106 88.307 63.8431 88.4819 63.168 88.5236C64.3779 87.8148 65.3579 86.701 65.847 85.2737L67.53 80.3538L69.1696 80.9143Z" fill="white"/>
<path d="M60.6445 84.4116L61.2055 82.7715L62.8457 83.3325L62.2847 84.9726L60.6445 84.4116Z" fill="white"/>
<path d="M78.4004 66H80.1337V67.7333H78.4004V66Z" fill="white"/>
<path d="M80.1328 67.7344H81.8662V69.4677H80.1328V67.7344Z" fill="white"/>
<path d="M78.4004 69.4668H80.1337V71.2001H78.4004V69.4668Z" fill="white"/>
<path d="M76.668 67.7344H78.4013V69.4677H76.668V67.7344Z" fill="white"/>
<path d="M59.334 56.4668H61.0673V58.2001H59.334V56.4668Z" fill="white"/>
<path d="M61.0684 58.1992H62.8017V59.9326H61.0684V58.1992Z" fill="white"/>
<path d="M59.334 59.9336H61.0673V61.6669H59.334V59.9336Z" fill="white"/>
<path d="M57.6035 58.1992H59.3369V59.9326H57.6035V58.1992Z" fill="white"/>
</svg>
