<svg width="96" height="96" viewBox="0 0 96 96" fill="none" xmlns="http://www.w3.org/2000/svg">
<circle cx="47.9389" cy="47.7221" r="47.3862" fill="#E7F3F2"/>
<path fill-rule="evenodd" clip-rule="evenodd" d="M23.5742 57.9989V71.637C23.5742 73.023 24.698 74.1468 26.084 74.1468H70.9001C72.286 74.1468 73.4099 73.023 73.4099 71.637V54.6764C73.4099 54.2148 73.0345 53.8398 72.5733 53.8398C72.1116 53.8398 71.7367 54.2148 71.7367 54.6764V71.637C71.7367 72.0986 71.3617 72.4736 70.9001 72.4736H26.084C25.6224 72.4736 25.2474 72.0986 25.2474 71.637V57.9989C25.2474 57.5377 24.8724 57.1623 24.4108 57.1623C23.9496 57.1623 23.5742 57.5377 23.5742 57.9989Z" fill="#269385"/>
<path fill-rule="evenodd" clip-rule="evenodd" d="M49.3291 23.5098C49.3291 22.1238 48.2053 21 46.8193 21H26.084C24.698 21 23.5742 22.1238 23.5742 23.5098V36.2501C23.5742 37.636 24.698 38.7599 26.084 38.7599H46.8193C48.2053 38.7599 49.3291 37.636 49.3291 36.2501V23.5098ZM47.6559 23.5098V36.2501C47.6559 36.7124 47.2809 37.0867 46.8193 37.0867H26.084C25.6224 37.0867 25.2474 36.7124 25.2474 36.2501V23.5098C25.2474 23.0482 25.6224 22.6732 26.084 22.6732H46.8193C47.2809 22.6732 47.6559 23.0482 47.6559 23.5098Z" fill="#269385"/>
<path fill-rule="evenodd" clip-rule="evenodd" d="M32.2695 29.0173V30.7439C32.2695 31.2055 32.6445 31.5805 33.1061 31.5805C33.5678 31.5805 33.9427 31.2055 33.9427 30.7439V29.0173C33.9427 28.5556 33.5678 28.1807 33.1061 28.1807C32.6445 28.1807 32.2695 28.5556 32.2695 29.0173Z" fill="#269385"/>
<path fill-rule="evenodd" clip-rule="evenodd" d="M38.9629 29.0173V30.7439C38.9629 31.2055 39.3379 31.5805 39.7995 31.5805C40.2611 31.5805 40.6361 31.2055 40.6361 30.7439V29.0173C40.6361 28.5556 40.2611 28.1807 39.7995 28.1807C39.3379 28.1807 38.9629 28.5556 38.9629 29.0173Z" fill="#269385"/>
<path fill-rule="evenodd" clip-rule="evenodd" d="M34.4655 58.8627H38.439C38.9003 58.8627 39.2756 58.4877 39.2756 58.0261C39.2756 57.5644 38.9003 57.1895 38.439 57.1895H34.4655C34.0039 57.1895 33.6289 57.5644 33.6289 58.0261C33.6289 58.4877 34.0039 58.8627 34.4655 58.8627Z" fill="#269385"/>
<path fill-rule="evenodd" clip-rule="evenodd" d="M58.5475 58.8627H62.5211C62.9827 58.8627 63.3577 58.4877 63.3577 58.0261C63.3577 57.5644 62.9827 57.1895 62.5211 57.1895H58.5475C58.0863 57.1895 57.7109 57.5644 57.7109 58.0261C57.7109 58.4877 58.0863 58.8627 58.5475 58.8627Z" fill="#269385"/>
<path fill-rule="evenodd" clip-rule="evenodd" d="M34.4655 68.1205H38.439C38.9003 68.1205 39.2756 67.7455 39.2756 67.2839C39.2756 66.8222 38.9003 66.4473 38.439 66.4473H34.4655C34.0039 66.4473 33.6289 66.8222 33.6289 67.2839C33.6289 67.7455 34.0039 68.1205 34.4655 68.1205Z" fill="#269385"/>
<path fill-rule="evenodd" clip-rule="evenodd" d="M58.5475 68.1205H62.5211C62.9827 68.1205 63.3577 67.7455 63.3577 67.2839C63.3577 66.8222 62.9827 66.4473 62.5211 66.4473H58.5475C58.0863 66.4473 57.7109 66.8222 57.7109 67.2839C57.7109 67.7455 58.0863 68.1205 58.5475 68.1205Z" fill="#269385"/>
<path fill-rule="evenodd" clip-rule="evenodd" d="M24.4108 64.7738H72.5733C73.0345 64.7738 73.4099 64.3988 73.4099 63.9372C73.4099 63.4756 73.0345 63.1006 72.5733 63.1006H24.4108C23.9496 63.1006 23.5742 63.4756 23.5742 63.9372C23.5742 64.3988 23.9496 64.7738 24.4108 64.7738Z" fill="#269385"/>
<path fill-rule="evenodd" clip-rule="evenodd" d="M74.985 51.8281C74.985 51.1622 74.7206 50.5243 74.25 50.0534C73.7794 49.5828 73.1407 49.3184 72.4752 49.3184H24.5098C23.8442 49.3184 23.2059 49.5828 22.735 50.0534C22.2644 50.524 22 51.1623 22 51.8281V53.0064C22 53.6724 22.2644 54.3103 22.735 54.7812C23.2056 55.2518 23.8443 55.5162 24.5098 55.5162H72.4752C73.1408 55.5162 73.7791 55.2518 74.25 54.7812C74.7206 54.3106 74.985 53.6723 74.985 53.0064V51.8281ZM73.3118 51.8281V53.0064C73.3118 53.2283 73.2237 53.4415 73.0668 53.598C72.9096 53.7549 72.697 53.843 72.4752 53.843H24.5097C24.2879 53.843 24.0753 53.7549 23.9181 53.598C23.7613 53.4412 23.6731 53.2283 23.6731 53.0064V51.8281C23.6731 51.6063 23.7613 51.3938 23.9181 51.2365C24.0753 51.0797 24.2879 50.9915 24.5097 50.9915H72.4752C72.697 50.9915 72.9096 51.0797 73.0668 51.2365C73.2237 51.3938 73.3118 51.6063 73.3118 51.8281Z" fill="#269385"/>
<path fill-rule="evenodd" clip-rule="evenodd" d="M61.8901 50.1545V45.5152C61.8901 43.6907 60.4111 42.2109 58.5859 42.2109H58.5855C56.7606 42.2109 55.2812 43.6907 55.2812 45.5152V46.2442C55.2812 46.7058 55.6562 47.0808 56.1179 47.0808C56.5795 47.0808 56.9545 46.7058 56.9545 46.2442V45.5152C56.9545 44.6143 57.6846 43.8841 58.5855 43.8841H58.5859C59.4867 43.8841 60.2169 44.6143 60.2169 45.5152V50.1545C60.2169 50.6162 60.5919 50.9911 61.0535 50.9911C61.5151 50.9911 61.8901 50.6162 61.8901 50.1545Z" fill="#269385"/>
<path fill-rule="evenodd" clip-rule="evenodd" d="M33.1048 50.1553C33.1048 46.7413 35.8768 43.9701 39.2908 43.9701C42.7048 43.9701 45.476 46.7413 45.476 50.1553C45.476 50.6169 45.851 50.9919 46.3126 50.9919C46.7743 50.9919 47.1492 50.6169 47.1492 50.1553C47.1492 45.8177 43.6277 42.2969 39.2908 42.2969C34.9532 42.2969 31.4316 45.8177 31.4316 50.1553C31.4316 50.6169 31.8066 50.9919 32.2682 50.9919C32.7299 50.9919 33.1048 50.6169 33.1048 50.1553Z" fill="#269385"/>
<path fill-rule="evenodd" clip-rule="evenodd" d="M37.2884 37.7847V21.9763C37.2884 21.5146 36.9135 21.1396 36.4518 21.1396C35.9902 21.1396 35.6152 21.5146 35.6152 21.9763V37.7847C35.6152 38.2459 35.9902 38.6213 36.4518 38.6213C36.9135 38.6213 37.2884 38.2459 37.2884 37.7847Z" fill="#269385"/>
<path fill-rule="evenodd" clip-rule="evenodd" d="M45.1663 45.7699C45.1663 45.7699 45.9992 44.2484 47.8043 44.2723C48.2659 44.2783 48.6457 43.9085 48.6521 43.4469C48.6581 42.9853 48.2883 42.6054 47.8267 42.5991C44.9901 42.561 43.6944 44.9741 43.6944 44.9741C43.4748 45.38 43.6265 45.8884 44.0324 46.1079C44.4384 46.3275 44.9467 46.1759 45.1663 45.7699L45.1663 45.7699Z" fill="#269385"/>
<path fill-rule="evenodd" clip-rule="evenodd" d="M30.3061 46.8925C30.3061 45.554 31.3925 44.4668 32.7311 44.4668C33.3988 44.4668 34.0032 44.7372 34.4423 45.1741C34.7699 45.5006 35.2995 45.4994 35.6251 45.1719C35.9508 44.8444 35.9497 44.3148 35.6229 43.9891C34.8811 43.2507 33.8593 42.7939 32.731 42.7939C30.4696 42.7939 28.6328 44.6307 28.6328 46.8929C28.6328 47.3545 29.0078 47.7295 29.4694 47.7295C29.931 47.7295 30.306 47.3545 30.306 46.8929L30.3061 46.8925Z" fill="#269385"/>
<path fill-rule="evenodd" clip-rule="evenodd" d="M60.1947 29.8804V22.4948C60.1947 22.0332 59.8197 21.6582 59.3581 21.6582C58.8965 21.6582 58.5215 22.0332 58.5215 22.4948V29.8804C58.5215 30.342 58.8965 30.717 59.3581 30.717C59.8197 30.717 60.1947 30.342 60.1947 29.8804Z" fill="#269385"/>
<path fill-rule="evenodd" clip-rule="evenodd" d="M59.3582 29.0547C57.1752 29.0547 55.2812 31.2694 55.2812 34.1146C55.2812 36.9595 57.1752 39.1746 59.3582 39.1746C61.5412 39.1746 63.4348 36.9599 63.4348 34.1146C63.4348 31.2698 61.5412 29.0547 59.3582 29.0547ZM59.3582 30.7279C60.7532 30.7279 61.7616 32.2961 61.7616 34.1146C61.7616 35.9328 60.7532 37.5014 59.3582 37.5014C57.9629 37.5014 56.9545 35.9332 56.9545 34.1146C56.9545 32.2965 57.9629 30.7279 59.3582 30.7279Z" fill="#269385"/>
<path fill-rule="evenodd" clip-rule="evenodd" d="M69.3646 27.3833V22.4948C69.3646 22.0332 68.9893 21.6582 68.528 21.6582C68.0664 21.6582 67.6914 22.0332 67.6914 22.4948V27.3833C67.6914 27.845 68.0664 28.2199 68.528 28.2199C68.9893 28.2199 69.3646 27.845 69.3646 27.3833Z" fill="#269385"/>
<path fill-rule="evenodd" clip-rule="evenodd" d="M68.5271 26.5469C66.7067 26.5469 65.1074 28.377 65.1074 30.7489C65.1074 33.1216 66.7063 34.9513 68.5271 34.9513C70.347 34.9513 71.9459 33.1212 71.9459 30.7489C71.9459 28.3769 70.347 26.5469 68.5271 26.5469ZM68.5271 28.2201C68.883 28.2201 69.2068 28.3829 69.4735 28.638C69.9698 29.1127 70.2727 29.8862 70.2727 30.7489C70.2727 31.6124 69.9698 32.3859 69.4735 32.8598C69.2068 33.1153 68.883 33.2781 68.5271 33.2781C68.1708 33.2781 67.8473 33.1153 67.5799 32.8598C67.0836 32.3859 66.7807 31.612 66.7807 30.7489C66.7807 29.8862 67.0836 29.1127 67.5799 28.638C67.847 28.3833 68.1704 28.2201 68.5271 28.2201Z" fill="#269385"/>
<path fill-rule="evenodd" clip-rule="evenodd" d="M71.1098 21H56.1179C55.6562 21 55.2812 21.3754 55.2812 21.8366C55.2812 22.2982 55.6562 22.6732 56.1179 22.6732H71.1098C71.5714 22.6732 71.9464 22.2982 71.9464 21.8366C71.9464 21.3754 71.5714 21 71.1098 21Z" fill="#269385"/>
<path fill-rule="evenodd" clip-rule="evenodd" d="M47.6562 54.6794V73.3103C47.6562 73.7715 48.0312 74.1469 48.4929 74.1469C48.9545 74.1469 49.3295 73.7715 49.3295 73.3103V54.6794C49.3295 54.2178 48.9545 53.8428 48.4929 53.8428C48.0312 53.8428 47.6562 54.2178 47.6562 54.6794Z" fill="#269385"/>
</svg>
