<svg width="136" height="136" viewBox="0 0 136 136" fill="none" xmlns="http://www.w3.org/2000/svg">
<path fill-rule="evenodd" clip-rule="evenodd" d="M93.7001 10.5921C99.0348 9.16268 104.518 12.3285 105.948 17.6632L125.411 90.3008C126.84 95.6354 123.674 101.119 118.34 102.548L45.7021 122.011C40.3674 123.441 34.884 120.275 33.4546 114.94L13.9914 42.3027C12.562 36.9681 15.7278 31.4847 21.0625 30.0553L93.7001 10.5921Z" fill="#B7DBD7"/>
<path fill-rule="evenodd" clip-rule="evenodd" d="M60.9289 7.75467C64.8342 3.84942 71.1658 3.84942 75.0711 7.75466L128.245 60.9291C132.151 64.8343 132.151 71.166 128.245 75.0712L75.0711 128.246C71.1658 132.151 64.8342 132.151 60.9289 128.246L7.75451 75.0712C3.84927 71.166 3.84926 64.8343 7.75451 60.9291L60.9289 7.75467Z" fill="white"/>
<path d="M98.593 90.3574C98.4018 90.2661 94.0095 87.254 98.3067 81.1386C98.4978 80.865 98.4978 80.4996 98.3067 80.2259C98.1156 79.9523 97.7338 79.7696 97.4475 79.7696C97.2564 79.7696 94.2011 79.861 92.2915 82.4167C90.382 79.8609 87.3263 79.7696 87.1355 79.7696C86.7537 79.7696 86.467 79.9523 86.2763 80.2259C86.0852 80.4996 86.0852 80.865 86.2763 81.1386C90.0002 86.5241 87.0404 89.5361 86.1808 90.2661H82.7427C84.2705 89.2621 85.2252 87.7104 85.2252 85.7937C85.2252 84.607 84.8433 83.6029 84.1748 82.6903C84.2704 82.4167 84.2704 82.0513 84.2704 81.7776C84.2704 79.4046 82.6472 77.3052 80.2598 76.5749L76.9178 75.4795C77.0134 75.0232 77.1089 74.5669 77.1089 74.1105C77.1089 72.6501 76.6316 71.3721 75.8675 70.1858V64.5267C75.8675 63.979 75.4857 63.614 74.9128 63.614H66.2236C65.6507 63.614 65.2689 63.979 65.2689 64.5267V68.0864C64.2186 68.7254 63.3594 69.7294 62.7865 70.8248L58.6808 69.4558L59.1582 63.4316C59.2538 62.7926 59.0626 62.1536 58.6808 61.6973L47.8907 46.6359C47.5088 46.0882 46.8404 45.6319 46.1719 45.5405L39.3926 44.0802C37.8649 43.7152 36.3372 44.6278 36.0506 46.1795C35.7643 47.6399 36.7191 49.1002 38.2467 49.3742L43.8805 50.5609L53.5245 64.0695L53.1427 68.9073C50.7553 69.6376 49.1321 71.737 49.037 74.2014C47.1275 75.2054 45.8861 75.1141 45.8861 75.1141C44.1673 75.1141 42.6396 74.2014 40.9208 72.102C40.539 71.6457 39.8705 71.2807 39.202 71.2807C37.9606 71.3712 36.9098 72.2843 36.9098 73.4706V83.9675C36.9098 85.7018 38.3419 87.0709 40.1562 87.0709H44.5486C44.9304 88.3489 45.6945 89.4438 46.8404 90.1742H37.5783C37.0054 90.1742 36.6236 90.5392 36.6236 91.0869C36.6236 91.6346 37.0054 91.9996 37.5783 91.9996L98.021 92C98.9757 92 99.3575 90.8133 98.5935 90.357L98.593 90.3574ZM89.0446 81.9599C89.9038 82.4162 90.8589 83.1466 91.3364 84.5156C91.4319 84.7893 91.8137 85.1547 92.1956 85.1547C92.6729 85.1547 92.9596 84.881 93.0547 84.5156C93.5321 83.1466 94.4869 82.3249 95.3465 81.9599C93.5322 85.7937 94.5825 88.5316 95.7283 90.1747H88.5668C89.9043 88.5316 90.9545 85.7937 89.0446 81.9599ZM79.6869 89.262C77.6819 89.262 75.9631 87.7104 75.9631 85.7024C75.9631 83.7857 77.5863 82.1427 79.6869 82.1427C81.692 82.1427 83.4108 83.6943 83.4108 85.7024C83.3157 87.619 81.6924 89.262 79.6869 89.262ZM67.1787 65.4391H73.9579V68.2689C72.7165 67.4475 71.1888 66.8998 69.5655 66.8998C68.7063 66.8998 67.9423 66.9912 67.1782 67.2648L67.1787 65.4391ZM69.5655 68.6338C72.7165 68.6338 75.1993 71.0068 75.1993 74.0193C75.1993 74.2929 75.1993 74.567 75.1038 74.7497L64.6002 71.3727C65.6505 69.7292 67.4649 68.6338 69.5655 68.6338ZM55.2427 63.2483L45.2165 49.1922C45.1209 49.0095 44.8347 48.8272 44.6436 48.8272L38.6279 47.6405C38.055 47.5496 37.7688 47.0019 37.8643 46.5452C37.9599 46.0888 38.5324 45.7239 39.0102 45.9066L45.7895 47.2756C46.0757 47.367 46.2668 47.4583 46.3624 47.6406L57.1522 62.7929C57.2478 62.9756 57.3433 63.1579 57.3433 63.3406L56.866 68.9082L56.5797 68.8169C56.0068 68.6342 55.5294 68.6342 54.9565 68.5433L55.3383 63.7969C55.4334 63.6142 55.3378 63.4319 55.2427 63.2492L55.2427 63.2483ZM50.8503 74.2015C50.8503 71.6458 53.5239 69.8201 56.0063 70.5505L79.686 78.2176C81.1182 78.5826 82.0733 79.678 82.3596 81.0474C81.5955 80.591 80.6408 80.4083 79.686 80.4083C76.7258 80.4083 74.3389 82.5991 74.1477 85.2461H55.5279C55.3368 82.8731 53.4273 80.956 50.9445 80.4997H50.8489C50.8494 72.0108 50.8494 76.3922 50.8494 74.2016L50.8503 74.2015ZM38.8186 83.968V73.4711C38.8186 73.1975 39.1048 73.1061 39.2004 73.1061C39.296 73.1061 39.3915 73.1061 39.4867 73.1975C42.1603 76.3009 45.2156 77.8526 49.035 76.1182V80.317C46.5526 80.682 44.6427 82.69 44.4516 85.0634H40.1552C39.3916 85.2461 38.8186 84.6984 38.8186 83.968ZM49.8946 82.2337C52.0907 82.2337 53.8096 84.059 53.5229 86.0674C53.3318 87.8928 51.8041 89.2622 49.8946 89.2622C47.9851 89.2622 46.457 87.8931 46.2663 86.0674C46.0756 84.0594 47.6988 82.2337 49.8946 82.2337ZM55.3372 87.0714H74.2434C74.6252 88.3494 75.3892 89.4444 76.5352 90.1748H53.0456C54.1915 89.4448 54.9552 88.3494 55.337 87.0714H55.3372Z" fill="#0E8778"/>
</svg>
