<svg width="64" height="64" viewBox="0 0 64 64" fill="none" xmlns="http://www.w3.org/2000/svg">
<path fill-rule="evenodd" clip-rule="evenodd" d="M38.8974 6.63361C44.2301 5.19717 49.7063 8.35883 51.1288 13.6954L57.4362 37.3589C58.8586 42.6954 55.6887 48.186 50.3559 49.6224L26.9038 55.9395C21.571 57.3759 16.0948 54.2143 14.6724 48.8777L8.36497 25.2142C6.94254 19.8776 10.1125 14.3871 15.4453 12.9506L38.8974 6.63361Z" fill="#B7DBD7"/>
<path fill-rule="evenodd" clip-rule="evenodd" d="M25.0569 7.69996C28.9519 3.78448 35.2669 3.78447 39.1619 7.69995L56.3621 24.9907C60.2571 28.9062 60.2571 35.2545 56.3622 39.17L39.1619 56.4608C35.2669 60.3762 28.9519 60.3762 25.0569 56.4608L7.8566 39.17C3.96162 35.2545 3.96161 28.9062 7.85659 24.9908L25.0569 7.69996Z" fill="#3E9F93"/>
<path d="M45.8191 42.2472C45.7342 42.2053 43.782 40.8248 45.6919 38.0219C45.7768 37.8964 45.7768 37.729 45.6919 37.6036C45.6069 37.4781 45.4372 37.3944 45.31 37.3944C45.2251 37.3944 43.8671 37.4363 43.0185 38.6076C42.1698 37.4363 40.8117 37.3944 40.7269 37.3944C40.5572 37.3944 40.4298 37.4781 40.345 37.6036C40.2601 37.729 40.2601 37.8964 40.345 38.0219C42.0001 40.4902 40.6846 41.8707 40.3026 42.2053H38.7746C39.4535 41.7451 39.8778 41.0339 39.8778 40.1554C39.8778 39.6115 39.7082 39.1513 39.411 38.7331C39.4535 38.6076 39.4535 38.4402 39.4535 38.3147C39.4535 37.2271 38.7321 36.2649 37.671 35.9302L36.1857 35.4281C36.2282 35.219 36.2706 35.0098 36.2706 34.8007C36.2706 34.1313 36.0585 33.5455 35.7189 33.0018V30.4081C35.7189 30.1571 35.5492 29.9898 35.2946 29.9898H31.4327C31.1781 29.9898 31.0084 30.1571 31.0084 30.4081V32.0396C30.5416 32.3325 30.1597 32.7926 29.9051 33.2947L28.0804 32.6672L28.2925 29.9062C28.335 29.6133 28.2501 29.3204 28.0804 29.1113L23.2847 22.2081C23.115 21.9571 22.8179 21.7479 22.5208 21.7061L19.5078 21.0367C18.8289 20.8695 18.1499 21.2878 18.0225 21.9989C17.8953 22.6683 18.3196 23.3376 18.9985 23.4632L21.5025 24.0071L25.7887 30.1985L25.619 32.4158C24.5579 32.7506 23.8365 33.7128 23.7942 34.8423C22.9456 35.3025 22.3938 35.2606 22.3938 35.2606C21.6299 35.2606 20.9509 34.8423 20.187 33.8801C20.0173 33.6709 19.7202 33.5037 19.4231 33.5037C18.8714 33.5451 18.4043 33.9636 18.4043 34.5074V39.3184C18.4043 40.1133 19.0409 40.7408 19.8472 40.7408H21.7994C21.9691 41.3266 22.3087 41.8284 22.818 42.1632H18.7015C18.4468 42.1632 18.2771 42.3305 18.2771 42.5815C18.2771 42.8325 18.4468 42.9998 18.7015 42.9998L45.5649 43C45.9892 43 46.1589 42.4561 45.8193 42.2469L45.8191 42.2472ZM41.5754 38.3983C41.9572 38.6074 42.3817 38.9422 42.5939 39.5697C42.6364 39.6951 42.8061 39.8626 42.9758 39.8626C43.188 39.8626 43.3154 39.7371 43.3577 39.5697C43.5698 38.9422 43.9942 38.5656 44.3762 38.3983C43.5699 40.1554 44.0367 41.4103 44.5459 42.1634H41.363C41.9574 41.4103 42.4242 40.1554 41.5754 38.3983ZM37.4164 41.7451C36.5253 41.7451 35.7614 41.0339 35.7614 40.1136C35.7614 39.2351 36.4828 38.4821 37.4164 38.4821C38.3075 38.4821 39.0715 39.1932 39.0715 40.1136C39.0292 40.9921 38.3078 41.7451 37.4164 41.7451ZM31.8572 30.8263H34.8702V32.1232C34.3184 31.7468 33.6395 31.4957 32.918 31.4957C32.5362 31.4957 32.1966 31.5376 31.857 31.663L31.8572 30.8263ZM32.918 32.2905C34.3184 32.2905 35.4219 33.3781 35.4219 34.7589C35.4219 34.8843 35.4219 35.0099 35.3795 35.0936L30.7112 33.5458C31.178 32.7925 31.9844 32.2905 32.918 32.2905ZM26.5523 29.8222L22.0962 23.3798C22.0538 23.296 21.9265 23.2125 21.8416 23.2125L19.168 22.6686C18.9133 22.6269 18.7861 22.3759 18.8286 22.1665C18.8711 21.9574 19.1255 21.7901 19.3379 21.8738L22.3509 22.5013C22.4781 22.5432 22.563 22.5851 22.6055 22.6686L27.401 29.6134C27.4435 29.6971 27.4859 29.7807 27.4859 29.8644L27.2738 32.4163L27.1465 32.3744C26.8919 32.2907 26.6797 32.2907 26.4251 32.249L26.5948 30.0736C26.6371 29.9898 26.5946 29.9063 26.5523 29.8225L26.5523 29.8222ZM24.6001 34.8424C24.6001 33.671 25.7884 32.8342 26.8917 33.169L37.416 36.6831C38.0525 36.8504 38.477 37.3524 38.6043 37.98C38.2647 37.7709 37.8404 37.6872 37.416 37.6872C36.1003 37.6872 35.0395 38.6913 34.9545 39.9045H26.6791C26.5941 38.8168 25.7455 37.9382 24.642 37.729H24.5995C24.5997 33.8383 24.5997 35.8464 24.5997 34.8424L24.6001 34.8424ZM19.2527 39.3187V34.5076C19.2527 34.3822 19.3799 34.3403 19.4224 34.3403C19.4649 34.3403 19.5073 34.3403 19.5496 34.3822C20.7379 35.8046 22.0958 36.5158 23.7934 35.7209V37.6453C22.6901 37.8126 21.8412 38.7329 21.7563 39.8207H19.8468C19.5074 39.9045 19.2527 39.6534 19.2527 39.3187ZM24.1754 38.5238C25.1514 38.5238 25.9154 39.3604 25.7879 40.2809C25.703 41.1175 25.024 41.7452 24.1754 41.7452C23.3267 41.7452 22.6476 41.1177 22.5628 40.2809C22.478 39.3606 23.1995 38.5238 24.1754 38.5238ZM26.5943 40.7411H34.9971C35.1667 41.3268 35.5063 41.8287 36.0156 42.1634H25.5758C26.0851 41.8289 26.4245 41.3268 26.5942 40.7411H26.5943Z" fill="white"/>
</svg>
