<svg width="136" height="136" viewBox="0 0 136 136" fill="none" xmlns="http://www.w3.org/2000/svg">
<path fill-rule="evenodd" clip-rule="evenodd" d="M93.7001 10.5921C99.0348 9.16268 104.518 12.3285 105.948 17.6632L125.411 90.3008C126.84 95.6354 123.674 101.119 118.34 102.548L45.7021 122.011C40.3674 123.441 34.884 120.275 33.4546 114.94L13.9914 42.3027C12.562 36.9681 15.7278 31.4847 21.0625 30.0553L93.7001 10.5921Z" fill="#B7DBD7"/>
<path fill-rule="evenodd" clip-rule="evenodd" d="M60.9289 7.75467C64.8342 3.84942 71.1658 3.84942 75.0711 7.75466L128.245 60.9291C132.151 64.8343 132.151 71.166 128.245 75.0712L75.0711 128.246C71.1658 132.151 64.8342 132.151 60.9289 128.246L7.75451 75.0712C3.84927 71.166 3.84926 64.8343 7.75451 60.9291L60.9289 7.75467Z" fill="#3E9F93"/>
<path d="M43.6923 65.2222V84.8297C43.6923 85.3368 44.0303 85.6749 44.5374 85.6749C45.0445 85.6749 45.3826 85.3368 45.3826 84.8297V65.3912H46.7348C47.2419 65.3912 47.58 65.0532 47.58 64.5461C47.58 64.039 47.2419 63.7009 46.7348 63.7009H44.5374C44.0303 63.7009 43.6923 63.3629 43.6923 62.8558C43.6923 62.3487 44.0303 62.0106 44.5374 62.0106H46.7348C47.2419 62.0106 47.58 61.6726 47.58 61.1655C47.58 60.6584 47.2419 60.3203 46.7348 60.3203H44.5374C43.1007 60.3203 42.002 61.419 42.002 62.8558C42.002 63.9545 42.6781 64.8841 43.6923 65.2222Z" fill="white"/>
<path d="M93.5552 90.7444H92.7101V65.2208C93.7243 64.8828 94.4004 63.9531 94.4004 62.8544C94.4004 61.4177 93.3017 60.319 91.8649 60.319H90.9353C90.5972 58.7132 89.3295 57.3609 87.7237 57.0229C87.8082 55.4171 88.2308 53.7268 88.9914 52.29C89.1604 51.8674 88.9914 51.3603 88.6534 51.1913C88.2308 51.0223 87.7237 51.1913 87.5547 51.5294C86.7095 53.2197 86.2024 55.079 86.1179 57.0229C84.4276 57.3609 83.1599 58.6286 82.7373 60.319H68.8768C68.3697 60.319 68.0316 60.657 68.0316 61.1641C68.0316 61.6712 68.3697 62.0093 68.8768 62.0093H91.8649C92.372 62.0093 92.7101 62.3473 92.7101 62.8544C92.7101 63.3615 92.372 63.6996 91.8649 63.6996H88.4843C87.9772 63.6996 87.6392 64.0376 87.6392 64.5447C87.6392 65.0518 87.9772 65.3899 88.4843 65.3899H91.0198V70.4608H72.4264V65.3899H85.1037C85.6108 65.3899 85.9489 65.0518 85.9489 64.5447C85.9489 64.0376 85.6108 63.6996 85.1037 63.6996H68.4537C67.9466 63.6996 67.6086 64.0376 67.6086 64.5447C67.6086 65.0518 67.9466 65.3899 68.4537 65.3899H70.7357V78.0671C70.7357 78.5742 71.0737 78.9123 71.5808 78.9123C72.0879 78.9123 72.426 78.5742 72.426 78.0671V72.1511H80.8775V83.9832H72.426V81.4478C72.426 80.9407 72.0879 80.6026 71.5808 80.6026C71.0737 80.6026 70.7357 80.9407 70.7357 81.4478V90.7444H64.9886C63.1293 87.1948 58.5655 87.3638 58.5655 87.3638V83.9832H59.4106C59.9177 83.9832 60.2558 83.6451 60.2558 83.1381V80.6026H62.7912C64.228 80.6026 65.3267 79.5039 65.3267 78.0671C65.3267 76.6304 64.228 75.5317 62.7912 75.5317H60.2558V73.8414H62.3686C63.9744 73.8414 65.3267 72.6582 65.5802 71.0524C65.6647 70.6298 65.3267 70.2072 64.8196 70.1227C64.397 70.0382 63.9744 70.3763 63.8899 70.8834C63.8054 71.644 63.1293 72.2356 62.3686 72.2356H53.072C52.3113 72.2356 51.6352 71.644 51.5507 70.8834L50.452 58.5441C50.3675 58.1216 50.5365 57.699 50.7901 57.3609C51.0436 57.0229 51.4662 56.8538 51.8888 56.8538H63.5519C63.9744 56.8538 64.397 57.0229 64.6506 57.3609C64.9041 57.699 65.0731 58.1216 64.9886 58.5441L64.1435 67.8408C64.059 68.2634 64.4815 68.686 64.9041 68.7705C65.4112 68.855 65.7493 68.4324 65.8338 68.0098L66.6789 58.7132C66.7634 57.7835 66.5099 56.9383 65.9183 56.2622C65.3267 55.5861 64.4815 55.1635 63.5519 55.1635H51.9728C51.0431 55.1635 50.198 55.5861 49.6064 56.2622C49.0148 56.9383 48.6767 57.7835 48.7612 58.7132L49.9444 71.0524C50.1135 72.6582 51.4657 73.9259 53.0715 73.9259H55.1844V75.6162H52.6489C51.2122 75.6162 50.1135 76.7149 50.1135 78.1517C50.1135 79.5884 51.2122 80.6871 52.6489 80.6871H55.1844V83.2226C55.1844 83.7297 55.5224 84.0677 56.0295 84.0677H56.8747V87.4483C56.8747 87.4483 52.3954 87.1948 50.4515 90.8289H45.3806V88.2935C45.3806 87.7864 45.0425 87.4483 44.5355 87.4483C44.0284 87.4483 43.6903 87.7864 43.6903 88.2935V90.8289H42.8452C42.3381 90.8289 42 91.167 42 91.6741C42 92.1812 42.3381 92.5192 42.8452 92.5192H85.1028C85.6098 92.5192 85.9479 92.1812 85.9479 91.6741C85.9479 91.167 85.6098 90.8289 85.1028 90.8289H72.4255V85.758H91.0188V90.8289H88.4834C87.9763 90.8289 87.6382 91.167 87.6382 91.6741C87.6382 92.1812 87.9763 92.5192 88.4834 92.5192H93.5543C94.0614 92.5192 94.3994 92.1812 94.3994 91.6741C94.3994 91.167 94.0614 90.7444 93.5543 90.7444H93.5552ZM84.4276 60.319C84.7657 59.3048 85.6953 58.6286 86.794 58.6286C87.8927 58.6286 88.8224 59.3048 89.1604 60.319H84.4276ZM56.9597 90.7444H52.6494C54.0862 88.6315 56.9597 89.0541 56.9597 89.0541V90.7444ZM56.9597 73.8414H58.65V75.5317H56.9597V73.8414ZM52.7339 78.9123C52.2268 78.9123 51.8888 78.5742 51.8888 78.0671C51.8888 77.5601 52.2268 77.222 52.7339 77.222H62.8757C63.3828 77.222 63.7209 77.5601 63.7209 78.0671C63.7209 78.5742 63.3828 78.9123 62.8757 78.9123H52.7339ZM56.9597 80.6026H58.65V82.2929H56.9597V80.6026ZM58.65 90.7444V89.0541C58.65 89.0541 61.6925 88.8851 62.9603 90.7444H58.65ZM91.0188 83.9832H82.5673V72.1511H91.0188V83.9832Z" fill="white"/>
<path d="M47.3267 57.8692C47.6647 57.5312 47.6647 57.0241 47.3267 56.686C47.1576 56.517 47.0731 56.2634 47.0731 56.0099V53.5589H54.6795C55.1866 53.5589 55.5246 53.2209 55.5246 52.7138C55.5246 52.2067 55.1866 51.8686 54.6795 51.8686H47.0731V45.9526C47.0731 45.4455 46.7351 45.1074 46.228 45.1074C45.7209 45.1074 45.3828 45.4455 45.3828 45.9526V56.0094C45.3828 56.6855 45.6364 57.3616 46.1434 57.8687C46.3125 58.0378 46.9886 58.2913 47.3267 57.8687V57.8692Z" fill="white"/>
<path d="M46.228 43.4172C46.7351 43.4172 47.0731 43.0792 47.0731 42.5721C47.0731 42.065 47.4957 41.7269 47.9183 41.7269H68.2019C68.4555 41.7269 68.6245 41.8114 68.7935 41.9805C68.9626 42.1495 69.0471 42.4031 69.0471 42.5721V51.8688H61.4407C60.9336 51.8688 60.5955 52.2068 60.5955 52.7139C60.5955 53.221 60.9336 53.5591 61.4407 53.5591H69.0471V56.0945C69.0471 56.5171 68.7935 56.8552 68.4555 56.9397C68.0329 57.1087 67.7793 57.5313 67.9484 58.0384C68.2019 58.799 68.9626 58.63 69.0471 58.5455C70.1458 58.2074 70.8219 57.1932 70.8219 56.0945V42.6571C70.8219 41.981 70.5683 41.3048 70.0613 40.7977C69.4696 40.2907 68.878 40.0371 68.2019 40.0371H47.9183C46.566 40.0371 45.3828 41.2203 45.3828 42.5726C45.3828 43.0797 45.7209 43.4177 46.228 43.4177V43.4172Z" fill="white"/>
<path d="M66.512 46.7966C67.0191 46.7966 67.3572 46.4586 67.3572 45.9515V44.2612C67.3572 43.7541 67.0191 43.416 66.512 43.416H64.8217C64.3146 43.416 63.9766 43.7541 63.9766 44.2612C63.9766 44.7683 64.3146 45.1063 64.8217 45.1063H65.6669V45.9515C65.6669 46.4586 66.0049 46.7966 66.512 46.7966Z" fill="white"/>
<path d="M62.2849 44.2612C62.2849 43.7541 61.9468 43.416 61.4398 43.416H59.7494C59.2424 43.416 58.9043 43.7541 58.9043 44.2612C58.9043 44.7683 59.2424 45.1063 59.7494 45.1063H61.4398C61.9468 45.1063 62.2849 44.7683 62.2849 44.2612Z" fill="white"/>
<path d="M79.8626 50.2623C80.3697 50.6849 80.8768 50.4313 81.0458 50.2623C83.1587 48.1494 83.3277 44.9379 81.6374 42.5714C83.0742 41.5572 85.018 41.4727 86.6238 42.4024C88.9902 43.8392 89.8354 46.7972 88.6522 49.2481C88.4831 49.6707 88.6522 50.1778 89.0747 50.3468C89.5818 50.6004 90.0889 50.2623 90.1734 49.9243C91.7792 46.7127 90.596 42.7405 87.5535 40.8811C85.3561 39.5289 82.5671 39.7824 80.5387 41.3037C78.2568 39.5289 74.8762 39.6979 72.7633 41.8108C72.4253 42.1489 72.4253 42.6559 72.7633 42.994L79.8626 50.2623ZM79.8626 43.0785C81.2993 44.5153 81.4684 46.7972 80.3697 48.403L74.5381 42.5714C76.1439 41.4727 78.4258 41.6418 79.8626 43.0785Z" fill="white"/>
<path d="M75.0466 47.8119C74.5396 47.3048 74.286 46.6287 74.286 45.9526C74.286 45.4455 73.9479 45.1074 73.4409 45.1074C73.0183 45.1074 72.5957 45.4455 72.5957 45.9526C72.5957 47.1358 73.0183 48.2345 73.8634 49.0796C74.6241 49.8403 75.6383 50.2628 76.6524 50.3474C76.6524 50.3474 77.4131 50.4319 77.4976 49.5022C77.5821 49.0796 77.1595 48.6571 76.6524 48.6571C76.1453 48.5725 75.4692 48.319 75.0466 47.8119Z" fill="white"/>
<path d="M85.9501 78.0678C85.9501 78.5345 85.5716 78.913 85.1049 78.913C84.6382 78.913 84.2598 78.5345 84.2598 78.0678C84.2598 77.6011 84.6382 77.2227 85.1049 77.2227C85.5716 77.2227 85.9501 77.6011 85.9501 78.0678Z" fill="white"/>
<path d="M79.2704 78.0678C79.2704 78.5345 78.8919 78.913 78.4252 78.913C77.9585 78.913 77.5801 78.5345 77.5801 78.0678C77.5801 77.6011 77.9585 77.2227 78.4252 77.2227C78.8919 77.2227 79.2704 77.6011 79.2704 78.0678Z" fill="white"/>
<path d="M82.4852 67.9272C82.4852 68.3939 82.1068 68.7723 81.6401 68.7723C81.1734 68.7723 80.7949 68.3939 80.7949 67.9272C80.7949 67.4605 81.1734 67.082 81.6401 67.082C82.1068 67.082 82.4852 67.4605 82.4852 67.9272Z" fill="white"/>
<path d="M58.9012 52.7123C58.9012 53.1791 58.5228 53.5575 58.0561 53.5575C57.5894 53.5575 57.2109 53.1791 57.2109 52.7123C57.2109 52.2456 57.5894 51.8672 58.0561 51.8672C58.5228 51.8672 58.9012 52.2456 58.9012 52.7123Z" fill="white"/>
</svg>
