<svg width="64" height="64" viewBox="0 0 64 64" fill="none" xmlns="http://www.w3.org/2000/svg">
<path fill-rule="evenodd" clip-rule="evenodd" d="M38.8974 6.63361C44.2301 5.19717 49.7063 8.35883 51.1288 13.6954L57.4362 37.3589C58.8586 42.6954 55.6887 48.186 50.3559 49.6224L26.9038 55.9395C21.571 57.3759 16.0948 54.2143 14.6724 48.8777L8.36497 25.2142C6.94254 19.8776 10.1125 14.3871 15.4453 12.9506L38.8974 6.63361Z" fill="#B7DBD7"/>
<path fill-rule="evenodd" clip-rule="evenodd" d="M25.0569 7.70021C28.9519 3.78473 35.2669 3.78472 39.1619 7.7002L56.3621 24.991C60.2571 28.9065 60.2571 35.2547 56.3622 39.1702L39.1619 56.461C35.2669 60.3765 28.9519 60.3765 25.0569 56.461L7.8566 39.1702C3.96162 35.2547 3.96161 28.9065 7.85659 24.991L25.0569 7.70021Z" fill="#3E9F93"/>
<path d="M20.7579 31.2955V40.0763C20.7579 40.3034 20.9093 40.4548 21.1364 40.4548C21.3635 40.4548 21.5149 40.3034 21.5149 40.0763V31.3712H22.1205C22.3476 31.3712 22.499 31.2198 22.499 30.9927C22.499 30.7657 22.3476 30.6143 22.1205 30.6143H21.1364C20.9093 30.6143 20.7579 30.4629 20.7579 30.2358C20.7579 30.0087 20.9093 29.8573 21.1364 29.8573H22.1205C22.3476 29.8573 22.499 29.7059 22.499 29.4788C22.499 29.2517 22.3476 29.1003 22.1205 29.1003H21.1364C20.493 29.1003 20.001 29.5924 20.001 30.2358C20.001 30.7278 20.3038 31.1441 20.7579 31.2955Z" fill="white"/>
<path d="M43.0878 42.7251H42.7093V31.2949C43.1635 31.1435 43.4663 30.7272 43.4663 30.2352C43.4663 29.5917 42.9743 29.0997 42.3308 29.0997H41.9145C41.7631 28.3806 41.1954 27.775 40.4763 27.6236C40.5141 26.9045 40.7034 26.1476 41.044 25.5041C41.1197 25.3149 41.044 25.0878 40.8926 25.0121C40.7034 24.9364 40.4763 25.0121 40.4006 25.1635C40.0221 25.9205 39.795 26.7531 39.7572 27.6236C39.0002 27.775 38.4325 28.3428 38.2432 29.0997H32.0361C31.8091 29.0997 31.6577 29.2511 31.6577 29.4782C31.6577 29.7053 31.8091 29.8567 32.0361 29.8567H42.3308C42.5579 29.8567 42.7093 30.0081 42.7093 30.2352C42.7093 30.4623 42.5579 30.6136 42.3308 30.6136H40.8169C40.5898 30.6136 40.4384 30.765 40.4384 30.9921C40.4384 31.2192 40.5898 31.3706 40.8169 31.3706H41.9524V33.6415H33.6258V31.3706H39.303C39.5301 31.3706 39.6815 31.2192 39.6815 30.9921C39.6815 30.765 39.5301 30.6136 39.303 30.6136H31.8467C31.6196 30.6136 31.4682 30.765 31.4682 30.9921C31.4682 31.2192 31.6196 31.3706 31.8467 31.3706H32.8686V37.0478C32.8686 37.2749 33.02 37.4263 33.2471 37.4263C33.4742 37.4263 33.6256 37.2749 33.6256 37.0478V34.3985H37.4104V39.6972H33.6256V38.5618C33.6256 38.3347 33.4742 38.1833 33.2471 38.1833C33.02 38.1833 32.8686 38.3347 32.8686 38.5618V42.7251H30.2949C29.4623 41.1354 27.4185 41.2111 27.4185 41.2111V39.6972H27.7969C28.024 39.6972 28.1754 39.5458 28.1754 39.3187V38.1833H29.3109C29.9543 38.1833 30.4463 37.6913 30.4463 37.0478C30.4463 36.4044 29.9543 35.9124 29.3109 35.9124H28.1754V35.1554H29.1216C29.8407 35.1554 30.4463 34.6256 30.5599 33.9064C30.5977 33.7172 30.4463 33.528 30.2192 33.4901C30.03 33.4523 29.8407 33.6037 29.8029 33.8307C29.765 34.1714 29.4623 34.4363 29.1216 34.4363H24.9583C24.6177 34.4363 24.3149 34.1714 24.2771 33.8307L23.785 28.3049C23.7472 28.1157 23.8229 27.9264 23.9364 27.775C24.05 27.6236 24.2392 27.5479 24.4285 27.5479H29.6515C29.8407 27.5479 30.03 27.6236 30.1435 27.775C30.2571 27.9264 30.3328 28.1157 30.2949 28.3049L29.9164 32.4682C29.8786 32.6574 30.0678 32.8467 30.2571 32.8845C30.4842 32.9224 30.6355 32.7331 30.6734 32.5439L31.0519 28.3806C31.0897 27.9643 30.9762 27.5858 30.7112 27.283C30.4463 26.9802 30.0678 26.791 29.6515 26.791H24.4661C24.0498 26.791 23.6713 26.9802 23.4063 27.283C23.1414 27.5858 22.99 27.9643 23.0279 28.3806L23.5577 33.9064C23.6334 34.6256 24.239 35.1933 24.9581 35.1933H25.9043V35.9502H24.7689C24.1254 35.9502 23.6334 36.4423 23.6334 37.0857C23.6334 37.7291 24.1254 38.2211 24.7689 38.2211H25.9043V39.3566C25.9043 39.5837 26.0557 39.7351 26.2828 39.7351H26.6613V41.249C26.6613 41.249 24.6553 41.1354 23.7848 42.7629H21.5139V41.6275C21.5139 41.4004 21.3625 41.249 21.1354 41.249C20.9084 41.249 20.757 41.4004 20.757 41.6275V42.7629H20.3785C20.1514 42.7629 20 42.9143 20 43.1414C20 43.3685 20.1514 43.5199 20.3785 43.5199H39.3026C39.5296 43.5199 39.681 43.3685 39.681 43.1414C39.681 42.9143 39.5296 42.7629 39.3026 42.7629H33.6253V40.492H41.9519V42.7629H40.8165C40.5894 42.7629 40.438 42.9143 40.438 43.1414C40.438 43.3685 40.5894 43.5199 40.8165 43.5199H43.0874C43.3145 43.5199 43.4659 43.3685 43.4659 43.1414C43.4659 42.9143 43.3145 42.7251 43.0874 42.7251H43.0878ZM39.0002 29.0997C39.1516 28.6455 39.5679 28.3428 40.06 28.3428C40.552 28.3428 40.9683 28.6455 41.1197 29.0997H39.0002ZM26.6993 42.7251H24.7691C25.4125 41.7789 26.6993 41.9681 26.6993 41.9681V42.7251ZM26.6993 35.1554H27.4563V35.9124H26.6993V35.1554ZM24.8069 37.4263C24.5798 37.4263 24.4285 37.2749 24.4285 37.0478C24.4285 36.8207 24.5798 36.6694 24.8069 36.6694H29.3487C29.5758 36.6694 29.7272 36.8207 29.7272 37.0478C29.7272 37.2749 29.5758 37.4263 29.3487 37.4263H24.8069ZM26.6993 38.1833H27.4563V38.9402H26.6993V38.1833ZM27.4563 42.7251V41.9681C27.4563 41.9681 28.8188 41.8924 29.3866 42.7251H27.4563ZM41.9519 39.6972H38.1671V34.3985H41.9519V39.6972Z" fill="white"/>
<path d="M22.3854 28.0019C22.5368 27.8505 22.5368 27.6235 22.3854 27.4721C22.3097 27.3964 22.2719 27.2828 22.2719 27.1693V26.0717H25.6782C25.9053 26.0717 26.0567 25.9203 26.0567 25.6932C26.0567 25.4661 25.9053 25.3147 25.6782 25.3147H22.2719V22.6653C22.2719 22.4383 22.1205 22.2869 21.8934 22.2869C21.6663 22.2869 21.5149 22.4383 21.5149 22.6653V27.1691C21.5149 27.4718 21.6284 27.7746 21.8555 28.0017C21.9312 28.0774 22.234 28.191 22.3854 28.0017V28.0019Z" fill="white"/>
<path d="M21.8934 21.5301C22.1205 21.5301 22.2719 21.3787 22.2719 21.1516C22.2719 20.9245 22.4611 20.7731 22.6503 20.7731H31.7339C31.8474 20.7731 31.9231 20.811 31.9988 20.8866C32.0745 20.9623 32.1124 21.0759 32.1124 21.1516V25.3149H28.706C28.479 25.3149 28.3276 25.4663 28.3276 25.6934C28.3276 25.9205 28.479 26.0718 28.706 26.0718H32.1124V27.2073C32.1124 27.3965 31.9988 27.5479 31.8474 27.5858C31.6582 27.6615 31.5447 27.8507 31.6203 28.0778C31.7339 28.4184 32.0745 28.3427 32.1124 28.3049C32.6044 28.1535 32.9072 27.6993 32.9072 27.2073V21.1897C32.9072 20.8869 32.7936 20.5841 32.5666 20.357C32.3016 20.1299 32.0367 20.0164 31.7339 20.0164H22.6503C22.0448 20.0164 21.5149 20.5462 21.5149 21.1518C21.5149 21.3789 21.6663 21.5303 21.8934 21.5303V21.5301Z" fill="white"/>
<path d="M30.9772 23.044C31.2043 23.044 31.3557 22.8926 31.3557 22.6655V21.9085C31.3557 21.6814 31.2043 21.53 30.9772 21.53H30.2203C29.9932 21.53 29.8418 21.6814 29.8418 21.9085C29.8418 22.1356 29.9932 22.287 30.2203 22.287H30.5988V22.6655C30.5988 22.8926 30.7502 23.044 30.9772 23.044Z" fill="white"/>
<path d="M29.084 21.9085C29.084 21.6814 28.9326 21.53 28.7055 21.53H27.9485C27.7215 21.53 27.5701 21.6814 27.5701 21.9085C27.5701 22.1356 27.7215 22.287 27.9485 22.287H28.7055C28.9326 22.287 29.084 22.1356 29.084 21.9085Z" fill="white"/>
<path d="M36.9559 24.5957C37.183 24.785 37.4101 24.6714 37.4857 24.5957C38.432 23.6495 38.5076 22.2113 37.7507 21.1516C38.3941 20.6974 39.2646 20.6595 39.9837 21.0759C41.0435 21.7193 41.422 23.044 40.8921 24.1416C40.8164 24.3308 40.8921 24.5579 41.0813 24.6336C41.3084 24.7471 41.5355 24.5957 41.5733 24.4443C42.2925 23.0061 41.7626 21.2273 40.4001 20.3946C39.416 19.789 38.167 19.9026 37.2587 20.5838C36.2368 19.789 34.7228 19.8647 33.7766 20.8109C33.6252 20.9623 33.6252 21.1894 33.7766 21.3408L36.9559 24.5957ZM36.9559 21.3786C37.5993 22.0221 37.675 23.044 37.183 23.7631L34.5714 21.1516C35.2906 20.6595 36.3125 20.7352 36.9559 21.3786Z" fill="white"/>
<path d="M34.799 23.498C34.5719 23.2709 34.4584 22.9681 34.4584 22.6653C34.4584 22.4383 34.307 22.2869 34.0799 22.2869C33.8907 22.2869 33.7014 22.4383 33.7014 22.6653C33.7014 23.1952 33.8907 23.6872 34.2691 24.0657C34.6098 24.4064 35.0639 24.5956 35.5181 24.6335C35.5181 24.6335 35.8588 24.6713 35.8966 24.255C35.9345 24.0657 35.7452 23.8765 35.5181 23.8765C35.291 23.8386 34.9883 23.7251 34.799 23.498Z" fill="white"/>
<path d="M39.682 37.0479C39.682 37.2569 39.5125 37.4264 39.3035 37.4264C39.0945 37.4264 38.925 37.2569 38.925 37.0479C38.925 36.8389 39.0945 36.6694 39.3035 36.6694C39.5125 36.6694 39.682 36.8389 39.682 37.0479Z" fill="white"/>
<path d="M36.6908 37.0479C36.6908 37.2569 36.5213 37.4264 36.3123 37.4264C36.1033 37.4264 35.9338 37.2569 35.9338 37.0479C35.9338 36.8389 36.1033 36.6694 36.3123 36.6694C36.5213 36.6694 36.6908 36.8389 36.6908 37.0479Z" fill="white"/>
<path d="M38.1307 32.5064C38.1307 32.7154 37.9613 32.8849 37.7523 32.8849C37.5433 32.8849 37.3738 32.7154 37.3738 32.5064C37.3738 32.2974 37.5433 32.1279 37.7523 32.1279C37.9613 32.1279 38.1307 32.2974 38.1307 32.5064Z" fill="white"/>
<path d="M27.569 25.6929C27.569 25.9019 27.3995 26.0714 27.1905 26.0714C26.9815 26.0714 26.812 25.9019 26.812 25.6929C26.812 25.4839 26.9815 25.3145 27.1905 25.3145C27.3995 25.3145 27.569 25.4839 27.569 25.6929Z" fill="white"/>
</svg>
