<svg width="96" height="96" viewBox="0 0 96 96" fill="none" xmlns="http://www.w3.org/2000/svg">
<circle cx="47.9389" cy="47.7221" r="47.3862" fill="#E7F3F2"/>
<path d="M47.7599 83.5199C28.0413 83.5199 12 67.4771 12 47.7599C12 28.0427 28.0427 12 47.7599 12C67.4771 12 83.5185 28.0427 83.5185 47.7599C83.5185 67.4771 67.4771 83.5199 47.7599 83.5199ZM47.7599 13.5961C28.9226 13.5961 13.5961 28.9226 13.5961 47.7599C13.5961 66.5973 28.9226 81.9238 47.7599 81.9238C66.5973 81.9238 81.9224 66.5973 81.9224 47.7599C81.9224 28.9226 66.5973 13.5961 47.7599 13.5961ZM47.7599 80.3291C29.7996 80.3291 15.1908 65.7189 15.1908 47.7599C15.1908 29.801 29.801 15.1908 47.7599 15.1908C65.7189 15.1908 80.3277 29.801 80.3277 47.7599C80.3277 65.7189 65.7189 80.3291 47.7599 80.3291ZM47.7599 16.7868C30.6809 16.7868 16.7868 30.6816 16.7868 47.7599C16.7868 64.8383 30.6816 78.733 47.7599 78.733C64.8383 78.733 78.7316 64.8383 78.7316 47.7599C78.7316 30.6816 64.838 16.7868 47.7599 16.7868Z" fill="#0E8778"/>
<path d="M47.7598 64.6001C45.7554 64.6001 44.125 62.9697 44.125 60.9653C44.125 58.9608 45.7554 57.3304 47.7598 57.3304C49.7643 57.3304 51.3947 58.9608 51.3947 60.9653C51.3947 62.9697 49.7649 64.6001 47.7598 64.6001ZM47.7598 58.9261C46.6351 58.9261 45.7207 59.8405 45.7207 60.9653C45.7207 62.09 46.6351 63.005 47.7598 63.005C48.8851 63.005 49.799 62.0894 49.799 60.9653C49.799 59.8411 48.8862 58.9261 47.7598 58.9261ZM47.7598 56.7736C45.9965 56.7736 44.615 55.3927 44.615 53.6288V34.0638C44.615 32.2999 45.9965 30.9189 47.7598 30.9189C49.5237 30.9189 50.9058 32.2999 50.9058 34.0638V53.6303C50.9058 55.3936 49.5237 56.7739 47.7598 56.7739V56.7736ZM47.7598 32.5136C46.8768 32.5136 46.2095 33.1797 46.2095 34.0639V53.6304C46.2095 54.5146 46.8762 55.1807 47.7598 55.1807C48.6429 55.1807 49.3101 54.5146 49.3101 53.6304V34.0653C49.3107 33.1811 48.6429 32.5145 47.7598 32.5145V32.5136Z" fill="#0E8778"/>
</svg>
