<svg width="136" height="136" viewBox="0 0 136 136" fill="none" xmlns="http://www.w3.org/2000/svg">
<path fill-rule="evenodd" clip-rule="evenodd" d="M93.7001 10.596C99.0348 9.16659 104.518 12.3324 105.948 17.6671L125.411 90.3047C126.84 95.6393 123.674 101.123 118.34 102.552L45.7021 122.015C40.3674 123.445 34.884 120.279 33.4546 114.944L13.9914 42.3067C12.562 36.972 15.7278 31.4886 21.0625 30.0592L93.7001 10.596Z" fill="#C5ECDC"/>
<path fill-rule="evenodd" clip-rule="evenodd" d="M60.9289 7.75857C64.8342 3.85333 71.1658 3.85333 75.0711 7.75857L128.245 60.933C132.151 64.8382 132.151 71.1699 128.245 75.0751L75.0711 128.25C71.1658 132.155 64.8342 132.155 60.9289 128.25L7.75451 75.0751C3.84927 71.1699 3.84926 64.8382 7.75451 60.933L60.9289 7.75857Z" fill="#3E9F93"/>
<path d="M95.2356 69.0401C95.2356 67.8685 94.7337 66.6969 93.8965 65.8597C93.2269 65.1902 92.474 64.772 91.5534 64.6043V58.8299C93.6455 58.4113 95.1518 56.654 95.1518 54.478C95.1518 52.0511 93.1431 50.0424 90.7162 50.0424L69.6268 50.0428C67.4509 44.1846 61.8437 40 55.3155 40C46.8627 40 40 46.8626 40 55.3155C40 61.3413 43.5151 66.5303 48.6199 69.0407V71.97C46.5277 72.3886 45.0214 74.146 45.0214 76.3219C45.0214 78.4979 46.6116 80.339 48.6199 80.6738V86.4482C47.7831 86.6154 46.9459 87.034 46.2767 87.7036C45.4399 88.5404 44.9376 89.7124 44.9376 90.884C44.9376 93.3108 46.9463 95.3196 49.3732 95.3196L94.3985 95.3191C94.9005 95.3191 95.2352 94.9844 95.2352 94.4824C95.2352 93.9804 94.9005 93.6456 94.3985 93.6456H91.553C91.553 93.5618 91.6368 93.4784 91.6368 93.3946V87.955C93.729 87.5364 95.2353 85.779 95.2353 83.6031C95.2353 82.4315 94.7333 81.2599 93.8962 80.4228C93.2266 79.7532 92.4737 79.335 91.553 79.1673V73.3929C93.6451 72.9739 95.2353 71.2161 95.2353 69.0403L95.2356 69.0401ZM92.7249 67.0318C93.2269 67.5337 93.5617 68.2872 93.5617 69.0405C93.5617 70.2959 92.7249 71.3003 91.6368 71.7184V66.446C92.0554 66.5298 92.3901 66.697 92.7249 67.0318ZM50.2941 87.9541H55.4827V93.3104C55.4827 93.3942 55.4827 93.4776 55.5665 93.5614H50.2941L50.2941 87.9541ZM62.345 68.789V71.8017H57.1564V70.3792C58.9974 70.212 60.7548 69.6262 62.345 68.789ZM89.9624 57.3231H84.7738V51.7159H89.9624V57.3231ZM64.0193 80.7559H69.2918V86.3631H64.1031L64.1027 80.7559H64.0193ZM62.3453 86.2793H57.1567V80.6721H62.3453V86.2793ZM64.0193 79.0819V73.4747H69.2918V79.0819H64.0193ZM70.9653 80.7559H76.1539V86.3631L70.9653 86.3627V80.7559ZM70.9653 79.0819V73.4747H76.1539V79.0819H70.9653ZM76.1539 66.2768V71.8001H70.9653V66.1929L76.1539 66.1934V66.2768ZM70.9653 64.6032V58.996H76.1539V64.6032H70.9653ZM77.8279 73.4741H83.0165V79.0813H77.8279V73.4741ZM77.8279 71.8001V66.1929H83.0165V71.8001H77.8279ZM77.8279 64.6032V58.996H83.0165V64.6032H77.8279ZM84.6905 58.996H89.8791V64.6032H84.6905V58.996ZM83.0165 57.322H77.8279V51.7148H83.0165V57.322ZM76.1539 57.322H70.9653V51.7148H76.1539V57.322ZM69.2918 61.4229V64.6032H67.3668C68.1198 63.5989 68.7893 62.5107 69.2918 61.4229ZM65.8605 66.2768H69.208V71.8001H64.0194V67.7831C64.6886 67.2811 65.2748 66.7792 65.8605 66.2768ZM62.3454 73.4741V79.0813H57.1568V73.4741H62.3454ZM55.4828 79.0813H50.2942V73.4741H55.4828V79.0813ZM55.4828 80.7553V86.3625H50.2942V80.7553H55.4828ZM57.1568 93.3083V87.952H62.3454V93.3083C62.3454 93.3921 62.3454 93.4755 62.4292 93.5593H57.073C57.1568 93.4755 57.1568 93.3921 57.1568 93.3083ZM64.0194 93.3083V87.952H69.2919V93.3083C69.2919 93.3921 69.2919 93.4755 69.3757 93.5593H64.0194L64.0194 93.3083ZM70.9654 93.3083V87.952H76.154V93.3083C76.154 93.3921 76.154 93.4755 76.2378 93.5593H70.9654C70.8816 93.4755 70.9654 93.3921 70.9654 93.3083ZM77.828 93.3083V87.952H83.0166V93.3083C83.0166 93.3921 83.0166 93.4755 83.1004 93.5593H77.828L77.828 93.3083ZM77.828 86.2786V80.6714H83.0166V86.2786H77.828ZM84.6906 80.7552H89.8793V86.3624H84.6906V80.7552ZM84.6906 79.0812V73.474H89.8793V79.0812H84.6906ZM84.6906 71.8V66.1928H89.8793V71.8H84.6906ZM93.5615 54.5603C93.5615 55.8157 92.7248 56.8201 91.6366 57.2382V51.9658C92.7248 52.2172 93.5615 53.3049 93.5615 54.5603ZM41.6742 55.3137C41.6742 47.7816 47.7834 41.6725 55.3154 41.6725C61.4246 41.6725 66.5302 45.6895 68.2875 51.213C68.7061 52.4684 68.8733 53.891 68.8733 55.2301C68.8733 62.7622 62.7641 68.8713 55.2321 68.8713C47.7001 68.8713 41.675 62.7621 41.675 55.3141L41.6742 55.3137ZM55.3154 70.5451H55.4826V71.8001H50.2939V69.708C51.8003 70.2104 53.4743 70.5451 55.3154 70.5451ZM46.6117 76.2357C46.6117 74.9803 47.4484 73.9759 48.5366 73.5578V78.8302C47.4484 78.5793 46.6117 77.4911 46.6117 76.2357ZM46.6117 90.7981C46.6117 90.0447 46.9465 89.3756 47.4484 88.7894C47.7832 88.4546 48.118 88.2874 48.5362 88.1198V93.3922C47.4484 93.0579 46.6117 92.0535 46.6117 90.7981ZM84.6897 93.5598C84.6897 93.476 84.7736 93.3927 84.7736 93.3089V87.9526H89.9622V93.3089C89.9622 93.3927 89.9622 93.476 90.046 93.5598H84.6897ZM92.7238 81.593C93.2258 82.095 93.5606 82.8484 93.5606 83.6017C93.5606 84.8571 92.7238 85.8615 91.6357 86.2796V81.0072C92.0543 81.0072 92.389 81.2582 92.7238 81.593Z" fill="white"/>
<path d="M56.1524 65.1871V62.7602L57.4916 64.0993C57.8263 64.4341 58.3283 64.4341 58.6631 64.0993C58.998 63.7645 58.9979 63.2625 58.6631 62.9277L56.1524 60.417V56.7343L59.3328 58.5754L60.2533 62.0066C60.3371 62.3414 60.6719 62.5924 61.0901 62.5924H61.3411C61.7597 62.5086 62.0945 62.0066 61.9268 61.588L61.4249 59.8307L63.6008 61.0861C63.768 61.1699 63.8518 61.1699 64.0194 61.1699C64.2704 61.1699 64.6052 61.0027 64.7728 60.7513C65.0238 60.3327 64.8566 59.8307 64.438 59.5797L62.3459 58.3243L64.1033 57.8223C64.5219 57.7385 64.7729 57.2365 64.6891 56.8179C64.6053 56.3993 64.1033 56.0645 63.6847 56.2322L60.2534 57.1527L57.0731 55.3116L60.1696 53.5543L63.6009 54.4748H63.8518C64.1866 54.4748 64.5214 54.2238 64.6886 53.889C64.7724 53.4704 64.5214 52.9685 64.1028 52.8847L62.3454 52.3827L64.5214 51.1273C64.94 50.8763 65.0234 50.3739 64.8562 49.9557C64.6052 49.5371 64.1028 49.4537 63.6846 49.6209L61.2577 50.8759L61.7597 49.1185C61.8435 48.6999 61.5925 48.1979 61.1739 48.1141C60.7553 48.0303 60.2534 48.2813 60.1696 48.6999L59.249 52.0475L56.1525 53.8885V50.2063L58.6632 47.6955C58.998 47.3608 58.998 46.8588 58.6632 46.524C58.3284 46.1891 57.8264 46.1892 57.4916 46.524L56.1525 47.8631V45.3524C56.1525 44.8504 55.8177 44.5156 55.3157 44.5156C54.8138 44.5156 54.479 44.8504 54.479 45.3524V47.7793L53.1398 46.4401C52.8051 46.1054 52.3031 46.1054 51.9683 46.4401C51.6335 46.7749 51.6335 47.2769 51.9683 47.6117L54.479 50.1224V53.8047L51.3825 52.0473L50.4619 48.6161C50.3781 48.1975 49.8761 47.8627 49.4575 48.0303C49.0389 48.1141 48.7041 48.6161 48.8718 49.0347L49.3737 50.7921L47.1978 49.5367C46.7792 49.2857 46.2772 49.4528 46.0262 49.8714C45.7752 50.29 45.8586 50.8758 46.2772 51.1268L48.3693 52.3823L46.6119 52.8842C46.1933 52.968 45.9423 53.47 46.0261 53.8886C46.11 54.2234 46.4448 54.4744 46.8629 54.4744H47.1139L50.5451 53.5538L53.6416 55.3949L50.4613 57.236L47.0301 56.3154C46.6115 56.2316 46.1095 56.4826 46.0257 56.9012C45.9419 57.3198 46.1929 57.8218 46.6115 57.9056L48.3688 58.4075L46.1929 59.663C45.7743 59.9139 45.6909 60.4163 45.8581 60.8345C46.0253 61.0855 46.2767 61.2531 46.6115 61.2531C46.7787 61.2531 46.8625 61.2531 47.0301 61.1693L49.1222 59.9139L48.6202 61.6713C48.5364 62.0899 48.7874 62.5919 49.206 62.6757H49.457C49.7918 62.6757 50.1266 62.4247 50.2938 62.0899L51.2143 58.6586L54.3947 56.8176V60.416L51.884 62.9267C51.5492 63.2615 51.5492 63.7635 51.884 64.0983C52.0511 64.2655 52.3026 64.3493 52.4697 64.3493C52.6369 64.3493 52.8883 64.2655 53.0555 64.0983L54.3946 62.7592V65.2699C54.3946 65.7719 54.7294 66.1066 55.2314 66.1066C55.7338 66.1075 56.1524 65.6889 56.1524 65.1869L56.1524 65.1871Z" fill="white"/>
</svg>
