<svg width="64" height="64" viewBox="0 0 64 64" fill="none" xmlns="http://www.w3.org/2000/svg">
<path fill-rule="evenodd" clip-rule="evenodd" d="M38.8974 6.63214C44.2301 5.19571 49.7063 8.35736 51.1288 13.6939L57.4362 37.3574C58.8586 42.694 55.6887 48.1845 50.3559 49.621L26.9038 55.938C21.571 57.3744 16.0948 54.2128 14.6724 48.8763L8.36497 25.2127C6.94254 19.8762 10.1125 14.3856 15.4453 12.9492L38.8974 6.63214Z" fill="#B7DBD7"/>
<path fill-rule="evenodd" clip-rule="evenodd" d="M25.0569 7.69898C28.9519 3.78351 35.2669 3.7835 39.1619 7.69897L56.3621 24.9898C60.2571 28.9052 60.2571 35.2535 56.3622 39.169L39.1619 56.4598C35.2669 60.3753 28.9519 60.3753 25.0569 56.4598L7.8566 39.169C3.96162 35.2535 3.96161 28.9053 7.85659 24.9898L25.0569 7.69898Z" fill="#3E9F93"/>
<path d="M44.2827 31.7666C44.2827 31.2515 44.062 30.7365 43.694 30.3685C43.3996 30.0741 43.0686 29.8903 42.6639 29.8166V27.278C43.5836 27.094 44.2458 26.3214 44.2458 25.3648C44.2458 24.2979 43.3627 23.4148 42.2958 23.4148L33.0245 23.415C32.068 20.8396 29.6029 19 26.733 19C23.017 19 20 22.0169 20 25.733C20 28.382 21.5453 30.6633 23.7895 31.7669V33.0546C22.8697 33.2387 22.2075 34.0112 22.2075 34.9678C22.2075 35.9244 22.9066 36.7338 23.7895 36.881V39.4196C23.4216 39.4931 23.0535 39.6771 22.7594 39.9715C22.3915 40.3393 22.1707 40.8545 22.1707 41.3696C22.1707 42.4365 23.0537 43.3196 24.1206 43.3196L43.9146 43.3194C44.1353 43.3194 44.2825 43.1722 44.2825 42.9515C44.2825 42.7309 44.1353 42.5837 43.9146 42.5837H42.6637C42.6637 42.5468 42.7006 42.5102 42.7006 42.4733V40.082C43.6203 39.8979 44.2825 39.1254 44.2825 38.1688C44.2825 37.6537 44.0618 37.1387 43.6938 36.7706C43.3995 36.4763 43.0685 36.2924 42.6637 36.2187V33.6802C43.5835 33.496 44.2825 32.7232 44.2825 31.7667L44.2827 31.7666ZM43.1789 30.8837C43.3996 31.1044 43.5468 31.4356 43.5468 31.7668C43.5468 32.3187 43.1789 32.7602 42.7005 32.944V30.6262C42.8846 30.663 43.0317 30.7365 43.1789 30.8837ZM24.5255 40.0816H26.8065V42.4363C26.8065 42.4732 26.8065 42.5098 26.8433 42.5466H24.5255L24.5255 40.0816ZM29.8233 31.6562V32.9807H27.5423V32.3553C28.3517 32.2818 29.1242 32.0243 29.8233 31.6562ZM41.9645 26.6156H39.6834V24.1506H41.9645V26.6156ZM30.5594 36.9171H32.8772V39.3821H30.5962L30.596 36.9171H30.5594ZM29.8234 39.3453H27.5424V36.8802H29.8234V39.3453ZM30.5594 36.1812V33.7161H32.8772V36.1812H30.5594ZM33.613 36.9171H35.894V39.3821L33.613 39.3819V36.9171ZM33.613 36.1812V33.7161H35.894V36.1812H33.613ZM35.894 30.5518V32.98H33.613V30.5149L35.894 30.5151V30.5518ZM33.613 29.8161V27.351H35.894V29.8161H33.613ZM36.6299 33.7159H38.9109V36.1809H36.6299V33.7159ZM36.6299 32.98V30.5149H38.9109V32.98H36.6299ZM36.6299 29.8161V27.351H38.9109V29.8161H36.6299ZM39.6468 27.351H41.9279V29.8161H39.6468V27.351ZM38.9109 26.6151H36.6299V24.1501H38.9109V26.6151ZM35.894 26.6151H33.613V24.1501H35.894V26.6151ZM32.8772 28.4179V29.8161H32.031C32.362 29.3745 32.6564 28.8961 32.8772 28.4179ZM31.3688 30.5518H32.8404V32.98H30.5594V31.214C30.8536 30.9933 31.1113 30.7727 31.3688 30.5518ZM29.8235 33.7159V36.1809H27.5425V33.7159H29.8235ZM26.8066 36.1809H24.5255V33.7159H26.8066V36.1809ZM26.8066 36.9168V39.3819H24.5255V36.9168H26.8066ZM27.5425 42.4354V40.0807H29.8235V42.4354C29.8235 42.4722 29.8235 42.5089 29.8603 42.5457H27.5056C27.5425 42.5089 27.5425 42.4722 27.5425 42.4354ZM30.5594 42.4354V40.0807H32.8773V42.4354C32.8773 42.4722 32.8773 42.5089 32.9141 42.5457H30.5594L30.5594 42.4354ZM33.613 42.4354V40.0807H35.894V42.4354C35.894 42.4722 35.894 42.5089 35.9309 42.5457H33.613C33.5762 42.5089 33.613 42.4722 33.613 42.4354ZM36.6299 42.4354V40.0807H38.911V42.4354C38.911 42.4722 38.911 42.5089 38.9478 42.5457H36.6299L36.6299 42.4354ZM36.6299 39.345V36.8799H38.911V39.345H36.6299ZM39.6469 36.9168H41.9279V39.3818H39.6469V36.9168ZM39.6469 36.1809V33.7158H41.9279V36.1809H39.6469ZM39.6469 32.9799V30.5149H41.9279V32.9799H39.6469ZM43.5467 25.401C43.5467 25.9529 43.1789 26.3944 42.7005 26.5783V24.2604C43.1789 24.3709 43.5467 24.8491 43.5467 25.401ZM20.736 25.7322C20.736 22.4209 23.4217 19.7353 26.7329 19.7353C29.4187 19.7353 31.6632 21.5012 32.4357 23.9295C32.6198 24.4814 32.6933 25.1067 32.6933 25.6954C32.6933 29.0067 30.0076 31.6924 26.6963 31.6924C23.3851 31.6924 20.7364 29.0067 20.7364 25.7324L20.736 25.7322ZM26.7329 32.4282H26.8064V32.9799H24.5254V32.0602C25.1876 32.2811 25.9236 32.4282 26.7329 32.4282ZM22.9066 34.9299C22.9066 34.378 23.2745 33.9365 23.7529 33.7527V36.0705C23.2745 35.9602 22.9066 35.4818 22.9066 34.9299ZM22.9066 41.3318C22.9066 41.0006 23.0538 40.7065 23.2745 40.4488C23.4217 40.3016 23.5688 40.2281 23.7527 40.1544V42.4723C23.2745 42.3253 22.9066 41.8838 22.9066 41.3318ZM39.6465 42.546C39.6465 42.5091 39.6833 42.4725 39.6833 42.4356V40.0809H41.9644V42.4356C41.9644 42.4725 41.9644 42.5091 42.0012 42.546H39.6465ZM43.1784 37.2851C43.3991 37.5058 43.5463 37.837 43.5463 38.1682C43.5463 38.7201 43.1784 39.1616 42.7001 39.3454V37.0276C42.8841 37.0276 43.0313 37.1379 43.1784 37.2851Z" fill="white"/>
<path d="M27.1011 30.0719V29.005L27.6898 29.5937C27.837 29.7409 28.0577 29.7409 28.2049 29.5937C28.3521 29.4466 28.3521 29.2259 28.2049 29.0787L27.1011 27.9749V26.3559L28.4993 27.1653L28.904 28.6738C28.9408 28.8209 29.088 28.9313 29.2718 28.9313H29.3822C29.5662 28.8944 29.7134 28.6738 29.6397 28.4897L29.419 27.7172L30.3756 28.2691C30.4491 28.3059 30.4859 28.3059 30.5596 28.3059C30.67 28.3059 30.8171 28.2324 30.8908 28.1219C31.0012 27.9379 30.9277 27.7172 30.7436 27.6068L29.8239 27.0549L30.5965 26.8343C30.7805 26.7974 30.8908 26.5767 30.854 26.3927C30.8172 26.2087 30.5965 26.0615 30.4125 26.1352L28.904 26.5399L27.5059 25.7305L28.8672 24.9579L30.3756 25.3626H30.4859C30.6331 25.3626 30.7803 25.2523 30.8538 25.1051C30.8906 24.9211 30.7803 24.7004 30.5963 24.6636L29.8237 24.4429L30.7803 23.891C30.9643 23.7807 31.001 23.5598 30.9275 23.3759C30.8171 23.1919 30.5963 23.1553 30.4124 23.2288L29.3455 23.7805L29.5662 23.0079C29.603 22.8239 29.4927 22.6032 29.3087 22.5664C29.1247 22.5295 28.904 22.6398 28.8671 22.8239L28.4624 24.2955L27.1012 25.1049V23.4861L28.2049 22.3823C28.3521 22.2352 28.3521 22.0145 28.2049 21.8673C28.0577 21.7201 27.8371 21.7201 27.6899 21.8673L27.1012 22.456V21.3522C27.1012 21.1316 26.954 20.9844 26.7333 20.9844C26.5126 20.9844 26.3654 21.1316 26.3654 21.3522V22.4191L25.7767 21.8304C25.6296 21.6833 25.4089 21.6833 25.2617 21.8304C25.1145 21.9776 25.1145 22.1983 25.2617 22.3455L26.3654 23.4492V25.068L25.0042 24.2955L24.5995 22.787C24.5626 22.603 24.3419 22.4558 24.1579 22.5295C23.9739 22.5663 23.8267 22.787 23.9004 22.971L24.1211 23.7436L23.1645 23.1917C22.9805 23.0814 22.7598 23.1549 22.6494 23.3389C22.5391 23.5229 22.5758 23.7804 22.7598 23.8908L23.6795 24.4427L22.9069 24.6634C22.7229 24.7002 22.6126 24.9209 22.6494 25.1049C22.6863 25.2521 22.8334 25.3624 23.0173 25.3624H23.1276L24.6361 24.9577L25.9973 25.7671L24.5992 26.5765L23.0908 26.1718C22.9067 26.135 22.6861 26.2453 22.6492 26.4293C22.6124 26.6133 22.7227 26.834 22.9067 26.8709L23.6793 27.0915L22.7227 27.6434C22.5387 27.7538 22.502 27.9746 22.5755 28.1585C22.649 28.2688 22.7596 28.3425 22.9067 28.3425C22.9802 28.3425 23.0171 28.3425 23.0908 28.3057L24.0105 27.7538L23.7898 28.5264C23.753 28.7104 23.8633 28.931 24.0474 28.9679H24.1577C24.3049 28.9679 24.4521 28.8576 24.5256 28.7104L24.9302 27.2019L26.3284 26.3925V27.9745L25.2246 29.0783C25.0774 29.2254 25.0774 29.4461 25.2246 29.5933C25.2981 29.6668 25.4087 29.7036 25.4821 29.7036C25.5556 29.7036 25.6662 29.6668 25.7397 29.5933L26.3284 29.0046V30.1084C26.3284 30.329 26.4756 30.4762 26.6962 30.4762C26.9171 30.4766 27.1011 30.2926 27.1011 30.0719L27.1011 30.0719Z" fill="white"/>
</svg>
