<svg width="16" height="19" viewBox="0 0 16 19" fill="none" xmlns="http://www.w3.org/2000/svg">
<path d="M13.6568 14.1967C15.1572 12.6368 16 10.5217 16 8.31628C16 6.11089 15.1572 3.99576 13.6568 2.43591C12.9141 1.66366 12.0323 1.05106 11.0616 0.633093C10.091 0.215129 9.05066 0 8 0C6.94934 0 5.90897 0.215129 4.93835 0.633093C3.96773 1.05106 3.08589 1.66366 2.34321 2.43591C0.842836 3.99576 0 6.11089 0 8.31628C0 10.5217 0.842836 12.6368 2.34321 14.1967L4.08139 15.9767L6.4161 18.3338L6.56809 18.4739C7.45375 19.2197 8.75081 19.1722 9.58504 18.3338L12.3677 15.5195L13.6568 14.1967ZM8 11.8751C7.09074 11.8751 6.21873 11.4998 5.57578 10.8317C4.93284 10.1637 4.57164 9.25753 4.57164 8.31272C4.57164 7.36791 4.93284 6.46179 5.57578 5.79371C6.21873 5.12562 7.09074 4.7503 8 4.7503C8.90926 4.7503 9.78127 5.12562 10.4242 5.79371C11.0672 6.46179 11.4284 7.36791 11.4284 8.31272C11.4284 9.25753 11.0672 10.1637 10.4242 10.8317C9.78127 11.4998 8.90926 11.8751 8 11.8751Z" fill="#0E8778"/>
</svg>
