<svg width="30" height="30" viewBox="0 0 30 30" fill="none" xmlns="http://www.w3.org/2000/svg">
<path d="M19.8 15C19.8 15.9494 19.5185 16.8774 18.9911 17.6667C18.4636 18.4561 17.714 19.0713 16.8369 19.4346C15.9598 19.7979 14.9947 19.893 14.0636 19.7078C13.1325 19.5226 12.2772 19.0654 11.6059 18.3941C10.9346 17.7228 10.4774 16.8675 10.2922 15.9364C10.107 15.0053 10.2021 14.0402 10.5654 13.1631C10.9287 12.286 11.5439 11.5364 12.3333 11.0089C13.1226 10.4815 14.0507 10.2 15 10.2C16.2718 10.204 17.4904 10.7109 18.3897 11.6103C19.2891 12.5096 19.796 13.7282 19.8 15ZM30 8.4V21.6C30 23.8278 29.115 25.9644 27.5397 27.5397C25.9644 29.115 23.8278 30 21.6 30H8.4C6.17218 30 4.03561 29.115 2.4603 27.5397C0.884997 25.9644 0 23.8278 0 21.6V8.4C0 6.17218 0.884997 4.03561 2.4603 2.4603C4.03561 0.884997 6.17218 0 8.4 0H21.6C23.8278 0 25.9644 0.884997 27.5397 2.4603C29.115 4.03561 30 6.17218 30 8.4ZM22.2 15C22.2 13.576 21.7777 12.1839 20.9866 10.9999C20.1954 9.81586 19.0709 8.89302 17.7553 8.34807C16.4397 7.80312 14.992 7.66053 13.5954 7.93835C12.1987 8.21616 10.9158 8.90189 9.90883 9.90883C8.90189 10.9158 8.21616 12.1987 7.93835 13.5954C7.66053 14.992 7.80312 16.4397 8.34807 17.7553C8.89302 19.0709 9.81586 20.1954 10.9999 20.9866C12.1839 21.7777 13.576 22.2 15 22.2C16.9096 22.2 18.7409 21.4414 20.0912 20.0912C21.4414 18.7409 22.2 16.9096 22.2 15ZM24.6 7.2C24.6 6.84399 24.4944 6.49598 24.2966 6.19997C24.0989 5.90397 23.8177 5.67325 23.4888 5.53702C23.1599 5.40078 22.798 5.36513 22.4488 5.43459C22.0997 5.50404 21.7789 5.67547 21.5272 5.92721C21.2755 6.17894 21.104 6.49967 21.0346 6.84884C20.9651 7.198 21.0008 7.55992 21.137 7.88883C21.2733 8.21774 21.504 8.49886 21.8 8.69665C22.096 8.89443 22.444 9 22.8 9C23.2774 9 23.7352 8.81036 24.0728 8.47279C24.4104 8.13523 24.6 7.67739 24.6 7.2Z" fill="#0E8778"/>
</svg>
