<svg width="16" height="16" viewBox="0 0 16 16" fill="none" xmlns="http://www.w3.org/2000/svg">
<path d="M15.7061 12.5332L12.0551 9.21369C11.8825 9.05684 11.6558 8.97318 11.4227 8.98038C11.1896 8.98759 10.9684 9.08509 10.8058 9.25231L8.65655 11.4626C8.13922 11.3638 7.09917 11.0396 6.02859 9.97172C4.958 8.90024 4.63377 7.85751 4.53767 7.34378L6.7462 5.19364C6.91363 5.03119 7.01128 4.80998 7.01848 4.57681C7.02569 4.34364 6.94189 4.11681 6.78482 3.94433L3.46619 0.294312C3.30905 0.121292 3.09065 0.0163428 2.85738 0.00175297C2.62411 -0.0128368 2.39434 0.0640823 2.21687 0.216174L0.2679 1.8876C0.112621 2.04344 0.0199401 2.25085 0.00743838 2.47049C-0.00603375 2.69503 -0.262902 8.01378 3.86137 12.1398C7.45933 15.7368 11.9662 16 13.2074 16C13.3889 16 13.5002 15.9946 13.5299 15.9928C13.7495 15.9805 13.9568 15.8874 14.1119 15.7315L15.7824 13.7816C15.9351 13.6047 16.0126 13.3751 15.9983 13.1419C15.9841 12.9086 15.8792 12.6902 15.7061 12.5332Z" fill="#0E8778"/>
</svg>
