<svg width="17" height="17" viewBox="0 0 17 17" fill="none" xmlns="http://www.w3.org/2000/svg">
<path d="M0.475235 0.475235C0.779619 0.170942 1.1924 0 1.6228 0C2.0532 0 2.46598 0.170942 2.77036 0.475235L8.5098 6.21467L14.2492 0.475235C14.5554 0.179566 14.9654 0.0159619 15.391 0.0196601C15.8165 0.0233583 16.2236 0.194063 16.5246 0.495007C16.8255 0.795951 16.9962 1.20306 16.9999 1.62864C17.0036 2.05422 16.84 2.46423 16.5444 2.77036L10.8049 8.5098L16.5444 14.2492C16.84 14.5554 17.0036 14.9654 16.9999 15.391C16.9962 15.8165 16.8255 16.2236 16.5246 16.5246C16.2236 16.8255 15.8165 16.9962 15.391 16.9999C14.9654 17.0036 14.5554 16.84 14.2492 16.5444L8.5098 10.8049L2.77036 16.5444C2.46423 16.84 2.05422 17.0036 1.62864 16.9999C1.20306 16.9962 0.795951 16.8255 0.495007 16.5246C0.194063 16.2236 0.0233583 15.8165 0.0196601 15.391C0.0159619 14.9654 0.179566 14.5554 0.475235 14.2492L6.21467 8.5098L0.475235 2.77036C0.170942 2.46598 0 2.0532 0 1.6228C0 1.1924 0.170942 0.779619 0.475235 0.475235Z" fill="#3C8477"/>
</svg>
