<svg width="71" height="71" viewBox="0 0 71 71" fill="none" xmlns="http://www.w3.org/2000/svg">
<rect width="71" height="71" rx="10" fill="#0E8778"/>
<path d="M34.9993 11C28.3692 11.0004 22.0105 13.6341 17.322 18.3228C12.6336 23.0112 10 29.3697 10 36.0002C10 42.6303 12.6341 48.989 17.3224 53.6776C22.0107 58.3662 28.3692 61 34.9998 61C41.6303 61 47.9886 58.3663 52.6772 53.678C57.366 48.9901 59.9996 42.6312 60 36.0007C59.9926 29.3722 57.3563 23.0175 52.6692 18.3311C47.9826 13.6441 41.6275 11.0078 34.9997 11.0003L34.9993 11ZM34.9993 12.8668C40.9634 12.8629 46.6968 15.1705 50.9959 19.3052L18.1077 51.7872C13.9769 47.3735 11.7387 41.5176 11.873 35.4748C12.0073 29.4311 14.5031 23.6802 18.8262 19.4548C23.1487 15.229 28.9545 12.8643 34.9991 12.867L34.9993 12.8668ZM34.9993 59.1323V59.1327C29.2399 59.1371 23.6869 56.9852 19.4358 53.1002L19.4353 53.0998L52.2912 20.6502L52.2917 20.6506C56.2629 25.1174 58.3498 30.9486 58.1153 36.9206C57.8803 42.8934 55.3416 48.5422 51.0317 52.684C46.7223 56.8251 40.9762 59.1366 34.9994 59.1331L34.9993 59.1323Z" fill="white"/>
<path d="M23.888 32.2071C22.548 32.2071 21.3336 33.0058 20.7987 34.2294L18.9104 38.2959L16.9466 38.2956C16.4752 38.2956 16.034 38.5025 15.7354 38.8632C15.4392 39.2204 15.3182 39.6875 15.4039 40.1377L15.9504 43.2428C15.9748 43.3832 16.0479 43.5095 16.1571 43.6011L17.5969 44.8075C17.706 44.8982 17.8428 44.9482 17.9841 44.9482H19.266C19.266 44.9586 19.2627 44.9696 19.2627 44.98C19.2627 47.0735 20.9696 48.7768 23.0675 48.7768C25.1648 48.7768 26.8717 47.0735 26.8717 44.98C26.8717 44.9693 26.8687 44.9589 26.8684 44.9482H34.9666C34.9666 44.9586 34.9633 44.9696 34.9633 44.98C34.9633 47.0735 36.6663 48.7768 38.7595 48.7768C40.8574 48.7768 42.5642 47.0735 42.5642 44.98C42.5642 44.9696 42.5612 44.9586 42.5609 44.9482H44.4296C45.1254 44.9482 45.7474 44.4852 45.9408 43.825L46.9878 40.306C47.1252 39.8308 47.0327 39.3289 46.7327 38.9289C45.9295 37.8599 44.8492 38.4662 40.3804 38.2958L38.1993 34.1063C37.6284 32.9346 36.4657 32.207 35.1641 32.207L23.888 32.2071ZM21.8992 34.7248C22.2471 33.9285 23.028 33.4134 23.888 33.4134H29.0416V38.2953H20.2407L21.8992 34.7248ZM23.0679 47.5702C21.6352 47.5702 20.4695 46.4084 20.4695 44.9802C20.4695 43.5508 21.6408 42.3821 23.0679 42.3821C24.4857 42.3821 25.6653 43.5404 25.6653 44.9802C25.6656 46.4084 24.4999 47.5702 23.0679 47.5702ZM38.7603 47.5702C37.3323 47.5702 36.1705 46.4084 36.1705 44.9802C36.1705 43.5546 37.3368 42.3821 38.7603 42.3821C40.1847 42.3821 41.3587 43.5484 41.3587 44.9802C41.3587 46.4084 40.1931 47.5702 38.7603 47.5702ZM45.7683 39.6532C45.8022 39.6975 45.8745 39.817 45.831 39.9657L44.7849 43.4832C44.7394 43.6379 44.5973 43.7416 44.4308 43.7416H42.357C41.8529 42.2792 40.3932 41.1754 38.7604 41.1754C37.1257 41.1754 35.6723 42.2937 35.1724 43.7416H26.6639C26.1619 42.2857 24.7075 41.1754 23.0679 41.1754C21.4603 41.1754 19.975 42.2825 19.4713 43.7416H18.2036L17.1007 42.8171L16.591 39.9214C16.5643 39.7801 16.6255 39.6802 16.6642 39.6332C16.7049 39.5845 16.7953 39.5024 16.947 39.5024C22.1214 39.5024 3.80626 39.5018 45.4688 39.5024C45.6311 39.5024 45.7269 39.5969 45.7685 39.6531L45.7683 39.6532ZM37.1235 34.6492L39.0216 38.2954H30.2482V33.4136H35.1654C36.0013 33.4136 36.7492 33.8816 37.1239 34.6491L37.1235 34.6492Z" fill="white"/>
<path d="M39.8424 44.9722C39.8424 45.5672 39.3601 46.0495 38.7651 46.0495C38.1698 46.0495 37.6875 45.5672 37.6875 44.9722C37.6875 44.3768 38.1698 43.8945 38.7651 43.8945C39.3602 43.8945 39.8424 44.3769 39.8424 44.9722Z" fill="white"/>
<path d="M24.1491 44.9722C24.1491 45.5672 23.6668 46.0495 23.0718 46.0495C22.4768 46.0495 21.9941 45.5672 21.9941 44.9722C21.9941 44.3768 22.4768 43.8945 23.0718 43.8945C23.6668 43.8945 24.1491 44.3769 24.1491 44.9722Z" fill="white"/>
<path d="M50.2692 25.6033C47.7041 22.7239 45.7053 23.2502 44.7251 22.1687C44.6868 22.1176 44.6538 22.0855 44.6472 22.0807C42.5877 19.7661 39.16 19.085 37.0157 21.001C34.836 22.9377 35.1926 26.4106 37.2009 28.6812C37.2372 28.7288 37.2684 28.7609 37.2866 28.7782C38.2123 29.7826 37.5426 31.8344 40.0878 34.6922C42.304 37.1662 45.7567 38.4416 48.766 37.2982L51.919 40.8282C52.0385 40.9618 52.2033 41.0298 52.3692 41.0298C52.5122 41.0298 52.6559 40.9796 52.7706 40.877L54.9904 38.8984C55.11 38.7916 55.1822 38.642 55.1915 38.4817C55.2001 38.3218 55.1451 38.1648 55.0383 38.0455L51.8735 34.5119C53.2595 31.8458 52.6354 28.2527 50.2695 25.6038L50.2692 25.6033ZM40.9872 33.888C38.5777 31.1829 39.5165 29.3996 38.1798 27.9775C38.1635 27.9514 38.1435 27.9264 38.1233 27.9029C36.5548 26.1467 36.1435 23.388 37.817 21.9018C39.4945 20.4049 42.1815 21.1298 43.7459 22.873C43.7623 22.8986 43.7804 22.923 43.8009 22.9456C45.1575 24.4802 46.9233 23.6616 49.3685 26.406C51.8827 29.2214 51.9419 32.8234 50.2011 34.865L47.4511 31.7849L47.298 28.5758C47.2822 28.2424 46.9964 27.9864 46.6664 28.0019C46.3342 28.0176 46.0773 28.3004 46.0931 28.6329L46.1754 30.3558L44.4073 28.3756L44.0201 25.2066C43.98 24.876 43.6728 24.6455 43.3487 24.6809C43.018 24.7213 42.7822 25.0223 42.8232 25.3529L42.9998 26.7993L41.5452 25.1704C41.3221 24.9215 40.9418 24.9007 40.693 25.1222C40.4447 25.3441 40.4235 25.7256 40.6451 25.9741L43.9821 29.7111C42.2267 29.6115 40.8285 28.8687 40.6876 29.8568C40.6412 30.1866 40.8714 30.492 41.2015 30.5384L45.2266 31.1049L46.7789 32.8433L45.2388 32.6595C44.9049 32.6146 44.6072 32.8563 44.568 33.187C44.4473 34.2043 46.0694 33.8225 47.993 34.2031L49.3029 35.6701C46.7242 37.4192 43.1273 36.2776 40.9878 33.8883L40.9872 33.888ZM52.4167 39.5751L49.881 36.737C50.6452 36.2422 50.9848 35.7834 51.1951 35.5639L53.7349 38.3999L52.4167 39.5751Z" fill="white"/>
</svg>
