<svg width="71" height="71" viewBox="0 0 71 71" fill="none" xmlns="http://www.w3.org/2000/svg">
<rect width="71" height="71" rx="10" fill="#0E8778"/>
<path d="M35.0309 28.5495C32.8082 28.5495 31 26.7447 31 24.5267C31 22.3083 32.8079 20.5039 35.0309 20.5039C37.2536 20.5039 39.0617 22.3086 39.0617 24.5267C39.0614 26.7447 37.2535 28.5495 35.0309 28.5495ZM35.0309 22.5661C33.9505 22.5661 33.0717 23.4455 33.0717 24.5267C33.0717 25.6075 33.9505 26.4873 35.0309 26.4873C36.1113 26.4873 36.99 25.6078 36.99 24.5267C36.99 23.4455 36.1113 22.5661 35.0309 22.5661Z" fill="white"/>
<path d="M21.0166 48.6861C20.7247 48.6861 20.4341 48.5637 20.2288 48.3262C19.6031 47.597 19.2578 46.6678 19.2578 45.7064C19.2578 43.488 21.0657 41.6836 23.2887 41.6836C24.5971 41.6836 25.829 42.3213 26.5845 43.389C26.9136 43.8548 26.8016 44.498 26.3337 44.8257C25.8665 45.1547 25.2198 45.0431 24.8906 44.576C24.5233 44.0565 23.9243 43.7462 23.289 43.7462C22.2086 43.7462 21.3299 44.6256 21.3299 45.7068C21.3299 46.1755 21.4979 46.6291 21.8034 46.9837C22.175 47.4174 22.1243 48.0675 21.69 48.4378C21.495 48.6044 21.2548 48.6861 21.0166 48.6861Z" fill="white"/>
<path d="M56.0263 57.9983H14.0399C13.7249 57.9983 13.4277 57.856 13.2314 57.6116C13.0343 57.3672 12.9602 57.0464 13.0291 56.7414C13.5895 54.2599 14.9226 53.0663 16.1769 52.4982C16.1736 52.4205 16.1723 52.3437 16.1723 52.2673C16.1723 49.1078 18.7478 46.5365 21.9138 46.5365C22.1767 46.5365 22.4383 46.5539 22.696 46.5903C23.0729 44.2915 25.0771 42.5311 27.4846 42.5311C28.0856 42.5311 28.6727 42.6426 29.2266 42.8587C30.0743 41.344 31.4839 40.2014 33.1669 39.7084C33.7131 39.5526 34.2917 39.8616 34.4528 40.4068C34.6139 40.9533 34.2996 41.5266 33.7507 41.6877C32.3256 42.104 31.1833 43.2038 30.695 44.6271C30.5886 44.9374 30.3402 45.1788 30.0268 45.2769C29.7138 45.375 29.3705 45.3212 29.1049 45.128C28.6222 44.779 28.0618 44.5936 27.4845 44.5936C25.9518 44.5936 24.704 45.841 24.704 47.3745C24.704 47.5021 24.7255 47.6228 24.7439 47.7452C24.7986 48.1132 24.6523 48.5 24.3574 48.7279C24.0642 48.9562 23.6688 49.0274 23.3242 48.8811C22.8738 48.6945 22.3996 48.599 21.9133 48.599C19.8896 48.599 18.2432 50.2453 18.2432 52.2676C18.2432 52.5133 18.2702 52.755 18.3167 52.9873C18.4237 53.5203 18.0969 54.0455 17.5687 54.1865C16.6248 54.4374 15.9342 55.0137 15.4794 55.9361H54.2024C53.4377 54.9291 52.1421 53.6964 50.2249 53.3514C49.8134 53.2762 49.4872 52.9633 49.3983 52.5566C49.1198 51.293 47.9802 50.3759 46.6873 50.3759C46.6326 50.3759 46.5795 50.3867 46.5268 50.3933C46.5186 50.3946 46.3914 50.4107 46.3838 50.412C46.1094 50.4376 45.8309 50.3625 45.6145 50.1906C45.3987 50.0161 45.2609 49.7635 45.2342 49.4883C45.0016 47.1183 43.0419 45.331 40.6769 45.331C40.6499 45.3349 40.4545 45.3592 40.4275 45.3605C39.9675 45.4009 39.5287 45.1027 39.3794 44.6582C38.8967 43.2189 37.7514 42.1082 36.3149 41.688C35.766 41.527 35.4517 40.9536 35.6127 40.4071C35.7745 39.862 36.3531 39.5516 36.8987 39.7088C38.7349 40.2474 40.2429 41.5552 41.0528 43.2793C43.9964 43.4416 46.4424 45.5068 47.1337 48.3347C48.9782 48.5079 50.5804 49.7405 51.2279 51.462C55.2808 52.5376 56.9134 56.4045 56.9842 56.5764C57.1144 56.8946 57.0771 57.257 56.885 57.5417C56.6936 57.8278 56.3714 57.9983 56.0261 57.9983L56.0263 57.9983Z" fill="white"/>
<path d="M27.5228 52.9354C27.0487 52.9354 26.6211 52.6103 26.5126 52.1297C25.94 49.5932 23.4893 48.9365 23.4652 48.9312C22.911 48.7889 22.5776 48.2263 22.7206 47.6743C22.8629 47.1238 23.4319 46.7975 23.9815 46.9329C24.1324 46.972 27.6865 47.9252 28.5343 51.6784C28.6598 52.2331 28.3089 52.7848 27.7508 52.9097C27.6737 52.9275 27.5976 52.9354 27.5228 52.9354Z" fill="white"/>
<path d="M38.928 35.053C37.0984 35.053 35.9646 34.3442 35.0309 33.1302C34.0961 34.3442 32.9627 35.053 31.1331 35.053C30.2221 35.053 29.3447 34.3885 28.8435 33.3182C28.513 32.6119 28.3236 31.6263 28.5219 30.6045C26.6383 30.6878 25.1912 30.0498 24.6739 28.8024C24.1174 27.4595 24.8258 25.8482 26.4617 24.527C24.8255 23.2045 24.1174 21.5945 24.6736 20.2506C25.1909 19.0032 26.6488 18.3682 28.5216 18.4485C28.3232 17.4267 28.5127 16.4411 28.8432 15.7349C29.3443 14.6646 30.2217 14 31.1328 14C32.9623 14 34.0961 14.7088 35.0305 15.9228C35.9646 14.7088 37.0981 14 38.9276 14C39.8387 14 40.716 14.6646 41.2172 15.7349C41.5477 16.4411 41.7372 17.4267 41.5388 18.4485C43.4264 18.3613 44.8695 19.0019 45.3868 20.2506C45.9433 21.5949 45.2349 23.2061 43.5991 24.5274C45.235 25.8486 45.9433 27.4598 45.3868 28.8027C44.8695 30.0515 43.429 30.6973 41.5388 30.6049C41.7372 31.6266 41.5477 32.6123 41.2172 33.3185C40.7164 34.3885 39.839 35.053 38.928 35.053ZM30.2832 28.2332C30.6279 28.2332 30.9583 28.4051 31.1524 28.7033C31.3999 29.0848 31.3689 29.5814 31.0763 29.9278C30.3231 30.8206 30.4964 31.7729 30.6055 32.1406C30.7742 32.7071 31.0783 32.9679 31.164 32.9931C32.3481 32.9905 33.0321 32.6762 34.1204 30.7291C34.3033 30.4014 34.6499 30.1987 35.0255 30.1987H35.0357C35.4113 30.1987 35.7579 30.4014 35.9407 30.7291C37.0293 32.6763 37.713 32.9905 38.9281 32.9905C38.9828 32.9675 39.2869 32.7071 39.4556 32.1406C39.565 31.7726 39.7383 30.8206 38.9848 29.9278C38.6922 29.5814 38.6612 29.0844 38.9087 28.7033C39.1561 28.3234 39.6263 28.1516 40.0619 28.2723C41.9649 28.8135 43.2868 28.4628 43.4724 28.0158C43.6579 27.5687 42.9712 26.3885 41.2441 25.4271C40.9169 25.2443 40.714 24.9006 40.714 24.5273C40.714 24.154 40.9169 23.8102 41.2441 23.6275C42.9713 22.6661 43.6575 21.4846 43.4724 21.0375C43.2856 20.5891 41.9643 20.2384 40.0619 20.781C39.6263 20.8991 39.1562 20.7298 38.9087 20.35C38.6612 19.9685 38.6922 19.4719 38.9848 19.1255C39.738 18.2326 39.5647 17.2804 39.4556 16.9126C39.2869 16.3462 38.9828 16.0854 38.8971 16.0602C37.713 16.0628 37.0296 16.377 35.9407 18.3255C35.7572 18.6545 35.4092 18.8559 35.0357 18.8559C35.0337 18.8559 35.0291 18.8572 35.0254 18.8559C34.6518 18.8559 34.3039 18.6545 34.1204 18.3255C33.0311 16.3771 32.3481 16.0628 31.133 16.0628C31.0783 16.0858 30.7742 16.3462 30.6055 16.9127C30.4961 17.2808 30.3228 18.2327 31.0763 19.1256C31.3689 19.4719 31.3999 19.9689 31.1524 20.35C30.905 20.7299 30.4381 20.8992 29.9992 20.7811C28.0955 20.2385 26.7736 20.5905 26.5887 21.0376C26.4032 21.4847 27.0899 22.6662 28.8163 23.6276C29.1435 23.8103 29.3465 24.1541 29.3465 24.5274C29.3465 24.9007 29.1435 25.2444 28.8163 25.4271C27.0898 26.3885 26.4036 27.5688 26.5887 28.0158C26.7736 28.4642 28.0931 28.8149 29.9992 28.2723C30.0931 28.2468 30.189 28.2333 30.2832 28.2333L30.2832 28.2332Z" fill="white"/>
<path d="M55.1775 56.5433C54.8134 56.5433 54.4599 56.3515 54.2711 56.0116C53.9933 55.5134 54.1739 54.8866 54.6744 54.6097C54.8194 54.5303 54.9205 54.4418 54.9455 54.3749C55.108 53.9304 55.245 53.3019 54.9693 52.8279C54.6309 52.2437 53.7445 51.9806 53.0616 51.8639C52.6293 51.7888 52.2916 51.4516 52.2171 51.0206C52.143 50.5909 52.3492 50.1612 52.7324 49.9477C54.4596 48.9849 55.1458 47.8047 54.9607 47.3576C54.7745 46.9092 53.454 46.5599 51.5496 47.1011C51.1114 47.2192 50.6439 47.0499 50.3964 46.6688C50.149 46.289 50.1799 45.792 50.4725 45.4457C51.2257 44.5541 51.0531 43.6022 50.944 43.2328C50.7753 42.6663 50.4712 42.4055 50.3849 42.3786C49.2014 42.3826 48.5184 42.6968 47.4291 44.6452C47.2584 44.9513 46.9441 45.15 46.5942 45.173C46.444 45.1812 46.2934 45.1609 46.1566 45.1087C45.9267 45.0254 45.7296 44.8643 45.6084 44.6456C44.5191 42.6972 43.8361 42.3829 42.621 42.3829C42.447 42.442 41.8918 43.1846 42.0114 44.1916C42.0777 44.7581 41.6714 45.2698 41.103 45.3371C40.5347 45.3909 40.0193 44.9972 39.9538 44.4334C39.8121 43.2371 40.1798 41.9841 40.9119 41.165C41.3982 40.6198 42.0051 40.3203 42.6209 40.3203C44.4505 40.3203 45.5843 41.0292 46.5187 42.2445C47.4534 41.0291 48.5869 40.3203 50.4165 40.3203C51.3275 40.3203 52.2049 40.9849 52.7061 42.0565C53.0365 42.7628 53.2253 43.7471 53.0276 44.7689C54.9077 44.6817 56.3577 45.3223 56.8757 46.571C57.3877 47.8077 56.8285 49.27 55.4609 50.5269C56.0273 50.8559 56.4632 51.2787 56.7624 51.7944C57.2978 52.7155 57.3423 53.8527 56.8912 55.0827C56.6882 55.6345 56.281 56.0832 55.6794 56.4148C55.5202 56.5017 55.3475 56.5433 55.1775 56.5433Z" fill="white"/>
<path d="M16.6842 51.5763C14.9449 51.5763 13.6698 50.9304 13.1874 49.7676C12.6309 48.4247 13.3393 46.8134 14.9751 45.4922C13.3392 44.171 12.6309 42.5597 13.1874 41.2155C13.7047 39.9667 15.1567 39.3343 17.0354 39.4134C16.8371 38.3916 17.0265 37.4059 17.357 36.6997C17.8581 35.6294 18.7356 34.9648 19.6466 34.9648C21.4762 34.9648 22.61 35.6737 23.5444 36.8876C24.4784 35.6737 25.6119 34.9648 27.4415 34.9648C28.3525 34.9648 29.2299 35.6294 29.7311 36.6997C30.0615 37.4072 30.251 38.3916 30.0526 39.4134C31.3689 39.3474 32.4832 39.6469 33.2146 40.2767C33.6476 40.65 33.6947 41.3011 33.3197 41.7321C32.9461 42.1618 32.2908 42.2074 31.8592 41.8367C31.4154 41.4539 30.1462 41.2968 28.5749 41.7455C28.1393 41.8623 27.6692 41.6931 27.4217 41.3145C27.1742 40.933 27.2052 40.4364 27.4978 40.09C28.251 39.1972 28.0777 38.2449 27.9686 37.8772C27.7999 37.3107 27.4958 37.0499 27.4101 37.0247C26.226 37.0273 25.5426 37.3416 24.4537 39.29C24.2702 39.619 23.9222 39.8204 23.5486 39.8204H23.5384C23.1648 39.8204 22.8169 39.619 22.6334 39.29C21.5441 37.3416 20.8611 37.0274 19.646 37.0274C19.5913 37.0504 19.2872 37.3108 19.1185 37.8773C19.0091 38.2453 18.8358 39.1973 19.5893 40.0901C19.8819 40.4365 19.9129 40.9335 19.6654 41.3146C19.418 41.6931 18.9478 41.8624 18.5122 41.7456C16.6092 41.2044 15.2873 41.5537 15.1017 42.0021C14.9162 42.4492 15.6029 43.6308 17.33 44.5922C17.6572 44.7749 17.8601 45.1186 17.8601 45.4919C17.8601 45.8652 17.6572 46.209 17.33 46.3917C15.6028 47.3531 14.9166 48.5333 15.1017 48.9804C15.2506 49.3389 16.1172 49.6328 17.4249 49.4639C17.9873 49.3996 18.5105 49.7916 18.584 50.3568C18.6562 50.9206 18.2548 51.4376 17.6878 51.5101C17.3395 51.5547 17.0038 51.5763 16.6842 51.5763L16.6842 51.5763Z" fill="white"/>
<path d="M33.4577 48.5604C32.8858 48.5604 32.4219 48.0985 32.4219 47.5291V33.2849C32.4219 32.9733 32.5629 32.6794 32.8057 32.4832C33.2265 32.1447 33.6317 31.6038 34.1207 30.7296C34.3036 30.4019 34.6502 30.1992 35.0257 30.1992H35.036C35.4116 30.1992 35.7582 30.4019 35.941 30.7296C36.43 31.6038 36.8352 32.145 37.256 32.4832C37.4988 32.6794 37.6398 32.9733 37.6398 33.2849V47.1437C37.6398 47.7131 37.1759 48.175 36.604 48.175C36.032 48.175 35.5681 47.7131 35.5681 47.1437V33.7417C35.3859 33.5603 35.208 33.3576 35.0314 33.128C34.8541 33.3576 34.6759 33.5603 34.494 33.7417V47.5291C34.4933 48.0986 34.0294 48.5604 33.4577 48.5604Z" fill="white"/>
<path d="M31.4 50.7659C31.3232 50.7659 31.2448 50.7577 31.1667 50.739C30.6171 50.6101 30.2698 50.0771 30.3885 49.528C30.4135 49.4138 31.0379 46.7123 34.6628 46.0946C37.6031 45.5872 39.1751 47.3299 39.5919 48.3195C39.8137 48.8447 39.5656 49.4489 39.0377 49.669C38.5096 49.892 37.9027 49.6421 37.6823 49.1173C37.6243 48.9949 37.0026 47.7892 35.0125 48.1276C32.8149 48.5022 32.4258 49.9203 32.41 49.9806C32.2897 50.4477 31.8654 50.7659 31.4001 50.7659L31.4 50.7659Z" fill="white"/>
</svg>
